<?xml version="1.0" encoding="UTF-8" standalone="no"?>
<!-- Created with Inkscape (http://www.inkscape.org/) -->

<svg
   version="1.1"
   id="svg1"
   width="167.12"
   height="144.58667"
   viewBox="0 0 167.12 144.58667"
   sodipodi:docname="MATH_118-79.pdf"
   xmlns:inkscape="http://www.inkscape.org/namespaces/inkscape"
   xmlns:sodipodi="http://sodipodi.sourceforge.net/DTD/sodipodi-0.dtd"
   xmlns="http://www.w3.org/2000/svg"
   xmlns:svg="http://www.w3.org/2000/svg">
  <defs
     id="defs1" />
  <sodipodi:namedview
     id="namedview1"
     pagecolor="#ffffff"
     bordercolor="#000000"
     borderopacity="0.25"
     inkscape:showpageshadow="2"
     inkscape:pageopacity="0.0"
     inkscape:pagecheckerboard="0"
     inkscape:deskcolor="#d1d1d1">
    <inkscape:page
       x="0"
       y="0"
       inkscape:label="1"
       id="page1"
       width="167.12"
       height="144.58667"
       margin="0"
       bleed="0" />
  </sodipodi:namedview>
  <g
     id="g1"
     inkscape:groupmode="layer"
     inkscape:label="1">
    <g
       id="g2"
       aria-label="P(x)=x"
       transform="matrix(1.3333333,0,0,1.3333333,55.748,14.965333)">
      <path
         id="path2"
         d="M 0.42044531,-3.671875e-4 H 1.3462266 L 1.9673203,-3.1409922 h 1.2539063 c 2.015625,0 3.4335937,-0.8671875 3.4335937,-2.7890625 0,-1.359375 -0.9726562,-1.9101562 -2.4609375,-1.9101562 H 1.9790391 Z M 2.1431016,-3.9144297 2.7641953,-7.0902109 h 1.2070313 c 1.1484375,0 1.7695312,0.3867187 1.7695312,1.2773437 0,1.2539063 -0.8671875,1.8984375 -2.4726562,1.8984375 z m 0,0"
         style="fill:#c9d1d9;fill-opacity:1;fill-rule:nonzero;stroke:none" />
      <path
         id="path3"
         d="m 10.478062,2.9058828 c 0,-0.035156 0,-0.058594 -0.210937,-0.2695312 -1.1953125,-1.2070313 -1.8632813,-3.17578129 -1.8632813,-5.6132813 0,-2.3203125 0.5625,-4.3125 1.9453123,-5.7304687 0.128906,-0.1054688 0.128906,-0.1289063 0.128906,-0.1640625 0,-0.070312 -0.07031,-0.09375 -0.117187,-0.09375 -0.152344,0 -1.1367188,0.8554687 -1.7226563,2.0273437 -0.609375,1.2070313 -0.8789062,2.4960938 -0.8789062,3.9609375 0,1.0664063 0.1640625,2.48437501 0.7851562,3.76171876 0.703125,1.44140624 1.6875003,2.21484374 1.8164063,2.21484374 0.04687,0 0.117187,-0.023437 0.117187,-0.09375 z m 0,0"
         style="fill:#c9d1d9;fill-opacity:1;fill-rule:nonzero;stroke:none" />
      <path
         id="path4"
         d="m 10.612828,-3.671875e-4 h 1.019531 l 1.125,-1.3710937125 c 0.292969,-0.375 0.574219,-0.703125 0.820313,-1.0546875 h 0.04687 c 0.140625,0.3515625 0.292969,0.7148437 0.410156,1.0664062 l 0.527344,1.3593750125 h 0.949219 L 14.327672,-2.8831797 16.718297,-5.8128672 h -0.996094 l -1.007812,1.2890625 c -0.234375,0.3398438 -0.503907,0.6679688 -0.75,0.9726563 h -0.04687 c -0.128907,-0.3398438 -0.222657,-0.6210938 -0.339844,-0.9726563 l -0.503906,-1.2890625 h -0.9375 l 1.078125,2.7304688 z m 0,0"
         style="fill:#c9d1d9;fill-opacity:1;fill-rule:nonzero;stroke:none" />
      <path
         id="path5"
         d="m 19.653844,-2.9769297 c 0,-0.9140625 -0.128907,-2.390625 -0.796875,-3.7734375 -0.703125,-1.4414062 -1.675782,-2.2148437 -1.816407,-2.2148437 -0.04687,0 -0.105468,0.023437 -0.105468,0.09375 0,0.035156 0,0.058594 0.199218,0.2695312 1.195313,1.2070313 1.875,3.1757813 1.875,5.6132813 0,2.32031246 -0.5625,4.3125 -1.957031,5.7304687 -0.117187,0.1054688 -0.117187,0.1289063 -0.117187,0.1640625 0,0.070312 0.05859,0.09375 0.105468,0.09375 0.164063,0 1.136719,-0.8554687 1.722657,-2.02734374 0.609375,-1.21875 0.890625,-2.51953126 0.890625,-3.94921876 z m 12.553711,-0.890625 c 0.164062,0 0.375,0 0.375,-0.2226562 0,-0.2226563 -0.199219,-0.2226563 -0.375,-0.2226563 h -7.042969 c -0.175781,0 -0.386719,0 -0.386719,0.2109375 0,0.234375 0.199219,0.234375 0.386719,0.234375 z m 0,2.2148438 c 0.164062,0 0.375,0 0.375,-0.2109375 0,-0.234375 -0.199219,-0.234375 -0.375,-0.234375 h -7.042969 c -0.175781,0 -0.386719,0 -0.386719,0.2226562 0,0.2226563 0.199219,0.2226563 0.386719,0.2226563 z m 0,0"
         style="fill:#c9d1d9;fill-opacity:1;fill-rule:nonzero;stroke:none" />
      <path
         id="path6"
         d="m 36.051305,-3.671875e-4 h 1.019531 l 1.125,-1.3710937125 c 0.292969,-0.375 0.574219,-0.703125 0.820312,-1.0546875 h 0.04687 c 0.140625,0.3515625 0.292969,0.7148437 0.410157,1.0664062 l 0.527343,1.3593750125 h 0.949219 L 39.766148,-2.8831797 42.156773,-5.8128672 H 41.16068 l -1.007813,1.2890625 c -0.234375,0.3398438 -0.503906,0.6679688 -0.75,0.9726563 h -0.04687 c -0.128906,-0.3398438 -0.222656,-0.6210938 -0.339844,-0.9726563 l -0.503906,-1.2890625 h -0.9375 l 1.078125,2.7304688 z m 0,0"
         style="fill:#c9d1d9;fill-opacity:1;fill-rule:nonzero;stroke:none" />
    </g>
    <path
       id="path7"
       d="m -28.3468,1.99255 v -3.9851"
       style="fill:none;stroke:#c9d1d9;stroke-width:0.3985;stroke-linecap:butt;stroke-linejoin:miter;stroke-miterlimit:10;stroke-dasharray:none;stroke-opacity:1"
       transform="matrix(1.3333333,0,0,-1.3333333,83.56,81.477333)" />
    <g
       id="g7"
       aria-label="−1"
       transform="matrix(1.3333333,0,0,1.3333333,42.048,94.805333)">
      <path
         id="path8"
         d="m 4.7569688,-1.3364219 c 0.09375,0 0.2460937,0 0.2460937,-0.1523437 0,-0.1640625 -0.1523437,-0.1640625 -0.2460937,-0.1640625 H 0.99525 c -0.10546875,0 -0.24609375,0 -0.24609375,0.1640625 0,0.1523437 0.140625,0.1523437 0.24609375,0.1523437 z m 0,0"
         style="fill:#c9d1d9;fill-opacity:1;fill-rule:nonzero;stroke:none" />
      <path
         id="path9"
         d="M 6.7520859,-4.84375e-4 H 7.2442734 V -3.8090781 h -0.375 c -0.2109375,0.1171875 -0.4570312,0.2109375 -0.8203125,0.28125 v 0.3164062 h 0.703125 z m 0,0"
         style="fill:#c9d1d9;fill-opacity:1;fill-rule:nonzero;stroke:none" />
    </g>
    <path
       id="path10"
       d="m 28.3468,1.99255 v -3.9851"
       style="fill:none;stroke:#c9d1d9;stroke-width:0.3985;stroke-linecap:butt;stroke-linejoin:miter;stroke-miterlimit:10;stroke-dasharray:none;stroke-opacity:1"
       transform="matrix(1.3333333,0,0,-1.3333333,83.56,81.477333)" />
    <path
       id="path11"
       d="M 0.99651563,-3.4375e-4 H 1.4887031 V -3.8089375 h -0.375 C 0.90276563,-3.69175 0.65667188,-3.598 0.29339063,-3.5276875 v 0.3164062 h 0.703125 z m 0,0"
       style="fill:#c9d1d9;fill-opacity:1;fill-rule:nonzero;stroke:none"
       aria-label="1"
       transform="matrix(1.3333333,0,0,1.3333333,121.476,94.797333)" />
    <path
       id="path12"
       d="m 1.99255,-28.3468 h -3.9851"
       style="fill:none;stroke:#c9d1d9;stroke-width:0.3985;stroke-linecap:butt;stroke-linejoin:miter;stroke-miterlimit:10;stroke-dasharray:none;stroke-opacity:1"
       transform="matrix(1.3333333,0,0,-1.3333333,83.56,81.477333)" />
    <g
       id="g12"
       aria-label="−1"
       transform="matrix(1.3333333,0,0,1.3333333,64.702667,121.26533)">
      <path
         id="path13"
         d="m 4.7581563,-1.3357187 c 0.09375,0 0.2460937,0 0.2460937,-0.1523438 0,-0.1640625 -0.1523437,-0.1640625 -0.2460937,-0.1640625 H 0.9964375 c -0.10546875,0 -0.24609375,0 -0.24609375,0.1640625 0,0.1523438 0.140625,0.1523438 0.24609375,0.1523438 z m 0,0"
         style="fill:#c9d1d9;fill-opacity:1;fill-rule:nonzero;stroke:none" />
      <path
         id="path14"
         d="M 6.7532734,2.1875e-4 H 7.2454609 V -3.808375 h -0.375 c -0.2109375,0.1171875 -0.4570312,0.2109375 -0.8203125,0.28125 v 0.3164063 h 0.703125 z m 0,0"
         style="fill:#c9d1d9;fill-opacity:1;fill-rule:nonzero;stroke:none" />
    </g>
    <path
       id="path15"
       d="m 1.99255,28.3468 h -3.9851"
       style="fill:none;stroke:#c9d1d9;stroke-width:0.3985;stroke-linecap:butt;stroke-linejoin:miter;stroke-miterlimit:10;stroke-dasharray:none;stroke-opacity:1"
       transform="matrix(1.3333333,0,0,-1.3333333,83.56,81.477333)" />
    <path
       id="path16"
       d="M 0.99727344,-0.00100781 H 1.4894609 V -3.8096016 h -0.375 c -0.21093746,0.1171875 -0.45703121,0.2109375 -0.82031246,0.28125 v 0.3164063 h 0.703125 z m 0,0"
       style="fill:#c9d1d9;fill-opacity:1;fill-rule:nonzero;stroke:none"
       aria-label="1"
       transform="matrix(1.3333333,0,0,1.3333333,72.377333,46.224)" />
    <path
       id="path17"
       d="M -42.5202,0 H 42.27113"
       style="fill:none;stroke:#c9d1d9;stroke-width:0.24907;stroke-linecap:butt;stroke-linejoin:miter;stroke-miterlimit:10;stroke-dasharray:none;stroke-opacity:1"
       transform="matrix(1.3333333,0,0,-1.3333333,83.56,81.477333)" />
    <path
       id="path18"
       d="M -1.89291,2.12108 C -1.54709,0.84842 -0.77643,0.24745 0,0 -0.77643,-0.24745 -1.54709,-0.84842 -1.89291,-2.12108"
       style="fill:none;stroke:#c9d1d9;stroke-width:0.24907;stroke-linecap:round;stroke-linejoin:round;stroke-miterlimit:10;stroke-dasharray:none;stroke-opacity:1"
       transform="matrix(1.3333333,0,0,-1.3333333,140.08755,81.477333)" />
    <path
       id="path19"
       d="M 0,-42.5202 V 42.27113"
       style="fill:none;stroke:#c9d1d9;stroke-width:0.24907;stroke-linecap:butt;stroke-linejoin:miter;stroke-miterlimit:10;stroke-dasharray:none;stroke-opacity:1"
       transform="matrix(1.3333333,0,0,-1.3333333,83.56,81.477333)" />
    <path
       id="path20"
       d="M -1.89291,2.12108 C -1.54709,0.84842 -0.77643,0.24745 0,0 -0.77643,-0.24745 -1.54709,-0.84842 -1.89291,-2.12108"
       style="fill:none;stroke:#c9d1d9;stroke-width:0.24907;stroke-linecap:round;stroke-linejoin:round;stroke-miterlimit:10;stroke-dasharray:none;stroke-opacity:1"
       transform="matrix(0,-1.3333333,-1.3333333,0,83.56,24.949787)" />
    <path
       id="path21"
       d="m -34.01608,-34.01608 0.13626,0.13626 0.13626,0.13626 0.13623,0.13623 0.13626,0.13626 0.13625,0.13625 0.13624,0.13624 0.13626,0.13626 0.13623,0.13623 0.13626,0.13626 0.13627,0.13627 0.13623,0.13623 0.13626,0.13626 0.13624,0.13624 0.13625,0.13625 0.13626,0.13626 0.13625,0.13625 0.13624,0.13624 0.13625,0.13625 0.13624,0.13624 0.13626,0.13626 0.13625,0.13625 0.13624,0.13624 0.13627,0.13627 0.13624,0.13624 0.13625,0.13625 0.13624,0.13624 0.13625,0.13625 0.13626,0.13626 0.13625,0.13625 0.13624,0.13624 0.13625,0.13625 0.13626,0.13626 0.13624,0.13624 0.13625,0.13625 0.13626,0.13626 0.13625,0.13625 0.13624,0.13624 0.13624,0.13624 0.13625,0.13625 0.13626,0.13626 0.13625,0.13625 0.13624,0.13624 0.13627,0.13627 0.13623,0.13623 0.13626,0.13626 0.13624,0.13624 0.13625,0.13625 0.13626,0.13626 0.13623,0.13623 0.13626,0.13626 0.13626,0.13626 0.13624,0.13624 0.13625,0.13625 0.13627,0.13627 0.13623,0.13623 0.13625,0.13625 0.13624,0.13624 0.13626,0.13626 0.13626,0.13626 0.13623,0.13623 0.13626,0.13626 0.13625,0.13625 0.13624,0.13624 0.13626,0.13626 0.13623,0.13623 0.13627,0.13627 0.13626,0.13626 0.13623,0.13623 0.13626,0.13626 0.13625,0.13625 0.13624,0.13624 0.13626,0.13626 0.13623,0.13623 0.13626,0.13626 0.13625,0.13625 0.13624,0.13624 0.13626,0.13626 0.13625,0.13625 0.13624,0.13624 0.13627,0.13627 0.13624,0.13624 0.13625,0.13625 0.13624,0.13624 0.13625,0.13625 0.13626,0.13626 0.13625,0.13625 0.13624,0.13624 0.13625,0.13625 0.13626,0.13626 0.13624,0.13624 0.13625,0.13625 0.13625,0.13625 0.13626,0.13626 0.13624,0.13624 0.13625,0.13625 0.13624,0.13624 0.13626,0.13626 0.13625,0.13625 0.13625,0.13625 0.13626,0.13626 0.13623,0.13623 0.13626,0.13626 0.13624,0.13624 0.13625,0.13625 0.13626,0.13626 0.13623,0.13623 0.13626,0.13626 0.13626,0.13626 0.13623,0.13623 0.13626,0.13626 0.13625,0.13625 0.13625,0.13625 0.13626,0.13626 0.13623,0.13623 0.13626,0.13626 0.13626,0.13626 0.13623,0.13623 0.13626,0.13626 0.13625,0.13625 0.13624,0.13624 0.13626,0.13626 0.13623,0.13623 0.13626,0.13626 0.13627,0.13627 0.13622,0.13622 0.13627,0.13627 0.13624,0.13624 0.13625,0.13625 0.13626,0.13626 0.13623,0.13623 0.13626,0.13626 0.13625,0.13625 0.13624,0.13624 0.13626,0.13626 0.13625,0.13625 0.13624,0.13624 0.13627,0.13627 0.13624,0.13624 0.13624,0.13624 0.13625,0.13625 0.13625,0.13625 0.13626,0.13626 0.13624,0.13624 0.13625,0.13625 0.13625,0.13625 0.13626,0.13626 0.13624,0.13624 0.13625,0.13625 0.13625,0.13625 0.13626,0.13626 0.13624,0.13624 0.13625,0.13625 0.13625,0.13625 0.13625,0.13625 0.13625,0.13625 0.13625,0.13625 0.13624,0.13624 0.13625,0.13625 0.13626,0.13626 0.13624,0.13624 0.13625,0.13625 0.13626,0.13626 0.13625,0.13625 0.13624,0.13624 0.13626,0.13626 0.13623,0.13623 0.13627,0.13627 0.13624,0.13624 0.13625,0.13625 0.13626,0.13626 0.13623,0.13623 0.13626,0.13626 0.13626,0.13626 0.13623,0.13623 0.13626,0.13626 0.13623,0.13623 0.13626,0.13626 0.13626,0.13626 0.13623,0.13623 0.13626,0.13626 0.13627,0.13627 0.13623,0.13623 0.13626,0.13626 0.13624,0.13624 0.13625,0.13625 0.13626,0.13626 0.13623,0.13623 0.13626,0.13626 0.13625,0.13625 0.13624,0.13624 0.13626,0.13626 0.13625,0.13625 0.13625,0.13625 0.13626,0.13626 0.13623,0.13623 0.13626,0.13626 0.13624,0.13624 0.13625,0.13625 0.13626,0.13626 0.13625,0.13625 0.13624,0.13624 0.13625,0.13625 0.13626,0.13626 0.13624,0.13624 0.13625,0.13625 0.13625,0.13625 0.13626,0.13626 0.13624,0.13624 0.13625,0.13625 0.13624,0.13624 0.13626,0.13626 0.13625,0.13625 0.13625,0.13625 0.13624,0.13624 0.13625,0.13625 0.13626,0.13626 0.13624,0.13624 0.13625,0.13625 0.13626,0.13626 0.13625,0.13625 0.13624,0.13624 0.13625,0.13625 0.13624,0.13624 0.13626,0.13626 0.13625,0.13625 0.13624,0.13624 0.13627,0.13627 0.13623,0.13623 0.13626,0.13626 0.13626,0.13626 0.13623,0.13623 0.13626,0.13626 0.13625,0.13625 0.13624,0.13624 0.13626,0.13626 0.13624,0.13624 0.13625,0.13625 0.13627,0.13627 0.13623,0.13623 0.13625,0.13625 0.13624,0.13624 0.13626,0.13626 0.13626,0.13626 0.13623,0.13623 0.13626,0.13626 0.13625,0.13625 0.13624,0.13624 0.13626,0.13626 0.13625,0.13625 L 0.04626,0.04626 0.18253,0.18253 0.31876,0.31876 0.45502,0.45502 0.59126,0.59126 0.72751,0.72751 0.86377,0.86377 1.00002,1.00002 1.13626,1.13626 1.2725,1.2725 1.40875,1.40875 1.54501,1.54501 1.68126,1.68126 1.8175,1.8175 1.95377,1.95377 2.09001,2.09001 2.22626,2.22626 2.3625,2.3625 2.49876,2.49876 2.63501,2.63501 2.77126,2.77126 2.9075,2.9075 3.04375,3.04375 3.18001,3.18001 3.31625,3.31625 3.4525,3.4525 3.58876,3.58876 3.725,3.725 3.86125,3.86125 3.9975,3.9975 4.13374,4.13374 4.27,4.27 4.40625,4.40625 4.5425,4.5425 4.67876,4.67876 4.81499,4.81499 4.95125,4.95125 5.08751,5.08751 5.22374,5.22374 5.36,5.36 5.49625,5.49625 5.63249,5.63249 5.76875,5.76875 5.90498,5.90498 6.04124,6.04124 6.1775,6.1775 6.31374,6.31374 6.45,6.45 6.58623,6.58623 6.72249,6.72249 6.85875,6.85875 6.99498,6.99498 7.13124,7.13124 7.26749,7.26749 7.40373,7.40373 7.54,7.54 l 0.13622,0.13622 0.13626,0.13626 0.13627,0.13627 0.13623,0.13623 0.13626,0.13626 0.13624,0.13624 0.13625,0.13625 0.13626,0.13626 0.13625,0.13625 0.13624,0.13624 0.13625,0.13625 0.13624,0.13624 0.13626,0.13626 0.13625,0.13625 0.13624,0.13624 0.13627,0.13627 0.13624,0.13624 0.13625,0.13625 0.13624,0.13624 0.13625,0.13625 0.13626,0.13626 0.13625,0.13625 0.13624,0.13624 0.13625,0.13625 0.13626,0.13626 0.13624,0.13624 0.13625,0.13625 0.13626,0.13626 0.13625,0.13625 0.13624,0.13624 0.13625,0.13625 0.13624,0.13624 0.13626,0.13626 0.13625,0.13625 0.13625,0.13625 0.13626,0.13626 0.13622,0.13622 0.13627,0.13627 0.13624,0.13624 0.13625,0.13625 0.13626,0.13626 0.13625,0.13625 0.13624,0.13624 0.13626,0.13626 0.13623,0.13623 0.13626,0.13626 0.13627,0.13627 0.13623,0.13623 0.13626,0.13626 0.13623,0.13623 0.13626,0.13626 0.13626,0.13626 0.13623,0.13623 0.13626,0.13626 0.13626,0.13626 0.13623,0.13623 0.13626,0.13626 0.13623,0.13623 0.13626,0.13626 0.13627,0.13627 0.13623,0.13623 0.13626,0.13626 0.13624,0.13624 0.13625,0.13625 0.13626,0.13626 0.13625,0.13625 0.13624,0.13624 0.13625,0.13625 0.13625,0.13625 0.13625,0.13625 0.13625,0.13625 0.13625,0.13625 0.13625,0.13625 0.13625,0.13625 0.13625,0.13625 0.13624,0.13624 0.13625,0.13625 0.13626,0.13626 0.13625,0.13625 0.13624,0.13624 0.13625,0.13625 0.13626,0.13626 0.13625,0.13625 0.13624,0.13624 0.13625,0.13625 0.13626,0.13626 0.13624,0.13624 0.13625,0.13625 0.13624,0.13624 0.13626,0.13626 0.13625,0.13625 0.13625,0.13625 0.13626,0.13626 0.13623,0.13623 0.13626,0.13626 0.13624,0.13624 0.13625,0.13625 0.13626,0.13626 0.13625,0.13625 0.13624,0.13624 0.13627,0.13627 0.13622,0.13622 0.13626,0.13626 0.13625,0.13625 0.13625,0.13625 0.13626,0.13626 0.13623,0.13623 0.13626,0.13626 0.13626,0.13626 0.13623,0.13623 0.13626,0.13626 0.13626,0.13626 0.13623,0.13623 0.13626,0.13626 0.13623,0.13623 0.13626,0.13626 0.13627,0.13627 0.13623,0.13623 0.13626,0.13626 0.13624,0.13624 0.13625,0.13625 0.13626,0.13626 0.13623,0.13623 0.13626,0.13626 0.13626,0.13626 0.13623,0.13623 0.13626,0.13626 0.13625,0.13625 0.13625,0.13625 0.13626,0.13626 0.13624,0.13624 0.13625,0.13625 0.13624,0.13624 0.13625,0.13625 0.13626,0.13626 0.13625,0.13625 0.13624,0.13624 0.13624,0.13624 0.13627,0.13627 0.13624,0.13624 0.13625,0.13625 0.13624,0.13624 0.13627,0.13627 0.13624,0.13624 0.13625,0.13625 0.13624,0.13624 0.13626,0.13626 0.13625,0.13625 0.13625,0.13625 0.13624,0.13624 0.13625,0.13625 0.13626,0.13626 0.13624,0.13624 0.13625,0.13625 0.13626,0.13626 0.13624,0.13624 0.13625,0.13625 0.13626,0.13626 0.13623,0.13623 0.13626,0.13626 0.13625,0.13625 0.13625,0.13625 0.13626,0.13626 0.13623,0.13623 0.13626,0.13626 0.13626,0.13626 0.13623,0.13623 0.13626,0.13626 0.13625,0.13625 0.13625,0.13625 0.13625,0.13625 0.13623,0.13623 0.13627,0.13627 0.13625,0.13625 0.13624,0.13624 0.13626,0.13626 0.13624,0.13624 0.13625,0.13625 0.13626,0.13626 0.13623,0.13623 0.13626,0.13626 0.13626,0.13626 0.13623,0.13623 0.13627,0.13627 0.13624,0.13624 0.13625,0.13625 0.13626,0.13626 0.13623,0.13623 0.13626,0.13626 0.13624,0.13624 0.13625,0.13625 0.13626,0.13626 0.13625,0.13625 0.13624,0.13624"
       style="fill:none;stroke:#b39af0;stroke-width:0.99628;stroke-linecap:butt;stroke-linejoin:miter;stroke-miterlimit:10;stroke-dasharray:none;stroke-opacity:1"
       transform="matrix(1.3333333,0,0,-1.3333333,83.56,81.477333)" />
  </g>
</svg>
