<?xml version="1.0" encoding="UTF-8" standalone="no"?>
<!-- Created with Inkscape (http://www.inkscape.org/) -->

<svg
   version="1.1"
   id="svg1"
   width="302.35999"
   height="188.97333"
   viewBox="0 0 302.35999 188.97333"
   sodipodi:docname="MATH_118-72.pdf"
   xmlns:inkscape="http://www.inkscape.org/namespaces/inkscape"
   xmlns:sodipodi="http://sodipodi.sourceforge.net/DTD/sodipodi-0.dtd"
   xmlns="http://www.w3.org/2000/svg"
   xmlns:svg="http://www.w3.org/2000/svg">
  <defs
     id="defs1" />
  <sodipodi:namedview
     id="namedview1"
     pagecolor="#ffffff"
     bordercolor="#000000"
     borderopacity="0.25"
     inkscape:showpageshadow="2"
     inkscape:pageopacity="0.0"
     inkscape:pagecheckerboard="0"
     inkscape:deskcolor="#d1d1d1">
    <inkscape:page
       x="0"
       y="0"
       inkscape:label="1"
       id="page1"
       width="302.35999"
       height="188.97333"
       margin="0"
       bleed="0" />
  </sodipodi:namedview>
  <g
     id="g1"
     inkscape:groupmode="layer"
     inkscape:label="1">
    <path
       id="path1"
       d="M -99.21382,0 H 98.96475"
       style="fill:none;stroke:#c9d1d9;stroke-width:0.24907;stroke-linecap:butt;stroke-linejoin:miter;stroke-miterlimit:10;stroke-dasharray:none;stroke-opacity:1"
       transform="matrix(1.3333333,0,0,-1.3333333,151.18133,94.485333)" />
    <path
       id="path2"
       d="M -1.89291,2.12108 C -1.54709,0.84842 -0.77643,0.24745 0,0 -0.77643,-0.24745 -1.54709,-0.84842 -1.89291,-2.12108"
       style="fill:none;stroke:#c9d1d9;stroke-width:0.24907;stroke-linecap:round;stroke-linejoin:round;stroke-miterlimit:10;stroke-dasharray:none;stroke-opacity:1"
       transform="matrix(1.3333333,0,0,-1.3333333,283.30037,94.485333)" />
    <path
       id="path3"
       d="M 0,-56.69362 V 56.44455"
       style="fill:none;stroke:#c9d1d9;stroke-width:0.24907;stroke-linecap:butt;stroke-linejoin:miter;stroke-miterlimit:10;stroke-dasharray:none;stroke-opacity:1"
       transform="matrix(1.3333333,0,0,-1.3333333,151.18133,94.485333)" />
    <path
       id="path4"
       d="M -1.89291,2.12108 C -1.54709,0.84842 -0.77643,0.24745 0,0 -0.77643,-0.24745 -1.54709,-0.84842 -1.89291,-2.12108"
       style="fill:none;stroke:#c9d1d9;stroke-width:0.24907;stroke-linecap:round;stroke-linejoin:round;stroke-miterlimit:10;stroke-dasharray:none;stroke-opacity:1"
       transform="matrix(0,-1.3333333,-1.3333333,0,151.18133,19.059893)" />
    <path
       id="path5"
       d="m -89.03749,-0.02939 0.35683,-0.64233 0.35686,-0.64145 0.35684,-0.64232 0.35684,-0.64145 0.35684,-0.64102 0.35684,-0.6406 0.35684,-0.64102 0.35686,-0.63841 0.35683,-0.63887 0.35685,-0.638 0.35683,-0.63669 0.35686,-0.63454 0.35684,-0.63453 0.35684,-0.63367 0.35685,-0.6315 0.35685,-0.62978 0.35683,-0.62847 0.35686,-0.62674 0.35682,-0.62415 0.35686,-0.62287 0.35684,-0.62156 0.35684,-0.61896 0.35686,-0.61636 0.35683,-0.61464 0.35685,-0.61162 0.35685,-0.60986 0.35684,-0.60643 0.35684,-0.60425 0.35684,-0.60167 0.35685,-0.59732 0.35685,-0.59561 0.35683,-0.59258 0.35686,-0.58911 0.35682,-0.58651 0.35686,-0.58222 0.35684,-0.57916 0.35685,-0.57527 0.35684,-0.57096 0.35684,-0.56923 0.35684,-0.56445 0.35686,-0.56056 0.35683,-0.55582 0.35686,-0.55279 0.35682,-0.54801 0.35686,-0.54327 0.35684,-0.54068 0.35684,-0.53461 0.35684,-0.53029 0.35685,-0.52554 0.35684,-0.52251 0.35685,-0.51687 0.35683,-0.51084 0.35686,-0.50694 0.35683,-0.50261 0.35685,-0.49611 0.35685,-0.49136 0.35684,-0.48747 0.35684,-0.48012 0.35686,-0.47492 0.35684,-0.47103 0.35684,-0.46498 0.35684,-0.4585 0.35684,-0.4533 0.35686,-0.4481 0.35683,-0.44163 0.35685,-0.43427 0.35683,-0.42993 0.35686,-0.42519 0.35684,-0.41653 0.35684,-0.41092 0.35685,-0.40659 0.35684,-0.39923 0.35684,-0.39231 0.35686,-0.3854 0.35682,-0.38106 0.35686,-0.37197 0.35683,-0.36594 0.35686,-0.35988 0.35684,-0.35425 0.35684,-0.34558 0.35684,-0.33955 0.35685,-0.3322 0.35684,-0.32613 0.35686,-0.31791 0.35682,-0.31143 0.35686,-0.3058 0.35682,-0.29584 0.35686,-0.29068 0.35684,-0.28245 0.35685,-0.27812 0.35684,-0.26602 0.35684,-0.26082 0.35684,-0.25474 0.35686,-0.24526 0.35683,-0.23834 0.35685,-0.23096 0.35683,-0.2258 0.35686,-0.21411 0.35685,-0.20891 0.35683,-0.20069 0.35686,-0.19248 0.35684,-0.18426 0.35684,-0.17778 0.35684,-0.17128 0.35684,-0.16091 0.35685,-0.15355 0.35685,-0.14619 0.35683,-0.13928 0.35686,-0.12933 0.35683,-0.12154 0.35685,-0.11592 0.35685,-0.10598 0.35684,-0.09819 0.35684,-0.09083 0.35684,-0.08434 0.35684,-0.07223 0.35686,-0.06618 0.35683,-0.05925 0.35686,-0.05061 0.35682,-0.0411 0.35686,-0.0346 0.35684,-0.02768 0.35685,-0.01645 0.35684,-0.01036 0.35684,-0.003 0.35684,0.0065 0.35686,0.01558 0.35682,0.02249 0.35686,0.0294 0.35683,0.03894 0.35686,0.0467 0.35684,0.05451 0.35684,0.06142 0.35684,0.07179 0.35684,0.07959 0.35686,0.08565 0.35684,0.09473 0.35684,0.1038 0.35685,0.10944 0.35684,0.11764 0.35684,0.12847 0.35686,0.13495 0.35683,0.1423 0.35685,0.14881 0.35684,0.1596 0.35684,0.16565 0.35685,0.17302 0.35684,0.18297 0.35684,0.18989 0.35686,0.1955 0.35683,0.20373 0.35685,0.21367 0.35683,0.22017 0.35686,0.22664 0.35684,0.23488 0.35684,0.24481 0.35684,0.24915 0.35685,0.25692 0.35684,0.26514 0.35686,0.27249 0.35682,0.27985 0.35686,0.28634 0.35683,0.29371 0.35686,0.30191 0.35684,0.30666 0.35684,0.31618 0.35684,0.32312 0.35684,0.32872 0.35684,0.33478 0.35686,0.34474 0.35683,0.35036 0.35686,0.3551 0.35684,0.36422 0.35684,0.37068 0.35686,0.37587 0.35682,0.38235 0.35686,0.39104 0.35683,0.39532 0.35685,0.4027 0.35685,0.40875 0.35684,0.4148 0.35684,0.42042 0.35686,0.42605 0.35683,0.43342 0.35685,0.43945 0.35683,0.44423 0.35685,0.45026 0.35685,0.45675 0.35684,0.46282 0.35684,0.46627 0.35684,0.47408 0.35685,0.47795 0.35685,0.48357 0.35683,0.48878 0.35686,0.49524 0.35682,0.49916 0.35686,0.50434 0.35684,0.50953 0.35685,0.51515 0.35684,0.51862 0.35684,0.52336 0.35684,0.52944 0.35686,0.53331 0.35683,0.53634 0.35686,0.54198 0.35682,0.54629 0.35686,0.55062 0.35684,0.55365 0.35684,0.55971 0.35686,0.56272 0.35683,0.5662 0.35685,0.56923 0.35685,0.57527 0.35684,0.57701 0.35684,0.58003 0.35684,0.58435 0.35684,0.58869 0.35686,0.59085 0.35683,0.59343 0.35685,0.59777 0.35683,0.59951 0.35686,0.60209 0.35684,0.60468 0.35684,0.60901 0.35685,0.61119 0.35685,0.6129 0.35683,0.61638 0.35685,0.61764 0.35683,0.61942 0.35686,0.62241 0.35684,0.62414 0.35684,0.62588 0.35685,0.62633 0.35684,0.62976 0.35684,0.63152 0.35686,0.63281 0.35682,0.6328 0.35686,0.63452 0.35683,0.63713 0.35686,0.63669 0.35684,0.63844 0.35684,0.63843 0.35684,0.64015 0.35685,0.6406 0.35684,0.641 0.35686,0.64147 0.35684,0.64231 0.35684,0.64145 0.35684,0.64145 0.35681,0.64186 0.35686,0.6419 L 0.88712,1.59518 1.24397,2.23752 1.6008,2.87895 1.95766,3.5204 2.3145,4.16057 2.67134,4.8003 3.02818,5.43958 3.38503,6.078 3.74187,6.71513 4.09872,7.35097 4.45555,7.9855 l 0.35686,0.63453 0.35683,0.63151 0.35686,0.6315 0.35683,0.62978 0.35685,0.62674 0.35684,0.6259 0.35686,0.6237 0.35682,0.62286 0.35686,0.61983 0.35683,0.6181 0.35685,0.61594 0.35685,0.61333 0.35684,0.61032 0.35684,0.60814 0.35684,0.606 0.35684,0.60164 0.35686,0.60124 0.35683,0.59689 0.35686,0.59345 0.35682,0.59085 0.35686,0.58868 0.35686,0.58478 0.35682,0.58003 0.35686,0.57746 0.35683,0.57484 0.35685,0.56966 0.35685,0.56618 0.35684,0.56272 0.35684,0.55929 0.35684,0.55407 0.35685,0.55063 0.35685,0.54717 0.35683,0.54196 0.35686,0.53634 0.35682,0.53333 0.35686,0.52942 0.35684,0.52251 0.35685,0.51991 0.35684,0.51559 0.35684,0.5091 0.35684,0.5039 0.35686,0.50045 0.35683,0.49438 0.35686,0.4892 0.35682,0.48315 0.35686,0.4788 0.35684,0.47451 0.35684,0.46628 0.35684,0.46238 0.35686,0.45763 0.35683,0.45026 0.35685,0.44467 0.35683,0.43901 0.35686,0.43296 0.35684,0.42736 0.35684,0.42043 0.35684,0.41568 0.35685,0.40873 0.35685,0.40183 0.35685,0.39707 0.35684,0.39059 0.35684,0.38237 0.35684,0.37629 0.35684,0.37026 0.35686,0.36462 0.35683,0.35555 0.35685,0.34994 0.35683,0.34471 0.35686,0.33567 0.35684,0.32914 0.35684,0.32226 0.35685,0.31704 0.35684,0.30753 0.35684,0.30063 0.35686,0.29585 0.35682,0.28633 0.35686,0.27899 0.35683,0.27251 0.35685,0.26687 0.35685,0.25519 0.35684,0.25089 0.35684,0.24351 0.35685,0.23531 0.35684,0.22664 0.35686,0.22102 0.35682,0.21326 0.35686,0.20414 0.35682,0.19681 0.35686,0.18988 0.35684,0.18253 0.35684,0.17259 0.35685,0.16652 0.35685,0.16048 0.35683,0.1488 0.35686,0.1423 0.35682,0.13495 0.35686,0.12847 0.35686,0.11764 0.35683,0.11029 0.35685,0.10425 0.35683,0.09517 0.35686,0.08649 0.35684,0.07873 0.35684,0.07222 0.35684,0.06143 0.35684,0.05451 0.35685,0.04757 0.35685,0.03893 0.35683,0.03027 0.35686,0.02206 0.35683,0.01601 0.35685,0.0056 0.35685,-0.0022 0.35684,-0.0095 0.35684,-0.01731 0.35684,-0.02725 0.35684,-0.03416 0.35686,-0.04023 0.35683,-0.05148 0.35685,-0.05838 0.35683,-0.06531 0.35686,-0.07268 0.35684,-0.0839 0.35685,-0.09128 0.35684,-0.09732 0.35684,-0.10597 0.35684,-0.11506 0.35686,-0.1224 0.35682,-0.12889 0.35686,-0.13884 0.35683,-0.1462 0.35685,-0.15269 0.35685,-0.16135 0.35684,-0.17128 0.35686,-0.17734 0.35684,-0.18382 0.35684,-0.19205 0.35684,-0.20201 0.35684,-0.20674 0.35685,-0.21411 0.35685,-0.22534 0.35683,-0.23099 0.35686,-0.23833 0.35682,-0.2461 0.35686,-0.25391 0.35684,-0.26082 0.35684,-0.26601 0.35685,-0.27639 0.35684,-0.28332 0.35684,-0.28893 0.35686,-0.29671 0.35683,-0.3058 0.35685,-0.31143 0.35683,-0.31707 0.35686,-0.32698 0.35684,-0.33177 0.35684,-0.33867 0.35684,-0.34561 0.35685,-0.35425 0.35684,-0.35986 0.35685,-0.36507 0.35683,-0.37372 0.35686,-0.37889 0.35683,-0.38626 0.35686,-0.39102 0.35684,-0.40096 0.35684,-0.40484 0.35684,-0.41092 0.35684,-0.41654 0.35684,-0.42518 0.35686,-0.42908 0.35684,-0.43426 0.35684,-0.44293 0.35685,-0.44724 0.35684,-0.45287 0.35686,-0.45805 0.35682,-0.46542 0.35686,-0.47017 0.35684,-0.47493 0.35684,-0.48055 0.35685,-0.4866 0.35684,-0.49135 0.35684,-0.49569 0.35686,-0.50306 0.35682,-0.50607 0.35686,-0.51167 0.35683,-0.51689 0.35685,-0.52164 0.35685,-0.52553 0.35684,-0.5303 0.35684,-0.53462 0.35684,-0.54023 0.35685,-0.54284 0.35685,-0.54803 0.35683,-0.55279 0.35686,-0.55581 0.35682,-0.56055 0.35686,-0.56447 0.35684,-0.56836 0.35685,-0.57182 0.35684,-0.5744 0.35684,-0.58004 0.35684,-0.58218 0.35686,-0.58566 0.35683,-0.58956 0.35686,-0.59215 0.35682,-0.59516 0.35686,-0.59777 0.35685,-0.60122 0.35683,-0.60383 0.35686,-0.60685 0.35683,-0.60944 0.35685,-0.61206 0.35684,-0.6142 0.35685,-0.61593 0.35684,-0.61897 0.35686,-0.62113 0.35682,-0.62285 0.35686,-0.62457 0.35683,-0.62761 0.35685,-0.6272 L 83.6749,9.62349 84.03174,8.99153 84.38858,8.35829 84.74542,7.72464 85.10226,7.0888 85.45912,6.45254 85.81595,5.81411 86.1728,5.17569 86.52963,4.53639 86.88649,3.89666 87.24333,3.25564 87.60017,2.61506 87.95702,1.9736 88.31386,1.33128 88.6707,0.6894 89.02756,0.04708"
       style="fill:none;stroke:#c9d1d9;stroke-width:0.49814;stroke-linecap:butt;stroke-linejoin:miter;stroke-miterlimit:10;stroke-dasharray:none;stroke-opacity:1"
       transform="matrix(1.3333333,0,0,-1.3333333,151.18133,94.485333)" />
    <g
       id="g5"
       aria-label="f(x)"
       transform="matrix(1.3333333,0,0,1.3333333,259.98267,63.664)">
      <path
         id="path6"
         d="M 0.434875,4.6875e-5 H 1.1965938 L 2.028625,-4.2187031 H 3.0247188 L 3.153625,-4.8397969 H 2.16925 l 0.1640625,-0.8320312 c 0.1054688,-0.5507813 0.3867188,-0.9140625 0.8203125,-0.9140625 0.234375,0 0.4101563,0.058594 0.5507813,0.1523437 l 0.2578125,-0.5390625 c -0.2226563,-0.140625 -0.515625,-0.234375 -0.8671875,-0.234375 -0.8085938,0 -1.3359375,0.5976563 -1.5351563,1.5585938 L 1.4075313,-4.8397969 0.763,-4.7929219 0.6458125,-4.2187031 H 1.278625 Z m 0,0"
         style="fill:#c9d1d9;fill-opacity:1;fill-rule:nonzero;stroke:none" />
      <path
         id="path7"
         d="m 6.1126094,2.3906719 c 0,-0.035156 0,-0.046875 -0.1640625,-0.2226563 -1.2421875,-1.25390622 -1.5703125,-3.12890622 -1.5703125,-4.6640625 0,-1.7226562 0.3867187,-3.4570312 1.6054687,-4.7109375 0.1289063,-0.1171875 0.1289063,-0.1289062 0.1289063,-0.1640625 0,-0.070312 -0.035156,-0.1054687 -0.09375,-0.1054687 -0.1054688,0 -0.9960938,0.6796875 -1.5820313,1.9453125 -0.515625,1.1015625 -0.6328125,2.203125 -0.6328125,3.0351562 0,0.7851563 0.1171875,1.99218753 0.65625,3.11718753 0.5976563,1.21874997 1.453125,1.87499997 1.5585938,1.87499997 0.058594,0 0.09375,-0.035156 0.09375,-0.1054687 z m 0,0"
         style="fill:#c9d1d9;fill-opacity:1;fill-rule:nonzero;stroke:none" />
      <path
         id="path8"
         d="m 6.2590938,4.6875e-5 h 0.84375 l 0.9375,-1.148437475 c 0.2460937,-0.3046875 0.4804687,-0.5859375 0.6796875,-0.8789063 h 0.046875 c 0.1171875,0.2929688 0.234375,0.5976563 0.3398437,0.890625 L 9.5403438,4.6875e-5 H 10.337219 L 9.3528438,-2.4022969 l 1.9921872,-2.4375 H 10.513 l -0.84375,1.078125 C 9.4700313,-3.4921406 9.247375,-3.2226094 9.0481563,-2.9530781 H 9.0012813 C 8.9075313,-3.2343281 8.8255,-3.4804219 8.7200313,-3.7616719 L 8.309875,-4.8397969 H 7.5247188 l 0.9023437,2.2734375 z m 0,0"
         style="fill:#c9d1d9;fill-opacity:1;fill-rule:nonzero;stroke:none" />
      <path
         id="path9"
         d="m 13.861633,-2.4960469 c 0,-0.7734375 -0.117188,-1.9804687 -0.65625,-3.1054687 -0.597656,-1.21875 -1.464844,-1.875 -1.558594,-1.875 -0.05859,0 -0.105469,0.046875 -0.105469,0.1054687 0,0.035156 0,0.046875 0.199219,0.234375 0.972656,0.984375 1.535156,2.5664063 1.535156,4.640625 0,1.71093753 -0.363281,3.45703128 -1.59375,4.7226563 -0.140625,0.1171875 -0.140625,0.1289062 -0.140625,0.1640625 0,0.058594 0.04687,0.1054687 0.105469,0.1054687 0.09375,0 0.996094,-0.6796875 1.582031,-1.94531247 0.503907,-1.1015625 0.632813,-2.20312503 0.632813,-3.04687503 z m 0,0"
         style="fill:#c9d1d9;fill-opacity:1;fill-rule:nonzero;stroke:none" />
    </g>
    <g
       id="g9"
       aria-label="c·f(x)"
       transform="matrix(1.3333333,0,0,1.3333333,220.524,90.246667)">
      <path
         id="path10"
         d="m 2.1558281,0.11675781 c 0.6796875,0 1.2070313,-0.29296875 1.546875,-0.57421875 l -0.328125,-0.48046875 c -0.2695312,0.22265625 -0.6796875,0.421875 -1.078125,0.421875 -0.7617187,0 -1.1367187,-0.48046875 -1.1367187,-1.35937501 0,-1.3242187 0.890625,-2.4492187 1.8632812,-2.4492187 0.3984375,0 0.6328125,0.1171875 0.8671875,0.3867187 l 0.4335938,-0.4335937 c -0.2460938,-0.328125 -0.6679688,-0.5859375 -1.2539063,-0.5859375 -1.40625,0 -2.70703123,1.3359375 -2.70703123,3.1289062 0,1.24218751 0.73828123,1.94531251 1.79296873,1.94531251 z m 0,0"
         style="fill:#b39af0;fill-opacity:1;fill-rule:nonzero;stroke:none" />
      <path
         id="path11"
         d="m 8.4575859,-2.4965234 c 0,-0.28125 -0.234375,-0.5273438 -0.5273437,-0.5273438 -0.28125,0 -0.5273438,0.2460938 -0.5273438,0.5273438 0,0.2929687 0.2460938,0.5390625 0.5273438,0.5390625 0.2929687,0 0.5273437,-0.2460938 0.5273437,-0.5390625 z m 0,0"
         style="fill:#b39af0;fill-opacity:1;fill-rule:nonzero;stroke:none" />
      <path
         id="path12"
         d="m 11.961492,-4.296875e-4 h 0.761719 L 13.555242,-4.2191797 h 0.996094 l 0.128906,-0.6210937 h -0.984375 l 0.164063,-0.8320313 c 0.105468,-0.5507812 0.386718,-0.9140625 0.820312,-0.9140625 0.234375,0 0.410156,0.058594 0.550781,0.1523438 l 0.257813,-0.5390625 c -0.222656,-0.140625 -0.515625,-0.234375 -0.867188,-0.234375 -0.808593,0 -1.335937,0.5976562 -1.535156,1.5585937 l -0.152344,0.8085938 -0.644531,0.046875 -0.117187,0.5742187 h 0.632812 z m 0,0"
         style="fill:#b39af0;fill-opacity:1;fill-rule:nonzero;stroke:none" />
      <path
         id="path13"
         d="m 17.642156,2.3901953 c 0,-0.035156 0,-0.046875 -0.164062,-0.2226562 -1.242188,-1.25390629 -1.570313,-3.12890629 -1.570313,-4.6640625 0,-1.7226563 0.386719,-3.4570313 1.605469,-4.7109375 0.128906,-0.1171875 0.128906,-0.1289063 0.128906,-0.1640625 0,-0.070312 -0.03516,-0.1054688 -0.09375,-0.1054688 -0.105469,0 -0.996094,0.6796875 -1.582031,1.9453125 -0.515625,1.1015625 -0.632813,2.203125 -0.632813,3.0351563 0,0.7851562 0.117188,1.99218746 0.65625,3.11718746 0.597657,1.21875004 1.453125,1.87500004 1.558594,1.87500004 0.05859,0 0.09375,-0.035156 0.09375,-0.1054688 z m 0,0"
         style="fill:#b39af0;fill-opacity:1;fill-rule:nonzero;stroke:none" />
      <path
         id="path14"
         d="m 17.788641,-4.296875e-4 h 0.84375 l 0.9375,-1.1484375125 c 0.246093,-0.3046875 0.480468,-0.5859375 0.679687,-0.8789062 h 0.04687 c 0.117188,0.2929687 0.234375,0.5976562 0.339844,0.890625 l 0.433594,1.1367187125 h 0.796875 l -0.98437,-2.4023437125 1.992187,-2.4375 h -0.832031 l -0.84375,1.078125 c -0.199219,0.2695312 -0.421875,0.5390625 -0.621094,0.8085937 h -0.04687 c -0.09375,-0.28125 -0.175781,-0.5273437 -0.28125,-0.8085937 l -0.410156,-1.078125 h -0.785156 l 0.902343,2.2734375 z m 0,0"
         style="fill:#b39af0;fill-opacity:1;fill-rule:nonzero;stroke:none" />
      <path
         id="path15"
         d="m 25.38825,-2.4965234 c 0,-0.7734375 -0.117188,-1.9804688 -0.65625,-3.1054688 -0.597656,-1.21875 -1.464844,-1.875 -1.558594,-1.875 -0.05859,0 -0.105469,0.046875 -0.105469,0.1054688 0,0.035156 0,0.046875 0.199219,0.234375 0.972656,0.984375 1.535156,2.5664062 1.535156,4.640625 0,1.71093746 -0.363281,3.45703121 -1.59375,4.7226562 -0.140625,0.1171875 -0.140625,0.1289063 -0.140625,0.1640625 0,0.058594 0.04687,0.1054688 0.105469,0.1054688 0.09375,0 0.996094,-0.6796875 1.582031,-1.94531254 0.503907,-1.1015625 0.632813,-2.20312496 0.632813,-3.04687496 z m 0,0"
         style="fill:#b39af0;fill-opacity:1;fill-rule:nonzero;stroke:none" />
    </g>
    <path
       id="path16"
       d="m -89.03749,-0.01642 0.35683,-0.35684 0.35686,-0.35642 0.35684,-0.35684 0.35684,-0.35641 0.35684,-0.35597 0.35684,-0.35599 0.35684,-0.35599 0.35686,-0.35467 0.35683,-0.35512 0.35685,-0.35423 0.35683,-0.35383 0.35686,-0.35252 0.35684,-0.35252 0.35684,-0.35207 0.35685,-0.35078 0.35685,-0.34995 0.35683,-0.34904 0.35686,-0.34821 0.35682,-0.34689 0.35686,-0.34603 0.35684,-0.34516 0.35684,-0.34388 0.35686,-0.34257 0.35683,-0.34127 0.35685,-0.33998 0.35685,-0.33867 0.35684,-0.33694 0.35684,-0.33565 0.35684,-0.33435 0.35685,-0.33175 0.35685,-0.33091 0.35683,-0.32914 0.35686,-0.32744 0.35682,-0.3257 0.35686,-0.32355 0.35684,-0.32179 0.35685,-0.31966 0.35684,-0.31705 0.35684,-0.31619 0.35684,-0.31358 0.35686,-0.31143 0.35683,-0.30883 0.35686,-0.30711 0.35682,-0.3045 0.35686,-0.30193 0.35684,-0.30017 0.35684,-0.29715 0.35684,-0.29456 0.35685,-0.29197 0.35684,-0.29022 0.35685,-0.28721 0.35683,-0.28375 0.35686,-0.28158 0.35683,-0.27941 0.35685,-0.27554 0.35685,-0.27292 0.35684,-0.27078 0.35684,-0.26687 0.35686,-0.26385 0.35684,-0.26169 0.35684,-0.25822 0.35684,-0.25476 0.35684,-0.25174 0.35686,-0.24913 0.35683,-0.24526 0.35685,-0.24136 0.35683,-0.23877 0.35686,-0.23616 0.35684,-0.2314 0.35684,-0.22838 0.35685,-0.2258 0.35684,-0.22189 0.35684,-0.21799 0.35686,-0.2141 0.35682,-0.21151 0.35686,-0.20676 0.35683,-0.20329 0.35686,-0.19984 0.35684,-0.1968 0.35684,-0.19204 0.35684,-0.18859 0.35685,-0.1847 0.35684,-0.18122 0.35686,-0.17648 0.35682,-0.17302 0.35686,-0.16998 0.35682,-0.16437 0.35686,-0.16133 0.35684,-0.15701 0.35685,-0.15442 0.35684,-0.14794 0.35684,-0.1449 0.35684,-0.14143 0.35686,-0.13624 0.35683,-0.13237 0.35685,-0.12847 0.35683,-0.12543 0.35686,-0.11896 0.35685,-0.1159 0.35683,-0.1116 0.35686,-0.10684 0.35684,-0.10251 0.35684,-0.09862 0.35684,-0.09515 0.35684,-0.08954 0.35685,-0.08522 0.35685,-0.08132 0.35683,-0.07742 0.35686,-0.07179 0.35683,-0.06749 0.35685,-0.06444 0.35685,-0.05882 0.35684,-0.05451 0.35684,-0.05061 0.35684,-0.04671 0.35684,-0.04022 0.35686,-0.03676 0.35683,-0.03288 0.35686,-0.02811 0.35682,-0.02293 0.35686,-0.01903 0.35684,-0.01556 0.35685,-0.0091 0.35684,-0.0056 0.35684,-0.0017 0.35684,0.0035 0.35686,0.0086 0.35682,0.01255 0.35686,0.01643 0.35683,0.02162 0.35686,0.02596 0.35684,0.03029 0.35684,0.03416 0.35684,0.03979 0.35684,0.04413 0.35686,0.04756 0.35684,0.05279 0.35684,0.05752 0.35685,0.06099 0.35684,0.06531 0.35684,0.07138 0.35686,0.07481 0.35683,0.07916 0.35685,0.08262 0.35684,0.08866 0.35684,0.09214 0.35685,0.09602 0.35684,0.10164 0.35684,0.10554 0.35686,0.10859 0.35683,0.11331 0.35685,0.11851 0.35683,0.12241 0.35686,0.12587 0.35684,0.13063 0.35684,0.13582 0.35684,0.13841 0.35685,0.14273 0.35684,0.14751 0.35686,0.15138 0.35682,0.15529 0.35686,0.15916 0.35683,0.16307 0.35686,0.16784 0.35684,0.17041 0.35684,0.17561 0.35684,0.1795 0.35684,0.18253 0.35684,0.18599 0.35686,0.19162 0.35683,0.19464 0.35686,0.19723 0.35684,0.20243 0.35684,0.2059 0.35686,0.20891 0.35682,0.21238 0.35686,0.21712 0.35683,0.21975 0.35685,0.22361 0.35685,0.22709 0.35684,0.23054 0.35684,0.23356 0.35686,0.2366 0.35683,0.24093 0.35685,0.24396 0.35683,0.24696 0.35685,0.25001 0.35685,0.25391 0.35684,0.25691 0.35684,0.25911 0.35684,0.2634 0.35685,0.26558 0.35685,0.26861 0.35683,0.27164 0.35686,0.27508 0.35682,0.27726 0.35686,0.28029 0.35684,0.28286 0.35685,0.28635 0.35684,0.28809 0.35684,0.29066 0.35684,0.29413 0.35686,0.29628 0.35683,0.29802 0.35686,0.30104 0.35682,0.30365 0.35686,0.3058 0.35684,0.30754 0.35684,0.31099 0.35686,0.31273 0.35683,0.31445 0.35685,0.31618 0.35685,0.31964 0.35684,0.32053 0.35684,0.32223 0.35684,0.32483 0.35684,0.327 0.35686,0.32831 0.35683,0.32959 0.35685,0.3322 0.35683,0.33303 0.35686,0.33435 0.35684,0.33609 0.35684,0.33825 0.35685,0.33955 0.35685,0.34041 0.35683,0.34256 0.35685,0.343 0.35683,0.3443 0.35686,0.34561 0.35684,0.3469 0.35684,0.34776 0.35685,0.34774 0.35684,0.34994 0.35684,0.35078 0.35686,0.35165 0.35682,0.35164 0.35686,0.35253 0.35683,0.35383 0.35686,0.35381 0.35684,0.35467 0.35684,0.35468 0.35684,0.35556 0.35685,0.35597 0.35684,0.35599 0.35686,0.3564 0.35684,0.35684 0.35684,0.35641 0.35684,0.35642 0.35681,0.35681 0.35686,0.35642 0.35683,0.3564 L 1.24397,1.2431 1.6008,1.59952 1.95766,1.95592 2.3145,2.31146 2.67134,2.667 3.02818,3.02213 3.38503,3.3768 3.74187,3.73062 4.09872,4.084 4.45555,4.43652 4.81241,4.78905 5.16924,5.13983 5.5261,5.49063 5.88293,5.84055 6.23978,6.18874 6.59662,6.5365 6.95348,6.88297 7.3103,7.22899 7.66716,7.5733 8.02399,7.91673 8.38084,8.25887 8.73769,8.5997 l 0.35684,0.33911 0.35684,0.33782 0.35684,0.33651 0.35684,0.33436 0.35686,0.3339 0.35683,0.33176 0.35686,0.32959 0.35682,0.32831 0.35686,0.32699 0.35686,0.32483 0.35682,0.32227 0.35686,0.32094 0.35683,0.31921 0.35685,0.3166 0.35685,0.31446 0.35684,0.31274 0.35684,0.31056 0.35684,0.30796 0.35685,0.3058 0.35685,0.30408 0.35683,0.30105 0.35686,0.29801 0.35682,0.29629 0.35686,0.29411 0.35684,0.29024 0.35685,0.28896 0.35684,0.28631 0.35684,0.28289 0.35684,0.27986 0.35686,0.27813 0.35683,0.27465 0.35686,0.27163 0.35682,0.2686 0.35686,0.26603 0.35684,0.26341 0.35684,0.25909 0.35684,0.25693 0.35686,0.25433 0.35683,0.25 0.35685,0.24698 0.35683,0.24396 0.35686,0.24048 0.35684,0.23747 0.35684,0.23357 0.35684,0.23097 0.35685,0.2271 0.35685,0.22317 0.35685,0.2206 0.35684,0.21715 0.35684,0.21237 0.35684,0.20892 0.35684,0.20587 0.35686,0.20244 0.35683,0.19766 0.35685,0.19422 0.35683,0.19162 0.35686,0.18641 0.35684,0.18296 0.35684,0.17907 0.35685,0.17604 0.35684,0.17085 0.35684,0.16698 0.35686,0.16436 0.35682,0.15916 0.35686,0.15485 0.35683,0.15139 0.35685,0.14836 0.35685,0.14188 0.35684,0.13927 0.35684,0.13539 0.35685,0.13063 0.35684,0.12587 0.35686,0.12283 0.35682,0.11852 0.35686,0.11333 0.35682,0.10942 0.35686,0.10556 0.35684,0.10121 0.35684,0.09601 0.35685,0.09257 0.35685,0.0891 0.35683,0.08262 0.35686,0.07915 0.35682,0.07483 0.35686,0.07137 0.35686,0.0653 0.35683,0.06142 0.35685,0.05797 0.35683,0.05276 0.35686,0.04804 0.35684,0.04367 0.35684,0.04022 0.35684,0.03418 0.35684,0.03028 0.35685,0.02638 0.35685,0.02162 0.35683,0.01687 0.35686,0.0121 0.35683,0.0091 0.35685,0.003 0.35685,-0.0013 0.35684,-0.0052 0.35684,-0.0095 0.35684,-0.01512 0.35684,-0.01903 0.35686,-0.0225 0.35683,-0.02855 0.35685,-0.03244 0.35683,-0.03634 0.35686,-0.04022 0.35684,-0.04672 0.35685,-0.0506 0.35684,-0.05406 0.35684,-0.05884 0.35684,-0.06401 0.35686,-0.0679 0.35682,-0.07181 0.35686,-0.07699 0.35683,-0.08132 0.35685,-0.08477 0.35685,-0.08953 0.35684,-0.09517 0.35686,-0.09861 0.35684,-0.10209 0.35684,-0.10684 0.35684,-0.11201 0.35684,-0.11507 0.35685,-0.11894 0.35685,-0.125 0.35683,-0.12846 0.35686,-0.13236 0.35682,-0.13668 0.35686,-0.14101 0.35684,-0.1449 0.35684,-0.14794 0.35685,-0.15355 0.35684,-0.15745 0.35684,-0.16046 0.35686,-0.16479 0.35683,-0.16999 0.35685,-0.17302 0.35683,-0.17604 0.35686,-0.18165 0.35684,-0.18427 0.35684,-0.18816 0.35684,-0.19204 0.35685,-0.19681 0.35684,-0.19983 0.35685,-0.20287 0.35683,-0.20761 0.35686,-0.21066 0.35683,-0.21452 0.35686,-0.21713 0.35684,-0.22278 0.35684,-0.2249 0.35684,-0.22838 0.35684,-0.23142 0.35684,-0.23616 0.35686,-0.23834 0.35684,-0.24135 0.35684,-0.24611 0.35685,-0.24827 0.35684,-0.25176 0.35686,-0.25432 0.35682,-0.25866 0.35686,-0.26125 0.35684,-0.26385 0.35684,-0.26688 0.35685,-0.27032 0.35684,-0.27294 0.35684,-0.27554 0.35686,-0.2794 0.35682,-0.28115 0.35686,-0.28419 0.35683,-0.28719 0.35685,-0.28981 0.35685,-0.29196 0.35684,-0.29457 0.35684,-0.29715 0.35684,-0.30017 0.35685,-0.30148 0.35685,-0.30451 0.35683,-0.30711 0.35686,-0.30883 0.35682,-0.31143 0.35686,-0.31358 0.35684,-0.31577 0.35685,-0.31747 0.35684,-0.31921 0.35684,-0.32224 0.35684,-0.32355 0.35686,-0.32525 0.35683,-0.32744 0.35686,-0.32916 0.35682,-0.33046 L 78.67908,10.1443 79.03593,9.81038 79.39276,9.47473 79.74962,9.13779 80.10645,8.7991 80.4633,8.45914 80.82014,8.11786 81.17699,7.77571 81.53383,7.43185 81.89069,7.08669 82.24751,6.74066 82.60437,6.39377 82.9612,6.04514 83.31805,5.6965 83.6749,5.34659 84.03174,4.99536 84.38858,4.6437 84.74542,4.29163 85.10226,3.93825 85.45912,3.58487 85.81595,3.23018 86.1728,2.87549 86.52963,2.52039 86.88649,2.16483 87.24333,1.80885 87.60017,1.45288 87.95702,1.09647 88.31386,0.73962 88.6707,0.38322 89.02756,0.02637"
       style="fill:none;stroke:#b39af0;stroke-width:0.99628;stroke-linecap:butt;stroke-linejoin:miter;stroke-miterlimit:10;stroke-dasharray:none;stroke-opacity:1"
       transform="matrix(1.3333333,0,0,-1.3333333,151.18133,94.485333)" />
    <path
       id="path17"
       d="M 44.52673,51.02432 V 37.34161"
       style="fill:none;stroke:#b39af0;stroke-width:0.49814;stroke-linecap:butt;stroke-linejoin:miter;stroke-miterlimit:10;stroke-dasharray:2.98883, 0.99628, 0.3985, 0.99628;stroke-dashoffset:0;stroke-opacity:1"
       transform="matrix(1.3333333,0,0,-1.3333333,151.18133,94.485333)" />
    <path
       id="path18"
       d="M 4.5211,0 0.80437,1.40187 2.02943,0 0.80437,-1.40187 Z"
       style="fill:#b39af0;fill-opacity:1;fill-rule:nonzero;stroke:#b39af0;stroke-width:0.49814;stroke-linecap:butt;stroke-linejoin:miter;stroke-miterlimit:10;stroke-dasharray:none;stroke-opacity:1"
       transform="matrix(0,1.3333333,1.3333333,0,210.55031,42.156613)" />
    <path
       id="path19"
       d="M 29.68463,44.18806 V 33.08975"
       style="fill:none;stroke:#b39af0;stroke-width:0.49814;stroke-linecap:butt;stroke-linejoin:miter;stroke-miterlimit:10;stroke-dasharray:2.98883, 0.99628, 0.3985, 0.99628;stroke-dashoffset:0;stroke-opacity:1"
       transform="matrix(1.3333333,0,0,-1.3333333,151.18133,94.485333)" />
    <path
       id="path20"
       d="M 4.5211,0 0.80437,1.40187 2.02943,0 0.80437,-1.40187 Z"
       style="fill:#b39af0;fill-opacity:1;fill-rule:nonzero;stroke:#b39af0;stroke-width:0.49814;stroke-linecap:butt;stroke-linejoin:miter;stroke-miterlimit:10;stroke-dasharray:none;stroke-opacity:1"
       transform="matrix(0,1.3333333,1.3333333,0,190.76084,47.825773)" />
    <path
       id="path21"
       d="M 59.36928,44.18806 V 33.08975"
       style="fill:none;stroke:#b39af0;stroke-width:0.49814;stroke-linecap:butt;stroke-linejoin:miter;stroke-miterlimit:10;stroke-dasharray:2.98883, 0.99628, 0.3985, 0.99628;stroke-dashoffset:0;stroke-opacity:1"
       transform="matrix(1.3333333,0,0,-1.3333333,151.18133,94.485333)" />
    <path
       id="path22"
       d="M 4.5211,0 0.80437,1.40187 2.02943,0 0.80437,-1.40187 Z"
       style="fill:#b39af0;fill-opacity:1;fill-rule:nonzero;stroke:#b39af0;stroke-width:0.49814;stroke-linecap:butt;stroke-linejoin:miter;stroke-miterlimit:10;stroke-dasharray:none;stroke-opacity:1"
       transform="matrix(0,1.3333333,1.3333333,0,230.34037,47.825773)" />
    <path
       id="path23"
       d="M 74.2114,25.51193 V 20.33379"
       style="fill:none;stroke:#b39af0;stroke-width:0.49814;stroke-linecap:butt;stroke-linejoin:miter;stroke-miterlimit:10;stroke-dasharray:2.98883, 0.99628, 0.3985, 0.99628;stroke-dashoffset:0;stroke-opacity:1"
       transform="matrix(1.3333333,0,0,-1.3333333,151.18133,94.485333)" />
    <path
       id="path24"
       d="M 4.5211,0 0.80437,1.40187 2.02943,0 0.80437,-1.40187 Z"
       style="fill:#b39af0;fill-opacity:1;fill-rule:nonzero;stroke:#b39af0;stroke-width:0.49814;stroke-linecap:butt;stroke-linejoin:miter;stroke-miterlimit:10;stroke-dasharray:none;stroke-opacity:1"
       transform="matrix(0,1.3333333,1.3333333,0,250.12987,64.833733)" />
    <path
       id="path25"
       d="M 14.84209,25.51193 V 20.33379"
       style="fill:none;stroke:#b39af0;stroke-width:0.49814;stroke-linecap:butt;stroke-linejoin:miter;stroke-miterlimit:10;stroke-dasharray:2.98883, 0.99628, 0.3985, 0.99628;stroke-dashoffset:0;stroke-opacity:1"
       transform="matrix(1.3333333,0,0,-1.3333333,151.18133,94.485333)" />
    <path
       id="path26"
       d="M 4.5211,0 0.80437,1.40187 2.02943,0 0.80437,-1.40187 Z"
       style="fill:#b39af0;fill-opacity:1;fill-rule:nonzero;stroke:#b39af0;stroke-width:0.49814;stroke-linecap:butt;stroke-linejoin:miter;stroke-miterlimit:10;stroke-dasharray:none;stroke-opacity:1"
       transform="matrix(0,1.3333333,1.3333333,0,170.97079,64.833733)" />
    <path
       id="path27"
       d="m -44.52673,-51.02432 v 13.68271"
       style="fill:none;stroke:#b39af0;stroke-width:0.49814;stroke-linecap:butt;stroke-linejoin:miter;stroke-miterlimit:10;stroke-dasharray:2.98883, 0.99628, 0.3985, 0.99628;stroke-dashoffset:0;stroke-opacity:1"
       transform="matrix(1.3333333,0,0,-1.3333333,151.18133,94.485333)" />
    <path
       id="path28"
       d="M 4.5211,0 0.80437,1.40187 2.02943,0 0.80437,-1.40187 Z"
       style="fill:#b39af0;fill-opacity:1;fill-rule:nonzero;stroke:#b39af0;stroke-width:0.49814;stroke-linecap:butt;stroke-linejoin:miter;stroke-miterlimit:10;stroke-dasharray:none;stroke-opacity:1"
       transform="matrix(0,-1.3333333,-1.3333333,0,91.81236,146.81405)" />
    <path
       id="path29"
       d="m -29.68463,-44.18806 v 11.09831"
       style="fill:none;stroke:#b39af0;stroke-width:0.49814;stroke-linecap:butt;stroke-linejoin:miter;stroke-miterlimit:10;stroke-dasharray:2.98883, 0.99628, 0.3985, 0.99628;stroke-dashoffset:0;stroke-opacity:1"
       transform="matrix(1.3333333,0,0,-1.3333333,151.18133,94.485333)" />
    <path
       id="path30"
       d="M 4.5211,0 0.80437,1.40187 2.02943,0 0.80437,-1.40187 Z"
       style="fill:#b39af0;fill-opacity:1;fill-rule:nonzero;stroke:#b39af0;stroke-width:0.49814;stroke-linecap:butt;stroke-linejoin:miter;stroke-miterlimit:10;stroke-dasharray:none;stroke-opacity:1"
       transform="matrix(0,-1.3333333,-1.3333333,0,111.60183,141.14489)" />
    <path
       id="path31"
       d="m -59.36928,-44.18806 v 11.09831"
       style="fill:none;stroke:#b39af0;stroke-width:0.49814;stroke-linecap:butt;stroke-linejoin:miter;stroke-miterlimit:10;stroke-dasharray:2.98883, 0.99628, 0.3985, 0.99628;stroke-dashoffset:0;stroke-opacity:1"
       transform="matrix(1.3333333,0,0,-1.3333333,151.18133,94.485333)" />
    <path
       id="path32"
       d="M 4.5211,0 0.80437,1.40187 2.02943,0 0.80437,-1.40187 Z"
       style="fill:#b39af0;fill-opacity:1;fill-rule:nonzero;stroke:#b39af0;stroke-width:0.49814;stroke-linecap:butt;stroke-linejoin:miter;stroke-miterlimit:10;stroke-dasharray:none;stroke-opacity:1"
       transform="matrix(0,-1.3333333,-1.3333333,0,72.022293,141.14489)" />
    <path
       id="path33"
       d="m -74.2114,-25.51193 v 5.17814"
       style="fill:none;stroke:#b39af0;stroke-width:0.49814;stroke-linecap:butt;stroke-linejoin:miter;stroke-miterlimit:10;stroke-dasharray:2.98883, 0.99628, 0.3985, 0.99628;stroke-dashoffset:0;stroke-opacity:1"
       transform="matrix(1.3333333,0,0,-1.3333333,151.18133,94.485333)" />
    <path
       id="path34"
       d="M 4.5211,0 0.80437,1.40187 2.02943,0 0.80437,-1.40187 Z"
       style="fill:#b39af0;fill-opacity:1;fill-rule:nonzero;stroke:#b39af0;stroke-width:0.49814;stroke-linecap:butt;stroke-linejoin:miter;stroke-miterlimit:10;stroke-dasharray:none;stroke-opacity:1"
       transform="matrix(0,-1.3333333,-1.3333333,0,52.2328,124.13693)" />
    <path
       id="path35"
       d="m -14.84209,-25.51193 v 5.17814"
       style="fill:none;stroke:#b39af0;stroke-width:0.49814;stroke-linecap:butt;stroke-linejoin:miter;stroke-miterlimit:10;stroke-dasharray:2.98883, 0.99628, 0.3985, 0.99628;stroke-dashoffset:0;stroke-opacity:1"
       transform="matrix(1.3333333,0,0,-1.3333333,151.18133,94.485333)" />
    <path
       id="path36"
       d="M 4.5211,0 0.80437,1.40187 2.02943,0 0.80437,-1.40187 Z"
       style="fill:#b39af0;fill-opacity:1;fill-rule:nonzero;stroke:#b39af0;stroke-width:0.49814;stroke-linecap:butt;stroke-linejoin:miter;stroke-miterlimit:10;stroke-dasharray:none;stroke-opacity:1"
       transform="matrix(0,-1.3333333,-1.3333333,0,131.39188,124.13693)" />
  </g>
</svg>
