<svg xmlns="http://www.w3.org/2000/svg" xmlns:xlink="http://www.w3.org/1999/xlink" xmlns:inkscape="http://www.inkscape.org/namespaces/inkscape" version="1.1" width="226.77" height="226.77" viewBox="0 0 226.77 226.77">
<defs>
<path id="font_0_1" d="M.41299439-1.1491852C.41299439-1.1451874 .41099549-1.1431885 .40899659-1.1401825 .36299134-1.0911713 .29499818-1.0101624 .25299073-.84713748 .22999573-.7561188 .22099304-.65309146 .22099304-.56007388 .22099304-.2970276 .28399659-.11299133 .4039917 .017044068 .41299439 .026031495 .41299439 .028030396 .41299439 .030029297 .41299439 .040039064 .40499879 .040039064 .40098573 .040039064 .38598634 .040039064 .33198548-.019973755 .31900025-.034973146 .21699524-.1559906 .1519928-.33602906 .1519928-.5590668 .1519928-.7010956 .1769867-.9021454 .30799867-1.071167 .31799317-1.0831757 .3829956-1.1591797 .40098573-1.1591797 .40499879-1.1591797 .41299439-1.1591797 .41299439-1.1491852Z"/>
<path id="font_1_51" d="M-.044006349 0H.040985109L.1349945 .11506653C.1599884 .14608765 .18299866 .17410279 .20399475 .203125H.20799256C.21998596 .17410279 .23199463 .14308167 .24198914 .11407471L.28599549 0H.3659973L.2669983 .2411499 .46699525 .48632813H.3829956L.29899598 .37825013C.2789917 .350235 .25698854 .32321168 .23599243 .29719544H.23199463C.22200012 .32521058 .21398926 .3492279 .20399475 .37825013L.1619873 .48632813H.08299255L.17399597 .25816346-.044006349 0Z"/>
<path id="font_2_1" d="M.20298767 .0009918213C.20298767 .066986087 .17799378 .10598755 .13899231 .10598755 .10598755 .10598755 .085998538 .08099365 .085998538 .052993776 .085998538 .025985718 .10598755 0 .13899231 0 .15098572 0 .1639862 .0039978029 .17399597 .0129852299 .1769867 .01499939 .17799378 .015991211 .1789856 .015991211 .17999268 .015991211 .18099976 .01499939 .18099976 .0009918213 .18099976-.07316589 .1459961-.13328552 .11299133-.16635132 .101989749-.17736817 .101989749-.17936707 .101989749-.18237305 .101989749-.18936157 .10699463-.19335938 .11199951-.19335938 .12298584-.19335938 .20298767-.116256717 .20298767 .0009918213Z"/>
<path id="font_1_33" d="M.042999269 0H.11999512L.20399475 .4243164H.30299378L.31599427 .48632813H.21798706L.23399353 .568985C.24499512 .6247711 .272995 .6606293 .31599427 .6606293 .33999635 .6606293 .35798646 .6546478 .37199403 .6456909L.397995 .69963076C.375 .71362307 .34599305 .7236328 .31098939 .7236328 .22898865 .7236328 .1769867 .66362 .15699768 .56700137L.14099121 .48632813 .07598877 .48132325 .06498718 .4243164H.12799073L.042999269 0Z"/>
<path id="font_3_1" d="M.33099366-.2400055C.33099366-.23701477 .33099366-.23500061 .31399537-.21800232 .18899536-.0920105 .15699768 .09700012 .15699768 .25 .15699768 .42399598 .19499207 .59799197 .31799317 .72299197 .33099366 .73498538 .33099366 .7369995 .33099366 .73999026 .33099366 .746994 .32699586 .75 .32099916 .75 .31098939 .75 .22099304 .6819916 .1619873 .5549927 .11099243 .44499208 .09899902 .33399964 .09899902 .25 .09899902 .17199707 .10998535 .050994874 .16499329-.06201172 .22499085-.18501282 .31098939-.25 .32099916-.25 .32699586-.25 .33099366-.24700928 .33099366-.2400055Z"/>
<path id="font_3_2" d="M.2889862 .25C.2889862 .32798768 .27799989 .44898988 .22299195 .56199648 .16299439 .68499758 .07699585 .75 .066986087 .75 .06098938 .75 .056991579 .74598696 .056991579 .73999026 .056991579 .7369995 .056991579 .73498538 .07598877 .71699526 .17399597 .6179962 .23098755 .45899964 .23098755 .25 .23098755 .07899475 .19400025-.09700012 .069992069-.2230072 .056991579-.23500061 .056991579-.23701477 .056991579-.2400055 .056991579-.2460022 .06098938-.25 .066986087-.25 .07699585-.25 .16699219-.18200684 .22599793-.055007936 .2769928 .054992677 .2889862 .16600037 .2889862 .25Z"/>
<path id="font_0_2" d="M.30499269-.56007388C.30499269-.41804505 .27999879-.2170105 .14898682-.047973634 .13899231-.035964967 .07398987 .040039064 .055999757 .040039064 .050994874 .040039064 .04399109 .038024904 .04399109 .030029297 .04399109 .026031495 .04598999 .023025513 .049987794 .02003479 .09799194-.031967164 .16299439-.11299133 .20399475-.27201844 .22698975-.3630371 .23599243-.4660492 .23599243-.5590668 .23599243-.6600952 .22698975-.7621155 .20098877-.86013796 .16299439-1.0001679 .10398865-1.0801697 .052993776-1.1361847 .04399109-1.1451874 .04399109-1.1471863 .04399109-1.1491852 .04399109-1.1571808 .050994874-1.1591797 .055999757-1.1591797 .070999149-1.1591797 .12599182-1.098175 .13798523-1.0841827 .23999024-.96315 .30499269-.7831116 .30499269-.56007388Z"/>
<path id="font_4_1" d="M.30599977-.2440033C.30599977-.24301148 .30599977-.24101258 .30299378-.23800659 .25698854-.19100952 .13398743-.06300354 .13398743 .24899292 .13398743 .56100466 .25498963 .68800356 .3039856 .73802188 .3039856 .7390137 .30599977 .7410126 .30599977 .74401858 .30599977 .7470093 .30299378 .74902346 .29899598 .74902346 .28799439 .74902346 .20298767 .67500308 .1539917 .56500247 .10398865 .45401 .08999634 .3460083 .08999634 .25 .08999634 .17799378 .09700012 .055999757 .15699768-.07299805 .20498657-.17700196 .2869873-.25 .29899598-.25 .3039856-.25 .30599977-.2480011 .30599977-.2440033Z"/>
<path id="font_4_2" d="M.2630005 .24899292C.2630005 .32099916 .2559967 .44300843 .19599915 .5720062 .147995 .67601016 .06599426 .74902346 .053985597 .74902346 .050994874 .74902346 .04699707 .74801638 .04699707 .7430115 .04699707 .7410126 .04798889 .74002078 .04899597 .73802188 .09700012 .68800356 .21899414 .56100466 .21899414 .25 .21899414-.06201172 .09799194-.18901062 .04899597-.23901367 .04798889-.24101258 .04699707-.2420044 .04699707-.2440033 .04699707-.24900818 .050994874-.25 .053985597-.25 .06498718-.25 .1499939-.17601013 .19898987-.06600952 .24899292 .04499817 .2630005 .15299988 .2630005 .24899292Z"/>
</defs>
<path transform="matrix(1,0,0,-1,56.693,170.077)" stroke-width=".79701" stroke-linecap="butt" stroke-miterlimit="10" stroke-linejoin="miter" fill="none" stroke="#c9d1d9" d="M-28.3468 0H140.93703"/>
<path transform="matrix(1,0,0,-1,198.02854,170.077)" stroke-width=".79701" stroke-linecap="round" stroke-linejoin="round" fill="none" stroke="#c9d1d9" d="M-2.55046 3.11095C-2.0845 1.24435-1.04614 .36295 0 0-1.04614-.36295-2.0845-1.24435-2.55046-3.11095"/>
<path transform="matrix(1,0,0,-1,56.693,170.077)" stroke-width=".79701" stroke-linecap="butt" stroke-miterlimit="10" stroke-linejoin="miter" fill="none" stroke="#c9d1d9" d="M0-28.3468V140.93703"/>
<path transform="matrix(0,-1,-1,-0,56.693,28.741456)" stroke-width=".79701" stroke-linecap="round" stroke-linejoin="round" fill="none" stroke="#c9d1d9" d="M-2.55046 3.11095C-2.0845 1.24435-1.04614 .36295 0 0-1.04614-.36295-2.0845-1.24435-2.55046-3.11095"/>
<use data-text="(" xlink:href="#font_0_1" transform="matrix(9.9626,0,0,-9.9626,77.17,51.061998)" fill="#c9d1d9"/>
<use data-text="x" xlink:href="#font_1_51" transform="matrix(9.9626,0,0,-9.9626,81.736,59.131998)" fill="#c9d1d9"/>
<use data-text="," xlink:href="#font_2_1" transform="matrix(9.9626,0,0,-9.9626,86.02,59.131998)" fill="#c9d1d9"/>
<use data-text="f" xlink:href="#font_1_33" transform="matrix(9.9626,0,0,-9.9626,90.448,59.131998)" fill="#b39af0"/>
<use data-text="(" xlink:href="#font_3_1" transform="matrix(9.9626,0,0,-9.9626,93.267,59.131998)" fill="#b39af0"/>
<use data-text="x" xlink:href="#font_1_51" transform="matrix(9.9626,0,0,-9.9626,97.142,59.131998)" fill="#b39af0"/>
<use data-text=")" xlink:href="#font_3_2" transform="matrix(9.9626,0,0,-9.9626,101.425998,59.131998)" fill="#b39af0"/>
<use data-text=")" xlink:href="#font_0_2" transform="matrix(9.9626,0,0,-9.9626,105.299999,51.061998)" fill="#c9d1d9"/>
<path transform="matrix(1,0,0,-1,56.693,170.077)" stroke-width="1.99255" stroke-linecap="butt" stroke-miterlimit="10" stroke-linejoin="miter" fill="none" stroke="#b39af0" d="M56.69362 0V103.938"/>
<use data-text="f" xlink:href="#font_1_33" transform="matrix(23.9103,0,0,-23.9103,117.702999,124.304)" fill="#b39af0"/>
<use data-text="(" xlink:href="#font_4_1" transform="matrix(24.7871,0,0,-24.7871,124.46999,124.304)" fill="#b39af0"/>
<use data-text="x" xlink:href="#font_1_51" transform="matrix(23.9103,0,0,-23.9103,133.247,124.304)" fill="#b39af0"/>
<use data-text=")" xlink:href="#font_4_2" transform="matrix(24.7871,0,0,-24.7871,143.52899,124.304)" fill="#b39af0"/>
<path transform="matrix(1,0,0,-1,56.693,170.077)" d="M60.32503 103.938C60.32503 105.9436 58.6992 107.56941 56.69362 107.56941 54.68802 107.56941 53.0622 105.9436 53.0622 103.938 53.0622 101.9324 54.68802 100.30658 56.69362 100.30658 58.6992 100.30658 60.32503 101.9324 60.32503 103.938ZM56.69362 103.938" fill="#c9d1d9"/>
<path transform="matrix(1,0,0,-1,56.693,170.077)" stroke-width=".3985" stroke-linecap="butt" stroke-miterlimit="10" stroke-linejoin="miter" fill="none" stroke="#c9d1d9" d="M60.32503 103.938C60.32503 105.9436 58.6992 107.56941 56.69362 107.56941 54.68802 107.56941 53.0622 105.9436 53.0622 103.938 53.0622 101.9324 54.68802 100.30658 56.69362 100.30658 58.6992 100.30658 60.32503 101.9324 60.32503 103.938ZM56.69362 103.938"/>
<path transform="matrix(1,0,0,-1,56.693,170.077)" stroke-width=".99628" stroke-linecap="butt" stroke-miterlimit="10" stroke-linejoin="miter" fill="none" stroke="#c9d1d9" d="M-14.17339-2.36034C-14.17339-2.36034-9.90668 7.41287-8.26796 11.00894-6.62923 14.60503-4.00124 20.18929-2.3625 23.55774-.72377 26.9262 1.90417 32.14555 3.54291 35.28642 5.18163 38.4273 7.80962 43.28174 9.44833 46.19505 11.08707 49.10835 13.71507 53.59789 15.35379 56.28355 16.99252 58.96922 19.6205 63.09344 21.25923 65.55154 22.89796 68.00964 25.52594 71.76935 27.16467 73.99988 28.80339 76.23041 31.43138 79.62479 33.0701 81.62769 34.70883 83.63057 37.33682 86.66008 38.97556 88.43541 40.61429 90.21072 43.24226 92.87527 44.881 94.42302 46.51971 95.97076 49.1477 98.27043 50.78642 99.59056 52.42516 100.91068 55.05315 102.84508 56.69188 103.93756 58.33061 105.03004 60.95859 106.5995 62.59732 107.46448 64.23604 108.32945 66.86403 109.53433 68.50275 110.17174 70.14148 110.80914 72.76947 111.64876 74.4082 112.05847 76.04694 112.46819 78.67491 112.94255 80.31364 113.12468 81.95236 113.30681 84.58035 113.41664 86.21907 113.37123 87.8578 113.3258 90.4858 113.07024 92.12453 112.79724 93.76326 112.52425 96.39124 111.90417 98.02997 111.4036 99.66869 110.90303 102.29668 109.91765 103.9354 109.18945 105.57413 108.46124 108.20212 107.11098 109.84084 106.1552 111.47957 105.19942 114.10756 103.48425 115.74629 102.30084 117.38503 101.11743 120.013 99.037 121.65173 97.62598 123.29045 96.21494 127.55716 92.13101 127.55716 92.13101"/>
</svg>
