<?xml version="1.0" encoding="UTF-8" standalone="no"?>
<!-- Created with Inkscape (http://www.inkscape.org/) -->

<svg
   version="1.1"
   id="svg1"
   width="334.23999"
   height="144.58667"
   viewBox="0 0 334.23999 144.58667"
   sodipodi:docname="MATH_118-77.pdf"
   xmlns:inkscape="http://www.inkscape.org/namespaces/inkscape"
   xmlns:sodipodi="http://sodipodi.sourceforge.net/DTD/sodipodi-0.dtd"
   xmlns="http://www.w3.org/2000/svg"
   xmlns:svg="http://www.w3.org/2000/svg">
  <defs
     id="defs1" />
  <sodipodi:namedview
     id="namedview1"
     pagecolor="#ffffff"
     bordercolor="#000000"
     borderopacity="0.25"
     inkscape:showpageshadow="2"
     inkscape:pageopacity="0.0"
     inkscape:pagecheckerboard="0"
     inkscape:deskcolor="#d1d1d1">
    <inkscape:page
       x="0"
       y="0"
       inkscape:label="1"
       id="page1"
       width="334.23999"
       height="144.58667"
       margin="0"
       bleed="0" />
  </sodipodi:namedview>
  <g
     id="g1"
     inkscape:groupmode="layer"
     inkscape:label="1">
    <g
       id="g2"
       aria-label="P(x)=x&#10;2&#10;P(x)=x&#10;4"
       transform="matrix(1.3333333,0,0,1.3333333,52.753333,14.965333)">
      <path
         id="path2"
         d="M 0.42230469,-3.671875e-4 H 1.3480859 L 1.9691797,-3.1409922 h 1.2539062 c 2.015625,0 3.4335938,-0.8671875 3.4335938,-2.7890625 0,-1.359375 -0.9726563,-1.9101562 -2.4609375,-1.9101562 H 1.9808984 Z M 2.1449609,-3.9144297 2.7660547,-7.0902109 h 1.2070312 c 1.1484375,0 1.7695313,0.3867187 1.7695313,1.2773437 0,1.2539063 -0.8671875,1.8984375 -2.4726563,1.8984375 z m 0,0"
         style="fill:#c9d1d9;fill-opacity:1;fill-rule:nonzero;stroke:none" />
      <path
         id="path3"
         d="m 10.476992,2.9058828 c 0,-0.035156 0,-0.058594 -0.210937,-0.2695312 -1.1953128,-1.2070313 -1.8632816,-3.17578129 -1.8632816,-5.6132813 0,-2.3203125 0.5625,-4.3125 1.9453126,-5.7304687 0.128906,-0.1054688 0.128906,-0.1289063 0.128906,-0.1640625 0,-0.070312 -0.07031,-0.09375 -0.117187,-0.09375 -0.152344,0 -1.1367191,0.8554687 -1.7226566,2.0273437 -0.609375,1.2070313 -0.8789062,2.4960938 -0.8789062,3.9609375 0,1.0664063 0.1640625,2.48437501 0.7851562,3.76171876 0.703125,1.44140624 1.6874996,2.21484374 1.8164066,2.21484374 0.04687,0 0.117187,-0.023437 0.117187,-0.09375 z m 0,0"
         style="fill:#c9d1d9;fill-opacity:1;fill-rule:nonzero;stroke:none" />
      <path
         id="path4"
         d="m 10.611758,-3.671875e-4 h 1.019531 l 1.125,-1.3710937125 c 0.292969,-0.375 0.574219,-0.703125 0.820313,-1.0546875 h 0.04687 c 0.140625,0.3515625 0.292968,0.7148437 0.410156,1.0664062 l 0.527344,1.3593750125 H 15.51019 L 14.326602,-2.8831797 16.717227,-5.8128672 h -0.996094 l -1.007813,1.2890625 c -0.234375,0.3398438 -0.503906,0.6679688 -0.75,0.9726563 H 13.91645 C 13.787544,-3.8909922 13.693794,-4.1722422 13.576607,-4.5238047 L 13.0727,-5.8128672 h -0.9375 l 1.078125,2.7304688 z m 0,0"
         style="fill:#c9d1d9;fill-opacity:1;fill-rule:nonzero;stroke:none" />
      <path
         id="path5"
         d="m 19.655703,-2.9769297 c 0,-0.9140625 -0.128906,-2.390625 -0.796875,-3.7734375 -0.703125,-1.4414062 -1.675781,-2.2148437 -1.816406,-2.2148437 -0.04687,0 -0.105469,0.023437 -0.105469,0.09375 0,0.035156 0,0.058594 0.199219,0.2695312 1.195312,1.2070313 1.875,3.1757813 1.875,5.6132813 0,2.32031246 -0.5625,4.3125 -1.957031,5.7304687 -0.117188,0.1054688 -0.117188,0.1289063 -0.117188,0.1640625 0,0.070312 0.05859,0.09375 0.105469,0.09375 0.164062,0 1.136719,-0.8554687 1.722656,-2.02734374 0.609375,-1.21875 0.890625,-2.51953126 0.890625,-3.94921876 z m 12.553711,-0.890625 c 0.164063,0 0.375,0 0.375,-0.2226562 0,-0.2226563 -0.199219,-0.2226563 -0.375,-0.2226563 h -7.042969 c -0.175781,0 -0.386718,0 -0.386718,0.2109375 0,0.234375 0.199218,0.234375 0.386718,0.234375 z m 0,2.2148438 c 0.164063,0 0.375,0 0.375,-0.2109375 0,-0.234375 -0.199219,-0.234375 -0.375,-0.234375 h -7.042969 c -0.175781,0 -0.386718,0 -0.386718,0.2226562 0,0.2226563 0.199218,0.2226563 0.386718,0.2226563 z m 0,0"
         style="fill:#c9d1d9;fill-opacity:1;fill-rule:nonzero;stroke:none" />
      <path
         id="path6"
         d="m 36.050234,-3.671875e-4 h 1.019532 l 1.125,-1.3710937125 c 0.292968,-0.375 0.574218,-0.703125 0.820312,-1.0546875 h 0.04687 c 0.140625,0.3515625 0.292969,0.7148437 0.410156,1.0664062 l 0.527344,1.3593750125 h 0.949219 L 39.765078,-2.8831797 42.155703,-5.8128672 h -0.996094 l -1.007812,1.2890625 c -0.234375,0.3398438 -0.503906,0.6679688 -0.75,0.9726563 h -0.04687 c -0.128906,-0.3398438 -0.222656,-0.6210938 -0.339844,-0.9726563 l -0.503906,-1.2890625 h -0.9375 l 1.078125,2.7304688 z m 0,0"
         style="fill:#c9d1d9;fill-opacity:1;fill-rule:nonzero;stroke:none" />
      <path
         id="path7"
         d="m 42.059023,-4.3392344 h 3.234375 v -0.5625 h -1.441406 c -0.28125,0 -0.585937,0.011719 -0.855469,0.035156 1.195313,-1.2539063 2.074219,-2.203125 2.074219,-3.1523438 0,-0.9023437 -0.574219,-1.5 -1.511719,-1.5 -0.632812,0 -1.089843,0.2929688 -1.523437,0.7851563 l 0.363281,0.3632812 c 0.28125,-0.3398437 0.65625,-0.609375 1.078125,-0.609375 0.644531,0 0.949219,0.4101563 0.949219,0.9960938 0,0.8203125 -0.855469,1.734375 -2.367188,3.2578125 z m 0,0"
         style="fill:#c9d1d9;fill-opacity:1;fill-rule:nonzero;stroke:none" />
      <path
         id="path8"
         d="m 125.68695,-3.671875e-4 h 0.92578 l 0.6211,-3.1406250125 h 1.2539 c 2.01563,0 3.4336,-0.8671875 3.4336,-2.7890625 0,-1.359375 -0.97266,-1.9101562 -2.46094,-1.9101562 h -2.21484 z m 1.72266,-3.9140625125 0.62109,-3.1757812 h 1.20703 c 1.14844,0 1.76954,0.3867187 1.76954,1.2773437 0,1.2539063 -0.86719,1.8984375 -2.47266,1.8984375 z m 0,0"
         style="fill:#c9d1d9;fill-opacity:1;fill-rule:nonzero;stroke:none" />
      <path
         id="path9"
         d="m 135.74457,2.9058828 c 0,-0.035156 0,-0.058594 -0.21094,-0.2695312 -1.19531,-1.2070313 -1.86328,-3.17578129 -1.86328,-5.6132813 0,-2.3203125 0.5625,-4.3125 1.94531,-5.7304687 0.12891,-0.1054688 0.12891,-0.1289063 0.12891,-0.1640625 0,-0.070312 -0.0703,-0.09375 -0.11719,-0.09375 -0.15234,0 -1.13672,0.8554687 -1.72265,2.0273437 -0.60938,1.2070313 -0.87891,2.4960938 -0.87891,3.9609375 0,1.0664063 0.16406,2.48437501 0.78516,3.76171876 0.70312,1.44140624 1.6875,2.21484374 1.8164,2.21484374 0.0469,0 0.11719,-0.023437 0.11719,-0.09375 z m 0,0"
         style="fill:#c9d1d9;fill-opacity:1;fill-rule:nonzero;stroke:none" />
      <path
         id="path10"
         d="m 135.87641,-3.671875e-4 h 1.01953 l 1.125,-1.3710937125 c 0.29297,-0.375 0.57422,-0.703125 0.82031,-1.0546875 h 0.0469 c 0.14063,0.3515625 0.29297,0.7148437 0.41016,1.0664062 l 0.52734,1.3593750125 h 0.94922 L 139.59128,-2.8831797 141.9819,-5.8128672 h -0.99609 l -1.00781,1.2890625 c -0.23438,0.3398438 -0.50391,0.6679688 -0.75,0.9726563 h -0.0469 c -0.1289,-0.3398438 -0.22265,-0.6210938 -0.33984,-0.9726563 l -0.50391,-1.2890625 h -0.9375 l 1.07813,2.7304688 z m 0,0"
         style="fill:#c9d1d9;fill-opacity:1;fill-rule:nonzero;stroke:none" />
      <path
         id="path11"
         d="m 144.92035,-2.9769297 c 0,-0.9140625 -0.1289,-2.390625 -0.79687,-3.7734375 -0.70313,-1.4414062 -1.67578,-2.2148437 -1.81641,-2.2148437 -0.0469,0 -0.10547,0.023437 -0.10547,0.09375 0,0.035156 0,0.058594 0.19922,0.2695312 1.19531,1.2070313 1.875,3.1757813 1.875,5.6132813 0,2.32031246 -0.5625,4.3125 -1.95703,5.7304687 -0.11719,0.1054688 -0.11719,0.1289063 -0.11719,0.1640625 0,0.070312 0.0586,0.09375 0.10547,0.09375 0.16406,0 1.13672,-0.8554687 1.72266,-2.02734374 0.60937,-1.21875 0.89062,-2.51953126 0.89062,-3.94921876 z m 12.55371,-0.890625 c 0.16406,0 0.375,0 0.375,-0.2226562 0,-0.2226563 -0.19922,-0.2226563 -0.375,-0.2226563 h -7.04297 c -0.17578,0 -0.38672,0 -0.38672,0.2109375 0,0.234375 0.19922,0.234375 0.38672,0.234375 z m 0,2.2148438 c 0.16406,0 0.375,0 0.375,-0.2109375 0,-0.234375 -0.19922,-0.234375 -0.375,-0.234375 h -7.04297 c -0.17578,0 -0.38672,0 -0.38672,0.2226562 0,0.2226563 0.19922,0.2226563 0.38672,0.2226563 z m 0,0"
         style="fill:#c9d1d9;fill-opacity:1;fill-rule:nonzero;stroke:none" />
      <path
         id="path12"
         d="m 161.31781,-3.671875e-4 h 1.01953 l 1.125,-1.3710937125 c 0.29297,-0.375 0.57422,-0.703125 0.82032,-1.0546875 h 0.0469 c 0.14063,0.3515625 0.29297,0.7148437 0.41016,1.0664062 l 0.52734,1.3593750125 h 0.94922 l -1.18359,-2.8828125125 2.39062,-2.9296875 h -0.99609 l -1.00782,1.2890625 c -0.23437,0.3398438 -0.5039,0.6679688 -0.75,0.9726563 h -0.0469 c -0.12891,-0.3398438 -0.22266,-0.6210938 -0.33984,-0.9726563 l -0.50391,-1.2890625 h -0.9375 l 1.07812,2.7304688 z m 0,0"
         style="fill:#c9d1d9;fill-opacity:1;fill-rule:nonzero;stroke:none" />
      <path
         id="path13"
         d="m 167.94477,-6.2728281 1.19531,-1.7226563 c 0.14062,-0.2578125 0.28125,-0.4804687 0.41015,-0.7148437 h 0.0352 c -0.0234,0.2695312 -0.0469,0.703125 -0.0469,0.9726562 v 1.4648438 z m 1.59375,1.9335937 h 0.62109 v -1.40625 h 0.69141 v -0.5273437 h -0.69141 v -3.1523438 h -0.72656 l -2.17969,3.2460938 v 0.4335937 h 2.28516 z m 0,0"
         style="fill:#c9d1d9;fill-opacity:1;fill-rule:nonzero;stroke:none" />
    </g>
    <path
       id="path14"
       d="m -28.3468,1.99255 v -3.9851"
       style="fill:none;stroke:#c9d1d9;stroke-width:0.3985;stroke-linecap:butt;stroke-linejoin:miter;stroke-miterlimit:10;stroke-dasharray:none;stroke-opacity:1"
       transform="matrix(1.3333333,0,0,-1.3333333,83.56,81.477333)" />
    <g
       id="g14"
       aria-label="−1"
       transform="matrix(1.3333333,0,0,1.3333333,42.048,94.805333)">
      <path
         id="path15"
         d="m 4.7569688,-1.3364219 c 0.09375,0 0.2460937,0 0.2460937,-0.1523437 0,-0.1640625 -0.1523437,-0.1640625 -0.2460937,-0.1640625 H 0.99525 c -0.10546875,0 -0.24609375,0 -0.24609375,0.1640625 0,0.1523437 0.140625,0.1523437 0.24609375,0.1523437 z m 0,0"
         style="fill:#c9d1d9;fill-opacity:1;fill-rule:nonzero;stroke:none" />
      <path
         id="path16"
         d="M 6.7520859,-4.84375e-4 H 7.2442734 V -3.8090781 h -0.375 c -0.2109375,0.1171875 -0.4570312,0.2109375 -0.8203125,0.28125 v 0.3164062 h 0.703125 z m 0,0"
         style="fill:#c9d1d9;fill-opacity:1;fill-rule:nonzero;stroke:none" />
    </g>
    <path
       id="path17"
       d="m 28.3468,1.99255 v -3.9851"
       style="fill:none;stroke:#c9d1d9;stroke-width:0.3985;stroke-linecap:butt;stroke-linejoin:miter;stroke-miterlimit:10;stroke-dasharray:none;stroke-opacity:1"
       transform="matrix(1.3333333,0,0,-1.3333333,83.56,81.477333)" />
    <path
       id="path18"
       d="M 0.99651563,-3.4375e-4 H 1.4887031 V -3.8089375 h -0.375 C 0.90276563,-3.69175 0.65667188,-3.598 0.29339063,-3.5276875 v 0.3164062 h 0.703125 z m 0,0"
       style="fill:#c9d1d9;fill-opacity:1;fill-rule:nonzero;stroke:none"
       aria-label="1"
       transform="matrix(1.3333333,0,0,1.3333333,121.476,94.797333)" />
    <path
       id="path19"
       d="m 1.99255,-28.3468 h -3.9851"
       style="fill:none;stroke:#c9d1d9;stroke-width:0.3985;stroke-linecap:butt;stroke-linejoin:miter;stroke-miterlimit:10;stroke-dasharray:none;stroke-opacity:1"
       transform="matrix(1.3333333,0,0,-1.3333333,83.56,81.477333)" />
    <g
       id="g19"
       aria-label="−1"
       transform="matrix(1.3333333,0,0,1.3333333,64.702667,121.26533)">
      <path
         id="path20"
         d="m 4.7581563,-1.3357187 c 0.09375,0 0.2460937,0 0.2460937,-0.1523438 0,-0.1640625 -0.1523437,-0.1640625 -0.2460937,-0.1640625 H 0.9964375 c -0.10546875,0 -0.24609375,0 -0.24609375,0.1640625 0,0.1523438 0.140625,0.1523438 0.24609375,0.1523438 z m 0,0"
         style="fill:#c9d1d9;fill-opacity:1;fill-rule:nonzero;stroke:none" />
      <path
         id="path21"
         d="M 6.7532734,2.1875e-4 H 7.2454609 V -3.808375 h -0.375 c -0.2109375,0.1171875 -0.4570312,0.2109375 -0.8203125,0.28125 v 0.3164063 h 0.703125 z m 0,0"
         style="fill:#c9d1d9;fill-opacity:1;fill-rule:nonzero;stroke:none" />
    </g>
    <path
       id="path22"
       d="m 1.99255,28.3468 h -3.9851"
       style="fill:none;stroke:#c9d1d9;stroke-width:0.3985;stroke-linecap:butt;stroke-linejoin:miter;stroke-miterlimit:10;stroke-dasharray:none;stroke-opacity:1"
       transform="matrix(1.3333333,0,0,-1.3333333,83.56,81.477333)" />
    <path
       id="path23"
       d="M 0.99727344,-0.00100781 H 1.4894609 V -3.8096016 h -0.375 c -0.21093746,0.1171875 -0.45703121,0.2109375 -0.82031246,0.28125 v 0.3164063 h 0.703125 z m 0,0"
       style="fill:#c9d1d9;fill-opacity:1;fill-rule:nonzero;stroke:none"
       aria-label="1"
       transform="matrix(1.3333333,0,0,1.3333333,72.377333,46.224)" />
    <path
       id="path24"
       d="M -42.5202,0 H 42.27113"
       style="fill:none;stroke:#c9d1d9;stroke-width:0.24907;stroke-linecap:butt;stroke-linejoin:miter;stroke-miterlimit:10;stroke-dasharray:none;stroke-opacity:1"
       transform="matrix(1.3333333,0,0,-1.3333333,83.56,81.477333)" />
    <path
       id="path25"
       d="M -1.89291,2.12108 C -1.54709,0.84842 -0.77643,0.24745 0,0 -0.77643,-0.24745 -1.54709,-0.84842 -1.89291,-2.12108"
       style="fill:none;stroke:#c9d1d9;stroke-width:0.24907;stroke-linecap:round;stroke-linejoin:round;stroke-miterlimit:10;stroke-dasharray:none;stroke-opacity:1"
       transform="matrix(1.3333333,0,0,-1.3333333,140.08755,81.477333)" />
    <path
       id="path26"
       d="M 0,-42.5202 V 42.27113"
       style="fill:none;stroke:#c9d1d9;stroke-width:0.24907;stroke-linecap:butt;stroke-linejoin:miter;stroke-miterlimit:10;stroke-dasharray:none;stroke-opacity:1"
       transform="matrix(1.3333333,0,0,-1.3333333,83.56,81.477333)" />
    <path
       id="path27"
       d="M -1.89291,2.12108 C -1.54709,0.84842 -0.77643,0.24745 0,0 -0.77643,-0.24745 -1.54709,-0.84842 -1.89291,-2.12108"
       style="fill:none;stroke:#c9d1d9;stroke-width:0.24907;stroke-linecap:round;stroke-linejoin:round;stroke-miterlimit:10;stroke-dasharray:none;stroke-opacity:1"
       transform="matrix(0,-1.3333333,-1.3333333,0,83.56,24.949787)" />
    <path
       id="path28"
       d="m -34.01608,40.81902 0.13626,-0.32656 0.13626,-0.32483 0.13623,-0.32399 0.13626,-0.32223 0.13625,-0.32094 0.13624,-0.32008 0.13626,-0.31835 0.13623,-0.31704 0.13626,-0.31576 0.13627,-0.31489 0.13623,-0.31315 0.13626,-0.31187 0.13624,-0.31056 0.13625,-0.30927 0.13626,-0.30795 0.13625,-0.30711 0.13624,-0.30536 0.13625,-0.30409 0.13624,-0.30278 0.13626,-0.30104 0.13625,-0.30019 0.13624,-0.29887 0.13627,-0.29758 0.13624,-0.29629 0.13625,-0.295 0.13624,-0.2937 0.13625,-0.29195 0.13626,-0.29111 0.13625,-0.28979 0.13624,-0.28807 0.13625,-0.2872 0.13626,-0.28592 0.13624,-0.28417 0.13625,-0.28332 0.13626,-0.28157 0.13625,-0.28072 0.13624,-0.27899 0.13624,-0.27812 0.13625,-0.2764 0.13626,-0.27553 0.13625,-0.2738 0.13624,-0.27249 0.13627,-0.27162 0.13623,-0.26992 0.13626,-0.2686 0.13624,-0.26732 0.13625,-0.26645 0.13626,-0.26471 0.13623,-0.26339 0.13626,-0.26213 0.13626,-0.26082 0.13624,-0.25953 0.13625,-0.25823 0.13627,-0.25693 0.13623,-0.25562 0.13625,-0.25433 0.13624,-0.25304 0.13626,-0.25173 0.13626,-0.25045 0.13623,-0.2487 0.13626,-0.24785 0.13625,-0.24655 0.13624,-0.24524 0.13626,-0.24351 0.13623,-0.24267 0.13627,-0.24136 0.13626,-0.23962 0.13623,-0.23876 0.13626,-0.23745 0.13625,-0.23574 0.13624,-0.23488 0.13626,-0.23314 0.13623,-0.23226 0.13626,-0.23055 0.13625,-0.22923 0.13624,-0.22838 0.13626,-0.22665 0.13625,-0.22536 0.13624,-0.22449 0.13627,-0.22275 0.13624,-0.22146 0.13625,-0.22017 0.13624,-0.21929 0.13625,-0.21757 0.13626,-0.21626 0.13625,-0.21497 0.13624,-0.21368 0.13625,-0.21238 0.13626,-0.21107 0.13624,-0.20979 0.13625,-0.20849 0.13625,-0.20718 0.13626,-0.20588 0.13624,-0.20461 0.13625,-0.20328 0.13624,-0.20157 0.13626,-0.20068 0.13625,-0.19942 0.13625,-0.1981 0.13626,-0.19637 0.13623,-0.19551 0.13626,-0.1942 0.13624,-0.19247 0.13625,-0.19162 0.13626,-0.1899 0.13623,-0.18902 0.13626,-0.18772 0.13626,-0.18599 0.13623,-0.18469 0.13626,-0.18384 0.13625,-0.18208 0.13625,-0.18124 0.13626,-0.17951 0.13623,-0.17819 0.13626,-0.17735 0.13626,-0.17562 0.13623,-0.1743 0.13626,-0.17302 0.13625,-0.17172 0.13624,-0.17085 0.13626,-0.16911 0.13623,-0.16784 0.13626,-0.16653 0.13627,-0.16522 0.13622,-0.16393 0.13627,-0.16264 0.13624,-0.16133 0.13625,-0.16004 0.13626,-0.15873 0.13623,-0.15702 0.13626,-0.15615 0.13625,-0.15485 0.13624,-0.15355 0.13626,-0.15225 0.13625,-0.15053 0.13624,-0.14965 0.13627,-0.14837 0.13624,-0.14662 0.13624,-0.14578 0.13625,-0.14402 0.13625,-0.14317 0.13626,-0.14145 0.13624,-0.14056 0.13625,-0.13886 0.13625,-0.13797 0.13626,-0.13626 0.13624,-0.13539 0.13625,-0.13364 0.13625,-0.13237 0.13626,-0.13148 0.13624,-0.12976 0.13625,-0.12847 0.13625,-0.12716 0.13625,-0.1263 0.13625,-0.12459 0.13625,-0.12326 0.13624,-0.12198 0.13625,-0.12068 0.13626,-0.11938 0.13624,-0.11808 0.13625,-0.11677 0.13626,-0.11549 0.13625,-0.1142 0.13624,-0.11289 0.13626,-0.1116 0.13623,-0.11029 0.13627,-0.10856 0.13624,-0.10772 0.13625,-0.1064 0.13626,-0.1051 0.13623,-0.10338 0.13626,-0.1025 0.13626,-0.10122 0.13623,-0.0995 0.13626,-0.0986 0.13623,-0.0969 L -9.89992,3.45726 -9.76366,3.36253 -9.62743,3.26955 -9.49117,3.17784 -9.3549,3.087 -9.21867,2.9979 -9.08241,2.90967 -8.94617,2.82317 -8.80992,2.73795 -8.67366,2.65361 -8.53743,2.571 -8.40117,2.48967 -8.26492,2.40965 -8.12868,2.33093 -7.99242,2.25308 -7.85617,2.17694 -7.71992,2.10213 -7.58366,2.0286 -7.44743,1.95634 -7.31117,1.88542 -7.17493,1.81578 -7.03868,1.74745 -6.90242,1.68039 -6.76617,1.61465 -6.62993,1.55064 -6.49368,1.48747 -6.35742,1.42563 -6.22118,1.36507 -6.08493,1.30582 -5.94868,1.24829 -5.81242,1.19164 -5.67618,1.13626 -5.53993,1.08263 -5.40369,1.02985 -5.26743,0.9784 -5.13118,0.92865 -4.99493,0.87976 -4.85869,0.83263 -4.72244,0.78635 -4.58618,0.74179 -4.44994,0.69853 -4.31369,0.65614 -4.17743,0.6155 -4.04118,0.5757 -3.90494,0.53763 -3.76869,0.50087 -3.63245,0.46541 -3.49619,0.43079 -3.35994,0.39792 -3.2237,0.36635 -3.08743,0.33606 -2.9512,0.30708 -2.81494,0.2794 -2.67868,0.25302 -2.54245,0.22794 -2.40619,0.20415 -2.26994,0.18166 -2.1337,0.16045 -1.99744,0.14056 -1.8612,0.12196 -1.72495,0.10466 -1.58868,0.08865 -1.45245,0.07437 -1.3162,0.06097 -1.17996,0.04887 -1.0437,0.03804 -0.90744,0.02896 -0.77121,0.02074 -0.63495,0.01382 -0.4987,0.00864 -0.36246,0.0043 -0.2262,0.00171 -0.08995,0 H 0.04626 L 0.18253,8.4e-4 0.31876,0.00345 0.45502,0.00691 0.59126,0.0121 0.72751,0.01859 0.86377,0.02594 1.00002,0.03502 1.13626,0.0454 1.2725,0.05708 1.40875,0.06961 1.54501,0.0839 1.68126,0.09947 1.8175,0.11633 1.95377,0.1345 2.09001,0.15398 2.22626,0.17473 2.3625,0.19678 2.49876,0.22015 2.63501,0.24481 2.77126,0.27075 2.9075,0.298 3.04375,0.32655 3.18001,0.3564 3.31625,0.38754 3.4525,0.42043 3.58876,0.45415 3.725,0.4892 3.86125,0.52553 3.9975,0.56357 4.13374,0.60251 4.27,0.64317 4.40625,0.6847 4.5425,0.72751 4.67876,0.77206 4.81499,0.81747 4.95125,0.86464 5.08751,0.91264 5.22374,0.96239 5.36,1.01341 5.49625,1.06534 5.63249,1.11896 5.76875,1.17389 5.90498,1.22969 6.04124,1.28722 6.1775,1.34604 6.31374,1.40616 6.45,1.46759 6.58623,1.52988 6.72249,1.59389 6.85875,1.6592 6.99498,1.72581 7.13124,1.79372 7.26749,1.86292 7.40373,1.93343 7.54,2.00522 l 0.13622,0.0731 0.13626,0.07441 0.13627,0.07612 0.13623,0.077 0.13626,0.07829 0.13624,0.07957 0.13625,0.08089 0.13626,0.08261 0.13625,0.0835 0.13624,0.08478 0.13625,0.0865 0.13624,0.08737 0.13626,0.0891 0.13625,0.08996 0.13624,0.09171 0.13627,0.09256 0.13624,0.0943 0.13625,0.09515 0.13624,0.09689 0.13625,0.09775 0.13626,0.09949 0.13625,0.10078 0.13624,0.10164 0.13625,0.10338 0.13626,0.10468 0.13624,0.10597 0.13625,0.10727 0.13626,0.10814 0.13625,0.10986 0.13624,0.11114 0.13625,0.11247 0.13624,0.11376 0.13626,0.11507 0.13625,0.11633 0.13625,0.11768 0.13626,0.11892 0.13622,0.12026 0.13627,0.12153 0.13624,0.12328 0.13625,0.12415 0.13626,0.12542 0.13625,0.12674 0.13624,0.12804 0.13626,0.12976 0.13623,0.13063 0.13626,0.13191 0.13627,0.13367 0.13623,0.13451 0.13626,0.13624 0.13623,0.13713 0.13626,0.13884 0.13626,0.13971 0.13623,0.14143 0.13626,0.14231 0.13626,0.14404 0.13623,0.14533 0.13626,0.14619 0.13623,0.14793 0.13626,0.14924 0.13627,0.15008 0.13623,0.15183 0.13626,0.1531 0.13624,0.15442 0.13625,0.15572 0.13626,0.15658 0.13625,0.15832 0.13624,0.1596 0.13625,0.1609 0.13625,0.1622 0.13625,0.1635 0.13625,0.16481 0.13625,0.16608 0.13625,0.16783 0.13625,0.16868 0.13625,0.17 0.13624,0.17129 0.13625,0.17257 0.13626,0.17432 0.13625,0.17517 0.13624,0.17648 0.13625,0.17777 0.13626,0.1795 0.13625,0.18038 0.13624,0.18208 0.13625,0.18298 0.13626,0.18468 0.13624,0.18556 0.13625,0.18729 0.13624,0.18815 0.13626,0.1899 0.13625,0.19075 0.13625,0.19247 0.13626,0.19378 0.13623,0.19465 0.13626,0.19635 0.13624,0.19768 0.13625,0.19897 0.13626,0.20026 0.13625,0.20114 0.13624,0.20285 0.13627,0.20416 0.13622,0.20546 0.13626,0.20675 0.13625,0.20805 0.13625,0.20935 0.13626,0.21066 0.13623,0.21193 0.13626,0.21324 0.13626,0.21454 0.13623,0.21584 0.13626,0.21757 0.13626,0.21842 0.13623,0.21972 0.13626,0.22104 0.13623,0.22277 0.13626,0.22361 0.13627,0.22492 0.13623,0.22665 0.13626,0.22753 0.13624,0.22924 0.13625,0.23011 0.13626,0.23182 0.13623,0.23271 0.13626,0.23444 0.13626,0.23531 0.13623,0.23703 0.13626,0.2379 0.13625,0.23962 0.13625,0.24092 0.13626,0.24179 0.13624,0.24352 0.13625,0.24482 0.13624,0.24611 0.13625,0.24743 0.13626,0.24826 0.13625,0.25001 0.13624,0.2513 0.13624,0.25261 0.13627,0.25389 0.13624,0.2552 0.13625,0.2565 0.13624,0.2578 0.13627,0.25908 0.13624,0.26037 0.13625,0.26213 0.13624,0.26299 0.13626,0.26428 0.13625,0.26558 0.13625,0.26688 0.13624,0.2686 0.13625,0.26947 0.13626,0.27077 0.13624,0.2725 0.13625,0.27336 0.13626,0.27468 0.13624,0.27638 0.13625,0.27725 0.13626,0.27899 0.13623,0.27985 0.13626,0.28158 0.13625,0.28289 0.13625,0.28373 0.13626,0.28548 0.13623,0.28633 0.13626,0.28809 0.13626,0.28937 0.13623,0.29066 0.13626,0.29152 0.13625,0.29326 0.13625,0.29456 0.13625,0.29586 0.13623,0.29715 0.13627,0.29846 0.13625,0.29975 0.13624,0.30104 0.13626,0.30235 0.13624,0.30364 0.13625,0.30495 0.13626,0.30622 0.13623,0.30753 0.13626,0.30885 0.13626,0.31012 0.13623,0.31186 0.13627,0.31272 0.13624,0.31403 0.13625,0.31533 0.13626,0.31704 0.13623,0.3179 0.13626,0.31922 0.13624,0.32094 0.13625,0.32182 0.13626,0.32353 0.13625,0.3244 0.13624,0.32615"
       style="fill:none;stroke:#b39af0;stroke-width:0.99628;stroke-linecap:butt;stroke-linejoin:miter;stroke-miterlimit:10;stroke-dasharray:none;stroke-opacity:1"
       transform="matrix(1.3333333,0,0,-1.3333333,83.56,81.477333)" />
    <path
       id="path29"
       d="m -28.3468,1.99255 v -3.9851"
       style="fill:none;stroke:#c9d1d9;stroke-width:0.3985;stroke-linecap:butt;stroke-linejoin:miter;stroke-miterlimit:10;stroke-dasharray:none;stroke-opacity:1"
       transform="matrix(1.3333333,0,0,-1.3333333,250.68133,81.477333)" />
    <g
       id="g29"
       aria-label="−1"
       transform="matrix(1.3333333,0,0,1.3333333,209.168,94.805333)">
      <path
         id="path30"
         d="m 4.7577891,-1.3364219 c 0.09375,0 0.2460937,0 0.2460937,-0.1523437 0,-0.1640625 -0.1523437,-0.1640625 -0.2460937,-0.1640625 H 0.99607031 c -0.10546875,0 -0.24609375,0 -0.24609375,0.1640625 0,0.1523437 0.140625,0.1523437 0.24609375,0.1523437 z m 0,0"
         style="fill:#c9d1d9;fill-opacity:1;fill-rule:nonzero;stroke:none" />
      <path
         id="path31"
         d="M 6.7529063,-4.84375e-4 H 7.2450938 V -3.8090781 h -0.375 c -0.2109375,0.1171875 -0.4570313,0.2109375 -0.8203125,0.28125 v 0.3164062 h 0.703125 z m 0,0"
         style="fill:#c9d1d9;fill-opacity:1;fill-rule:nonzero;stroke:none" />
    </g>
    <path
       id="path32"
       d="m 28.3468,1.99255 v -3.9851"
       style="fill:none;stroke:#c9d1d9;stroke-width:0.3985;stroke-linecap:butt;stroke-linejoin:miter;stroke-miterlimit:10;stroke-dasharray:none;stroke-opacity:1"
       transform="matrix(1.3333333,0,0,-1.3333333,250.68133,81.477333)" />
    <path
       id="path33"
       d="M 0.99733594,-3.4375e-4 H 1.4895234 V -3.8089375 h -0.375 C 0.90358594,-3.69175 0.65749219,-3.598 0.29421094,-3.5276875 v 0.3164062 h 0.703125 z m 0,0"
       style="fill:#c9d1d9;fill-opacity:1;fill-rule:nonzero;stroke:none"
       aria-label="1"
       transform="matrix(1.3333333,0,0,1.3333333,288.596,94.797333)" />
    <path
       id="path34"
       d="m 1.99255,-28.3468 h -3.9851"
       style="fill:none;stroke:#c9d1d9;stroke-width:0.3985;stroke-linecap:butt;stroke-linejoin:miter;stroke-miterlimit:10;stroke-dasharray:none;stroke-opacity:1"
       transform="matrix(1.3333333,0,0,-1.3333333,250.68133,81.477333)" />
    <g
       id="g34"
       aria-label="−1"
       transform="matrix(1.3333333,0,0,1.3333333,231.82267,121.26533)">
      <path
         id="path35"
         d="m 4.7589766,-1.3357187 c 0.09375,0 0.2460937,0 0.2460937,-0.1523438 0,-0.1640625 -0.1523437,-0.1640625 -0.2460937,-0.1640625 H 0.99725781 c -0.10546875,0 -0.24609375,0 -0.24609375,0.1640625 0,0.1523438 0.140625,0.1523438 0.24609375,0.1523438 z m 0,0"
         style="fill:#c9d1d9;fill-opacity:1;fill-rule:nonzero;stroke:none" />
      <path
         id="path36"
         d="M 6.7540938,2.1875e-4 H 7.2462813 V -3.808375 h -0.375 C 6.6603438,-3.6911875 6.41425,-3.5974375 6.0509688,-3.527125 v 0.3164063 h 0.703125 z m 0,0"
         style="fill:#c9d1d9;fill-opacity:1;fill-rule:nonzero;stroke:none" />
    </g>
    <path
       id="path37"
       d="m 1.99255,28.3468 h -3.9851"
       style="fill:none;stroke:#c9d1d9;stroke-width:0.3985;stroke-linecap:butt;stroke-linejoin:miter;stroke-miterlimit:10;stroke-dasharray:none;stroke-opacity:1"
       transform="matrix(1.3333333,0,0,-1.3333333,250.68133,81.477333)" />
    <path
       id="path38"
       d="M 0.99516406,-0.00100781 H 1.4873516 V -3.8096016 h -0.375 c -0.21093754,0.1171875 -0.45703129,0.2109375 -0.82031254,0.28125 v 0.3164063 h 0.703125 z m 0,0"
       style="fill:#c9d1d9;fill-opacity:1;fill-rule:nonzero;stroke:none"
       aria-label="1"
       transform="matrix(1.3333333,0,0,1.3333333,239.49733,46.224)" />
    <path
       id="path39"
       d="M -42.5202,0 H 42.27113"
       style="fill:none;stroke:#c9d1d9;stroke-width:0.24907;stroke-linecap:butt;stroke-linejoin:miter;stroke-miterlimit:10;stroke-dasharray:none;stroke-opacity:1"
       transform="matrix(1.3333333,0,0,-1.3333333,250.68133,81.477333)" />
    <path
       id="path40"
       d="M -1.89291,2.12108 C -1.54709,0.84842 -0.77643,0.24745 0,0 -0.77643,-0.24745 -1.54709,-0.84842 -1.89291,-2.12108"
       style="fill:none;stroke:#c9d1d9;stroke-width:0.24907;stroke-linecap:round;stroke-linejoin:round;stroke-miterlimit:10;stroke-dasharray:none;stroke-opacity:1"
       transform="matrix(1.3333333,0,0,-1.3333333,307.20888,81.477333)" />
    <path
       id="path41"
       d="M 0,-42.5202 V 42.27113"
       style="fill:none;stroke:#c9d1d9;stroke-width:0.24907;stroke-linecap:butt;stroke-linejoin:miter;stroke-miterlimit:10;stroke-dasharray:none;stroke-opacity:1"
       transform="matrix(1.3333333,0,0,-1.3333333,250.68133,81.477333)" />
    <path
       id="path42"
       d="M -1.89291,2.12108 C -1.54709,0.84842 -0.77643,0.24745 0,0 -0.77643,-0.24745 -1.54709,-0.84842 -1.89291,-2.12108"
       style="fill:none;stroke:#c9d1d9;stroke-width:0.24907;stroke-linecap:round;stroke-linejoin:round;stroke-miterlimit:10;stroke-dasharray:none;stroke-opacity:1"
       transform="matrix(0,-1.3333333,-1.3333333,0,250.68133,24.949787)" />
    <path
       id="path43"
       d="m -31.18166,41.50287 0.12459,-0.6592 0.12456,-0.65139 0.12457,-0.6436 0.12458,-0.63585 0.12457,-0.62761 0.12457,-0.62112 0.12457,-0.61248 0.12456,-0.60556 0.12459,-0.59819 0.12456,-0.59041 0.12458,-0.58351 0.12456,-0.5757 0.12457,-0.56835 0.12458,-0.56187 0.12457,-0.55452 0.12456,-0.54759 0.12459,-0.54109 0.12455,-0.53334 0.12459,-0.5264 0.12456,-0.51989 0.12457,-0.51388 0.12457,-0.50605 0.12458,-0.49957 0.12457,-0.4944 0.12457,-0.48661 0.12456,-0.48012 0.12459,-0.47406 0.12456,-0.46801 0.12457,-0.46152 0.12457,-0.45546 0.12456,-0.4494 0.12459,-0.44249 0.12455,-0.43731 0.12458,-0.4308 0.12457,-0.42474 0.12457,-0.41956 0.12457,-0.41308 0.12458,-0.40744 0.12455,-0.40184 0.1246,-0.39621 0.12455,-0.39057 0.12459,-0.3854 0.12456,-0.37934 0.12457,-0.37414 0.12457,-0.36852 0.12457,-0.36377 0.12458,-0.35769 0.12457,-0.35252 0.12456,-0.34777 0.12458,-0.34215 0.12456,-0.3378 0.12459,-0.3322 0.12456,-0.32743 0.12457,-0.32224 0.12457,-0.31747 0.12458,-0.31275 0.12455,-0.30795 0.12459,-0.30321 0.12456,-0.29802 0.12459,-0.29413 0.12456,-0.28894 0.12457,-0.28459 0.12457,-0.2803 0.12458,-0.27595 0.12457,-0.27122 0.12457,-0.26686 0.12456,-0.26256 0.12458,-0.25822 0.12456,-0.25434 0.12459,-0.25 0.12456,-0.24568 0.12457,-0.24179 0.12457,-0.2379 0.12457,-0.23356 0.12456,-0.22967 0.12459,-0.22623 0.12456,-0.22188 0.12459,-0.218 0.12455,-0.21497 0.12458,-0.21022 0.12457,-0.20763 0.12457,-0.20327 0.12458,-0.19985 0.12457,-0.19636 0.12456,-0.19249 0.12457,-0.18946 0.12457,-0.18599 0.12458,-0.1821 0.12457,-0.1795 0.12455,-0.17602 0.12459,-0.1726 0.12456,-0.16913 0.12459,-0.16651 0.12456,-0.16308 0.12457,-0.1596 0.12457,-0.15701 0.12457,-0.15355 0.12456,-0.1514 0.12459,-0.14749 0.12456,-0.14533 0.12458,-0.14187 0.12456,-0.13971 0.12457,-0.13625 0.12458,-0.1341 0.12457,-0.13105 0.12457,-0.12845 0.12458,-0.12589 0.12455,-0.12283 0.12459,-0.12068 0.12456,-0.11809 0.12459,-0.11592 0.12456,-0.11289 0.12457,-0.11073 0.12457,-0.10857 0.12457,-0.10597 0.12456,-0.10337 0.12459,-0.10121 0.12456,-0.09905 0.12458,-0.0969 0.12456,-0.09472 0.12457,-0.09256 0.12457,-0.09041 0.12458,-0.08824 0.12457,-0.08607 0.12457,-0.08434 0.12456,-0.08218 0.12459,-0.08045 0.12456,-0.07786 0.12459,-0.07656 0.12455,-0.0744 0.12458,-0.07311 0.12457,-0.07049 0.12457,-0.06964 0.12456,-0.06747 0.12459,-0.06531 0.12456,-0.06403 0.12458,-0.06271 0.12456,-0.06055 0.12457,-0.05926 0.12458,-0.05753 0.12457,-0.0558 0.12457,-0.05451 0.12456,-0.0532 0.12457,-0.05145 0.12457,-0.05019 0.12457,-0.04845 0.12458,-0.04757 0.12457,-0.04586 0.12456,-0.04454 0.12459,-0.04326 0.12456,-0.04194 0.12458,-0.04109 0.12456,-0.03939 0.12457,-0.03848 0.12458,-0.0372 0.12457,-0.03589 0.12456,-0.03505 0.12458,-0.03372 0.12456,-0.03244 0.12459,-0.03203 0.12456,-0.03026 0.12457,-0.02986 0.12457,-0.02855 0.12458,-0.02768 0.12457,-0.02682 0.12457,-0.02594 0.12456,-0.02466 0.12459,-0.02422 0.12455,-0.02293 0.12459,-0.02249 0.12456,-0.02162 0.12457,-0.02077 0.12458,-0.0199 L -9.5063,0.35812 -9.38174,0.33995 -9.25716,0.32224 -9.1326,0.30493 -9.00801,0.28893 -8.88345,0.27292 -8.75888,0.25821 -8.63431,0.2435 -8.50974,0.22966 -8.38516,0.21667 -8.26059,0.20415 -8.13603,0.19203 -8.01144,0.18034 -7.88689,0.16954 -7.7623,0.15916 -7.63774,0.14922 -7.51317,0.1397 -7.3886,0.13062 -7.26402,0.12196 -7.13945,0.11375 -7.01488,0.10596 -6.89032,0.0986 -6.76573,0.09167 -6.64117,0.0852 -6.51662,0.0787 -6.39203,0.07309 -6.26747,0.06746 -6.14288,0.06227 -6.01833,0.05751 -5.89375,0.05276 -5.76918,0.04843 -5.6446,0.04411 -5.52003,0.04065 -5.39546,0.03674 -5.2709,0.03372 -5.14632,0.0307 -5.02176,0.02766 -4.89717,0.02507 -4.77261,0.02248 -4.64804,0.02032 -4.52347,0.01816 -4.3989,0.01599 l 0.12456,-0.00174 0.12459,-0.0013 0.12456,-0.00172 0.12459,-0.0013 0.12455,-0.00129 0.12458,-8.6e-4 0.12457,-0.00131 0.12457,-8.7e-4 0.12457,-8.7e-4 0.12458,-4.3e-4 0.12455,-8.5e-4 0.12459,-4.3e-4 0.12456,-8.7e-4 0.12459,-4.4e-4 h 0.12456 l 0.12457,-4.3e-4 0.12457,-4.4e-4 h 0.12457 l 0.12458,-4.3e-4 h 0.12457 0.12456 L -1.65833,0 h 0.12456 0.12457 0.12458 0.12457 0.12457 0.12458 0.12455 0.12459 0.12456 0.12459 0.12455 0.12458 0.12457 H 0.08563 0.2102 0.33478 0.45934 0.58391 0.70848 0.83304 0.95763 1.08218 1.20677 1.33133 1.4559 1.58047 1.70505 L 1.82962,4.1e-4 H 1.9542 2.07875 L 2.20334,8.4e-4 H 2.3279 l 0.12458,4.4e-4 0.12456,4.3e-4 0.12457,4.4e-4 0.12458,4.3e-4 0.12457,4.4e-4 0.12457,8.7e-4 0.12457,4.1e-4 0.12456,8.7e-4 0.12459,8.7e-4 0.12456,8.7e-4 0.12457,8.7e-4 0.12457,0.00128 0.12458,0.0013 L 4.0719,0.01167 4.19647,0.0134 4.32103,0.01512 4.44562,0.01685 4.57018,0.01901 4.69476,0.02118 4.81932,0.02335 4.9439,0.02594 5.06847,0.02853 5.19304,0.03157 5.31761,0.03502 5.44218,0.03804 5.56674,0.04193 5.69133,0.04582 5.81589,0.04973 5.94046,0.05449 6.06503,0.05925 6.1896,0.06401 6.31418,0.06961 6.43875,0.07524 6.56331,0.08131 6.6879,0.08736 6.81245,0.09427 6.93704,0.1012 7.0616,0.109 7.18617,0.11678 7.31075,0.12498 7.43532,0.13408 7.55989,0.14314 7.68445,0.15266 7.80902,0.16306 7.9336,0.17343 8.05817,0.18468 8.18274,0.19635 8.30731,0.2089 8.43187,0.22144 8.55646,0.23485 8.68102,0.24911 8.80559,0.26384 8.93016,0.27898 9.05473,0.29454 9.1793,0.3114 l 0.12458,0.01732 0.12456,0.01773 0.12458,0.01903 0.12456,0.01945 0.12459,0.0199 0.12456,0.0212 0.12457,0.02163 0.12457,0.02292 0.12458,0.02338 0.12457,0.02421 0.12457,0.02552 0.12456,0.02595 0.12459,0.02681 0.12456,0.02812 0.12457,0.02898 0.12457,0.03027 0.12457,0.03072 0.12458,0.03201 0.12457,0.03331 0.12456,0.03417 0.12458,0.03546 0.12456,0.03634 0.12459,0.03762 0.12455,0.03894 0.12458,0.04022 0.12457,0.04109 0.12457,0.04239 0.12458,0.04413 0.12457,0.04498 0.12456,0.04627 0.12459,0.04802 0.12455,0.04931 0.12458,0.0506 0.12457,0.0519 0.12457,0.05363 0.12457,0.05495 0.12458,0.05665 0.12456,0.05797 0.12458,0.05968 0.12456,0.06143 0.12459,0.06316 0.12456,0.06443 0.12455,0.06618 0.12459,0.06835 0.12456,0.06964 0.12459,0.07179 0.12455,0.0731 0.12457,0.07526 0.12458,0.07742 0.12457,0.07916 0.12457,0.0809 0.12458,0.0826 0.12456,0.08522 0.12458,0.08693 0.12456,0.08911 0.12457,0.09125 0.12458,0.093 0.12457,0.0956 0.12457,0.09775 0.12457,0.09993 0.12456,0.10249 0.12459,0.10425 0.12456,0.10684 0.12459,0.109 0.12455,0.11203 0.12458,0.11375 0.12457,0.11635 0.12457,0.11896 0.12457,0.12196 0.12458,0.12414 0.12455,0.12674 0.12459,0.12932 0.12456,0.13193 0.12457,0.13496 0.12458,0.13755 0.12457,0.14058 0.12457,0.14317 0.12457,0.14619 0.12456,0.14922 0.12459,0.15182 0.12456,0.15485 0.12458,0.15788 0.12456,0.16133 0.12457,0.16437 0.12458,0.16739 0.12457,0.17043 0.12457,0.1743 0.12458,0.17691 0.12455,0.18037 0.12459,0.1834 0.12456,0.18728 0.12459,0.19075 0.12455,0.19422 0.12458,0.19766 0.12457,0.2007 0.12457,0.20502 0.12456,0.20892 0.12459,0.21152 0.12456,0.21626 0.12457,0.21928 0.12457,0.22364 0.12456,0.22708 0.12459,0.2314 0.12455,0.23575 0.12459,0.23875 0.12456,0.24351 0.12457,0.24743 0.12458,0.25129 0.12457,0.25565 0.12457,0.25995 0.12457,0.26427 0.12456,0.26904 0.12459,0.2725 0.12456,0.27726 0.12457,0.28245 0.12457,0.28591 0.12457,0.29109 0.12458,0.29542 0.12457,0.30017 0.12455,0.30496 0.1246,0.3097 0.12455,0.31445 0.12459,0.31922 0.12456,0.3244 0.12457,0.32873 0.12457,0.33435 0.12458,0.33954 0.12457,0.34386 0.12457,0.3495 0.12456,0.35555 0.12459,0.35943 0.12456,0.3655 0.12458,0.37068 0.12456,0.37587 0.12457,0.3815 0.12458,0.38756 0.12457,0.39274 0.12456,0.39794 0.12458,0.40398 0.12456,0.41006 0.12459,0.41522 0.12456,0.42174 0.12457,0.42691 0.12457,0.43339 0.12458,0.43947 0.12457,0.44553 0.12457,0.45068 0.12456,0.45807 0.12459,0.46367 0.12455,0.46974 0.12459,0.47667 0.12456,0.48314 0.12457,0.48877 0.12458,0.49698 0.12456,0.50174 0.12457,0.50909 0.12457,0.51559 0.12457,0.52251 0.12457,0.52986 0.12458,0.53592 0.12455,0.54326 0.12459,0.55019 0.12456,0.55711 0.12459,0.56404 0.12455,0.57138 0.12458,0.57917 0.12457,0.58607 0.12457,0.59302 0.12458,0.60035 0.12457,0.60859 0.12456,0.61551 0.12458,0.62373 0.12456,0.63063 0.12459,0.63843 0.12456,0.64663 0.12457,0.65444"
       style="fill:none;stroke:#b39af0;stroke-width:0.99628;stroke-linecap:butt;stroke-linejoin:miter;stroke-miterlimit:10;stroke-dasharray:none;stroke-opacity:1"
       transform="matrix(1.3333333,0,0,-1.3333333,250.68133,81.477333)" />
  </g>
</svg>
