<?xml version="1.0" encoding="UTF-8" standalone="no"?>
<!-- Created with Inkscape (http://www.inkscape.org/) -->

<svg
   version="1.1"
   id="svg1"
   width="188.97333"
   height="188.97333"
   viewBox="0 0 188.97333 188.97333"
   sodipodi:docname="MATH_118-68.pdf"
   xmlns:inkscape="http://www.inkscape.org/namespaces/inkscape"
   xmlns:sodipodi="http://sodipodi.sourceforge.net/DTD/sodipodi-0.dtd"
   xmlns="http://www.w3.org/2000/svg"
   xmlns:svg="http://www.w3.org/2000/svg">
  <defs
     id="defs1" />
  <sodipodi:namedview
     id="namedview1"
     pagecolor="#ffffff"
     bordercolor="#000000"
     borderopacity="0.25"
     inkscape:showpageshadow="2"
     inkscape:pageopacity="0.0"
     inkscape:pagecheckerboard="0"
     inkscape:deskcolor="#d1d1d1">
    <inkscape:page
       x="0"
       y="0"
       inkscape:label="1"
       id="page1"
       width="188.97333"
       height="188.97333"
       margin="0"
       bleed="0" />
  </sodipodi:namedview>
  <g
     id="g1"
     inkscape:groupmode="layer"
     inkscape:label="1">
    <path
       id="path1"
       d="M -28.3468,0 H 84.79135"
       style="fill:none;stroke:#c9d1d9;stroke-width:0.24907;stroke-linecap:butt;stroke-linejoin:miter;stroke-miterlimit:10;stroke-dasharray:none;stroke-opacity:1"
       transform="matrix(1.3333333,0,0,-1.3333333,56.693333,132.28133)" />
    <path
       id="path2"
       d="M -1.89291,2.12108 C -1.54709,0.84842 -0.77643,0.24745 0,0 -0.77643,-0.24745 -1.54709,-0.84842 -1.89291,-2.12108"
       style="fill:none;stroke:#c9d1d9;stroke-width:0.24907;stroke-linecap:round;stroke-linejoin:round;stroke-miterlimit:10;stroke-dasharray:none;stroke-opacity:1"
       transform="matrix(1.3333333,0,0,-1.3333333,169.91453,132.28133)" />
    <path
       id="path3"
       d="M 0,-28.3468 V 84.79135"
       style="fill:none;stroke:#c9d1d9;stroke-width:0.24907;stroke-linecap:butt;stroke-linejoin:miter;stroke-miterlimit:10;stroke-dasharray:none;stroke-opacity:1"
       transform="matrix(1.3333333,0,0,-1.3333333,56.693333,132.28133)" />
    <path
       id="path4"
       d="M -1.89291,2.12108 C -1.54709,0.84842 -0.77643,0.24745 0,0 -0.77643,-0.24745 -1.54709,-0.84842 -1.89291,-2.12108"
       style="fill:none;stroke:#c9d1d9;stroke-width:0.24907;stroke-linecap:round;stroke-linejoin:round;stroke-miterlimit:10;stroke-dasharray:none;stroke-opacity:1"
       transform="matrix(0,-1.3333333,-1.3333333,0,56.693333,19.060133)" />
    <path
       id="path5"
       d="M 0,28.3468 0.14186,28.06348 0.28372,27.78189 0.4256,27.50162 0.56747,27.22305 0.70935,26.9458 0.85121,26.66985 0.99309,26.39519 1.13496,26.12225 1.27684,25.85017 1.4187,25.58029 1.56058,25.31123 1.70245,25.04393 1.84433,24.77792 1.98619,24.51321 2.12807,24.25023 2.26994,23.98854 2.41182,23.72815 2.55368,23.46907 2.69556,23.21172 2.83743,22.95564 2.97931,22.70088 3.12117,22.44785 3.26305,22.19609 3.40492,21.94566 3.5468,21.69696 3.68866,21.44911 3.83054,21.203 3.97241,20.9586 4.11429,20.71509 4.25615,20.4733 4.39803,20.2328 4.5399,19.99406 4.68178,19.75616 4.82364,19.51999 4.96552,19.28513 5.10739,19.05197 5.24927,18.82014 5.39113,18.58961 5.533,18.36037 5.67488,18.13284 5.81676,17.90663 5.95862,17.6817 6.1005,17.45853 6.24237,17.23662 6.38425,17.01602 6.52611,16.79674 6.66798,16.57916 6.80986,16.3629 6.95174,16.14793 7.0936,15.9347 7.23547,15.7223 7.37735,15.51167 7.51923,15.30275 7.66109,15.0947 7.80296,14.88837 7.94484,14.68378 8.08672,14.48006 8.22858,14.27808 8.37045,14.07736 8.51233,13.87798 8.6542,13.6803 8.79607,13.48392 8.93794,13.28885 9.07982,13.0955 9.2217,12.90302 9.36356,12.71228 9.50545,12.52325 9.64731,12.3351 l 0.14187,-0.18642 0.14187,-0.18513 0.14189,-0.1834 0.14186,-0.1821 0.14187,-0.1808 0.14187,-0.1795 0.14189,-0.17777 0.14186,-0.17691 0.14187,-0.17474 0.14186,-0.17389 0.1419,-0.17214 0.14186,-0.17086 L 11.49165,10.0219 11.63351,9.85406 11.7754,9.6871 11.91727,9.52231 12.05914,9.35838 12.201,9.19617 12.3429,9.03528 12.48476,8.87567 12.62663,8.71779 12.7685,8.56078 12.91039,8.40593 13.05225,8.25194 13.19412,8.0997 13.33598,7.94875 13.47787,7.79907 13.61974,7.65115 13.76161,7.50409 13.90347,7.35875 14.04536,7.21515 14.18723,7.07285 14.3291,6.93141 14.47096,6.79213 14.61285,6.65372 14.75471,6.51703 14.89659,6.38165 15.03845,6.24799 15.18034,6.1152 15.3222,5.98415 15.46408,5.85439 15.60594,5.72635 15.74783,5.59962 15.8897,5.47418 16.03157,5.35004 16.17343,5.22763 16.31532,5.10654 16.45718,4.98671 16.59906,4.8682 16.74092,4.75142 16.88281,4.63593 17.02467,4.52217 17.16655,4.40929 17.30841,4.29811 17.4503,4.18825 17.59216,4.08011 17.73404,3.97327 17.8759,3.86774 18.01779,3.7635 18.15965,3.661 18.30153,3.55934 18.44339,3.45985 18.58528,3.36124 18.72714,3.26434 18.86902,3.16875 19.0109,3.07448 19.15277,2.9819 19.29463,2.89064 19.43651,2.80067 19.57838,2.71199 19.72026,2.62506 19.86212,2.53943 20.004,2.45506 20.14587,2.37245 20.28775,2.29114 20.42961,2.21112 20.57149,2.1324 20.71336,2.0554 20.85524,1.97972 20.9971,1.90532 21.13898,1.83266 21.28085,1.76128 21.42273,1.69121 21.56459,1.62244 21.70647,1.5554 21.84834,1.48965 21.99022,1.42519 22.13208,1.36249 22.27396,1.30063 22.41583,1.24051 22.55771,1.18211 22.69957,1.12502 22.84145,1.06879 22.98332,1.01472 23.1252,0.96152 23.26706,0.91005 23.40894,0.85988 23.55081,0.81099 23.69269,0.76384 23.83455,0.718 23.97643,0.67345 24.1183,0.63063 24.26018,0.5891 24.40204,0.54887 24.54391,0.50995 24.68579,0.47275 24.82767,0.43686 24.96953,0.40225 25.1114,0.36894 25.25328,0.33737 25.39516,0.30708 25.53702,0.2781 25.6789,0.25085 25.82077,0.2249 25.96265,0.20024 26.1045,0.17732 26.24638,0.15526 26.38826,0.13493 26.53014,0.11633 26.672,0.0986 26.81387,0.0826 26.95575,0.0679 27.09763,0.05492 27.23949,0.04324 27.38136,0.03285 27.52324,0.02377 27.66512,0.01599 27.80698,0.00993 27.94885,0.00517 28.09073,0.00215 28.2326,4.1e-4 28.37447,0 l 0.14189,8.4e-4 0.14186,0.00218 0.14188,0.00389 0.14186,0.00519 0.14189,0.00691 0.14186,0.00823 0.14187,0.00909 0.14187,0.01123 0.14189,0.01212 0.14186,0.01382 0.14187,0.01515 0.14186,0.01688 0.1419,0.01773 0.14186,0.01947 0.14187,0.02118 0.14186,0.02206 0.1419,0.02379 0.14186,0.02509 0.14187,0.0264 0.14186,0.0281 0.14189,0.02941 0.14187,0.03071 0.14187,0.03244 0.14186,0.03375 0.1419,0.03502 0.14186,0.03633 0.14187,0.03808 0.14187,0.03935 0.14188,0.04066 0.14187,0.04196 0.14187,0.04369 0.14186,0.04498 0.14189,0.04628 0.14187,0.04801 0.14187,0.04931 0.14186,0.05062 0.14189,0.05233 0.14187,0.0532 0.14187,0.05493 0.14186,0.05667 0.14189,0.05751 0.14186,0.05926 0.14188,0.06057 0.14186,0.06228 0.14189,0.06359 0.14186,0.06486 0.14188,0.06619 0.14186,0.06792 0.14189,0.06877 0.14187,0.07093 0.14187,0.0718 0.14186,0.07354 0.14189,0.07481 0.14186,0.07614 0.14188,0.07787 0.14186,0.07914 0.14189,0.08046 0.14186,0.08174 0.14188,0.08349 0.14186,0.08476 0.14189,0.08609 0.14186,0.0878 0.14188,0.08867 0.14186,0.09083 0.14189,0.09169 0.14186,0.09345 0.14188,0.09471 0.14187,0.09604 0.14188,0.09731 0.14186,0.09905 0.14188,0.10035 0.14188,0.10208 0.14187,0.10295 0.14186,0.10466 0.14188,0.10641 0.14187,0.10727 0.14188,0.10899 0.14186,0.11031 0.14188,0.11159 0.14187,0.11332 0.14188,0.11463 0.14186,0.11592 0.14188,0.11766 0.14187,0.11894 0.14188,0.12024 0.14186,0.12155 0.14188,0.12326 0.14187,0.12459 0.14188,0.12586 0.14186,0.12717 0.14188,0.12888 0.14187,0.13021 0.14188,0.13148 0.14186,0.13324 0.14188,0.13452 0.14187,0.13581 0.14188,0.13756 0.14186,0.1384 0.14188,0.14013 0.14187,0.14189 0.14188,0.14273 0.14186,0.14445 0.14188,0.14579 0.14187,0.14749 0.14188,0.14836 0.14186,0.15051 0.14187,0.1514 0.14188,0.15268 0.14188,0.15442 0.14186,0.15572 0.14187,0.15743 0.14188,0.15874 0.14188,0.16005 0.14186,0.16133 0.14187,0.16265 0.14188,0.16436 0.14188,0.16565 0.14186,0.16739 0.14188,0.1687 0.14187,0.16999 0.14188,0.17128 0.14185,0.17259 0.14188,0.1743 0.14188,0.17561 0.14188,0.17736 0.14186,0.17819 0.14187,0.17993 0.14188,0.18168 0.14188,0.18253 0.14186,0.18427 0.14187,0.18554 0.14188,0.18686 0.14188,0.18859 0.14186,0.18989 0.14189,0.19118 0.14186,0.19292 0.14187,0.19419 0.14187,0.1955 0.14189,0.19681 0.14186,0.19855 0.14188,0.19982 0.14186,0.20113 0.14189,0.20244 0.14186,0.20416 0.14187,0.20545 0.14186,0.20675 0.1419,0.20848 0.14186,0.20978 0.14187,0.21109 0.14186,0.2128 0.1419,0.21367 0.14186,0.21584 0.14187,0.2167 0.14186,0.218 0.1419,0.21973 0.14186,0.22147 0.14187,0.22232 0.14186,0.22406 0.14189,0.22534 0.14187,0.22665 0.14187,0.22838 0.14186,0.22969 0.1419,0.23096 0.14186,0.23228 0.14187,0.23401 0.14187,0.23529 0.14188,0.23659 0.14187,0.23834 0.14187,0.23963 0.14186,0.24092 0.14189,0.24221 0.14187,0.24396 0.14187,0.24524 0.14186,0.24657 0.14189,0.24826 0.14186,0.24959 0.14188,0.25085 0.14186,0.25218 0.14189,0.25389 0.14186,0.25521 0.14188,0.2565 0.14186,0.25822 0.14189,0.25908 0.14186,0.26126 0.14188,0.26212 0.14186,0.26386 0.14189,0.26514 0.14187,0.26642 0.14187,0.26776 0.14186,0.26948 0.14189,0.27076 0.14186,0.27249 0.14188,0.27338 0.14186,0.27507 0.14189,0.27641 0.14186,0.27812 0.14188,0.27941 0.14186,0.28071 0.14189,0.28202 0.14186,0.28375 0.14188,0.28505 0.14187,0.28633 0.14188,0.28766 0.14186,0.28935 0.14188,0.29067 0.14187,0.2924 0.14188,0.29326 0.14186,0.29498 0.14188,0.2963 0.14188,0.29802 0.14187,0.29887 0.14186,0.30104 0.14187,0.30193 0.14188,0.3032 0.14188,0.30494 0.14186,0.30667 0.14188,0.30754 0.14187,0.30927 0.14188,0.31055 0.14186,0.31186 0.14188,0.31359 0.14187,0.31447 0.14188,0.3166 0.14186,0.31749 0.14188,0.31921 0.14187,0.32051 0.14188,0.32182 0.14186,0.32352 0.14188,0.32442 0.14187,0.32657 0.14188,0.32741 0.14186,0.32918 0.14188,0.33046 0.14187,0.33175 0.14188,0.33349 0.14186,0.33434 0.14188,0.33652 0.14187,0.33739 0.14188,0.33911 0.14186,0.34041 0.14187,0.3417 0.14188,0.34301 0.14188,0.34471 0.14186,0.34605 0.14187,0.34775 0.14188,0.34861 0.14188,0.35036 0.14186,0.3521 0.14187,0.35295 0.14188,0.35468 0.14188,0.35598 0.14186,0.35727 0.14187,0.35901 0.14188,0.36031 0.14188,0.36158 0.14186,0.36335 0.14188,0.36419 0.14187,0.36594 0.14188,0.36765 0.14185,0.36853 0.14188,0.37025 0.14188,0.37196 0.14188,0.37287 0.14186,0.37457 0.14187,0.37587 0.14188,0.37718 0.14188,0.37891 0.14186,0.3802 0.14189,0.3815 0.14186,0.3828 0.14187,0.38452 0.14187,0.38582 0.14189,0.38711 0.14186,0.38886 0.14187,0.39015 0.14187,0.39145 0.14189,0.39275 0.14186,0.39447 0.14188,0.39576 0.14185,0.39753 0.1419,0.39836 0.14185,0.40008 0.14188,0.4014 0.14186,0.40312 0.1419,0.40399 0.14186,0.40574 0.14187,0.40744 0.14186,0.40832 0.1419,0.41005 0.14186,0.41135 0.14187,0.41262 0.14186,0.41437 0.1419,0.41567 0.14186,0.41697 0.14187,0.4187 0.14186,0.42 0.14189,0.4213 0.14187,0.42258 0.14187,0.42431"
       style="fill:none;stroke:#c9d1d9;stroke-width:0.49814;stroke-linecap:butt;stroke-linejoin:miter;stroke-miterlimit:10;stroke-dasharray:none;stroke-opacity:1"
       transform="matrix(1.3333333,0,0,-1.3333333,56.693333,132.28133)" />
    <g
       id="g5"
       aria-label="f(x)"
       transform="matrix(1.3333333,0,0,1.3333333,141.184,39.450667)">
      <path
         id="path6"
         d="M 0.43328906,-0.00108594 H 1.1950078 L 2.0270391,-4.2198359 h 0.9960937 l 0.1289063,-0.6210938 h -0.984375 l 0.1640625,-0.8320312 c 0.1054687,-0.5507813 0.3867187,-0.9140625 0.8203125,-0.9140625 0.234375,0 0.4101562,0.058594 0.5507812,0.1523437 l 0.2578125,-0.5390625 c -0.2226562,-0.140625 -0.515625,-0.234375 -0.8671875,-0.234375 -0.8085937,0 -1.3359375,0.5976563 -1.5351562,1.5585938 l -0.1523438,0.8085937 -0.64453124,0.046875 -0.1171875,0.5742188 H 1.2770391 Z m 0,0"
         style="fill:#c9d1d9;fill-opacity:1;fill-rule:nonzero;stroke:none" />
      <path
         id="path7"
         d="m 6.1110234,2.3895391 c 0,-0.035156 0,-0.046875 -0.1640625,-0.2226563 -1.2421875,-1.25390624 -1.5703125,-3.12890624 -1.5703125,-4.6640625 0,-1.7226562 0.3867188,-3.4570312 1.6054688,-4.7109375 0.1289062,-0.1171875 0.1289062,-0.1289062 0.1289062,-0.1640625 0,-0.070312 -0.035156,-0.1054687 -0.09375,-0.1054687 -0.1054687,0 -0.9960937,0.6796875 -1.5820312,1.9453125 -0.515625,1.1015625 -0.6328125,2.203125 -0.6328125,3.0351562 0,0.7851563 0.1171875,1.99218751 0.65625,3.11718751 0.5976562,1.21874999 1.453125,1.87499999 1.5585937,1.87499999 0.058594,0 0.09375,-0.035156 0.09375,-0.1054687 z m 0,0"
         style="fill:#c9d1d9;fill-opacity:1;fill-rule:nonzero;stroke:none" />
      <path
         id="path8"
         d="m 6.2604375,-0.00108594 h 0.84375 l 0.9375,-1.14843746 C 8.2877812,-1.4542109 8.5221562,-1.7354609 8.721375,-2.0284297 H 8.76825 c 0.1171875,0.2929688 0.234375,0.5976563 0.3398437,0.890625 l 0.4335938,1.13671876 h 0.7968745 l -0.9843745,-2.40234376 1.9921875,-2.4375 h -0.832031 l -0.8437503,1.078125 C 9.471375,-3.4932734 9.2487187,-3.2237422 9.0495,-2.9542109 H 9.002625 c -0.09375,-0.28125 -0.1757813,-0.5273438 -0.28125,-0.8085938 L 8.3112187,-4.8409297 H 7.5260625 l 0.9023437,2.2734375 z m 0,0"
         style="fill:#c9d1d9;fill-opacity:1;fill-rule:nonzero;stroke:none" />
      <path
         id="path9"
         d="m 13.860047,-2.4971797 c 0,-0.7734375 -0.117188,-1.9804687 -0.65625,-3.1054687 -0.597656,-1.21875 -1.464844,-1.875 -1.558594,-1.875 -0.05859,0 -0.105469,0.046875 -0.105469,0.1054687 0,0.035156 0,0.046875 0.199219,0.234375 0.972656,0.984375 1.535156,2.5664063 1.535156,4.640625 0,1.71093751 -0.363281,3.45703126 -1.59375,4.7226563 -0.140625,0.1171875 -0.140625,0.1289062 -0.140625,0.1640625 0,0.058594 0.04687,0.1054687 0.105469,0.1054687 0.09375,0 0.996094,-0.6796875 1.582031,-1.94531249 0.503907,-1.1015625 0.632813,-2.20312501 0.632813,-3.04687501 z m 0,0"
         style="fill:#c9d1d9;fill-opacity:1;fill-rule:nonzero;stroke:none" />
    </g>
    <path
       id="path10"
       d="m -28.3468,28.3468 0.14187,-0.28332 0.14187,-0.28159 0.14189,-0.28027 0.14186,-0.27857 0.14187,-0.27725 0.14187,-0.27595 0.14189,-0.27466 0.14186,-0.27294 0.14187,-0.27208 0.14188,-0.26988 0.14187,-0.26906 0.14187,-0.2673 0.14187,-0.26601 0.14188,-0.26471 0.14188,-0.26298 0.14186,-0.26169 0.14187,-0.26039 0.14188,-0.25908 0.14188,-0.25735 0.14186,-0.25608 0.14187,-0.25476 0.14188,-0.25303 0.14188,-0.25176 0.14186,-0.25043 0.14187,-0.2487 0.14188,-0.24785 0.14187,-0.24611 0.14187,-0.2444 0.14187,-0.24351 0.14188,-0.24179 0.14187,-0.2405 0.14187,-0.23874 0.14187,-0.2379 0.14188,-0.23617 0.14187,-0.23486 0.14186,-0.23316 0.14188,-0.23183 0.14188,-0.23053 0.14187,-0.22924 0.14187,-0.22753 0.14187,-0.22621 0.14188,-0.22493 0.14187,-0.22317 0.14186,-0.22191 0.14188,-0.2206 0.14188,-0.21928 0.14187,-0.21758 0.14186,-0.21626 0.14188,-0.21497 0.14188,-0.21323 0.14187,-0.2124 0.14186,-0.21063 0.14188,-0.20892 0.14188,-0.20805 0.14187,-0.20633 0.14186,-0.20459 0.14188,-0.20372 0.14187,-0.20198 0.14188,-0.20072 0.14186,-0.19938 0.14188,-0.19768 0.14188,-0.19638 0.14187,-0.19507 0.14186,-0.19335 0.14188,-0.19248 0.14187,-0.19074 0.14188,-0.18903 0.14186,-0.18815 0.14188,-0.18642 0.14187,-0.18513 0.14188,-0.1834 0.14186,-0.1821 0.14188,-0.1808 0.14187,-0.1795 0.14188,-0.17777 0.14186,-0.17691 0.1419,-0.17474 0.14185,-0.17389 0.14188,-0.17214 0.14186,-0.17086 0.14189,-0.16954 0.14186,-0.16784 0.14188,-0.16696 0.14186,-0.16479 0.14189,-0.16393 0.14186,-0.16221 0.14188,-0.16089 0.14186,-0.15961 0.14189,-0.15788 0.14186,-0.15701 0.14188,-0.15485 0.14186,-0.15399 0.14189,-0.15224 0.14186,-0.15095 0.14188,-0.14968 0.14186,-0.14792 0.14189,-0.14706 0.14186,-0.14534 0.14188,-0.1436 0.14186,-0.1423 0.14189,-0.14144 0.14186,-0.13928 0.14188,-0.13841 0.14186,-0.13669 0.14189,-0.13538 0.14186,-0.13366 0.14188,-0.13279 0.14186,-0.13105 0.14189,-0.12976 0.14186,-0.12804 0.14188,-0.12673 0.14186,-0.12544 0.14189,-0.12414 0.14186,-0.12241 0.14188,-0.12109 0.14186,-0.11983 0.14189,-0.11851 0.14186,-0.11678 0.14188,-0.11549 0.14186,-0.11376 0.14189,-0.11288 0.14186,-0.11118 0.14188,-0.10986 0.14186,-0.10814 0.14189,-0.10684 0.14186,-0.10553 L -10.329,3.7635 -10.18713,3.661 -10.04524,3.55934 -9.90338,3.45985 -9.7615,3.36124 -9.61964,3.26434 -9.47775,3.16875 -9.33589,3.07448 -9.19402,2.9819 -9.05215,2.89064 -8.91026,2.80067 -8.7684,2.71199 -8.62653,2.62506 -8.48466,2.53943 -8.34277,2.45506 -8.20091,2.37245 -8.05904,2.29114 -7.91716,2.21112 -7.77528,2.1324 -7.63342,2.0554 -7.49155,1.97972 -7.34967,1.90532 -7.2078,1.83266 -7.06593,1.76128 -6.92406,1.69121 -6.78218,1.62244 -6.6403,1.5554 -6.49844,1.48965 -6.35657,1.42519 -6.21469,1.36249 -6.07281,1.30063 -5.93095,1.24051 -5.78908,1.18211 -5.6472,1.12502 -5.50533,1.06879 -5.36346,1.01472 -5.22159,0.96152 -5.07971,0.91005 -4.93784,0.85988 -4.79597,0.81099 -4.6541,0.76384 -4.51222,0.718 -4.37035,0.67345 -4.22849,0.63063 -4.08661,0.5891 -3.94473,0.54887 -3.80286,0.50995 -3.661,0.47275 -3.51912,0.43686 -3.37724,0.40225 -3.23537,0.36894 -3.0935,0.33737 -2.95163,0.30708 -2.80975,0.2781 -2.66788,0.25085 -2.52602,0.2249 -2.38414,0.20024 -2.24226,0.17732 -2.10039,0.15526 -1.95853,0.13493 -1.81665,0.11633 -1.67477,0.0986 -1.5329,0.0826 -1.39104,0.0679 -1.24916,0.05492 -1.10728,0.04324 -0.96541,0.03285 -0.82355,0.02377 -0.68167,0.01599 -0.5398,0.00993 -0.39792,0.00517 -0.25606,0.00215 -0.11418,4.1e-4 0.02766,0 0.16954,8.4e-4 0.3114,0.00302 0.45328,0.00691 0.59515,0.0121 0.73703,0.01901 0.87889,0.02724 1.02077,0.03633 1.16264,0.04756 1.30452,0.05968 1.44638,0.0735 1.58827,0.08865 1.73013,0.10553 1.87201,0.12326 2.01387,0.14273 2.15576,0.16391 2.29762,0.18597 2.4395,0.20976 2.58136,0.23485 2.72325,0.26125 2.86511,0.28935 3.00699,0.31876 3.14885,0.34947 3.29074,0.38191 3.4326,0.41566 3.57448,0.45068 3.71634,0.48701 3.85823,0.52509 4.00009,0.56444 4.14197,0.6051 4.28383,0.64706 4.42572,0.69075 4.56758,0.73573 4.70946,0.78201 4.85132,0.83002 4.99321,0.87933 5.13507,0.92995 5.27695,0.98228 5.41881,1.03548 5.5607,1.09041 5.70256,1.14708 5.84444,1.20459 5.9863,1.26385 6.12819,1.32442 6.27005,1.3867 6.41193,1.45029 6.55379,1.51515 6.69568,1.58134 6.83754,1.64926 6.97942,1.71803 7.12128,1.78896 7.26317,1.86076 7.40503,1.9343 7.5469,2.00911 7.68877,2.08525 7.83066,2.16312 7.97252,2.24226 8.1144,2.32272 8.25626,2.40446 8.39815,2.48795 8.54001,2.57271 8.68188,2.6588 8.82375,2.7466 8.96564,2.83527 9.1075,2.9261 9.24937,3.01779 9.39124,3.11124 9.53313,3.20595 9.67499,3.30199 9.81686,3.3993 l 0.14186,0.09905 0.1419,0.10035 0.14186,0.10208 0.14187,0.10295 0.14188,0.10466 0.14187,0.10641 0.14187,0.10727 0.14187,0.10899 0.14188,0.11031 0.14188,0.11159 0.14186,0.11332 0.14187,0.11463 0.14188,0.11592 0.14188,0.11766 0.14186,0.11894 0.14187,0.12024 0.14188,0.12155 0.14187,0.12326 0.14187,0.12459 0.14187,0.12586 0.14188,0.12717 0.14187,0.12888 0.14187,0.13021 0.14187,0.13148 0.14188,0.13324 0.14187,0.13452 0.14187,0.13581 0.14187,0.13756 0.14188,0.1384 0.14187,0.14013 0.14186,0.14189 0.14188,0.14273 0.14188,0.14445 0.14187,0.14579 0.14187,0.14749 0.14187,0.14836 0.14188,0.15051 0.14187,0.1514 0.14186,0.15268 0.14188,0.15442 0.14188,0.15572 0.14187,0.15743 0.14186,0.15874 0.14188,0.16005 0.14188,0.16133 0.14187,0.16265 0.14186,0.16436 0.14188,0.16565 0.14188,0.16739 0.14187,0.1687 0.14186,0.16999 0.14188,0.17128 0.14187,0.17259 0.14188,0.1743 0.14186,0.17561 0.14188,0.17736 0.14188,0.17819 0.14187,0.17993 0.14186,0.18168 0.14188,0.18253 0.14187,0.18427 0.14188,0.18554 0.14186,0.18686 0.14188,0.18859 0.14187,0.18989 0.14188,0.19118 0.14186,0.19292 0.14188,0.19419 0.14187,0.1955 0.14188,0.19681 0.14186,0.19855 0.1419,0.19982 0.14185,0.20113 0.14188,0.20244 0.14186,0.20416 0.14189,0.20545 0.14186,0.20675 0.14188,0.20848 0.14186,0.20978 0.14189,0.21109 0.14186,0.2128 0.14188,0.21367 0.14186,0.21584 0.14189,0.2167 0.14186,0.218 0.14188,0.21973 0.14186,0.22147 0.14189,0.22232 0.14186,0.22406 0.14188,0.22534 0.14186,0.22665 0.14189,0.22838 0.14186,0.22969 0.14188,0.23096 0.14186,0.23228 0.14189,0.23401 0.14186,0.23529 0.14188,0.23659 0.14186,0.23834 0.14189,0.23963 0.14186,0.24092 0.14188,0.24221 0.14186,0.24396 0.14189,0.24524 0.14186,0.24657 0.14188,0.24826 0.14186,0.24959 0.14189,0.25085 0.14186,0.25218 0.14188,0.25389 0.14186,0.25521 0.14189,0.2565 0.14186,0.25822 0.14188,0.25908 0.14186,0.26126 0.14189,0.26212 0.14186,0.26386 0.14188,0.26514 0.14186,0.26642 0.14189,0.26776 0.14186,0.26948 0.14187,0.27076 0.14187,0.27249 0.14189,0.27338 0.14186,0.27507 0.14188,0.27641 0.14186,0.27812 0.14189,0.27941 0.14186,0.28071 0.14187,0.28202 0.14187,0.28375 0.14189,0.28505 0.14186,0.28633 0.14187,0.28766 0.14187,0.28935 0.14189,0.29067 0.14186,0.2924 0.14187,0.29326 0.14188,0.29498 0.14188,0.2963 0.14186,0.29802 0.14187,0.29887 0.14188,0.30104 0.14187,0.30193 0.14187,0.3032 0.14187,0.30494 0.14188,0.30667 0.14188,0.30754 0.14186,0.30927 0.14187,0.31055 0.14188,0.31186 0.14187,0.31359 0.14187,0.31447 0.14187,0.3166 0.14188,0.31749 0.14187,0.31921 0.14187,0.32051 0.14187,0.32182 0.14188,0.32352 0.14187,0.32442 0.14187,0.32657 0.14187,0.32741 0.14188,0.32918 0.14187,0.33046 0.14186,0.33175 0.14188,0.33349 0.14188,0.33434 0.14187,0.33652 0.14186,0.33739 0.14188,0.33911 0.14188,0.34041 0.14187,0.3417 0.14187,0.34301 0.14187,0.34471 0.14188,0.34605 0.14187,0.34775 0.14186,0.34861 0.14188,0.35036 0.14188,0.3521 0.14187,0.35295 0.14186,0.35468 0.14188,0.35598 0.14188,0.35727 0.14187,0.35901 0.14186,0.36031 0.14188,0.36158 0.14188,0.36335 0.14187,0.36419 0.14186,0.36594 0.14188,0.36765 0.14187,0.36853 0.14188,0.37025 0.14186,0.37196 0.14188,0.37287 0.14188,0.37457 0.14187,0.37587 0.14186,0.37718 0.14188,0.37891 0.14187,0.3802 0.14188,0.3815 0.14186,0.3828 0.14188,0.38452 0.14187,0.38582 0.14188,0.38711 0.14186,0.38886 0.14189,0.39015 0.14186,0.39145 0.14188,0.39275 0.14186,0.39447 0.14189,0.39576 0.14186,0.39753 0.14188,0.39836 0.14186,0.40008 0.14189,0.4014 0.14186,0.40312 0.14188,0.40399 0.14186,0.40574 0.14189,0.40744 0.14186,0.40832 0.14188,0.41005 0.14186,0.41135 0.14189,0.41262 0.14186,0.41437 0.14188,0.41567 0.14186,0.41697 0.14189,0.4187 0.14186,0.42 0.14188,0.4213 0.14186,0.42258 0.14189,0.42431"
       style="fill:none;stroke:#b39af0;stroke-width:0.99628;stroke-linecap:butt;stroke-linejoin:miter;stroke-miterlimit:10;stroke-dasharray:none;stroke-opacity:1"
       transform="matrix(1.3333333,0,0,-1.3333333,56.693333,132.28133)" />
    <g
       id="g10"
       aria-label="f(x+c)"
       transform="matrix(1.3333333,0,0,1.3333333,66.381333,50.852)">
      <path
         id="path11"
         d="M 0.43470312,-3.28125e-4 H 1.1964219 L 2.0284531,-4.2190781 h 0.9960938 l 0.1289062,-0.6210938 h -0.984375 l 0.1640625,-0.8320312 c 0.1054688,-0.5507813 0.3867188,-0.9140625 0.8203125,-0.9140625 0.234375,0 0.4101563,0.058594 0.5507813,0.1523437 l 0.2578125,-0.5390625 c -0.2226563,-0.140625 -0.515625,-0.234375 -0.8671875,-0.234375 -0.8085938,0 -1.3359375,0.5976563 -1.5351563,1.5585938 l -0.1523437,0.8085937 -0.64453128,0.046875 -0.1171875,0.5742188 H 1.2784531 Z m 0,0"
         style="fill:#b39af0;fill-opacity:1;fill-rule:nonzero;stroke:none" />
      <path
         id="path12"
         d="m 6.1124375,2.3902969 c 0,-0.035156 0,-0.046875 -0.1640625,-0.2226563 -1.2421875,-1.25390622 -1.5703125,-3.12890622 -1.5703125,-4.6640625 0,-1.7226562 0.3867187,-3.4570312 1.6054687,-4.7109375 0.1289063,-0.1171875 0.1289063,-0.1289062 0.1289063,-0.1640625 0,-0.070312 -0.035156,-0.1054687 -0.09375,-0.1054687 -0.1054688,0 -0.9960938,0.6796875 -1.5820313,1.9453125 -0.515625,1.1015625 -0.6328125,2.203125 -0.6328125,3.0351562 0,0.7851563 0.1171875,1.99218753 0.65625,3.11718753 0.5976563,1.21874997 1.453125,1.87499997 1.5585938,1.87499997 0.058594,0 0.09375,-0.035156 0.09375,-0.1054687 z m 0,0"
         style="fill:#b39af0;fill-opacity:1;fill-rule:nonzero;stroke:none" />
      <path
         id="path13"
         d="m 6.2589219,-3.28125e-4 h 0.84375 l 0.9375,-1.148437475 c 0.2460937,-0.3046875 0.4804687,-0.5859375 0.6796875,-0.8789063 h 0.046875 c 0.1171875,0.2929688 0.234375,0.5976563 0.3398437,0.890625 L 9.5401719,-3.28125e-4 H 10.337047 L 9.3526719,-2.4026719 l 1.9921871,-2.4375 h -0.832031 l -0.8437499,1.078125 c -0.1992187,0.2695313 -0.421875,0.5390625 -0.6210937,0.8085938 h -0.046875 c -0.09375,-0.28125 -0.1757813,-0.5273438 -0.28125,-0.8085938 L 8.3097031,-4.8401719 H 7.5245469 l 0.9023437,2.2734375 z m 0,0"
         style="fill:#b39af0;fill-opacity:1;fill-rule:nonzero;stroke:none" />
      <path
         id="path14"
         d="m 17.268687,-2.2972031 h 2.777344 c 0.140625,0 0.328125,0 0.328125,-0.1992188 0,-0.1992187 -0.1875,-0.1992187 -0.328125,-0.1992187 h -2.777344 v -2.7890625 c 0,-0.1289063 0,-0.328125 -0.199218,-0.328125 -0.199219,0 -0.199219,0.1992187 -0.199219,0.328125 v 2.7890625 h -2.789063 c -0.140625,0 -0.328125,0 -0.328125,0.1992187 0,0.1992188 0.1875,0.1992188 0.328125,0.1992188 h 2.789063 v 2.80078123 c 0,0.12890625 0,0.328125 0.199219,0.328125 0.199218,0 0.199218,-0.19921875 0.199218,-0.328125 z m 0,0"
         style="fill:#b39af0;fill-opacity:1;fill-rule:nonzero;stroke:none" />
      <path
         id="path15"
         d="m 25.31068,0.11685938 c 0.679687,0 1.207031,-0.29296875 1.546875,-0.57421875 L 26.52943,-0.93782812 c -0.269532,0.22265625 -0.679688,0.421875 -1.078125,0.421875 -0.761719,0 -1.136719,-0.48046875 -1.136719,-1.35937498 0,-1.3242188 0.890625,-2.4492188 1.863281,-2.4492188 0.398438,0 0.632813,0.1171875 0.867188,0.3867188 l 0.433593,-0.4335938 c -0.246093,-0.328125 -0.667968,-0.5859375 -1.253906,-0.5859375 -1.40625,0 -2.707031,1.3359375 -2.707031,3.1289063 0,1.24218748 0.738281,1.94531248 1.792969,1.94531248 z m 0,0"
         style="fill:#b39af0;fill-opacity:1;fill-rule:nonzero;stroke:none" />
      <path
         id="path16"
         d="m 30.37025,-2.4964219 c 0,-0.7734375 -0.117188,-1.9804687 -0.65625,-3.1054687 -0.597656,-1.21875 -1.464844,-1.875 -1.558594,-1.875 -0.05859,0 -0.105469,0.046875 -0.105469,0.1054687 0,0.035156 0,0.046875 0.199219,0.234375 0.972656,0.984375 1.535156,2.5664063 1.535156,4.640625 0,1.71093753 -0.363281,3.45703128 -1.59375,4.7226563 -0.140625,0.1171875 -0.140625,0.1289062 -0.140625,0.1640625 0,0.058594 0.04687,0.1054687 0.105469,0.1054687 0.09375,0 0.996094,-0.6796875 1.582031,-1.94531247 0.503907,-1.1015625 0.632813,-2.20312503 0.632813,-3.04687503 z m 0,0"
         style="fill:#b39af0;fill-opacity:1;fill-rule:nonzero;stroke:none" />
    </g>
    <path
       id="path17"
       d="M 56.69362,28.3468 H 31.67235"
       style="fill:none;stroke:#b39af0;stroke-width:0.49814;stroke-linecap:butt;stroke-linejoin:miter;stroke-miterlimit:10;stroke-dasharray:2.98883, 0.99628, 0.3985, 0.99628;stroke-dashoffset:0;stroke-opacity:1"
       transform="matrix(1.3333333,0,0,-1.3333333,56.693333,132.28133)" />
    <path
       id="path18"
       d="M 4.5211,0 0.80437,1.40187 2.02943,0 0.80437,-1.40187 Z"
       style="fill:#b39af0;fill-opacity:1;fill-rule:nonzero;stroke:#b39af0;stroke-width:0.49814;stroke-linecap:butt;stroke-linejoin:miter;stroke-miterlimit:10;stroke-dasharray:none;stroke-opacity:1"
       transform="matrix(-1.3333333,0,0,1.3333333,101.46301,94.4856)" />
    <path
       id="path19"
       d="m 2.731,0.11699219 c 0.5742187,0 1.125,-0.22265625 1.5585937,-0.62109375 L 3.9380312,-1.0314453 c -0.2929687,0.26953124 -0.6914062,0.46874999 -1.1367187,0.46874999 -0.890625,0 -1.4882813,-0.73828129 -1.4882813,-1.85156249 0,-1.1132813 0.6445313,-1.8632813 1.5117188,-1.8632813 0.3984375,0 0.703125,0.1523438 0.9726562,0.3984375 l 0.4101563,-0.515625 c -0.3398438,-0.3164062 -0.7851563,-0.5625 -1.4179688,-0.5625 -1.2421875,0 -2.3320312,0.9257813 -2.3320312,2.5429688 0,1.60546874 0.984375,2.53124999 2.2734375,2.53124999 z m 0,0"
       style="fill:#b39af0;fill-opacity:1;fill-rule:nonzero;stroke:none"
       aria-label="c"
       transform="matrix(1.3333333,0,0,1.3333333,110.35867,89.566667)" />
  </g>
</svg>
