<?xml version="1.0" encoding="UTF-8" standalone="no"?>
<!-- Created with Inkscape (http://www.inkscape.org/) -->

<svg
   version="1.1"
   id="svg1"
   width="241.89333"
   height="241.89333"
   viewBox="0 0 241.89333 241.89333"
   sodipodi:docname="MATH_118-55.pdf"
   xmlns:inkscape="http://www.inkscape.org/namespaces/inkscape"
   xmlns:sodipodi="http://sodipodi.sourceforge.net/DTD/sodipodi-0.dtd"
   xmlns="http://www.w3.org/2000/svg"
   xmlns:svg="http://www.w3.org/2000/svg">
  <defs
     id="defs1" />
  <sodipodi:namedview
     id="namedview1"
     pagecolor="#ffffff"
     bordercolor="#000000"
     borderopacity="0.25"
     inkscape:showpageshadow="2"
     inkscape:pageopacity="0.0"
     inkscape:pagecheckerboard="0"
     inkscape:deskcolor="#d1d1d1">
    <inkscape:page
       x="0"
       y="0"
       inkscape:label="1"
       id="page1"
       width="241.89333"
       height="241.89333"
       margin="0"
       bleed="0" />
  </sodipodi:namedview>
  <g
     id="g1"
     inkscape:groupmode="layer"
     inkscape:label="1">
    <path
       id="path1"
       d="M -28.3468,0 H 141.2359"
       style="fill:none;stroke:#c9d1d9;stroke-width:0.49814;stroke-linecap:butt;stroke-linejoin:miter;stroke-miterlimit:10;stroke-dasharray:none;stroke-opacity:1"
       transform="matrix(1.3333333,0,0,-1.3333333,45.354667,196.53867)" />
    <path
       id="path2"
       d="M -2.1918,2.57101 C -1.79137,1.02838 -0.89903,0.29994 0,0 -0.89903,-0.29994 -1.79137,-1.02838 -2.1918,-2.57101"
       style="fill:none;stroke:#c9d1d9;stroke-width:0.49814;stroke-linecap:round;stroke-linejoin:round;stroke-miterlimit:10;stroke-dasharray:none;stroke-opacity:1"
       transform="matrix(1.3333333,0,0,-1.3333333,234.00129,196.53867)" />
    <path
       id="path3"
       d="M 0,-28.3468 V 141.2359"
       style="fill:none;stroke:#c9d1d9;stroke-width:0.49814;stroke-linecap:butt;stroke-linejoin:miter;stroke-miterlimit:10;stroke-dasharray:none;stroke-opacity:1"
       transform="matrix(1.3333333,0,0,-1.3333333,45.354667,196.53867)" />
    <path
       id="path4"
       d="M -2.1918,2.57101 C -1.79137,1.02838 -0.89903,0.29994 0,0 -0.89903,-0.29994 -1.79137,-1.02838 -2.1918,-2.57101"
       style="fill:none;stroke:#c9d1d9;stroke-width:0.49814;stroke-linecap:round;stroke-linejoin:round;stroke-miterlimit:10;stroke-dasharray:none;stroke-opacity:1"
       transform="matrix(0,-1.3333333,-1.3333333,0,45.354667,7.89204)" />
    <g
       id="g4"
       aria-label="(&#10;x,"
       transform="matrix(1.3333333,0,0,1.3333333,72.657333,37.853333)">
      <path
         id="path5"
         d="m 4.1124687,11.447891 c 0,-0.04687 -0.023437,-0.05859 -0.035156,-0.09375 C 3.6202812,10.861953 2.9405937,10.065078 2.5187187,8.4361719 2.2960625,7.5338281 2.2023125,6.5025781 2.2023125,5.5767969 c 0,-2.625 0.6210937,-4.453125 1.8164062,-5.74218752 0.09375,-0.09375 0.09375,-0.1171875 0.09375,-0.140625 0,-0.09375 -0.082031,-0.09375 -0.1171875,-0.09375 -0.1523437,0 -0.6914062,0.59765625 -0.8203125,0.75 C 2.1554375,1.5572656 1.5109062,3.3502344 1.5109062,5.5650781 c 0,1.4179688 0.2460938,3.421875 1.5585938,5.0976559 0.09375,0.128907 0.75,0.878907 0.9257812,0.878907 0.035156,0 0.1171875,0 0.1171875,-0.09375 z m 0,0"
         style="fill:#c9d1d9;fill-opacity:1;fill-rule:nonzero;stroke:none" />
      <path
         id="path6"
         d="m 4.1329766,8.0699609 h 0.84375 l 0.9375,-1.1484375 C 6.1603203,6.6168359 6.3946953,6.3355859 6.5939141,6.0426172 h 0.046875 c 0.1171875,0.2929687 0.234375,0.5976562 0.3398437,0.890625 l 0.4335938,1.1367187 h 0.796875 l -0.984375,-2.4023437 1.9921875,-2.4375 H 8.3868828 l -0.84375,1.078125 C 7.3439141,4.5777734 7.1212578,4.8473047 6.9220391,5.1168359 H 6.8751641 C 6.7814141,4.8355859 6.6993828,4.5894922 6.5939141,4.3082422 L 6.1837578,3.2301172 H 5.3986016 l 0.9023437,2.2734375 z m 0,0"
         style="fill:#c9d1d9;fill-opacity:1;fill-rule:nonzero;stroke:none" />
      <path
         id="path7"
         d="m 10.877117,8.0582422 c 0,-0.65625 -0.257812,-1.0429688 -0.644531,-1.0429688 -0.3281251,0 -0.5273438,0.2460938 -0.5273438,0.5273438 0,0.2695312 0.1992187,0.5273437 0.5273438,0.5273437 0.117187,0 0.246094,-0.035156 0.351562,-0.1289062 0.02344,-0.023437 0.03516,-0.035156 0.04687,-0.035156 0.01172,0 0.02344,0.011719 0.02344,0.1523438 0,0.7382812 -0.351563,1.3359375 -0.6796876,1.6640625 -0.1054687,0.1054687 -0.1054687,0.1289062 -0.1054687,0.1640625 0,0.070312 0.046875,0.1054687 0.09375,0.1054687 0.1171873,0 0.9140623,-0.7617187 0.9140623,-1.9335937 z m 0,0"
         style="fill:#c9d1d9;fill-opacity:1;fill-rule:nonzero;stroke:none" />
    </g>
    <g
       id="g7"
       aria-label="f(x)"
       transform="matrix(1.3333333,0,0,1.3333333,90.361333,48.612)">
      <path
         id="path8"
         d="M 0.43505469,9.609375e-4 H 1.1967734 L 2.0288047,-4.2177891 h 0.9960937 l 0.1289063,-0.6210937 h -0.984375 l 0.1640625,-0.8320313 c 0.1054687,-0.5507812 0.3867187,-0.9140625 0.8203125,-0.9140625 0.234375,0 0.4101562,0.058594 0.5507812,0.1523438 l 0.2578125,-0.5390625 c -0.2226562,-0.140625 -0.515625,-0.234375 -0.8671875,-0.234375 -0.8085937,0 -1.3359375,0.5976562 -1.5351562,1.5585937 l -0.1523438,0.8085938 -0.64453121,0.046875 -0.1171875,0.5742187 H 1.2788047 Z m 0,0"
         style="fill:#b39af0;fill-opacity:1;fill-rule:nonzero;stroke:none" />
      <path
         id="path9"
         d="m 6.1127891,2.3915859 c 0,-0.035156 0,-0.046875 -0.1640625,-0.2226562 -1.2421875,-1.25390626 -1.5703125,-3.12890626 -1.5703125,-4.6640625 0,-1.7226563 0.3867187,-3.4570313 1.6054687,-4.7109375 0.1289063,-0.1171875 0.1289063,-0.1289063 0.1289063,-0.1640625 0,-0.070312 -0.035156,-0.1054688 -0.09375,-0.1054688 -0.1054688,0 -0.9960938,0.6796875 -1.5820313,1.9453125 -0.515625,1.1015625 -0.6328125,2.203125 -0.6328125,3.0351563 0,0.7851562 0.1171875,1.99218749 0.65625,3.11718749 0.5976563,1.21875001 1.453125,1.87500001 1.5585938,1.87500001 0.058594,0 0.09375,-0.035156 0.09375,-0.1054688 z m 0,0"
         style="fill:#b39af0;fill-opacity:1;fill-rule:nonzero;stroke:none" />
      <path
         id="path10"
         d="m 6.2592734,9.609375e-4 h 0.84375 l 0.9375,-1.1484375375 c 0.2460938,-0.3046875 0.4804688,-0.5859375 0.6796875,-0.8789062 h 0.046875 c 0.1171875,0.2929687 0.234375,0.5976562 0.3398438,0.890625 L 9.5405234,9.609375e-4 H 10.337398 L 9.3530234,-2.4013828 l 1.9921876,-2.4375 H 10.51318 l -0.8437503,1.078125 c -0.1992188,0.2695312 -0.421875,0.5390625 -0.6210938,0.8085937 h -0.046875 c -0.09375,-0.28125 -0.1757812,-0.5273437 -0.28125,-0.8085937 L 8.3100547,-4.8388828 H 7.5248984 l 0.9023438,2.2734375 z m 0,0"
         style="fill:#b39af0;fill-opacity:1;fill-rule:nonzero;stroke:none" />
      <path
         id="path11"
         d="m 13.858883,-2.4951328 c 0,-0.7734375 -0.117188,-1.9804688 -0.65625,-3.1054688 -0.597656,-1.21875 -1.464844,-1.875 -1.558594,-1.875 -0.05859,0 -0.105469,0.046875 -0.105469,0.1054688 0,0.035156 0,0.046875 0.199219,0.234375 0.972656,0.984375 1.535156,2.5664062 1.535156,4.640625 0,1.71093749 -0.363281,3.45703124 -1.59375,4.7226562 -0.140625,0.1171875 -0.140625,0.1289063 -0.140625,0.1640625 0,0.058594 0.04687,0.1054688 0.105469,0.1054688 0.09375,0 0.996094,-0.6796875 1.582031,-1.94531251 0.503907,-1.1015625 0.632813,-2.20312499 0.632813,-3.04687499 z m 0,0"
         style="fill:#b39af0;fill-opacity:1;fill-rule:nonzero;stroke:none" />
    </g>
    <path
       id="path12"
       d="m 3.0352031,5.5767969 c 0,-1.4179688 -0.2460937,-3.421875 -1.546875,-5.09765627 -0.1054687,-0.1171875 -0.74999998,-0.87890625 -0.92578123,-0.87890625 -0.0585938,0 -0.12890625,0.0234375 -0.12890625,0.09375 0,0.046875 0.0234375,0.0703125 0.0703125,0.10546875 0.46875,0.515625 1.12499998,1.32421877 1.52343748,2.90624997 0.234375,0.9140625 0.328125,1.9335938 0.328125,2.859375 0,1.0078125 -0.09375,2.0273438 -0.3515625,3 -0.375,1.3945313 -0.9726562,2.1914059 -1.47656248,2.7539059 -0.09375,0.08203 -0.09375,0.105469 -0.09375,0.128907 0,0.07031 0.0703125,0.09375 0.12890625,0.09375 0.140625,0 0.69140623,-0.609375 0.80859373,-0.75 C 2.3906719,9.5963281 3.0352031,7.8033594 3.0352031,5.5767969 Z m 0,0"
       style="fill:#c9d1d9;fill-opacity:1;fill-rule:nonzero;stroke:none"
       aria-label=")"
       transform="matrix(1.3333333,0,0,1.3333333,110.164,37.853333)" />
    <path
       id="path13"
       d="M 56.69362,0 V 103.938"
       style="fill:none;stroke:#b39af0;stroke-width:1.99255;stroke-linecap:butt;stroke-linejoin:miter;stroke-miterlimit:10;stroke-dasharray:none;stroke-opacity:1"
       transform="matrix(1.3333333,0,0,-1.3333333,45.354667,196.53867)" />
    <g
       id="g13"
       aria-label="f(x)"
       transform="matrix(1.3333333,0,0,1.3333333,126.70133,135.508)">
      <path
         id="path14"
         d="M 1.0325937,-1.40625e-4 H 2.8724375 L 4.8763437,-10.136859 h 2.3671875 l 0.3164063,-1.476563 h -2.34375 l 0.375,-1.992187 c 0.2695312,-1.335938 0.9375,-2.191407 1.96875,-2.191407 0.5742187,0 0.9960937,0.140625 1.3359375,0.351563 l 0.6210937,-1.289063 c -0.5507812,-0.339843 -1.2421875,-0.574218 -2.0859375,-0.574218 -1.9570312,0 -3.1992187,1.429687 -3.6796875,3.75 l -0.375,1.945312 -1.5585937,0.117188 -0.2578125,1.359375 h 1.5 z m 0,0"
         style="fill:#b39af0;fill-opacity:1;fill-rule:nonzero;stroke:none" />
      <path
         id="path15"
         d="m 14.348023,6.0467344 c 0,-0.023437 0,-0.070312 -0.07031,-0.1523438 C 13.140994,4.7342344 10.0824,1.5584531 10.0824,-6.1759219 c 0,-7.7343751 3,-10.8750001 4.21875,-12.1171871 0,-0.02344 0.04687,-0.07031 0.04687,-0.152344 0,-0.07031 -0.07031,-0.117188 -0.175781,-0.117188 -0.269531,0 -2.378906,1.828125 -3.585937,4.558594 -1.2421878,2.753906 -1.5937503,5.4257814 -1.5937503,7.8046876 0,1.7929688 0.1757812,4.8164063 1.6640623,8.0039063 1.195313,2.578125 3.222656,4.3945312 3.515625,4.3945312 0.128906,0 0.175781,-0.046875 0.175781,-0.1523437 z m 0,0"
         style="fill:#b39af0;fill-opacity:1;fill-rule:nonzero;stroke:none" />
      <path
         id="path16"
         d="m 14.488648,-1.40625e-4 h 2.039063 L 18.765992,-2.7540469 c 0.597656,-0.7382812 1.148438,-1.40625 1.652344,-2.0976562 h 0.09375 c 0.292969,0.6914062 0.574219,1.4296875 0.820312,2.1210937 l 1.042969,2.730468775 h 1.921875 L 21.930055,-5.7657656 26.711305,-11.613422 H 24.69568 l -2.003907,2.5781251 c -0.480468,0.6679688 -1.007812,1.3125 -1.511718,1.9335938 h -0.09375 C 20.85193,-7.7696719 20.66443,-8.3438906 20.418336,-9.0352969 l -1.007813,-2.5781251 h -1.886718 l 2.179687,5.4492189 z m 0,0"
         style="fill:#b39af0;fill-opacity:1;fill-rule:nonzero;stroke:none" />
      <path
         id="path17"
         d="m 32.342164,-6.1759219 c 0,-1.78125 -0.175781,-4.8046871 -1.652344,-8.0039061 -1.195312,-2.578125 -3.222656,-4.382813 -3.527343,-4.382813 -0.07031,0 -0.175782,0.02344 -0.175782,0.152344 0,0.04687 0.03516,0.07031 0.05859,0.117188 1.183594,1.242187 4.207031,4.382812 4.207031,12.0937496 0,7.734375 -3,10.8867188 -4.207031,12.1171875 -0.02344,0.058594 -0.05859,0.082031 -0.05859,0.1289063 0,0.1289062 0.105469,0.1523437 0.175782,0.1523437 0.269531,0 2.378906,-1.8398437 3.597656,-4.5585937 1.242187,-2.7539063 1.582031,-5.4375 1.582031,-7.8164063 z m 0,0"
         style="fill:#b39af0;fill-opacity:1;fill-rule:nonzero;stroke:none" />
    </g>
    <path
       id="path18"
       d="m 60.32503,103.938 c 0,2.0056 -1.62583,3.63141 -3.63141,3.63141 -2.0056,0 -3.63142,-1.62581 -3.63142,-3.63141 0,-2.0056 1.62582,-3.63142 3.63142,-3.63142 2.00558,0 3.63141,1.62582 3.63141,3.63142 z"
       style="fill:#c9d1d9;fill-opacity:1;fill-rule:nonzero;stroke:#c9d1d9;stroke-width:0.3985;stroke-linecap:butt;stroke-linejoin:miter;stroke-miterlimit:10;stroke-dasharray:none;stroke-opacity:1"
       transform="matrix(1.3333333,0,0,-1.3333333,45.354667,196.53867)" />
    <path
       id="path19"
       d="m -14.17339,-2.36034 c 0,0 4.26671,9.77321 5.90543,13.36928 1.63873,3.59609 4.26672,9.18035 5.90546,12.5488 1.63873,3.36846 4.26667,8.58781 5.90541,11.72868 1.63872,3.14088 4.26671,7.99532 5.90542,10.90863 1.63874,2.9133 4.26674,7.40284 5.90546,10.0885 1.63873,2.68567 4.26671,6.80989 5.90544,9.26799 1.63873,2.4581 4.26671,6.21781 5.90544,8.44834 1.63872,2.23053 4.26671,5.62491 5.90543,7.62781 1.63873,2.00288 4.26672,5.03239 5.90546,6.80772 1.63873,1.77531 4.2667,4.43986 5.90544,5.98761 1.63871,1.54774 4.2667,3.84741 5.90542,5.16754 1.63874,1.32012 4.26673,3.25452 5.90546,4.347 1.63873,1.09248 4.26671,2.66194 5.90544,3.52692 1.63872,0.86497 4.26671,2.06985 5.90543,2.70726 1.63873,0.6374 4.26672,1.47702 5.90545,1.88673 1.63874,0.40972 4.26671,0.88408 5.90544,1.06621 1.63872,0.18213 4.26671,0.29196 5.90543,0.24655 1.63873,-0.0454 4.26673,-0.30099 5.90546,-0.57399 1.63873,-0.27299 4.26671,-0.89307 5.90544,-1.39364 1.63872,-0.50057 4.26671,-1.48595 5.90543,-2.21415 1.63873,-0.72821 4.26672,-2.07847 5.90544,-3.03425 1.63873,-0.95578 4.26672,-2.67095 5.90545,-3.85436 1.63874,-1.18341 4.26671,-3.26384 5.90544,-4.67486 1.63872,-1.41104 5.90543,-5.49497 5.90543,-5.49497"
       style="fill:none;stroke:#c9d1d9;stroke-width:0.99628;stroke-linecap:butt;stroke-linejoin:miter;stroke-miterlimit:10;stroke-dasharray:none;stroke-opacity:1"
       transform="matrix(1.3333333,0,0,-1.3333333,45.354667,196.53867)" />
  </g>
</svg>
