<?xml version="1.0" encoding="UTF-8" standalone="no"?>
<!-- Created with Inkscape (http://www.inkscape.org/) -->

<svg
   version="1.1"
   id="svg1"
   width="188.97333"
   height="226.77333"
   viewBox="0 0 188.97333 226.77333"
   sodipodi:docname="MATH_118-109.pdf"
   xmlns:inkscape="http://www.inkscape.org/namespaces/inkscape"
   xmlns:sodipodi="http://sodipodi.sourceforge.net/DTD/sodipodi-0.dtd"
   xmlns="http://www.w3.org/2000/svg"
   xmlns:svg="http://www.w3.org/2000/svg">
  <defs
     id="defs1" />
  <sodipodi:namedview
     id="namedview1"
     pagecolor="#ffffff"
     bordercolor="#000000"
     borderopacity="0.25"
     inkscape:showpageshadow="2"
     inkscape:pageopacity="0.0"
     inkscape:pagecheckerboard="0"
     inkscape:deskcolor="#d1d1d1">
    <inkscape:page
       x="0"
       y="0"
       inkscape:label="1"
       id="page1"
       width="188.97333"
       height="226.77333"
       margin="0"
       bleed="0" />
  </sodipodi:namedview>
  <g
     id="g1"
     inkscape:groupmode="layer"
     inkscape:label="1">
    <path
       id="path1"
       d="M -56.69362,0 H 56.44455"
       style="fill:none;stroke:#c9d1d9;stroke-width:0.24907;stroke-linecap:butt;stroke-linejoin:miter;stroke-miterlimit:10;stroke-dasharray:none;stroke-opacity:1"
       transform="matrix(1.3333333,0,0,-1.3333333,94.488,170.08)" />
    <path
       id="path2"
       d="M -1.89291,2.12108 C -1.54709,0.84842 -0.77643,0.24745 0,0 -0.77643,-0.24745 -1.54709,-0.84842 -1.89291,-2.12108"
       style="fill:none;stroke:#c9d1d9;stroke-width:0.24907;stroke-linecap:round;stroke-linejoin:round;stroke-miterlimit:10;stroke-dasharray:none;stroke-opacity:1"
       transform="matrix(1.3333333,0,0,-1.3333333,169.91344,170.08)" />
    <path
       id="path3"
       d="M 0,-28.3468 V 113.13817"
       style="fill:none;stroke:#c9d1d9;stroke-width:0.24907;stroke-linecap:butt;stroke-linejoin:miter;stroke-miterlimit:10;stroke-dasharray:none;stroke-opacity:1"
       transform="matrix(1.3333333,0,0,-1.3333333,94.488,170.08)" />
    <path
       id="path4"
       d="M -1.89291,2.12108 C -1.54709,0.84842 -0.77643,0.24745 0,0 -0.77643,-0.24745 -1.54709,-0.84842 -1.89291,-2.12108"
       style="fill:none;stroke:#c9d1d9;stroke-width:0.24907;stroke-linecap:round;stroke-linejoin:round;stroke-miterlimit:10;stroke-dasharray:none;stroke-opacity:1"
       transform="matrix(0,-1.3333333,-1.3333333,0,94.488,19.063067)" />
    <path
       id="path5"
       d="m -56.69362,7.08669 0.2271,0.03979 0.22708,0.0398 0.2271,0.03936 0.22706,0.03978 0.22708,0.0398 0.2271,0.04238 0.22707,0.0398 0.22709,0.04239 0.22708,0.03979 0.22707,0.04239 0.22709,0.04239 0.22709,0.03978 0.22706,0.04283 0.2271,0.04241 0.22708,0.04237 0.2271,0.04239 0.22707,0.04543 0.22708,0.04281 0.22709,0.04239 0.22707,0.04543 0.22709,0.04237 0.22709,0.04543 0.22706,0.0454 0.2271,0.04543 0.22708,0.04239 0.22707,0.04541 0.22709,0.04802 0.22708,0.04541 0.2271,0.04541 0.22707,0.04541 0.22708,0.04803 0.22709,0.0454 0.22707,0.04802 0.22709,0.04845 0.22709,0.04542 0.22706,0.048 0.2271,0.04845 0.22708,0.04801 0.22707,0.05104 0.2271,0.04802 0.22708,0.04843 0.22708,0.05105 0.22708,0.04801 0.22708,0.05102 0.2271,0.05106 0.22706,0.05102 0.2271,0.05106 0.22708,0.05103 0.22707,0.05105 0.22709,0.05103 0.22708,0.05363 0.22707,0.05106 0.2271,0.05406 0.22708,0.05104 0.22708,0.05363 0.22708,0.05407 0.22708,0.05363 0.2271,0.05406 0.22706,0.05364 0.2271,0.0571 0.22708,0.05363 0.22707,0.05666 0.2271,0.05407 0.22708,0.05666 0.22706,0.05667 0.2271,0.05666 0.22708,0.05665 0.22708,0.05669 0.22708,0.05665 0.22708,0.05968 0.2271,0.05668 0.22707,0.05926 0.22709,0.05968 0.22708,0.05969 0.22707,0.05927 0.2271,0.05967 0.22708,0.05971 0.22706,0.05925 0.2271,0.06228 0.22708,0.05968 0.22708,0.06229 0.22708,0.0623 0.22709,0.06229 0.22708,0.06271 0.22708,0.06229 0.2271,0.06228 0.22708,0.06531 0.22706,0.06227 0.2271,0.06532 0.22708,0.0649 0.22707,0.06531 0.22709,0.0653 0.22708,0.06533 0.22709,0.0679 0.22708,0.06531 0.22708,0.0679 0.22708,0.06532 0.22708,0.06792 0.2271,0.0679 0.22708,0.0679 0.22706,0.06836 0.2271,0.07092 0.22708,0.06792 0.22707,0.07092 0.22709,0.07094 0.22709,0.07051 0.22708,0.07092 0.22708,0.07096 0.22708,0.07094 0.22708,0.07353 0.22708,0.07394 0.2271,0.07096 0.22708,0.07351 0.22707,0.07353 0.22709,0.07657 0.22708,0.07396 0.22707,0.07656 0.2271,0.07353 0.22708,0.07657 0.22708,0.07655 0.22708,0.07657 0.22708,0.07655 0.22708,0.07916 0.22708,0.07656 0.2271,0.07959 0.22707,0.07915 0.22708,0.07958 0.2271,0.07917 0.22708,0.07957 0.22706,0.08219 0.2271,0.07916 0.22708,0.08217 0.22708,0.08218 0.22708,0.08218 0.22708,0.08521 0.22708,0.08218 0.22709,0.08522 0.22709,0.08477 0.22707,0.08218 0.22708,0.08826 0.2271,0.08476 0.22708,0.08522 0.22706,0.08781 0.2271,0.08779 0.22708,0.08781 0.22708,0.0878 0.22709,0.08824 0.22708,0.0904 0.22708,0.08781 0.22708,0.09084 0.2271,0.09082 0.22706,0.09083 0.22708,0.09343 0.2271,0.09084 0.22708,0.09343 0.22707,0.09343 0.22709,0.09343 0.22708,0.09385 0.22708,0.09647 0.22709,0.09343 0.22708,0.09645 0.22708,0.09602 0.22708,0.09947 0.2271,0.09647 0.22707,0.09905 0.22708,0.09646 0.22709,0.09906 0.22707,0.10207 0.22708,0.09947 0.2271,0.10165 0.22708,0.09949 0.22708,0.10208 0.22708,0.10208 0.22708,0.10466 0.22708,0.10209 0.22708,0.10511 0.2271,0.10468 0.22707,0.1051 0.22708,0.1077 0.22709,0.10467 0.22707,0.10771 0.22708,0.10768 0.2271,0.10772 0.22708,0.11073 0.22708,0.10771 0.22708,0.11029 0.22708,0.11375 0.22709,0.11031 0.22708,0.11074 0.22709,0.11331 0.22707,0.11332 0.22708,0.11333 0.2271,0.11635 0.22706,0.11333 0.22708,0.11636 0.2271,0.11591 0.22707,0.11938 0.22709,0.11592 0.22708,0.11937 0.22709,0.11896 0.22708,0.11894 0.22708,0.12198 0.22709,0.12198 0.22707,0.12155 0.22708,0.12198 0.2271,0.12196 0.22706,0.12458 0.22709,0.12501 0.22709,0.12456 0.22707,0.12501 0.2271,0.12716 0.22708,0.12759 0.22708,0.12761 0.22708,0.1276 0.22708,0.13062 0.2271,0.13021 0.22706,0.13061 0.22708,0.13323 0.2271,0.13018 0.22707,0.13323 0.22708,0.13624 0.22709,0.13323 0.22707,0.13582 0.2271,0.13624 0.22708,0.13582 0.22708,0.13928 0.22708,0.13886 0.22708,0.13884 0.2271,0.13884 0.22706,0.14187 0.22709,0.14144 0.22709,0.14186 0.22707,0.14189 0.22708,0.14446 0.2271,0.14447 0.22706,0.14446 0.2271,0.1475 0.22708,0.14749 0.22707,0.14751 0.22709,0.14704 0.22708,0.15053 0.2271,0.1501 0.22707,0.15311 0.22708,0.1501 0.22709,0.15312 0.22707,0.15311 0.22708,0.15616 0.2271,0.1557 0.22706,0.15616 0.22707,0.15787 0.22708,0.15786 0.22707,0.15918 0.22709,0.15961 0.22708,0.16047 0.2271,0.16176 0.22707,0.16266 0.22708,0.16348 0.2271,0.1648 0.22706,0.16524 0.22709,0.16566 0.22709,0.16695 0.22707,0.16826 0.22709,0.16914 0.22708,0.16997 0.22707,0.17085 0.2271,0.17215 0.22708,0.17216 0.22709,0.17388 0.22707,0.17474 0.22708,0.1756 0.2271,0.17693 0.22706,0.17776 0.22709,0.17778 0.22709,0.17993 0.22707,0.1808 0.22709,0.1821 0.22708,0.18253 0.22707,0.18382 0.2271,0.18471 0.22708,0.18556 0.22708,0.18642 0.22708,0.18815 0.22709,0.18903 0.22709,0.18944 0.22707,0.19117 0.22708,0.19205 0.22709,0.19249 0.22707,0.19464 0.2271,0.19509 0.22708,0.19636 0.22706,0.19724 0.2271,0.19897 0.22708,0.20027 0.22708,0.19939 0.22708,0.20242 0.22709,0.20244 0.22709,0.20458 0.22707,0.20503 0.2271,0.20675 0.22707,0.20763 0.22707,0.20761 0.2271,0.21021 0.22708,0.21151 0.22707,0.21239 0.22709,0.21323 0.22709,0.21454 0.22708,0.21627 0.22708,0.21584 0.22708,0.21843 0.22709,0.22017 0.22707,0.2206 0.2271,0.22187 0.22708,0.22277 0.22706,0.22361 0.2271,0.22623 0.22708,0.22664 0.22707,0.22795 0.2271,0.22968 0.22708,0.23011 0.22708,0.23272 0.22708,0.23269 0.22708,0.23444 0.22708,0.2353 0.22708,0.23745 0.2271,0.23834 0.22708,0.24049 0.22707,0.24092 0.22709,0.24222 0.22709,0.24352 0.22706,0.24481 0.2271,0.24699 0.22708,0.24783 0.22708,0.24915 0.22708,0.2513 0.22708,0.25131 0.22708,0.25304 0.22709,0.25562 0.22709,0.25608 0.22708,0.25821 0.22707,0.25954 0.2271,0.26037 0.22708,0.26126 0.22706,0.26384 0.2271,0.26514 0.22708,0.26602 0.22708,0.26817 0.22708,0.26949 0.22708,0.27162 0.22709,0.27164 0.22708,0.27336 0.22709,0.27596 0.22709,0.27725 0.22706,0.27856 0.2271,0.28027 0.22708,0.28074 0.22706,0.28286 0.2271,0.28505 0.22708,0.2872 0.22708,0.28765 0.22709,0.28981 0.22708,0.29107 0.22708,0.29241 0.22708,0.29457 0.2271,0.29628 0.22706,0.29758 0.22708,0.29933 0.2271,0.30147 0.22708,0.30322 0.22707,0.30406 0.22709,0.30623 0.22709,0.30711 0.22708,0.30927 0.22708,0.31099 0.22708,0.31402 0.22708,0.31533 0.22708,0.31532 0.2271,0.31877 0.22706,0.31964 0.22708,0.32268 0.2271,0.32268 0.22708,0.32614 0.22707,0.32698 0.2271,0.32786 0.22708,0.3309 0.22708,0.33349 0.22708,0.33477 0.22708,0.33609 0.22708,0.33912 0.22708,0.33911 0.2271,0.34213 0.22707,0.34517 0.22708,0.34517 0.22709,0.34906 0.22707,0.34904 0.22708,0.35165 0.2271,0.3521 0.22708,0.35599 0.22708,0.35812 0.22708,0.36033 0.22708,0.36116 0.22708,0.36375 0.22708,0.36551 0.2271,0.36722 0.22707,0.36981 0.22708,0.37286 0.2271,0.37326 0.22706,0.37589 0.22709,0.37848 0.22709,0.3802 0.22708,0.38062 0.22708,0.38453 0.22708,0.38669 0.22709,0.38886 0.22708,0.391 0.22708,0.39275 0.22709,0.39621 0.22707,0.39576 0.22708,0.4001 0.2271,0.40227 0.22706,0.40355 0.22709,0.40659 0.22709,0.40831 0.22708,0.41221 0.22708,0.41092 0.22708,0.41523 0.22709,0.41827 0.22708,0.42087 0.22708,0.4217 0.2271,0.42519 0.22706,0.42778 0.22709,0.42865 0.22709,0.43167 0.22707,0.43514 0.22708,0.43773 0.22709,0.43902 0.22707,0.44075 0.2271,0.44379 0.22708,0.44595 0.22708,0.44898 0.22708,0.45113 0.22708,0.45504 0.2271,0.45804 0.22706,0.45807 0.22709,0.46022 0.22709,0.46455 0.22707,0.46628 0.22708,0.47145 0.22709,0.47148 0.22707,0.47534 0.2271,0.4771 0.22708,0.47795 0.22708,0.48271 0.22708,0.48575 0.22709,0.48747 0.22709,0.49135 0.22707,0.4944 0.22708,0.49568 0.22709,0.49872 0.22707,0.50176 0.22708,0.50476 0.2271,0.50694 0.22706,0.51126 0.2271,0.51298 0.22708,0.51603 0.22708,0.51687 0.22709,0.52207 0.22708,0.52467 0.22709,0.5264 0.22707,0.53247 0.22708,0.53289 0.22709,0.53591 0.22707,0.53807 0.22708,0.54283 0.2271,0.54586 0.22707,0.54803 0.22709,0.55365 0.22709,0.55408 0.22706,0.55582 0.2271,0.56143 0.22708,0.56315 0.2271,0.56837 0.22706,0.5688 0.22708,0.57482 0.2271,0.57615 0.22707,0.5783 0.22708,0.58307 0.22709,0.58652 0.22707,0.58997 0.2271,0.59214 0.22708,0.59691 0.22706,0.59949 0.2271,0.6008 0.22708,0.606 0.22709,0.61029 0.22707,0.61032 0.22708,0.61811 0.2271,0.6194 0.22707,0.6237 0.22708,0.62503"
       style="fill:none;stroke:#b39af0;stroke-width:0.99628;stroke-linecap:butt;stroke-linejoin:miter;stroke-miterlimit:10;stroke-dasharray:none;stroke-opacity:1"
       transform="matrix(1.3333333,0,0,-1.3333333,94.488,170.08)" />
    <g
       id="g5"
       aria-label="(0,1)"
       transform="matrix(1.3333333,0,0,1.3333333,99.237333,146.944)">
      <path
         id="path6"
         d="m 3.2936797,2.3916094 c 0,-0.035156 0,-0.046875 -0.1640625,-0.2226563 -1.2421875,-1.25390623 -1.5703125,-3.12890623 -1.5703125,-4.6640625 0,-1.7226562 0.3867187,-3.4570312 1.6054687,-4.7109375 0.1289063,-0.1171875 0.1289063,-0.1289062 0.1289063,-0.1640625 0,-0.070312 -0.035156,-0.1054687 -0.09375,-0.1054687 -0.1054688,0 -0.9960938,0.6796875 -1.5820313,1.9453125 -0.515625,1.1015625 -0.63281246,2.203125 -0.63281246,3.0351562 0,0.7851563 0.11718746,1.99218752 0.65624996,3.11718752 0.5976563,1.21874998 1.453125,1.87499998 1.5585938,1.87499998 0.058594,0 0.09375,-0.035156 0.09375,-0.1054687 z m 0,0"
         style="fill:#c9d1d9;fill-opacity:1;fill-rule:nonzero;stroke:none" />
      <path
         id="path7"
         d="m 6.5573516,0.11817187 c 1.3359375,0 2.1328125,-1.21874997 2.1328125,-3.31640627 0,-2.0859375 -0.796875,-3.28125 -2.1328125,-3.28125 -1.3242188,0 -2.1328125,1.1835938 -2.1328125,3.28125 0,2.0976563 0.8085937,3.31640627 2.1328125,3.31640627 z m 0,-0.66796875 c -0.7851563,0 -1.3007813,-0.80859372 -1.3007813,-2.64843752 0,-1.8515625 0.515625,-2.6132812 1.3007813,-2.6132812 0.7851562,0 1.3007812,0.7617187 1.3007812,2.6132812 0,1.8398438 -0.515625,2.64843752 -1.3007812,2.64843752 z m 0,0"
         style="fill:#c9d1d9;fill-opacity:1;fill-rule:nonzero;stroke:none" />
      <path
         id="path8"
         d="m 11.26243,-0.01073438 c 0,-0.65625 -0.257813,-1.04296872 -0.644532,-1.04296872 -0.328125,0 -0.527343,0.24609372 -0.527343,0.52734372 0,0.26953125 0.199218,0.527343755 0.527343,0.527343755 0.117188,0 0.246094,-0.035156255 0.351563,-0.128906255 0.02344,-0.0234375 0.03516,-0.0351563 0.04687,-0.0351563 0.01172,0 0.02344,0.0117188 0.02344,0.15234375 0,0.73828125 -0.351562,1.33593743 -0.679687,1.66406243 -0.105469,0.1054688 -0.105469,0.1289063 -0.105469,0.1640625 0,0.070312 0.04687,0.1054688 0.09375,0.1054688 0.117188,0 0.914063,-0.7617188 0.914063,-1.93359373 z m 0,0"
         style="fill:#c9d1d9;fill-opacity:1;fill-rule:nonzero;stroke:none" />
      <path
         id="path9"
         d="m 15.325906,9.84375e-4 h 0.832032 V -6.3505781 h -0.644532 c -0.351562,0.2109375 -0.761718,0.3632812 -1.347656,0.46875 v 0.5390625 h 1.160156 z m 0,0"
         style="fill:#c9d1d9;fill-opacity:1;fill-rule:nonzero;stroke:none" />
      <path
         id="path10"
         d="m 20.230203,-2.4951094 c 0,-0.7734375 -0.117187,-1.9804687 -0.65625,-3.1054687 -0.597656,-1.21875 -1.464844,-1.875 -1.558594,-1.875 -0.05859,0 -0.105468,0.046875 -0.105468,0.1054687 0,0.035156 0,0.046875 0.199218,0.234375 0.972657,0.984375 1.535157,2.5664063 1.535157,4.640625 0,1.71093752 -0.363282,3.45703127 -1.59375,4.7226563 -0.140625,0.1171875 -0.140625,0.1289062 -0.140625,0.1640625 0,0.058594 0.04687,0.1054687 0.105468,0.1054687 0.09375,0 0.996094,-0.6796875 1.582032,-1.94531248 0.503906,-1.1015625 0.632812,-2.20312502 0.632812,-3.04687502 z m 0,0"
         style="fill:#c9d1d9;fill-opacity:1;fill-rule:nonzero;stroke:none" />
    </g>
    <path
       id="path11"
       d="m 1.93672,28.3468 c 0,1.06963 -0.86709,1.93674 -1.93672,1.93674 -1.06963,0 -1.93672,-0.86711 -1.93672,-1.93674 0,-1.06962 0.86709,-1.93674 1.93672,-1.93674 1.06963,0 1.93672,0.86712 1.93672,1.93674 z"
       style="fill:#c9d1d9;fill-opacity:1;fill-rule:nonzero;stroke:#c9d1d9;stroke-width:0.3985;stroke-linecap:butt;stroke-linejoin:miter;stroke-miterlimit:10;stroke-dasharray:none;stroke-opacity:1"
       transform="matrix(1.3333333,0,0,-1.3333333,94.488,170.08)" />
  </g>
</svg>
