<?xml version="1.0" encoding="UTF-8" standalone="no"?>
<!-- Created with Inkscape (http://www.inkscape.org/) -->

<svg
   version="1.1"
   id="svg1"
   width="249.45332"
   height="226.77333"
   viewBox="0 0 249.45332 226.77333"
   sodipodi:docname="MATH_118-104.pdf"
   xmlns:inkscape="http://www.inkscape.org/namespaces/inkscape"
   xmlns:sodipodi="http://sodipodi.sourceforge.net/DTD/sodipodi-0.dtd"
   xmlns="http://www.w3.org/2000/svg"
   xmlns:svg="http://www.w3.org/2000/svg">
  <defs
     id="defs1" />
  <sodipodi:namedview
     id="namedview1"
     pagecolor="#ffffff"
     bordercolor="#000000"
     borderopacity="0.25"
     inkscape:showpageshadow="2"
     inkscape:pageopacity="0.0"
     inkscape:pagecheckerboard="0"
     inkscape:deskcolor="#d1d1d1">
    <inkscape:page
       x="0"
       y="0"
       inkscape:label="1"
       id="page1"
       width="249.45332"
       height="226.77333"
       margin="0"
       bleed="0" />
  </sodipodi:namedview>
  <g
     id="g1"
     inkscape:groupmode="layer"
     inkscape:label="1">
    <g
       id="g2"
       aria-label="x&#10;3&#10;−2x&#10;2&#10;+x−2"
       transform="matrix(1.3333333,0,0,1.3333333,120.72267,34.813333)">
      <path
         id="path2"
         d="m -0.43360156,-6.25e-4 h 0.84375 L 1.3476484,-1.1490625 C 1.5937422,-1.45375 1.8281172,-1.735 2.0273359,-2.0279688 h 0.046875 c 0.1171875,0.2929688 0.234375,0.5976563 0.3398438,0.890625 L 2.8476484,-6.25e-4 h 0.796875 l -0.984375,-2.4023438 1.9921875,-2.4375 H 3.8203047 l -0.84375,1.078125 C 2.7773359,-3.4928125 2.5546797,-3.2232813 2.3554609,-2.95375 H 2.3085859 C 2.2148359,-3.235 2.1328047,-3.4810938 2.0273359,-3.7623438 L 1.6171797,-4.8404688 H 0.83202344 l 0.90234376,2.2734375 z m 0,0"
         style="fill:#c9d1d9;fill-opacity:1;fill-rule:nonzero;stroke:none" />
      <path
         id="path3"
         d="m 5.9238203,-3.5338281 c 0.8203125,0 1.4765625,-0.4804688 1.4765625,-1.265625 0,-0.6210938 -0.421875,-1.0078125 -0.9609375,-1.1367188 v -0.023437 c 0.4804688,-0.1757812 0.796875,-0.5273437 0.796875,-1.0546875 0,-0.7265625 -0.5507812,-1.1367187 -1.3242187,-1.1367187 -0.5273438,0 -0.9375,0.234375 -1.2773438,0.5625 l 0.3046875,0.3632812 c 0.2695313,-0.2578125 0.5742188,-0.4453125 0.9492188,-0.4453125 0.46875,0 0.7617187,0.2695313 0.7617187,0.6914063 0,0.46875 -0.3164062,0.8320312 -1.2539062,0.8320312 v 0.4335938 c 1.0546875,0 1.4179687,0.3632812 1.4179687,0.890625 0,0.4921875 -0.3867187,0.8085937 -0.9257812,0.8085937 -0.515625,0 -0.8671875,-0.2460937 -1.1367188,-0.5273437 l -0.2929687,0.3867187 c 0.3046875,0.328125 0.7617187,0.6210938 1.4648437,0.6210933 z m 0,0"
         style="fill:#c9d1d9;fill-opacity:1;fill-rule:nonzero;stroke:none" />
      <path
         id="path4"
         d="m 17.214836,-2.2975 c 0.175781,0 0.351562,0 0.351562,-0.1992188 0,-0.1992187 -0.175781,-0.1992187 -0.351562,-0.1992187 h -5.390625 c -0.164063,0 -0.339844,0 -0.339844,0.1992187 0,0.1992188 0.175781,0.1992188 0.339844,0.1992188 z m 0,0"
         style="fill:#c9d1d9;fill-opacity:1;fill-rule:nonzero;stroke:none" />
      <path
         id="path5"
         d="m 21.046867,-6.25e-4 h 4.03125 V -0.70375 H 23.27343 c -0.339844,0 -0.726563,0.0117188 -1.066407,0.046875 1.5,-1.5703125 2.601563,-2.7539063 2.601563,-3.9492188 0,-1.125 -0.714844,-1.875 -1.898438,-1.875 -0.796875,0 -1.359375,0.375 -1.910156,0.9960938 l 0.457031,0.4453125 c 0.363282,-0.421875 0.832032,-0.7617188 1.359375,-0.7617188 0.808594,0 1.183594,0.515625 1.183594,1.2421875 0,1.0195313 -1.066406,2.1679688 -2.953125,4.0664063 z m 0,0"
         style="fill:#c9d1d9;fill-opacity:1;fill-rule:nonzero;stroke:none" />
      <path
         id="path6"
         d="m 25.171867,-6.25e-4 h 0.84375 l 0.9375,-1.1484375 C 27.199211,-1.45375 27.433586,-1.735 27.632805,-2.0279688 h 0.04687 c 0.117187,0.2929688 0.234375,0.5976563 0.339843,0.890625 l 0.433594,1.1367188 h 0.796875 l -0.984375,-2.4023438 1.992188,-2.4375 h -0.832032 l -0.84375,1.078125 C 28.3828,-3.4928125 28.160143,-3.2232813 27.960925,-2.95375 h -0.04687 c -0.09375,-0.28125 -0.175782,-0.5273438 -0.28125,-0.8085938 l -0.410157,-1.078125 h -0.785156 l 0.902344,2.2734375 z m 0,0"
         style="fill:#c9d1d9;fill-opacity:1;fill-rule:nonzero;stroke:none" />
      <path
         id="path7"
         d="m 30.193352,-3.6158594 h 2.824218 v -0.4921875 h -1.265625 c -0.234375,0 -0.515625,0.011719 -0.75,0.035156 1.042969,-1.1015625 1.816407,-1.921875 1.816407,-2.765625 0,-0.7851563 -0.492188,-1.3125 -1.324219,-1.3125 -0.550781,0 -0.949219,0.2578125 -1.335938,0.6914062 l 0.328125,0.3164063 c 0.246094,-0.2929688 0.574219,-0.5273438 0.9375,-0.5273438 0.574219,0 0.832032,0.3515625 0.832032,0.8554688 0,0.7265625 -0.738282,1.5234375 -2.0625,2.859375 z m 0,0"
         style="fill:#c9d1d9;fill-opacity:1;fill-rule:nonzero;stroke:none" />
      <path
         id="path8"
         d="m 45.354484,-2.2975 h 2.777344 c 0.140625,0 0.328125,0 0.328125,-0.1992188 0,-0.1992187 -0.1875,-0.1992187 -0.328125,-0.1992187 H 45.354484 V -5.485 c 0,-0.1289063 0,-0.328125 -0.199218,-0.328125 -0.199219,0 -0.199219,0.1992187 -0.199219,0.328125 v 2.7890625 h -2.789063 c -0.140625,0 -0.328125,0 -0.328125,0.1992187 0,0.1992188 0.1875,0.1992188 0.328125,0.1992188 h 2.789063 v 2.80078125 c 0,0.12890625 0,0.328125 0.199219,0.328125 0.199218,0 0.199218,-0.19921875 0.199218,-0.328125 z m 0,0"
         style="fill:#c9d1d9;fill-opacity:1;fill-rule:nonzero;stroke:none" />
      <path
         id="path9"
         d="m 50.803703,-6.25e-4 h 0.84375 l 0.9375,-1.1484375 C 52.831047,-1.45375 53.065422,-1.735 53.264641,-2.0279688 h 0.04687 c 0.117187,0.2929688 0.234375,0.5976563 0.339843,0.890625 l 0.433594,1.1367188 h 0.796875 l -0.984375,-2.4023438 1.992188,-2.4375 h -0.832032 l -0.84375,1.078125 c -0.199218,0.2695313 -0.421875,0.5390625 -0.621093,0.8085938 h -0.04687 c -0.09375,-0.28125 -0.175782,-0.5273438 -0.28125,-0.8085938 l -0.410157,-1.078125 h -0.785156 l 0.902344,2.2734375 z m 0,0"
         style="fill:#c9d1d9;fill-opacity:1;fill-rule:nonzero;stroke:none" />
      <path
         id="path10"
         d="m 64.488273,-2.2975 c 0.175782,0 0.351563,0 0.351563,-0.1992188 0,-0.1992187 -0.175781,-0.1992187 -0.351563,-0.1992187 h -5.390625 c -0.164062,0 -0.339843,0 -0.339843,0.1992187 0,0.1992188 0.175781,0.1992188 0.339843,0.1992188 z m 0,0"
         style="fill:#c9d1d9;fill-opacity:1;fill-rule:nonzero;stroke:none" />
      <path
         id="path11"
         d="m 68.320305,-6.25e-4 h 4.03125 V -0.70375 h -1.804688 c -0.339844,0 -0.726562,0.0117188 -1.066406,0.046875 1.5,-1.5703125 2.601562,-2.7539063 2.601562,-3.9492188 0,-1.125 -0.714843,-1.875 -1.898437,-1.875 -0.796875,0 -1.359375,0.375 -1.910156,0.9960938 l 0.457031,0.4453125 c 0.363281,-0.421875 0.832031,-0.7617188 1.359375,-0.7617188 0.808594,0 1.183594,0.515625 1.183594,1.2421875 0,1.0195313 -1.066407,2.1679688 -2.953125,4.0664063 z m 0,0"
         style="fill:#c9d1d9;fill-opacity:1;fill-rule:nonzero;stroke:none" />
    </g>
    <path
       id="path12"
       d="M 58.983,-16.825 H 169.804"
       style="fill:none;stroke:#c9d1d9;stroke-width:0.3985;stroke-linecap:butt;stroke-linejoin:miter;stroke-miterlimit:10;stroke-dasharray:none;stroke-opacity:1"
       transform="matrix(1.3333333,0,0,-1.3333333,-8.5106667,17.428)" />
    <g
       id="g12"
       aria-label="x−2&#10;)&#10;x&#10;4&#10;−4x&#10;3&#10;+5x&#10;2&#10;−4x+4&#10;−x&#10;4&#10;+2x&#10;3"
       transform="matrix(1.3333333,0,0,1.3333333,35.442667,54.872)">
      <path
         id="path13"
         d="m -0.43453906,-6.796875e-4 h 0.84375 L 1.3467109,-1.1491172 c 0.2460938,-0.3046875 0.4804688,-0.5859375 0.6796875,-0.8789062 h 0.046875 c 0.1171875,0.2929687 0.234375,0.5976562 0.3398438,0.890625 l 0.4335937,1.1367187125 h 0.796875 L 2.6592109,-2.4030234 l 1.9921875,-2.4375 H 3.8193672 l -0.84375,1.078125 c -0.1992188,0.2695312 -0.421875,0.5390625 -0.6210938,0.8085937 h -0.046875 c -0.09375,-0.28125 -0.1757812,-0.5273437 -0.28125,-0.8085937 L 1.6162422,-4.8405234 H 0.83108594 l 0.90234376,2.2734375 z m 0,0"
         style="fill:#c9d1d9;fill-opacity:1;fill-rule:nonzero;stroke:none" />
      <path
         id="path14"
         d="m 13.059602,-2.2975547 c 0.175781,0 0.351562,0 0.351562,-0.1992187 0,-0.1992188 -0.175781,-0.1992188 -0.351562,-0.1992188 H 7.6689766 c -0.1640625,0 -0.3398438,0 -0.3398438,0.1992188 0,0.1992187 0.1757813,0.1992187 0.3398438,0.1992187 z m 0,0"
         style="fill:#c9d1d9;fill-opacity:1;fill-rule:nonzero;stroke:none" />
      <path
         id="path15"
         d="m 16.894562,-6.796875e-4 h 4.03125 V -0.70380469 h -1.804687 c -0.339844,0 -0.726563,0.0117188 -1.066406,0.046875 1.5,-1.57031251 2.601562,-2.75390621 2.601562,-3.94921871 0,-1.125 -0.714844,-1.875 -1.898437,-1.875 -0.796875,0 -1.359375,0.375 -1.910157,0.9960937 l 0.457032,0.4453125 c 0.363281,-0.421875 0.832031,-0.7617187 1.359375,-0.7617187 0.808593,0 1.183593,0.515625 1.183593,1.2421875 0,1.0195312 -1.066406,2.1679687 -2.953125,4.06640621 z m 0,0"
         style="fill:#c9d1d9;fill-opacity:1;fill-rule:nonzero;stroke:none" />
      <path
         id="path16"
         d="m 24.485383,-2.4909141 c 0,-1.4179687 -0.246094,-3.421875 -1.546875,-5.0976562 -0.105469,-0.1171875 -0.75,-0.8789063 -0.925781,-0.8789063 -0.05859,0 -0.128907,0.023437 -0.128907,0.09375 0,0.046875 0.02344,0.070312 0.07031,0.1054688 0.46875,0.515625 1.125,1.3242187 1.523437,2.90625 0.234375,0.9140625 0.328125,1.9335937 0.328125,2.859375 0,1.0078125 -0.09375,2.02734374 -0.351562,2.99999999 -0.375,1.39453121 -0.972656,2.19140621 -1.476563,2.75390621 -0.09375,0.082031 -0.09375,0.1054688 -0.09375,0.1289063 0,0.070312 0.07031,0.09375 0.128907,0.09375 0.140625,0 0.691406,-0.609375 0.808593,-0.75 1.019532,-1.1953125 1.664063,-2.98828126 1.664063,-5.2148438 z m 0,0"
         style="fill:#c9d1d9;fill-opacity:1;fill-rule:nonzero;stroke:none" />
      <path
         id="path17"
         d="m 37.759797,-6.796875e-4 h 0.84375 l 0.9375,-1.1484375125 c 0.246094,-0.3046875 0.480469,-0.5859375 0.679687,-0.8789062 h 0.04687 c 0.117188,0.2929687 0.234375,0.5976562 0.339844,0.890625 l 0.433594,1.1367187125 h 0.796875 l -0.98437,-2.4023437125 1.992187,-2.4375 h -0.832031 l -0.84375,1.078125 c -0.199219,0.2695312 -0.421875,0.5390625 -0.621094,0.8085937 h -0.04687 c -0.09375,-0.28125 -0.175781,-0.5273437 -0.28125,-0.8085937 l -0.410156,-1.078125 h -0.785156 l 0.902344,2.2734375 z m 0,0"
         style="fill:#c9d1d9;fill-opacity:1;fill-rule:nonzero;stroke:none" />
      <path
         id="path18"
         d="m 43.320344,-5.3034141 1.042968,-1.5117187 c 0.117188,-0.2226563 0.246094,-0.421875 0.363282,-0.6328125 h 0.02344 c -0.01172,0.2460937 -0.03516,0.6210937 -0.03516,0.8554687 v 1.2890625 z m 1.394531,1.6875 h 0.539062 v -1.2304687 h 0.609375 v -0.4570313 h -0.609375 v -2.765625 h -0.632812 l -1.910156,2.8476563 v 0.375 h 2.003906 z m 0,0"
         style="fill:#c9d1d9;fill-opacity:1;fill-rule:nonzero;stroke:none" />
      <path
         id="path19"
         d="m 55.378937,-2.2975547 c 0.175782,0 0.351563,0 0.351563,-0.1992187 0,-0.1992188 -0.175781,-0.1992188 -0.351563,-0.1992188 h -5.390625 c -0.164062,0 -0.339843,0 -0.339843,0.1992188 0,0.1992187 0.175781,0.1992187 0.339843,0.1992187 z m 0,0"
         style="fill:#c9d1d9;fill-opacity:1;fill-rule:nonzero;stroke:none" />
      <path
         id="path20"
         d="m 59.987336,-2.4147422 1.488281,-2.15625 c 0.175781,-0.3164062 0.351563,-0.5976562 0.515625,-0.9023437 h 0.03516 c -0.02344,0.3398437 -0.04687,0.890625 -0.04687,1.21875 v 1.8398437 z m 1.992187,2.4140625125 h 0.773438 V -1.7584922 h 0.867187 v -0.65625 h -0.867187 v -3.9375 h -0.914063 l -2.71875,4.0546875 v 0.5390625 h 2.859375 z m 0,0"
         style="fill:#c9d1d9;fill-opacity:1;fill-rule:nonzero;stroke:none" />
      <path
         id="path21"
         d="m 63.526398,-6.796875e-4 h 0.84375 l 0.9375,-1.1484375125 c 0.246094,-0.3046875 0.480469,-0.5859375 0.679688,-0.8789062 h 0.04687 c 0.117187,0.2929687 0.234375,0.5976562 0.339844,0.890625 l 0.433593,1.1367187125 h 0.796875 l -0.98437,-2.4023437125 1.992188,-2.4375 h -0.832031 l -0.84375,1.078125 c -0.199219,0.2695312 -0.421875,0.5390625 -0.621094,0.8085937 h -0.04687 c -0.09375,-0.28125 -0.175781,-0.5273437 -0.28125,-0.8085937 l -0.410156,-1.078125 h -0.785157 l 0.902344,2.2734375 z m 0,0"
         style="fill:#c9d1d9;fill-opacity:1;fill-rule:nonzero;stroke:none" />
      <path
         id="path22"
         d="m 69.88382,-3.5338828 c 0.820313,0 1.476563,-0.4804688 1.476563,-1.265625 0,-0.6210938 -0.421875,-1.0078125 -0.960938,-1.1367188 v -0.023437 c 0.480469,-0.1757812 0.796875,-0.5273437 0.796875,-1.0546875 0,-0.7265625 -0.550781,-1.1367187 -1.324218,-1.1367187 -0.527344,0 -0.9375,0.234375 -1.277344,0.5625 l 0.304687,0.3632812 c 0.269532,-0.2578125 0.574219,-0.4453125 0.949219,-0.4453125 0.46875,0 0.761719,0.2695313 0.761719,0.6914063 0,0.46875 -0.316406,0.8320312 -1.253906,0.8320312 v 0.4335938 c 1.054687,0 1.417968,0.3632812 1.417968,0.890625 0,0.4921875 -0.386718,0.8085937 -0.925781,0.8085937 -0.515625,0 -0.867187,-0.2460937 -1.136719,-0.5273437 l -0.292968,0.3867187 c 0.304687,0.328125 0.761718,0.6210938 1.464843,0.6210933 z m 0,0"
         style="fill:#c9d1d9;fill-opacity:1;fill-rule:nonzero;stroke:none" />
      <path
         id="path23"
         d="m 78.728547,-2.2975547 h 2.777344 c 0.140625,0 0.328125,0 0.328125,-0.1992187 0,-0.1992188 -0.1875,-0.1992188 -0.328125,-0.1992188 h -2.777344 v -2.7890625 c 0,-0.1289062 0,-0.328125 -0.199219,-0.328125 -0.199219,0 -0.199219,0.1992188 -0.199219,0.328125 v 2.7890625 h -2.789062 c -0.140625,0 -0.328125,0 -0.328125,0.1992188 0,0.1992187 0.1875,0.1992187 0.328125,0.1992187 h 2.789062 v 2.80078126 c 0,0.12890625 0,0.328125 0.199219,0.328125 0.199219,0 0.199219,-0.19921875 0.199219,-0.328125 z m 0,0"
         style="fill:#c9d1d9;fill-opacity:1;fill-rule:nonzero;stroke:none" />
      <path
         id="path24"
         d="m 86.94632,0.11650781 c 1.101563,0 2.144532,-0.7734375 2.144532,-2.14453121 0,-1.3828125 -0.890625,-1.9921875 -1.96875,-1.9921875 -0.386719,0 -0.679688,0.09375 -0.972657,0.2578125 l 0.164063,-1.875 h 2.460937 v -0.7148438 h -3.1875 l -0.210937,3.0585938 0.445312,0.2695312 c 0.375,-0.2460937 0.644532,-0.375 1.089844,-0.375 0.808594,0 1.335938,0.5039063 1.335938,1.3828125 0,0.890625 -0.609375,1.45312501 -1.382813,1.45312501 -0.75,0 -1.21875,-0.3515625 -1.605469,-0.73828121 l -0.398437,0.55078121 c 0.445312,0.4453125 1.066406,0.8671875 2.085937,0.8671875 z m 0,0"
         style="fill:#c9d1d9;fill-opacity:1;fill-rule:nonzero;stroke:none" />
      <path
         id="path25"
         d="m 89.131867,-6.796875e-4 h 0.84375 l 0.9375,-1.1484375125 c 0.246094,-0.3046875 0.480469,-0.5859375 0.679688,-0.8789062 h 0.04687 c 0.117187,0.2929687 0.234375,0.5976562 0.339843,0.890625 l 0.433594,1.1367187125 h 0.796875 l -0.98437,-2.4023437125 1.992188,-2.4375 h -0.832032 l -0.84375,1.078125 c -0.199218,0.2695312 -0.421875,0.5390625 -0.621093,0.8085937 h -0.04687 c -0.09375,-0.28125 -0.175782,-0.5273437 -0.28125,-0.8085937 l -0.410157,-1.078125 h -0.785156 l 0.902344,2.2734375 z m 0,0"
         style="fill:#c9d1d9;fill-opacity:1;fill-rule:nonzero;stroke:none" />
      <path
         id="path26"
         d="m 94.153352,-3.6159141 h 2.824218 v -0.4921875 h -1.265625 c -0.234375,0 -0.515625,0.011719 -0.75,0.035156 1.042969,-1.1015625 1.816407,-1.921875 1.816407,-2.765625 0,-0.7851563 -0.492188,-1.3125 -1.324219,-1.3125 -0.550781,0 -0.949219,0.2578125 -1.335938,0.6914062 l 0.328125,0.3164063 c 0.246094,-0.2929688 0.574219,-0.5273438 0.9375,-0.5273438 0.574219,0 0.832032,0.3515625 0.832032,0.8554688 0,0.7265625 -0.738282,1.5234375 -2.0625,2.859375 z m 0,0"
         style="fill:#c9d1d9;fill-opacity:1;fill-rule:nonzero;stroke:none" />
      <path
         id="path27"
         d="m 106.61624,-2.2975547 c 0.17578,0 0.35156,0 0.35156,-0.1992187 0,-0.1992188 -0.17578,-0.1992188 -0.35156,-0.1992188 h -5.39062 c -0.16407,0 -0.33985,0 -0.33985,0.1992188 0,0.1992187 0.17578,0.1992187 0.33985,0.1992187 z m 0,0"
         style="fill:#c9d1d9;fill-opacity:1;fill-rule:nonzero;stroke:none" />
      <path
         id="path28"
         d="m 111.22464,-2.4147422 1.48828,-2.15625 c 0.17578,-0.3164062 0.35156,-0.5976562 0.51563,-0.9023437 h 0.0352 c -0.0234,0.3398437 -0.0469,0.890625 -0.0469,1.21875 v 1.8398437 z m 1.99219,2.4140625125 h 0.77344 V -1.7584922 h 0.86718 v -0.65625 h -0.86718 v -3.9375 h -0.91407 l -2.71875,4.0546875 v 0.5390625 h 2.85938 z m 0,0"
         style="fill:#c9d1d9;fill-opacity:1;fill-rule:nonzero;stroke:none" />
      <path
         id="path29"
         d="m 114.7637,-6.796875e-4 h 0.84375 l 0.9375,-1.1484375125 c 0.2461,-0.3046875 0.48047,-0.5859375 0.67969,-0.8789062 h 0.0469 c 0.11718,0.2929687 0.23437,0.5976562 0.33984,0.890625 l 0.43359,1.1367187125 h 0.79688 l -0.98438,-2.4023437125 1.99219,-2.4375 h -0.83203 l -0.84375,1.078125 c -0.19922,0.2695312 -0.42188,0.5390625 -0.62109,0.8085937 h -0.0469 c -0.0937,-0.28125 -0.17578,-0.5273437 -0.28125,-0.8085937 l -0.41016,-1.078125 h -0.78515 l 0.90234,2.2734375 z m 0,0"
         style="fill:#c9d1d9;fill-opacity:1;fill-rule:nonzero;stroke:none" />
      <path
         id="path30"
         d="m 125.77347,-2.2975547 h 2.77734 c 0.14063,0 0.32813,0 0.32813,-0.1992187 0,-0.1992188 -0.1875,-0.1992188 -0.32813,-0.1992188 h -2.77734 v -2.7890625 c 0,-0.1289062 0,-0.328125 -0.19922,-0.328125 -0.19922,0 -0.19922,0.1992188 -0.19922,0.328125 v 2.7890625 h -2.78906 c -0.14063,0 -0.32813,0 -0.32813,0.1992188 0,0.1992187 0.1875,0.1992187 0.32813,0.1992187 h 2.78906 v 2.80078126 c 0,0.12890625 0,0.328125 0.19922,0.328125 0.19922,0 0.19922,-0.19921875 0.19922,-0.328125 z m 0,0"
         style="fill:#c9d1d9;fill-opacity:1;fill-rule:nonzero;stroke:none" />
      <path
         id="path31"
         d="m 132.86624,-2.4147422 1.48828,-2.15625 c 0.17578,-0.3164062 0.35157,-0.5976562 0.51563,-0.9023437 h 0.0352 c -0.0234,0.3398437 -0.0469,0.890625 -0.0469,1.21875 v 1.8398437 z m 1.99219,2.4140625125 h 0.77344 V -1.7584922 h 0.86718 v -0.65625 h -0.86718 v -3.9375 h -0.91407 l -2.71875,4.0546875 v 0.5390625 h 2.85938 z m 0,0"
         style="fill:#c9d1d9;fill-opacity:1;fill-rule:nonzero;stroke:none" />
      <path
         id="path32"
         d="m 34.794953,9.6585 c 0.175781,0 0.351563,0 0.351563,-0.1992188 0,-0.1992187 -0.175782,-0.1992187 -0.351563,-0.1992187 h -5.390625 c -0.164062,0 -0.339844,0 -0.339844,0.1992187 0,0.1992188 0.175782,0.1992188 0.339844,0.1992188 z m 0,0"
         style="fill:#c9d1d9;fill-opacity:1;fill-rule:nonzero;stroke:none" />
      <path
         id="path33"
         d="m 37.759797,11.955375 h 0.84375 l 0.9375,-1.148438 C 39.787141,10.50225 40.021516,10.221 40.220734,9.9280312 h 0.04687 c 0.117188,0.2929688 0.234375,0.5976558 0.339844,0.8906248 l 0.433594,1.136719 h 0.796875 l -0.984375,-2.4023438 1.992187,-2.4375 h -0.832031 l -0.84375,1.078125 C 40.970734,8.4631875 40.748078,8.7327187 40.548859,9.00225 h -0.04687 C 40.408234,8.721 40.326203,8.4749062 40.220734,8.1936562 l -0.410156,-1.078125 h -0.785156 l 0.902344,2.2734375 z m 0,0"
         style="fill:#c9d1d9;fill-opacity:1;fill-rule:nonzero;stroke:none" />
      <path
         id="path34"
         d="M 43.320344,6.6526406 44.363312,5.1409219 C 44.4805,4.9182656 44.609406,4.7190469 44.726594,4.5081094 h 0.02344 c -0.01172,0.2460937 -0.03516,0.6210937 -0.03516,0.8554687 v 1.2890625 z m 1.394531,1.6875 h 0.539062 V 7.1096719 h 0.609375 V 6.6526406 h -0.609375 v -2.765625 h -0.632812 l -1.910156,2.8476563 v 0.375 h 2.003906 z m 0,0"
         style="fill:#c9d1d9;fill-opacity:1;fill-rule:nonzero;stroke:none" />
      <path
         id="path35"
         d="m 53.084992,9.6585 h 2.777344 c 0.140625,0 0.328125,0 0.328125,-0.1992188 0,-0.1992187 -0.1875,-0.1992187 -0.328125,-0.1992187 H 53.084992 V 6.471 c 0,-0.1289063 0,-0.328125 -0.199219,-0.328125 -0.199218,0 -0.199218,0.1992187 -0.199218,0.328125 v 2.7890625 h -2.789063 c -0.140625,0 -0.328125,0 -0.328125,0.1992187 0,0.1992188 0.1875,0.1992188 0.328125,0.1992188 h 2.789063 v 2.800781 c 0,0.128906 0,0.328125 0.199218,0.328125 0.199219,0 0.199219,-0.199219 0.199219,-0.328125 z m 0,0"
         style="fill:#c9d1d9;fill-opacity:1;fill-rule:nonzero;stroke:none" />
      <path
         id="path36"
         d="m 59.401398,11.955375 h 4.03125 V 11.25225 h -1.804687 c -0.339844,0 -0.726563,0.01172 -1.066406,0.04687 1.5,-1.5703125 2.601562,-2.7539063 2.601562,-3.9492188 0,-1.125 -0.714844,-1.875 -1.898437,-1.875 -0.796875,0 -1.359375,0.375 -1.910157,0.9960938 l 0.457032,0.4453125 c 0.363281,-0.421875 0.832031,-0.7617188 1.359375,-0.7617188 0.808593,0 1.183593,0.515625 1.183593,1.2421875 0,1.0195313 -1.066406,2.1679688 -2.953125,4.0664058 z m 0,0"
         style="fill:#c9d1d9;fill-opacity:1;fill-rule:nonzero;stroke:none" />
      <path
         id="path37"
         d="m 63.526398,11.955375 h 0.84375 l 0.9375,-1.148438 C 65.553742,10.50225 65.788117,10.221 65.987336,9.9280312 h 0.04687 C 66.151393,10.221 66.268581,10.525687 66.37405,10.818656 l 0.433593,1.136719 h 0.796875 l -0.984375,-2.4023438 1.992188,-2.4375 H 67.7803 l -0.84375,1.078125 C 66.737336,8.4631875 66.51468,8.7327187 66.315461,9.00225 h -0.04687 C 66.174836,8.721 66.092805,8.4749062 65.987336,8.1936562 L 65.57718,7.1155312 h -0.785157 l 0.902344,2.2734375 z m 0,0"
         style="fill:#c9d1d9;fill-opacity:1;fill-rule:nonzero;stroke:none" />
      <path
         id="path38"
         d="m 69.88382,8.4221719 c 0.820313,0 1.476563,-0.4804688 1.476563,-1.265625 0,-0.6210938 -0.421875,-1.0078125 -0.960938,-1.1367188 v -0.023437 c 0.480469,-0.1757812 0.796875,-0.5273437 0.796875,-1.0546875 0,-0.7265625 -0.550781,-1.1367187 -1.324218,-1.1367187 -0.527344,0 -0.9375,0.234375 -1.277344,0.5625 l 0.304687,0.3632812 c 0.269532,-0.2578125 0.574219,-0.4453125 0.949219,-0.4453125 0.46875,0 0.761719,0.2695313 0.761719,0.6914063 0,0.46875 -0.316406,0.8320312 -1.253906,0.8320312 v 0.4335938 c 1.054687,0 1.417968,0.3632812 1.417968,0.890625 0,0.4921875 -0.386718,0.8085937 -0.925781,0.8085937 -0.515625,0 -0.867187,-0.2460937 -1.136719,-0.5273437 l -0.292968,0.3867187 c 0.304687,0.328125 0.761718,0.6210938 1.464843,0.6210933 z m 0,0"
         style="fill:#c9d1d9;fill-opacity:1;fill-rule:nonzero;stroke:none" />
    </g>
    <path
       id="path39"
       d="m 58.983,-43.824 h 46.19"
       style="fill:none;stroke:#c9d1d9;stroke-width:0.3985;stroke-linecap:butt;stroke-linejoin:miter;stroke-miterlimit:10;stroke-dasharray:none;stroke-opacity:1"
       transform="matrix(1.3333333,0,0,-1.3333333,-8.5106667,17.428)" />
    <g
       id="g39"
       aria-label="−2x&#10;3&#10;+5x&#10;2&#10;2x&#10;3&#10;−4x&#10;2"
       transform="matrix(1.3333333,0,0,1.3333333,100.784,90.737333)">
      <path
         id="path40"
         d="m 6.5633672,-2.2961641 c 0.1757812,0 0.3515625,0 0.3515625,-0.1992187 0,-0.1992188 -0.1757813,-0.1992188 -0.3515625,-0.1992188 h -5.390625 c -0.1640625,0 -0.33984376,0 -0.33984376,0.1992188 0,0.1992187 0.17578126,0.1992187 0.33984376,0.1992187 z m 0,0"
         style="fill:#c9d1d9;fill-opacity:1;fill-rule:nonzero;stroke:none" />
      <path
         id="path41"
         d="m 10.395398,7.109375e-4 h 4.03125 V -0.70241406 h -1.804687 c -0.339844,0 -0.726563,0.0117188 -1.066406,0.046875 1.5,-1.57031254 2.601562,-2.75390624 2.601562,-3.94921874 0,-1.125 -0.714844,-1.875 -1.898437,-1.875 -0.796875,0 -1.359375,0.375 -1.910157,0.9960937 l 0.457032,0.4453125 c 0.363281,-0.421875 0.832031,-0.7617187 1.359375,-0.7617187 0.808593,0 1.183593,0.515625 1.183593,1.2421875 0,1.0195312 -1.066406,2.1679687 -2.953125,4.06640624 z m 0,0"
         style="fill:#c9d1d9;fill-opacity:1;fill-rule:nonzero;stroke:none" />
      <path
         id="path42"
         d="m 14.520398,7.109375e-4 h 0.84375 l 0.9375,-1.1484375375 c 0.246094,-0.3046875 0.480469,-0.5859375 0.679688,-0.8789062 h 0.04687 c 0.117187,0.2929687 0.234375,0.5976562 0.339844,0.890625 l 0.433593,1.1367187375 h 0.796875 l -0.98437,-2.4023437375 1.992188,-2.4375 h -0.832031 l -0.84375,1.078125 c -0.199219,0.2695312 -0.421875,0.5390625 -0.621094,0.8085937 h -0.04687 c -0.09375,-0.28125 -0.175781,-0.5273437 -0.28125,-0.8085937 l -0.410156,-1.078125 h -0.785157 l 0.902344,2.2734375 z m 0,0"
         style="fill:#c9d1d9;fill-opacity:1;fill-rule:nonzero;stroke:none" />
      <path
         id="path43"
         d="m 20.87782,-3.5324922 c 0.820313,0 1.476563,-0.4804687 1.476563,-1.265625 0,-0.6210937 -0.421875,-1.0078125 -0.960938,-1.1367187 v -0.023437 c 0.480469,-0.1757813 0.796875,-0.5273438 0.796875,-1.0546875 0,-0.7265625 -0.550781,-1.1367188 -1.324218,-1.1367188 -0.527344,0 -0.9375,0.234375 -1.277344,0.5625 l 0.304687,0.3632813 c 0.269532,-0.2578125 0.574219,-0.4453125 0.949219,-0.4453125 0.46875,0 0.761719,0.2695312 0.761719,0.6914062 0,0.46875 -0.316406,0.8320313 -1.253906,0.8320313 v 0.4335937 c 1.054687,0 1.417968,0.3632813 1.417968,0.890625 0,0.4921875 -0.386718,0.8085938 -0.925781,0.8085938 -0.515625,0 -0.867187,-0.2460938 -1.136719,-0.5273438 l -0.292968,0.3867188 c 0.304687,0.328125 0.761718,0.6210937 1.464843,0.6210932 z m 0,0"
         style="fill:#c9d1d9;fill-opacity:1;fill-rule:nonzero;stroke:none" />
      <path
         id="path44"
         d="m 29.722547,-2.2961641 h 2.777344 c 0.140625,0 0.328125,0 0.328125,-0.1992187 0,-0.1992188 -0.1875,-0.1992188 -0.328125,-0.1992188 h -2.777344 v -2.7890625 c 0,-0.1289062 0,-0.328125 -0.199219,-0.328125 -0.199219,0 -0.199219,0.1992188 -0.199219,0.328125 v 2.7890625 h -2.789062 c -0.140625,0 -0.328125,0 -0.328125,0.1992188 0,0.1992187 0.1875,0.1992187 0.328125,0.1992187 h 2.789062 v 2.80078129 c 0,0.12890625 0,0.328125 0.199219,0.328125 0.199219,0 0.199219,-0.19921875 0.199219,-0.328125 z m 0,0"
         style="fill:#c9d1d9;fill-opacity:1;fill-rule:nonzero;stroke:none" />
      <path
         id="path45"
         d="m 37.94032,0.11789844 c 1.101563,0 2.144532,-0.7734375 2.144532,-2.14453124 0,-1.3828125 -0.890625,-1.9921875 -1.96875,-1.9921875 -0.386719,0 -0.679688,0.09375 -0.972657,0.2578125 l 0.164063,-1.875 h 2.460937 v -0.7148438 h -3.1875 l -0.210937,3.0585938 0.445312,0.2695312 c 0.375,-0.2460937 0.644532,-0.375 1.089844,-0.375 0.808594,0 1.335938,0.5039063 1.335938,1.3828125 0,0.890625 -0.609375,1.45312504 -1.382813,1.45312504 -0.75,0 -1.21875,-0.3515625 -1.605469,-0.73828124 l -0.398437,0.55078124 c 0.445312,0.4453125 1.066406,0.8671875 2.085937,0.8671875 z m 0,0"
         style="fill:#c9d1d9;fill-opacity:1;fill-rule:nonzero;stroke:none" />
      <path
         id="path46"
         d="m 40.125867,7.109375e-4 h 0.84375 l 0.9375,-1.1484375375 c 0.246094,-0.3046875 0.480469,-0.5859375 0.679688,-0.8789062 h 0.04687 c 0.117187,0.2929687 0.234375,0.5976562 0.339843,0.890625 l 0.433594,1.1367187375 h 0.796875 l -0.98437,-2.4023437375 1.992188,-2.4375 h -0.832032 l -0.84375,1.078125 c -0.199218,0.2695312 -0.421875,0.5390625 -0.621093,0.8085937 h -0.04687 c -0.09375,-0.28125 -0.175782,-0.5273437 -0.28125,-0.8085937 l -0.410157,-1.078125 h -0.785156 l 0.902344,2.2734375 z m 0,0"
         style="fill:#c9d1d9;fill-opacity:1;fill-rule:nonzero;stroke:none" />
      <path
         id="path47"
         d="m 45.276258,-3.6145234 h 4.03125 v -0.703125 H 47.50282 c -0.339843,0 -0.726562,0.011719 -1.066406,0.046875 1.5,-1.5703125 2.601563,-2.7539063 2.601563,-3.9492188 0,-1.125 -0.714844,-1.8749998 -1.898438,-1.8749998 -0.796875,0 -1.359375,0.3749998 -1.910156,0.9960936 l 0.457031,0.4453125 c 0.363281,-0.421875 0.832031,-0.7617188 1.359375,-0.7617188 0.808594,0 1.183594,0.515625 1.183594,1.2421875 0,1.0195313 -1.066406,2.1679688 -2.953125,4.0664063 z M 10.395398,11.953836 h 4.03125 v -0.703125 h -1.804687 c -0.339844,0 -0.726563,0.01172 -1.066406,0.04687 1.5,-1.5703126 2.601562,-2.7539063 2.601562,-3.9492188 0,-1.125 -0.714844,-1.875 -1.898437,-1.875 -0.796875,0 -1.359375,0.375 -1.910157,0.9960937 l 0.457032,0.4453125 c 0.363281,-0.421875 0.832031,-0.7617187 1.359375,-0.7617187 0.808593,0 1.183593,0.515625 1.183593,1.2421875 0,1.0195312 -1.066406,2.1679687 -2.953125,4.0664058 z m 0,0"
         style="fill:#c9d1d9;fill-opacity:1;fill-rule:nonzero;stroke:none" />
      <path
         id="path48"
         d="m 14.520398,11.953836 h 0.84375 l 0.9375,-1.148438 c 0.246094,-0.304687 0.480469,-0.585937 0.679688,-0.8789058 h 0.04687 c 0.117187,0.2929688 0.234375,0.5976558 0.339844,0.8906248 l 0.433593,1.136719 h 0.796875 l -0.984375,-2.4023438 1.992188,-2.4375 H 18.7743 l -0.84375,1.078125 c -0.199214,0.2695312 -0.42187,0.5390625 -0.621089,0.8085937 h -0.04687 C 17.168841,8.7194609 17.08681,8.4733672 16.981341,8.1921172 L 16.57118,7.1139922 h -0.785157 l 0.902344,2.2734375 z m 0,0"
         style="fill:#c9d1d9;fill-opacity:1;fill-rule:nonzero;stroke:none" />
      <path
         id="path49"
         d="m 20.87782,8.4206328 c 0.820313,0 1.476563,-0.4804687 1.476563,-1.265625 0,-0.6210937 -0.421875,-1.0078125 -0.960938,-1.1367187 v -0.023437 c 0.480469,-0.1757813 0.796875,-0.5273438 0.796875,-1.0546875 0,-0.7265625 -0.550781,-1.1367188 -1.324218,-1.1367188 -0.527344,0 -0.9375,0.234375 -1.277344,0.5625 l 0.304687,0.3632813 c 0.269532,-0.2578125 0.574219,-0.4453125 0.949219,-0.4453125 0.46875,0 0.761719,0.2695312 0.761719,0.6914062 0,0.46875 -0.316406,0.8320313 -1.253906,0.8320313 v 0.4335937 c 1.054687,0 1.417968,0.3632813 1.417968,0.890625 0,0.4921875 -0.386718,0.8085938 -0.925781,0.8085938 -0.515625,0 -0.867187,-0.2460938 -1.136719,-0.5273438 l -0.292968,0.3867188 c 0.304687,0.328125 0.761718,0.6210937 1.464843,0.6210932 z m 0,0"
         style="fill:#c9d1d9;fill-opacity:1;fill-rule:nonzero;stroke:none" />
      <path
         id="path50"
         d="m 31.978406,9.6569609 c 0.175781,0 0.351563,0 0.351563,-0.1992187 0,-0.1992188 -0.175782,-0.1992188 -0.351563,-0.1992188 h -5.390625 c -0.164062,0 -0.339844,0 -0.339844,0.1992188 0,0.1992187 0.175782,0.1992187 0.339844,0.1992187 z m 0,0"
         style="fill:#c9d1d9;fill-opacity:1;fill-rule:nonzero;stroke:none" />
      <path
         id="path51"
         d="m 36.583875,9.5397734 1.488281,-2.15625 c 0.175781,-0.3164062 0.351563,-0.5976562 0.515625,-0.9023437 h 0.03516 c -0.02344,0.3398437 -0.04687,0.890625 -0.04687,1.21875 v 1.8398437 z m 1.992187,2.4140626 H 39.3495 v -1.757813 h 0.867187 V 9.5397734 H 39.3495 v -3.9375 h -0.914063 l -2.71875,4.0546875 v 0.5390621 h 2.859375 z m 0,0"
         style="fill:#c9d1d9;fill-opacity:1;fill-rule:nonzero;stroke:none" />
      <path
         id="path52"
         d="m 40.125867,11.953836 h 0.84375 l 0.9375,-1.148438 c 0.246094,-0.304687 0.480469,-0.585937 0.679688,-0.8789058 h 0.04687 c 0.117187,0.2929688 0.234375,0.5976558 0.339843,0.8906248 l 0.433594,1.136719 h 0.796875 l -0.984375,-2.4023438 1.992188,-2.4375 h -0.832032 l -0.84375,1.078125 C 43.336805,8.4616484 43.114148,8.7311797 42.91493,9.0007109 H 42.86806 C 42.77431,8.7194609 42.692278,8.4733672 42.58681,8.1921172 l -0.410157,-1.078125 h -0.785156 l 0.902344,2.2734375 z m 0,0"
         style="fill:#c9d1d9;fill-opacity:1;fill-rule:nonzero;stroke:none" />
      <path
         id="path53"
         d="M 45.147352,8.3386016 H 47.97157 V 7.8464141 h -1.265625 c -0.234375,0 -0.515625,0.011719 -0.75,0.035156 1.042969,-1.1015625 1.816407,-1.921875 1.816407,-2.765625 0,-0.7851562 -0.492188,-1.3125 -1.324219,-1.3125 -0.550781,0 -0.949219,0.2578125 -1.335938,0.6914063 l 0.328125,0.3164062 c 0.246094,-0.2929687 0.574219,-0.5273437 0.9375,-0.5273437 0.574219,0 0.832032,0.3515625 0.832032,0.8554687 0,0.7265625 -0.738282,1.5234375 -2.0625,2.859375 z m 0,0"
         style="fill:#c9d1d9;fill-opacity:1;fill-rule:nonzero;stroke:none" />
    </g>
    <path
       id="path54"
       d="m 79.567,-70.723 h 51.239"
       style="fill:none;stroke:#c9d1d9;stroke-width:0.3985;stroke-linecap:butt;stroke-linejoin:miter;stroke-miterlimit:10;stroke-dasharray:none;stroke-opacity:1"
       transform="matrix(1.3333333,0,0,-1.3333333,-8.5106667,17.428)" />
    <g
       id="g54"
       aria-label="x&#10;2&#10;−4x&#10;−x&#10;2&#10;+2x"
       transform="matrix(1.3333333,0,0,1.3333333,154.86267,126.60267)">
      <path
         id="path55"
         d="m -0.43313281,-8.28125e-4 h 0.84375 L 1.3481172,-1.1492656 c 0.2460937,-0.3046875 0.4804687,-0.5859375 0.6796875,-0.8789063 h 0.046875 c 0.1171875,0.2929688 0.234375,0.5976563 0.3398437,0.890625 l 0.4335938,1.136718775 h 0.796875 l -0.984375,-2.402343775 1.9921875,-2.4375 H 3.8207734 l -0.84375,1.078125 c -0.1992187,0.2695313 -0.421875,0.5390625 -0.6210937,0.8085938 h -0.046875 c -0.09375,-0.28125 -0.1757813,-0.5273438 -0.28125,-0.8085938 L 1.6176484,-4.8406719 H 0.83249219 l 0.90234371,2.2734375 z m 0,0"
         style="fill:#c9d1d9;fill-opacity:1;fill-rule:nonzero;stroke:none" />
      <path
         id="path56"
         d="M 4.5883516,-3.6160625 H 7.4125703 V -4.10825 h -1.265625 c -0.234375,0 -0.515625,0.011719 -0.75,0.035156 1.0429688,-1.1015625 1.8164063,-1.921875 1.8164063,-2.765625 0,-0.7851562 -0.4921875,-1.3125 -1.3242188,-1.3125 -0.5507812,0 -0.9492187,0.2578125 -1.3359375,0.6914063 l 0.328125,0.3164062 c 0.2460938,-0.2929687 0.5742188,-0.5273437 0.9375,-0.5273437 0.5742188,0 0.8320313,0.3515625 0.8320313,0.8554687 0,0.7265625 -0.7382813,1.5234375 -2.0625,2.859375 z m 0,0"
         style="fill:#c9d1d9;fill-opacity:1;fill-rule:nonzero;stroke:none" />
      <path
         id="path57"
         d="m 17.051242,-2.2977031 c 0.175781,0 0.351563,0 0.351563,-0.1992188 0,-0.1992187 -0.175782,-0.1992187 -0.351563,-0.1992187 h -5.390625 c -0.164062,0 -0.339844,0 -0.339844,0.1992187 0,0.1992188 0.175782,0.1992188 0.339844,0.1992188 z m 0,0"
         style="fill:#c9d1d9;fill-opacity:1;fill-rule:nonzero;stroke:none" />
      <path
         id="path58"
         d="m 21.659641,-2.4148906 1.488281,-2.15625 c 0.175781,-0.3164063 0.351562,-0.5976563 0.515625,-0.9023438 h 0.03516 c -0.02344,0.3398438 -0.04687,0.890625 -0.04687,1.21875 v 1.8398438 z m 1.992187,2.414062475 h 0.773438 V -1.7586406 h 0.867187 v -0.65625 h -0.867187 v -3.9375 h -0.914063 l -2.71875,4.0546875 v 0.5390625 h 2.859375 z m 0,0"
         style="fill:#c9d1d9;fill-opacity:1;fill-rule:nonzero;stroke:none" />
      <path
         id="path59"
         d="m 25.198703,-8.28125e-4 h 0.84375 l 0.9375,-1.148437475 c 0.246094,-0.3046875 0.480469,-0.5859375 0.679688,-0.8789063 h 0.04687 c 0.117187,0.2929688 0.234375,0.5976563 0.339843,0.890625 l 0.433594,1.136718775 h 0.796875 l -0.984375,-2.402343775 1.992188,-2.4375 h -0.832032 l -0.84375,1.078125 c -0.199218,0.2695313 -0.421875,0.5390625 -0.621093,0.8085938 h -0.04687 c -0.09375,-0.28125 -0.175782,-0.5273438 -0.28125,-0.8085938 l -0.410157,-1.078125 h -0.785156 l 0.902344,2.2734375 z m 0,0"
         style="fill:#c9d1d9;fill-opacity:1;fill-rule:nonzero;stroke:none" />
      <path
         id="path60"
         d="m -3.4009063,9.6583516 c 0.1757813,0 0.3515625,0 0.3515625,-0.1992188 0,-0.1992187 -0.1757812,-0.1992187 -0.3515625,-0.1992187 h -5.390625 c -0.1640625,0 -0.3398437,0 -0.3398437,0.1992187 0,0.1992188 0.1757812,0.1992188 0.3398437,0.1992188 z m 0,0"
         style="fill:#c9d1d9;fill-opacity:1;fill-rule:nonzero;stroke:none" />
      <path
         id="path61"
         d="m -0.43313281,11.955227 h 0.84375 L 1.3481172,10.806789 C 1.5942109,10.502102 1.8285859,10.220852 2.0278047,9.9278828 h 0.046875 c 0.1171875,0.2929692 0.234375,0.5976562 0.3398437,0.8906252 l 0.4335938,1.136719 h 0.796875 l -0.984375,-2.4023442 1.9921875,-2.4375 H 3.8207734 l -0.84375,1.078125 C 2.7778047,8.4630391 2.5551484,8.7325703 2.3559297,9.0021016 H 2.3090547 C 2.2153047,8.7208516 2.1332734,8.4747578 2.0278047,8.1935078 L 1.6176484,7.1153828 H 0.83249219 L 1.7348359,9.3888203 Z m 0,0"
         style="fill:#c9d1d9;fill-opacity:1;fill-rule:nonzero;stroke:none" />
      <path
         id="path62"
         d="M 4.5883516,8.3399922 H 7.4125703 V 7.8478047 h -1.265625 c -0.234375,0 -0.515625,0.011719 -0.75,0.035156 1.0429688,-1.1015625 1.8164063,-1.921875 1.8164063,-2.765625 0,-0.7851562 -0.4921875,-1.3125 -1.3242188,-1.3125 -0.5507812,0 -0.9492187,0.2578125 -1.3359375,0.6914063 l 0.328125,0.3164062 c 0.2460938,-0.2929687 0.5742188,-0.5273437 0.9375,-0.5273437 0.5742188,0 0.8320313,0.3515625 0.8320313,0.8554687 0,0.7265625 -0.7382813,1.5234375 -2.0625,2.859375 z m 0,0"
         style="fill:#c9d1d9;fill-opacity:1;fill-rule:nonzero;stroke:none" />
      <path
         id="path63"
         d="m 14.757297,9.6583516 h 2.777344 c 0.140625,0 0.328125,0 0.328125,-0.1992188 0,-0.1992187 -0.1875,-0.1992187 -0.328125,-0.1992187 H 14.757297 V 6.4708516 c 0,-0.1289063 0,-0.328125 -0.199219,-0.328125 -0.199219,0 -0.199219,0.1992187 -0.199219,0.328125 v 2.7890625 h -2.789062 c -0.140625,0 -0.328125,0 -0.328125,0.1992187 0,0.1992188 0.1875,0.1992188 0.328125,0.1992188 h 2.789062 v 2.8007814 c 0,0.128906 0,0.328125 0.199219,0.328125 0.199219,0 0.199219,-0.199219 0.199219,-0.328125 z m 0,0"
         style="fill:#c9d1d9;fill-opacity:1;fill-rule:nonzero;stroke:none" />
      <path
         id="path64"
         d="m 21.073703,11.955227 h 4.03125 v -0.703125 h -1.804687 c -0.339844,0 -0.726563,0.01172 -1.066407,0.04687 1.5,-1.5703129 2.601563,-2.7539067 2.601563,-3.9492192 0,-1.125 -0.714844,-1.875 -1.898438,-1.875 -0.796875,0 -1.359375,0.375 -1.910156,0.9960938 l 0.457031,0.4453125 c 0.363282,-0.421875 0.832032,-0.7617188 1.359375,-0.7617188 0.808594,0 1.183594,0.515625 1.183594,1.2421875 0,1.0195313 -1.066406,2.1679688 -2.953125,4.0664062 z m 0,0"
         style="fill:#c9d1d9;fill-opacity:1;fill-rule:nonzero;stroke:none" />
      <path
         id="path65"
         d="m 25.198703,11.955227 h 0.84375 l 0.9375,-1.148438 c 0.246094,-0.304687 0.480469,-0.585937 0.679688,-0.8789062 h 0.04687 c 0.117187,0.2929692 0.234375,0.5976562 0.339843,0.8906252 l 0.433594,1.136719 h 0.796875 l -0.984375,-2.4023442 1.992188,-2.4375 h -0.832032 l -0.84375,1.078125 c -0.199218,0.2695313 -0.421875,0.5390625 -0.621093,0.8085938 h -0.04687 c -0.09375,-0.28125 -0.175782,-0.5273438 -0.28125,-0.8085938 l -0.410157,-1.078125 h -0.785156 l 0.902344,2.2734375 z m 0,0"
         style="fill:#c9d1d9;fill-opacity:1;fill-rule:nonzero;stroke:none" />
    </g>
    <path
       id="path66"
       d="m 105.173,-97.622 h 47.274"
       style="fill:none;stroke:#c9d1d9;stroke-width:0.3985;stroke-linecap:butt;stroke-linejoin:miter;stroke-miterlimit:10;stroke-dasharray:none;stroke-opacity:1"
       transform="matrix(1.3333333,0,0,-1.3333333,-8.5106667,17.428)" />
    <g
       id="g66"
       aria-label="−2x+4&#10;2x−4"
       transform="matrix(1.3333333,0,0,1.3333333,169.10133,162.468)">
      <path
         id="path67"
         d="m 6.5626719,-2.2963125 c 0.1757812,0 0.3515625,0 0.3515625,-0.1992188 0,-0.1992187 -0.1757813,-0.1992187 -0.3515625,-0.1992187 h -5.390625 c -0.1640625,0 -0.33984377,0 -0.33984377,0.1992187 0,0.1992188 0.17578127,0.1992188 0.33984377,0.1992188 z m 0,0"
         style="fill:#c9d1d9;fill-opacity:1;fill-rule:nonzero;stroke:none" />
      <path
         id="path68"
         d="m 10.394703,5.625e-4 h 4.03125 v -0.703125 h -1.804687 c -0.339844,0 -0.726563,0.0117188 -1.066407,0.046875 1.5,-1.5703125 2.601563,-2.7539063 2.601563,-3.9492188 0,-1.125 -0.714844,-1.875 -1.898438,-1.875 -0.796875,0 -1.359375,0.375 -1.910156,0.9960938 L 10.804859,-5.0385 c 0.363282,-0.421875 0.832032,-0.7617188 1.359375,-0.7617188 0.808594,0 1.183594,0.515625 1.183594,1.2421875 0,1.0195313 -1.066406,2.1679688 -2.953125,4.0664063 z m 0,0"
         style="fill:#c9d1d9;fill-opacity:1;fill-rule:nonzero;stroke:none" />
      <path
         id="path69"
         d="m 14.519703,5.625e-4 h 0.84375 l 0.9375,-1.1484375 c 0.246094,-0.3046875 0.480469,-0.5859375 0.679688,-0.8789063 h 0.04687 c 0.117187,0.2929688 0.234375,0.5976563 0.339843,0.890625 l 0.433594,1.1367188 h 0.796875 l -0.984375,-2.4023438 1.992188,-2.4375 h -0.832032 l -0.84375,1.078125 c -0.199218,0.2695313 -0.421875,0.5390625 -0.621093,0.8085938 h -0.04687 c -0.09375,-0.28125 -0.175782,-0.5273438 -0.28125,-0.8085938 l -0.410157,-1.078125 h -0.785156 l 0.902344,2.2734375 z m 0,0"
         style="fill:#c9d1d9;fill-opacity:1;fill-rule:nonzero;stroke:none" />
      <path
         id="path70"
         d="m 25.529469,-2.2963125 h 2.777344 c 0.140625,0 0.328125,0 0.328125,-0.1992188 0,-0.1992187 -0.1875,-0.1992187 -0.328125,-0.1992187 h -2.777344 v -2.7890625 c 0,-0.1289063 0,-0.328125 -0.199219,-0.328125 -0.199219,0 -0.199219,0.1992187 -0.199219,0.328125 V -2.69475 h -2.789062 c -0.140625,0 -0.328125,0 -0.328125,0.1992187 0,0.1992188 0.1875,0.1992188 0.328125,0.1992188 h 2.789062 v 2.80078125 c 0,0.12890625 0,0.328125 0.199219,0.328125 0.199219,0 0.199219,-0.19921875 0.199219,-0.328125 z m 0,0"
         style="fill:#c9d1d9;fill-opacity:1;fill-rule:nonzero;stroke:none" />
      <path
         id="path71"
         d="m 32.622242,-2.4135 1.488281,-2.15625 c 0.175782,-0.3164063 0.351563,-0.5976563 0.515625,-0.9023438 h 0.03516 c -0.02344,0.3398438 -0.04687,0.890625 -0.04687,1.21875 V -2.4135 Z M 34.61443,5.625e-4 h 0.773437 V -1.75725 h 0.867188 V -2.4135 H 35.387867 V -6.351 h -0.914062 l -2.71875,4.0546875 V -1.75725 H 34.61443 Z M 10.394703,11.956617 h 4.03125 v -0.703125 h -1.804687 c -0.339844,0 -0.726563,0.01172 -1.066407,0.04687 1.5,-1.5703123 2.601563,-2.7539061 2.601563,-3.9492186 0,-1.125 -0.714844,-1.875 -1.898438,-1.875 -0.796875,0 -1.359375,0.375 -1.910156,0.9960938 l 0.457031,0.4453125 c 0.363282,-0.421875 0.832032,-0.7617188 1.359375,-0.7617188 0.808594,0 1.183594,0.515625 1.183594,1.2421875 0,1.0195313 -1.066406,2.1679688 -2.953125,4.0664066 z m 0,0"
         style="fill:#c9d1d9;fill-opacity:1;fill-rule:nonzero;stroke:none" />
      <path
         id="path72"
         d="m 14.519703,11.956617 h 0.84375 l 0.9375,-1.148437 c 0.246094,-0.304688 0.480469,-0.585938 0.679688,-0.8789066 h 0.04687 c 0.117187,0.2929686 0.234375,0.5976566 0.339843,0.8906246 l 0.433594,1.136719 h 0.796875 l -0.984375,-2.4023436 1.992188,-2.4375 h -0.832032 l -0.84375,1.078125 c -0.199218,0.2695313 -0.421875,0.5390625 -0.621093,0.8085938 h -0.04687 c -0.09375,-0.28125 -0.175782,-0.5273438 -0.28125,-0.8085938 l -0.410157,-1.078125 h -0.785156 l 0.902344,2.2734375 z m 0,0"
         style="fill:#c9d1d9;fill-opacity:1;fill-rule:nonzero;stroke:none" />
      <path
         id="path73"
         d="m 28.013844,9.6597422 c 0.175781,0 0.351562,0 0.351562,-0.1992188 0,-0.1992187 -0.175781,-0.1992187 -0.351562,-0.1992187 h -5.390625 c -0.164063,0 -0.339844,0 -0.339844,0.1992187 0,0.1992188 0.175781,0.1992188 0.339844,0.1992188 z m 0,0"
         style="fill:#c9d1d9;fill-opacity:1;fill-rule:nonzero;stroke:none" />
      <path
         id="path74"
         d="m 32.622242,9.5425547 1.488281,-2.15625 c 0.175782,-0.3164063 0.351563,-0.5976563 0.515625,-0.9023438 h 0.03516 c -0.02344,0.3398438 -0.04687,0.890625 -0.04687,1.21875 v 1.8398438 z m 1.992188,2.4140623 h 0.773437 v -1.757812 h 0.867188 V 9.5425547 h -0.867188 v -3.9375 h -0.914062 l -2.71875,4.0546875 v 0.5390628 h 2.859375 z m 0,0"
         style="fill:#c9d1d9;fill-opacity:1;fill-rule:nonzero;stroke:none" />
    </g>
    <path
       id="path75"
       d="m 130.806,-124.521 h 38.998"
       style="fill:none;stroke:#c9d1d9;stroke-width:0.3985;stroke-linecap:butt;stroke-linejoin:miter;stroke-miterlimit:10;stroke-dasharray:none;stroke-opacity:1"
       transform="matrix(1.3333333,0,0,-1.3333333,-8.5106667,17.428)" />
    <path
       id="path76"
       d="m 2.6821641,0.11814062 c 1.3359375,0 2.1328125,-1.21875002 2.1328125,-3.31640622 0,-2.0859375 -0.796875,-3.28125 -2.1328125,-3.28125 -1.3242188,0 -2.13281254,1.1835937 -2.13281254,3.28125 0,2.0976562 0.80859374,3.31640622 2.13281254,3.31640622 z m 0,-0.66796875 c -0.7851563,0 -1.3007813,-0.80859377 -1.3007813,-2.64843747 0,-1.8515625 0.515625,-2.6132813 1.3007813,-2.6132813 0.7851562,0 1.3007812,0.7617188 1.3007812,2.6132813 0,1.8398437 -0.515625,2.64843747 -1.3007812,2.64843747 z m 0,0"
       style="fill:#c9d1d9;fill-opacity:1;fill-rule:nonzero;stroke:none"
       aria-label="0"
       transform="matrix(1.3333333,0,0,1.3333333,210.748,198.33467)" />
  </g>
</svg>
