<svg xmlns="http://www.w3.org/2000/svg" xmlns:xlink="http://www.w3.org/1999/xlink" xmlns:inkscape="http://www.inkscape.org/namespaces/inkscape" version="1.1" width="283.46" height="283.46" viewBox="0 0 283.46 283.46">
<defs>
<path id="font_0_17" d="M.034988405 0H.11299133L.16499329 .26313783H.269989C.43798829 .26313783 .5569916 .33514405 .5569916 .49620057 .5569916 .61024478 .47499085 .65625 .35099793 .65625H.1659851L.034988405 0M.1789856 .32714845 .23098755 .59324648H.33198548C.42799378 .59324648 .47999574 .5612335 .47999574 .48620606 .47999574 .38116456 .4079895 .32714845 .27398683 .32714845H.1789856Z"/>
<path id="font_1_1" d="M.33099366-.2400055C.33099366-.23701477 .33099366-.23500061 .31399537-.21800232 .18899536-.0920105 .15699768 .09700012 .15699768 .25 .15699768 .42399598 .19499207 .59799197 .31799317 .72299197 .33099366 .73498538 .33099366 .7369995 .33099366 .73999026 .33099366 .746994 .32699586 .75 .32099916 .75 .31098939 .75 .22099304 .6819916 .1619873 .5549927 .11099243 .44499208 .09899902 .33399964 .09899902 .25 .09899902 .17199707 .10998535 .050994874 .16499329-.06201172 .22499085-.18501282 .31098939-.25 .32099916-.25 .32699586-.25 .33099366-.24700928 .33099366-.2400055Z"/>
<path id="font_0_51" d="M-.044006349 0H.040985109L.1349945 .11506653C.1599884 .14608765 .18299866 .17410279 .20399475 .203125H.20799256C.21998596 .17410279 .23199463 .14308167 .24198914 .11407471L.28599549 0H.3659973L.2669983 .2411499 .46699525 .48632813H.3829956L.29899598 .37825013C.2789917 .350235 .25698854 .32321168 .23599243 .29719544H.23199463C.22200012 .32521058 .21398926 .3492279 .20399475 .37825013L.1619873 .48632813H.08299255L.17399597 .25816346-.044006349 0Z"/>
<path id="font_2_1216" d="M.16699219 0H.25V.6376953H.18598938C.15098572 .61668398 .10899353 .60069277 .049987794 .590683V.5366821H.16699219V0Z"/>
<path id="font_3_1" d="M.20298767 .0009918213C.20298767 .066986087 .17799378 .10598755 .13899231 .10598755 .10598755 .10598755 .085998538 .08099365 .085998538 .052993776 .085998538 .025985718 .10598755 0 .13899231 0 .15098572 0 .1639862 .0039978029 .17399597 .0129852299 .1769867 .01499939 .17799378 .015991211 .1789856 .015991211 .17999268 .015991211 .18099976 .01499939 .18099976 .0009918213 .18099976-.07316589 .1459961-.13328552 .11299133-.16635132 .101989749-.17736817 .101989749-.17936707 .101989749-.18237305 .101989749-.18936157 .10699463-.19335938 .11199951-.19335938 .12298584-.19335938 .20298767-.116256717 .20298767 .0009918213Z"/>
<path id="font_0_52" d="M-.0010070801-.20898438C.085998538-.20898438 .1459961-.147995 .20498657-.03593445L.4850006 .48632813H.4059906L.2659912 .21517945C.24299622 .17115784 .21899414 .119140628 .19699097 .07511902H.19299317C.18798828 .118133548 .18399048 .17115784 .1769867 .21517945L.13798523 .48632813H.05899048L.14299011-.004928589 .1269989-.03694153C.09298706-.10296631 .04899597-.14399719-.0010070801-.14399719-.015014648-.14399719-.027008057-.14199829-.038009645-.13798523L-.06201172-.19499207C-.045013429-.20498657-.023010254-.20898438-.0010070801-.20898438Z"/>
<path id="font_1_2" d="M.2889862 .25C.2889862 .32798768 .27799989 .44898988 .22299195 .56199648 .16299439 .68499758 .07699585 .75 .066986087 .75 .06098938 .75 .056991579 .74598696 .056991579 .73999026 .056991579 .7369995 .056991579 .73498538 .07598877 .71699526 .17399597 .6179962 .23098755 .45899964 .23098755 .25 .23098755 .07899475 .19400025-.09700012 .069992069-.2230072 .056991579-.23500061 .056991579-.23701477 .056991579-.2400055 .056991579-.2460022 .06098938-.25 .066986087-.25 .07699585-.25 .16699219-.18200684 .22599793-.055007936 .2769928 .054992677 .2889862 .16600037 .2889862 .25Z"/>
<path id="font_0_18" d="M.29100038 .054244996C.18699646 .054244996 .13999939 .13819885 .13999939 .26913453 .13999939 .42304994 .23498535 .5999603 .375 .5999603 .47898866 .5999603 .526001 .5149994 .526001 .3870697 .526001 .2311554 .43099977 .054244996 .29100038 .054244996M.45599366-.16168213C.48399354-.16168213 .5079956-.15768433 .5279999-.14868164L.5139923-.08869934C.49798585-.093688968 .48298646-.09667969 .46398927-.09667969 .3939972-.09667969 .33299256-.06871033 .30999757-.0107421879 .48599244 .0052490236 .60598757 .20117188 .60598757 .3940735 .60598757 .5589752 .526001 .66796877 .3789978 .66796877 .19099427 .66796877 .05999756 .46302796 .05999756 .26313783 .05999756 .12020874 .11898804 .019256592 .22999573-.0057525637 .2630005-.11268616 .34799195-.16168213 .45599366-.16168213Z"/>
<path id="font_2_1217" d="M.042999269 0H.44799806V.070999149H.2669983C.23298645 .070999149 .19400025 .068984989 .1599884 .06599426 .30999757 .22410584 .42099 .3421936 .42099 .46229554 .42099 .5753784 .34899903 .6503906 .23098755 .6503906 .15098572 .6503906 .09399414 .61338809 .038986207 .5513611L.084991458 .50631716C.12098694 .5483551 .16799927 .5823822 .22099304 .5823822 .3019867 .5823822 .33999635 .53134158 .33999635 .45828248 .33999635 .35520936 .23298645 .24012757 .042999269 .04899597V0Z"/>
<path id="font_2_45" d="M.08198547 0H.16499329V.31202699C.19799805 .3940277 .24699402 .42303468 .28799439 .42303468 .30699159 .42303468 .31799317 .42103578 .33198548 .41703797L.34999085 .48828126C.33499146 .4950409 .31999208 .49804688 .2979889 .49804688 .24398804 .49804688 .19400025 .4590454 .1599884 .39804078H.15699768L.1499939 .48632813H.08198547V0Z"/>
<path id="font_2_48" d="M.22399903-.01171875C.29100038-.01171875 .33898927 .023269654 .38398744 .07627869H.3869934L.3939972 0H.46199037V.48632813H.3789978V.14228821C.33399964 .08528137 .29899598 .060272218 .25 .060272218 .18598938 .060272218 .1579895 .09927368 .1579895 .18928528V.48632813H.07499695V.17828369C.07499695 .054275514 .12098694-.01171875 .22399903-.01171875Z"/>
<path id="font_2_41" d="M.08198547 0H.16499329V.35203553C.21299744 .4010315 .24798584 .42604066 .29699708 .42604066 .36099244 .42604066 .3889923 .388031 .3889923 .2970276V0H.47200013V.30802918C.47200013 .43203736 .42599488 .49804688 .32299806 .49804688 .2559967 .49804688 .20599365 .46203614 .1599884 .41603089H.15699768L.1499939 .48632813H.08198547V0Z"/>
<path id="font_4_1" d="M.6589966 .23046875C.6759949 .23046875 .69400027 .23046875 .69400027 .25045777 .69400027 .27046205 .6759949 .27046205 .6589966 .27046205H.117996219C.100997928 .27046205 .08299255 .27046205 .08299255 .25045777 .08299255 .23046875 .100997928 .23046875 .117996219 .23046875H.6589966Z"/>
<path id="font_2_36" d="M.08198547 0H.16499329V.48632813H.08198547V0M.12399292 .5863342C.1559906 .5863342 .1789856 .6073303 .1789856 .6403351 .1789856 .67233279 .1559906 .69433596 .12399292 .69433596 .09199524 .69433596 .068984989 .67233279 .068984989 .6403351 .068984989 .6073303 .09199524 .5863342 .12399292 .5863342Z"/>
<path id="font_2_46" d="M.20899964-.01171875C.32398988-.01171875 .3869934 .054275514 .3869934 .13322449 .3869934 .22117615 .31399537 .2541504 .23799134 .28112794 .1769867 .30212403 .1349945 .32011415 .1349945 .36408998 .1349945 .40005494 .1619873 .43403626 .22399903 .43403626 .2669983 .43403626 .3019867 .42004396 .33599855 .3950653L.37399293 .44303895C.33599855 .47503663 .28399659 .49804688 .22299195 .49804688 .116989139 .49804688 .054992677 .43803407 .054992677 .36009217 .054992677 .2801361 .125 .24516297 .19799805 .21917725 .25299073 .19918823 .30699159 .17819214 .30699159 .12823487 .30699159 .086257938 .27598573 .053268434 .21199036 .053268434 .1519928 .053268434 .10798645 .071258548 .06599426 .10624695L.027999878 .058273317C.07299805 .014266968 .13798523-.01171875 .20899964-.01171875Z"/>
<path id="font_2_32" d="M.27799989-.01171875C.34498597-.01171875 .39698792 .008270264 .43899537 .038269044L.4099884 .09124756C.37599183 .06826782 .33499146 .055267335 .28799439 .055267335 .19599915 .055267335 .1349945 .12123108 .12799073 .22114563H.45498658C.45799256 .2371521 .45899964 .2521515 .45899964 .2701416 .45899964 .41004945 .3880005 .49804688 .2639923 .49804688 .15299988 .49804688 .04598999 .401062 .04598999 .2431488 .04598999 .08226013 .147995-.01171875 .27799989-.01171875M.12799073 .28515626C.13798523 .37808229 .19799805 .43203736 .2659912 .43203736 .33999635 .43203736 .3849945 .381073 .3849945 .28515626H.12799073Z"/>
</defs>
<path transform="matrix(1,0,0,-1,85.039,198.42099)" stroke-width=".79701" stroke-linecap="butt" stroke-miterlimit="10" stroke-linejoin="miter" fill="none" stroke="#c9d1d9" d="M-56.69362 0H169.28385"/>
<path transform="matrix(1,0,0,-1,254.72135,198.42099)" stroke-width=".79701" stroke-linecap="round" stroke-linejoin="round" fill="none" stroke="#c9d1d9" d="M-2.55046 3.11095C-2.0845 1.24435-1.04614 .36295 0 0-1.04614-.36295-2.0845-1.24435-2.55046-3.11095"/>
<path transform="matrix(1,0,0,-1,85.039,198.42099)" stroke-width=".79701" stroke-linecap="butt" stroke-miterlimit="10" stroke-linejoin="miter" fill="none" stroke="#c9d1d9" d="M0-56.69362V169.28385"/>
<path transform="matrix(0,-1,-1,-0,85.039,28.738648)" stroke-width=".79701" stroke-linecap="round" stroke-linejoin="round" fill="none" stroke="#c9d1d9" d="M-2.55046 3.11095C-2.0845 1.24435-1.04614 .36295 0 0-1.04614-.36295-2.0845-1.24435-2.55046-3.11095"/>
<use data-text="P" xlink:href="#font_0_17" transform="matrix(9.9626,0,0,-9.9626,105.632,192.40999)" fill="#c9d1d9"/>
<use data-text="(" xlink:href="#font_1_1" transform="matrix(9.9626,0,0,-9.9626,111.122,192.40999)" fill="#c9d1d9"/>
<use data-text="x" xlink:href="#font_0_51" transform="matrix(9.9626,0,0,-9.9626,114.996,192.40999)" fill="#c9d1d9"/>
<use data-text="1" xlink:href="#font_2_1216" transform="matrix(6.9738,0,0,-6.9738,119.28,193.90399)" fill="#c9d1d9"/>
<use data-text="," xlink:href="#font_3_1" transform="matrix(9.9626,0,0,-9.9626,122.358,192.40999)" fill="#c9d1d9"/>
<use data-text="y" xlink:href="#font_0_52" transform="matrix(9.9626,0,0,-9.9626,126.786,192.40999)" fill="#c9d1d9"/>
<use data-text="1" xlink:href="#font_2_1216" transform="matrix(6.9738,0,0,-6.9738,131.26001,193.90399)" fill="#c9d1d9"/>
<use data-text=")" xlink:href="#font_1_2" transform="matrix(9.9626,0,0,-9.9626,134.338,192.40999)" fill="#c9d1d9"/>
<path transform="matrix(1,0,0,-1,85.039,198.42099)" d="M59.11456 0C59.11456 1.33705 58.03067 2.42094 56.69362 2.42094 55.35655 2.42094 54.27266 1.33705 54.27266 0 54.27266-1.33705 55.35655-2.42094 56.69362-2.42094 58.03067-2.42094 59.11456-1.33705 59.11456 0ZM56.69362 0" fill="#c9d1d9"/>
<path transform="matrix(1,0,0,-1,85.039,198.42099)" stroke-width=".3985" stroke-linecap="butt" stroke-miterlimit="10" stroke-linejoin="miter" fill="none" stroke="#c9d1d9" d="M59.11456 0C59.11456 1.33705 58.03067 2.42094 56.69362 2.42094 55.35655 2.42094 54.27266 1.33705 54.27266 0 54.27266-1.33705 55.35655-2.42094 56.69362-2.42094 58.03067-2.42094 59.11456-1.33705 59.11456 0ZM56.69362 0"/>
<use data-text="Q" xlink:href="#font_0_18" transform="matrix(9.9626,0,0,-9.9626,159.672,107.36999)" fill="#c9d1d9"/>
<use data-text="(" xlink:href="#font_1_1" transform="matrix(9.9626,0,0,-9.9626,165.989,107.36999)" fill="#c9d1d9"/>
<use data-text="x" xlink:href="#font_0_51" transform="matrix(9.9626,0,0,-9.9626,169.86299,107.36999)" fill="#c9d1d9"/>
<use data-text="2" xlink:href="#font_2_1217" transform="matrix(6.9738,0,0,-6.9738,174.147,108.86399)" fill="#c9d1d9"/>
<use data-text="," xlink:href="#font_3_1" transform="matrix(9.9626,0,0,-9.9626,178.13899,107.36999)" fill="#c9d1d9"/>
<use data-text="y" xlink:href="#font_0_52" transform="matrix(9.9626,0,0,-9.9626,182.567,107.36999)" fill="#c9d1d9"/>
<use data-text="2" xlink:href="#font_2_1217" transform="matrix(6.9738,0,0,-6.9738,187.04,108.86399)" fill="#c9d1d9"/>
<use data-text=")" xlink:href="#font_1_2" transform="matrix(9.9626,0,0,-9.9626,191.032,107.36999)" fill="#c9d1d9"/>
<path transform="matrix(1,0,0,-1,85.039,198.42099)" d="M115.80818 85.04042C115.80818 86.37749 114.72429 87.46136 113.38724 87.46136 112.05017 87.46136 110.9663 86.37749 110.9663 85.04042 110.9663 83.70337 112.05017 82.61948 113.38724 82.61948 114.72429 82.61948 115.80818 83.70337 115.80818 85.04042ZM113.38724 85.04042" fill="#c9d1d9"/>
<path transform="matrix(1,0,0,-1,85.039,198.42099)" stroke-width=".3985" stroke-linecap="butt" stroke-miterlimit="10" stroke-linejoin="miter" fill="none" stroke="#c9d1d9" d="M115.80818 85.04042C115.80818 86.37749 114.72429 87.46136 113.38724 87.46136 112.05017 87.46136 110.9663 86.37749 110.9663 85.04042 110.9663 83.70337 112.05017 82.61948 113.38724 82.61948 114.72429 82.61948 115.80818 83.70337 115.80818 85.04042ZM113.38724 85.04042"/>
<path transform="matrix(1,0,0,-1,85.039,198.42099)" stroke-width=".99628" stroke-linecap="butt" stroke-miterlimit="10" stroke-linejoin="miter" fill="none" stroke="#c9d1d9" d="M28.89941-41.69128 141.18143 126.7317"/>
<path transform="matrix(-.55467,.83202,.83202,.55467,113.6621,240.52674)" stroke-width=".99628" stroke-linecap="round" stroke-linejoin="round" fill="none" stroke="#c9d1d9" d="M-2.78957 3.47087C-2.27992 1.38832-1.14423 .40492 0 0-1.14423-.40492-2.27992-1.38832-2.78957-3.47087"/>
<path transform="matrix(.55467,-.83202,-.83202,-.55467,226.49675,71.27481)" stroke-width=".99628" stroke-linecap="round" stroke-linejoin="round" fill="none" stroke="#c9d1d9" d="M-2.78957 3.47087C-2.27992 1.38832-1.14423 .40492 0 0-1.14423-.40492-2.27992-1.38832-2.78957-3.47087"/>
<path transform="matrix(1,0,0,-1,85.039,198.42099)" stroke-width="2.98883" stroke-linecap="butt" stroke-miterlimit="10" stroke-linejoin="miter" fill="none" stroke="#884ef4" d="M56.69362 0H110.39839"/>
<path transform="matrix(1,0,0,-1,191.65155,198.42099)" stroke-width="2.39107" stroke-linecap="round" stroke-linejoin="round" fill="none" stroke="#884ef4" d="M0 6.47063C.37192 4.04413 4.4633 .40439 5.57913 0 4.4633-.40439 .37192-4.04413 0-6.47063"/>
<use data-text="r" xlink:href="#font_2_45" transform="matrix(9.9626,0,0,-9.9626,162.911,212.85999)" fill="#884ef4"/>
<use data-text="u" xlink:href="#font_2_48" transform="matrix(9.9626,0,0,-9.9626,166.37799,212.85999)" fill="#884ef4"/>
<use data-text="n" xlink:href="#font_2_41" transform="matrix(9.9626,0,0,-9.9626,171.79764,212.85999)" fill="#884ef4"/>
<use data-text="x" xlink:href="#font_0_51" transform="matrix(9.9626,0,0,-9.9626,156.172,226.60799)" fill="#884ef4"/>
<use data-text="2" xlink:href="#font_2_1217" transform="matrix(6.9738,0,0,-6.9738,160.456,228.10298)" fill="#884ef4"/>
<use data-text="&#x2212;" xlink:href="#font_4_1" transform="matrix(9.9626,0,0,-9.9626,166.662,226.60799)" fill="#884ef4"/>
<use data-text="x" xlink:href="#font_0_51" transform="matrix(9.9626,0,0,-9.9626,176.624,226.60799)" fill="#884ef4"/>
<use data-text="1" xlink:href="#font_2_1216" transform="matrix(6.9738,0,0,-6.9738,180.908,228.10298)" fill="#884ef4"/>
<path transform="matrix(1,0,0,-1,85.039,198.42099)" stroke-width="2.98883" stroke-linecap="butt" stroke-miterlimit="10" stroke-linejoin="miter" fill="none" stroke="#245fcd" d="M113.38724 0V82.05157"/>
<path transform="matrix(0,-1,-1,-0,198.42624,120.15524)" stroke-width="2.39107" stroke-linecap="round" stroke-linejoin="round" fill="none" stroke="#245fcd" d="M0 6.47063C.37192 4.04413 4.4633 .40439 5.57913 0 4.4633-.40439 .37192-4.04413 0-6.47063"/>
<use data-text="r" xlink:href="#font_2_45" transform="matrix(9.9626,0,0,-9.9626,215.79399,151.77599)" fill="#245fcd"/>
<use data-text="i" xlink:href="#font_2_36" transform="matrix(9.9626,0,0,-9.9626,219.26099,151.77599)" fill="#245fcd"/>
<use data-text="s" xlink:href="#font_2_46" transform="matrix(9.9626,0,0,-9.9626,221.72174,151.77599)" fill="#245fcd"/>
<use data-text="e" xlink:href="#font_2_32" transform="matrix(9.9626,0,0,-9.9626,225.89608,151.77599)" fill="#245fcd"/>
<use data-text="y" xlink:href="#font_0_52" transform="matrix(9.9626,0,0,-9.9626,209.219,165.52399)" fill="#245fcd"/>
<use data-text="2" xlink:href="#font_2_1217" transform="matrix(6.9738,0,0,-6.9738,213.69199,167.01898)" fill="#245fcd"/>
<use data-text="&#x2212;" xlink:href="#font_4_1" transform="matrix(9.9626,0,0,-9.9626,219.898,165.52399)" fill="#245fcd"/>
<use data-text="y" xlink:href="#font_0_52" transform="matrix(9.9626,0,0,-9.9626,229.861,165.52399)" fill="#245fcd"/>
<use data-text="1" xlink:href="#font_2_1216" transform="matrix(6.9738,0,0,-6.9738,234.33399,167.01898)" fill="#245fcd"/>
</svg>
