<?xml version="1.0" encoding="UTF-8" standalone="no"?>
<!-- Created with Inkscape (http://www.inkscape.org/) -->

<svg
   version="1.1"
   id="svg1"
   width="340.16"
   height="340.16"
   viewBox="0 0 340.16 340.16"
   sodipodi:docname="MATH_118-58.pdf"
   xmlns:inkscape="http://www.inkscape.org/namespaces/inkscape"
   xmlns:sodipodi="http://sodipodi.sourceforge.net/DTD/sodipodi-0.dtd"
   xmlns="http://www.w3.org/2000/svg"
   xmlns:svg="http://www.w3.org/2000/svg">
  <defs
     id="defs1" />
  <sodipodi:namedview
     id="namedview1"
     pagecolor="#ffffff"
     bordercolor="#000000"
     borderopacity="0.25"
     inkscape:showpageshadow="2"
     inkscape:pageopacity="0.0"
     inkscape:pagecheckerboard="0"
     inkscape:deskcolor="#d1d1d1">
    <inkscape:page
       x="0"
       y="0"
       inkscape:label="1"
       id="page1"
       width="340.16"
       height="340.16"
       margin="0"
       bleed="0" />
  </sodipodi:namedview>
  <g
     id="g1"
     inkscape:groupmode="layer"
     inkscape:label="1">
    <path
       id="path1"
       d="M -113.38724,0 H 112.8891"
       style="fill:none;stroke:#c9d1d9;stroke-width:0.49814;stroke-linecap:butt;stroke-linejoin:miter;stroke-miterlimit:10;stroke-dasharray:none;stroke-opacity:1"
       transform="matrix(1.3333333,0,0,-1.3333333,170.07867,170.08133)" />
    <path
       id="path2"
       d="M -2.1918,2.57101 C -1.79137,1.02838 -0.89903,0.29994 0,0 -0.89903,-0.29994 -1.79137,-1.02838 -2.1918,-2.57101"
       style="fill:none;stroke:#c9d1d9;stroke-width:0.49814;stroke-linecap:round;stroke-linejoin:round;stroke-miterlimit:10;stroke-dasharray:none;stroke-opacity:1"
       transform="matrix(1.3333333,0,0,-1.3333333,320.92956,170.08133)" />
    <path
       id="path3"
       d="M 0,-113.38724 V 112.8891"
       style="fill:none;stroke:#c9d1d9;stroke-width:0.49814;stroke-linecap:butt;stroke-linejoin:miter;stroke-miterlimit:10;stroke-dasharray:none;stroke-opacity:1"
       transform="matrix(1.3333333,0,0,-1.3333333,170.07867,170.08133)" />
    <path
       id="path4"
       d="M -2.1918,2.57101 C -1.79137,1.02838 -0.89903,0.29994 0,0 -0.89903,-0.29994 -1.79137,-1.02838 -2.1918,-2.57101"
       style="fill:none;stroke:#c9d1d9;stroke-width:0.49814;stroke-linecap:round;stroke-linejoin:round;stroke-miterlimit:10;stroke-dasharray:none;stroke-opacity:1"
       transform="matrix(0,-1.3333333,-1.3333333,0,170.07867,19.23044)" />
    <path
       id="path5"
       d="m -56.44604,112.42226 c 3.16566,-12.33766 3.16566,-12.33766 4.4766,-17.14453 1.31094,-4.80687 3.41324,-12.16523 4.72419,-16.53507 1.31094,-4.36983 3.41323,-11.02687 4.72418,-14.95976 1.31094,-3.93288 3.41324,-9.88977 4.72418,-13.38574 1.31094,-3.49599 3.41324,-8.75194 4.72418,-11.8109 1.31095,-3.05896 3.41324,-7.61396 4.72418,-10.23601 1.31095,-2.62205 3.41326,-6.47691 4.72419,-8.662 1.31092,-2.18511 3.41324,-5.33863 4.72416,-7.0867 1.31093,-1.74808 3.41324,-4.2011 4.72418,-5.51227 1.31095,-1.31118 3.41324,-3.06354 4.72419,-3.93782 1.31094,-0.87428 3.41324,-1.92615 4.72418,-2.3634 C -3.41669,0.35081 -1.31438,2.7e-4 -0.00345,0 1.30746,-2.7e-4 3.40977,0.34932 4.7207,0.7859 c 1.31093,0.43659 3.41326,1.48719 4.72419,2.3608 1.31092,0.87361 3.41323,2.62515 4.72416,3.93567 1.31093,1.31051 3.41324,3.76219 4.72418,5.50967 1.31095,1.74748 3.41324,4.90047 4.72419,7.08496 1.31094,2.1845 3.41323,6.03803 4.72418,8.65943 1.31094,2.62139 3.41324,7.17553 4.72418,10.23384 1.31094,3.0583 3.41324,8.31295 4.72418,11.80827 1.31094,3.49532 3.41324,9.45131 4.72418,13.38359 1.31095,3.93228 3.41326,10.58843 4.72419,14.95761 1.31093,4.36919 3.41324,11.72626 4.72417,16.53246 1.31092,4.8062 4.72418,18.10734 4.47659,17.14239"
       style="fill:none;stroke:#b39af0;stroke-width:0.99628;stroke-linecap:butt;stroke-linejoin:miter;stroke-miterlimit:10;stroke-dasharray:none;stroke-opacity:1"
       transform="matrix(1.3333333,0,0,-1.3333333,170.07867,170.08133)" />
    <path
       id="path6"
       d="M -2.78957,3.47087 C -2.27992,1.38832 -1.14423,0.40492 0,0 -1.14423,-0.40492 -2.27992,-1.38832 -2.78957,-3.47087"
       style="fill:none;stroke:#b39af0;stroke-width:0.99628;stroke-linecap:round;stroke-linejoin:round;stroke-miterlimit:10;stroke-dasharray:none;stroke-opacity:1"
       transform="matrix(-0.33132,-1.29144,-1.29144,0.33132,94.65224,19.541667)" />
    <path
       id="path7"
       d="M -2.78957,3.47087 C -2.27992,1.38832 -1.14423,0.40492 0,0 -1.14423,-0.40492 -2.27992,-1.38832 -2.78957,-3.47087"
       style="fill:none;stroke:#b39af0;stroke-width:0.99628;stroke-linecap:round;stroke-linejoin:round;stroke-miterlimit:10;stroke-dasharray:none;stroke-opacity:1"
       transform="matrix(0.33136,-1.2914267,-1.2914267,-0.33136,245.49587,19.57856)" />
  </g>
</svg>
