<?xml version="1.0" encoding="UTF-8" standalone="no"?>
<!-- Created with Inkscape (http://www.inkscape.org/) -->

<svg
   version="1.1"
   id="svg1"
   width="188.97333"
   height="188.97333"
   viewBox="0 0 188.97333 188.97333"
   sodipodi:docname="MATH_118-97.pdf"
   xmlns:inkscape="http://www.inkscape.org/namespaces/inkscape"
   xmlns:sodipodi="http://sodipodi.sourceforge.net/DTD/sodipodi-0.dtd"
   xmlns="http://www.w3.org/2000/svg"
   xmlns:svg="http://www.w3.org/2000/svg">
  <defs
     id="defs1" />
  <sodipodi:namedview
     id="namedview1"
     pagecolor="#ffffff"
     bordercolor="#000000"
     borderopacity="0.25"
     inkscape:showpageshadow="2"
     inkscape:pageopacity="0.0"
     inkscape:pagecheckerboard="0"
     inkscape:deskcolor="#d1d1d1">
    <inkscape:page
       x="0"
       y="0"
       inkscape:label="1"
       id="page1"
       width="188.97333"
       height="188.97333"
       margin="0"
       bleed="0" />
  </sodipodi:namedview>
  <g
     id="g1"
     inkscape:groupmode="layer"
     inkscape:label="1">
    <path
       id="path1"
       d="M -28.3468,0 H 84.79135"
       style="fill:none;stroke:#c9d1d9;stroke-width:0.24907;stroke-linecap:butt;stroke-linejoin:miter;stroke-miterlimit:10;stroke-dasharray:none;stroke-opacity:1"
       transform="matrix(1.3333333,0,0,-1.3333333,56.693333,94.485333)" />
    <path
       id="path2"
       d="M -1.89291,2.12108 C -1.54709,0.84842 -0.77643,0.24745 0,0 -0.77643,-0.24745 -1.54709,-0.84842 -1.89291,-2.12108"
       style="fill:none;stroke:#c9d1d9;stroke-width:0.24907;stroke-linecap:round;stroke-linejoin:round;stroke-miterlimit:10;stroke-dasharray:none;stroke-opacity:1"
       transform="matrix(1.3333333,0,0,-1.3333333,169.91453,94.485333)" />
    <path
       id="path3"
       d="M 0,-56.69362 V 56.44455"
       style="fill:none;stroke:#c9d1d9;stroke-width:0.24907;stroke-linecap:butt;stroke-linejoin:miter;stroke-miterlimit:10;stroke-dasharray:none;stroke-opacity:1"
       transform="matrix(1.3333333,0,0,-1.3333333,56.693333,94.485333)" />
    <path
       id="path4"
       d="M -1.89291,2.12108 C -1.54709,0.84842 -0.77643,0.24745 0,0 -0.77643,-0.24745 -1.54709,-0.84842 -1.89291,-2.12108"
       style="fill:none;stroke:#c9d1d9;stroke-width:0.24907;stroke-linecap:round;stroke-linejoin:round;stroke-miterlimit:10;stroke-dasharray:none;stroke-opacity:1"
       transform="matrix(0,-1.3333333,-1.3333333,0,56.693333,19.059893)" />
    <path
       id="path5"
       d="m 14.17339,28.3468 0.11334,-0.5623 0.11331,-0.55367 0.11333,-0.54411 0.11331,-0.53592 0.11332,-0.52684 0.11335,-0.5186 0.11331,-0.50996 0.11333,-0.50131 0.11332,-0.49396 0.11333,-0.48533 0.11333,-0.47707 0.11331,-0.46975 0.11332,-0.46108 0.11335,-0.45417 0.11331,-0.44593 0.11333,-0.4386 0.11332,-0.43168 0.11333,-0.42387 0.11333,-0.41653 0.11331,-0.41007 0.11332,-0.40225 0.11335,-0.39577 0.11331,-0.38756 0.11333,-0.38237 0.11331,-0.37544 0.11334,-0.36809 0.11333,-0.36245 0.11331,-0.35512 0.11333,-0.34992 0.11334,-0.34257 0.11331,-0.33696 0.11333,-0.33046 0.11331,-0.32526 0.11334,-0.31878 0.11333,-0.31231 0.11331,-0.30751 0.11333,-0.30149 0.11334,-0.29586 0.11331,-0.29022 0.11333,-0.28548 0.11331,-0.27943 0.11334,-0.27379 0.11333,-0.26947 0.11331,-0.26385 0.11333,-0.25823 0.11333,-0.25391 0.11332,-0.24913 L 19.61299,9.76842 19.7263,9.5288 19.83965,9.29436 19.95297,9.06468 20.06628,8.83934 20.17961,8.6183 20.29294,8.40204 20.40627,8.1901 20.51959,7.98204 20.6329,7.77917 20.74623,7.57935 20.85957,7.38428 20.97289,7.1931 21.08621,7.00581 21.19952,6.82242 21.31287,6.64333 21.4262,6.46771 21.5395,6.29558 21.65283,6.12776 21.76616,5.96295 21.87949,5.80162 21.99281,5.64417 22.10612,5.49019 22.21947,5.33968 22.3328,5.19217 22.4461,5.04813 22.55943,4.90714 22.67276,4.76913 22.78609,4.63463 22.89941,4.50314 23.01273,4.37468 23.12607,4.24881 23.2394,4.1264 23.3527,4.00615 23.46603,3.88937 23.57936,3.77475 23.69269,3.66357 23.80602,3.55458 23.91933,3.44818 24.03267,3.34436 24.14598,3.24315 24.25931,3.14409 24.37263,3.04808 24.48596,2.95378 24.59929,2.86209 24.71262,2.77298 24.82593,2.68605 24.93927,2.60085 25.05258,2.51822 25.16591,2.43776 25.27924,2.35861 25.39256,2.28249 25.50589,2.20766 25.6192,2.13544 25.73253,2.06448 25.84587,1.99615 25.95918,1.92911 26.07251,1.86378 26.18584,1.80064 26.29916,1.7388 26.41249,1.6791 26.5258,1.62071 26.63913,1.56404 26.75247,1.50911 26.86578,1.45547 26.97911,1.40358 27.09244,1.35297 27.20575,1.3041 27.31909,1.25652 27.4324,1.21066 27.54573,1.16568 27.65906,1.12242 27.77238,1.08003 27.88571,1.03937 27.99902,0.99959 28.11235,0.96107 28.2257,0.92389 28.339,0.88799 28.45233,0.85295 28.56566,0.81921 28.67899,0.78635 28.79231,0.75478 28.90562,0.72404 29.01895,0.69464 29.1323,0.66565 29.2456,0.63797 29.35893,0.61116 29.47226,0.5852 29.58559,0.56012 29.69891,0.53633 29.81223,0.51297 29.92555,0.49048 30.0389,0.46886 30.1522,0.44766 30.26553,0.42776 30.37885,0.40831 30.49219,0.3897 30.60551,0.37154 30.71883,0.35423 30.83215,0.33737 30.9455,0.32137 31.0588,0.3058 31.17213,0.29108 31.28545,0.27681 31.39879,0.26297 31.51212,0.24998 31.62543,0.23744 31.73875,0.22533 31.8521,0.21365 31.96541,0.20241 32.07874,0.19203 32.19205,0.18166 32.30539,0.17213 32.41872,0.16263 32.53203,0.15353 32.64536,0.14532 32.75868,0.1371 32.87201,0.12932 32.98534,0.12154 33.09865,0.1146 33.21198,0.10768 33.32532,0.10164 33.43863,0.09558 33.55196,0.08952 33.66527,0.0839 33.77861,0.0787 33.89194,0.07394 34.00525,0.0692 34.11858,0.06444 34.23192,0.0601 34.34523,0.05621 34.45856,0.05232 34.57187,0.04887 34.68521,0.0454 34.79854,0.04237 34.91185,0.03935 35.02518,0.03633 35.1385,0.03372 l 0.11333,-0.00259 0.11333,-0.0026 0.11331,-0.00216 0.11334,-0.00215 0.11333,-0.00174 0.11331,-0.00174 0.11333,-0.00173 0.11332,-0.00172 0.11333,-0.0013 0.11333,-0.00174 0.11331,-0.0013 0.11334,-8.5e-4 0.11333,-0.0013 0.11331,-8.7e-4 0.11333,-8.7e-4 0.11332,-8.6e-4 0.11333,-8.6e-4 0.11333,-8.7e-4 0.11331,-8.7e-4 0.11334,-4.3e-4 0.11332,-4.4e-4 0.11332,-8.4e-4 0.11333,-4.4e-4 0.11332,-4.3e-4 0.11333,-4.4e-4 h 0.11333 l 0.11331,-4.3e-4 0.11334,-4.4e-4 h 0.11332 l 0.11332,-4.3e-4 h 0.11333 l 0.11333,-4.4e-4 h 0.11332 l 0.11333,-4.3e-4 h 0.11331 0.11333 0.11333 L 39.44485,0 h 0.11333 0.11332 0.11334 0.11331 0.11332 0.11333 0.11333 0.11333 0.11332 0.11332 0.11334 0.11331 0.11333 0.11332 0.11333 0.11333 0.11332 0.11332 0.11334 0.11331 0.11333 0.11332 0.11333 0.11333 0.11331 0.11333 0.11334 0.11331 0.11333 0.11332 0.11333 0.11333 0.11331 0.11333 0.11334 0.11331 0.11333 0.11332 0.11333 0.11333 0.11331 0.11333 0.11334 0.11331 0.11333 0.11331 0.11334 0.11333 0.11331 0.11333 0.11333 0.11332 0.11333 0.11331 l 0.11333,-4.1e-4 h 0.11334 0.11331 0.11333 l 0.11333,-4.3e-4 h 0.11332 0.11333 l 0.11332,-4.4e-4 h 0.11332 l 0.11334,-4.3e-4 0.11331,-4.4e-4 h 0.11333 l 0.11331,-4.3e-4 0.11335,-4.4e-4 0.11332,-4.3e-4 0.11332,-4.4e-4 0.11332,-4.1e-4 0.11334,-8.7e-4 0.11332,-4.3e-4 0.11332,-4.4e-4 0.11331,-8.7e-4 0.11335,-8.7e-4 0.11332,-8.6e-4 0.11332,-8.5e-4 0.11332,-0.00131 0.11333,-8.7e-4 0.11333,-0.00128 0.11332,-0.0013 0.11331,-0.00131 0.11335,-0.00129 0.11332,-0.00174 0.11332,-0.00173 0.11332,-0.00173 0.11333,-0.00172 0.11333,-0.00217 0.11332,-0.00216 0.11332,-0.00216 0.11334,-0.00259 0.11333,-0.00261 0.11331,-0.00302 0.11332,-0.00302 0.11333,-0.00304 0.11333,-0.00346 0.11332,-0.00345 0.11332,-0.00389 0.11334,-0.00391 0.11331,-0.00432 0.11333,-0.00433 0.11332,-0.00476 0.11333,-0.00476 0.11333,-0.00518 0.11332,-0.00518 0.11332,-0.00608 0.11332,-0.00604 0.11333,-0.00606 0.11333,-0.00692 0.11333,-0.00692 0.11331,-0.00735 0.11334,-0.00778 0.11332,-0.0078 0.11332,-0.00864 0.11333,-0.00865 0.11332,-0.00909 0.11333,-0.00995 0.11333,-0.00994 0.11331,-0.01039 0.11334,-0.01124 0.11332,-0.01125 0.11332,-0.0121 0.11333,-0.01256 0.11332,-0.01296 0.11333,-0.01342 0.11333,-0.01427 0.11331,-0.01472 0.11334,-0.01512 0.11332,-0.01601 0.11332,-0.01643 0.11333,-0.01731 0.11332,-0.01772 0.11333,-0.0186 0.11333,-0.01903 0.11331,-0.02034 0.11334,-0.02033 0.11332,-0.02164 0.11332,-0.02204 0.11333,-0.02337 0.11333,-0.02378 0.11332,-0.02467 0.11331,-0.02552 0.11333,-0.02681 0.11334,-0.02724 0.11332,-0.02855 0.11332,-0.02942 0.11333,-0.03027 0.11333,-0.03159 0.11332,-0.03242 0.11332,-0.03375 0.11332,-0.03459 0.11334,-0.03548 0.11332,-0.03677 0.11332,-0.03804 0.11333,-0.03981 0.11333,-0.04023 0.11332,-0.04194 0.11332,-0.04283 0.11332,-0.04456 0.11333,-0.04585 0.11333,-0.04713 0.11332,-0.04845 0.11332,-0.05017 0.11332,-0.05149 0.11334,-0.05321 0.11332,-0.05448 0.11332,-0.05623 0.11333,-0.05753 0.11333,-0.05926 0.11333,-0.06142 0.11331,-0.06271 0.11332,-0.06488 0.11334,-0.06618 0.11332,-0.06836 0.11333,-0.07005 0.11332,-0.07224 0.11333,-0.07397 0.11333,-0.07569 0.11331,-0.07829 0.11333,-0.08002 0.11333,-0.08218 0.11332,-0.08434 0.11333,-0.08651 0.11331,-0.08867 0.11334,-0.09127 0.11333,-0.09343 0.11331,-0.09515 0.11333,-0.09819 0.11334,-0.10078 0.11331,-0.10338 0.11333,-0.10553 0.11331,-0.10816 0.11334,-0.11071 0.11333,-0.11377 0.11331,-0.11591 0.11333,-0.11894 0.11334,-0.12241 0.11331,-0.12501 0.11333,-0.12715 0.11331,-0.13108 0.11334,-0.13408 0.11333,-0.13668 0.11331,-0.13971 0.11333,-0.14362 0.11333,-0.14662 0.11332,-0.14966 0.11333,-0.15312 0.11331,-0.15657 0.11334,-0.16004 0.11333,-0.16351 0.11331,-0.16695 0.11333,-0.17129 0.11331,-0.1743 0.11334,-0.17865 0.11333,-0.18166 0.11331,-0.18643 0.11333,-0.18988 0.11334,-0.19464 0.11331,-0.19768 0.11333,-0.20285 0.11331,-0.20633 0.11334,-0.21063 0.11333,-0.21541 0.11331,-0.21974 0.11333,-0.22362 0.11333,-0.2288 0.11332,-0.23359 0.11333,-0.23745 0.11331,-0.24266 0.11334,-0.24783 0.11333,-0.2526 0.11331,-0.25737 0.11333,-0.26212 0.11333,-0.26774 0.11332,-0.27294 0.11333,-0.27769 0.11331,-0.28374 0.11335,-0.28894 0.11332,-0.29454 0.11331,-0.29976 0.11333,-0.3058 0.11333,-0.311 0.11333,-0.31705 0.11332,-0.32353 0.11331,-0.32872 0.11335,-0.33566 0.11331,-0.34084 0.11333,-0.34776 0.11333,-0.35425 0.11332,-0.35988 0.11333,-0.36679 0.11332,-0.3737 0.11332,-0.37978 0.11334,-0.38669 0.11331,-0.3936 0.11333,-0.40054 0.11333,-0.40744 0.11332,-0.41481 0.11333,-0.42174 0.11332,-0.42949 0.11332,-0.43643 0.11334,-0.44423 0.11331,-0.45157 0.11333,-0.45935 0.11333,-0.46758 0.11332,-0.47493 0.11333,-0.48356 0.11331,-0.49094 0.11333,-0.49959 0.11332,-0.50735 0.11333,-0.51646 0.11333,-0.52466 0.11333,-0.53333 0.1133,-0.54153 0.11335,-0.55019 0.11331,-0.56058"
       style="fill:none;stroke:#b39af0;stroke-width:0.99628;stroke-linecap:butt;stroke-linejoin:miter;stroke-miterlimit:10;stroke-dasharray:none;stroke-opacity:1"
       transform="matrix(1.3333333,0,0,-1.3333333,56.693333,94.485333)" />
    <path
       id="path6"
       d="m 42.52022,1.99255 v 0"
       style="fill:none;stroke:#c9d1d9;stroke-width:0.3985;stroke-linecap:butt;stroke-linejoin:miter;stroke-miterlimit:10;stroke-dasharray:none;stroke-opacity:1"
       transform="matrix(1.3333333,0,0,-1.3333333,56.693333,94.485333)" />
    <path
       id="path7"
       d="m 2.5795313,0.1394375 c 0.8320312,0 1.4648437,-0.3515625 1.8632812,-0.69140625 L 4.0560938,-1.1261875 c -0.328125,0.26953125 -0.8203125,0.50390625 -1.2890625,0.50390625 -0.9257813,0 -1.3828125,-0.57421875 -1.3828125,-1.62890625 0,-1.5820312 1.078125,-2.9414062 2.2382812,-2.9414062 0.4804688,0 0.7617188,0.1523437 1.0429688,0.46875 l 0.5273437,-0.5273438 c -0.3046875,-0.3867187 -0.8085937,-0.703125 -1.5117187,-0.703125 -1.6875,0 -3.23437505,1.6054688 -3.23437505,3.7617188 0,1.4882812 0.86718755,2.3320312 2.13281255,2.3320312 z m 0,0"
       style="fill:#c9d1d9;fill-opacity:1;fill-rule:nonzero;stroke:none"
       aria-label="c"
       transform="matrix(1.3333333,0,0,1.3333333,109.92,105.34533)" />
  </g>
</svg>
