<svg xmlns="http://www.w3.org/2000/svg" xmlns:xlink="http://www.w3.org/1999/xlink" xmlns:inkscape="http://www.inkscape.org/namespaces/inkscape" version="1.1" width="396.85" height="396.85" viewBox="0 0 396.85 396.85">
<defs>
<path id="font_0_1" d="M.6589966 .23046875C.6759949 .23046875 .69400027 .23046875 .69400027 .25045777 .69400027 .27046205 .6759949 .27046205 .6589966 .27046205H.117996219C.100997928 .27046205 .08299255 .27046205 .08299255 .25045777 .08299255 .23046875 .100997928 .23046875 .117996219 .23046875H.6589966Z"/>
<path id="font_1_1220" d="M.23399353-.01171875C.34498597-.01171875 .44898988 .06625366 .44898988 .20404053 .44898988 .34181214 .3600006 .4038086 .2519989 .4038086 .21299744 .4038086 .18399048 .3938141 .1539917 .37780763L.17098999 .5656891H.41799928V.6376953H.09799194L.07699585 .3308258 .12098694 .3028717C.15899658 .32783509 .18598938 .3408203 .22999573 .3408203 .31199647 .3408203 .36499024 .28990174 .36499024 .20204163 .36499024 .1131897 .3039856 .057266237 .22599793 .057266237 .15098572 .057266237 .102996829 .09222412 .06498718 .13015747L.024993897 .07524109C.068984989 .031280519 .13198853-.01171875 .23399353-.01171875Z"/>
<path id="font_1_1219" d="M.12098694 .24177552 .269989 .45870973C.28799439 .4907074 .30599977 .518692 .32199098 .5486908H.32598878C.32398988 .5146942 .32099916 .4597168 .32099916 .4267273V.24177552H.12098694M.32099916 0H.39898683V.17578125H.48599244V.24177552H.39898683V.6376953H.30699159L.033996583 .23077393V.17578125H.32099916V0Z"/>
<path id="font_1_1218" d="M.23599243-.01171875C.35299684-.01171875 .44699098 .057266237 .44699098 .17027283 .44699098 .25827027 .38598634 .31427003 .30899049 .3322754V.3362732C.37799073 .36227418 .42399598 .41130067 .42399598 .4883423 .42399598 .5913849 .34399415 .6503906 .23298645 .6503906 .1579895 .6503906 .09899902 .6163788 .049987794 .57037356L.09399414 .5183563C.13198853 .55537417 .1769867 .5823822 .22999573 .5823822 .2979889 .5823822 .33999635 .5433655 .33999635 .48233033 .33999635 .41529847 .2939911 .36328126 .15899658 .36328126V.3002777C.31098939 .3002777 .36299134 .24926758 .36299134 .17327881 .36299134 .10227966 .30799867 .057266237 .23098755 .057266237 .1559906 .057266237 .10598755 .0922699 .067993167 .13227844L.025985718 .07827759C.068984989 .031280519 .13398743-.01171875 .23599243-.01171875Z"/>
<path id="font_1_1217" d="M.042999269 0H.44799806V.070999149H.2669983C.23298645 .070999149 .19400025 .068984989 .1599884 .06599426 .30999757 .22410584 .42099 .3421936 .42099 .46229554 .42099 .5753784 .34899903 .6503906 .23098755 .6503906 .15098572 .6503906 .09399414 .61338809 .038986207 .5513611L.084991458 .50631716C.12098694 .5483551 .16799927 .5823822 .22099304 .5823822 .3019867 .5823822 .33999635 .53134158 .33999635 .45828248 .33999635 .35520936 .23298645 .24012757 .042999269 .04899597V0Z"/>
<path id="font_1_1216" d="M.16699219 0H.25V.6376953H.18598938C.15098572 .61668398 .10899353 .60069277 .049987794 .590683V.5366821H.16699219V0Z"/>
<path id="font_2_51" d="M-.044006349 0H.040985109L.1349945 .11506653C.1599884 .14608765 .18299866 .17410279 .20399475 .203125H.20799256C.21998596 .17410279 .23199463 .14308167 .24198914 .11407471L.28599549 0H.3659973L.2669983 .2411499 .46699525 .48632813H.3829956L.29899598 .37825013C.2789917 .350235 .25698854 .32321168 .23599243 .29719544H.23199463C.22200012 .32521058 .21398926 .3492279 .20399475 .37825013L.1619873 .48632813H.08299255L.17399597 .25816346-.044006349 0Z"/>
<path id="font_1_1279" d="M.040985109 .2191925H.2709961V.28320313H.040985109V.2191925Z"/>
<path id="font_1_28" d="M.19400025-.01171875C.25498963-.01171875 .30799867 .01927185 .35398866 .058273317H.35699464L.36499024 0H.43299867V.2990265C.43299867 .41903688 .38198854 .49804688 .2639923 .49804688 .18598938 .49804688 .117996219 .4650421 .07299805 .43504334L.10499573 .37902833C.14299011 .40403749 .19400025 .42904664 .25 .42904664 .32899476 .42904664 .34899903 .37002564 .34999085 .309021 .14199829 .286026 .051986696 .23402405 .051986696 .12600708 .051986696 .038269044 .11299133-.01171875 .19400025-.01171875M.21699524 .056274415C.16999817 .056274415 .1329956 .07725525 .1329956 .13122559 .1329956 .19418335 .18598938 .23117066 .34999085 .2501526V.11824036C.30299378 .07725525 .2639923 .056274415 .21699524 .056274415Z"/>
<path id="font_1_51" d="M.01399231 0H.100997928L.1659851 .11306763C.18299866 .14208985 .19898987 .17210388 .21499634 .20013428H.21899414C.23699951 .17210388 .25498963 .14208985 .27198792 .11306763L.34298707 0H.43299867L.2749939 .24516297 .42199708 .48632813H.33499146L.27598573 .38024903C.26098634 .3532257 .24699402 .32621766 .23199463 .29919435H.22799683C.21199036 .32621766 .19599915 .3532257 .18099976 .38024903L.115997318 .48632813H.025985718L.17298889 .25416566 .01399231 0Z"/>
<path id="font_1_36" d="M.08198547 0H.16499329V.48632813H.08198547V0M.12399292 .5863342C.1559906 .5863342 .1789856 .6073303 .1789856 .6403351 .1789856 .67233279 .1559906 .69433596 .12399292 .69433596 .09199524 .69433596 .068984989 .67233279 .068984989 .6403351 .068984989 .6073303 .09199524 .5863342 .12399292 .5863342Z"/>
<path id="font_1_46" d="M.20899964-.01171875C.32398988-.01171875 .3869934 .054275514 .3869934 .13322449 .3869934 .22117615 .31399537 .2541504 .23799134 .28112794 .1769867 .30212403 .1349945 .32011415 .1349945 .36408998 .1349945 .40005494 .1619873 .43403626 .22399903 .43403626 .2669983 .43403626 .3019867 .42004396 .33599855 .3950653L.37399293 .44303895C.33599855 .47503663 .28399659 .49804688 .22299195 .49804688 .116989139 .49804688 .054992677 .43803407 .054992677 .36009217 .054992677 .2801361 .125 .24516297 .19799805 .21917725 .25299073 .19918823 .30699159 .17819214 .30699159 .12823487 .30699159 .086257938 .27598573 .053268434 .21199036 .053268434 .1519928 .053268434 .10798645 .071258548 .06599426 .10624695L.027999878 .058273317C.07299805 .014266968 .13798523-.01171875 .20899964-.01171875Z"/>
<path id="font_2_52" d="M-.0010070801-.20898438C.085998538-.20898438 .1459961-.147995 .20498657-.03593445L.4850006 .48632813H.4059906L.2659912 .21517945C.24299622 .17115784 .21899414 .119140628 .19699097 .07511902H.19299317C.18798828 .118133548 .18399048 .17115784 .1769867 .21517945L.13798523 .48632813H.05899048L.14299011-.004928589 .1269989-.03694153C.09298706-.10296631 .04899597-.14399719-.0010070801-.14399719-.015014648-.14399719-.027008057-.14199829-.038009645-.13798523L-.06201172-.19499207C-.045013429-.20498657-.023010254-.20898438-.0010070801-.20898438Z"/>
<path id="font_1_1287" d="M.1519928 .14178467C.21199036 .14178467 .2649994 .19078064 .2649994 .26278688 .2649994 .33477784 .21199036 .38378907 .1519928 .38378907 .09199524 .38378907 .039993287 .33477784 .039993287 .26278688 .039993287 .19078064 .09199524 .14178467 .1519928 .14178467Z"/>
<path id="font_1_16" d="M.33198548-.01171875C.49699403-.01171875 .61299136 .12023926 .61299136 .33111573 .61299136 .5399933 .49699403 .66796877 .33198548 .66796877 .16699219 .66796877 .051986696 .5409851 .051986696 .33111573 .051986696 .12023926 .16699219-.01171875 .33198548-.01171875M.33198548 .06227112C.21499634 .06227112 .13899231 .16720581 .13899231 .33111573 .13899231 .49401856 .21499634 .5939636 .33198548 .5939636 .44898988 .5939636 .526001 .49401856 .526001 .33111573 .526001 .16720581 .44898988 .06227112 .33198548 .06227112Z"/>
<path id="font_1_45" d="M.08198547 0H.16499329V.31202699C.19799805 .3940277 .24699402 .42303468 .28799439 .42303468 .30699159 .42303468 .31799317 .42103578 .33198548 .41703797L.34999085 .48828126C.33499146 .4950409 .31999208 .49804688 .2979889 .49804688 .24398804 .49804688 .19400025 .4590454 .1599884 .39804078H.15699768L.1499939 .48632813H.08198547V0Z"/>
<path id="font_1_34" d="M.24598694-.22363281C.39698792-.22363281 .49198915-.1456604 .49198915-.054763795 .49198915 .025177002 .43499757 .061172487 .32199098 .061172487H.22799683C.16299439 .061172487 .14299011 .08320618 .14299011 .11323547 .14299011 .14027405 .1559906 .15629578 .17399597 .17129517 .19599915 .16029358 .22200012 .15429688 .24598694 .15429688 .34498597 .15429688 .42399598 .21928406 .42399598 .32330323 .42399598 .36431886 .4079895 .40031434 .3849945 .4223175H.48399354V.48632813H.31498719C.29699708 .493042 .272995 .49804688 .24598694 .49804688 .14698792 .49804688 .06298828 .43104554 .06298828 .3251648 .06298828 .26722718 .09399414 .22027588 .12599182 .19429016V.19029236C.100997928 .17329407 .07299805 .14128113 .07299805 .10021973 .07299805 .062179567 .09199524 .03617859 .115997318 .0211792V.017181397C.07199097-.012817383 .04499817-.05177307 .04499817-.09272766 .04499817-.17663574 .1269989-.22363281 .24598694-.22363281M.24598694 .21029663C.18998719 .21029663 .14299011 .25424195 .14299011 .3251648 .14299011 .39608766 .18899536 .43803407 .24598694 .43803407 .30299378 .43803407 .34899903 .39508058 .34899903 .3251648 .34899903 .25424195 .3019867 .21029663 .24598694 .21029663M.2579956-.16563416C.16999817-.16563416 .116989139-.13371277 .116989139-.081832889 .116989139-.053894044 .13198853-.02494812 .16699219 0 .18798828-.0058135988 .21099854-.0078125 .22999573-.0078125H.31298829C.3769989-.0078125 .41099549-.02279663 .41099549-.06774902 .41099549-.117752078 .34999085-.16563416 .2579956-.16563416Z"/>
<path id="font_1_41" d="M.08198547 0H.16499329V.35203553C.21299744 .4010315 .24798584 .42604066 .29699708 .42604066 .36099244 .42604066 .3889923 .388031 .3889923 .2970276V0H.47200013V.30802918C.47200013 .43203736 .42599488 .49804688 .32299806 .49804688 .2559967 .49804688 .20599365 .46203614 .1599884 .41603089H.15699768L.1499939 .48632813H.08198547V0Z"/>
<path id="font_1_1258" d="M.066986087-.16998291C.14898682-.13697815 .19898987-.068984989 .19898987 .01701355 .19898987 .07801819 .17298889 .11502075 .1289978 .11502075 .09599304 .11502075 .067993167 .09301758 .067993167 .057022096 .067993167 .019012452 .09498596-.0009765625 .1269989-.0009765625 .1309967-.0009765625 .13398743-.0009765625 .13798523 .000015258789 .13798523-.052978517 .10398865-.09698486 .04699707-.12197876L.066986087-.16998291Z"/>
<path id="font_3_1" d="M.33099366-.2400055C.33099366-.23701477 .33099366-.23500061 .31399537-.21800232 .18899536-.0920105 .15699768 .09700012 .15699768 .25 .15699768 .42399598 .19499207 .59799197 .31799317 .72299197 .33099366 .73498538 .33099366 .7369995 .33099366 .73999026 .33099366 .746994 .32699586 .75 .32099916 .75 .31098939 .75 .22099304 .6819916 .1619873 .5549927 .11099243 .44499208 .09899902 .33399964 .09899902 .25 .09899902 .17199707 .10998535 .050994874 .16499329-.06201172 .22499085-.18501282 .31098939-.25 .32099916-.25 .32699586-.25 .33099366-.24700928 .33099366-.2400055Z"/>
<path id="font_1_1215" d="M.2689972-.01171875C.40299989-.01171875 .48399354 .11128235 .48399354 .32133485 .48399354 .5313721 .40299989 .6503906 .2689972 .6503906 .13598633 .6503906 .054992677 .53237918 .054992677 .32133485 .054992677 .11128235 .13598633-.01171875 .2689972-.01171875M.2689972 .055267335C.18998719 .055267335 .13899231 .1362915 .13899231 .32133485 .13899231 .50737 .18998719 .5833893 .2689972 .5833893 .34799195 .5833893 .3999939 .50737 .3999939 .32133485 .3999939 .1362915 .34799195 .055267335 .2689972 .055267335Z"/>
<path id="font_4_1" d="M.20298767 .0009918213C.20298767 .066986087 .17799378 .10598755 .13899231 .10598755 .10598755 .10598755 .085998538 .08099365 .085998538 .052993776 .085998538 .025985718 .10598755 0 .13899231 0 .15098572 0 .1639862 .0039978029 .17399597 .0129852299 .1769867 .01499939 .17799378 .015991211 .1789856 .015991211 .17999268 .015991211 .18099976 .01499939 .18099976 .0009918213 .18099976-.07316589 .1459961-.13328552 .11299133-.16635132 .101989749-.17736817 .101989749-.17936707 .101989749-.18237305 .101989749-.18936157 .10699463-.19335938 .11199951-.19335938 .12298584-.19335938 .20298767-.116256717 .20298767 .0009918213Z"/>
<path id="font_3_2" d="M.2889862 .25C.2889862 .32798768 .27799989 .44898988 .22299195 .56199648 .16299439 .68499758 .07699585 .75 .066986087 .75 .06098938 .75 .056991579 .74598696 .056991579 .73999026 .056991579 .7369995 .056991579 .73498538 .07598877 .71699526 .17399597 .6179962 .23098755 .45899964 .23098755 .25 .23098755 .07899475 .19400025-.09700012 .069992069-.2230072 .056991579-.23500061 .056991579-.23701477 .056991579-.2400055 .056991579-.2460022 .06098938-.25 .066986087-.25 .07699585-.25 .16699219-.18200684 .22599793-.055007936 .2769928 .054992677 .2889862 .16600037 .2889862 .25Z"/>
<path id="font_5_1" d="M.30599977-.2440033C.30599977-.24301148 .30599977-.24101258 .30299378-.23800659 .25698854-.19100952 .13398743-.06300354 .13398743 .24899292 .13398743 .56100466 .25498963 .68800356 .3039856 .73802188 .3039856 .7390137 .30599977 .7410126 .30599977 .74401858 .30599977 .7470093 .30299378 .74902346 .29899598 .74902346 .28799439 .74902346 .20298767 .67500308 .1539917 .56500247 .10398865 .45401 .08999634 .3460083 .08999634 .25 .08999634 .17799378 .09700012 .055999757 .15699768-.07299805 .20498657-.17700196 .2869873-.25 .29899598-.25 .3039856-.25 .30599977-.2480011 .30599977-.2440033Z"/>
<path id="font_6_1" d="M.19499207-.0040130617C.19499207 .053985597 .17599488 .09700012 .1349945 .09700012 .102996829 .09700012 .08699036 .070999149 .08699036 .04899597 .08699036 .026992798 .101989749 0 .13598633 0 .14898682 0 .1599884 .0039978029 .16899109 .0129852299 .17098999 .01499939 .17199707 .01499939 .17298889 .01499939 .1749878 .01499939 .1749878 .0009918213 .1749878-.0040130617 .1749878-.037078859 .16899109-.10221863 .11099243-.1673584 .099990848-.17936707 .099990848-.18136597 .099990848-.18336487 .099990848-.18836975 .10499573-.19335938 .10998535-.19335938 .117996219-.19335938 .19499207-.119262699 .19499207-.0040130617Z"/>
<path id="font_5_2" d="M.2630005 .24899292C.2630005 .32099916 .2559967 .44300843 .19599915 .5720062 .147995 .67601016 .06599426 .74902346 .053985597 .74902346 .050994874 .74902346 .04699707 .74801638 .04699707 .7430115 .04699707 .7410126 .04798889 .74002078 .04899597 .73802188 .09700012 .68800356 .21899414 .56100466 .21899414 .25 .21899414-.06201172 .09799194-.18901062 .04899597-.23901367 .04798889-.24101258 .04699707-.2420044 .04699707-.2440033 .04699707-.24900818 .050994874-.25 .053985597-.25 .06498718-.25 .1499939-.17601013 .19898987-.06600952 .24899292 .04499817 .2630005 .15299988 .2630005 .24899292Z"/>
<path id="font_1_10" d="M.08999634 0H.17399597V.65625H.08999634V0Z"/>
<path id="font_1_23" d="M.20599365 0H.30299378L.5159912 .65625H.42999269L.32099916 .3020935C.2979889 .22505188 .28199769 .16203308 .2579956 .085998538H.2539978C.22999573 .16203308 .21299744 .22505188 .19099427 .3020935L.08898926 .65625H0L.20599365 0Z"/>
</defs>
<path transform="matrix(1,0,0,-1,198.425,198.425)" stroke-width=".79701" stroke-linecap="butt" stroke-miterlimit="10" stroke-linejoin="miter" fill="none" stroke="#c9d1d9" d="M-170.08086 0H169.28385"/>
<path transform="matrix(1,0,0,-1,368.10737,198.425)" stroke-width=".79701" stroke-linecap="round" stroke-linejoin="round" fill="none" stroke="#c9d1d9" d="M-2.55046 3.11095C-2.0845 1.24435-1.04614 .36295 0 0-1.04614-.36295-2.0845-1.24435-2.55046-3.11095"/>
<path transform="matrix(1,0,0,-1,198.425,198.425)" stroke-width=".79701" stroke-linecap="butt" stroke-miterlimit="10" stroke-linejoin="miter" fill="none" stroke="#c9d1d9" d="M0-170.08086V169.28385"/>
<path transform="matrix(0,-1,-1,-0,198.425,28.74266)" stroke-width=".79701" stroke-linecap="round" stroke-linejoin="round" fill="none" stroke="#c9d1d9" d="M-2.55046 3.11095C-2.0845 1.24435-1.04614 .36295 0 0-1.04614-.36295-2.0845-1.24435-2.55046-3.11095"/>
<path transform="matrix(1,0,0,-1,198.425,198.425)" stroke-width=".3985" stroke-linecap="butt" stroke-miterlimit="10" stroke-linejoin="miter" fill="none" stroke="#c9d1d9" d="M-141.7341 1.99255V-1.99255"/>
<use data-text="&#x2212;" xlink:href="#font_0_1" transform="matrix(9.9626,0,0,-9.9626,50.341005,210.294)" fill="#c9d1d9"/>
<use data-text="5" xlink:href="#font_1_1220" transform="matrix(9.9626,0,0,-9.9626,58.089998,210.294)" fill="#c9d1d9"/>
<path transform="matrix(1,0,0,-1,198.425,198.425)" stroke-width=".3985" stroke-linecap="butt" stroke-miterlimit="10" stroke-linejoin="miter" fill="none" stroke="#c9d1d9" d="M-113.38728 1.99255V-1.99255"/>
<use data-text="&#x2212;" xlink:href="#font_0_1" transform="matrix(9.9626,0,0,-9.9626,78.573009,210.294)" fill="#c9d1d9"/>
<use data-text="4" xlink:href="#font_1_1219" transform="matrix(9.9626,0,0,-9.9626,86.322,210.294)" fill="#c9d1d9"/>
<path transform="matrix(1,0,0,-1,198.425,198.425)" stroke-width=".3985" stroke-linecap="butt" stroke-miterlimit="10" stroke-linejoin="miter" fill="none" stroke="#c9d1d9" d="M-85.04045 1.99255V-1.99255"/>
<use data-text="&#x2212;" xlink:href="#font_0_1" transform="matrix(9.9626,0,0,-9.9626,107.034008,210.413)" fill="#c9d1d9"/>
<use data-text="3" xlink:href="#font_1_1218" transform="matrix(9.9626,0,0,-9.9626,114.783,210.413)" fill="#c9d1d9"/>
<path transform="matrix(1,0,0,-1,198.425,198.425)" stroke-width=".3985" stroke-linecap="butt" stroke-miterlimit="10" stroke-linejoin="miter" fill="none" stroke="#c9d1d9" d="M-56.69363 1.99255V-1.99255"/>
<use data-text="&#x2212;" xlink:href="#font_0_1" transform="matrix(9.9626,0,0,-9.9626,135.36101,210.413)" fill="#c9d1d9"/>
<use data-text="2" xlink:href="#font_1_1217" transform="matrix(9.9626,0,0,-9.9626,143.11,210.413)" fill="#c9d1d9"/>
<path transform="matrix(1,0,0,-1,198.425,198.425)" stroke-width=".3985" stroke-linecap="butt" stroke-miterlimit="10" stroke-linejoin="miter" fill="none" stroke="#c9d1d9" d="M-28.3468 1.99255V-1.99255"/>
<use data-text="&#x2212;" xlink:href="#font_0_1" transform="matrix(9.9626,0,0,-9.9626,164.36101,210.294)" fill="#c9d1d9"/>
<use data-text="1" xlink:href="#font_1_1216" transform="matrix(9.9626,0,0,-9.9626,172.11,210.294)" fill="#c9d1d9"/>
<path transform="matrix(1,0,0,-1,198.425,198.425)" stroke-width=".3985" stroke-linecap="butt" stroke-miterlimit="10" stroke-linejoin="miter" fill="none" stroke="#c9d1d9" d="M28.3468 1.99255V-1.99255"/>
<use data-text="1" xlink:href="#font_1_1216" transform="matrix(9.9626,0,0,-9.9626,224.929,210.294)" fill="#c9d1d9"/>
<path transform="matrix(1,0,0,-1,198.425,198.425)" stroke-width=".3985" stroke-linecap="butt" stroke-miterlimit="10" stroke-linejoin="miter" fill="none" stroke="#c9d1d9" d="M56.69363 1.99255V-1.99255"/>
<use data-text="2" xlink:href="#font_1_1217" transform="matrix(9.9626,0,0,-9.9626,252.623,210.413)" fill="#c9d1d9"/>
<path transform="matrix(1,0,0,-1,198.425,198.425)" stroke-width=".3985" stroke-linecap="butt" stroke-miterlimit="10" stroke-linejoin="miter" fill="none" stroke="#c9d1d9" d="M85.04045 1.99255V-1.99255"/>
<use data-text="3" xlink:href="#font_1_1218" transform="matrix(9.9626,0,0,-9.9626,280.99,210.413)" fill="#c9d1d9"/>
<path transform="matrix(1,0,0,-1,198.425,198.425)" stroke-width=".3985" stroke-linecap="butt" stroke-miterlimit="10" stroke-linejoin="miter" fill="none" stroke="#c9d1d9" d="M113.38728 1.99255V-1.99255"/>
<use data-text="4" xlink:href="#font_1_1219" transform="matrix(9.9626,0,0,-9.9626,309.222,210.294)" fill="#c9d1d9"/>
<path transform="matrix(1,0,0,-1,198.425,198.425)" stroke-width=".3985" stroke-linecap="butt" stroke-miterlimit="10" stroke-linejoin="miter" fill="none" stroke="#c9d1d9" d="M141.7341 1.99255V-1.99255"/>
<use data-text="5" xlink:href="#font_1_1220" transform="matrix(9.9626,0,0,-9.9626,337.68299,210.294)" fill="#c9d1d9"/>
<path transform="matrix(1,0,0,-1,198.425,198.425)" stroke-width=".3985" stroke-linecap="butt" stroke-miterlimit="10" stroke-linejoin="miter" fill="none" stroke="#c9d1d9" d="M1.99255-141.7341H-1.99255"/>
<use data-text="&#x2212;" xlink:href="#font_0_1" transform="matrix(9.9626,0,0,-9.9626,180.212,342.922)" fill="#c9d1d9"/>
<use data-text="5" xlink:href="#font_1_1220" transform="matrix(9.9626,0,0,-9.9626,187.961,342.922)" fill="#c9d1d9"/>
<path transform="matrix(1,0,0,-1,198.425,198.425)" stroke-width=".3985" stroke-linecap="butt" stroke-miterlimit="10" stroke-linejoin="miter" fill="none" stroke="#c9d1d9" d="M1.99255-113.38728H-1.99255"/>
<use data-text="&#x2212;" xlink:href="#font_0_1" transform="matrix(9.9626,0,0,-9.9626,179.983,314.575)" fill="#c9d1d9"/>
<use data-text="4" xlink:href="#font_1_1219" transform="matrix(9.9626,0,0,-9.9626,187.732,314.575)" fill="#c9d1d9"/>
<path transform="matrix(1,0,0,-1,198.425,198.425)" stroke-width=".3985" stroke-linecap="butt" stroke-miterlimit="10" stroke-linejoin="miter" fill="none" stroke="#c9d1d9" d="M1.99255-85.04045H-1.99255"/>
<use data-text="&#x2212;" xlink:href="#font_0_1" transform="matrix(9.9626,0,0,-9.9626,180.212,286.28804)" fill="#c9d1d9"/>
<use data-text="3" xlink:href="#font_1_1218" transform="matrix(9.9626,0,0,-9.9626,187.961,286.28804)" fill="#c9d1d9"/>
<path transform="matrix(1,0,0,-1,198.425,198.425)" stroke-width=".3985" stroke-linecap="butt" stroke-miterlimit="10" stroke-linejoin="miter" fill="none" stroke="#c9d1d9" d="M1.99255-56.69363H-1.99255"/>
<use data-text="&#x2212;" xlink:href="#font_0_1" transform="matrix(9.9626,0,0,-9.9626,180.172,257.94099)" fill="#c9d1d9"/>
<use data-text="2" xlink:href="#font_1_1217" transform="matrix(9.9626,0,0,-9.9626,187.92099,257.94099)" fill="#c9d1d9"/>
<path transform="matrix(1,0,0,-1,198.425,198.425)" stroke-width=".3985" stroke-linecap="butt" stroke-miterlimit="10" stroke-linejoin="miter" fill="none" stroke="#c9d1d9" d="M1.99255-28.3468H-1.99255"/>
<use data-text="&#x2212;" xlink:href="#font_0_1" transform="matrix(9.9626,0,0,-9.9626,181.478,229.535)" fill="#c9d1d9"/>
<use data-text="1" xlink:href="#font_1_1216" transform="matrix(9.9626,0,0,-9.9626,189.22699,229.535)" fill="#c9d1d9"/>
<path transform="matrix(1,0,0,-1,198.425,198.425)" stroke-width=".3985" stroke-linecap="butt" stroke-miterlimit="10" stroke-linejoin="miter" fill="none" stroke="#c9d1d9" d="M1.99255 28.3468H-1.99255"/>
<use data-text="1" xlink:href="#font_1_1216" transform="matrix(9.9626,0,0,-9.9626,189.226,173.25601)" fill="#c9d1d9"/>
<path transform="matrix(1,0,0,-1,198.425,198.425)" stroke-width=".3985" stroke-linecap="butt" stroke-miterlimit="10" stroke-linejoin="miter" fill="none" stroke="#c9d1d9" d="M1.99255 56.69363H-1.99255"/>
<use data-text="2" xlink:href="#font_1_1217" transform="matrix(9.9626,0,0,-9.9626,187.921,144.969)" fill="#c9d1d9"/>
<path transform="matrix(1,0,0,-1,198.425,198.425)" stroke-width=".3985" stroke-linecap="butt" stroke-miterlimit="10" stroke-linejoin="miter" fill="none" stroke="#c9d1d9" d="M1.99255 85.04045H-1.99255"/>
<use data-text="3" xlink:href="#font_1_1218" transform="matrix(9.9626,0,0,-9.9626,187.961,116.563)" fill="#c9d1d9"/>
<path transform="matrix(1,0,0,-1,198.425,198.425)" stroke-width=".3985" stroke-linecap="butt" stroke-miterlimit="10" stroke-linejoin="miter" fill="none" stroke="#c9d1d9" d="M1.99255 113.38728H-1.99255"/>
<use data-text="4" xlink:href="#font_1_1219" transform="matrix(9.9626,0,0,-9.9626,187.732,88.216)" fill="#c9d1d9"/>
<path transform="matrix(1,0,0,-1,198.425,198.425)" stroke-width=".3985" stroke-linecap="butt" stroke-miterlimit="10" stroke-linejoin="miter" fill="none" stroke="#c9d1d9" d="M1.99255 141.7341H-1.99255"/>
<use data-text="5" xlink:href="#font_1_1220" transform="matrix(9.9626,0,0,-9.9626,187.961,59.809007)" fill="#c9d1d9"/>
<use data-text="x" xlink:href="#font_2_51" transform="matrix(9.9626,0,0,-9.9626,343.67903,191.85102)" fill="#c9d1d9"/>
<use data-text="&#x2011;" xlink:href="#font_1_1279" transform="matrix(9.9626,0,0,-9.9626,347.963,191.85102)" fill="#c9d1d9"/>
<use data-text="a" xlink:href="#font_1_28" transform="matrix(9.9626,0,0,-9.9626,351.06138,191.85102)" fill="#c9d1d9"/>
<use data-text="x" xlink:href="#font_1_51" transform="matrix(9.9626,0,0,-9.9626,356.08253,191.85102)" fill="#c9d1d9"/>
<use data-text="i" xlink:href="#font_1_36" transform="matrix(9.9626,0,0,-9.9626,360.5358,191.85102)" fill="#c9d1d9"/>
<use data-text="s" xlink:href="#font_1_46" transform="matrix(9.9626,0,0,-9.9626,362.99659,191.85102)" fill="#c9d1d9"/>
<use data-text="y" xlink:href="#font_2_52" transform="matrix(9.9626,0,0,-9.9626,203.593,33.595)" fill="#c9d1d9"/>
<use data-text="&#x2011;" xlink:href="#font_1_1279" transform="matrix(9.9626,0,0,-9.9626,208.06601,33.595)" fill="#c9d1d9"/>
<use data-text="a" xlink:href="#font_1_28" transform="matrix(9.9626,0,0,-9.9626,211.16439,33.595)" fill="#c9d1d9"/>
<use data-text="x" xlink:href="#font_1_51" transform="matrix(9.9626,0,0,-9.9626,216.18553,33.595)" fill="#c9d1d9"/>
<use data-text="i" xlink:href="#font_1_36" transform="matrix(9.9626,0,0,-9.9626,220.63881,33.595)" fill="#c9d1d9"/>
<use data-text="s" xlink:href="#font_1_46" transform="matrix(9.9626,0,0,-9.9626,223.09958,33.595)" fill="#c9d1d9"/>
<path transform="matrix(1,0,0,-1,198.425,198.425)" stroke-width="2.98883" stroke-linecap="butt" stroke-miterlimit="10" stroke-linejoin="miter" fill="none" stroke="#884ef4" d="M0 0H56.69362"/>
<use data-text="x" xlink:href="#font_2_51" transform="matrix(9.9626,0,0,-9.9626,224.63,193.61)" fill="#884ef4"/>
<path transform="matrix(1,0,0,-1,198.425,198.425)" stroke-width="2.98883" stroke-linecap="butt" stroke-miterlimit="10" stroke-linejoin="miter" fill="none" stroke="#245fcd" d="M56.69362 0V85.04042"/>
<use data-text="y" xlink:href="#font_2_52" transform="matrix(9.9626,0,0,-9.9626,259.93403,157.285)" fill="#245fcd"/>
<use data-text="&#x2022;" xlink:href="#font_1_1287" transform="matrix(24.7871,0,0,-24.7871,251.339,118.144008)" fill="#c9d1d9"/>
<use data-text="&#x2022;" xlink:href="#font_1_1287" transform="matrix(24.7871,0,0,-24.7871,194.645,204.602)" fill="#c9d1d9"/>
<path transform="matrix(1,0,0,-1,198.425,198.425)" stroke-width="1.49442" stroke-linecap="butt" stroke-miterlimit="10" stroke-linejoin="miter" fill="none" stroke="#c9d1d9" d="M-56.69362 42.5202-6.8807 6.54419"/>
<path transform="matrix(.81065,.58546,.58546,-.81065,192.15001,192.31829)" stroke-width="1.49442" stroke-linecap="round" stroke-linejoin="round" fill="none" stroke="#c9d1d9" d="M-3.38733 4.37073C-2.76846 1.74825-1.38942 .50992 0 0-1.38942-.50992-2.76846-1.74825-3.38733-4.37073"/>
<use data-text="O" xlink:href="#font_1_16" transform="matrix(9.9626,0,0,-9.9626,115.299,149.34601)" fill="#c9d1d9"/>
<use data-text="r" xlink:href="#font_1_45" transform="matrix(9.9626,0,0,-9.9626,121.91418,149.34601)" fill="#c9d1d9"/>
<use data-text="i" xlink:href="#font_1_36" transform="matrix(9.9626,0,0,-9.9626,125.38116,149.34601)" fill="#c9d1d9"/>
<use data-text="g" xlink:href="#font_1_34" transform="matrix(9.9626,0,0,-9.9626,127.84193,149.34601)" fill="#c9d1d9"/>
<use data-text="i" xlink:href="#font_1_36" transform="matrix(9.9626,0,0,-9.9626,132.87305,149.34601)" fill="#c9d1d9"/>
<use data-text="n" xlink:href="#font_1_41" transform="matrix(9.9626,0,0,-9.9626,135.3338,149.34601)" fill="#c9d1d9"/>
<use data-text="," xlink:href="#font_1_1258" transform="matrix(9.9626,0,0,-9.9626,140.78336,149.34601)" fill="#c9d1d9"/>
<use data-text="(" xlink:href="#font_3_1" transform="matrix(9.9626,0,0,-9.9626,145.267,149.34601)" fill="#c9d1d9"/>
<use data-text="0" xlink:href="#font_1_1215" transform="matrix(9.9626,0,0,-9.9626,149.14099,149.34601)" fill="#c9d1d9"/>
<use data-text="," xlink:href="#font_4_1" transform="matrix(9.9626,0,0,-9.9626,154.501,149.34601)" fill="#c9d1d9"/>
<use data-text="0" xlink:href="#font_1_1215" transform="matrix(9.9626,0,0,-9.9626,158.92899,149.34601)" fill="#c9d1d9"/>
<use data-text=")" xlink:href="#font_3_2" transform="matrix(9.9626,0,0,-9.9626,164.289,149.34601)" fill="#c9d1d9"/>
<use data-text="(" xlink:href="#font_5_1" transform="matrix(20.6625,0,0,-20.6625,258.638,118.55)" fill="#c9d1d9"/>
<use data-text="x" xlink:href="#font_2_51" transform="matrix(20.6625,0,0,-20.6625,265.95503,118.55)" fill="#884ef4"/>
<use data-text="," xlink:href="#font_6_1" transform="matrix(20.6625,0,0,-20.6625,274.84,118.55)" fill="#c9d1d9"/>
<use data-text="y" xlink:href="#font_2_52" transform="matrix(20.6625,0,0,-20.6625,283.904,118.55)" fill="#245fcd"/>
<use data-text=")" xlink:href="#font_5_2" transform="matrix(20.6625,0,0,-20.6625,293.181,118.55)" fill="#c9d1d9"/>
<use data-text="I" xlink:href="#font_1_10" transform="matrix(39.8506,0,0,-39.8506,334.919,69.76201)" fill="#c9d1d9"/>
<use data-text="I" xlink:href="#font_1_10" transform="matrix(39.8506,0,0,-39.8506,46.210008,69.76201)" fill="#c9d1d9"/>
<use data-text="I" xlink:href="#font_1_10" transform="matrix(39.8506,0,0,-39.8506,56.69072,69.76201)" fill="#c9d1d9"/>
<use data-text="I" xlink:href="#font_1_10" transform="matrix(39.8506,0,0,-39.8506,40.97,353.22999)" fill="#c9d1d9"/>
<use data-text="I" xlink:href="#font_1_10" transform="matrix(39.8506,0,0,-39.8506,51.450716,353.22999)" fill="#c9d1d9"/>
<use data-text="I" xlink:href="#font_1_10" transform="matrix(39.8506,0,0,-39.8506,61.931428,353.22999)" fill="#c9d1d9"/>
<use data-text="I" xlink:href="#font_1_10" transform="matrix(39.8506,0,0,-39.8506,324.63703,353.22999)" fill="#c9d1d9"/>
<use data-text="V" xlink:href="#font_1_23" transform="matrix(39.8506,0,0,-39.8506,335.11775,353.22999)" fill="#c9d1d9"/>
</svg>
