<?xml version="1.0" encoding="UTF-8" standalone="no"?>
<!-- Created with Inkscape (http://www.inkscape.org/) -->

<svg
   version="1.1"
   id="svg1"
   width="188.97333"
   height="226.77333"
   viewBox="0 0 188.97333 226.77333"
   sodipodi:docname="MATH_118-110.pdf"
   xmlns:inkscape="http://www.inkscape.org/namespaces/inkscape"
   xmlns:sodipodi="http://sodipodi.sourceforge.net/DTD/sodipodi-0.dtd"
   xmlns="http://www.w3.org/2000/svg"
   xmlns:svg="http://www.w3.org/2000/svg">
  <defs
     id="defs1" />
  <sodipodi:namedview
     id="namedview1"
     pagecolor="#ffffff"
     bordercolor="#000000"
     borderopacity="0.25"
     inkscape:showpageshadow="2"
     inkscape:pageopacity="0.0"
     inkscape:pagecheckerboard="0"
     inkscape:deskcolor="#d1d1d1">
    <inkscape:page
       x="0"
       y="0"
       inkscape:label="1"
       id="page1"
       width="188.97333"
       height="226.77333"
       margin="0"
       bleed="0" />
  </sodipodi:namedview>
  <g
     id="g1"
     inkscape:groupmode="layer"
     inkscape:label="1">
    <path
       id="path1"
       d="M -56.69362,0 H 56.44455"
       style="fill:none;stroke:#c9d1d9;stroke-width:0.24907;stroke-linecap:butt;stroke-linejoin:miter;stroke-miterlimit:10;stroke-dasharray:none;stroke-opacity:1"
       transform="matrix(1.3333333,0,0,-1.3333333,94.488,170.08)" />
    <path
       id="path2"
       d="M -1.89291,2.12108 C -1.54709,0.84842 -0.77643,0.24745 0,0 -0.77643,-0.24745 -1.54709,-0.84842 -1.89291,-2.12108"
       style="fill:none;stroke:#c9d1d9;stroke-width:0.24907;stroke-linecap:round;stroke-linejoin:round;stroke-miterlimit:10;stroke-dasharray:none;stroke-opacity:1"
       transform="matrix(1.3333333,0,0,-1.3333333,169.91344,170.08)" />
    <path
       id="path3"
       d="M 0,-28.3468 V 113.13817"
       style="fill:none;stroke:#c9d1d9;stroke-width:0.24907;stroke-linecap:butt;stroke-linejoin:miter;stroke-miterlimit:10;stroke-dasharray:none;stroke-opacity:1"
       transform="matrix(1.3333333,0,0,-1.3333333,94.488,170.08)" />
    <path
       id="path4"
       d="M -1.89291,2.12108 C -1.54709,0.84842 -0.77643,0.24745 0,0 -0.77643,-0.24745 -1.54709,-0.84842 -1.89291,-2.12108"
       style="fill:none;stroke:#c9d1d9;stroke-width:0.24907;stroke-linecap:round;stroke-linejoin:round;stroke-miterlimit:10;stroke-dasharray:none;stroke-opacity:1"
       transform="matrix(0,-1.3333333,-1.3333333,0,94.488,19.063067)" />
    <path
       id="path5"
       d="m -56.69362,113.38724 0.2271,-0.61725 0.22708,-0.6237 0.2271,-0.62029 0.22706,-0.61677 0.22708,-0.61553 0.2271,-0.61203 0.22707,-0.60728 0.22709,-0.60382 0.22708,-0.59864 0.22707,-0.5995 0.22709,-0.59215 0.22709,-0.59215 0.22706,-0.58868 0.2271,-0.58263 0.22708,-0.58132 0.2271,-0.57874 0.22707,-0.5744 0.22708,-0.57096 0.22709,-0.56835 0.22707,-0.5649 0.22709,-0.56273 0.22709,-0.55884 0.22706,-0.55408 0.2271,-0.55409 0.22708,-0.55061 0.22707,-0.54543 0.22709,-0.54414 0.22708,-0.53894 0.2271,-0.53937 0.22707,-0.53462 0.22708,-0.53159 0.22709,-0.52899 0.22707,-0.52512 0.22709,-0.52291 0.22709,-0.51904 0.22706,-0.51647 0.2271,-0.51385 0.22708,-0.51213 0.22707,-0.50866 0.2271,-0.5065 0.22708,-0.50175 0.22708,-0.50044 0.22708,-0.49655 0.22708,-0.49656 0.2271,-0.49136 0.22706,-0.48833 0.2271,-0.48617 0.22708,-0.48445 0.22707,-0.48142 0.22709,-0.47839 0.22708,-0.47534 0.22707,-0.47191 0.2271,-0.4719 0.22708,-0.46757 0.22708,-0.46541 0.22708,-0.46194 0.22708,-0.46154 0.2271,-0.45633 0.22706,-0.45501 0.2271,-0.45331 0.22708,-0.45072 0.22707,-0.44636 0.2271,-0.44551 0.22708,-0.44293 0.22706,-0.44033 0.2271,-0.43815 0.22708,-0.4347 0.22708,-0.43341 0.22708,-0.42778 0.22708,-0.43037 0.2271,-0.42432 0.22707,-0.42433 0.22709,-0.42085 0.22708,-0.41869 0.22707,-0.41612 0.2271,-0.41392 0.22708,-0.41309 0.22706,-0.40918 0.2271,-0.40657 0.22708,-0.40486 0.22708,-0.40357 0.22708,-0.40008 0.22709,-0.39838 0.22708,-0.39706 0.22708,-0.39232 0.2271,-0.39144 0.22708,-0.39016 0.22706,-0.38712 0.2271,-0.38539 0.22708,-0.3828 0.22707,-0.38148 0.22709,-0.37892 0.22708,-0.37631 0.22709,-0.37544 0.22708,-0.37197 0.22708,-0.3707 0.22708,-0.36851 0.22708,-0.36637 0.2271,-0.36462 0.22708,-0.36205 0.22706,-0.36073 0.2271,-0.35814 0.22708,-0.35511 0.22707,-0.35512 0.22709,-0.35208 0.22709,-0.3508 0.22708,-0.34818 0.22708,-0.34647 0.22708,-0.34559 0.22708,-0.343 0.22708,-0.34084 0.2271,-0.33955 0.22708,-0.33695 0.22707,-0.33522 0.22709,-0.33305 0.22708,-0.33219 0.22707,-0.3309 0.2271,-0.32656 0.22708,-0.32613 0.22708,-0.3244 0.22708,-0.32267 0.22708,-0.32008 0.22708,-0.31922 0.22708,-0.31704 0.2271,-0.31576 0.22707,-0.31359 0.22708,-0.31229 0.2271,-0.31013 0.22708,-0.30797 0.22706,-0.3071 0.2271,-0.30494 0.22708,-0.30364 0.22708,-0.30148 0.22708,-0.30062 0.22708,-0.29844 0.22708,-0.2963 0.22709,-0.29455 0.22709,-0.2937 0.22707,-0.29195 0.22708,-0.28937 0.2271,-0.28894 0.22708,-0.2872 0.22706,-0.28548 0.2271,-0.28375 0.22708,-0.28159 0.22708,-0.28201 0.22709,-0.27897 0.22708,-0.27684 0.22708,-0.27639 0.22708,-0.27467 0.2271,-0.27336 0.22706,-0.27163 0.22708,-0.26904 0.2271,-0.26946 0.22708,-0.26646 0.22707,-0.26557 0.22709,-0.2634 0.22708,-0.263 0.22708,-0.26125 0.22709,-0.26039 0.22708,-0.2578 0.22708,-0.25778 0.22708,-0.25477 0.2271,-0.25432 0.22707,-0.25218 0.22708,-0.2513 0.22709,-0.24915 0.22707,-0.2487 0.22708,-0.24741 0.2271,-0.24568 0.22708,-0.24397 0.22708,-0.24307 0.22708,-0.24137 0.22708,-0.24049 0.22708,-0.23877 0.22708,-0.23702 0.2271,-0.2366 0.22707,-0.23486 0.22708,-0.23445 0.22709,-0.23183 0.22707,-0.2314 0.22708,-0.22969 0.2271,-0.2288 0.22708,-0.22709 0.22708,-0.22623 0.22708,-0.2249 0.22708,-0.2232 0.22709,-0.22276 0.22708,-0.22015 0.22709,-0.22103 0.22707,-0.218 0.22708,-0.21758 0.2271,-0.21583 0.22706,-0.21539 0.22708,-0.21325 0.2271,-0.21324 0.22707,-0.21151 0.22709,-0.21064 0.22708,-0.20892 0.22709,-0.20848 0.22708,-0.20633 0.22708,-0.20545 0.22709,-0.20503 0.22707,-0.20329 0.22708,-0.202 0.2271,-0.20069 0.22706,-0.19983 0.22709,-0.1994 0.22709,-0.1981 0.22707,-0.19638 0.2271,-0.19593 0.22708,-0.19422 0.22708,-0.19334 0.22708,-0.19248 0.22708,-0.19205 0.2271,-0.18989 0.22706,-0.18944 0.22708,-0.18815 0.2271,-0.18729 0.22707,-0.18643 0.22708,-0.18512 0.22709,-0.1834 0.22707,-0.18254 0.2271,-0.18252 0.22708,-0.18125 0.22708,-0.17993 0.22708,-0.17908 0.22708,-0.17732 0.2271,-0.17735 0.22706,-0.17604 0.22709,-0.17519 0.22709,-0.17387 0.22707,-0.17345 0.22708,-0.17215 0.2271,-0.17129 0.22706,-0.17041 0.2271,-0.16954 0.22708,-0.16828 0.22707,-0.16739 0.22709,-0.16609 0.22708,-0.16566 0.2271,-0.16481 0.22707,-0.16392 0.22708,-0.16264 0.22709,-0.1622 0.22707,-0.1609 0.22708,-0.16004 0.2271,-0.1596 0.22706,-0.15832 0.22707,-0.15788 0.22708,-0.15571 0.22707,-0.1557 L 0.75822,27.82515 0.9853,27.67203 1.2124,27.51631 1.43947,27.3658 1.66655,27.21312 1.89365,27.06259 2.12071,26.91249 2.3478,26.765 2.57489,26.61751 2.80196,26.47044 3.02905,26.32295 3.25613,26.17546 3.4832,26.03099 3.7103,25.8861 3.93738,25.74464 4.16447,25.60019 4.39154,25.4583 4.61862,25.31946 4.84572,25.17758 5.07278,25.03874 5.29987,24.8999 5.52696,24.76366 5.75403,24.62482 5.98112,24.48898 6.2082,24.35274 6.43527,24.21951 6.66237,24.08327 6.88945,23.95004 7.11653,23.81682 7.34361,23.68663 7.5707,23.5534 7.79779,23.42581 8.02486,23.29518 8.25194,23.165 8.47903,23.03738 8.7061,22.9098 l 0.2271,-0.1276 0.22708,-0.12458 0.22706,-0.12457 0.2271,-0.125 0.22708,-0.12457 0.22708,-0.125 0.22708,-0.12155 0.22709,-0.12198 0.22709,-0.12197 0.22707,-0.12198 0.2271,-0.11895 0.22707,-0.11895 0.22707,-0.11895 0.2271,-0.11634 0.22708,-0.11895 0.22707,-0.11635 0.22709,-0.11636 0.22709,-0.11634 0.22708,-0.11334 0.22708,-0.11591 0.22708,-0.11073 0.22709,-0.11333 0.22707,-0.11332 0.2271,-0.11074 0.22708,-0.11332 0.22706,-0.11074 0.2271,-0.10769 0.22708,-0.11029 0.22707,-0.10771 0.2271,-0.1077 0.22708,-0.10769 0.22708,-0.10772 0.22708,-0.1051 0.22708,-0.10468 0.22708,-0.1077 0.22708,-0.1051 0.2271,-0.10208 0.22708,-0.10208 0.22707,-0.10469 0.22709,-0.10207 0.22709,-0.10208 0.22706,-0.09904 0.2271,-0.10208 0.22708,-0.09949 0.22708,-0.09906 0.22708,-0.09904 0.22708,-0.09948 0.22708,-0.09646 0.22709,-0.09603 0.22709,-0.09645 0.22708,-0.09647 0.22707,-0.09644 0.2271,-0.09647 0.22708,-0.09341 0.22706,-0.09343 0.2271,-0.09388 0.22708,-0.09341 0.22708,-0.09343 0.22708,-0.09083 0.22708,-0.09084 0.22709,-0.09039 0.22708,-0.09084 0.22709,-0.09083 0.22709,-0.0878 0.22706,-0.09084 0.2271,-0.08781 0.22708,-0.0878 0.22706,-0.08782 0.2271,-0.0878 0.22708,-0.0852 0.22708,-0.08478 0.22709,-0.08824 0.22708,-0.08478 0.22708,-0.08218 0.22708,-0.08521 0.2271,-0.08478 0.22706,-0.08261 0.22708,-0.08218 0.2271,-0.08218 0.22708,-0.08219 0.22707,-0.08218 0.22709,-0.07915 0.22709,-0.08218 0.22708,-0.07959 0.22708,-0.07915 0.22708,-0.07961 0.22708,-0.07913 0.22708,-0.07658 0.2271,-0.07958 0.22706,-0.07655 0.22708,-0.07657 0.2271,-0.07655 0.22708,-0.07656 0.22707,-0.07612 0.2271,-0.07396 0.22708,-0.07658 0.22708,-0.07354 0.22708,-0.07394 0.22708,-0.07353 0.22708,-0.07353 0.22708,-0.07396 0.2271,-0.07096 0.22707,-0.07353 0.22708,-0.07094 0.22709,-0.07092 0.22707,-0.07094 0.22708,-0.07051 0.2271,-0.07092 0.22708,-0.06834 0.22708,-0.07052 0.22708,-0.06833 0.22708,-0.06791 0.22708,-0.0679 0.22708,-0.06835 0.2271,-0.06792 0.22707,-0.0653 0.22708,-0.0679 0.2271,-0.06533 0.22706,-0.06791 0.22709,-0.06531 0.22709,-0.06488 0.22708,-0.06227 0.22708,-0.06533 0.22708,-0.0653 0.22709,-0.06229 0.22708,-0.06532 0.22708,-0.06229 0.22709,-0.06229 0.22707,-0.06227 0.22708,-0.06273 0.2271,-0.06228 0.22706,-0.05925 0.22709,-0.06273 0.22709,-0.05925 0.22708,-0.05969 0.22708,-0.05925 0.22708,-0.05971 0.22709,-0.05968 0.22708,-0.05926 0.22708,-0.0597 0.2271,-0.05665 0.22706,-0.0597 0.22709,-0.05667 0.22709,-0.05925 0.22707,-0.05665 0.22708,-0.05666 0.22709,-0.0571 0.22707,-0.05363 0.2271,-0.05667 L 42.76848,9.95831 42.99556,9.90424 43.22264,9.8506 43.44972,9.79395 43.67682,9.73987 43.90388,9.68623 44.13097,9.63217 44.35806,9.57855 44.58513,9.5275 44.81221,9.47342 45.0393,9.4224 45.26637,9.36876 45.49347,9.31772 45.72055,9.26668 45.94763,9.21564 46.17471,9.1646 46.4018,9.11356 46.62889,9.06252 46.85596,9.01147 47.08304,8.96303 47.31013,8.91243 47.5372,8.864 l 0.22708,-0.05106 0.2271,-0.048 0.22706,-0.04845 0.2271,-0.04802 0.22708,-0.04844 0.22708,-0.04801 0.22709,-0.048 0.22708,-0.04543 0.22709,-0.04844 0.22707,-0.04499 0.22708,-0.04843 0.22709,-0.04543 0.22707,-0.0454 0.22708,-0.04499 0.2271,-0.04542 0.22707,-0.04543 0.22709,-0.04541 0.22709,-0.04542 0.22706,-0.0454 0.2271,-0.0424 0.22708,-0.04541 0.2271,-0.04239 0.22706,-0.04239 0.22708,-0.04541 0.2271,-0.04283 0.22707,-0.04239 0.22708,-0.04239 0.22709,-0.04282 0.22707,-0.04239 0.2271,-0.03979 0.22708,-0.04239 0.22706,-0.04237 0.2271,-0.03981 0.22708,-0.0398 0.22709,-0.04237 0.22707,-0.03981 0.22708,-0.03978 0.2271,-0.03937 0.22707,-0.03979 0.22708,-0.0398"
       style="fill:none;stroke:#b39af0;stroke-width:0.99628;stroke-linecap:butt;stroke-linejoin:miter;stroke-miterlimit:10;stroke-dasharray:none;stroke-opacity:1"
       transform="matrix(1.3333333,0,0,-1.3333333,94.488,170.08)" />
    <g
       id="g5"
       aria-label="(0,1)"
       transform="matrix(1.3333333,0,0,1.3333333,99.237333,124.26667)">
      <path
         id="path6"
         d="m 3.2936797,2.3898437 c 0,-0.035156 0,-0.046875 -0.1640625,-0.2226562 C 1.8874297,0.91328125 1.5593047,-0.96171875 1.5593047,-2.496875 c 0,-1.7226563 0.3867187,-3.4570313 1.6054687,-4.7109375 C 3.2936797,-7.325 3.2936797,-7.3367188 3.2936797,-7.371875 c 0,-0.070312 -0.035156,-0.1054688 -0.09375,-0.1054688 -0.1054688,0 -0.9960938,0.6796875 -1.5820313,1.9453125 -0.515625,1.1015625 -0.63281246,2.203125 -0.63281246,3.0351563 0,0.7851562 0.11718746,1.9921875 0.65624996,3.1171875 0.5976563,1.21875 1.453125,1.875 1.5585938,1.875 0.058594,0 0.09375,-0.035156 0.09375,-0.1054688 z m 0,0"
         style="fill:#c9d1d9;fill-opacity:1;fill-rule:nonzero;stroke:none" />
      <path
         id="path7"
         d="m 6.5573516,0.11640625 c 1.3359375,0 2.1328125,-1.21875005 2.1328125,-3.31640625 0,-2.0859375 -0.796875,-3.28125 -2.1328125,-3.28125 -1.3242188,0 -2.1328125,1.1835937 -2.1328125,3.28125 0,2.0976562 0.8085937,3.31640625 2.1328125,3.31640625 z m 0,-0.66796875 c -0.7851563,0 -1.3007813,-0.8085938 -1.3007813,-2.6484375 0,-1.8515625 0.515625,-2.6132813 1.3007813,-2.6132813 0.7851562,0 1.3007812,0.7617188 1.3007812,2.6132813 0,1.8398437 -0.515625,2.6484375 -1.3007812,2.6484375 z m 0,0"
         style="fill:#c9d1d9;fill-opacity:1;fill-rule:nonzero;stroke:none" />
      <path
         id="path8"
         d="m 11.26243,-0.0125 c 0,-0.65625 -0.257813,-1.0429688 -0.644532,-1.0429688 -0.328125,0 -0.527343,0.2460938 -0.527343,0.5273438 0,0.26953125 0.199218,0.52734375 0.527343,0.52734375 0.117188,0 0.246094,-0.03515625 0.351563,-0.12890625 0.02344,-0.0234375 0.03516,-0.0351563 0.04687,-0.0351563 0.01172,0 0.02344,0.0117188 0.02344,0.15234375 0,0.73828125 -0.351562,1.33593755 -0.679687,1.66406255 -0.105469,0.1054687 -0.105469,0.1289062 -0.105469,0.1640625 0,0.070312 0.04687,0.1054687 0.09375,0.1054687 0.117188,0 0.914063,-0.7617187 0.914063,-1.93359375 z m 0,0"
         style="fill:#c9d1d9;fill-opacity:1;fill-rule:nonzero;stroke:none" />
      <path
         id="path9"
         d="m 15.325906,-7.8125e-4 h 0.832032 V -6.3523438 h -0.644532 c -0.351562,0.2109375 -0.761718,0.3632813 -1.347656,0.46875 v 0.5390625 h 1.160156 z m 0,0"
         style="fill:#c9d1d9;fill-opacity:1;fill-rule:nonzero;stroke:none" />
      <path
         id="path10"
         d="m 20.230203,-2.496875 c 0,-0.7734375 -0.117187,-1.9804688 -0.65625,-3.1054688 -0.597656,-1.21875 -1.464844,-1.875 -1.558594,-1.875 -0.05859,0 -0.105468,0.046875 -0.105468,0.1054688 0,0.035156 0,0.046875 0.199218,0.234375 0.972657,0.984375 1.535157,2.5664062 1.535157,4.640625 0,1.7109375 -0.363282,3.45703125 -1.59375,4.7226562 -0.140625,0.1171875 -0.140625,0.1289063 -0.140625,0.1640625 0,0.058594 0.04687,0.1054688 0.105468,0.1054688 0.09375,0 0.996094,-0.6796875 1.582032,-1.9453125 0.503906,-1.1015625 0.632812,-2.203125 0.632812,-3.046875 z m 0,0"
         style="fill:#c9d1d9;fill-opacity:1;fill-rule:nonzero;stroke:none" />
    </g>
    <path
       id="path11"
       d="m 1.93672,28.3468 c 0,1.06963 -0.86709,1.93674 -1.93672,1.93674 -1.06963,0 -1.93672,-0.86711 -1.93672,-1.93674 0,-1.06962 0.86709,-1.93674 1.93672,-1.93674 1.06963,0 1.93672,0.86712 1.93672,1.93674 z"
       style="fill:#c9d1d9;fill-opacity:1;fill-rule:nonzero;stroke:#c9d1d9;stroke-width:0.3985;stroke-linecap:butt;stroke-linejoin:miter;stroke-miterlimit:10;stroke-dasharray:none;stroke-opacity:1"
       transform="matrix(1.3333333,0,0,-1.3333333,94.488,170.08)" />
  </g>
</svg>
