<?xml version="1.0" encoding="UTF-8" standalone="no"?>
<!-- Created with Inkscape (http://www.inkscape.org/) -->

<svg
   version="1.1"
   id="svg1"
   width="491.33334"
   height="491.33334"
   viewBox="0 0 491.33334 491.33334"
   sodipodi:docname="MATH_118-56.pdf"
   xmlns:inkscape="http://www.inkscape.org/namespaces/inkscape"
   xmlns:sodipodi="http://sodipodi.sourceforge.net/DTD/sodipodi-0.dtd"
   xmlns="http://www.w3.org/2000/svg"
   xmlns:svg="http://www.w3.org/2000/svg">
  <defs
     id="defs1" />
  <sodipodi:namedview
     id="namedview1"
     pagecolor="#ffffff"
     bordercolor="#000000"
     borderopacity="0.25"
     inkscape:showpageshadow="2"
     inkscape:pageopacity="0.0"
     inkscape:pagecheckerboard="0"
     inkscape:deskcolor="#d1d1d1">
    <inkscape:page
       x="0"
       y="0"
       inkscape:label="1"
       id="page1"
       width="491.33334"
       height="491.33334"
       margin="0"
       bleed="0" />
  </sodipodi:namedview>
  <g
     id="g1"
     inkscape:groupmode="layer"
     inkscape:label="1">
    <path
       id="path1"
       d="m -170.08086,0 h 339.3647"
       style="fill:none;stroke:#c9d1d9;stroke-width:0.79701;stroke-linecap:butt;stroke-linejoin:miter;stroke-miterlimit:10;stroke-dasharray:none;stroke-opacity:1"
       transform="matrix(1.3333333,0,0,-1.3333333,245.66933,245.664)" />
    <path
       id="path2"
       d="M -2.55046,3.11095 C -2.0845,1.24435 -1.04614,0.36295 0,0 -1.04614,-0.36295 -2.0845,-1.24435 -2.55046,-3.11095"
       style="fill:none;stroke:#c9d1d9;stroke-width:0.79701;stroke-linecap:round;stroke-linejoin:round;stroke-miterlimit:10;stroke-dasharray:none;stroke-opacity:1"
       transform="matrix(1.3333333,0,0,-1.3333333,471.91245,245.664)" />
    <path
       id="path3"
       d="m 0,-170.08086 v 339.3647"
       style="fill:none;stroke:#c9d1d9;stroke-width:0.79701;stroke-linecap:butt;stroke-linejoin:miter;stroke-miterlimit:10;stroke-dasharray:none;stroke-opacity:1"
       transform="matrix(1.3333333,0,0,-1.3333333,245.66933,245.664)" />
    <path
       id="path4"
       d="M -2.55046,3.11095 C -2.0845,1.24435 -1.04614,0.36295 0,0 -1.04614,-0.36295 -2.0845,-1.24435 -2.55046,-3.11095"
       style="fill:none;stroke:#c9d1d9;stroke-width:0.79701;stroke-linecap:round;stroke-linejoin:round;stroke-miterlimit:10;stroke-dasharray:none;stroke-opacity:1"
       transform="matrix(0,-1.3333333,-1.3333333,0,245.66933,19.42088)" />
    <path
       id="path5"
       d="m -141.7341,1.99255 v -3.9851"
       style="fill:none;stroke:#c9d1d9;stroke-width:0.3985;stroke-linecap:butt;stroke-linejoin:miter;stroke-miterlimit:10;stroke-dasharray:none;stroke-opacity:1"
       transform="matrix(1.3333333,0,0,-1.3333333,245.66933,245.664)" />
    <g
       id="g5"
       aria-label="−5"
       transform="matrix(1.3333333,0,0,1.3333333,48.224,261.48933)">
      <path
         id="path6"
         d="m 6.5614922,-2.2976641 c 0.1757812,0 0.3515625,0 0.3515625,-0.1992187 0,-0.1992188 -0.1757813,-0.1992188 -0.3515625,-0.1992188 h -5.390625 c -0.1640625,0 -0.33984376,0 -0.33984376,0.1992188 0,0.1992187 0.17578126,0.1992187 0.33984376,0.1992187 z m 0,0"
         style="fill:#c9d1d9;fill-opacity:1;fill-rule:nonzero;stroke:none" />
      <path
         id="path7"
         d="m 10.080047,0.11639844 c 1.101562,0 2.144531,-0.7734375 2.144531,-2.14453124 0,-1.3828125 -0.890625,-1.9921875 -1.96875,-1.9921875 -0.3867186,0 -0.6796874,0.09375 -0.9726561,0.2578125 l 0.1640625,-1.875 H 11.908172 V -6.3523516 H 8.7206719 l -0.2109375,3.0585938 0.4453125,0.2695312 c 0.375,-0.2460937 0.6445312,-0.375 1.0898441,-0.375 0.808593,0 1.335937,0.5039063 1.335937,1.3828125 0,0.890625 -0.609375,1.45312504 -1.3828124,1.45312504 -0.75,0 -1.21875,-0.3515625 -1.6054687,-0.73828124 l -0.3984375,0.55078124 c 0.4453125,0.4453125 1.0664062,0.8671875 2.0859376,0.8671875 z m 0,0"
         style="fill:#c9d1d9;fill-opacity:1;fill-rule:nonzero;stroke:none" />
    </g>
    <path
       id="path8"
       d="m -113.38728,1.99255 v -3.9851"
       style="fill:none;stroke:#c9d1d9;stroke-width:0.3985;stroke-linecap:butt;stroke-linejoin:miter;stroke-miterlimit:10;stroke-dasharray:none;stroke-opacity:1"
       transform="matrix(1.3333333,0,0,-1.3333333,245.66933,245.664)" />
    <g
       id="g8"
       aria-label="−4"
       transform="matrix(1.3333333,0,0,1.3333333,85.866667,261.48933)">
      <path
         id="path9"
         d="m 6.5628906,-2.2976641 c 0.1757813,0 0.3515625,0 0.3515625,-0.1992187 0,-0.1992188 -0.1757812,-0.1992188 -0.3515625,-0.1992188 h -5.390625 c -0.1640625,0 -0.33984373,0 -0.33984373,0.1992188 0,0.1992187 0.17578123,0.1992187 0.33984373,0.1992187 z m 0,0"
         style="fill:#c9d1d9;fill-opacity:1;fill-rule:nonzero;stroke:none" />
      <path
         id="path10"
         d="m 8.9564453,-2.4148516 1.4882817,-2.15625 c 0.175781,-0.3164062 0.351562,-0.5976562 0.515625,-0.9023437 h 0.03516 c -0.02344,0.3398437 -0.04687,0.890625 -0.04687,1.21875 v 1.8398437 z M 10.948633,-7.890625e-4 H 11.72207 V -1.7586016 h 0.867188 v -0.65625 H 11.72207 v -3.9375 h -0.914062 l -2.7187502,4.0546875 v 0.5390625 h 2.8593752 z m 0,0"
         style="fill:#c9d1d9;fill-opacity:1;fill-rule:nonzero;stroke:none" />
    </g>
    <path
       id="path11"
       d="m -85.04045,1.99255 v -3.9851"
       style="fill:none;stroke:#c9d1d9;stroke-width:0.3985;stroke-linecap:butt;stroke-linejoin:miter;stroke-miterlimit:10;stroke-dasharray:none;stroke-opacity:1"
       transform="matrix(1.3333333,0,0,-1.3333333,245.66933,245.664)" />
    <g
       id="g11"
       aria-label="−3"
       transform="matrix(1.3333333,0,0,1.3333333,123.81467,261.648)">
      <path
         id="path12"
         d="m 6.5638047,-2.2965469 c 0.1757812,0 0.3515625,0 0.3515625,-0.1992187 0,-0.1992188 -0.1757813,-0.1992188 -0.3515625,-0.1992188 h -5.390625 c -0.1640625,0 -0.33984376,0 -0.33984376,0.1992188 0,0.1992187 0.17578126,0.1992187 0.33984376,0.1992187 z m 0,0"
         style="fill:#c9d1d9;fill-opacity:1;fill-rule:nonzero;stroke:none" />
      <path
         id="path13"
         d="m 10.105797,0.11751563 c 1.160156,0 2.097656,-0.6796875 2.097656,-1.81640623 0,-0.8671875 -0.609375,-1.4296875 -1.371094,-1.6054688 v -0.046875 c 0.679688,-0.2578125 1.136719,-0.7382812 1.136719,-1.5117187 0,-1.0195313 -0.796875,-1.6171875 -1.898437,-1.6171875 -0.7500004,0 -1.3359379,0.3398437 -1.8164066,0.796875 l 0.4335937,0.5273437 c 0.375,-0.375 0.8203125,-0.6445312 1.3593749,-0.6445312 0.667969,0 1.089844,0.3867187 1.089844,0.9960937 0,0.6679688 -0.457031,1.1835938 -1.8046876,1.1835938 v 0.6328125 c 1.5117186,0 2.0390626,0.5039062 2.0390626,1.265625 0,0.703125 -0.550781,1.16015623 -1.324219,1.16015623 -0.7382811,0 -1.2421874,-0.3515625 -1.6171874,-0.75000003 l -0.421875,0.53906253 c 0.4335938,0.46875 1.078125,0.890625 2.0976564,0.890625 z m 0,0"
         style="fill:#c9d1d9;fill-opacity:1;fill-rule:nonzero;stroke:none" />
    </g>
    <path
       id="path14"
       d="m -56.69363,1.99255 v -3.9851"
       style="fill:none;stroke:#c9d1d9;stroke-width:0.3985;stroke-linecap:butt;stroke-linejoin:miter;stroke-miterlimit:10;stroke-dasharray:none;stroke-opacity:1"
       transform="matrix(1.3333333,0,0,-1.3333333,245.66933,245.664)" />
    <g
       id="g14"
       aria-label="−2"
       transform="matrix(1.3333333,0,0,1.3333333,161.584,261.648)">
      <path
         id="path15"
         d="m 6.5639531,-2.2965469 c 0.1757813,0 0.3515625,0 0.3515625,-0.1992187 0,-0.1992188 -0.1757812,-0.1992188 -0.3515625,-0.1992188 h -5.390625 c -0.1640625,0 -0.33984373,0 -0.33984373,0.1992188 0,0.1992187 0.17578123,0.1992187 0.33984373,0.1992187 z m 0,0"
         style="fill:#c9d1d9;fill-opacity:1;fill-rule:nonzero;stroke:none" />
      <path
         id="path16"
         d="M 8.1811406,3.28125e-4 H 12.212391 V -0.70279687 h -1.804688 c -0.339844,0 -0.7265624,0.0117188 -1.0664061,0.046875 1.5000001,-1.57031253 2.6015621,-2.75390623 2.6015621,-3.94921873 0,-1.125 -0.714843,-1.875 -1.898437,-1.875 -0.7968751,0 -1.3593751,0.375 -1.9101564,0.9960937 l 0.4570313,0.4453125 c 0.3632812,-0.421875 0.8320312,-0.7617187 1.359375,-0.7617187 0.8085941,0 1.1835941,0.515625 1.1835941,1.2421875 0,1.0195312 -1.066407,2.1679687 -2.9531254,4.06640623 z m 0,0"
         style="fill:#c9d1d9;fill-opacity:1;fill-rule:nonzero;stroke:none" />
    </g>
    <path
       id="path17"
       d="m -28.3468,1.99255 v -3.9851"
       style="fill:none;stroke:#c9d1d9;stroke-width:0.3985;stroke-linecap:butt;stroke-linejoin:miter;stroke-miterlimit:10;stroke-dasharray:none;stroke-opacity:1"
       transform="matrix(1.3333333,0,0,-1.3333333,245.66933,245.664)" />
    <g
       id="g17"
       aria-label="−1"
       transform="matrix(1.3333333,0,0,1.3333333,200.25067,261.48933)">
      <path
         id="path18"
         d="m 6.562,-2.2976641 c 0.1757813,0 0.3515625,0 0.3515625,-0.1992187 0,-0.1992188 -0.1757812,-0.1992188 -0.3515625,-0.1992188 H 1.171375 c -0.1640625,0 -0.33984375,0 -0.33984375,0.1992188 0,0.1992187 0.17578125,0.1992187 0.33984375,0.1992187 z m 0,0"
         style="fill:#c9d1d9;fill-opacity:1;fill-rule:nonzero;stroke:none" />
      <path
         id="path19"
         d="M 9.4125859,-7.890625e-4 H 10.244617 V -6.3523516 H 9.6000859 c -0.3515625,0.2109375 -0.7617187,0.3632813 -1.3476562,0.46875 v 0.5390625 h 1.1601562 z m 0,0"
         style="fill:#c9d1d9;fill-opacity:1;fill-rule:nonzero;stroke:none" />
    </g>
    <path
       id="path20"
       d="m 28.3468,1.99255 v -3.9851"
       style="fill:none;stroke:#c9d1d9;stroke-width:0.3985;stroke-linecap:butt;stroke-linejoin:miter;stroke-miterlimit:10;stroke-dasharray:none;stroke-opacity:1"
       transform="matrix(1.3333333,0,0,-1.3333333,245.66933,245.664)" />
    <path
       id="path21"
       d="M 1.6639219,-7.890625e-4 H 2.4959531 V -6.3523516 H 1.8514219 c -0.3515625,0.2109375 -0.7617188,0.3632813 -1.34765627,0.46875 v 0.5390625 H 1.6639219 Z m 0,0"
       style="fill:#c9d1d9;fill-opacity:1;fill-rule:nonzero;stroke:none"
       aria-label="1"
       transform="matrix(1.3333333,0,0,1.3333333,281.008,261.48933)" />
    <path
       id="path22"
       d="m 56.69363,1.99255 v -3.9851"
       style="fill:none;stroke:#c9d1d9;stroke-width:0.3985;stroke-linecap:butt;stroke-linejoin:miter;stroke-miterlimit:10;stroke-dasharray:none;stroke-opacity:1"
       transform="matrix(1.3333333,0,0,-1.3333333,245.66933,245.664)" />
    <path
       id="path23"
       d="M 0.43378906,3.28125e-4 H 4.4650391 V -0.70279687 H 2.6603516 c -0.3398438,0 -0.7265625,0.0117188 -1.0664063,0.046875 1.5,-1.57031253 2.6015625,-2.75390623 2.6015625,-3.94921873 0,-1.125 -0.7148437,-1.875 -1.8984375,-1.875 -0.796875,0 -1.35937499,0.375 -1.91015624,0.9960937 l 0.45703125,0.4453125 c 0.36328129,-0.421875 0.83203129,-0.7617187 1.35937499,-0.7617187 0.8085938,0 1.1835938,0.515625 1.1835938,1.2421875 0,1.0195312 -1.0664063,2.1679687 -2.95312504,4.06640623 z m 0,0"
       style="fill:#c9d1d9;fill-opacity:1;fill-rule:nonzero;stroke:none"
       aria-label="2"
       transform="matrix(1.3333333,0,0,1.3333333,317.93333,261.648)" />
    <path
       id="path24"
       d="m 85.04045,1.99255 v -3.9851"
       style="fill:none;stroke:#c9d1d9;stroke-width:0.3985;stroke-linecap:butt;stroke-linejoin:miter;stroke-miterlimit:10;stroke-dasharray:none;stroke-opacity:1"
       transform="matrix(1.3333333,0,0,-1.3333333,245.66933,245.664)" />
    <path
       id="path25"
       d="m 2.3568281,0.11751563 c 1.1601563,0 2.0976563,-0.6796875 2.0976563,-1.81640623 0,-0.8671875 -0.609375,-1.4296875 -1.3710938,-1.6054688 v -0.046875 c 0.6796875,-0.2578125 1.1367188,-0.7382812 1.1367188,-1.5117187 0,-1.0195313 -0.796875,-1.6171875 -1.8984375,-1.6171875 -0.75,0 -1.33593753,0.3398437 -1.81640628,0.796875 l 0.43359375,0.5273437 c 0.37500003,-0.375 0.82031253,-0.6445312 1.35937503,-0.6445312 0.6679687,0 1.0898437,0.3867187 1.0898437,0.9960937 0,0.6679688 -0.4570312,1.1835938 -1.8046875,1.1835938 v 0.6328125 c 1.5117188,0 2.0390625,0.5039062 2.0390625,1.265625 0,0.703125 -0.5507812,1.16015623 -1.3242187,1.16015623 -0.7382813,0 -1.2421875,-0.3515625 -1.61718753,-0.75000003 l -0.421875,0.53906253 c 0.43359375,0.46875 1.07812503,0.890625 2.09765623,0.890625 z m 0,0"
       style="fill:#c9d1d9;fill-opacity:1;fill-rule:nonzero;stroke:none"
       aria-label="3"
       transform="matrix(1.3333333,0,0,1.3333333,355.756,261.648)" />
    <path
       id="path26"
       d="m 113.38728,1.99255 v -3.9851"
       style="fill:none;stroke:#c9d1d9;stroke-width:0.3985;stroke-linecap:butt;stroke-linejoin:miter;stroke-miterlimit:10;stroke-dasharray:none;stroke-opacity:1"
       transform="matrix(1.3333333,0,0,-1.3333333,245.66933,245.664)" />
    <path
       id="path27"
       d="m 1.2068594,-2.4148516 1.4882812,-2.15625 c 0.1757813,-0.3164062 0.3515625,-0.5976562 0.515625,-0.9023437 h 0.035156 c -0.023437,0.3398437 -0.046875,0.890625 -0.046875,1.21875 v 1.8398437 z M 3.1990469,-7.890625e-4 H 3.9724844 V -1.7586016 h 0.8671875 v -0.65625 H 3.9724844 v -3.9375 H 3.0584219 l -2.71875002,4.0546875 v 0.5390625 H 3.1990469 Z m 0,0"
       style="fill:#c9d1d9;fill-opacity:1;fill-rule:nonzero;stroke:none"
       aria-label="4"
       transform="matrix(1.3333333,0,0,1.3333333,393.39867,261.48933)" />
    <path
       id="path28"
       d="m 141.7341,1.99255 v -3.9851"
       style="fill:none;stroke:#c9d1d9;stroke-width:0.3985;stroke-linecap:butt;stroke-linejoin:miter;stroke-miterlimit:10;stroke-dasharray:none;stroke-opacity:1"
       transform="matrix(1.3333333,0,0,-1.3333333,245.66933,245.664)" />
    <path
       id="path29"
       d="m 2.3327734,0.11639844 c 1.1015625,0 2.1445313,-0.7734375 2.1445313,-2.14453124 0,-1.3828125 -0.890625,-1.9921875 -1.96875,-1.9921875 -0.3867188,0 -0.6796875,0.09375 -0.9726563,0.2578125 l 0.1640625,-1.875 H 4.1608984 V -6.3523516 H 0.97339844 l -0.2109375,3.0585938 0.44531246,0.2695312 c 0.375,-0.2460937 0.6445313,-0.375 1.0898438,-0.375 0.8085937,0 1.3359375,0.5039063 1.3359375,1.3828125 0,0.890625 -0.609375,1.45312504 -1.3828125,1.45312504 -0.75,0 -1.21875,-0.3515625 -1.60546876,-0.73828124 l -0.3984375,0.55078124 c 0.4453125,0.4453125 1.06640626,0.8671875 2.08593746,0.8671875 z m 0,0"
       style="fill:#c9d1d9;fill-opacity:1;fill-rule:nonzero;stroke:none"
       aria-label="5"
       transform="matrix(1.3333333,0,0,1.3333333,431.34667,261.48933)" />
    <path
       id="path30"
       d="m 1.99255,-141.7341 h -3.9851"
       style="fill:none;stroke:#c9d1d9;stroke-width:0.3985;stroke-linecap:butt;stroke-linejoin:miter;stroke-miterlimit:10;stroke-dasharray:none;stroke-opacity:1"
       transform="matrix(1.3333333,0,0,-1.3333333,245.66933,245.664)" />
    <g
       id="g30"
       aria-label="−5"
       transform="matrix(1.3333333,0,0,1.3333333,221.38533,438.32667)">
      <path
         id="path31"
         d="m 6.5635391,-2.2957813 c 0.1757812,0 0.3515625,0 0.3515625,-0.1992187 0,-0.1992188 -0.1757813,-0.1992188 -0.3515625,-0.1992188 h -5.390625 c -0.1640625,0 -0.33984379,0 -0.33984379,0.1992188 0,0.1992187 0.17578129,0.1992187 0.33984379,0.1992187 z m 0,0"
         style="fill:#c9d1d9;fill-opacity:1;fill-rule:nonzero;stroke:none" />
      <path
         id="path32"
         d="m 10.082094,0.11828125 c 1.101562,0 2.144531,-0.7734375 2.144531,-2.14453125 0,-1.3828125 -0.890625,-1.9921875 -1.96875,-1.9921875 -0.3867187,0 -0.6796875,0.09375 -0.9726562,0.2578125 l 0.1640625,-1.875 H 11.910219 V -6.3504688 H 8.7227188 l -0.2109375,3.0585938 0.4453125,0.2695312 c 0.375,-0.2460937 0.6445312,-0.375 1.0898442,-0.375 0.808593,0 1.335937,0.5039063 1.335937,1.3828125 0,0.890625 -0.609375,1.45312505 -1.382812,1.45312505 -0.7500005,0 -1.2187505,-0.3515625 -1.6054692,-0.73828125 l -0.3984375,0.55078125 c 0.4453125,0.4453125 1.0664062,0.8671875 2.0859377,0.8671875 z m 0,0"
         style="fill:#c9d1d9;fill-opacity:1;fill-rule:nonzero;stroke:none" />
    </g>
    <path
       id="path33"
       d="m 1.99255,-113.38728 h -3.9851"
       style="fill:none;stroke:#c9d1d9;stroke-width:0.3985;stroke-linecap:butt;stroke-linejoin:miter;stroke-miterlimit:10;stroke-dasharray:none;stroke-opacity:1"
       transform="matrix(1.3333333,0,0,-1.3333333,245.66933,245.664)" />
    <g
       id="g33"
       aria-label="−4"
       transform="matrix(1.3333333,0,0,1.3333333,221.08,400.53067)">
      <path
         id="path34"
         d="m 6.5610937,-2.2964375 c 0.1757813,0 0.3515625,0 0.3515625,-0.1992188 0,-0.1992187 -0.1757812,-0.1992187 -0.3515625,-0.1992187 h -5.390625 c -0.1640625,0 -0.3398437,0 -0.3398437,0.1992187 0,0.1992188 0.1757812,0.1992188 0.3398437,0.1992188 z m 0,0"
         style="fill:#c9d1d9;fill-opacity:1;fill-rule:nonzero;stroke:none" />
      <path
         id="path35"
         d="m 8.9546484,-2.413625 1.4882816,-2.15625 c 0.175781,-0.3164063 0.351562,-0.5976563 0.515625,-0.9023438 h 0.03516 c -0.02344,0.3398438 -0.04687,0.890625 -0.04687,1.21875 V -2.413625 Z M 10.946836,4.375e-4 h 0.773437 V -1.757375 h 0.867188 v -0.65625 h -0.867188 v -3.9375 h -0.914062 l -2.7187501,4.0546875 v 0.5390625 h 2.8593751 z m 0,0"
         style="fill:#c9d1d9;fill-opacity:1;fill-rule:nonzero;stroke:none" />
    </g>
    <path
       id="path36"
       d="m 1.99255,-85.04045 h -3.9851"
       style="fill:none;stroke:#c9d1d9;stroke-width:0.3985;stroke-linecap:butt;stroke-linejoin:miter;stroke-miterlimit:10;stroke-dasharray:none;stroke-opacity:1"
       transform="matrix(1.3333333,0,0,-1.3333333,245.66933,245.664)" />
    <g
       id="g36"
       aria-label="−3"
       transform="matrix(1.3333333,0,0,1.3333333,221.38533,362.81467)">
      <path
         id="path37"
         d="m 6.5635391,-2.2955703 c 0.1757812,0 0.3515625,0 0.3515625,-0.1992188 0,-0.1992187 -0.1757813,-0.1992187 -0.3515625,-0.1992187 h -5.390625 c -0.1640625,0 -0.33984379,0 -0.33984379,0.1992187 0,0.1992188 0.17578129,0.1992188 0.33984379,0.1992188 z m 0,0"
         style="fill:#c9d1d9;fill-opacity:1;fill-rule:nonzero;stroke:none" />
      <path
         id="path38"
         d="m 10.105531,0.11849219 c 1.160157,0 2.097657,-0.6796875 2.097657,-1.81640629 0,-0.8671875 -0.609375,-1.4296875 -1.371094,-1.6054687 v -0.046875 c 0.679687,-0.2578125 1.136719,-0.7382813 1.136719,-1.5117188 0,-1.0195312 -0.796875,-1.6171875 -1.898438,-1.6171875 -0.75,0 -1.3359375,0.3398438 -1.8164062,0.796875 l 0.4335937,0.5273438 c 0.375,-0.375 0.8203125,-0.6445313 1.3593755,-0.6445313 0.667968,0 1.089843,0.3867188 1.089843,0.9960938 0,0.6679687 -0.457031,1.1835937 -1.8046872,1.1835937 v 0.6328125 c 1.5117192,0 2.0390622,0.5039063 2.0390622,1.265625 0,0.703125 -0.550781,1.16015629 -1.324218,1.16015629 -0.7382817,0 -1.242188,-0.3515625 -1.617188,-0.74999999 l -0.421875,0.53906249 c 0.4335938,0.46875 1.078125,0.890625 2.097656,0.890625 z m 0,0"
         style="fill:#c9d1d9;fill-opacity:1;fill-rule:nonzero;stroke:none" />
    </g>
    <path
       id="path39"
       d="m 1.99255,-56.69363 h -3.9851"
       style="fill:none;stroke:#c9d1d9;stroke-width:0.3985;stroke-linecap:butt;stroke-linejoin:miter;stroke-miterlimit:10;stroke-dasharray:none;stroke-opacity:1"
       transform="matrix(1.3333333,0,0,-1.3333333,245.66933,245.664)" />
    <g
       id="g39"
       aria-label="−2"
       transform="matrix(1.3333333,0,0,1.3333333,221.332,325.01867)">
      <path
         id="path40"
         d="m 6.5625234,-2.2962266 c 0.1757813,0 0.3515625,0 0.3515625,-0.1992187 0,-0.1992188 -0.1757812,-0.1992188 -0.3515625,-0.1992188 h -5.390625 c -0.1640625,0 -0.33984371,0 -0.33984371,0.1992188 0,0.1992187 0.17578121,0.1992187 0.33984371,0.1992187 z m 0,0"
         style="fill:#c9d1d9;fill-opacity:1;fill-rule:nonzero;stroke:none" />
      <path
         id="path41"
         d="M 8.1826406,6.484375e-4 H 12.213891 V -0.70247656 h -1.804688 c -0.339844,0 -0.7265624,0.0117188 -1.0664061,0.046875 1.5000001,-1.57031254 2.6015621,-2.75390624 2.6015621,-3.94921874 0,-1.125 -0.714843,-1.875 -1.898437,-1.875 -0.7968751,0 -1.3593751,0.375 -1.9101564,0.9960937 l 0.4570313,0.4453125 c 0.3632812,-0.421875 0.8320312,-0.7617187 1.359375,-0.7617187 0.8085941,0 1.1835941,0.515625 1.1835941,1.2421875 0,1.0195312 -1.066407,2.1679687 -2.9531254,4.06640624 z m 0,0"
         style="fill:#c9d1d9;fill-opacity:1;fill-rule:nonzero;stroke:none" />
    </g>
    <path
       id="path42"
       d="m 1.99255,-28.3468 h -3.9851"
       style="fill:none;stroke:#c9d1d9;stroke-width:0.3985;stroke-linecap:butt;stroke-linejoin:miter;stroke-miterlimit:10;stroke-dasharray:none;stroke-opacity:1"
       transform="matrix(1.3333333,0,0,-1.3333333,245.66933,245.664)" />
    <g
       id="g42"
       aria-label="−1"
       transform="matrix(1.3333333,0,0,1.3333333,223.07333,287.144)">
      <path
         id="path43"
         d="m 6.5631641,-2.2964766 c 0.1757812,0 0.3515625,0 0.3515625,-0.1992187 0,-0.1992188 -0.1757813,-0.1992188 -0.3515625,-0.1992188 h -5.390625 c -0.1640625,0 -0.33984379,0 -0.33984379,0.1992188 0,0.1992187 0.17578129,0.1992187 0.33984379,0.1992187 z m 0,0"
         style="fill:#c9d1d9;fill-opacity:1;fill-rule:nonzero;stroke:none" />
      <path
         id="path44"
         d="m 9.41375,3.984375e-4 h 0.832031 V -6.3511641 H 9.60125 c -0.3515625,0.2109375 -0.7617188,0.3632813 -1.3476563,0.46875 v 0.5390625 H 9.41375 Z m 0,0"
         style="fill:#c9d1d9;fill-opacity:1;fill-rule:nonzero;stroke:none" />
    </g>
    <path
       id="path45"
       d="m 1.99255,28.3468 h -3.9851"
       style="fill:none;stroke:#c9d1d9;stroke-width:0.3985;stroke-linecap:butt;stroke-linejoin:miter;stroke-miterlimit:10;stroke-dasharray:none;stroke-opacity:1"
       transform="matrix(1.3333333,0,0,-1.3333333,245.66933,245.664)" />
    <path
       id="path46"
       d="M 1.6628203,1.015625e-4 H 2.4948516 V -6.3514609 H 1.8503203 c -0.3515625,0.2109375 -0.7617187,0.3632812 -1.34765624,0.46875 v 0.5390625 H 1.6628203 Z m 0,0"
       style="fill:#c9d1d9;fill-opacity:1;fill-rule:nonzero;stroke:none"
       aria-label="1"
       transform="matrix(1.3333333,0,0,1.3333333,233.404,212.10533)" />
    <path
       id="path47"
       d="m 1.99255,56.69363 h -3.9851"
       style="fill:none;stroke:#c9d1d9;stroke-width:0.3985;stroke-linecap:butt;stroke-linejoin:miter;stroke-miterlimit:10;stroke-dasharray:none;stroke-opacity:1"
       transform="matrix(1.3333333,0,0,-1.3333333,245.66933,245.664)" />
    <path
       id="path48"
       d="M 0.43364063,9.6875e-4 H 4.4648906 v -0.703125 H 2.6602031 c -0.3398437,0 -0.7265625,0.0117188 -1.0664062,0.046875 1.5,-1.57031255 2.6015625,-2.75390625 2.6015625,-3.94921875 0,-1.125 -0.7148438,-1.875 -1.8984375,-1.875 -0.796875,0 -1.35937502,0.375 -1.91015627,0.9960937 l 0.45703125,0.4453125 c 0.36328122,-0.421875 0.83203122,-0.7617187 1.35937502,-0.7617187 0.8085937,0 1.1835937,0.515625 1.1835937,1.2421875 0,1.0195312 -1.0664062,2.1679687 -2.95312497,4.06640625 z m 0,0"
       style="fill:#c9d1d9;fill-opacity:1;fill-rule:nonzero;stroke:none"
       aria-label="2"
       transform="matrix(1.3333333,0,0,1.3333333,231.664,174.38933)" />
    <path
       id="path49"
       d="m 1.99255,85.04045 h -3.9851"
       style="fill:none;stroke:#c9d1d9;stroke-width:0.3985;stroke-linecap:butt;stroke-linejoin:miter;stroke-miterlimit:10;stroke-dasharray:none;stroke-opacity:1"
       transform="matrix(1.3333333,0,0,-1.3333333,245.66933,245.664)" />
    <path
       id="path50"
       d="m 2.3565312,0.11790625 c 1.1601563,0 2.0976563,-0.6796875 2.0976563,-1.81640625 0,-0.8671875 -0.609375,-1.4296875 -1.3710938,-1.6054687 v -0.046875 c 0.6796875,-0.2578125 1.1367188,-0.7382813 1.1367188,-1.5117188 0,-1.0195312 -0.796875,-1.6171875 -1.8984375,-1.6171875 -0.75,0 -1.3359375,0.3398438 -1.81640625,0.796875 l 0.43359375,0.5273438 c 0.375,-0.375 0.8203125,-0.6445313 1.359375,-0.6445313 0.6679687,0 1.0898437,0.3867188 1.0898437,0.9960938 0,0.6679687 -0.4570312,1.1835937 -1.8046875,1.1835937 v 0.6328125 c 1.5117188,0 2.0390625,0.5039063 2.0390625,1.265625 0,0.703125 -0.5507812,1.16015625 -1.3242187,1.16015625 -0.7382813,0 -1.2421875,-0.3515625 -1.6171875,-0.74999995 l -0.421875,0.53906245 c 0.43359375,0.46875 1.078125,0.890625 2.0976562,0.890625 z m 0,0"
       style="fill:#c9d1d9;fill-opacity:1;fill-rule:nonzero;stroke:none"
       aria-label="3"
       transform="matrix(1.3333333,0,0,1.3333333,231.71733,136.51467)" />
    <path
       id="path51"
       d="m 1.99255,113.38728 h -3.9851"
       style="fill:none;stroke:#c9d1d9;stroke-width:0.3985;stroke-linecap:butt;stroke-linejoin:miter;stroke-miterlimit:10;stroke-dasharray:none;stroke-opacity:1"
       transform="matrix(1.3333333,0,0,-1.3333333,245.66933,245.664)" />
    <path
       id="path52"
       d="m 1.2056484,-2.414 1.4882813,-2.15625 c 0.1757812,-0.3164062 0.3515625,-0.5976562 0.515625,-0.9023437 h 0.035156 c -0.023437,0.3398437 -0.046875,0.890625 -0.046875,1.21875 V -2.414 Z M 3.1978359,6.25e-5 H 3.9712734 V -1.75775 H 4.8384609 V -2.414 H 3.9712734 V -6.3515 H 3.0572109 L 0.33846094,-2.2968125 V -1.75775 H 3.1978359 Z m 0,0"
       style="fill:#c9d1d9;fill-opacity:1;fill-rule:nonzero;stroke:none"
       aria-label="4"
       transform="matrix(1.3333333,0,0,1.3333333,231.412,98.718667)" />
    <path
       id="path53"
       d="m 1.99255,141.7341 h -3.9851"
       style="fill:none;stroke:#c9d1d9;stroke-width:0.3985;stroke-linecap:butt;stroke-linejoin:miter;stroke-miterlimit:10;stroke-dasharray:none;stroke-opacity:1"
       transform="matrix(1.3333333,0,0,-1.3333333,245.66933,245.664)" />
    <path
       id="path54"
       d="m 2.3330937,0.118 c 1.1015625,0 2.1445313,-0.7734375 2.1445313,-2.1445313 0,-1.3828125 -0.890625,-1.9921875 -1.96875,-1.9921875 -0.3867188,0 -0.6796875,0.09375 -0.9726563,0.2578125 l 0.1640625,-1.875 H 4.1612187 V -6.35075 H 0.97371875 l -0.2109375,3.0585937 0.44531245,0.2695313 c 0.375,-0.2460938 0.6445313,-0.375 1.0898438,-0.375 0.8085937,0 1.3359375,0.5039062 1.3359375,1.3828125 0,0.890625 -0.609375,1.453125 -1.3828125,1.453125 -0.75,0 -1.21875,-0.3515625 -1.60546875,-0.7382813 l -0.3984375,0.5507813 C 0.69246875,-0.303875 1.3135625,0.118 2.3330937,0.118 Z m 0,0"
       style="fill:#c9d1d9;fill-opacity:1;fill-rule:nonzero;stroke:none"
       aria-label="5"
       transform="matrix(1.3333333,0,0,1.3333333,231.71733,60.842667)" />
    <g
       id="g54"
       aria-label="x‑axis"
       transform="matrix(1.3333333,0,0,1.3333333,439.34133,236.89867)">
      <path
         id="path55"
         d="m -0.43471094,-1.71875e-4 h 0.84375 L 1.3465391,-1.1486094 c 0.2460937,-0.3046875 0.4804687,-0.5859375 0.6796875,-0.8789062 h 0.046875 c 0.1171875,0.2929687 0.234375,0.5976562 0.3398437,0.890625 l 0.4335938,1.136718725 h 0.796875 l -0.984375,-2.402343725 1.9921875,-2.4375 H 3.8191953 l -0.84375,1.078125 c -0.1992187,0.2695312 -0.421875,0.5390625 -0.6210937,0.8085937 h -0.046875 c -0.09375,-0.28125 -0.1757813,-0.5273437 -0.28125,-0.8085937 L 1.6160703,-4.8400156 H 0.83091406 l 0.90234374,2.2734375 z m 0,0"
         style="fill:#c9d1d9;fill-opacity:1;fill-rule:nonzero;stroke:none" />
      <path
         id="path56"
         d="M 4.6951719,-2.1798594 H 6.9803281 V -2.8243906 H 4.6951719 Z m 4.6201172,2.29687503 c 0.609375,0 1.1367189,-0.3046875 1.5937499,-0.69140625 h 0.02344 l 0.08203,0.574218745 h 0.679687 V -2.9767344 c 0,-1.1953125 -0.503906,-1.9804687 -1.6875,-1.9804687 -0.7734372,0 -1.4531247,0.328125 -1.8984372,0.6210937 l 0.3164063,0.5625 c 0.3867187,-0.2460937 0.890625,-0.5039062 1.453125,-0.5039062 0.7851559,0 0.9843749,0.5859375 0.9960939,1.1953125 -2.0742189,0.234375 -2.9765627,0.75 -2.9765627,1.828125 0,0.87890623 0.609375,1.37109373 1.4179688,1.37109373 z m 0.2226562,-0.6796875 c -0.4570312,0 -0.8320312,-0.19921875 -0.8320312,-0.73828123 0,-0.6328125 0.5273437,-0.9960938 2.1679689,-1.1953125 v 1.3242187 c -0.46875,0.41015628 -0.867188,0.60937503 -1.3359377,0.60937503 z m 3.0058597,0.562499995 h 0.867187 L 14.055523,-1.1251719 c 0.175782,-0.2929687 0.328125,-0.5859375 0.492188,-0.8671875 h 0.03516 c 0.175781,0.28125 0.363281,0.5742188 0.527344,0.8671875 l 0.714844,1.125000025 H 16.71568 L 15.145367,-2.4376719 16.610211,-4.8400156 h -0.867188 l -0.585937,1.0546875 c -0.152344,0.2695312 -0.292969,0.5390625 -0.445313,0.8085937 h -0.03516 c -0.164062,-0.2695312 -0.316406,-0.5390625 -0.46875,-0.8085937 l -0.644531,-1.0546875 h -0.902344 l 1.464844,2.3085937 z m 5.132812,0 H 18.49693 V -4.8400156 H 17.676617 Z M 18.086773,-5.8361094 c 0.328125,0 0.550782,-0.2109375 0.550782,-0.5390625 0,-0.3164062 -0.222657,-0.5390625 -0.550782,-0.5390625 -0.316406,0 -0.539062,0.2226563 -0.539062,0.5390625 0,0.328125 0.222656,0.5390625 0.539062,0.5390625 z m 3.316407,5.95312503 c 1.136718,0 1.769531,-0.65625 1.769531,-1.44140623 0,-0.8789063 -0.726563,-1.2070313 -1.488281,-1.4765625 -0.609375,-0.2109375 -1.019532,-0.3867188 -1.019532,-0.8203125 0,-0.3632813 0.269532,-0.703125 0.878907,-0.703125 0.433593,0 0.785156,0.140625 1.125,0.3867187 l 0.375,-0.4804687 c -0.375,-0.3164063 -0.902344,-0.5390625 -1.5,-0.5390625 -1.066407,0 -1.675782,0.5976562 -1.675782,1.3710937 0,0.796875 0.691407,1.1484375 1.417969,1.40625 0.550781,0.1992188 1.089844,0.4101563 1.089844,0.9023438 0,0.42187498 -0.304688,0.74999998 -0.949219,0.74999998 -0.597656,0 -1.03125,-0.17578125 -1.453125,-0.52734378 l -0.375,0.48046878 c 0.445313,0.43359375 1.089844,0.69140625 1.804688,0.69140625 z m 0,0"
         style="fill:#c9d1d9;fill-opacity:1;fill-rule:nonzero;stroke:none" />
    </g>
    <g
       id="g56"
       aria-label="y‑axis"
       transform="matrix(1.3333333,0,0,1.3333333,252.56,25.890667)">
      <path
         id="path57"
         d="m -0.01277344,2.0859063 c 0.8671875,0 1.46484374,-0.609375 2.05078124,-1.7226563 L 4.8270703,-4.839875 H 4.0419141 L 2.6473828,-2.1445625 C 2.4247266,-1.69925 2.1786328,-1.183625 1.9559766,-0.75003125 H 1.9208203 C 1.8739453,-1.1719062 1.8270703,-1.69925 1.7567578,-2.1445625 L 1.3700391,-4.839875 H 0.58488281 L 1.4286328,0.04684375 1.2645703,0.36325 c -0.33984374,0.6679688 -0.77343749,1.0664063 -1.27734374,1.0664063 -0.140625,0 -0.2578125,-0.011719 -0.36328125,-0.058594 l -0.24609375,0.5742188 c 0.17578125,0.09375 0.38671875,0.140625 0.609375,0.1406252 z m 0,0"
         style="fill:#c9d1d9;fill-opacity:1;fill-rule:nonzero;stroke:none" />
      <path
         id="path58"
         d="M 4.8827344,-2.1797187 H 7.1678906 V -2.82425 H 4.8827344 Z m 4.6230468,2.29687495 c 0.6093748,0 1.1367188,-0.3046875 1.5937498,-0.69140625 h 0.02344 L 11.205,-3.125e-5 h 0.679687 V -2.9765937 c 0,-1.1953125 -0.503906,-1.9804688 -1.6875,-1.9804688 -0.773437,0 -1.4531245,0.328125 -1.898437,0.6210938 l 0.3164062,0.5625 c 0.3867188,-0.2460938 0.890625,-0.5039063 1.4531248,-0.5039063 0.785156,0 0.984375,0.5859375 0.996094,1.1953125 -2.0742188,0.234375 -2.9765625,0.75 -2.9765625,1.828125 0,0.87890625 0.609375,1.37109375 1.4179687,1.37109375 z m 0.2226563,-0.6796875 c -0.4570313,0 -0.8320313,-0.19921875 -0.8320313,-0.73828125 0,-0.6328125 0.5273438,-0.9960937 2.1679688,-1.1953125 v 1.3242188 c -0.46875,0.4101562 -0.867188,0.60937495 -1.3359375,0.60937495 z m 3.0058595,0.5625 h 0.867187 L 14.246016,-1.1250312 C 14.421797,-1.418 14.574141,-1.7109687 14.738203,-1.9922187 h 0.03516 c 0.175782,0.28125 0.363282,0.5742187 0.527344,0.8671875 l 0.714844,1.12499995 h 0.890625 L 15.335859,-2.4375312 16.800703,-4.839875 h -0.867187 l -0.585938,1.0546875 c -0.152344,0.2695313 -0.292969,0.5390625 -0.445312,0.8085938 h -0.03516 C 14.703047,-3.246125 14.550703,-3.5156562 14.398359,-3.7851875 L 13.753828,-4.839875 h -0.902344 l 1.464844,2.3085938 z m 5.132812,0 h 0.820313 V -4.839875 h -0.820313 z m 0.410157,-5.83593745 c 0.328125,0 0.550781,-0.2109375 0.550781,-0.5390625 0,-0.3164063 -0.222656,-0.5390625 -0.550781,-0.5390625 -0.316407,0 -0.539063,0.2226562 -0.539063,0.5390625 0,0.328125 0.222656,0.5390625 0.539063,0.5390625 z m 3.316406,5.95312495 c 1.136719,0 1.769531,-0.65625 1.769531,-1.44140625 0,-0.8789062 -0.726562,-1.2070312 -1.488281,-1.4765625 -0.609375,-0.2109375 -1.019531,-0.3867187 -1.019531,-0.8203125 0,-0.3632812 0.269531,-0.703125 0.878906,-0.703125 0.433594,0 0.785156,0.140625 1.125,0.3867188 l 0.375,-0.4804688 c -0.375,-0.3164062 -0.902344,-0.5390625 -1.5,-0.5390625 -1.066406,0 -1.675781,0.5976563 -1.675781,1.3710938 0,0.796875 0.691406,1.1484375 1.417968,1.40625 0.550782,0.1992187 1.089844,0.4101562 1.089844,0.9023437 0,0.421875 -0.304687,0.75 -0.949219,0.75 -0.597656,0 -1.03125,-0.17578125 -1.453125,-0.5273437 l -0.375,0.4804687 c 0.445313,0.43359375 1.089844,0.69140625 1.804688,0.69140625 z m 0,0"
         style="fill:#c9d1d9;fill-opacity:1;fill-rule:nonzero;stroke:none" />
    </g>
    <path
       id="path59"
       d="M 0,0 H 56.69362"
       style="fill:none;stroke:#b39af0;stroke-width:2.98883;stroke-linecap:butt;stroke-linejoin:miter;stroke-miterlimit:10;stroke-dasharray:none;stroke-opacity:1"
       transform="matrix(1.3333333,0,0,-1.3333333,245.66933,245.664)" />
    <path
       id="path60"
       d="m -0.4335625,-0.00135937 h 0.84375 l 0.9375,-1.14843753 C 1.5937813,-1.4544844 1.8281563,-1.7357344 2.027375,-2.0287031 H 2.07425 c 0.1171875,0.2929687 0.234375,0.5976562 0.3398438,0.890625 l 0.4335937,1.13671873 h 0.796875 l -0.984375,-2.40234373 1.9921875,-2.4375 H 3.8203438 l -0.84375,1.078125 C 2.777375,-3.4935469 2.5547188,-3.2240156 2.3555,-2.9544844 H 2.308625 c -0.09375,-0.28125 -0.1757812,-0.5273437 -0.28125,-0.8085937 L 1.6172188,-4.8412031 H 0.8320625 l 0.9023438,2.2734375 z m 0,0"
       style="fill:#b39af0;fill-opacity:1;fill-rule:nonzero;stroke:none"
       aria-label="x"
       transform="matrix(1.3333333,0,0,1.3333333,280.60933,239.244)" />
    <path
       id="path61"
       d="M 56.69362,0 V 85.04042"
       style="fill:none;stroke:#8eb5e3;stroke-width:2.98883;stroke-linecap:butt;stroke-linejoin:miter;stroke-miterlimit:10;stroke-dasharray:none;stroke-opacity:1"
       transform="matrix(1.3333333,0,0,-1.3333333,245.66933,245.664)" />
    <path
       id="path62"
       d="m -0.01295312,2.0873125 c 0.8671875,0 1.46484372,-0.609375 2.05078122,-1.72265625 L 4.8268906,-4.8384688 H 4.0417344 l -1.3945313,2.6953125 c -0.2226562,0.4453125 -0.46875,0.9609375 -0.6914062,1.3945313 H 1.9206406 C 1.8737656,-1.1705 1.8268906,-1.6978438 1.7565781,-2.1431563 L 1.3698594,-4.8384688 H 0.58470313 L 1.4284531,0.04825 1.2643906,0.36465625 C 0.92454688,1.032625 0.49095313,1.4310625 -0.01295312,1.4310625 c -0.140625,0 -0.2578125,-0.011719 -0.36328125,-0.058594 l -0.24609375,0.5742188 c 0.17578125,0.09375 0.38671875,0.140625 0.609375,0.1406252 z m 0,0"
       style="fill:#8eb5e3;fill-opacity:1;fill-rule:nonzero;stroke:none"
       aria-label="y"
       transform="matrix(1.3333333,0,0,1.3333333,327.68133,190.81067)" />
    <path
       id="path63"
       d="m 3.7627109,-3.5168047 c 1.4882813,0 2.8007813,-1.21875 2.8007813,-3 0,-1.7929687 -1.3125,-3 -2.8007813,-3 -1.4765625,0 -2.76562496,1.2070313 -2.76562496,3 0,1.78125 1.28906246,3 2.76562496,3 z m 0,0"
       style="fill:#c9d1d9;fill-opacity:1;fill-rule:nonzero;stroke:none"
       aria-label="•"
       transform="matrix(1.3333333,0,0,1.3333333,316.22133,138.62267)" />
    <path
       id="path64"
       d="m 3.7613984,-3.5167969 c 1.4882813,0 2.8007813,-1.21875 2.8007813,-3 0,-1.7929687 -1.3125,-3 -2.8007813,-3 -1.4765625,0 -2.76562496,1.2070313 -2.76562496,3 0,1.78125 1.28906246,3 2.76562496,3 z m 0,0"
       style="fill:#c9d1d9;fill-opacity:1;fill-rule:nonzero;stroke:none"
       aria-label="•"
       transform="matrix(1.3333333,0,0,1.3333333,240.62933,253.9)" />
    <path
       id="path65"
       d="M -56.69362,42.5202 -6.8807,6.54419"
       style="fill:none;stroke:#c9d1d9;stroke-width:1.49442;stroke-linecap:butt;stroke-linejoin:miter;stroke-miterlimit:10;stroke-dasharray:none;stroke-opacity:1"
       transform="matrix(1.3333333,0,0,-1.3333333,245.66933,245.664)" />
    <path
       id="path66"
       d="M -3.38733,4.37073 C -2.76846,1.74825 -1.38942,0.50992 0,0 -1.38942,-0.50992 -2.76846,-1.74825 -3.38733,-4.37073"
       style="fill:none;stroke:#c9d1d9;stroke-width:1.49442;stroke-linecap:round;stroke-linejoin:round;stroke-miterlimit:10;stroke-dasharray:none;stroke-opacity:1"
       transform="matrix(1.0808667,0.78061333,0.78061333,-1.0808667,237.30267,237.52171)" />
    <g
       id="g66"
       aria-label="Origin,(0,0)"
       transform="matrix(1.3333333,0,0,1.3333333,134.83467,180.22533)">
      <path
         id="path67"
         d="m 3.3056406,0.11810938 c 1.640625,0 2.8007813,-1.31249998 2.8007813,-3.41015628 0,-2.0859375 -1.1601563,-3.3632812 -2.8007813,-3.3632812 -1.640625,0 -2.78906248,1.265625 -2.78906248,3.3632812 0,2.0976563 1.14843748,3.41015628 2.78906248,3.41015628 z m 0,-0.73828125 c -1.1601562,0 -1.921875,-1.04296873 -1.921875,-2.67187503 0,-1.6289062 0.7617188,-2.625 1.921875,-2.625 1.171875,0 1.9335938,0.9960938 1.9335938,2.625 0,1.6289063 -0.7617188,2.67187503 -1.9335938,2.67187503 z M 7.4365,9.21875e-4 H 8.2568125 V -3.1045469 c 0.328125,-0.8203125 0.8203125,-1.1132812 1.2304687,-1.1132812 0.1875,0 0.2929688,0.023437 0.4335938,0.070312 l 0.1875,-0.7148438 c -0.1523438,-0.070312 -0.3046875,-0.09375 -0.5273438,-0.09375 -0.5390625,0 -1.03125,0.3867188 -1.3710937,0.9960938 H 8.1747812 L 8.1161875,-4.8389219 H 7.4365 Z m 3.46582,0 h 0.820313 V -4.8389219 H 10.90232 Z M 11.312477,-5.8350156 c 0.328125,0 0.550781,-0.2109375 0.550781,-0.5390625 0,-0.3164063 -0.222656,-0.5390625 -0.550781,-0.5390625 -0.316407,0 -0.539063,0.2226562 -0.539063,0.5390625 0,0.328125 0.222656,0.5390625 0.539063,0.5390625 z m 3.679687,8.0625 c 1.5,0 2.449219,-0.7734375 2.449219,-1.67578127 0,-0.796875 -0.5625,-1.16015625 -1.6875,-1.16015625 h -0.9375 c -0.644531,0 -0.84375,-0.22265625 -0.84375,-0.51562498 0,-0.2695313 0.128906,-0.4335938 0.304687,-0.5742188 0.222657,0.1054688 0.480469,0.1640625 0.714844,0.1640625 0.984375,0 1.769531,-0.6445312 1.769531,-1.6875 0,-0.3984375 -0.152343,-0.7617187 -0.386718,-0.984375 h 0.984375 V -4.8389219 H 15.68357 c -0.1875,-0.070312 -0.421875,-0.1171875 -0.691406,-0.1171875 -0.984375,0 -1.816406,0.6679688 -1.816406,1.7226563 0,0.5742187 0.304687,1.0429687 0.621094,1.3007812 v 0.035156 c -0.246094,0.1757812 -0.527344,0.4921875 -0.527344,0.90234373 0,0.375 0.1875,0.6328125 0.433594,0.78515625 v 0.046875 c -0.445313,0.29296875 -0.714844,0.6796875 -0.714844,1.08984375 0,0.83203127 0.820312,1.30078127 2.003906,1.30078157 z m 0,-4.3242188 c -0.550781,0 -1.019531,-0.4335937 -1.019531,-1.1367187 0,-0.7148438 0.457031,-1.125 1.019531,-1.125 0.574219,0 1.03125,0.421875 1.03125,1.125 0,0.703125 -0.46875,1.1367187 -1.03125,1.1367187 z m 0.117188,3.75 c -0.867188,0 -1.40625,-0.3164062 -1.40625,-0.83203122 0,-0.28125 0.152343,-0.57421875 0.503906,-0.820312505 0.210937,0.058593755 0.433594,0.082031255 0.632812,0.082031255 h 0.820313 c 0.632812,0 0.972656,0.15234375 0.972656,0.59765625 0,0.49218752 -0.597656,0.97265622 -1.523437,0.97265622 z M 18.393531,9.21875e-4 h 0.820313 V -4.8389219 H 18.393531 Z M 18.803687,-5.8350156 c 0.328125,0 0.550782,-0.2109375 0.550782,-0.5390625 0,-0.3164063 -0.222657,-0.5390625 -0.550782,-0.5390625 -0.316406,0 -0.539062,0.2226562 -0.539062,0.5390625 0,0.328125 0.222656,0.5390625 0.539062,0.5390625 z m 2.050782,5.835937475 h 0.820312 V -3.5029844 c 0.480469,-0.4921875 0.832031,-0.7382812 1.3125,-0.7382812 0.644531,0 0.925781,0.375 0.925781,1.2890625 V 9.21875e-4 h 0.820313 V -3.0693906 c 0,-1.2304688 -0.457031,-1.8867188 -1.476563,-1.8867188 -0.667968,0 -1.171875,0.3515625 -1.628906,0.8085938 h -0.03516 l -0.05859,-0.6914063 H 20.854469 Z M 26.151344,1.7001406 c 0.820312,-0.3398437 1.3125,-1.00781247 1.3125,-1.86328122 0,-0.609375 -0.257813,-0.98437498 -0.691407,-0.98437498 -0.328125,0 -0.609375,0.22265623 -0.609375,0.58593748 0,0.375 0.269532,0.57421875 0.585938,0.57421875 0.03516,0 0.07031,0 0.105469,-0.011718755 0,0.527343755 -0.339844,0.960937505 -0.902344,1.218750025 z m 0,0"
         style="fill:#c9d1d9;fill-opacity:1;fill-rule:nonzero;stroke:none" />
      <path
         id="path68"
         d="m 33.261695,2.3915469 c 0,-0.035156 0,-0.046875 -0.164062,-0.2226563 -1.242188,-1.25390622 -1.570313,-3.12890622 -1.570313,-4.6640625 0,-1.7226562 0.386719,-3.4570312 1.605469,-4.7109375 0.128906,-0.1171875 0.128906,-0.1289062 0.128906,-0.1640625 0,-0.070312 -0.03516,-0.1054687 -0.09375,-0.1054687 -0.105468,0 -0.996093,0.6796875 -1.582031,1.9453125 -0.515625,1.1015625 -0.632812,2.203125 -0.632812,3.0351562 0,0.7851563 0.117187,1.99218753 0.65625,3.11718753 0.597656,1.21874997 1.453125,1.87499997 1.558593,1.87499997 0.05859,0 0.09375,-0.035156 0.09375,-0.1054687 z m 0,0"
         style="fill:#c9d1d9;fill-opacity:1;fill-rule:nonzero;stroke:none" />
      <path
         id="path69"
         d="m 36.525367,0.11810938 c 1.335938,0 2.132813,-1.21874998 2.132813,-3.31640628 0,-2.0859375 -0.796875,-3.28125 -2.132813,-3.28125 -1.324219,0 -2.132812,1.1835938 -2.132812,3.28125 0,2.0976563 0.808593,3.31640628 2.132812,3.31640628 z m 0,-0.66796875 c -0.785156,0 -1.300781,-0.80859373 -1.300781,-2.64843753 0,-1.8515625 0.515625,-2.6132812 1.300781,-2.6132812 0.785156,0 1.300781,0.7617187 1.300781,2.6132812 0,1.8398438 -0.515625,2.64843753 -1.300781,2.64843753 z m 0,0"
         style="fill:#c9d1d9;fill-opacity:1;fill-rule:nonzero;stroke:none" />
      <path
         id="path70"
         d="m 41.230445,-0.01079687 c 0,-0.65625 -0.257812,-1.04296873 -0.644531,-1.04296873 -0.328125,0 -0.527344,0.24609373 -0.527344,0.52734373 0,0.26953125 0.199219,0.527343745 0.527344,0.527343745 0.117188,0 0.246094,-0.035156245 0.351563,-0.128906245 0.02344,-0.0234375 0.03516,-0.0351563 0.04687,-0.0351563 0.01172,0 0.02344,0.0117188 0.02344,0.15234375 0,0.73828125 -0.351562,1.33593742 -0.679687,1.66406242 -0.105469,0.1054688 -0.105469,0.1289063 -0.105469,0.1640625 0,0.070312 0.04687,0.1054688 0.09375,0.1054688 0.117187,0 0.914062,-0.7617188 0.914062,-1.93359372 z m 0,0"
         style="fill:#c9d1d9;fill-opacity:1;fill-rule:nonzero;stroke:none" />
      <path
         id="path71"
         d="m 46.313453,0.11810938 c 1.335938,0 2.132813,-1.21874998 2.132813,-3.31640628 0,-2.0859375 -0.796875,-3.28125 -2.132813,-3.28125 -1.324219,0 -2.132812,1.1835938 -2.132812,3.28125 0,2.0976563 0.808593,3.31640628 2.132812,3.31640628 z m 0,-0.66796875 c -0.785156,0 -1.300781,-0.80859373 -1.300781,-2.64843753 0,-1.8515625 0.515625,-2.6132812 1.300781,-2.6132812 0.785156,0 1.300781,0.7617187 1.300781,2.6132812 0,1.8398438 -0.515625,2.64843753 -1.300781,2.64843753 z m 0,0"
         style="fill:#c9d1d9;fill-opacity:1;fill-rule:nonzero;stroke:none" />
      <path
         id="path72"
         d="m 51.87107,-2.4951719 c 0,-0.7734375 -0.117187,-1.9804687 -0.65625,-3.1054687 -0.597656,-1.21875 -1.464843,-1.875 -1.558593,-1.875 -0.05859,0 -0.105469,0.046875 -0.105469,0.1054687 0,0.035156 0,0.046875 0.199219,0.234375 0.972656,0.984375 1.535156,2.5664063 1.535156,4.640625 0,1.71093753 -0.363281,3.45703128 -1.59375,4.7226563 -0.140625,0.1171875 -0.140625,0.1289062 -0.140625,0.1640625 0,0.058594 0.04687,0.1054687 0.105469,0.1054687 0.09375,0 0.996093,-0.6796875 1.582031,-1.94531247 0.503906,-1.1015625 0.632812,-2.20312503 0.632812,-3.04687503 z m 0,0"
         style="fill:#c9d1d9;fill-opacity:1;fill-rule:nonzero;stroke:none" />
    </g>
    <path
       id="path73"
       d="m 6.31625,5.0391094 c 0,-0.023437 0,-0.058594 -0.058594,-0.1171875 C 5.3084375,3.9492656 2.7654688,1.3008281 2.7654688,-5.1444844 c 0,-6.4453126 2.5078125,-9.0703126 3.515625,-10.1015626 0,-0.02344 0.035156,-0.05859 0.035156,-0.128906 0,-0.05859 -0.058594,-0.09375 -0.140625,-0.09375 -0.2226562,0 -1.9804687,1.523437 -2.9882812,3.796875 -1.0429688,2.2968749 -1.3242188,4.5234374 -1.3242188,6.5039061 0,1.4882813 0.140625,4.0078125 1.3828125,6.6796875 0.984375,2.1445313 2.6835938,3.65625 2.9296875,3.65625 0.1054688,0 0.140625,-0.046875 0.1406252,-0.1289062 z m 0,0"
       style="fill:#c9d1d9;fill-opacity:1;fill-rule:nonzero;stroke:none"
       aria-label="("
       transform="matrix(1.3333333,0,0,1.3333333,325.95333,139.164)" />
    <path
       id="path74"
       d="m -0.91285938,4.6875e-5 h 1.7578125 L 2.7902656,-2.3788594 c 0.515625,-0.6328125 0.9960938,-1.21875 1.4296875,-1.8164062 h 0.082031 c 0.2460937,0.5976562 0.4921875,1.2421875 0.703125,1.8398437 L 5.9074531,4.6875e-5 H 7.5597969 L 5.5207344,-4.9804219 l 4.125,-5.0625001 h -1.734375 l -1.734375,2.2382814 c -0.4101563,0.5742187 -0.8671875,1.1367187 -1.3007813,1.6640625 h -0.082031 c -0.2109375,-0.5742188 -0.375,-1.0664063 -0.5742188,-1.6640625 L 3.3527656,-10.042922 h -1.640625 l 1.8867188,4.7109376 z m 0,0"
       style="fill:#b39af0;fill-opacity:1;fill-rule:nonzero;stroke:none"
       aria-label="x"
       transform="matrix(1.3333333,0,0,1.3333333,335.70933,139.164)" />
    <path
       id="path75"
       d="m 4.0302656,0.08207812 c 0,-1.19531252 -0.3984375,-2.08593752 -1.2421875,-2.08593752 -0.65625,0 -0.9960937,0.5390625 -0.9960937,0.9960938 0,0.44531247 0.3164062,1.007812475 1.0195312,1.007812475 0.2695313,0 0.4921875,-0.082031255 0.6796875,-0.269531255 0.035156,-0.0351563 0.058594,-0.0351563 0.082031,-0.0351563 0.046875,0 0.046875,0.28125 0.046875,0.38671875 0,0.6796875 -0.1289063,2.02734383 -1.3242188,3.36328133 -0.234375,0.2578125 -0.234375,0.2929686 -0.234375,0.3398436 0,0.09375 0.1054688,0.1992189 0.2109375,0.1992189 0.1640625,0 1.7578125,-1.5234375 1.7578128,-3.90234378 z m 0,0"
       style="fill:#c9d1d9;fill-opacity:1;fill-rule:nonzero;stroke:none"
       aria-label=","
       transform="matrix(1.3333333,0,0,1.3333333,347.556,139.164)" />
    <path
       id="path76"
       d="m -0.02396875,4.3125469 c 1.80468755,0 3.03515625,-1.2539063 4.25390625,-3.57421878 L 10.019,-10.042922 H 8.3900938 L 5.4955625,-4.4413594 C 5.0150938,-3.5272969 4.5229063,-2.4608906 4.065875,-1.5468281 H 3.983844 C 3.8783752,-2.4374531 3.796344,-3.5272969 3.655719,-4.4413594 L 2.847125,-10.042922 H 1.2182188 l 1.734375,10.14843762 -0.328125,0.65625 C 1.9213438,2.1328594 1.0072813,2.9766094 -0.02396875,2.9766094 c -0.28125,0 -0.5390625,-0.046875 -0.76171875,-0.1289063 L -1.277875,4.0312969 c 0.3515625,0.1992187 0.796875,0.28125 1.25390625,0.28125 z m 0,0"
       style="fill:#8eb5e3;fill-opacity:1;fill-rule:nonzero;stroke:none"
       aria-label="y"
       transform="matrix(1.3333333,0,0,1.3333333,359.64133,139.164)" />
    <path
       id="path77"
       d="m 5.4382891,-5.1444844 c 0,-1.4882812 -0.1523438,-4.0078125 -1.3828125,-6.6679686 -0.9960938,-2.15625 -2.6953125,-3.65625 -2.9414063,-3.65625 -0.058594,0 -0.14062499,0.01172 -0.14062499,0.117187 0,0.04687 0.0234375,0.05859 0.0351563,0.105469 0.9960937,1.03125 3.515625,3.65625 3.515625,10.0781251 0,6.4453125 -2.4960938,9.0703125 -3.515625,10.1015625 -0.0117188,0.046875 -0.0351563,0.070312 -0.0351563,0.1054688 0,0.1054687 0.0820313,0.1289062 0.14062499,0.1289062 0.234375,0 1.9804688,-1.5351562 3,-3.8085937 1.03125,-2.28515628 1.3242188,-4.5234375 1.3242188,-6.5039063 z m 0,0"
       style="fill:#c9d1d9;fill-opacity:1;fill-rule:nonzero;stroke:none"
       aria-label=")"
       transform="matrix(1.3333333,0,0,1.3333333,372.01067,139.164)" />
    <path
       id="path78"
       d="M 3.5850547,-3.90625e-5 H 6.9366172 V -26.14457 H 3.5850547 Z m 0,0"
       style="fill:#c9d1d9;fill-opacity:1;fill-rule:nonzero;stroke:none"
       aria-label="I"
       transform="matrix(1.3333333,0,0,1.3333333,427.66133,74.113333)" />
    <path
       id="path79"
       d="M 3.5850703,-3.90625e-5 H 6.9366328 V -26.14457 H 3.5850703 Z m 10.4824217,0 h 3.351563 V -26.14457 h -3.351563 z m 0,0"
       style="fill:#c9d1d9;fill-opacity:1;fill-rule:nonzero;stroke:none"
       aria-label="II"
       transform="matrix(1.3333333,0,0,1.3333333,42.716,74.113333)" />
    <path
       id="path80"
       d="M 3.5867891,-2.65625e-4 H 6.9383516 V -26.144797 H 3.5867891 Z m 10.4794919,0 h 3.351563 V -26.144797 h -3.351563 z m 10.482422,0 h 3.351563 V -26.144797 h -3.351563 z m 0,0"
       style="fill:#c9d1d9;fill-opacity:1;fill-rule:nonzero;stroke:none"
       aria-label="III"
       transform="matrix(1.3333333,0,0,1.3333333,35.729333,452.07067)" />
    <path
       id="path81"
       d="M 3.5867813,-2.65625e-4 H 6.9383438 V -26.144797 H 3.5867813 Z m 15.1083987,0 h 3.867187 L 31.046742,-26.144797 h -3.433594 l -4.335937,14.109375 c -0.925781,3.0703126 -1.558594,5.5781251 -2.519531,8.6132814 h -0.152344 c -0.960938,-3.0351563 -1.640625,-5.5429688 -2.507813,-8.6132814 l -4.066406,-14.109375 h -3.550781 z m 0,0"
       style="fill:#c9d1d9;fill-opacity:1;fill-rule:nonzero;stroke:none"
       aria-label="IV"
       transform="matrix(1.3333333,0,0,1.3333333,413.952,452.07067)" />
  </g>
</svg>
