<?xml version="1.0" encoding="UTF-8" standalone="no"?>
<!-- Created with Inkscape (http://www.inkscape.org/) -->

<svg
   version="1.1"
   id="svg1"
   width="413.02667"
   height="195.38667"
   viewBox="0 0 413.02667 195.38667"
   sodipodi:docname="MATH_118-89.pdf"
   xmlns:inkscape="http://www.inkscape.org/namespaces/inkscape"
   xmlns:sodipodi="http://sodipodi.sourceforge.net/DTD/sodipodi-0.dtd"
   xmlns="http://www.w3.org/2000/svg"
   xmlns:svg="http://www.w3.org/2000/svg">
  <defs
     id="defs1" />
  <sodipodi:namedview
     id="namedview1"
     pagecolor="#ffffff"
     bordercolor="#000000"
     borderopacity="0.25"
     inkscape:showpageshadow="2"
     inkscape:pageopacity="0.0"
     inkscape:pagecheckerboard="0"
     inkscape:deskcolor="#d1d1d1">
    <inkscape:page
       x="0"
       y="0"
       inkscape:label="1"
       id="page1"
       width="413.02667"
       height="195.38667"
       margin="0"
       bleed="0" />
  </sodipodi:namedview>
  <g
     id="g1"
     inkscape:groupmode="layer"
     inkscape:label="1">
    <path
       id="path1"
       d="M -28.3468,0 H 84.79135"
       style="fill:none;stroke:#c9d1d9;stroke-width:0.24907;stroke-linecap:butt;stroke-linejoin:miter;stroke-miterlimit:10;stroke-dasharray:none;stroke-opacity:1"
       transform="matrix(1.3333333,0,0,-1.3333333,67.850667,132.27867)" />
    <path
       id="path2"
       d="M -1.89291,2.12108 C -1.54709,0.84842 -0.77643,0.24745 0,0 -0.77643,-0.24745 -1.54709,-0.84842 -1.89291,-2.12108"
       style="fill:none;stroke:#c9d1d9;stroke-width:0.24907;stroke-linecap:round;stroke-linejoin:round;stroke-miterlimit:10;stroke-dasharray:none;stroke-opacity:1"
       transform="matrix(1.3333333,0,0,-1.3333333,181.07187,132.27867)" />
    <path
       id="path3"
       d="M 0,-28.3468 V 84.79135"
       style="fill:none;stroke:#c9d1d9;stroke-width:0.24907;stroke-linecap:butt;stroke-linejoin:miter;stroke-miterlimit:10;stroke-dasharray:none;stroke-opacity:1"
       transform="matrix(1.3333333,0,0,-1.3333333,67.850667,132.27867)" />
    <path
       id="path4"
       d="M -1.89291,2.12108 C -1.54709,0.84842 -0.77643,0.24745 0,0 -0.77643,-0.24745 -1.54709,-0.84842 -1.89291,-2.12108"
       style="fill:none;stroke:#c9d1d9;stroke-width:0.24907;stroke-linecap:round;stroke-linejoin:round;stroke-miterlimit:10;stroke-dasharray:none;stroke-opacity:1"
       transform="matrix(0,-1.3333333,-1.3333333,0,67.850667,19.057467)" />
    <path
       id="path5"
       d="m -2.83484,-34.68175 0.07224,1.18083 0.07222,1.16698 0.07225,1.15489 0.07223,1.14234 0.07222,1.12891 0.07225,1.11595 0.07222,1.10385 0.07224,1.09086 0.07225,1.07917 0.07222,1.06577 0.07223,1.0541 0.07224,1.04199 0.07223,1.02943 0.07224,1.01819 0.07222,1.00566 0.07224,0.99398 0.07224,0.98488 0.07222,0.97018 0.07225,0.95938 0.07222,0.94725 0.07224,0.93602 0.07225,0.92476 0.07222,0.9131 0.07223,0.90184 0.07224,0.89145 0.07223,0.87979 0.07224,0.8694 0.07222,0.85858 0.07225,0.84734 0.07222,0.83653 0.07223,0.82659 0.07225,0.81576 0.07222,0.80495 0.07224,0.79544 0.07225,0.78462 0.07222,0.77422 0.07223,0.76385 0.07224,0.75478 0.07223,0.74397 0.07221,0.73445 0.07222,0.7245 0.07225,0.71499 0.07222,0.70503 0.07223,0.69725 0.07225,0.686 0.07222,0.67607 0.07224,0.66741 0.07223,0.65832 0.07224,0.64836 0.07223,0.6393 0.07224,0.63065 0.07224,0.62155 0.07222,0.61247 0.07223,0.60339 0.07225,0.59517 0.07222,0.58609 0.07224,0.57744 0.07223,0.56922 0.07224,0.56015 0.07223,0.55191 0.07224,0.54413 0.07223,0.53504 0.07224,0.52727 0.07223,0.51905 0.07224,0.51083 0.07222,0.50303 0.07223,0.49483 0.07225,0.48703 0.07222,0.47927 0.07224,0.47146 0.07223,0.46456 0.07224,0.45631 0.07223,0.44854 0.07224,0.4412 0.07223,0.43384 0.07222,0.42646 0.07225,0.41915 0.07224,0.41177 0.07222,0.40486 0.07225,0.3975 0.07222,0.39102 0.07223,0.38365 0.07224,0.37674 0.07223,0.36983 0.07224,0.36332 0.07223,0.35642 0.07224,0.34949 0.07223,0.34344 0.07222,0.33608 0.07225,0.33045 0.07224,0.32354 0.07222,0.31749 0.07225,0.31141 0.07222,0.30495 0.07223,0.29846 0.07224,0.29282 0.07223,0.28634 0.07224,0.28072 0.07222,0.27423 0.07225,0.26903 0.07223,0.26299 0.07222,0.25694 0.07225,0.25172 0.07222,0.24568 0.07224,0.24007 0.07225,0.23485 0.07222,0.22924 0.07223,0.22364 0.07224,0.21843 0.07224,0.21324 0.07223,0.20763 0.07222,0.2024 0.07225,0.19726 0.07224,0.19247 0.07222,0.18728 0.07225,0.1821 0.07222,0.17735 0.07223,0.17258 0.07225,0.16783 0.07222,0.16263 0.07224,0.15787 0.07223,0.15356 0.07224,0.14879 0.07223,0.14404 0.07222,0.13972 0.07225,0.13408 0.07222,0.13062 0.07224,0.1263 0.07224,0.12198 0.07223,0.11765 0.07223,0.11332 0.07224,0.10944 0.07223,0.1051 0.07224,0.10079 0.07223,0.09687 0.07224,0.09345 0.07223,0.08867 0.07222,0.08521 0.07225,0.0813 0.07222,0.07743 0.07224,0.07353 0.07225,0.06964 0.07222,0.06662 0.07223,0.06228 0.07224,0.05926 0.07223,0.05536 0.07224,0.05191 0.07223,0.04845 0.07224,0.04498 0.07222,0.04152 0.07223,0.03892 0.07225,0.03505 0.07222,0.0307 0.07224,0.02855 0.07223,0.02596 0.07224,0.02204 0.07223,0.01946 0.07224,0.01602 0.07223,0.0134 0.07224,0.01039 0.07223,0.0074 0.07224,0.0048 0.07222,0.0017 0.07223,-0.0013 0.07225,-0.0034 0.07222,-0.0069 0.07224,-0.0091 0.07224,-0.01167 0.07223,-0.01427 0.07224,-0.0173 0.07223,-0.01947 0.07224,-0.02206 0.07222,-0.02422 0.07225,-0.02681 0.07223,-0.02942 0.07222,-0.03157 0.07224,-0.03374 0.07223,-0.0359 0.07224,-0.0385 0.07223,-0.04022 0.07224,-0.04369 0.07223,-0.04498 0.07224,-0.04672 0.07223,-0.04932 0.07224,-0.0506 0.07222,-0.05319 0.07225,-0.0545 0.07223,-0.0571 0.07222,-0.05839 0.07225,-0.06057 0.07222,-0.06229 0.07224,-0.06401 0.07223,-0.06575 0.07224,-0.06745 0.07223,-0.06965 0.07222,-0.07051 0.07225,-0.07223 0.07224,-0.0744 0.07222,-0.0757 0.07225,-0.07698 0.07222,-0.07872 0.07223,-0.08002 0.07225,-0.08176 0.07222,-0.08304 0.07224,-0.08435 0.07223,-0.08564 0.07224,-0.08695 0.07223,-0.08954 0.07223,-0.08909 0.07224,-0.09084 0.07224,-0.09211 0.07222,-0.09301 0.07225,-0.09428 0.07222,-0.0956 0.07223,-0.09645 0.07225,-0.09732 0.07222,-0.09906 0.07224,-0.09948 0.07222,-0.10079 0.07225,-0.10121 0.07223,-0.10251 0.07222,-0.10338 0.07225,-0.10423 0.07222,-0.10511 0.07224,-0.10598 0.07225,-0.10683 0.07222,-0.10727 0.07224,-0.10856 0.07223,-0.10901 0.07224,-0.10944 0.07223,-0.11072 0.07222,-0.11073 0.07225,-0.11159 0.07224,-0.1129 0.07222,-0.11288 0.07225,-0.11377 0.07222,-0.11376 0.07223,-0.11462 0.07225,-0.11505 0.07222,-0.1155 0.07224,-0.1159 0.07223,-0.11636 0.07224,-0.11678 0.07223,-0.11679 0.07224,-0.11809 0.07223,-0.11764 0.07222,-0.11809 0.07224,-0.11851 0.07225,-0.11852 0.07222,-0.11938 0.07223,-0.11895 0.07224,-0.11937 0.07223,-0.11983 0.07224,-0.11981 0.07223,-0.12024 0.07224,-0.11981 0.07223,-0.12068 0.07224,-0.12068 0.07223,-0.12024 0.07222,-0.12026 0.07224,-0.12066 0.07225,-0.12155 0.07222,-0.12024 0.07223,-0.1207 0.07224,-0.12067 0.07223,-0.12068 0.07224,-0.12067 0.07223,-0.12025 0.07224,-0.12068 0.07222,-0.12026 0.07225,-0.12022 0.07223,-0.11983 0.07222,-0.12024 0.07224,-0.11981 0.07223,-0.11938 0.07224,-0.11937 0.07223,-0.11939 0.07224,-0.11894 0.07223,-0.11896 0.07224,-0.11809 0.07223,-0.11851 0.07224,-0.11765 0.07222,-0.11807 0.07225,-0.11723 0.07224,-0.11591 0.07221,-0.1168 0.07224,-0.11634 0.07224,-0.11593 0.07223,-0.11548 0.07224,-0.11548 0.07223,-0.1142 0.07224,-0.11462 0.07222,-0.11375 0.07225,-0.11376 0.07223,-0.1129 0.07222,-0.11246 0.07225,-0.11203 0.07222,-0.11202 0.07224,-0.11072 0.07225,-0.11074 0.07222,-0.10986 0.07223,-0.10986 0.07222,-0.10901 0.07225,-0.10814 0.07224,-0.10814 0.07222,-0.10725 0.07225,-0.10685 0.07223,-0.10597 0.07222,-0.10597 0.07225,-0.10468 0.07222,-0.10423 0.07224,-0.10382 0.07225,-0.10294 0.07222,-0.1025 0.07224,-0.10166 0.07221,-0.10121 0.07225,-0.09991 0.07224,-0.09949 0.07222,-0.09906 0.07225,-0.0986 0.07222,-0.09734 0.07223,-0.09688 0.07225,-0.09645 0.07223,-0.09559 0.07223,-0.09475 0.07223,-0.09385 0.07224,-0.09343 0.07223,-0.09212 0.07222,-0.09171 0.07225,-0.09082 0.07224,-0.0904 0.07222,-0.08953 0.07225,-0.08825 0.07222,-0.0878 0.07223,-0.08695 0.07225,-0.08607 0.07222,-0.08564 0.07224,-0.08477 0.07223,-0.08306 0.07224,-0.08346 0.07224,-0.08219 0.07222,-0.08088 0.07225,-0.08004 0.07222,-0.07914 0.07223,-0.07872 0.07225,-0.07787 0.07222,-0.07742 0.07223,-0.07526 0.07224,-0.0757 0.07224,-0.07396 0.07223,-0.07353 0.07224,-0.07266 0.07223,-0.07181 0.07224,-0.07008 0.07223,-0.07006 0.07224,-0.0692 0.07221,-0.06748 0.07224,-0.06748 0.07225,-0.0666 0.07222,-0.06532 0.07224,-0.06444 0.07223,-0.06403 0.07224,-0.06227 0.07223,-0.06186 0.07224,-0.06099 0.07223,-0.05926 0.07222,-0.05925 0.07226,-0.0584 0.07223,-0.0571 0.07222,-0.05578 0.07223,-0.05495 0.07224,-0.05406 0.07223,-0.05321 0.07224,-0.05147 0.07223,-0.05276 0.07224,-0.05019 0.07222,-0.0493 0.07225,-0.04889 0.07223,-0.04801 0.07222,-0.0467 0.07225,-0.04585 0.07224,-0.04499 0.07222,-0.04326 0.07223,-0.04368 0.07224,-0.04196 0.07224,-0.04109 0.07223,-0.04065 0.07223,-0.0398 0.07224,-0.03807 0.07222,-0.03718 0.07225,-0.03677 0.07223,-0.03547 0.07222,-0.03546 0.07225,-0.03331 0.07223,-0.03244 0.07223,-0.03202 0.07223,-0.03027 0.07224,-0.03027 0.07223,-0.02812 0.07222,-0.02812 0.07225,-0.02768 0.07224,-0.02594 0.07222,-0.02509 0.07225,-0.02423 0.07224,-0.02466 0.07222,-0.02249 0.07225,-0.02163 0.07222,-0.02033 0.07223,-0.01946 0.07225,-0.01947 0.07222,-0.01817 0.07224,-0.01685 0.07222,-0.01644 0.07225,-0.01514 0.07223,-0.01471 0.07222,-0.01341 0.07225,-0.01297 0.07222,-0.01169 0.07223,-0.01167 0.07226,-0.0099 0.07222,-0.0091 0.07223,-0.0087 0.07224,-0.0073 0.07223,-0.0065 0.07224,-0.0056 0.07222,-0.0043 0.07225,-0.0039 0.07223,-0.003 0.07222,-0.0022 0.07226,-0.0017 0.07221,-4.4e-4 0.07224,4.4e-4 0.07225,8.7e-4 0.07222,8.7e-4 0.07223,0.0035 0.07224,0.0035 0.07223,0.0035 0.07224,0.0056 0.07222,0.0056 0.07225,0.0065 0.07222,0.0065 0.07223,0.0086 0.07225,0.0086 0.07222,0.01039 0.07224,0.0099 0.07223,0.01254 0.07224,0.01212 0.07224,0.01211 0.07223,0.01297 0.07223,0.01471 0.07224,0.01515 0.07222,0.01557 0.07225,0.01643 0.07222,0.01903 0.07223,0.01817 0.07226,0.01816 0.07222,0.01947 0.07223,0.02119 0.07224,0.01905 0.07223,0.0216 0.07224,0.02294 0.07223,0.02292 0.07223,0.02293 0.07223,0.02379 0.07225,0.02421 0.07223,0.02596 0.07222,0.02638 0.07224,0.02681 0.07223,0.02683 0.07224,0.02812 0.07223,0.02898 0.07223,0.02941 0.07224,0.02984 0.07222,0.02984 0.07225,0.03114 0.07224,0.03246 0.07222,0.03244 0.07225,0.032 0.07223,0.03374 0.07222,0.03331 0.07223,0.03632 0.07224,0.03548 0.07224,0.03546 0.07223,0.03589 0.07224,0.03677 0.07223,0.03763 0.07222,0.03721 0.07225,0.03806 0.07224,0.03849 0.07222,0.03979 0.07225,0.03937 0.07222,0.04022 0.07223,0.0398 0.07224,0.04196 0.07223,0.04109 0.07224,0.04282 0.07222,0.04239 0.07225,0.04324 0.07223,0.04241 0.07222,0.04367 0.07226,0.04499 0.07223,0.04412 0.07222,0.04541 0.07225,0.04498 0.07222,0.04543 0.07223,0.04628 0.07224,0.0467 0.07223,0.04802 0.07224,0.04845 0.07222,0.04671 0.07225,0.04887 0.07223,0.04803 0.07222,0.04756 0.07225,0.04932 0.07222,0.04888 0.07224,0.05061 0.07225,0.048 0.07222,0.05104 0.07224,0.04931 0.07223,0.05191 0.07224,0.05017 0.07223,0.05233 0.07222,0.05149 0.07225,0.05102 0.07223,0.05234 0.07223,0.05148 0.07225,0.05277 0.07222,0.05363 0.07223,0.05234 0.07225,0.05276 0.07222,0.05234 0.07224,0.05321 0.07223,0.05493 0.07223,0.05408 0.07224,0.05449 0.07222,0.05363 0.07225,0.05495 0.07222,0.05405 0.07224,0.05494 0.07225,0.05364 0.07222,0.05536 0.07223,0.0545 0.07223,0.05449 0.07224,0.05625 0.07224,0.05448 0.07223,0.05451 0.07224,0.05493 0.07222,0.05536 0.07223,0.05667 0.07225,0.05579 0.07222,0.05493 0.07224,0.05536 0.07225,0.05494 0.07222,0.05494 0.07223,0.05623 0.07224,0.05535 0.07223,0.05667 0.07224,0.05407 0.07223,0.05537 0.07224,0.05666 0.07222,0.05493 0.07223,0.05493 0.07226,0.05623 0.07221,0.05667 0.07224,0.05493 0.07223,0.05536 0.07224,0.05408 0.07223,0.05578 0.07224,0.05493 0.07223,0.05494 0.07222,0.0545 0.07226,0.0545 0.07223,0.05494 0.07222,0.05406 0.07225,0.05536 0.07224,0.05363 0.07222,0.05364 0.07223,0.05277 0.07224,0.05451 0.07223,0.05232 0.07224,0.05451 0.07223,0.05278 0.07224,0.05234 0.07222,0.05406 0.07225,0.05276 0.07223,0.05147 0.07222,0.05277 0.07225,0.05105 0.07222,0.05234 0.07224,0.05232 0.07223,0.04976 0.07224,0.05277 0.07223,0.04974 0.07222,0.05147 0.07225,0.0493 0.07223,0.04931 0.07223,0.05062 0.07225,0.04887 0.07223,0.05017 0.07222,0.04802 0.07225,0.04801 0.07222,0.04974 0.07224,0.04628 0.07223,0.04758 0.07224,0.04802 0.07223,0.04585 0.07222,0.04713 0.07225,0.04628 0.07224,0.04671 0.07222,0.04413 0.07225,0.04584 0.07222,0.04585 0.07223,0.0424 0.07225,0.04499 0.07222,0.04411 0.07224,0.04196 0.07222,0.04456 0.07225,0.04324 0.07223,0.04152 0.07222,0.0424 0.07225,0.04065 0.07224,0.04067 0.07222,0.03935 0.07225,0.04239 0.07222,0.0385 0.07223,0.03892 0.07225,0.03937 0.07222,0.03891 0.07224,0.03807 0.07223,0.03591 0.07224,0.03849 0.07224,0.03504 0.07221,0.03762 0.07226,0.03547 0.07222,0.03547 0.07223,0.03417 0.07225,0.0346 0.07222,0.03331 0.07224,0.03244 0.07223,0.03376 0.07224,0.03372 0.07223,0.03158 0.07224,0.03028 0.07223,0.03027 0.07222,0.02942 0.07224,0.03201 0.07225,0.02854 0.07222,0.02855 0.07223,0.02984 0.07225,0.02725 0.07222,0.02768 0.07224,0.02509 0.07223,0.02638 0.07224,0.02553 0.07223,0.02682 0.07224,0.02422 0.07223,0.02422 0.07222,0.02206 0.07224,0.02595 0.07225,0.01946 0.07222,0.02336 0.07223,0.0199 0.07224,0.0212 0.07223,0.02119 0.07224,0.02119 0.07223,0.01859 0.07224,0.02033 0.07222,0.01601 0.07225,0.01644 0.07223,0.01773 0.07222,0.01817 0.07224,0.01643 0.07225,0.01514 0.07222,0.01558 0.07223,0.01297 0.07224,0.01556 0.07223,0.0087 0.07224,0.01297 0.07223,0.01038 0.07224,0.01298 0.07222,0.01038 0.07225,0.01082 0.07223,0.0078 0.07222,0.01211 0.07225,0.0078 0.07222,0.0082 0.07224,0.0052 0.07223,0.0095 0.07224,0.0056 0.07223,0.0052 0.07222,0.0069 0.07226,0.0056 0.07223,0.0043 0.07222,0.003 0.07225,0.0026 0.07224,0.0043 0.07222,0.003 h 0.07225 l 0.07222,4.3e-4 0.07223,0.0017 h 0.07224 l 0.07223,4.2e-4 0.07224,-0.0026 0.07222,0.0017 0.07225,-0.0026 0.07223,-0.0026 0.07222,-0.0022 0.07225,-0.0056 0.07222,-0.0022 0.07224,-0.0052 0.07224,-0.0056 0.07223,-0.0052 0.07223,-0.0065 0.07222,-0.0056 0.07225,-0.0052 0.07224,-0.0082 0.07222,-0.0069 0.07225,-0.0082 0.07222,-0.0095 0.07224,-0.0082 0.07224,-0.0095 0.07222,-0.0082 0.07224,-0.01253 0.07225,-0.01 0.07222,-0.01254 0.07223,-0.0082 0.07222,-0.0082 0.07225,-0.01255 0.07224,-0.01298 0.07222,-0.01427 0.07225,-0.01254 0.07222,-0.01601 0.07223,-0.01254 0.07225,-0.01471 0.07222,-0.01556 0.07224,-0.01472 0.07223,-0.0173 0.07224,-0.016 0.07223,-0.0147 0.07224,-0.02032 0.07223,-0.01473 0.07222,-0.01771 0.07224,-0.0173 0.07225,-0.01775 0.07222,-0.02077 0.07223,-0.01945 0.07226,-0.01775 0.07221,-0.01816 0.07224,-0.01773 0.07224,-0.02249 0.07223,-0.01947 0.07224,-0.01816 0.07223,-0.01989 0.07224,-0.02251 0.07222,-0.01859 0.07223,-0.02422 0.07225,-0.01861 0.07222,-0.02421 0.07224,-0.0186 0.07223,-0.01988 0.07224,-0.02466 0.07223,-0.02034 0.07224,-0.02337 0.07223,-0.02032 0.07222,-0.02162 0.07225,-0.02381 0.07224,-0.02205 0.07222,-0.02032 0.07223,-0.02509 0.07225,-0.02076 0.07222,-0.02249 0.07224,-0.02076 0.07223,-0.02208 0.07224,-0.02247 0.07223,-0.0212 0.07224,-0.0225 0.07223,-0.02248 0.07222,-0.02293 0.07225,-0.02249 0.07224,-0.02292 0.07222,-0.02294 0.07224,-0.01815 0.07223,-0.02337 0.07223,-0.02423 0.07224,-0.01858 0.07223,-0.02033 0.07224,-0.01989 0.07222,-0.02338 0.07225,-0.01557 0.07223,-0.02032 0.07223,-0.02034 0.07224,-0.02032 0.07222,-0.02077 0.07224,-0.0173 0.07225,-0.016 0.07222,-0.02034 0.07223,-0.01771 0.07224,-0.01601 0.07223,-0.01774 0.07224,-0.016 0.07222,-0.01472 0.07225,-0.01601 0.07223,-0.01295 0.07222,-0.01775 0.07226,-0.01341 0.07221,-0.01297 0.07224,-0.0099 0.07225,-0.01817 0.07222,-0.0086 0.07224,-0.0099 0.07222,-0.01341 0.07225,-0.0086 0.07223,-0.0099 0.07222,-0.0056 0.07225,-0.0099 0.07222,-0.0086 0.07224,-8.7e-4 0.07225,-0.0099 0.07222,-0.0056 0.07223,-4.4e-4 0.07225,-8.7e-4 0.07222,-0.0052 0.07224,-8.7e-4 0.07221,0.0026 0.07226,-4.4e-4 0.07223,-4.3e-4 0.07222,0.0039 0.07225,0.0043 0.07222,0.003 0.07224,0.0043 0.07225,0.0091 0.07222,0.0078 0.07223,0.0091 0.07224,0.01298 0.07224,0.0091 0.07223,0.0095 0.07222,0.01775 0.07225,0.01298 0.07222,0.01425 0.07223,0.01947 0.07225,0.01818 0.07222,0.01945 0.07224,0.02292 0.07225,0.02509 0.07222,0.02293 0.07223,0.0251 0.07224,0.02983 0.07223,0.02855 0.07224,0.02985 0.07223,0.03029 0.07224,0.03546 0.07222,0.03546 0.07224,0.03546 0.07224,0.03894 0.07222,0.04109 0.07224,0.04239 0.07223,0.04108 0.07224,0.04629 0.07223,0.04628 0.07224,0.05321 0.07223,0.0519 0.07223,0.05363 0.07224,0.05191 0.07224,0.05883 0.07222,0.05924 0.07224,0.05927 0.07225,0.06445 0.07221,0.06488 0.07224,0.07179 0.07224,0.06531 0.07223,0.07225 0.07224,0.07742 0.07223,0.07786 0.07224,0.06532 0.07222,0.07785 0.07225,0.08348 0.07223,0.09083 0.07222,0.0839 0.07224,0.09128 0.07223,0.09127 0.07224,0.09862 0.07223,0.09688 0.07224,0.09949 0.07223,0.10423 0.07222,0.11031 0.07225,0.1051 0.07224,0.11764 0.07222,0.11116 0.07225,0.11809 0.07222,0.12026 0.07223,0.12412 0.07224,0.1263 0.07223,0.13193 0.07224,0.12674 0.07223,0.13452 0.07224,0.14534 0.07224,0.14012 0.07221,0.14794 0.07225,0.14619 0.07224,0.14836 0.07222,0.15616 0.07225,0.16176 0.07222,0.15703 0.07223,0.1678 0.07225,0.16481 0.07223,0.17041 0.07223,0.17822 0.07222,0.17864 0.07225,0.18426 0.07223,0.18685 0.07222,0.18685 0.07225,0.19335 0.07222,0.2007 0.07224,0.19551 0.07225,0.21452 0.07222,0.20416 0.07223,0.21152 0.07225,0.22319 0.07222,0.22017 0.07224,0.22621 0.07222,0.23227 0.07225,0.23444 0.07224,0.23703 0.07222,0.24266 0.07225,0.24914 0.07222,0.25173 0.07223,0.24612 0.07225,0.27336 0.07222,0.26038 0.07223,0.263 0.07224,0.27681 0.07224,0.27727 0.07223,0.28547 0.07222,0.29369 0.07225,0.28851 0.07222,0.30234 0.07224,0.30277 0.07225,0.3058 0.07221,0.31361 0.07224,0.32007 0.07225,0.32266 0.07222,0.33091 0.07224,0.33175 0.07223,0.33435 0.07224,0.34647 0.07223,0.35641 0.07222,0.35166 0.07225,0.3603 0.07222,0.36635 0.07224,0.37717 0.07225,0.37761 0.07222,0.3802 0.07223,0.38713 0.07224,0.38971 0.07223,0.40616 0.07224,0.4122 0.07223,0.40962 0.07224,0.41653 0.07222,0.43255 0.07225,0.42172 0.07223,0.44421 0.07222,0.43901 0.07224,0.44769 0.07223,0.46238 0.07224,0.46541 0.07223,0.46066 0.07224,0.47665 0.07224,0.4918 0.07223,0.48878 0.07223,0.49568 0.07224,0.50606 0.07222,0.50781 0.07225,0.52596 0.07223,0.51948 0.07222,0.52857 0.07224,0.53894 0.07224,0.54844 0.07223,0.54933 0.07223,0.56057 0.07224,0.56359 0.07224,0.5727 0.07221,0.58133 0.07225,0.59906 0.07224,0.58609 0.07222,0.61117 0.07225,0.6142 0.07222,0.61768 0.07224,0.63279 0.07223,0.63627 0.07224,0.64707 0.07223,0.65097 0.07223,0.65789 0.07224,0.66352 0.07224,0.68082 0.07222,0.6899 0.07225,0.69378 0.07223,0.70288 0.07222,0.70849 0.07225,0.7323 0.07222,0.71931"
       style="fill:none;stroke:#b39af0;stroke-width:0.99628;stroke-linecap:butt;stroke-linejoin:miter;stroke-miterlimit:10;stroke-dasharray:none;stroke-opacity:1"
       transform="matrix(1.3333333,0,0,-1.3333333,67.850667,132.27867)" />
    <path
       id="path6"
       d="M -28.3468,0 H 84.79135"
       style="fill:none;stroke:#c9d1d9;stroke-width:0.24907;stroke-linecap:butt;stroke-linejoin:miter;stroke-miterlimit:10;stroke-dasharray:none;stroke-opacity:1"
       transform="matrix(1.3333333,0,0,-1.3333333,272.768,132.27867)" />
    <path
       id="path7"
       d="M -1.89291,2.12108 C -1.54709,0.84842 -0.77643,0.24745 0,0 -0.77643,-0.24745 -1.54709,-0.84842 -1.89291,-2.12108"
       style="fill:none;stroke:#c9d1d9;stroke-width:0.24907;stroke-linecap:round;stroke-linejoin:round;stroke-miterlimit:10;stroke-dasharray:none;stroke-opacity:1"
       transform="matrix(1.3333333,0,0,-1.3333333,385.9892,132.27867)" />
    <path
       id="path8"
       d="M 0,-28.3468 V 84.79135"
       style="fill:none;stroke:#c9d1d9;stroke-width:0.24907;stroke-linecap:butt;stroke-linejoin:miter;stroke-miterlimit:10;stroke-dasharray:none;stroke-opacity:1"
       transform="matrix(1.3333333,0,0,-1.3333333,272.768,132.27867)" />
    <path
       id="path9"
       d="M -1.89291,2.12108 C -1.54709,0.84842 -0.77643,0.24745 0,0 -0.77643,-0.24745 -1.54709,-0.84842 -1.89291,-2.12108"
       style="fill:none;stroke:#c9d1d9;stroke-width:0.24907;stroke-linecap:round;stroke-linejoin:round;stroke-miterlimit:10;stroke-dasharray:none;stroke-opacity:1"
       transform="matrix(0,-1.3333333,-1.3333333,0,272.768,19.057467)" />
    <path
       id="path10"
       d="m -5.66927,-14.17296 0.03376,0.08435 0.03372,0.08434 0.03374,0.08435 0.03375,0.08435 0.03374,0.08433 0.03372,0.08435 0.03375,0.08434 0.03374,0.08435 0.03373,0.08435 0.03374,0.08434 0.03374,0.08435 0.03374,0.08435 0.03373,0.08433 0.03374,0.08434 0.03373,0.08436 0.03374,0.08434 0.03376,0.08434 0.03372,0.08436 0.03374,0.08434 0.03375,0.08433 0.03372,0.08435 0.03374,0.08435 0.03375,0.08435 0.03374,0.08434 0.03372,0.08435 0.03375,0.08435 0.03374,0.08433 0.03373,0.08434 0.03373,0.08437 0.03375,0.08433 0.03374,0.08434 0.03373,0.08437 0.03374,0.08433 0.03374,0.08433 0.03374,0.08435 0.03375,0.08435 0.03372,0.08434 0.03374,0.08435 0.03375,0.08435 0.03372,0.08434 0.03374,0.08435 0.03375,0.08433 0.03374,0.08435 0.03372,0.08435 0.03375,0.08434 0.03374,0.08435 0.03374,0.08435 0.03372,0.08434 0.03375,0.08433 0.03374,0.08437 0.03374,0.08433 0.03373,0.08434 0.03374,0.08436 0.03374,0.08434 0.03375,0.08433 0.03372,0.08435 0.03374,0.08435 0.03375,0.08436 0.03372,0.08433 0.03374,0.08435 0.03375,0.08435 0.03374,0.08434 0.03372,0.08433 0.03374,0.08437 0.03375,0.08433 0.03374,0.08434 0.03372,0.08436 0.03375,0.08434 0.03374,0.08434 0.03374,0.08435 0.03374,0.08435 0.03373,0.08433 0.03374,0.08435 0.03375,0.08435 0.03372,0.08434 0.03374,0.08435 0.03375,0.08434 0.03373,0.08434 0.03373,0.08436 0.03376,0.08433 0.03373,0.08435 0.03372,0.08435 0.03374,0.08434 0.03375,0.08433 0.03374,0.08437 0.03373,0.08433 0.03375,0.08434 0.03373,0.08436 0.03374,0.08434 0.03374,0.08434 0.03374,0.08435 0.03373,0.08435 0.03375,0.08435 0.03372,0.08433 0.03374,0.08435 0.03376,0.08435 0.03372,0.08434 0.03373,0.08433 0.03374,0.08437 0.03375,0.08434 0.03373,0.08433 0.03373,0.08437 0.03376,0.08433 0.03374,0.08433 0.03371,0.08436 0.03376,0.08435 0.03373,0.08433 0.03374,0.08436 0.03374,0.08435 0.03374,0.08433 0.03373,0.08435 0.03375,0.08434 0.03373,0.08435 0.03373,0.08435 0.03376,0.08433 0.03372,0.08435 0.03374,0.08435 0.03373,0.08434 0.03376,0.08433 0.03372,0.08437 0.03373,0.08434 0.03376,0.08433 0.03373,0.08437 0.03373,0.08433 0.03375,0.08434 0.03374,0.08435 0.03373,0.08435 0.03374,0.08435 0.03374,0.08433 0.03373,0.08436 0.03376,0.08435 0.03372,0.08433 0.03374,0.08433 0.03373,0.08437 0.03374,0.08434 0.03374,0.08433 0.03374,0.08436 0.03375,0.08434 0.03372,0.08434 0.03374,0.08435 0.03375,0.08435 0.03374,0.08434 0.03372,0.08435 0.03375,0.08433 0.03374,0.08435 0.03373,0.08435 0.03374,0.08434 0.03374,0.08435 0.03374,0.08435 0.03373,0.08434 0.03374,0.08433 0.03374,0.08437 0.03374,0.08433 0.03373,0.08434 0.03374,0.08436 0.03374,0.08434 0.03375,0.08433 0.03372,0.08435 0.03374,0.08435 0.03375,0.08434 0.03374,0.08435 0.03372,0.08435 0.03375,0.08435 0.03374,0.08433 0.03373,0.08434 0.03374,0.08437 0.03374,0.08433 0.03374,0.08434 0.0337,0.08389 L 0.06616,0.1652 0.0999,0.24956 0.13364,0.33391 0.16739,0.41824 0.20111,0.5026 0.23485,0.58694 0.2686,0.67128 0.30232,0.75562 0.33606,0.83998 0.36981,0.92432 0.40355,1.00865 0.43727,1.09302 0.47102,1.17735 0.50476,1.26169 0.5385,1.34604 0.57222,1.43039 0.60597,1.51474 0.63971,1.59908 0.67345,1.68343 0.70718,1.76778 0.74092,1.85211 0.77466,1.93645 0.80841,2.02081 0.84213,2.10515 0.87587,2.18948 0.90962,2.27385 0.94334,2.35818 0.97708,2.44252 1.01083,2.52687 1.04457,2.61122 1.0783,2.69556 1.11205,2.7799 1.14578,2.86426 1.17952,2.9486 1.21324,3.03294 1.247,3.11728 1.28073,3.20163 1.31447,3.28598 1.3482,3.37032 1.38194,3.45467 1.41568,3.53902 1.44943,3.62335 1.48315,3.70769 1.51689,3.79205 1.55064,3.87639 1.58437,3.96072 1.6181,4.04509 1.65186,4.12943 1.6856,4.21376 1.71931,4.29811 1.75305,4.38246 1.7868,4.46681 1.82054,4.55115 1.85426,4.6355 1.88802,4.71985 1.92175,4.80418 1.95549,4.88852 1.98923,4.97289 2.02296,5.05722 2.0567,5.14156 2.09045,5.22592 2.12418,5.31026 2.15791,5.39459 2.19167,5.47894 2.22539,5.5633 2.25912,5.64763 2.29286,5.73198 2.32661,5.81633 2.36034,5.90067 2.39407,5.98502 2.42783,6.06935 2.46156,6.1537 2.49529,6.23805 2.52904,6.32239 2.56277,6.40674 2.59651,6.49109 2.63025,6.57542 2.66399,6.65976 2.69772,6.74413 2.73148,6.82846 2.7652,6.9128 2.79893,6.99716 2.83269,7.0815 2.86641,7.16583 2.90015,7.25018 2.93388,7.33453 2.96764,7.41888 3.00136,7.50322 3.0351,7.58757 3.06885,7.67192 3.10258,7.75626 3.1363,7.84059 3.17006,7.92496 3.2038,8.0093 3.23753,8.09363 3.27127,8.178 3.30501,8.26233 3.33875,8.34666 3.3725,8.43102 3.40622,8.51537 3.43996,8.5997 3.4737,8.68405 3.50743,8.7684 3.54117,8.85274 3.5749,8.93709 3.60866,9.02142 3.64238,9.10577 3.67612,9.19012 3.70987,9.27446 3.7436,9.35881 3.77733,9.44316 3.81108,9.5275 3.84482,9.61183 3.87856,9.6962 3.9123,9.78053 l 0.03373,0.08434 0.03374,0.08436 0.03375,0.08434 0.03372,0.08435 0.03374,0.08434 0.03374,0.08434 0.03373,0.08436 0.03374,0.08433 0.03374,0.08435 0.03375,0.08436 0.03372,0.08433 0.03374,0.08433 0.03375,0.08437 0.03374,0.08433 0.03372,0.08434 0.03375,0.08435 0.03374,0.08435 0.03374,0.08434 0.03373,0.08435 0.03374,0.08435 0.03374,0.08433 0.03374,0.08435 0.03373,0.08434 0.03374,0.08435 0.03374,0.08435 0.03373,0.08434 0.03374,0.08435 0.03374,0.08435 0.03375,0.08433 0.03372,0.08434 0.03374,0.08436 0.03375,0.08434 0.03374,0.08433 0.03372,0.08437 0.03375,0.08433 0.03374,0.08434 0.03374,0.08435 0.03372,0.08435 0.03375,0.08435 0.03374,0.08434 0.03374,0.08435 0.03373,0.08435 0.03374,0.08433 0.03374,0.08434 0.03375,0.08437 0.03372,0.08433 0.03374,0.08434 0.03375,0.08436 0.03372,0.08434 0.03374,0.08433 0.03375,0.08435 0.03374,0.08435 0.03373,0.08434 0.03375,0.08435 0.03373,0.08435 0.03374,0.08434 0.03372,0.08435 0.03376,0.08433 0.03373,0.08435 0.03374,0.08435 0.03373,0.08434 0.03374,0.08435 0.03374,0.08435 0.03375,0.08433 0.03373,0.08434 0.03373,0.08436 0.03375,0.08434 0.03373,0.08434 0.03373,0.08436 0.03376,0.08434 0.03374,0.08433 0.03372,0.08435 0.03373,0.08435 0.03375,0.08435 0.03374,0.08434 0.03372,0.08435 0.03376,0.08435 0.03373,0.08434 0.03374,0.08433 0.03374,0.08437 0.03374,0.08433 0.03373,0.08434 0.03375,0.08436 0.03373,0.08434 0.03373,0.08433 0.03376,0.08436 0.03372,0.08435 0.03374,0.08433 0.03375,0.08435 0.03374,0.08435 0.03372,0.08434 0.03373,0.08435 0.03376,0.08433 0.03373,0.08435 0.03373,0.08435 0.03375,0.08434 0.03374,0.08435 0.03373,0.08435 0.03374,0.08434 0.03374,0.08433 0.03373,0.08437 0.03376,0.08433 0.03372,0.08434 0.03374,0.08436 0.03375,0.08434 0.03372,0.08433 0.03374,0.08436 0.03373,0.08435 0.03376,0.08435 0.03372,0.08433 0.03374,0.08435 0.03375,0.08435 0.03374,0.08434 0.03371,0.08433 0.03376,0.08437 0.03374,0.08433 0.03373,0.08434 0.03374,0.08437 0.03374,0.08433 0.03374,0.08434 0.03375,0.08435 0.03372,0.08435 0.03374,0.08433 0.03375,0.08435 0.03372,0.08435 0.03374,0.08434 0.03373,0.08435 0.03376,0.08434 0.03372,0.08435 0.03374,0.08435 0.03375,0.08433 0.03373,0.08435 0.03373,0.08435 0.03375,0.08434 0.03374,0.08433 0.03374,0.08437 0.03374,0.08433 0.03373,0.08434 0.03374,0.08437 0.03375,0.08433 0.03372,0.08434 0.03374,0.08434 0.03374,0.08436 0.03373,0.08435 0.03374,0.08433 0.03374,0.08436 0.03375,0.08434 0.03372,0.08434 0.03374,0.08434 0.03375,0.08436 0.03374,0.08434 0.03372,0.08433 0.03375,0.08437 0.03374,0.08433 0.03374,0.08434 0.03374,0.08435 0.03373,0.08435 0.03374,0.08434 0.03374,0.08435 0.03373,0.08435 0.03374,0.08433 0.03374,0.08435 0.03374,0.08434 0.03373,0.08435 0.03374,0.08435 0.03375,0.08433 0.03372,0.08435 0.03374,0.08436 0.03375,0.08433 0.03374,0.08434 0.03372,0.08436 0.03376,0.08434 0.03373,0.08434 0.03374,0.08436 0.03374,0.08434 0.03373,0.08433 0.03374,0.08435 0.03374,0.08435 0.03374,0.08435 0.03373,0.08434 0.03374,0.08435 0.03374,0.08435 0.03373,0.08433 0.03374,0.08434 0.03375,0.08436 0.03373,0.08434 0.03373,0.08433 0.03376,0.08437 0.03373,0.08434 0.03373,0.08433 0.03375,0.08435 0.03373,0.08435 0.03374,0.08434 0.03372,0.08435 0.03376,0.08435 0.03373,0.08433 0.03374,0.08435 0.03373,0.08434 0.03374,0.08435 0.03374,0.08435 0.03375,0.08434 0.03373,0.08434 0.03374,0.08436 0.03375,0.08434 0.03372,0.08433 0.03373,0.08437 0.03376,0.08433 0.03374,0.08433 0.03372,0.08436 0.03375,0.08435 0.03373,0.08433 0.03374,0.08435 0.03372,0.08435 0.03376,0.08435 0.03373,0.08434 0.03374,0.08433 0.03374,0.08437 0.03374,0.08433 0.03373,0.08434 0.03376,0.08437 0.03372,0.08433 0.03373,0.08434 0.03376,0.08435 0.03372,0.08435 0.03374,0.08433 0.03375,0.08435 0.03374,0.08435 0.03372,0.08434 0.03374,0.08435 0.03375,0.08434 0.03373,0.08434 0.03373,0.08436 0.03375,0.08433 0.03374,0.08435 0.03373,0.08436 0.03374,0.08433 0.03374,0.08433 0.03374,0.08437 0.03375,0.08433 0.03372,0.08434 0.03374,0.08437 0.03375,0.08433 0.03372,0.08434 0.03374,0.08435 0.03374,0.08435 0.03375,0.08433 0.03372,0.08435 0.03374,0.08435 0.03375,0.08435 0.03374,0.08434 0.03372,0.08434 0.03375,0.08436 0.03374,0.08434 0.03374,0.08433 0.03373,0.08437 0.03374,0.08433 0.03374,0.08434 0.03375,0.08435 0.03372,0.08435 0.03374,0.08433 0.03375,0.08436 0.03372,0.08434 0.03374,0.08434 0.03373,0.08435 0.03376,0.08434 0.03372,0.08435 0.03374,0.08435 0.03375,0.08433 0.03374,0.08435 0.03372,0.08436 0.03375,0.08433 0.03374,0.08434 0.03374,0.08436 0.03374,0.08434 0.03373,0.08433 0.03374,0.08437 0.03375,0.08433 0.03372,0.08434 0.03374,0.08435 0.03374,0.08435 0.03373,0.08434 0.03374,0.08435 0.03374,0.08435 0.03375,0.08435 0.03372,0.08433 0.03374,0.08434 0.03376,0.08436 0.03373,0.08434 0.03372,0.08433 0.03375,0.08437 0.03374,0.08433 0.03374,0.08434 0.03374,0.08435 0.03373,0.08435 0.03374,0.08434 0.03375,0.08435 0.03372,0.08435 0.03374,0.08433 0.03374,0.08435 0.03374,0.08434 0.03373,0.08435 0.03374,0.08435 0.03375,0.08434 0.03372,0.08435 0.03374,0.08435 0.03375,0.08433 0.03374,0.08434 0.03372,0.08436 0.03376,0.08434 0.03373,0.08433 0.03374,0.08437 0.03374,0.08434 0.03373,0.08433 0.03374,0.08435 0.03374,0.08435 0.03374,0.08434 0.03373,0.08435 0.03374,0.08435 0.03374,0.08435 0.03374,0.08433 0.03373,0.08434 0.03375,0.08436 0.03373,0.08434 0.03373,0.08434 0.03376,0.08436 0.03373,0.08434 0.03373,0.08433 0.03375,0.08435 0.03373,0.08435 0.03374,0.08434 0.03372,0.08435 0.03376,0.08435 0.03373,0.08434 0.03374,0.08435 0.03374,0.08433 0.03374,0.08435 0.03373,0.08435 0.03374,0.08434 0.03374,0.08435 0.03374,0.08435 0.03375,0.08433 0.03372,0.08434 0.03373,0.08437 0.03376,0.08433 0.03374,0.08434 0.03372,0.08436 0.03375,0.08434 0.03373,0.08433 0.03374,0.08435 0.03373,0.08435 0.03375,0.08434 0.03374,0.08435 0.03374,0.08435 0.03373,0.08435 0.03374,0.08434 0.03373,0.08433 0.03376,0.08437 0.03372,0.08433 0.03374,0.08434 0.03375,0.08436 0.03372,0.08434 0.03374,0.08434 0.03375,0.08435 0.03374,0.08435 0.03372,0.08433 0.03374,0.08435 0.03375,0.08435 0.03374,0.08434 0.03372,0.08435 0.03375,0.08433 0.03374,0.08436 0.03373,0.08435 0.03374,0.08433 0.03374,0.08435 0.03374,0.08435 0.03375,0.08434 0.03372,0.08433 0.03374,0.08437 0.03375,0.08433 0.03372,0.08434 0.03374,0.08436 0.03375,0.08434 0.03374,0.08434 0.03372,0.08435 0.03374,0.08435 0.03375,0.08435 0.03374,0.08433 0.03372,0.08435 0.03375,0.08435 0.03374,0.08434 0.03374,0.08433 0.03373,0.08437 0.03374,0.08434 0.03374,0.08433 0.03375,0.08437 0.03372,0.08433 0.03374,0.08434 0.03375,0.08435 0.03372,0.08435 0.03374,0.08434 0.03374,0.08434 0.03375,0.08436 0.03372,0.08433 0.03374,0.08435 0.03375,0.08434 0.03374,0.08435 0.03372,0.08435 0.03375,0.08433 0.03374,0.08434 0.03374,0.08436 0.03374,0.08434 0.03373,0.08433 0.03374,0.08437 0.03375,0.08434 0.03372,0.08433 0.03374,0.08435 0.03375,0.08435 0.03373,0.08434 0.03374,0.08435 0.03373,0.08435 0.03375,0.08435 0.03372,0.08433 0.03374,0.08434 0.03376,0.08437 0.03373,0.08433 0.03372,0.08434 0.03375,0.08436 0.03374,0.08434 0.03374,0.08434 0.03374,0.08434 0.03373,0.08436 0.03374,0.08433 0.03375,0.08435 0.03373,0.08435 0.03373,0.08434 0.03374,0.08435 0.03374,0.08433 0.03373,0.08435 0.03374,0.08435 0.03375,0.08434 0.03373,0.08435 0.03373,0.08435 0.03376,0.08433 0.03373,0.08434 0.03372,0.08437 0.03376,0.08433 0.03373,0.08434 0.03374,0.08436 0.03374,0.08434 0.03374,0.08433 0.03373,0.08435 0.03374,0.08435 0.03374,0.08434 0.03373,0.08435 0.03374,0.08435 0.03374,0.08435 0.03374,0.08434 0.03373,0.08433 0.03376,0.08437 0.03372,0.08434 0.03373,0.08433 0.03376,0.08437 0.03373,0.08433 0.03373,0.08433 0.03375,0.08436 0.03374,0.08435 0.03373,0.08433 0.03374,0.08435 0.03374,0.08435 0.03373,0.08434 0.03374,0.08435 0.03374,0.08433 0.03374,0.08435 0.03373,0.08436 0.03374,0.08433 0.03374,0.08435 0.03374,0.08435 0.03375,0.08434 0.03372,0.08433 0.03373,0.08437 0.03376,0.08433 0.03374,0.08434 0.03372,0.08436 0.03375,0.08434 0.03373,0.08433 0.03374,0.08436 0.03373,0.08434 0.03375,0.08434 0.03374,0.08435 0.03374,0.08435 0.03373,0.08436 0.03374,0.08433 0.03373,0.08433 0.03374,0.08437 0.03374,0.08434 0.03374,0.08433 0.03375,0.08437 0.03372,0.08433 0.03374,0.08434 0.03375,0.08435 0.03374,0.08435 0.03372,0.08433 0.03375,0.08435 0.03374,0.08435 0.03374,0.08434 0.03372,0.08435 0.03375,0.08434 0.03374,0.08435 0.03374,0.08435 0.03373,0.08433 0.03374,0.08435 0.03374,0.08435 0.03375,0.08434 0.03372,0.08433 0.03374,0.08437 0.03375,0.08433 0.03372,0.08434 0.03374,0.08436 0.03375,0.08434 0.03374,0.08434 0.03372,0.08435 0.03374,0.08435 0.03375,0.08433 0.03374,0.08435 0.03372,0.08435 0.03375,0.08436 0.03374,0.08433 0.03374,0.08434 0.03373,0.08436 0.03374,0.08434 0.03374,0.08433 0.03375,0.08437 0.03372,0.08433 0.03374,0.08434 0.03375,0.08435 0.03372,0.08435 0.03374,0.08434 0.03374,0.08435 0.03375,0.08435 0.03372,0.08433 0.03374,0.08435 0.03375,0.08434 0.03374,0.08435 0.03372,0.08435 0.03375,0.08433 0.03374,0.08436 0.03374,0.08434 0.03374,0.08434 0.03373,0.08434 0.03374,0.08436 0.03375,0.08434 0.03372,0.08433 0.03374,0.08437 0.03375,0.08433 0.03373,0.08434 0.03374,0.08435 0.03373,0.08435 0.03375,0.08434 0.03372,0.08435 0.03374,0.08435 0.03376,0.08435 0.03373,0.08433 0.03372,0.08434 0.03375,0.08436 0.03374,0.08434 0.03374,0.08433 0.03374,0.08437 0.03373,0.08434 0.03374,0.08433 0.03375,0.08435 0.03373,0.08435 0.03373,0.08434 0.03374,0.08435 0.03374,0.08435 0.03373,0.08433 0.03374,0.08435 0.03375,0.08434 0.03373,0.08435 0.03373,0.08435 0.03376,0.08434 0.03373,0.08435 0.03373,0.08435 0.03375,0.08433 0.03373,0.08434 0.03374,0.08436 0.03374,0.08434 0.03374,0.08434 0.03373,0.08436 0.03376,0.08434 0.03372,0.08433 0.03374,0.08435 0.03373,0.08435 0.03374,0.08434 0.03374,0.08435 0.03373,0.08435 0.03376,0.08435 0.03372,0.08434 0.03374,0.08433 0.03375,0.08437 0.03374,0.08433 0.03372,0.08434 0.03375,0.08435 0.03374,0.08435 0.03373,0.08433 0.03374,0.08435 0.03374,0.08435 0.03374,0.08434 0.03373,0.08435 0.03374,0.08434 0.03374,0.08435 0.03373,0.08435 0.03374,0.08433 0.03374,0.08435 0.03374,0.08435 0.03375,0.08434 0.03372,0.08433 0.03373,0.08437 0.03376,0.08434 0.03374,0.08433 0.03372,0.08437 0.03375,0.08433 0.03374,0.08434 0.03374,0.08435 0.03372,0.08435 0.03375,0.08434 0.03374,0.08434 0.03374,0.08436 0.03373,0.08433 0.03374,0.08435 0.03373,0.08434 0.03374,0.08436 0.03374,0.08434 0.03374,0.08433 0.03375,0.08437 0.03372,0.08433 0.03374,0.08434 0.03375,0.08435 0.03374,0.08435 0.03372,0.08434 0.03376,0.08435 0.03373,0.08435 0.03374,0.08433 0.03372,0.08435 0.03375,0.08434 0.03374,0.08435 0.03374,0.08435 0.03373,0.08433 0.03374,0.08436 0.03374,0.08435 0.03373,0.08433 0.03374,0.08434 0.03374,0.08436 0.03375,0.08434 0.03372,0.08434 0.03374,0.08436 0.03375,0.08434 0.03374,0.08433 0.03372,0.08435 0.03374,0.08435 0.03375,0.08434 0.03374,0.08435 0.03372,0.08435 0.03375,0.08433 0.03374,0.08435 0.03374,0.08434 0.03373,0.08436 0.03374,0.08434 0.03374,0.08433 0.03374,0.08437 0.03373,0.08434 0.03374,0.08433 0.03375,0.08435 0.03373,0.08435 0.03373,0.08434 0.03375,0.08435 0.03374,0.08435 0.03372,0.08433 0.03374,0.08435 0.03375,0.08434 0.03374,0.08435 0.03372,0.08435 0.03376,0.08434 0.03373,0.08434 0.03374,0.08436 0.03374,0.08434 0.03373,0.08433 0.03374,0.08437 0.03375,0.08433 0.03373,0.08434 0.03373,0.08436 0.03375,0.08434 0.03373,0.08433 0.03374,0.08435 0.03373,0.08435 0.03375,0.08434 0.03372,0.08435 0.03374,0.08435 0.03376,0.08433 0.03373,0.08436 0.03372,0.08433 0.03375,0.08437 0.03374,0.08433 0.03374,0.08434 0.03374,0.08436 0.03374,0.08434 0.03374,0.08433 0.03375,0.08435 0.03372,0.08435 0.03373,0.08434 0.03376,0.08435 0.03372,0.08435 0.03374,0.08433 0.03373,0.08436 0.03375,0.08433 0.03373,0.08435 0.03373,0.08436 0.03376,0.08433 0.03373,0.08435 0.03373,0.08435 0.03375,0.08434 0.03374,0.08433 0.03373,0.08437 0.03374,0.08433 0.03374,0.08434"
       style="fill:none;stroke:#b39af0;stroke-width:0.99628;stroke-linecap:butt;stroke-linejoin:miter;stroke-miterlimit:10;stroke-dasharray:none;stroke-opacity:1"
       transform="matrix(1.3333333,0,0,-1.3333333,272.768,132.27867)" />
    <path
       id="path11"
       d="m 28.3468,70.867 0.02811,-0.05622 0.02811,-0.05623 0.02812,-0.05623 0.0281,-0.05623 0.02814,-0.05623 0.02811,-0.05623 0.02811,-0.05623 0.02812,-0.05624 0.0281,-0.05623 0.02812,-0.05623 0.02811,-0.05621 0.02812,-0.05623 0.02813,-0.05624 0.0281,-0.05623 0.02812,-0.05623 0.02811,-0.05623 0.02812,-0.05624 0.02811,-0.05622 0.02812,-0.05622 0.02811,-0.05623 0.02811,-0.05623 0.02813,-0.05625 0.02811,-0.05622 0.02812,-0.05623 0.02811,-0.05622 0.02812,-0.05624 0.02811,-0.05623 0.0281,-0.05623 0.02812,-0.05623 0.02811,-0.05624 0.02814,-0.05623 0.02811,-0.05621 0.02812,-0.05623 0.0281,-0.05623 0.02811,-0.05624 0.02812,-0.05623 0.02811,-0.05623 0.02812,-0.05623 0.02811,-0.05623 0.02813,-0.05623 0.02811,-0.05623 0.02811,-0.05622 0.02812,-0.05625 0.02811,-0.05623 0.02812,-0.05623 0.02811,-0.05621 0.02812,-0.05623 0.02812,-0.05624 0.02811,-0.05623 0.02812,-0.05623 0.0281,-0.05623 0.02813,-0.05624 0.0281,-0.05621 0.02812,-0.05623 0.02811,-0.05623 0.02811,-0.05623 0.02814,-0.05624 0.0281,-0.05623 0.02812,-0.05623 0.02811,-0.05621 0.02812,-0.05625 0.02811,-0.05623 0.02811,-0.05623 0.02812,-0.05622 0.02811,-0.05625 0.02814,-0.05623 0.0281,-0.05621 0.02812,-0.05623 0.02811,-0.05623 0.0281,-0.05624 0.02813,-0.05623 0.0281,-0.05623 0.02813,-0.05623 0.0281,-0.05622 0.02814,-0.05623 0.02811,-0.05623 0.0281,-0.05623 0.02812,-0.05625 0.02811,-0.05622 0.02813,-0.05624 0.0281,-0.0562 0.02812,-0.05624 0.02812,-0.05624 0.02811,-0.05623 0.02812,-0.05623 0.02811,-0.05623 0.02812,-0.05624 0.0281,-0.05621 0.02813,-0.05623 0.02811,-0.05623 0.0281,-0.05623 0.02814,-0.05624 0.02811,-0.05623 0.02812,-0.05623 0.02811,-0.05621 0.02812,-0.05625 0.0281,-0.05623 0.02811,-0.05622 0.02812,-0.05623 0.02811,-0.05625 0.02814,-0.05623 0.0281,-0.05621 0.02813,-0.05623 0.0281,-0.05623 0.02811,-0.05624 0.02812,-0.05623 0.02811,-0.05623 0.02812,-0.05623 0.02811,-0.05622 0.02813,-0.05623 0.02811,-0.05623 0.02811,-0.05623 0.02812,-0.05624 0.02811,-0.05623 0.02812,-0.05623 0.0281,-0.05621 0.02813,-0.05623 0.02812,-0.05625 0.0281,-0.05623 0.02813,-0.05622 0.0281,-0.05623 0.02812,-0.05625 0.02811,-0.05621 0.02812,-0.05623 0.02811,-0.05623 0.02811,-0.05623 0.02813,-0.05624 0.02811,-0.05623 0.02812,-0.05623 0.02811,-0.05621 0.02812,-0.05624 0.02811,-0.05623 0.0281,-0.05623 0.02813,-0.05623 0.0281,-0.05624 0.02814,-0.05623 0.02811,-0.05622 0.02812,-0.05623 0.02811,-0.05622 0.0281,-0.05625 0.02812,-0.05623 0.02811,-0.05623 0.02812,-0.05622 0.02811,-0.05623 0.02814,-0.05623 0.0281,-0.05623 0.02811,-0.05623 0.02812,-0.05624 0.02811,-0.05623 0.02812,-0.05621 0.02811,-0.05623 0.02812,-0.05623 0.02812,-0.05625 0.02811,-0.05622 0.02812,-0.05623 0.02811,-0.05623 0.02812,-0.05623 0.02811,-0.05623 0.02812,-0.05623 0.0281,-0.05623 0.02811,-0.05622 0.02814,-0.05625 0.0281,-0.05623 0.02813,-0.05621 0.0281,-0.05623 0.02813,-0.05624 0.0281,-0.05623 0.02811,-0.05623 0.02812,-0.05623 0.02811,-0.05625 0.02813,-0.0562 0.02811,-0.05623 0.02813,-0.05623 0.0281,-0.05623 0.0281,-0.05625 0.02813,-0.05622 0.02811,-0.05624 0.02812,-0.0562 0.0281,-0.05625 0.02814,-0.05623 0.02811,-0.05623 0.0281,-0.05623 0.02813,-0.05624 0.0281,-0.05623 0.02813,-0.05621 0.0281,-0.05623 0.02813,-0.05623 0.02812,-0.05624 0.0281,-0.05623 0.02812,-0.05623 0.02811,-0.05623 0.02812,-0.05623 0.02811,-0.05623 0.02812,-0.05623 0.02811,-0.05622 0.02811,-0.05623 0.02813,-0.05625 0.02811,-0.05623 0.02812,-0.05621 0.02811,-0.05623 0.02812,-0.05624 0.02811,-0.05623 0.0281,-0.05623 0.02812,-0.05623 0.02811,-0.05624 0.02814,-0.05621 0.02811,-0.05623 0.02812,-0.05623 0.0281,-0.05623 0.02811,-0.05624 0.02812,-0.05623 0.02811,-0.05623 0.02812,-0.05621 0.02811,-0.05625 0.02814,-0.05623 0.0281,-0.05623 0.02811,-0.05622 0.02812,-0.05625 0.02811,-0.05623 0.02812,-0.05621 0.02811,-0.05623 0.02812,-0.05623 0.02812,-0.05624 0.02811,-0.05623 0.02812,-0.05623 0.02811,-0.05623 0.02812,-0.05623 0.0281,-0.05622 0.02813,-0.05623 0.0281,-0.05623 0.02811,-0.05623 0.02814,-0.05624 0.0281,-0.05623 0.02812,-0.05622 0.02811,-0.05623 0.02812,-0.05624 0.02811,-0.05623 0.02811,-0.05623 0.02812,-0.05623 0.02811,-0.05624 0.02813,-0.05621 0.02811,-0.05623 0.02812,-0.05623 0.02811,-0.05623 0.0281,-0.05624 0.02813,-0.05623 0.0281,-0.05623 0.02812,-0.05621 0.02811,-0.05625 0.02814,-0.05623 0.02811,-0.05622 0.0281,-0.05623 0.02812,-0.05625 0.02811,-0.05622 0.02812,-0.05622 0.02811,-0.05623 0.02812,-0.05623 0.02812,-0.05624 0.02811,-0.05623 0.02813,-0.05623 0.0281,-0.05622 0.02812,-0.05623 0.02811,-0.05623 0.02812,-0.05623 0.02811,-0.05623 0.0281,-0.05623 0.02814,-0.05625 0.0281,-0.05622 0.02813,-0.05621 0.02811,-0.05623 0.02812,-0.05624 0.0281,-0.05624 0.02811,-0.05622 0.02813,-0.05624 0.0281,-0.05624 0.02814,-0.05621 0.0281,-0.05623 0.02813,-0.05623 0.0281,-0.05623 0.02811,-0.05624 0.02812,-0.05623 0.0281,-0.05623 0.02813,-0.05621 0.02811,-0.05625 0.02813,-0.05622 0.02811,-0.05623 0.02811,-0.05623 0.02812,-0.05624 0.02811,-0.05623 0.02812,-0.05622 0.0281,-0.05623 0.02813,-0.05622 0.02812,-0.05625 0.02811,-0.05623 0.02812,-0.05623 0.0281,-0.05622 0.02813,-0.05623 0.0281,-0.05623 0.02812,-0.05623 0.02811,-0.05623 0.02811,-0.05623 0.02813,-0.05624 0.02811,-0.05623 0.02812,-0.05621 0.02811,-0.05623 0.02812,-0.05625 0.02811,-0.05622 0.02811,-0.05623 0.02812,-0.05623 0.0281,-0.05625 0.02814,-0.05621 0.02811,-0.05623 0.02812,-0.05623 0.02811,-0.05622 0.0281,-0.05625 0.02812,-0.05623 0.02811,-0.05623 0.02812,-0.05621 0.02811,-0.05624 0.02814,-0.05623 0.0281,-0.05623 0.02811,-0.05623 0.02812,-0.05624 0.02811,-0.05623 0.02812,-0.05621 0.02811,-0.05623 0.02812,-0.05623 0.02812,-0.05625 0.02811,-0.05622 0.02812,-0.05623 0.02811,-0.05623 0.02812,-0.05623 0.02811,-0.05623 0.02812,-0.05623 0.0281,-0.05623 0.02811,-0.05623 0.02814,-0.05624 0.02811,-0.05623 0.02812,-0.05621 0.0281,-0.05623 0.02812,-0.05624 0.02811,-0.05623 0.02811,-0.05623 0.02812,-0.05623 0.02811,-0.05624 0.02813,-0.05622 0.02811,-0.05623 0.02812,-0.05622 0.02811,-0.05623 0.02811,-0.05625 0.02812,-0.05622 0.02811,-0.05623 0.02812,-0.05622 0.0281,-0.05624 0.02814,-0.05623 0.02811,-0.05623 0.0281,-0.05623 0.02813,-0.05624 0.0281,-0.05623 0.02813,-0.05621 0.0281,-0.05623 0.02812,-0.05623 0.02813,-0.05624 0.0281,-0.05624 0.02812,-0.05622 0.02811,-0.05623 0.02813,-0.05623 0.0281,-0.05622 0.02812,-0.05624 0.02811,-0.05622 0.02811,-0.05624 0.02813,-0.05624 0.02811,-0.05623 0.02812,-0.05621 0.02811,-0.05623 0.02812,-0.05624 0.02811,-0.05623 0.0281,-0.05623 0.02813,-0.05623 0.0281,-0.05624 0.02814,-0.05622 0.02811,-0.05622 0.02812,-0.05623 0.0281,-0.05623 0.02811,-0.05624 0.02812,-0.05623 0.02811,-0.05623 0.02812,-0.05622 0.02811,-0.05624 0.02814,-0.05623 0.0281,-0.05623 0.02811,-0.05623 0.02812,-0.05624 0.02811,-0.05623 0.02812,-0.05621 0.02811,-0.05623 0.02812,-0.05623 0.02812,-0.05624 0.02811,-0.05623 0.02812,-0.05623 0.02811,-0.05623 0.02812,-0.05623 0.0281,-0.05623 0.02813,-0.05622 0.0281,-0.05623 0.02811,-0.05623 0.02814,-0.05625 0.0281,-0.05622 0.02813,-0.05622 0.0281,-0.05623 0.02812,-0.05624 0.02811,-0.05623 0.02811,-0.05623 0.02812,-0.05623 0.02811,-0.05624 0.02813,-0.05621 0.02811,-0.05623 0.02812,-0.05623 0.02811,-0.05623 0.02811,-0.05624 0.02812,-0.05623 0.0281,-0.05623 0.02813,-0.05621 0.02812,-0.05625 0.02812,-0.05623 0.02811,-0.05622 0.0281,-0.05623 0.02812,-0.05625 0.02811,-0.05623 0.02812,-0.05621 0.02811,-0.05623 0.02812,-0.05623 0.02812,-0.05624 0.02811,-0.05623 0.02812,-0.05623 0.02811,-0.05623 0.02812,-0.05622 0.02811,-0.05623 0.02812,-0.05623 0.02811,-0.05623 0.0281,-0.05623 0.02814,-0.05624 0.02811,-0.05622 0.02812,-0.05623 0.02811,-0.05622 0.02812,-0.05625 0.0281,-0.05623 0.02811,-0.05622 0.02812,-0.05623 0.02811,-0.05623 0.02814,-0.05623 0.0281,-0.05623 0.02813,-0.05623 0.02811,-0.05623 0.0281,-0.05624 0.02812,-0.05623 0.02811,-0.05621 0.02812,-0.05623 0.02812,-0.05625 0.02813,-0.05622 0.0281,-0.05624 0.0281,-0.05622 0.02813,-0.05625 0.02811,-0.05621 0.02812,-0.05622 0.0281,-0.05624 0.02813,-0.05622 0.02812,-0.05625 0.0281,-0.05623 0.02813,-0.05623 0.0281,-0.05621 0.02813,-0.05624 0.0281,-0.05623 0.02813,-0.05623 0.0281,-0.05623 0.0281,-0.05623 0.02814,-0.05624 0.02811,-0.05622 0.02812,-0.05622 0.02811,-0.05623 0.02812,-0.05625 0.02811,-0.05622 0.02811,-0.05623 0.02812,-0.05623 0.0281,-0.05623 0.02814,-0.05623 0.02811,-0.05623 0.02812,-0.05623 0.02811,-0.05623 0.0281,-0.05624 0.02813,-0.05623 0.0281,-0.05621 0.02812,-0.05623 0.02813,-0.05624 0.02812,-0.05623 0.0281,-0.05623 0.02811,-0.05623 0.02812,-0.05624 0.02811,-0.05622 0.02812,-0.05623 0.02811,-0.05622 0.02812,-0.05623 0.02812,-0.05625 0.02811,-0.05623 0.02812,-0.05622 0.02811,-0.05622 0.02812,-0.05624 0.02811,-0.05623 0.02812,-0.05623 0.0281,-0.05623 0.02811,-0.05623 0.02814,-0.05624 0.02811,-0.05621 0.02812,-0.05623 0.0281,-0.05623 0.02813,-0.05624 0.0281,-0.05623 0.02811,-0.05623 0.02812,-0.05623 0.02811,-0.05623 0.02813,-0.05623 0.02811,-0.05623 0.02812,-0.05622 0.02811,-0.05623 0.02811,-0.05625 0.02812,-0.05623 0.02811,-0.05621 0.02812,-0.05623 0.02812,-0.05624 0.02812,-0.05623 0.02811,-0.05623 0.02811,-0.05623 0.02812,-0.05624 0.0281,-0.05621 0.02812,-0.05623 0.02811,-0.05623 0.02812,-0.05623 0.02813,-0.05624 0.0281,-0.05623 0.02812,-0.05623 0.02811,-0.05622 0.02812,-0.05624 0.02811,-0.05623 0.02812,-0.05623 0.02811,-0.05622 0.02811,-0.05623 0.02814,-0.05625 0.0281,-0.05621 0.02812,-0.05623 0.02811,-0.05623 0.02812,-0.05624 0.02811,-0.05623 0.0281,-0.05623 0.02813,-0.05623 0.0281,-0.05622 0.02814,-0.05624 0.02811,-0.05622 0.02812,-0.05624 0.0281,-0.05622 0.02811,-0.05625 0.02813,-0.05623 0.0281,-0.0562 0.02812,-0.05624 0.02812,-0.05624 0.02813,-0.05623 0.0281,-0.05623 0.02811,-0.05623 0.02812,-0.05624 0.02811,-0.05621 0.02812,-0.05623 0.02811,-0.05623 0.02812,-0.05623 0.02812,-0.05624 0.02811,-0.05623 0.02812,-0.05623 0.02811,-0.05621 0.02812,-0.05625 0.0281,-0.05623 0.02813,-0.05622 0.0281,-0.05623 0.02811,-0.05625 0.02814,-0.05623 0.0281,-0.05621 0.02813,-0.05623 0.0281,-0.05623 0.02812,-0.05624 0.02811,-0.05623 0.02811,-0.05623 0.02812,-0.05623 0.02811,-0.05622 0.02813,-0.05623 0.02811,-0.05623 0.02811,-0.05623 0.02812,-0.05623 0.02811,-0.05624 0.02812,-0.05623 0.0281,-0.05622 0.02813,-0.05622 0.02812,-0.05625 0.0281,-0.05623 0.02813,-0.05623 0.0281,-0.05622 0.02813,-0.05625 0.0281,-0.05621 0.02812,-0.05623 0.02811,-0.05623 0.02811,-0.05623 0.02813,-0.05624 0.02811,-0.05623 0.02812,-0.05623 0.02811,-0.05621 0.02812,-0.05625 0.02811,-0.05622 0.02811,-0.05623 0.02812,-0.05623 0.0281,-0.05625 0.02814,-0.05622 0.02811,-0.05622 0.02812,-0.05623 0.02811,-0.05622 0.0281,-0.05625 0.02812,-0.05623 0.02811,-0.05623 0.02812,-0.05622 0.02811,-0.05623 0.02814,-0.05623 0.0281,-0.05623 0.02811,-0.05623 0.02812,-0.05623 0.02811,-0.05624 0.02812,-0.05623 0.02811,-0.05621 0.02812,-0.05623 0.02812,-0.05625 0.02811,-0.05622 0.02812,-0.05623 0.02811,-0.05623 0.02812,-0.05624 0.02811,-0.05622 0.02812,-0.05623 0.0281,-0.05623 0.02811,-0.05622 0.02814,-0.05625 0.02811,-0.05623 0.02812,-0.05622 0.0281,-0.05622 0.02813,-0.05624 0.0281,-0.05623 0.02811,-0.05623 0.02812,-0.05623 0.02811,-0.05625 0.02813,-0.05622 0.02811,-0.05622 0.02813,-0.05622 0.0281,-0.05624 0.0281,-0.05624 0.02813,-0.05623 0.02811,-0.05623 0.02812,-0.05622 0.0281,-0.05623 0.02814,-0.05623 0.02811,-0.05623 0.0281,-0.05623 0.02813,-0.05623 0.0281,-0.05624 0.02813,-0.05623 0.0281,-0.05621 0.02813,-0.05623 0.02812,-0.05624 0.0281,-0.05623 0.02812,-0.05623 0.02811,-0.05623 0.02812,-0.05624 0.02811,-0.05622 0.02812,-0.05623 0.02811,-0.05622 0.02811,-0.05623 0.02813,-0.05625 0.02811,-0.05623 0.02812,-0.05622 0.02811,-0.05622 0.02812,-0.05624 0.02811,-0.05623 0.0281,-0.05623 0.02813,-0.05623 0.0281,-0.05624 0.02814,-0.05623 0.02811,-0.05621 0.02812,-0.05623 0.0281,-0.05623 0.02811,-0.05624 0.02812,-0.05623 0.02811,-0.05623 0.02812,-0.05623 0.02811,-0.05623 0.02814,-0.05623 0.0281,-0.05623 0.02811,-0.05622 0.02812,-0.05623 0.02811,-0.05625 0.02812,-0.05623 0.02811,-0.05621 0.02812,-0.05623 0.02812,-0.05624 0.02811,-0.05623 0.02812,-0.05623 0.02811,-0.05623 0.02812,-0.05624 0.0281,-0.05622 0.02813,-0.05622 0.0281,-0.05623 0.02811,-0.05623 0.02814,-0.05625 0.0281,-0.05622 0.02812,-0.05623 0.02811,-0.05622 0.02812,-0.05624 0.02811,-0.05623 0.02811,-0.05623 0.02812,-0.05623 0.02811,-0.05624 0.02813,-0.05623 0.02811,-0.05621 0.02812,-0.05623 0.02811,-0.05623 0.02811,-0.05624 0.02812,-0.05623 0.0281,-0.05623 0.02812,-0.05623 0.02811,-0.05623 0.02814,-0.05623 0.02811,-0.05622 0.0281,-0.05623 0.02812,-0.05623 0.02811,-0.05624 0.02812,-0.05623 0.02811,-0.05622 0.02812,-0.05623 0.02812,-0.05624 0.02811,-0.05623 0.02813,-0.05623 0.0281,-0.05622 0.02812,-0.05623 0.02811,-0.05623 0.02812,-0.05623 0.02811,-0.05623 0.0281,-0.05623 0.02814,-0.05625 0.0281,-0.05622 0.02813,-0.05622 0.02811,-0.05622 0.02812,-0.05625 0.0281,-0.05623 0.02811,-0.05622 0.02813,-0.05624 0.0281,-0.05624 0.02814,-0.05621 0.0281,-0.05623 0.02813,-0.05623 0.0281,-0.05623 0.02811,-0.05624 0.02812,-0.05623 0.02811,-0.05623 0.02812,-0.05621 0.02811,-0.05625 0.02813,-0.05622 0.02811,-0.05623 0.02811,-0.05623 0.02812,-0.05623 0.02811,-0.05624 0.02812,-0.05622 0.0281,-0.05623 0.02813,-0.05622 0.02812,-0.05625 0.02811,-0.05623 0.02812,-0.05623 0.0281,-0.05622 0.02813,-0.05623 0.0281,-0.05623 0.02812,-0.05623 0.02811,-0.05623 0.02811,-0.05623 0.02813,-0.05624 0.02811,-0.05623 0.02812,-0.05621 0.02811,-0.05623 0.02812,-0.05625 0.02811,-0.05622 0.02811,-0.05623 0.02812,-0.05623 0.0281,-0.05625 0.02814,-0.05621 0.02811,-0.05623 0.02812,-0.05623 0.02811,-0.05622 0.0281,-0.05625 0.02813,-0.05623 0.0281,-0.05623 0.02812,-0.05621 0.02811,-0.05624 0.02814,-0.05623 0.0281,-0.05623 0.02811,-0.05623 0.02812,-0.05623 0.02811,-0.05624 0.02812,-0.05622 0.02811,-0.05622 0.02812,-0.05623 0.02812,-0.05625 0.02811,-0.05622 0.02812,-0.05623 0.02811,-0.05623 0.02812,-0.05623 0.02811,-0.05623 0.02812,-0.05623 0.0281,-0.05623 0.02811,-0.05623 0.02814,-0.05624 0.02811,-0.05623 0.02812,-0.05621 0.0281,-0.05623 0.02812,-0.05624 0.02811,-0.05623 0.02811,-0.05623 0.02812,-0.05623 0.02811,-0.05624 0.02814,-0.05622 0.0281,-0.05623 0.02812,-0.05622 0.02811,-0.05623 0.02811,-0.05625 0.02812,-0.05622 0.02811,-0.05623 0.02812,-0.05622 0.0281,-0.05624 0.02814,-0.05623 0.02811,-0.05623 0.02811,-0.05623 0.02812,-0.05622 0.0281,-0.05625 0.02813,-0.05621 0.0281,-0.05623 0.02812,-0.05623 0.02813,-0.05624 0.0281,-0.05624 0.02812,-0.05622 0.02811,-0.05623 0.02813,-0.05623 0.0281,-0.05623 0.02812,-0.05623 0.02811,-0.05622 0.02811,-0.05624 0.02813,-0.05624 0.02811,-0.05623 0.02812,-0.05621 0.02811,-0.05623 0.02812,-0.05624 0.02811,-0.05623 0.0281,-0.05623 0.02813,-0.05623 0.0281,-0.05624 0.02814,-0.05622 0.02811,-0.05622 0.02812,-0.05623 0.0281,-0.05623 0.02811,-0.05624 0.02812,-0.05623 0.02811,-0.05623 0.02812,-0.05622 0.02811,-0.05624 0.02814,-0.05623 0.0281,-0.05623 0.02811,-0.05623 0.02812,-0.05622 0.02811,-0.05625 0.02812,-0.05621 0.02811,-0.05623 0.02812,-0.05623 0.02812,-0.05624 0.02811,-0.05623 0.02812,-0.05623 0.02811,-0.05623 0.02812,-0.05623 0.0281,-0.05623 0.02813,-0.05622 0.0281,-0.05623 0.02811,-0.05623 0.02814,-0.05625 0.0281,-0.05622 0.02813,-0.05622 0.0281,-0.05623 0.02812,-0.05624 0.02811,-0.05623 0.02811,-0.05623 0.02812,-0.05623 0.02811,-0.05624 0.02813,-0.05621 0.02811,-0.05623 0.02812,-0.05623 0.02811,-0.05623 0.02811,-0.05624 0.02812,-0.05623 0.0281,-0.05623 0.02813,-0.05621 0.0281,-0.05625 0.02814,-0.05623 0.02811,-0.05622 0.0281,-0.05623 0.02812,-0.05623 0.02811,-0.05625 0.02812,-0.05621 0.02811,-0.05623 0.02812,-0.05623 0.02812,-0.05624 0.02811,-0.05623 0.02812,-0.05623 0.02811,-0.05623 0.02812,-0.05623 0.02811,-0.05622 0.02812,-0.05623 0.02811,-0.05623 0.0281,-0.05623 0.02814,-0.05624 0.02811,-0.05623 0.02812,-0.05622 0.02811,-0.05622 0.02812,-0.05625 0.0281,-0.05623 0.02811,-0.05622 0.02812,-0.05623 0.02811,-0.05625 0.02814,-0.05621 0.0281,-0.05623 0.02813,-0.05623 0.02811,-0.05623 0.0281,-0.05624 0.02812,-0.05623 0.02811,-0.05623 0.02812,-0.05621 0.02811,-0.05625 0.02814,-0.05622 0.0281,-0.05624 0.0281,-0.05622 0.02813,-0.05623 0.02811,-0.05625 0.02812,-0.0562 0.0281,-0.05624 0.02813,-0.05622 0.02812,-0.05625 0.02811,-0.05623 0.02812,-0.05623 0.0281,-0.05623 0.02813,-0.05622 0.0281,-0.05623 0.02813,-0.05623 0.0281,-0.05623 0.0281,-0.05623 0.02814,-0.05624 0.02811,-0.05623 0.02812,-0.05621 0.02811,-0.05623 0.02812,-0.05625 0.02811,-0.05622 0.02811,-0.05623 0.02812,-0.05623 0.0281,-0.05625 0.02814,-0.05621 0.02811,-0.05623 0.02812,-0.05623 0.02811,-0.05623 0.0281,-0.05624 0.02813,-0.05623 0.0281,-0.05623 0.02812,-0.05621 0.02811,-0.05624 0.02814,-0.05623 0.0281,-0.05623 0.02811,-0.05623 0.02812,-0.05623 0.02811,-0.05624 0.02812,-0.05622 0.02811,-0.05622 0.02812,-0.05623 0.02812,-0.05625 0.02811,-0.05623 0.02812,-0.05622 0.02811,-0.05623 0.02812,-0.05623 0.02811,-0.05623 0.02812,-0.05623 0.0281,-0.05623 0.02811,-0.05623 0.02814,-0.05624 0.02811,-0.05623 0.02812,-0.05621 0.0281,-0.05623 0.02813,-0.05624 0.0281,-0.05623 0.02811,-0.05623 0.02812,-0.05623 0.02811,-0.05624 0.02813,-0.05622 0.02811,-0.05623 0.02812,-0.05622 0.02811,-0.05623 0.02811,-0.05625 0.02812,-0.05623 0.02811,-0.05622"
       style="fill:none;stroke:#b39af0;stroke-width:0.99628;stroke-linecap:butt;stroke-linejoin:miter;stroke-miterlimit:10;stroke-dasharray:none;stroke-opacity:1"
       transform="matrix(1.3333333,0,0,-1.3333333,272.768,132.27867)" />
    <path
       id="path12"
       d="m 56.69362,14.17339 0.0255,1.05583 0.02552,0.61938 0.02553,0.51775 0.02551,0.45115 0.02552,0.45934 0.02553,0.37068 0.02551,0.36811 0.02553,0.35554 0.02551,0.4014 0.02552,0.29931 0.02552,0.29845 0.02553,0.29845 0.02551,0.28722 0.02551,0.28503 0.02553,0.27467 0.02553,0.27379 0.02551,0.26126 0.02551,0.37328 0.02553,0.22665 0.02553,0.23918 0.02549,0.22579 0.02554,0.2366 0.02552,0.22665 0.02553,0.22577 0.0255,0.21369 0.02553,0.22319 0.02552,0.22448 0.02552,0.21237 0.02551,0.21195 0.02553,0.21152 0.02553,0.21107 0.02551,0.2007 0.02551,0.21065 0.02553,0.19811 0.02551,0.38539 0.02553,0.18728 0.02551,0.17647 0.02553,0.17519 0.02551,0.17604 0.02553,0.17389 0.02551,0.17387 0.02552,0.17474 0.02552,0.17302 0.02553,0.17475 0.02552,0.17215 0.02551,0.1622 0.02553,0.17172 0.02552,0.17258 0.0255,0.16133 0.02553,0.17042 0.02553,0.16046 0.02553,0.17 0.02549,0.15961 0.02553,0.15961 0.02553,0.15875 0.02551,0.15873 0.02551,0.15874 0.02553,0.15615 0.02553,0.15788 0.02552,0.15743 0.0255,0.15702 0.02553,0.14533 0.02552,0.15658 0.02552,0.15615 0.02552,0.14445 0.02551,0.14578 0.02553,0.15355 0.02553,0.1449 0.02551,0.14317 0.02551,0.44118 0.02553,0.12112 0.02553,0.13234 0.02549,0.13193 0.02553,0.1207 0.02553,0.12976 0.02553,0.12154 0.0255,0.12889 0.02552,0.13061 0.02553,0.11939 0.02551,0.12976 0.02552,0.11851 0.02552,0.12935 0.02553,0.11807 0.02552,0.12889 0.02551,0.11765 0.02552,0.11723 0.02552,0.12802 0.02553,0.11637 0.02551,0.11807 0.02553,0.12544 0.02551,0.11765 0.02553,0.11549 0.02551,0.12457 0.02551,0.11678 0.02553,0.11462 0.02553,0.11463 0.02551,0.11419 0.02551,0.125 0.02553,0.11376 0.02553,0.11333 0.0255,0.11462 0.02553,0.1129 0.02552,0.11244 0.02553,0.11247 0.0255,0.11202 0.02553,0.11334 0.02552,0.11159 0.02552,0.10035 0.02551,0.11289 0.02553,0.11073 0.02552,0.11029 0.02552,0.11031 0.02551,0.10077 0.02553,0.10943 0.02551,0.10988 0.02553,0.09948 0.02551,0.10899 0.02553,0.10901 0.02551,0.09906 0.02553,0.10812 0.02552,0.09862 0.0255,0.10771 0.02553,0.09775 0.02553,0.10726 0.0255,0.09603 0.02553,0.09732 0.02553,0.1064 0.02552,0.09689 0.0255,0.09688 0.02553,0.10555 0.02553,0.0943 0.02551,0.09602 0.02551,0.0956 0.02553,0.09385 0.02553,0.09516 0.02551,0.09515 0.02551,0.093 0.02553,0.10338 0.02551,0.53029 0.02553,0.08434 0.02552,0.08262 0.02552,0.08262 0.02552,0.07136 0.02552,0.08218 0.02552,0.08174 0.02551,0.08306 0.02552,0.08131 0.02554,0.08089 0.02551,0.07051 0.02551,0.08087 0.02553,0.08046 0.02553,0.08132 0.02549,0.06964 0.02553,0.08001 0.02553,0.07959 0.02553,0.07916 0.0255,0.07915 0.02552,0.07007 0.02553,0.07829 0.02551,0.07872 0.02552,0.0783 0.02552,0.06877 0.02553,0.07786 0.02552,0.07743 0.02551,0.06703 0.02553,0.07872 0.02551,0.07699 0.02553,0.06618 0.02551,0.07656 0.02553,0.07613 0.02551,0.06748 0.02553,0.0757 0.02551,0.07526 0.02551,0.0666 0.02553,0.07527 0.02553,0.06489 0.02551,0.07438 0.02551,0.0744 0.02553,0.06574 0.02553,0.07397 0.0255,0.06531 0.02553,0.07353 0.02552,0.07311 0.02552,0.06315 0.02551,0.07266 0.02553,0.06444 0.02552,0.07224 0.02552,0.0636 0.02551,0.07222 0.02553,0.06185 0.02551,0.07137 0.02553,0.06271 0.02551,0.06144 0.02553,0.07093 0.02551,0.06186 0.02553,0.07049 0.02552,0.06185 0.0255,0.07007 0.02553,0.06012 0.02553,0.06099 0.02551,0.06921 0.02552,0.05927 0.02552,0.06055 0.02553,0.06877 0.0255,0.06012 0.02553,0.05839 0.02553,0.06835 0.02552,0.05926 0.0255,0.05795 0.02553,0.06748 0.02553,0.05882 0.02551,0.0571 0.02551,0.05838 0.02553,0.0571 0.02553,0.06749 0.02551,0.05665 0.02551,0.05753 0.02553,0.0558 0.02551,0.05708 0.02553,0.06533 0.02552,0.05537 0.02553,0.05666 0.0255,0.05493 0.02553,0.05623 0.02552,0.05449 0.02551,0.05581 0.02553,0.06357 0.02553,0.05538 0.02551,0.05363 0.02551,0.05493 0.02553,0.05364 0.02553,0.05448 0.0255,0.05279 0.02552,0.05406 0.02553,0.05233 0.02553,0.05407 0.0255,0.05192 0.02552,0.05318 0.02553,0.05321 0.02551,0.05148 0.02552,0.05276 0.02552,0.05105 0.02552,0.04281 0.02553,0.05191 0.02551,0.05062 0.02553,0.05146 0.02551,0.05017 0.02552,0.05104 0.02552,0.04975 0.02551,0.04151 0.02553,0.05062 0.02553,0.04888 0.02551,0.05017 0.02551,0.04887 0.02553,0.04024 0.02553,0.04972 0.0255,0.04932 0.02553,0.04802 0.02552,0.0398 0.02553,0.04887 0.0255,0.04713 0.02553,0.04845 0.02552,0.03894 0.02552,0.04669 0.02551,0.0476 0.02553,0.03849 0.02553,0.04586 0.02551,0.03805 0.02551,0.04715 0.02553,0.04541 0.02551,0.0372 0.02553,0.04672 0.02551,0.03678 0.02553,0.04454 0.02551,0.04584 0.02553,0.03677 0.02551,0.04369 0.02552,0.03633 0.02552,0.045 0.02553,0.03545 0.02551,0.04368 0.02552,0.03505 0.02553,0.04411 0.02552,0.03505 0.0255,0.04237 0.02553,0.03463 0.02553,0.03459 0.02552,0.04326 0.0255,0.03372 0.02553,0.04153 0.02553,0.03374 0.02551,0.03331 0.02551,0.04237 0.02553,0.03289 0.02553,0.03286 0.02551,0.04067 0.02551,0.03244 0.02554,0.03244 0.0255,0.04065 0.02553,0.03203 0.02552,0.03199 0.02551,0.03893 0.02553,0.03159 0.02552,0.03114 0.02552,0.03112 0.02551,0.03072 0.02553,0.03937 0.02553,0.03027 0.0255,0.03028 0.02552,0.03028 0.02553,0.03721 0.02553,0.02983 0.02549,0.02941 0.02553,0.02941 0.02553,0.02942 0.02551,0.02897 0.02552,0.02855 0.02552,0.0372 0.02553,0.02855 0.02551,0.02813 0.02552,0.0281 0.02552,0.02811 0.02552,0.02768 0.02552,0.02727 0.02552,0.02723 0.02553,0.02725 0.02551,0.02726 0.02553,0.02638 0.02551,0.02681 0.02551,0.0264 0.02553,0.02595 0.02553,0.02638 0.02551,0.02552 0.02552,0.02595 0.02552,0.02551 0.02553,0.02509 0.0255,0.0251 0.02552,0.02379 0.02553,0.02464 0.02553,0.02466 0.0255,0.02423 0.02553,0.01731 0.02552,0.02378 0.02552,0.02378 0.02551,0.02379 0.02553,0.02337 0.02553,0.02335 0.02551,0.02336 0.02551,0.01428 0.02553,0.02292 0.02551,0.02249 0.02553,0.0225 0.02551,0.02206 0.02553,0.02204 0.02551,0.01472 0.02553,0.02162 0.02551,0.02034 0.02552,0.01426 0.02553,0.0212 0.02552,0.02076 0.0255,0.02077 0.02553,0.01255 0.02553,0.02032 0.02552,0.02034 0.0255,0.01988 0.02553,0.01299 0.02553,0.01945 0.02551,0.01947 0.02551,0.01123 0.02553,0.01905 0.02553,0.01902 0.02551,0.01083 0.02551,0.0186 0.02553,0.01815 0.02551,0.01167 0.02553,0.01775 0.02551,0.0099 0.02553,0.01773 0.02552,0.0173 0.02552,0.01081 0.02552,0.01687 0.02551,0.0091 0.02553,0.01688 0.02553,0.0087 0.0255,0.01643 0.02552,0.01601 0.02553,0.0095 0.02553,0.016 0.02549,0.0078 0.02553,0.01556 0.02553,0.0082 0.02553,0.01556 0.02549,0.0069 0.02553,0.01473 0.02553,0.0082 0.02551,0.01426 0.02552,0.0065 0.02552,0.0065 0.02553,0.01384 0.02551,0.0069 0.02552,0.01385 0.02553,0.0056 0.02551,0.01299 0.02553,0.0065 0.02551,0.0052 0.02553,0.01254 0.02551,0.0052 0.02553,0.0056 0.02551,0.01212 0.02552,0.0043 0.02552,0.0117 0.02553,0.0052 0.02551,0.01126 0.02551,0.0039 0.02553,0.0043 0.02553,0.0035 0.0255,0.0108 0.02553,0.003 0.02552,0.0039 0.02552,0.01 0.02551,0.0026 0.02553,0.0035 0.02552,0.0022 0.02552,0.0095 0.02551,0.0017 0.02553,0.0026 0.02551,0.0091 0.02553,0.0013 0.02551,0.0022 0.02553,0.0013 0.02551,0.0082 0.02553,0.0017 0.02551,4.4e-4 0.02552,4.3e-4 0.02553,0.0013 0.02552,0.0074 0.02551,-4.3e-4 0.02552,8.7e-4 0.02552,-4.4e-4 0.02553,4.4e-4 0.0255,0.0065 0.02553,-8.8e-4 0.02553,-0.0013 0.02552,-4.3e-4 0.0255,-0.0013 0.02553,-4.3e-4 0.02553,-0.0017 0.02551,0.0052 0.02551,-0.0013 0.02553,-0.0022 0.02553,-0.0026 0.02551,-0.0013 0.02551,-0.003 0.02553,-0.0017 0.02551,-0.003 0.02553,-0.0026 0.02551,-0.0035 0.02553,-0.0035 0.02552,-0.0026 0.02553,0.003 0.0255,-0.0039 0.02552,-0.0035 0.02553,-0.0043 0.02552,-0.01039 0.02552,0.0022 0.02551,-0.0048 0.02553,-0.0043 0.02553,-0.0052 0.02549,-0.0043 0.02553,-0.0056 0.02553,-0.0048 0.02553,-0.0056 0.02549,-0.0061 0.02553,-0.0052 0.02553,-0.0065 0.02551,-0.0056 0.02552,-0.0065 0.02552,-0.01297 0.02552,-0.0069 0.02552,-0.006 0.02552,-0.0074 0.02553,-0.0065 0.02551,-0.0078 0.02553,-0.0069 0.02551,-0.0078 0.02551,-0.0082 0.02553,-0.0073 0.02553,-0.0087 0.02551,-0.0074 0.02551,-0.01471 0.02553,-0.0091 0.02553,-0.0091 0.0255,-0.0082 0.02552,-0.0095 0.02553,-0.0087 0.02553,-0.0095 0.02549,-0.0091 0.02554,-0.01687 0.02552,-0.0091 0.02552,-0.01039 0.02551,-0.0099 0.02553,-0.01039 0.02552,-0.01686 0.02552,-0.01082 0.02551,-0.01038 0.02553,-0.01124 0.02551,-0.0173 0.02553,-0.0052 0.02551,-0.01732 0.02553,-0.0121 0.02551,-0.01125 0.02553,-0.01774 0.02551,-0.01254 0.02552,-0.01168 0.02552,-0.01297 0.02553,-0.01297 0.02551,-0.01861 0.02552,-0.01255 0.02552,-0.01339 0.02553,-0.01905 0.0255,-0.0073 0.02553,-0.01946 0.02553,-0.01946 0.02552,-0.01428 0.0255,-0.01342 0.02553,-0.02032 0.02553,-0.01471 0.02551,-0.01471 0.02551,-0.01427 0.02553,-0.01513 0.02553,-0.02077 0.02551,-0.01471 0.02551,-0.02205 0.02553,-0.01472 0.02551,-0.01599 0.02554,-0.01514 0.0255,-0.02164 0.02552,-0.01686 0.02553,-0.02162 0.02552,-0.01688 0.02552,-0.02249 0.02551,-0.016 0.02553,-0.01729 0.02552,-0.01644 0.0255,-0.0238 0.02553,-0.01686 0.02553,-0.02336 0.02553,-0.01816 0.02549,-0.0173 0.02553,-0.02423 0.02553,-0.01774 0.02551,-0.02423 0.02552,-0.01858 0.02552,-0.02424 0.02553,-0.01946 0.02551,-0.01816 0.02552,-0.01946 0.02552,-0.0251 0.02552,-0.01902 0.02552,-0.02509 0.02552,-0.01991 0.02552,-0.0255 0.02552,-0.02034 0.02553,-0.02596 0.02551,-0.01989 0.02551,-0.02683 0.02553,-0.02032 0.02553,-0.02594 0.02551,-0.02164 0.02551,-0.02075 0.02553,-0.02725 0.02553,-0.02726 0.02549,-0.02119 0.02553,-0.02725 0.02553,-0.02205 0.02553,-0.02768 0.0255,-0.02251 0.02553,-0.02768 0.02552,-0.02249 0.02552,-0.02767 0.02551,-0.02943 0.02553,-0.02249 0.02552,-0.02334 0.02552,-0.02898 0.02551,-0.02855 0.02553,-0.02423 0.02551,-0.02898 0.02553,-0.02379 0.02551,-0.02941 0.02553,-0.02941 0.02551,-0.0251 0.02553,-0.02984 0.02551,-0.02507 0.02552,-0.02985 0.02552,-0.03073 0.02553,-0.0255 0.0255,-0.03029 0.02552,-0.02553 0.02553,-0.0307 0.02553,-0.03199 0.0255,-0.02553 0.02553,-0.03116 0.02553,-0.02681 0.02551,-0.03157 0.02551,-0.032 0.02553,-0.02682 0.02553,-0.03244 0.02551,-0.03202 0.02551,-0.03244 0.02553,-0.02768 0.02551,-0.03286 0.02553,-0.03244 0.02551,-0.0277 0.02553,-0.03372 0.02551,-0.03331 0.02553,-0.02812 0.02552,-0.03331 0.02551,-0.03374 0.02553,-0.02942 0.02552,-0.03372 0.02552,-0.03418 0.02551,-0.02985 0.02552,-0.03416 0.02554,-0.03461 0.02549,-0.03459 0.02553,-0.03029 0.02553,-0.03503 0.02553,-0.03504 0.02549,-0.03546 0.02553,-0.03071 0.02553,-0.03591 0.02551,-0.03546 0.02552,-0.0359 0.02552,-0.03159 0.02553,-0.03633 0.02551,-0.03633 0.02552,-0.03634 0.02552,-0.03199 0.02552,-0.03677 0.02553,-0.03676 0.02551,-0.0372 0.02553,-0.0372 0.02551,-0.03721 0.02553,-0.03331 0.02551,-0.03718 0.02551,-0.03807 0.02553,-0.03763 0.02553,-0.03374 0.02551,-0.03849 0.02551,-0.03808 0.02553,-0.03848 0.02553,-0.03849 0.0255,-0.03461 0.02552,-0.03893 0.02553,-0.03892 0.02552,-0.03937 0.02551,-0.03935 0.02553,-0.03939 0.02552,-0.04022 0.02552,-0.03978 0.02551,-0.03503 0.02553,-0.04024 0.02551,-0.04108 0.02553,-0.04023 0.02551,-0.04023 0.02553,-0.04066 0.02551,-0.04109 0.02553,-0.03676 0.02551,-0.04109 0.02551,-0.04109 0.02553,-0.04153 0.02553,-0.04151 0.02552,-0.04154 0.0255,-0.04196 0.02553,-0.04152 0.02553,-0.04281 0.0255,-0.03763 0.02553,-0.04715 0.02552,-0.03763 0.02553,-0.04326 0.0255,-0.04282 0.02553,-0.04324 0.02553,-0.04283 0.02551,-0.04326 0.02551,-0.04368 0.02553,-0.04326 0.02553,-0.04367 0.02551,-0.04458 0.02551,-0.04411 0.02553,-0.04411 0.02551,-0.04411 0.02553,-0.04413 0.02551,-0.04454 0.02553,-0.04499 0.02551,-0.04455 0.02553,-0.04585 0.02552,-0.04499 0.02551,-0.04498 0.02552,-0.04543 0.02553,-0.04585 0.02552,-0.04541 0.02551,-0.04584 0.02553,-0.04585 0.02553,-0.04672 0.02549,-0.04628 0.02553,-0.04671 0.02553,-0.0463 0.02551,-0.0467 0.02552,-0.04672 0.02552,-0.04714 0.02553,-0.04714 0.02551,-0.04758 0.02552,-0.04758 0.02552,-0.04759 0.02552,-0.04758 0.02552,-0.04756 0.02552,-0.04804 0.02552,-0.04843 0.02552,-0.04802 0.02553,-0.04887 0.02551,-0.04887 0.02551,-0.0519 0.02553,-0.04888 0.02551,-0.04974 0.02553,-0.04889 0.02551,-0.0493 0.02553,-0.04931 0.02551,-0.04975 0.02552,-0.04974 0.02552,-0.04975 0.02553,-0.04972 0.02551,-0.05106 0.02552,-0.05364 0.02553,-0.05015 0.02552,-0.05105 0.02552,-0.05103 0.02551,-0.05061 0.02553,-0.05105 0.02552,-0.05104 0.0255,-0.05104 0.02553,-0.05536 0.02553,-0.05147 0.02551,-0.0519 0.02551,-0.05191 0.02553,-0.0519 0.02553,-0.05191 0.02551,-0.05278 0.02551,-0.05232 0.02553,-0.0558 0.02551,-0.05277 0.02553,-0.05321 0.02552,-0.05319 0.02552,-0.05278 0.02552,-0.05708 0.02552,-0.05365 0.02552,-0.0532 0.02551,-0.05363 0.02553,-0.05407 0.02553,-0.05364 0.02551,-0.05406 0.02551,-0.05795 0.02553,-0.05451 0.02553,-0.05449 0.02549,-0.05452 0.02553,-0.05882 0.02553,-0.05493 0.02553,-0.05493 0.0255,-0.05494 0.02552,-0.05622 0.02553,-0.0584 0.02551,-0.0558 0.02552,-0.05579 0.02552,-0.05623 0.02552,-0.05926 0.02552,-0.05278 0.02552,-0.0601 0.02553,-0.05668 0.02551,-0.05969 0.02553,-0.05667 0.02551,-0.05709 0.02551,-0.05709 0.02553,-0.0571 0.02553,-0.06055 0.02551,-0.05796 0.02552,-0.05753 0.02552,-0.05751 0.02553,-0.06143 0.0255,-0.05796 0.02552,-0.05839 0.02553,-0.06143 0.02553,-0.05883 0.0255,-0.05838 0.02553,-0.06185 0.02552,-0.05927 0.02552,-0.05882 0.02551,-0.05927 0.02553,-0.06227 0.02552,-0.05969 0.02552,-0.05969 0.02551,-0.06273 0.02553,-0.06011 0.02551,-0.06012 0.02553,-0.06272 0.02551,-0.06012 0.02553,-0.06099 0.02551,-0.06055 0.02553,-0.0636 0.02551,-0.06054 0.02552,-0.06142 0.02553,-0.06401 0.02552,-0.06144 0.02551,-0.06184 0.02552,-0.06401 0.02552,-0.06186 0.02553,-0.06143 0.0255,-0.06531 0.02553,-0.06228 0.02553,-0.06186 0.02552,-0.06575 0.0255,-0.06229 0.02553,-0.06574 0.02553,-0.06271 0.02551,-0.06619 0.02551,-0.06314 0.02553,-0.06316 0.02553,-0.06314 0.02551,-0.06662 0.02551,-0.06358 0.02553,-0.06359 0.02551,-0.06704 0.02553,-0.06401 0.02552,-0.06662 0.02551,-0.06488 0.02553,-0.06704 0.02553,-0.06444 0.0255,-0.06532 0.02552,-0.06747 0.02553,-0.06488 0.02553,-0.06488 0.02549,-0.06833 0.02553,-0.06532 0.02553,-0.06879 0.02553,-0.06531 0.02549,-0.06877 0.02553,-0.06618 0.02553,-0.06877 0.02551,-0.06619 0.02552,-0.06659 0.02552,-0.06877 0.02553,-0.06706 0.02551,-0.0692 0.02552,-0.06705 0.02552,-0.06747 0.02552,-0.06965 0.02553,-0.06704 0.02551,-0.0705 0.02553,-0.06747 0.02551,-0.07051 0.02553,-0.0679 0.02551,-0.07094 0.02551,-0.06792 0.02553,-0.07092 0.02553,-0.06879 0.02551,-0.07092 0.02551,-0.06877 0.02553,-0.06879 0.02553,-0.07179 0.0255,-0.06877 0.02552,-0.07224 0.02553,-0.06921 0.02553,-0.07224 0.0255,-0.06964 0.02553,-0.07266 0.02552,-0.07179 0.02552,-0.07007 0.02551,-0.07311 0.02553,-0.07007 0.02553,-0.0731 0.02551,-0.07094 0.02551,-0.07051 0.02553,-0.07353 0.02551,-0.07092 0.02553,-0.07396 0.02551,-0.07354 0.02553,-0.07138 0.02552,-0.07396 0.02552,-0.0718 0.02551,-0.07439 0.02552,-0.07181 0.02552,-0.07483 0.02553,-0.07223 0.0255,-0.07439 0.02553,-0.0731 0.02553,-0.07483 0.02552,-0.07267 0.0255,-0.07525 0.02553,-0.0757 0.02553,-0.0731 0.02551,-0.07569 0.02551,-0.07353 0.02553,-0.0757 0.02553,-0.07398 0.02551,-0.0761 0.02551,-0.07656 0.02553,-0.07397 0.02551,-0.07657 0.02553,-0.07482 0.02551,-0.07614 0.02553,-0.07525 0.02551,-0.07699 0.02554,-0.07699 0.0255,-0.07527 0.02552,-0.07742 0.02553,-0.07569 0.02552,-0.07743 0.02552,-0.07786 0.02551,-0.0757 0.02553,-0.07829 0.02553,-0.07829 0.02549,-0.07611 0.02553,-0.07657 0.02553,-0.07828 0.02553,-0.07873 0.02549,-0.07656 0.02553,-0.07916 0.02553,-0.07915 0.02551,-0.07742 0.02552,-0.07916 0.02552,-0.07913 0.02553,-0.07787 0.02551,-0.07959 0.02552,-0.08002 0.02552,-0.07959 0.02552,-0.07873 0.02553,-0.07828 0.02551,-0.08001 0.02552,-0.08047 0.02552,-0.07872 0.02553,-0.08088 0.02551,-0.08045 0.02551,-0.07959 0.02553,-0.08089 0.02553,-0.08131 0.02551,-0.08131 0.02551,-0.07959 0.02553,-0.08132 0.02553,-0.08175 0.02549,-0.08002 0.02553,-0.08218 0.02553,-0.08045 0.02552,-0.08218 0.02551,-0.08219 0.02553,-0.08088 0.02552,-0.08262 0.02552,-0.08262 0.02551,-0.08304 0.02553,-0.08133 0.02551,-0.08304 0.02553,-0.08305 0.02551,-0.08347 0.02553,-0.08175 0.02551,-0.08348 0.02553,-0.08219 0.02551,-0.08391 0.02551,-0.08392 0.02553,-0.08433 0.02553,-0.08261 0.02551,-0.08436 0.02552,-0.08433 0.02552,-0.08305 0.02553,-0.08478 0.0255,-0.08478 0.02552,-0.08478 0.02554,-0.0852 0.02552,-0.08391 0.0255,-0.08522 0.02553,-0.08391 0.02553,-0.08564 0.02551,-0.08564 0.02551,-0.08609 0.02553,-0.08433 0.02553,-0.08738 0.02551,-0.08477 0.02551,-0.08652 0.02553,-0.0865 0.02551,-0.08652 0.02553,-0.08563 0.02551,-0.08565 0.02553,-0.08823 0.02552,-0.08564 0.02552,-0.08738 0.02552,-0.08692 0.02551,-0.08782 0.02553,-0.08608 0.02552,-0.0878 0.02552,-0.08781 0.02551,-0.0878 0.02553,-0.08824 0.02553,-0.08693"
       style="fill:none;stroke:#b39af0;stroke-width:0.99628;stroke-linecap:butt;stroke-linejoin:miter;stroke-miterlimit:10;stroke-dasharray:none;stroke-opacity:1"
       transform="matrix(1.3333333,0,0,-1.3333333,272.768,132.27867)" />
  </g>
</svg>
