<?xml version="1.0" encoding="UTF-8" standalone="no"?>
<!-- Created with Inkscape (http://www.inkscape.org/) -->

<svg
   version="1.1"
   id="svg1"
   width="381.14667"
   height="195.38667"
   viewBox="0 0 381.14667 195.38667"
   sodipodi:docname="MATH_118-86.pdf"
   xmlns:inkscape="http://www.inkscape.org/namespaces/inkscape"
   xmlns:sodipodi="http://sodipodi.sourceforge.net/DTD/sodipodi-0.dtd"
   xmlns="http://www.w3.org/2000/svg"
   xmlns:svg="http://www.w3.org/2000/svg">
  <defs
     id="defs1" />
  <sodipodi:namedview
     id="namedview1"
     pagecolor="#ffffff"
     bordercolor="#000000"
     borderopacity="0.25"
     inkscape:showpageshadow="2"
     inkscape:pageopacity="0.0"
     inkscape:pagecheckerboard="0"
     inkscape:deskcolor="#d1d1d1">
    <inkscape:page
       x="0"
       y="0"
       inkscape:label="1"
       id="page1"
       width="381.14667"
       height="195.38667"
       margin="0"
       bleed="0" />
  </sodipodi:namedview>
  <g
     id="g1"
     inkscape:groupmode="layer"
     inkscape:label="1">
    <path
       id="path1"
       d="M -28.3468,0 H 84.79135"
       style="fill:none;stroke:#c9d1d9;stroke-width:0.24907;stroke-linecap:butt;stroke-linejoin:miter;stroke-miterlimit:10;stroke-dasharray:none;stroke-opacity:1"
       transform="matrix(1.3333333,0,0,-1.3333333,59.881333,132.27867)" />
    <path
       id="path2"
       d="M -1.89291,2.12108 C -1.54709,0.84842 -0.77643,0.24745 0,0 -0.77643,-0.24745 -1.54709,-0.84842 -1.89291,-2.12108"
       style="fill:none;stroke:#c9d1d9;stroke-width:0.24907;stroke-linecap:round;stroke-linejoin:round;stroke-miterlimit:10;stroke-dasharray:none;stroke-opacity:1"
       transform="matrix(1.3333333,0,0,-1.3333333,173.10253,132.27867)" />
    <path
       id="path3"
       d="M 0,-28.3468 V 84.79135"
       style="fill:none;stroke:#c9d1d9;stroke-width:0.24907;stroke-linecap:butt;stroke-linejoin:miter;stroke-miterlimit:10;stroke-dasharray:none;stroke-opacity:1"
       transform="matrix(1.3333333,0,0,-1.3333333,59.881333,132.27867)" />
    <path
       id="path4"
       d="M -1.89291,2.12108 C -1.54709,0.84842 -0.77643,0.24745 0,0 -0.77643,-0.24745 -1.54709,-0.84842 -1.89291,-2.12108"
       style="fill:none;stroke:#c9d1d9;stroke-width:0.24907;stroke-linecap:round;stroke-linejoin:round;stroke-miterlimit:10;stroke-dasharray:none;stroke-opacity:1"
       transform="matrix(0,-1.3333333,-1.3333333,0,59.881333,19.057467)" />
    <path
       id="path5"
       d="m -19.84267,65.40405 0.10036,-0.80107 0.10034,-0.79066 0.10034,-0.78679 0.10036,-0.77771 0.10034,-0.77381 0.10036,-0.76298 0.10034,-0.76041 0.10036,-0.75349 0.10034,-0.74439 0.10034,-0.74008 0.10036,-0.73099 0.10034,-0.72709 0.10036,-0.71802 0.10034,-0.71456 0.10036,-0.70501 0.10034,-0.70116 0.10036,-0.69551 0.10035,-0.68645 0.10034,-0.68254 0.10036,-0.67346 0.10034,-0.67001 0.10036,-0.66091 0.10034,-0.65876 0.10034,-0.64838 0.10036,-0.64621 0.10034,-0.63885 0.10036,-0.63065 0.10034,-0.62761 0.10034,-0.61897 0.10036,-0.61505 0.10034,-0.60729 0.10036,-0.60339 0.10034,-0.59603 0.10036,-0.59173 0.10034,-0.58695 0.10034,-0.57699 0.10036,-0.57529 0.10034,-0.56662 0.10036,-0.56317 0.10034,-0.55581 0.10036,-0.55234 0.10034,-0.54587 0.10034,-0.53894 0.10036,-0.53549 0.10035,-0.52726 0.10036,-0.52467 0.10034,-0.51688 0.10036,-0.51342 0.10034,-0.50693 0.10034,-0.50261 0.10036,-0.49744 0.10034,-0.49048 0.10036,-0.48704 0.10034,-0.48012 0.10034,-0.47665 0.10036,-0.46932 0.10034,-0.4667 0.10036,-0.45935 0.10034,-0.45589 0.10036,-0.45071 0.10034,-0.44465 0.10034,-0.44076 0.10036,-0.43471 0.10034,-0.43123 0.10036,-0.42476 0.10034,-0.42129 0.10035,-0.41479 0.10035,-0.41178 0.10034,-0.40659 0.10036,-0.40054 0.10034,-0.39749 0.10037,-0.39145 0.10034,-0.38798 0.10036,-0.3815 0.10034,-0.3789 0.10034,-0.37286 0.10036,-0.36896 0.10034,-0.36505 0.10036,-0.35988 0.10034,-0.35554 0.10034,-0.35036 0.10036,-0.34732 0.10034,-0.34128 0.10036,-0.33781 0.10034,-0.33261 0.10036,-0.33004 0.10034,-0.32526 0.10034,-0.32009 0.10036,-0.31661 0.10034,-0.31143 0.10036,-0.30839 0.10034,-0.30322 0.10036,-0.30018 0.10034,-0.29499 0.10034,-0.29197 0.10036,-0.28762 0.10034,-0.28289 0.10036,-0.27941 0.10035,-0.2751 0.10036,-0.27206 0.10034,-0.26689 0.10034,-0.26426 0.10036,-0.25911 0.10034,-0.25649 0.10036,-0.25261 0.10034,-0.24785 0.10036,-0.24481 0.10034,-0.24049 0.10034,-0.23703 0.10036,-0.23355 0.10034,-0.22969 0.10036,-0.22623 0.10034,-0.22275 0.10034,-0.21887 0.10036,-0.21497 0.10034,-0.21237 0.10036,-0.20762 0.10034,-0.20502 L -7.90115,9.79956 -7.80081,9.60147 -7.70047,9.40726 -7.60011,9.21564 -7.49977,9.02791 -7.39941,8.84366 -7.29907,8.66243 -7.19872,8.48508 -7.09836,8.31033 -6.99802,8.13905 -6.89766,7.9708 -6.79732,7.80557 -6.69696,7.64423 -6.59662,7.48549 -6.49626,7.3302 -6.39592,7.17752 -6.29558,7.02873 -6.19522,6.8821 -6.09488,6.73892 -5.99452,6.59879 -5.89418,6.46124 -5.79384,6.32715 -5.69348,6.19566 -5.59314,6.0672 -5.49278,5.94176 -5.39244,5.81935 -5.29208,5.69911 -5.19174,5.58232 -5.0914,5.4677 -4.99104,5.35654 -4.8907,5.24797 -4.79034,5.142 -4.69,5.03862 -4.58965,4.93826 -4.4893,4.84009 -4.38895,4.74492 -4.28859,4.65236 -4.18825,4.56197 -4.08789,4.47417 -3.98755,4.38937 -3.88719,4.3072 -3.78685,4.22717 -3.68651,4.14975 -3.58615,4.0745 -3.48581,4.00226 -3.38545,3.93217 -3.28511,3.86427 -3.18477,3.79852 -3.08441,3.73582 -2.98407,3.67525 -2.88371,3.61644 -2.78337,3.56062 -2.68301,3.507 -2.58267,3.45552 -2.48233,3.40578 -2.38197,3.35864 -2.28163,3.31366 -2.18127,3.27083 -2.08093,3.23018 -1.98058,3.19168 -1.88023,3.15535 -1.77989,3.12074 -1.67953,3.08875 -1.57918,3.05846 -1.47882,3.0299 -1.37848,3.00352 -1.27812,2.97931 -1.17778,2.95724 -1.07744,2.93692 -0.97708,2.91832 -0.87674,2.90146 -0.77638,2.88718 -0.67604,2.8742 -0.5757,2.86339 -0.47534,2.85388 -0.375,2.84651 -0.27464,2.8409 -0.1743,2.837 -0.07394,2.83484 H 0.02637 L 0.12671,2.83571 0.22707,2.83873 0.32741,2.84349 0.42776,2.84955 0.5281,2.85733 0.62846,2.86684 0.7288,2.8781 0.82915,2.89107 0.9295,2.9049 1.02985,2.92091 1.13022,2.93822 1.23056,2.9568 1.33092,2.9767 1.43126,2.99876 1.5316,3.02168 1.63196,3.04634 1.7323,3.0723 1.83266,3.09955 1.933,3.1281 2.03336,3.15794 2.1337,3.18951 2.23404,3.22238 2.3344,3.25613 2.43474,3.29115 2.5351,3.32793 2.63544,3.36555 2.73578,3.4045 2.83614,3.44472 2.93648,3.48581 3.03683,3.5282 3.13718,3.57188 3.23753,3.61687 3.33788,3.6627 3.43822,3.70943 3.53857,3.75787 3.63892,3.80675 3.73927,3.85693 3.83963,3.90796 3.93999,3.96072 4.04033,4.01352 4.14067,4.06801 4.24103,4.12294 4.34137,4.17917 4.44173,4.23627 4.54207,4.29422 4.64243,4.35304 4.74277,4.41273 4.84311,4.47372 4.94347,4.53516 5.04381,4.59744 5.14417,4.66058 5.2445,4.7246 5.34485,4.78905 5.4452,4.8548 5.54555,4.92096 5.6459,4.98802 5.74625,5.05592 5.8466,5.12427 5.94695,5.19348 6.04729,5.2631 6.14764,5.3336 6.24799,5.40498 6.34834,5.47678 6.44868,5.54901 6.54904,5.62212 6.6494,5.69565 6.74974,5.7696 6.8501,5.84444 6.95044,5.91971 7.0508,5.99582 7.15114,6.07195 7.2515,6.14896 7.35184,6.22594 7.45218,6.3038 7.55254,6.38208 7.65288,6.4608 7.75323,6.53996 7.85358,6.61911 7.95392,6.69957 8.05428,6.77959 8.15462,6.86046 8.25497,6.94135 8.35532,7.02267 8.45567,7.10443 8.55602,7.1866 8.65636,7.26878 8.75671,7.3514 8.85706,7.43489 8.95741,7.51749 9.05775,7.60141 9.15811,7.68488 9.25845,7.7688 9.35881,7.85315 9.45917,7.93706 9.55951,8.02184 9.65987,8.10661 9.76021,8.19182 9.86057,8.2766 9.9609,8.36137 l 0.10035,0.08565 0.10035,0.08521 0.10035,0.08564 0.10035,0.08565 0.10035,0.08563 0.10034,0.08565 0.10036,0.08608 0.10034,0.0852 0.10035,0.08565 0.10035,0.08607 0.10035,0.08608 0.10034,0.08607 0.10035,0.08565 0.10035,0.08608 0.10035,0.08563 0.10035,0.08565 0.10034,0.0852 0.10036,0.08565 0.10034,0.08565 0.10034,0.08476 0.10036,0.08565 0.10036,0.0852 0.10036,0.08565 0.10034,0.08392 0.10036,0.08563 0.10034,0.08391 0.10034,0.08435 0.10036,0.08435 0.10034,0.08348 0.10035,0.08391 0.10035,0.08348 0.10035,0.08348 0.10035,0.08306 0.10034,0.08304 0.10035,0.08218 0.10035,0.08219 0.10035,0.08218 0.10034,0.08131 0.10035,0.08219 0.10035,0.08044 0.10035,0.08088 0.10035,0.08047 0.10035,0.08044 0.10035,0.07916 0.10035,0.07871 0.10033,0.08003 0.10036,0.07787 0.10034,0.0787 0.10037,0.07785 0.10035,0.07787 0.10035,0.07657 0.10035,0.07699 0.10034,0.07569 0.10036,0.07527 0.10034,0.07568 0.10035,0.07483 0.10035,0.0744 0.10035,0.07353 0.10034,0.07396 0.10035,0.07268 0.10035,0.07266 0.10035,0.07135 0.10035,0.07051 0.10034,0.07225 0.10035,0.0692 0.10035,0.07006 0.10035,0.06921 0.10035,0.06921 0.10034,0.06748 0.10036,0.06834 0.10034,0.06618 0.10034,0.06575 0.10036,0.06618 0.10034,0.06488 0.10036,0.06488 0.10036,0.06314 0.10035,0.06402 0.10035,0.06186 0.10034,0.06142 0.10036,0.06184 0.10034,0.06014 0.10035,0.06054 0.10035,0.05881 0.10035,0.05884 0.10034,0.05753 0.10035,0.05883 0.10035,0.05536 0.10035,0.05536 0.10035,0.0558 0.10035,0.05364 0.10034,0.05493 0.10036,0.05234 0.10033,0.05191 0.10036,0.05147 0.10034,0.05104 0.10036,0.04931 0.10034,0.04929 0.10034,0.04889 0.10036,0.04628 0.10034,0.048 0.10036,0.04498 0.10034,0.04717 0.10036,0.04367 0.10036,0.04369 0.10034,0.04283 0.10036,0.04109 0.10034,0.04237 0.10035,0.03939 0.10035,0.04065 0.10035,0.03848 0.10034,0.03807 0.10035,0.0359 0.10035,0.0372 0.10035,0.03504 0.10035,0.03329 0.10034,0.03505 0.10034,0.03244 0.10036,0.03244 0.10034,0.02985 0.10036,0.03114 0.10034,0.02898 0.10036,0.02897 0.10034,0.02638 0.10034,0.02683 0.10036,0.02638 0.10034,0.02381 0.10036,0.02421 0.10034,0.02248 0.10036,0.02293 0.10034,0.0199 0.10036,0.02162 0.10035,0.01775 0.10035,0.01773 0.10035,0.01903 0.10035,0.01513 0.10035,0.01644 0.10035,0.01386 0.10034,0.01511 0.10036,0.01125 0.10034,0.01254 0.10035,0.01 0.10034,0.0086 0.10035,0.01038 0.10035,0.0073 0.10034,0.0069 0.10036,0.0048 0.10034,0.006 0.10036,0.0034 0.10034,0.0035 0.10034,0.0022 0.10036,-8.7e-4 0.10034,0.0022 0.10036,-0.0017 0.10034,-0.0022 0.10036,-0.0035 0.10034,-0.003 0.10034,-0.006 0.10036,-0.0048 0.10036,-0.0074 0.10035,-0.0086 0.10035,-0.0091 0.10035,-0.0099 0.10034,-0.0099 0.10034,-0.01297 0.10036,-0.01299 0.10034,-0.01382 0.10036,-0.01602 0.10034,-0.01557 0.10036,-0.01687 0.10034,-0.01816 0.10034,-0.0199 0.10036,-0.01817 0.10034,-0.02248 0.10036,-0.02119 0.10034,-0.02379 0.10034,-0.02553 0.10036,-0.02336 0.10034,-0.02682 0.10036,-0.02681 0.10034,-0.02941 0.10036,-0.02768 0.10034,-0.03116 0.10034,-0.0307 0.10036,-0.03375 0.10034,-0.03373 0.10038,-0.0333 0.10034,-0.03635 0.10035,-0.03633 0.10034,-0.03805 0.10035,-0.0372 0.10035,-0.0411 0.10034,-0.03849 0.10036,-0.04195 0.10034,-0.04369 0.10036,-0.04326 0.10034,-0.04454 0.10034,-0.04629 0.10036,-0.04758 0.10034,-0.04541 0.10036,-0.05061 0.10034,-0.04845 0.10034,-0.0519 0.10036,-0.05148 0.10034,-0.05276 0.10036,-0.05449 0.10034,-0.05234 0.10036,-0.05753 0.10034,-0.05494 0.10034,-0.05881 0.10036,-0.05797 0.10034,-0.06186 0.10036,-0.06098 0.10035,-0.06055 0.10036,-0.06229 0.10034,-0.06401 0.10035,-0.06532 0.10035,-0.06445 0.10034,-0.06835 0.10036,-0.06573 0.10034,-0.06922 0.10036,-0.07094 0.10034,-0.07049 0.10034,-0.07181 0.10036,-0.07092 0.10034,-0.07527 0.10036,-0.07396 0.10034,-0.0757 0.10034,-0.07526 0.10036,-0.07872 0.10034,-0.07829 0.10036,-0.07742 0.10034,-0.08132 0.10036,-0.08046 0.10034,-0.08218 0.10034,-0.08348 0.10036,-0.0852 0.10034,-0.08219 0.10036,-0.08824 0.10034,-0.08737 0.10036,-0.0865 0.10035,-0.08825 0.10035,-0.08952 0.10035,-0.09128 0.10034,-0.09039 0.10036,-0.09214 0.10034,-0.09342 0.10036,-0.09473 0.10034,-0.09386 0.10034,-0.09559 0.10036,-0.09732 0.10034,-0.09603 0.10036,-0.10036 0.10034,-0.09643 0.10035,-0.10036 0.10035,-0.10252 0.10034,-0.10121 0.10036,-0.10251 0.10034,-0.10424 0.10036,-0.10294 0.10034,-0.10467 0.10034,-0.10597 0.10036,-0.10771 0.10034,-0.10642 0.10036,-0.11071 0.10034,-0.10684 0.10036,-0.11117 0.10034,-0.10943 0.10036,-0.11159 0.10035,-0.11247 L 37.05508,9.95963 37.15544,9.84674 37.25578,9.73212 37.35614,9.6162 37.45648,9.50157 37.55682,9.38263 37.65718,9.268 37.75752,9.14862 37.85788,9.02794 37.95822,8.90901 38.05858,8.78831 38.15892,8.66937 38.25926,8.54567 38.35962,8.42369 38.45996,8.29999 38.56032,8.178 38.66066,8.05125 38.761,7.92624 38.86136,7.79994 38.9617,7.67537 39.06206,7.54604 39.1624,7.41801 39.26276,7.29214 39.3631,7.16153 39.46344,7.03305 39.5638,6.90242 39.66415,6.77094 39.76451,6.64117 39.86485,6.50967 39.96521,6.37689 40.06555,6.24237 40.1659,6.107 40.26625,5.9729 40.3666,5.83795 40.46695,5.70473 40.56729,5.5702 40.66765,5.43051 40.76799,5.29684 40.86833,5.15799 40.96869,5.02089 41.06903,4.88292 41.16939,4.7432 41.26973,4.60219 41.37007,4.46333 41.47043,4.32321 41.57077,4.18176 41.67113,4.04248 41.77147,3.90147 41.87183,3.75961 41.97217,3.616 42.07251,3.47499 42.17287,3.33224 42.27321,3.18866 42.37358,3.04332 42.47392,2.90059 42.57428,2.76086 42.67462,2.61554 42.77496,2.46848 42.87532,2.32445 42.97566,2.17911 43.07602,2.03204 43.17636,1.88368 43.27672,1.73836 43.37706,1.5913 43.4774,1.44725 43.57776,1.2976 43.6781,1.15097 43.77846,1.00304 43.8788,0.85338 43.97914,0.70674 44.0795,0.55927 44.17984,0.41003 44.2802,0.25995 l 0.10034,-0.14751 0.10036,-0.14877 0.10034,-0.14964 0.10034,-0.1514 0.10036,-0.14792 0.10034,-0.14966 0.10036,-0.15053 0.10036,-0.15182 0.10035,-0.14879 0.10034,-0.14966 0.10034,-0.15138 0.10036,-0.14751 0.10034,-0.14921 0.10036,-0.15009 0.10034,-0.1514 0.10036,-0.14836 0.10034,-0.15355 0.10034,-0.14621 0.10036,-0.15136 0.10034,-0.14836 0.10036,-0.14925 0.10034,-0.15009 0.10034,-0.15182 0.10036,-0.1479 0.10034,-0.14925 0.10036,-0.15009 0.10034,-0.15138 0.10036,-0.14751 0.10033,-0.14877 0.10035,-0.14967 0.10035,-0.14619 0.10035,-0.14707 0.10035,-0.15311 0.10035,-0.14447 0.10035,-0.1501 0.10036,-0.14662 0.10034,-0.14232 0.10036,-0.14835 0.10034,-0.14967 0.10036,-0.14532 0.10034,-0.1462 0.10036,-0.14273 0.10034,-0.14837 0.10034,-0.14405 0.10036,-0.14056 0.10034,-0.1462 0.10036,-0.14187 0.10034,-0.14275 0.10034,-0.14401 0.10036,-0.13973 0.10034,-0.14575 0.10036,-0.14145 0.10034,-0.1423 0.10036,-0.13754 0.10034,-0.13884 0.10034,-0.13972 0.10036,-0.14014 0.10034,-0.13625 0.10036,-0.13669 0.10034,-0.13754 0.10035,-0.13841 0.10035,-0.13367 0.10035,-0.13452 0.10036,-0.13536 0.10034,-0.13582 0.10036,-0.1315 0.10034,-0.13193 0.10036,-0.12759 0.10034,-0.13323 0.10034,-0.12889 0.10036,-0.12933 0.10034,-0.1302 0.10036,-0.125 0.10034,-0.13149 0.10036,-0.12068 0.10034,-0.12717 0.10034,-0.12196 0.10035,-0.12848 0.10035,-0.12328 0.10035,-0.11807 0.10035,-0.12457 0.10034,-0.11331 0.10036,-0.12589 0.10034,-0.11463 0.10035,-0.1211 0.10035,-0.10942 0.10035,-0.11637 0.10035,-0.11679 0.10034,-0.11116 0.10035,-0.11158 0.10036,-0.1064 0.10036,-0.11248 0.10034,-0.10727 0.10036,-0.10769 0.10034,-0.10771 0.10034,-0.10856 0.10036,-0.09646 0.10034,-0.10336 0.10036,-0.1034 0.10034,-0.09775 0.10036,-0.10466 0.10034,-0.0917 0.10034,-0.09906 0.10036,-0.09299 0.10034,-0.093 0.10036,-0.09343 0.10034,-0.08737 0.10034,-0.0943 0.10036,-0.08132 0.10034,-0.09472 0.10035,-0.08219 0.10035,-0.08216 0.10035,-0.08219 0.10035,-0.08305 0.10034,-0.07613 0.10035,-0.07657 0.10035,-0.07655 0.10037,-0.07007 0.10034,-0.07699 0.10036,-0.0705 0.10034,-0.07094 0.10034,-0.07051 0.10036,-0.06401 0.10034,-0.06444 0.10035,-0.0571 0.10035,-0.06445 0.10035,-0.05754 0.10035,-0.06444 0.10034,-0.0506 0.10036,-0.05752 0.10034,-0.05061 0.10036,-0.05104 0.10034,-0.05062 0.10034,-0.04324 0.10036,-0.0437 0.10034,-0.04325 0.10035,-0.04324 0.10035,-0.03635 0.10035,-0.04324 0.10035,-0.02855 0.10034,-0.0359 0.10035,-0.02811 0.10035,-0.02855 0.10035,-0.0277 0.10036,-0.02075 0.10036,-0.02769 0.10034,-0.01254 0.10034,-0.02725 0.10036,-0.01255 0.10034,-0.01945 0.10036,-0.0039 0.10034,-0.0039 0.10036,-0.01125 0.10034,-0.003 0.10034,-0.01037 0.10036,0.0048 0.10034,-0.0022 0.10035,0.01384 0.10035,0.0061 0.10034,0.0065 0.10036,0.01471 0.10034,0.01514 0.10035,0.01601 0.10035,0.016 0.10035,0.02422 0.10035,0.0251 0.10034,0.03329 0.10036,0.03374 0.10034,0.02639 0.10036,0.03503 0.10033,0.03546 0.10036,0.04455 0.10036,0.03635 0.10034,0.05362 0.10036,0.03763 0.10034,0.06317 0.10036,0.05536 0.10034,0.048 0.10036,0.06531 0.10034,0.0571 0.10034,0.07527 0.10036,0.05882 0.10034,0.07613 0.10035,0.06877 0.10035,0.0865 0.10035,0.08695 0.10035,0.07136 0.10034,0.09732 0.10035,0.0809 0.10035,0.09948 0.10035,0.09126 0.10034,0.10078 0.10034,0.10208 0.10036,0.1116 0.10034,0.11245 0.10036,0.10425 0.10034,0.12327 0.10036,0.10683 0.10034,0.13411 0.10036,0.1172 0.10036,0.12717 0.10034,0.12846 0.10036,0.13797 0.10034,0.14881 0.10036,0.1315 0.10034,0.15961 0.10034,0.14273 0.10036,0.1531 0.10034,0.15399 0.10035,0.1648 0.10035,0.15658 0.10035,0.17605 0.10035,0.17776 0.10034,0.16005 0.10036,0.18945 0.10034,0.17214 0.10036,0.19204 0.10033,0.18384 0.10035,0.20415 0.10035,0.18687 0.10035,0.20675 0.10035,0.21801 0.10034,0.20069 0.10036,0.22059 0.10034,0.2033 0.10034,0.23356 0.10036,0.21584 0.10036,0.2366 0.10036,0.21843 0.10034,0.24957 0.10035,0.2513 0.10035,0.23314 0.10034,0.25434 0.10036,0.24612 0.10034,0.2673 0.10035,0.25909 0.10035,0.2712 0.10035,0.28245 0.10035,0.26471 0.10033,0.28591 0.10036,0.27812 0.10034,0.29976 0.10036,0.28158 0.10034,0.30321 0.10035,0.29541 0.10035,0.31749 0.10035,0.31922 0.10035,0.30105 0.10034,0.33348 0.10036,0.31488 0.10034,0.33739 0.10034,0.31877 0.10036,0.3521 0.10034,0.33304 0.10038,0.35641 0.10034,0.36853 0.10035,0.34992 0.10035,0.37283 0.10034,0.35423 0.10036,0.388 0.10034,0.36852 0.10036,0.39274 0.10034,0.37285 0.10036,0.40789 0.10033,0.37716 0.10035,0.39015 0.10035,0.41481 0.10035,0.40572 0.10035,0.42995 0.10034,0.41047 0.10035,0.43514 0.10035,0.42605 0.10035,0.45069 0.10035,0.4533 0.10034,0.44465 0.10036,0.46931 0.10034,0.4494 0.10034,0.4745 0.10036,0.45417 0.10034,0.49093 0.10036,0.4706 0.10036,0.50737 0.10035,0.49872 0.10035,0.49006 0.10034,0.51558 0.10036,0.5065 0.10033,0.52121 0.10036,0.51213 0.10034,0.53808 0.10036,0.52899 0.10034,0.55537 0.10035,0.55799 0.10035,0.53764 0.10035,0.56402 0.10035,0.55495 0.10034,0.58133 0.10035,0.561 0.10035,0.59906 0.10034,0.57876 0.10036,0.60554 0.10034,0.60814 0.10036,0.59993 0.10034,0.62633 0.10034,0.60598 0.10036,0.6328 0.10034,0.62372 0.10036,0.6514 0.10034,0.63022 0.10036,0.65788 0.10036,0.67346 0.10034,0.65227 0.10036,0.67996 0.10034,0.67085 0.10035,0.69899 0.10035,0.66524 0.10035,0.718 0.10034,0.6843 0.10035,0.72536 0.10035,0.72883 0.10035,0.70677 0.10035,0.74828 0.10034,0.72665 0.10036,0.75565 0.10034,0.73359 0.10034,0.77512 0.10036,0.77942 0.10034,0.75696 0.10036,0.79932 0.10034,0.76429 0.10035,0.80712 0.10035,0.78462 0.10035,0.82701 0.10035,0.80539 0.10034,0.83479 0.10036,0.83913 0.10034,0.82962 0.10036,0.85988 0.10035,0.82441 0.10035,0.88065 0.10035,0.84561 0.10035,0.88887 0.10035,0.86638 0.10034,0.91049 0.10035,0.91439 0.10035,0.8789 0.10035,0.93602 0.10035,0.90012 0.10034,0.94508 0.10036,0.90834 0.10034,0.96672 0.10034,0.93038 0.10036,0.97537 0.10034,0.9797 0.10036,0.95678 0.10034,1.00219 0.10034,0.96543 0.10036,1.02511 0.10034,0.98792 0.10036,1.03377 0.10034,0.997 0.10036,1.04284 0.10034,1.06144 0.10034,1.02427"
       style="fill:none;stroke:#b39af0;stroke-width:0.99628;stroke-linecap:butt;stroke-linejoin:miter;stroke-miterlimit:10;stroke-dasharray:none;stroke-opacity:1"
       transform="matrix(1.3333333,0,0,-1.3333333,59.881333,132.27867)" />
    <path
       id="path6"
       d="m 1.4517422,0.08077344 c 0.8085937,0 1.2421875,-0.45703125 1.2421875,-1.0078125 0,-0.60937504 -0.5039063,-0.84375004 -1.03125,-1.03125004 -0.4335938,-0.1523437 -0.72656251,-0.2695312 -0.72656251,-0.5859375 0,-0.2460937 0.18750001,-0.4804687 0.62109371,-0.4804687 0.3046875,0 0.5507813,0.09375 0.7851563,0.2695312 l 0.2695312,-0.3398437 c -0.2695312,-0.2226563 -0.6328125,-0.375 -1.0546875,-0.375 -0.73828121,0 -1.17187496,0.4101562 -1.17187496,0.9609375 0,0.5507812 0.48046875,0.796875 0.99609376,0.984375 0.3867187,0.140625 0.7617187,0.28125 0.7617187,0.63281249 0,0.29296875 -0.2226562,0.515625 -0.6679687,0.515625 -0.421875,0 -0.72656251,-0.1171875 -1.01953126,-0.36328125 l -0.2578125,0.328125 c 0.3046875,0.31640625 0.76171875,0.4921875 1.25390626,0.4921875 z M 3.4966641,-0.00125781 H 4.0708828 V -2.4504766 c 0.3164063,-0.3515625 0.5976563,-0.515625 0.84375,-0.515625 0.4335938,0 0.6328125,0.2578125 0.6328125,0.890625 v 2.07421879 H 6.1216641 V -2.4504766 c 0.3164062,-0.3515625 0.5859375,-0.515625 0.8554687,-0.515625 0.421875,0 0.6210938,0.2578125 0.6210938,0.890625 v 2.07421879 H 8.1841641 V -2.1457891 c 0,-0.8671875 -0.3398438,-1.3242187 -1.03125,-1.3242187 -0.421875,0 -0.7734375,0.2578125 -1.125,0.6328125 -0.140625,-0.3867188 -0.4101563,-0.6328125 -0.9375,-0.6328125 -0.3984375,0 -0.75,0.2460937 -1.0546875,0.5625 h -0.023437 l -0.046875,-0.4804688 h -0.46875 z m 7.0927729,0.08203125 c 0.832032,0 1.582032,-0.64453125 1.582032,-1.76953124 0,-1.1367188 -0.75,-1.78125 -1.582032,-1.78125 -0.8320308,0 -1.570312,0.6445312 -1.570312,1.78125 0,1.12499999 0.7382812,1.76953124 1.570312,1.76953124 z m 0,-0.48046875 c -0.574218,0 -0.960937,-0.515625 -0.960937,-1.28906249 0,-0.7851563 0.386719,-1.3007813 0.960937,-1.3007813 0.585938,0 0.984375,0.515625 0.984375,1.3007813 0,0.77343749 -0.398437,1.28906249 -0.984375,1.28906249 z m 3.779297,0.48046875 c 0.832032,0 1.582032,-0.64453125 1.582032,-1.76953124 0,-1.1367188 -0.75,-1.78125 -1.582032,-1.78125 -0.832031,0 -1.570312,0.6445312 -1.570312,1.78125 0,1.12499999 0.738281,1.76953124 1.570312,1.76953124 z m 0,-0.48046875 c -0.574218,0 -0.960937,-0.515625 -0.960937,-1.28906249 0,-0.7851563 0.386719,-1.3007813 0.960937,-1.3007813 0.585938,0 0.984375,0.515625 0.984375,1.3007813 0,0.77343749 -0.398437,1.28906249 -0.984375,1.28906249 z m 3.416016,0.48046875 c 0.222656,0 0.457031,-0.05859375 0.644531,-0.140625 l -0.128906,-0.41015625 c -0.128906,0.0585938 -0.257813,0.0820313 -0.386719,0.0820313 -0.386719,0 -0.515625,-0.24609375 -0.515625,-0.65624999 v -1.8750001 h 0.914063 v -0.46875 h -0.914063 v -1.0898436 h -0.492187 l -0.05859,1.0898437 -0.539063,0.035156 v 0.4335937 h 0.503907 v 1.8632813 c 0,0.67968744 0.246093,1.13671869 0.972656,1.13671869 z m 1.297852,-0.08203125 H 19.65682 V -2.4504766 c 0.339844,-0.3515625 0.585938,-0.515625 0.925782,-0.515625 0.445312,0 0.632812,0.2578125 0.632812,0.890625 v 2.07421879 h 0.585938 V -2.1457891 c 0,-0.8671875 -0.328125,-1.3242187 -1.042969,-1.3242187 -0.46875,0 -0.808594,0.2460937 -1.125,0.5507812 l 0.02344,-0.6914062 v -1.359375 h -0.574218 z m 5.956054,0.08203125 c 0.433594,0 0.796875,-0.2109375 1.125,-0.4921875 h 0.01172 l 0.05859,0.41015625 h 0.480468 V -2.0871953 c 0,-0.8320313 -0.363281,-1.3828125 -1.183593,-1.3828125 -0.539063,0 -1.019532,0.2226562 -1.335938,0.4335937 l 0.222656,0.3867188 c 0.269532,-0.1640625 0.621094,-0.3398438 1.019532,-0.3398438 0.550781,0 0.691406,0.4101563 0.691406,0.8320313 -1.453125,0.1640625 -2.074219,0.5273437 -2.074219,1.27734374 0,0.609375 0.421875,0.9609375 0.984375,0.9609375 z m 0.164063,-0.46875 c -0.328125,0 -0.585938,-0.15234375 -0.585938,-0.52734375 0,-0.43359379 0.375,-0.69140629 1.511719,-0.83203129 v 0.92578129 c -0.328125,0.28125 -0.597656,0.43359375 -0.925781,0.43359375 z m 2.575195,0.38671875 h 0.574219 V -2.4504766 c 0.339844,-0.3515625 0.585937,-0.515625 0.925781,-0.515625 0.445313,0 0.632813,0.2578125 0.632813,0.890625 v 2.07421879 h 0.585937 V -2.1457891 c 0,-0.8671875 -0.328125,-1.3242187 -1.042969,-1.3242187 -0.46875,0 -0.808593,0.2460937 -1.136718,0.5625 h -0.02344 l -0.04687,-0.4804688 h -0.46875 z m 4.974609,0.08203125 c 0.386719,0 0.75,-0.22265625 1.019532,-0.48046875 h 0.02344 l 0.04687,0.3984375 h 0.46875 V -4.9700078 h -0.574219 v 1.3125 l 0.02344,0.5742187 c -0.292969,-0.2460937 -0.550781,-0.3867187 -0.9375,-0.3867187 -0.785156,0 -1.476563,0.6796875 -1.476563,1.78125 0,1.12499999 0.550782,1.76953124 1.40625,1.76953124 z m 0.117188,-0.4921875 c -0.585938,0 -0.925781,-0.48046875 -0.925781,-1.28906254 0,-0.7734375 0.433593,-1.2890625 0.972656,-1.2890625 0.28125,0 0.539062,0.09375 0.820312,0.3515625 v 1.76953129 c -0.28125,0.3046875 -0.550781,0.45703125 -0.867187,0.45703125 z M 2.9488125,7.2555781 c 0.4101562,0 0.7851562,-0.1523437 1.0898437,-0.4335937 L 3.7925625,6.4587031 c -0.1992188,0.1757813 -0.4804688,0.3164063 -0.796875,0.3164063 -0.6210938,0 -1.03125,-0.515625 -1.03125,-1.2890625 0,-0.7851563 0.4453125,-1.3007813 1.0546875,-1.3007813 0.2695312,0 0.4921875,0.1054688 0.6796875,0.28125 l 0.28125,-0.3632812 C 3.7456875,3.8805781 3.441,3.7047969 2.9956875,3.7047969 c -0.8789063,0 -1.640625,0.6445312 -1.640625,1.78125 0,1.125 0.6914062,1.7695312 1.59375,1.7695312 z m 3.0117187,0 c 0.8320313,0 1.5820313,-0.6445312 1.5820313,-1.7695312 0,-1.1367188 -0.75,-1.78125 -1.5820313,-1.78125 -0.8320312,0 -1.5703125,0.6445312 -1.5703125,1.78125 0,1.125 0.7382813,1.7695312 1.5703125,1.7695312 z m 0,-0.4804687 c -0.5742187,0 -0.9609375,-0.515625 -0.9609375,-1.2890625 0,-0.7851563 0.3867188,-1.3007813 0.9609375,-1.3007813 0.5859375,0 0.984375,0.515625 0.984375,1.3007813 0,0.7734375 -0.3984375,1.2890625 -0.984375,1.2890625 z M 8.4273281,7.1735469 H 9.0015469 V 4.7243281 c 0.3398437,-0.3515625 0.5859375,-0.515625 0.9257812,-0.515625 0.4453129,0 0.6328129,0.2578125 0.6328129,0.890625 v 2.0742188 h 0.585937 V 5.0290156 c 0,-0.8671875 -0.328125,-1.3242187 -1.042969,-1.3242187 -0.4687496,0 -0.8085934,0.2460937 -1.1367184,0.5625 H 8.9429531 L 8.8960781,3.7868281 h -0.46875 z m 4.8808589,0.082031 c 0.222657,0 0.457032,-0.058594 0.644532,-0.140625 l -0.128907,-0.410156 c -0.128906,0.058594 -0.257812,0.082031 -0.386718,0.082031 -0.386719,0 -0.515625,-0.2460937 -0.515625,-0.65625 v -1.875 h 0.914062 v -0.46875 H 12.921469 V 2.6969844 h -0.492188 l -0.05859,1.0898437 -0.539062,0.035156 v 0.4335937 h 0.503906 v 1.8632813 c 0,0.6796875 0.246094,1.1367187 0.972656,1.1367187 z m 1.297852,-0.082031 h 0.574219 V 3.7868281 h -0.574219 z m 0.292969,-4.0898438 c 0.222656,0 0.386719,-0.140625 0.386719,-0.375 0,-0.2226562 -0.164063,-0.375 -0.386719,-0.375 -0.222656,0 -0.386719,0.1523438 -0.386719,0.375 0,0.234375 0.164063,0.375 0.386719,0.375 z m 1.429687,4.0898438 h 0.574219 V 4.7243281 c 0.339844,-0.3515625 0.585938,-0.515625 0.925781,-0.515625 0.445313,0 0.632813,0.2578125 0.632813,0.890625 v 2.0742188 h 0.585937 V 5.0290156 c 0,-0.8671875 -0.328125,-1.3242187 -1.042968,-1.3242187 -0.46875,0 -0.808594,0.2460937 -1.136719,0.5625 h -0.02344 l -0.04687,-0.4804688 h -0.46875 z m 4.798828,0.082031 c 0.46875,0 0.808594,-0.2460937 1.113282,-0.609375 h 0.02344 l 0.04687,0.5273438 h 0.480469 V 3.7868281 h -0.574219 v 2.4023438 c -0.316406,0.3867187 -0.5625,0.5625 -0.902344,0.5625 -0.445312,0 -0.644531,-0.2695313 -0.644531,-0.890625 V 3.7868281 h -0.574219 v 2.1445313 c 0,0.8671875 0.316407,1.3242187 1.03125,1.3242187 z m 4.122071,0 c 0.832031,0 1.582031,-0.6445312 1.582031,-1.7695312 0,-1.1367188 -0.75,-1.78125 -1.582031,-1.78125 -0.832032,0 -1.570313,0.6445312 -1.570313,1.78125 0,1.125 0.738281,1.7695312 1.570313,1.7695312 z m 0,-0.4804687 c -0.574219,0 -0.960938,-0.515625 -0.960938,-1.2890625 0,-0.7851563 0.386719,-1.3007813 0.960938,-1.3007813 0.585937,0 0.984375,0.515625 0.984375,1.3007813 0,0.7734375 -0.398438,1.2890625 -0.984375,1.2890625 z m 3.451172,0.4804687 c 0.46875,0 0.808593,-0.2460937 1.113281,-0.609375 h 0.02344 l 0.04687,0.5273438 h 0.480469 V 3.7868281 h -0.574219 v 2.4023438 c -0.316406,0.3867187 -0.5625,0.5625 -0.902343,0.5625 -0.445313,0 -0.644532,-0.2695313 -0.644532,-0.890625 V 3.7868281 h -0.574218 v 2.1445313 c 0,0.8671875 0.316406,1.3242187 1.03125,1.3242187 z m 3.688476,0 c 0.808594,0 1.242188,-0.4570312 1.242188,-1.0078125 0,-0.609375 -0.503907,-0.84375 -1.03125,-1.03125 -0.433594,-0.1523437 -0.726563,-0.2695312 -0.726563,-0.5859375 0,-0.2460937 0.1875,-0.4804687 0.621094,-0.4804687 0.304687,0 0.550781,0.09375 0.785156,0.2695312 l 0.269531,-0.3398437 c -0.269531,-0.2226563 -0.632812,-0.375 -1.054687,-0.375 -0.738281,0 -1.171875,0.4101562 -1.171875,0.9609375 0,0.5507812 0.480469,0.796875 0.996094,0.984375 0.386718,0.140625 0.761718,0.28125 0.761718,0.6328125 0,0.2929687 -0.222656,0.515625 -0.667968,0.515625 -0.421875,0 -0.726563,-0.1171875 -1.019532,-0.3632813 l -0.257812,0.328125 c 0.304687,0.3164063 0.761719,0.4921875 1.253906,0.4921875 z m 0,0"
       style="fill:#c9d1d9;fill-opacity:1;fill-rule:nonzero;stroke:none"
       aria-label="smoothand&#10;continuous"
       transform="matrix(1.3333333,0,0,1.3333333,74.412,54.349333)" />
    <path
       id="path7"
       d="M -28.3468,0 H 84.79135"
       style="fill:none;stroke:#c9d1d9;stroke-width:0.24907;stroke-linecap:butt;stroke-linejoin:miter;stroke-miterlimit:10;stroke-dasharray:none;stroke-opacity:1"
       transform="matrix(1.3333333,0,0,-1.3333333,248.85733,132.27867)" />
    <path
       id="path8"
       d="M -1.89291,2.12108 C -1.54709,0.84842 -0.77643,0.24745 0,0 -0.77643,-0.24745 -1.54709,-0.84842 -1.89291,-2.12108"
       style="fill:none;stroke:#c9d1d9;stroke-width:0.24907;stroke-linecap:round;stroke-linejoin:round;stroke-miterlimit:10;stroke-dasharray:none;stroke-opacity:1"
       transform="matrix(1.3333333,0,0,-1.3333333,362.07853,132.27867)" />
    <path
       id="path9"
       d="M 0,-28.3468 V 84.79135"
       style="fill:none;stroke:#c9d1d9;stroke-width:0.24907;stroke-linecap:butt;stroke-linejoin:miter;stroke-miterlimit:10;stroke-dasharray:none;stroke-opacity:1"
       transform="matrix(1.3333333,0,0,-1.3333333,248.85733,132.27867)" />
    <path
       id="path10"
       d="M -1.89291,2.12108 C -1.54709,0.84842 -0.77643,0.24745 0,0 -0.77643,-0.24745 -1.54709,-0.84842 -1.89291,-2.12108"
       style="fill:none;stroke:#c9d1d9;stroke-width:0.24907;stroke-linecap:round;stroke-linejoin:round;stroke-miterlimit:10;stroke-dasharray:none;stroke-opacity:1"
       transform="matrix(0,-1.3333333,-1.3333333,0,248.85733,19.057467)" />
    <path
       id="path11"
       d="m -2.83484,-33.54634 0.08348,1.3054 0.08348,1.29461 0.08347,1.2751 0.08349,1.26214 0.08349,1.24442 0.08346,1.23144 0.0835,1.21327 0.08347,1.20157 0.08349,1.18215 0.08346,1.16742 0.08349,1.15617 0.08348,1.13845 0.08348,1.12675 0.0835,1.10945 0.08346,1.09737 0.08348,1.08134 0.08348,1.06577 0.08348,1.05582 0.08347,1.0381 0.08349,1.02726 0.08347,1.01085 0.08349,0.9996 0.08348,0.98359 0.08347,0.97322 0.0835,0.95719 0.08346,0.94381 0.08348,0.93255 0.08349,0.91785 0.08347,0.90746 0.08349,0.89189 0.08348,0.88191 0.08348,0.8668 0.08348,0.85428 0.08345,0.84388 0.08348,0.83004 0.08348,0.81966 0.08347,0.80539 0.08349,0.795 0.08347,0.78203 0.08348,0.77122 0.08349,0.75867 0.08347,0.74655 0.0835,0.73706 0.08346,0.72362 0.08348,0.71411 0.08348,0.70115 0.08348,0.69162 0.08347,0.67954 0.0835,0.66826 0.08348,0.65877 0.08347,0.64706 0.08349,0.63713 0.08346,0.62588 0.0835,0.61637 0.08347,0.60512 0.08348,0.59517 0.08348,0.5848 0.08348,0.57441 0.08349,0.56533 0.08347,0.55451 0.08348,0.54542 0.08348,0.53548 0.08348,0.52597 0.08348,0.51602 0.08348,0.5065 0.08347,0.49742 0.0835,0.48792 0.08348,0.47923 0.08346,0.4693 0.0835,0.46109 0.08347,0.45159 0.08349,0.4429 0.08347,0.43428 0.08348,0.42518 0.08348,0.41697 0.08348,0.40832 0.08348,0.39923 0.08348,0.39144 0.08348,0.38322 0.08348,0.37501 0.08348,0.36681 0.08347,0.35857 0.08349,0.35078 0.08347,0.343 0.08348,0.33522 0.08349,0.32744 0.08347,0.31964 0.0835,0.31231 0.08346,0.30448 0.08348,0.2976 0.08349,0.28979 0.08348,0.28288 0.08348,0.27511 0.08348,0.2686 0.08346,0.26126 0.0835,0.25433 0.08348,0.24783 0.08347,0.24007 0.08349,0.23444 0.08346,0.22664 0.0835,0.22103 0.08347,0.21411 0.08348,0.20762 0.08348,0.20114 0.08348,0.19507 0.08348,0.18901 0.08348,0.18209 0.08348,0.17692 0.08348,0.16998 0.08349,0.16481 0.08346,0.15829 0.0835,0.15313 0.08346,0.14749 0.08348,0.14058 0.0835,0.13624 0.08347,0.12933 0.08349,0.125 0.08347,0.11852 0.08348,0.11462 0.08348,0.10812 0.08348,0.1034 0.08348,0.09862 0.08348,0.09256 0.08348,0.08824 0.08348,0.08261 0.08349,0.07828 0.08346,0.0731 0.0835,0.06879 0.08346,0.06401 0.0835,0.05839 0.08346,0.05494 0.08348,0.04974 0.0835,0.04541 0.08347,0.04067 0.08347,0.03675 0.08349,0.03202 0.08348,0.0281 0.08348,0.02467 0.08348,0.01902 0.08347,0.01643 0.08349,0.0104 0.08348,0.0082 0.08347,0.0035 0.08349,4.4e-4 0.08347,-0.0035 0.0835,-0.0082 0.08346,-0.01082 0.08348,-0.01556 0.08348,-0.0186 0.08348,-0.02206 0.0835,-0.02509 0.08346,-0.0294 0.08349,-0.03202 0.08348,-0.03503 0.08347,-0.03979 0.08347,-0.04152 0.0835,-0.04586 0.08346,-0.048 0.0835,-0.05191 0.08348,-0.05364 0.08347,-0.0571 0.08349,-0.06097 0.08347,-0.06273 0.08348,-0.06662 0.08348,-0.0679 0.08348,-0.07223 0.08348,-0.07352 0.08348,-0.077 0.08348,-0.07916 0.08348,-0.08131 0.08349,-0.08478 0.08346,-0.08608 0.0835,-0.08997 0.08346,-0.0904 0.0835,-0.09429 0.08346,-0.09603 0.08349,-0.09732 0.08349,-0.10077 0.08347,-0.10209 0.08349,-0.10467 0.08347,-0.1064 0.08348,-0.10901 0.08348,-0.10986 0.08348,-0.11289 0.08347,-0.11375 0.08349,-0.11594 0.08348,-0.11807 0.08348,-0.11938 0.08349,-0.12111 0.08346,-0.12241 0.0835,-0.125 0.08346,-0.12588 0.08348,-0.12716 0.08348,-0.12933 0.08349,-0.13019 0.08349,-0.13235 0.08347,-0.13323 0.08348,-0.13496 0.08348,-0.13538 0.08348,-0.13711 0.08346,-0.13884 0.0835,-0.13928 0.08347,-0.14101 0.08349,-0.14188 0.08348,-0.14317 0.08347,-0.14403 0.0835,-0.14489 0.08346,-0.14577 0.0835,-0.14707 0.08346,-0.14793 0.08348,-0.14879 0.08348,-0.14966 0.08348,-0.15052 0.08349,-0.15138 0.08348,-0.1514 0.08348,-0.15311 0.08348,-0.15312 0.08348,-0.15398 0.08346,-0.15485 0.0835,-0.15486 0.08347,-0.15614 0.08348,-0.15614 0.08349,-0.15657 0.08347,-0.15746 0.08349,-0.157 0.08347,-0.15877 0.08348,-0.15786 0.08348,-0.15917 0.08348,-0.15875 0.08349,-0.15961 0.08347,-0.15961 0.08349,-0.16003 0.08348,-0.16003 0.08348,-0.16004 0.08346,-0.16047 0.0835,-0.16048 0.08346,-0.1609 0.0835,-0.16048 0.08346,-0.16047 0.08349,-0.1609 0.08348,-0.1609 0.08348,-0.1609 0.08348,-0.16048 0.08348,-0.16048 0.08348,-0.16089 0.08348,-0.16005 0.08348,-0.15916 0.08347,-0.16048 0.08349,-0.15918 0.08347,-0.1596 0.08348,-0.15918 0.0835,-0.15961 0.08346,-0.15829 0.0835,-0.15874 0.08346,-0.15831 0.08348,-0.15788 0.08349,-0.15702 0.08348,-0.15745 0.08347,-0.15656 0.08349,-0.15571 0.08348,-0.15572 0.08348,-0.15529 0.08348,-0.15484 0.08347,-0.15442 0.0835,-0.15355 0.08346,-0.15312 0.08349,-0.15226 0.08347,-0.15182 0.08348,-0.15138 0.0835,-0.15096 0.08346,-0.1501 0.08348,-0.14922 0.08348,-0.14878 0.08348,-0.14751 0.08349,-0.14793 0.08348,-0.1462 0.08346,-0.14619 0.0835,-0.14489 0.08348,-0.14404 0.08346,-0.14361 0.0835,-0.14273 0.08347,-0.14187 0.08349,-0.14102 0.08347,-0.14013 0.08348,-0.13885 0.08348,-0.13883 0.08348,-0.13669 0.0835,-0.13712 0.08346,-0.13539 0.08348,-0.13495 0.08348,-0.13408 0.08348,-0.13237 0.08347,-0.13192 0.08349,-0.12976 0.08347,-0.13062 0.0835,-0.12889 0.08348,-0.12761 0.08346,-0.12674 0.0835,-0.12543 0.08347,-0.12457 0.08348,-0.12285 0.08348,-0.12283 0.08348,-0.12111 0.08348,-0.12068 0.08348,-0.11894 0.08348,-0.11765 0.08348,-0.11766 0.08348,-0.11505 0.08347,-0.11506 0.08349,-0.11289 0.08347,-0.11203 0.0835,-0.11203 0.08346,-0.109 0.08348,-0.10899 0.0835,-0.1064 0.08346,-0.10684 0.0835,-0.10425 0.08347,-0.10423 0.08348,-0.10253 0.08348,-0.10121 0.08348,-0.10077 0.08346,-0.09819 0.0835,-0.09774 0.08348,-0.0956 0.08348,-0.0956 0.08348,-0.093 0.08347,-0.09256 0.08349,-0.0917 0.08347,-0.08953 0.08348,-0.08867 0.08348,-0.08651 0.08348,-0.08608 0.0835,-0.08346 0.08347,-0.08393 0.08347,-0.08176 0.08349,-0.08087 0.08348,-0.07959 0.08346,-0.07699 0.0835,-0.07742 0.08346,-0.07398 0.0835,-0.07481 0.08348,-0.07138 0.08346,-0.0718 0.0835,-0.06964 0.08347,-0.06747 0.08349,-0.06835 0.08347,-0.06488 0.08348,-0.06443 0.08348,-0.06186 0.08348,-0.06229 0.08348,-0.05925 0.08348,-0.05926 0.08348,-0.05797 0.08349,-0.05536 0.08348,-0.05493 0.08346,-0.05278 0.0835,-0.05233 0.08346,-0.04931 0.08348,-0.04975 0.0835,-0.048 0.08347,-0.04543 0.08349,-0.04626 0.08346,-0.04196 0.08349,-0.04283 0.08348,-0.0398 0.08348,-0.04109 0.08347,-0.03546 0.08349,-0.03807 0.08349,-0.03546 0.08347,-0.03244 0.08348,-0.03417 0.08347,-0.02942 0.0835,-0.0307 0.08346,-0.02725 0.0835,-0.02769 0.08346,-0.02637 0.08348,-0.02292 0.0835,-0.0238 0.08347,-0.02077 0.08348,-0.0199 0.08348,-0.01816 0.08348,-0.01817 0.08348,-0.01469 0.08348,-0.01514 0.08347,-0.01515 0.08349,-0.0108 0.08347,-0.01082 0.08348,-0.0087 0.0835,-0.0095 0.08346,-0.0043 0.0835,-0.0061 0.08346,-0.0056 0.08348,-8.7e-4 0.08348,-0.0022 0.08348,4.5e-4 h 0.08348 l 0.08349,0.003 0.08347,0.0043 0.08349,0.0069 0.08348,0.0048 0.08346,0.0069 0.0835,0.01039 0.08347,0.0099 0.08349,0.01167 0.08347,0.01212 0.08348,0.01515 0.08349,0.0147 0.08347,0.01558 0.08348,0.0186 0.08348,0.01815 0.08348,0.0212 0.08348,0.02034 0.08348,0.02334 0.08347,0.02338 0.0835,0.02594 0.08348,0.02551 0.08346,0.0264 0.0835,0.02896 0.08346,0.02942 0.0835,0.03159 0.08346,0.0307 0.08349,0.03503 0.08348,0.03374 0.08348,0.03462 0.08349,0.03633 0.08347,0.03763 0.08348,0.0398 0.08348,0.03977 0.08348,0.0398 0.08347,0.04196 0.08349,0.04541 0.08347,0.04368 0.08349,0.04412 0.08349,0.04672 0.08346,0.04586 0.0835,0.04931 0.08346,0.04888 0.08349,0.05189 0.08347,0.05062 0.08349,0.05104 0.08348,0.0545 0.08348,0.05319 0.08348,0.05623 0.08348,0.05493 0.08348,0.0584 0.08347,0.05752 0.08349,0.06142 0.08347,0.05884 0.08349,0.05925 0.08347,0.0636 0.08348,0.06097 0.0835,0.06488 0.08346,0.06401 0.0835,0.06662 0.08346,0.06531 0.08348,0.0666 0.08348,0.06792 0.08349,0.0679 0.08346,0.07096 0.0835,0.06877 0.08348,0.07222 0.08348,0.0718 0.08348,0.07224 0.08347,0.07266 0.08349,0.0744 0.08347,0.07613 0.08347,0.07396 0.08349,0.07829 0.08348,0.07527 0.0835,0.07915 0.08346,0.07828 0.08348,0.07786 0.08349,0.08089 0.08347,0.08002 0.08347,0.08175 0.0835,0.08089 0.08346,0.08304 0.0835,0.08089 0.08348,0.08607 0.08346,0.08217 0.0835,0.08479 0.08346,0.08651 0.0835,0.08522 0.08347,0.08735 0.08348,0.08608 0.08348,0.08738 0.08348,0.08736 0.08348,0.08739 0.08348,0.09039 0.08348,0.08954 0.08348,0.08954 0.08348,0.09083 0.08347,0.08997 0.08349,0.08997 0.08347,0.09342 0.08348,0.09169 0.0835,0.09171 0.08346,0.09169 0.0835,0.09343 0.08346,0.09428 0.08349,0.09343 0.08347,0.09517 0.08349,0.09343 0.08346,0.09386 0.0835,0.0956 0.08348,0.09515 0.08348,0.09689 0.08348,0.09386 0.08347,0.09862 0.08349,0.09515 0.08347,0.09734 0.08349,0.09513 0.08347,0.09733 0.08348,0.09819 0.0835,0.09646 0.08346,0.09905 0.08348,0.09646 0.08348,0.09905 0.08349,0.09602 0.08348,0.09775 0.08348,0.09948 0.08347,0.09777 0.08349,0.09817 0.08348,0.09864 0.08346,0.09947 0.0835,0.09732 0.08347,0.09904 0.0835,0.09819 0.08346,0.09775 0.08348,0.0995 0.08348,0.09862 0.08348,0.09819 0.08348,0.09861 0.08348,0.09861 0.08348,0.09862 0.08348,0.09732 0.08348,0.09949 0.08347,0.09732 0.0835,0.09993 0.08346,0.09732 0.0835,0.0973 0.08347,0.0969 0.08347,0.09991 0.0835,0.09517 0.08347,0.09688 0.08348,0.09776 0.08348,0.09775 0.08348,0.09602 0.08348,0.09516 0.08348,0.09689 0.08346,0.09602 0.0835,0.09386 0.08348,0.0969 0.08347,0.09385 0.08349,0.09645 0.08347,0.0943 0.08349,0.09386 0.08347,0.093 0.08348,0.09343 0.08348,0.09473 0.08348,0.09039 0.08349,0.09344 0.08348,0.09255 0.08348,0.09256 0.08348,0.09084 0.08348,0.08866 0.08346,0.09041 0.0835,0.09171 0.08347,0.08735 0.08349,0.09171 0.08348,0.08652 0.08347,0.08867 0.08349,0.08607 0.08347,0.0878 0.08348,0.08694 0.08348,0.08608 0.08349,0.0852 0.08347,0.08652 0.08348,0.08218 0.08349,0.08608 0.08348,0.08389 0.08348,0.08176 0.08346,0.08045 0.0835,0.08392 0.08346,0.08001 0.0835,0.07614 0.08347,0.08045 0.08348,0.07829 0.08349,0.07743 0.08347,0.07914 0.08349,0.07526 0.08347,0.07699 0.08348,0.07483 0.08348,0.07613 0.08348,0.07396 0.08347,0.07397 0.0835,0.0718 0.08347,0.07353 0.08349,0.07094 0.08348,0.07136 0.08346,0.06879 0.0835,0.0679 0.08346,0.07051 0.08348,0.06575 0.08349,0.06572 0.08347,0.06619 0.0835,0.06489 0.08347,0.06402 0.08348,0.06659 0.08348,0.05884 0.08348,0.06488 0.08347,0.06054 0.08349,0.05971 0.08347,0.05794 0.08349,0.05753 0.08348,0.06013 0.08347,0.05449 0.0835,0.05537 0.08346,0.05494 0.0835,0.05276 0.08346,0.05408 0.08348,0.05319 0.08349,0.05147 0.08348,0.04803 0.08348,0.0493 0.08348,0.04801 0.08348,0.0467 0.08348,0.04717 0.08348,0.04713 0.08347,0.04326 0.08349,0.04456 0.08347,0.04196 0.08348,0.04195 0.08349,0.03807 0.08347,0.03935 0.0835,0.03937 0.08346,0.03546 0.08348,0.0372 0.08348,0.03677 0.08348,0.0333 0.08347,0.03416 0.0835,0.03029 0.08348,0.03157 0.08348,0.03029 0.08348,0.032 0.08347,0.02336 0.08349,0.0294 0.08347,0.02466 0.08349,0.02509 0.08347,0.0251 0.08348,0.02032 0.0835,0.02248 0.08346,0.02208 0.08348,0.01815 0.08348,0.01774 0.08348,0.01947 0.08348,0.01513 0.08348,0.01384 0.08347,0.01471 0.0835,0.01253 0.08347,0.01039 0.08347,0.01254 0.0835,0.0078 0.08346,0.0078 0.0835,0.0078 0.08347,0.0078 0.08348,0.003 0.08348,0.0048 0.08348,0.0035 h 0.08348 l 0.08348,0.0035 0.08348,-0.0043 h 0.08348 l 0.08348,-0.0043 H 53.514 l 0.0835,-0.0091 0.08347,-0.0048 0.0835,-0.0043 0.08348,-0.01254 0.08346,-0.0091 0.0835,-0.0095 0.08346,-0.01211 0.08348,-0.01428 0.08349,-0.01427 0.08348,-0.01254 0.08348,-0.01903 0.08348,-0.01731 0.08346,-0.01428 0.0835,-0.01903 0.08348,-0.02249 0.08347,-0.02423 0.08349,-0.02379 0.08347,-0.02291 0.08349,-0.02422 0.08347,-0.02422 0.08348,-0.02942 0.08348,-0.02941 0.08348,-0.02466 0.08348,-0.03418 0.08348,-0.02983 0.08349,-0.03461 0.08347,-0.03459 0.08349,-0.03505 0.08346,-0.03504 0.0835,-0.03633 0.08346,-0.03547 0.0835,-0.04151 0.08348,-0.0372 0.08347,-0.04066 0.08349,-0.04196 0.08347,-0.04714 0.08348,-0.04283 0.08348,-0.04713 0.08348,-0.04458 0.08348,-0.048 0.08348,-0.04932 0.08348,-0.04843 0.08348,-0.04974 0.08348,-0.05017 0.08347,-0.05017 0.0835,-0.0558 0.08346,-0.05538 0.0835,-0.05234 0.08346,-0.05752 0.08348,-0.05319 0.0835,-0.061 0.08347,-0.05839 0.08348,-0.05839 0.08348,-0.06012 0.08348,-0.06359 0.08348,-0.06054 0.08348,-0.06575 0.08346,-0.06618 0.0835,-0.06099 0.08348,-0.06143 0.08349,-0.06833 0.08347,-0.06662 0.08347,-0.06877 0.0835,-0.0692 0.08346,-0.06922 0.08348,-0.07093 0.08348,-0.06965 0.08348,-0.07655 0.0835,-0.06662 0.08346,-0.07524 0.08349,-0.07397 0.08348,-0.07224 0.08348,-0.07959 0.08346,-0.07785 0.0835,-0.06964 0.08346,-0.08002 0.0835,-0.08218 0.08348,-0.07527 0.08347,-0.0826 0.08349,-0.07786 0.08347,-0.07051 0.0835,-0.07786 0.08346,-0.07829 0.08348,-0.08565 0.08348,-0.07872 0.08348,-0.08088 0.08348,-0.08608 0.08348,-0.08304 0.08349,-0.0865 0.08347,-0.07829 0.08349,-0.08739 0.08346,-0.08389 0.0835,-0.09128 0.08346,-0.08433 0.08349,-0.08478 0.08349,-0.08132 0.08347,-0.09214 0.08349,-0.08174 0.08347,-0.08738 0.08348,-0.08781 0.08348,-0.08952 0.08348,-0.08997 0.08347,-0.08305 0.08349,-0.09732 0.08348,-0.08565 0.08348,-0.09082 0.08349,-0.08046 0.08346,-0.09299 0.0835,-0.08824 0.08347,-0.08824 0.08349,-0.08824 0.08346,-0.0891 0.08349,-0.09084 0.08349,-0.08348 0.08347,-0.08607 0.08348,-0.0969 0.08348,-0.0865 0.08348,-0.0865 0.08348,-0.0865 0.08348,-0.08694 0.08347,-0.08912 0.08349,-0.08218 0.08348,-0.08952 0.08347,-0.08393 0.08349,-0.09039 0.08347,-0.08435 0.0835,-0.08521 0.08346,-0.08477 0.08348,-0.08565 0.08349,-0.08737 0.08347,-0.08002 0.08349,-0.08218 0.08348,-0.08089 0.08348,-0.08261 0.08348,-0.08823 0.08348,-0.07786 0.08346,-0.07743 0.0835,-0.07785 0.08346,-0.07829 0.0835,-0.07829 0.08348,-0.07267 0.08347,-0.08609 0.08349,-0.07353 0.08347,-0.07309 0.08348,-0.0757 0.08348,-0.0679 0.08348,-0.07397 0.08348,-0.07007 0.08348,-0.06877 0.08349,-0.06273 0.08348,-0.07092 0.08348,-0.06316 0.08346,-0.07092 0.0835,-0.0636 0.08346,-0.05797 0.0835,-0.05838 0.08347,-0.05795 0.08348,-0.0662 0.08348,-0.05276 0.08348,-0.0584 0.08348,-0.0532 0.08348,-0.05319 0.08348,-0.04715 0.08348,-0.04757 0.08349,-0.0532 0.08346,-0.04023 0.08349,-0.04759 0.08347,-0.04196 0.0835,-0.04022 0.08348,-0.03459 0.08346,-0.04802 0.0835,-0.02682 0.08346,-0.03417 0.08348,-0.03503 0.08349,-0.02856 0.08348,-0.0268 0.08348,-0.0212 0.08348,-0.02899 0.08348,-0.01297 0.08348,-0.02681 0.08348,-0.0212 0.08347,-0.0013 0.08349,-0.02723 0.08347,8.7e-4 0.0835,-0.01342 0.08346,8.6e-4 0.08348,8.5e-4 0.0835,8.7e-4 0.08346,8.7e-4 0.08348,8.7e-4 0.08348,0.0091 0.08348,0.01469 0.08349,0.01731 0.08347,0.01513 0.08347,0.0173 0.0835,0.03157 0.08348,0.0173 0.08348,0.02337 0.08348,0.03373 0.08347,0.03202 0.08349,0.04843 0.08347,0.04845 0.08348,0.03418 0.08348,0.04842 0.08348,0.0489 0.0835,0.05104 0.08346,0.06575 0.08348,0.05751 0.08348,0.08218 0.08348,0.05148 0.08347,0.08304 0.0835,0.0744 0.08346,0.06878 0.0835,0.0917 0.08348,0.08563 0.08346,0.0943 0.0835,0.09256 0.08347,0.10295 0.08348,0.11159 0.08348,0.09516 0.08348,0.1289 0.08348,0.09819 0.08348,0.12932 0.08348,0.12154 0.08348,0.14924 0.08348,0.11591 0.08348,0.15614 0.08348,0.14362 0.08347,0.1423 0.0835,0.15096 0.08346,0.15312 0.08348,0.17906 0.0835,0.16307 0.08347,0.17993 0.08349,0.17173 0.08347,0.17474 0.08348,0.20027 0.08348,0.1756 0.08348,0.2102 0.08346,0.20374 0.0835,0.21324 0.08348,0.21368 0.08348,0.22492 0.08348,0.22319 0.08347,0.22621 0.08349,0.24568 0.08347,0.22708 0.08348,0.27294 0.08348,0.25866 0.08348,0.27639 0.0835,0.21368 0.08346,0.25995 0.08348,0.28072 0.08349,0.28979 0.08348,0.2924 0.08348,0.28461 0.08348,0.33737 0.08346,0.29674 0.0835,0.32396 0.08348,0.3179 0.08347,0.32744 0.08349,0.35686 0.08347,0.33088 0.08349,0.37804 0.08347,0.34387 0.08348,0.37976 0.08348,0.36766 0.08348,0.37458 0.08349,0.39795 0.08347,0.39663 0.08348,0.40181 0.08349,0.41135 0.08348,0.42172 0.08346,0.41567 0.0835,0.46325 0.08346,0.42 0.0835,0.4494 0.08348,0.47104 0.08347,0.46543 0.08349,0.50174 0.08347,0.45848 0.08348,0.51776 0.08348,0.49177 0.08348,0.48403 0.08348,0.5437 0.08348,0.50865 0.08348,0.55971 0.08348,0.52208 0.08349,0.59387 0.08346,0.54716 0.0835,0.57787 0.08346,0.561 0.0835,0.58522 0.08346,0.61593 0.08348,0.59864 0.0835,0.63237 0.08347,0.61507 0.08347,0.65788 0.08349,0.64102 0.08348,0.65099 0.08348,0.68729 0.08348,0.65877 0.08347,0.71324 0.08349,0.6752 0.08347,0.72752 0.08349,0.70375 0.08348,0.76515 0.08347,0.71845 0.0835,0.73143 0.08346,0.78635 0.08348,0.75781 0.08348,0.80322 0.08348,0.79587 0.08348,0.81145 0.08349,0.81315 0.08348,0.80799 0.08348,0.87243 0.08348,0.84606 0.08346,0.85987 0.0835,0.88282 0.08347,0.91004 0.08349,0.86033 0.08347,0.94682 0.08348,0.91136 0.08349,0.91525 0.08347,0.97149"
       style="fill:none;stroke:#b39af0;stroke-width:0.99628;stroke-linecap:butt;stroke-linejoin:miter;stroke-miterlimit:10;stroke-dasharray:none;stroke-opacity:1"
       transform="matrix(1.3333333,0,0,-1.3333333,248.85733,132.27867)" />
    <path
       id="path12"
       d="m 1.4521641,0.08077344 c 0.8085937,0 1.2421875,-0.45703125 1.2421875,-1.0078125 0,-0.60937504 -0.5039063,-0.84375004 -1.03125,-1.03125004 -0.4335938,-0.1523437 -0.72656254,-0.2695312 -0.72656254,-0.5859375 0,-0.2460937 0.18750004,-0.4804687 0.62109374,-0.4804687 0.3046875,0 0.5507813,0.09375 0.7851563,0.2695312 l 0.2695312,-0.3398437 c -0.2695312,-0.2226563 -0.6328125,-0.375 -1.0546875,-0.375 -0.73828124,0 -1.17187499,0.4101562 -1.17187499,0.9609375 0,0.5507812 0.48046875,0.796875 0.99609379,0.984375 0.3867187,0.140625 0.7617187,0.28125 0.7617187,0.63281249 0,0.29296875 -0.2226562,0.515625 -0.6679687,0.515625 -0.421875,0 -0.72656254,-0.1171875 -1.01953129,-0.36328125 l -0.2578125,0.328125 c 0.3046875,0.31640625 0.76171875,0.4921875 1.25390629,0.4921875 z M 3.4970859,-0.00125781 H 4.0713047 V -2.4504766 c 0.3164062,-0.3515625 0.5976562,-0.515625 0.84375,-0.515625 0.4335937,0 0.6328125,0.2578125 0.6328125,0.890625 v 2.07421879 H 6.1220859 V -2.4504766 c 0.3164063,-0.3515625 0.5859375,-0.515625 0.8554688,-0.515625 0.421875,0 0.6210937,0.2578125 0.6210937,0.890625 v 2.07421879 H 8.1845859 V -2.1457891 c 0,-0.8671875 -0.3398437,-1.3242187 -1.03125,-1.3242187 -0.421875,0 -0.7734375,0.2578125 -1.125,0.6328125 -0.140625,-0.3867188 -0.4101562,-0.6328125 -0.9375,-0.6328125 -0.3984375,0 -0.75,0.2460937 -1.0546875,0.5625 h -0.023437 l -0.046875,-0.4804688 h -0.46875 z m 7.0927731,0.08203125 c 0.832032,0 1.582032,-0.64453125 1.582032,-1.76953124 0,-1.1367188 -0.75,-1.78125 -1.582032,-1.78125 -0.8320309,0 -1.5703121,0.6445312 -1.5703121,1.78125 0,1.12499999 0.7382812,1.76953124 1.5703121,1.76953124 z m 0,-0.48046875 c -0.574218,0 -0.9609371,-0.515625 -0.9609371,-1.28906249 0,-0.7851563 0.3867191,-1.3007813 0.9609371,-1.3007813 0.585938,0 0.984375,0.515625 0.984375,1.3007813 0,0.77343749 -0.398437,1.28906249 -0.984375,1.28906249 z m 3.779297,0.48046875 c 0.832032,0 1.582032,-0.64453125 1.582032,-1.76953124 0,-1.1367188 -0.75,-1.78125 -1.582032,-1.78125 -0.832031,0 -1.570312,0.6445312 -1.570312,1.78125 0,1.12499999 0.738281,1.76953124 1.570312,1.76953124 z m 0,-0.48046875 c -0.574218,0 -0.960937,-0.515625 -0.960937,-1.28906249 0,-0.7851563 0.386719,-1.3007813 0.960937,-1.3007813 0.585938,0 0.984375,0.515625 0.984375,1.3007813 0,0.77343749 -0.398437,1.28906249 -0.984375,1.28906249 z m 3.416016,0.48046875 c 0.222656,0 0.457031,-0.05859375 0.644531,-0.140625 l -0.128906,-0.41015625 c -0.128906,0.0585938 -0.257813,0.0820313 -0.386719,0.0820313 -0.386719,0 -0.515625,-0.24609375 -0.515625,-0.65624999 v -1.8750001 h 0.914063 v -0.46875 h -0.914063 v -1.0898436 h -0.492187 l -0.05859,1.0898437 -0.539063,0.035156 v 0.4335937 h 0.503907 v 1.8632813 c 0,0.67968744 0.246093,1.13671869 0.972656,1.13671869 z m 1.297851,-0.08203125 h 0.574219 V -2.4504766 c 0.339844,-0.3515625 0.585938,-0.515625 0.925781,-0.515625 0.445313,0 0.632813,0.2578125 0.632813,0.890625 v 2.07421879 h 0.585937 V -2.1457891 c 0,-0.8671875 -0.328125,-1.3242187 -1.042968,-1.3242187 -0.46875,0 -0.808594,0.2460937 -1.125,0.5507812 l 0.02344,-0.6914062 v -1.359375 h -0.574219 z m 5.956055,0.08203125 c 0.433594,0 0.796875,-0.2109375 1.125,-0.4921875 h 0.01172 l 0.05859,0.41015625 h 0.480468 V -2.0871953 c 0,-0.8320313 -0.363281,-1.3828125 -1.183593,-1.3828125 -0.539063,0 -1.019532,0.2226562 -1.335938,0.4335937 l 0.222656,0.3867188 c 0.269532,-0.1640625 0.621094,-0.3398438 1.019532,-0.3398438 0.550781,0 0.691406,0.4101563 0.691406,0.8320313 -1.453125,0.1640625 -2.074219,0.5273437 -2.074219,1.27734374 0,0.609375 0.421875,0.9609375 0.984375,0.9609375 z m 0.164063,-0.46875 c -0.328125,0 -0.585938,-0.15234375 -0.585938,-0.52734375 0,-0.43359379 0.375,-0.69140629 1.511719,-0.83203129 v 0.92578129 c -0.328125,0.28125 -0.597656,0.43359375 -0.925781,0.43359375 z m 2.575195,0.38671875 h 0.574219 V -2.4504766 c 0.339843,-0.3515625 0.585937,-0.515625 0.925781,-0.515625 0.445312,0 0.632812,0.2578125 0.632812,0.890625 v 2.07421879 h 0.585938 V -2.1457891 c 0,-0.8671875 -0.328125,-1.3242187 -1.042969,-1.3242187 -0.46875,0 -0.808594,0.2460937 -1.136719,0.5625 h -0.02344 l -0.04687,-0.4804688 h -0.46875 z m 4.974609,0.08203125 c 0.386719,0 0.75,-0.22265625 1.019532,-0.48046875 h 0.02344 l 0.04687,0.3984375 h 0.46875 V -4.9700078 H 33.73732 v 1.3125 l 0.02344,0.5742187 c -0.292969,-0.2460937 -0.550781,-0.3867187 -0.9375,-0.3867187 -0.785156,0 -1.476563,0.6796875 -1.476563,1.78125 0,1.12499999 0.550782,1.76953124 1.40625,1.76953124 z m 0.117188,-0.4921875 c -0.585938,0 -0.925781,-0.48046875 -0.925781,-1.28906254 0,-0.7734375 0.433593,-1.2890625 0.972656,-1.2890625 0.28125,0 0.539062,0.09375 0.820312,0.3515625 v 1.76953129 c -0.28125,0.3046875 -0.550781,0.45703125 -0.867187,0.45703125 z M 2.9492344,7.2555781 c 0.4101562,0 0.7851562,-0.1523437 1.0898437,-0.4335937 L 3.7929844,6.4587031 c -0.1992188,0.1757813 -0.4804688,0.3164063 -0.796875,0.3164063 -0.6210938,0 -1.03125,-0.515625 -1.03125,-1.2890625 0,-0.7851563 0.4453125,-1.3007813 1.0546875,-1.3007813 0.2695312,0 0.4921875,0.1054688 0.6796875,0.28125 l 0.28125,-0.3632812 C 3.7461094,3.8805781 3.4414219,3.7047969 2.9961094,3.7047969 c -0.8789063,0 -1.640625,0.6445312 -1.640625,1.78125 0,1.125 0.6914062,1.7695312 1.59375,1.7695312 z m 3.0175781,0 c 0.8320313,0 1.5820313,-0.6445312 1.5820313,-1.7695312 0,-1.1367188 -0.75,-1.78125 -1.5820313,-1.78125 -0.8320312,0 -1.5703125,0.6445312 -1.5703125,1.78125 0,1.125 0.7382813,1.7695312 1.5703125,1.7695312 z m 0,-0.4804687 c -0.5742187,0 -0.9609375,-0.515625 -0.9609375,-1.2890625 0,-0.7851563 0.3867188,-1.3007813 0.9609375,-1.3007813 0.5859375,0 0.984375,0.515625 0.984375,1.3007813 0,0.7734375 -0.3984375,1.2890625 -0.984375,1.2890625 z M 8.4336094,7.1735469 H 9.0078281 V 4.7243281 c 0.3398438,-0.3515625 0.5859375,-0.515625 0.9257813,-0.515625 0.4453126,0 0.6328126,0.2578125 0.6328126,0.890625 v 2.0742188 h 0.585937 V 5.0290156 c 0,-0.8671875 -0.328125,-1.3242187 -1.042968,-1.3242187 -0.4687504,0 -0.8085941,0.2460937 -1.1367191,0.5625 H 8.9492344 L 8.9023594,3.7868281 h -0.46875 z m 4.8808596,0.082031 c 0.222656,0 0.457031,-0.058594 0.644531,-0.140625 l -0.128906,-0.410156 c -0.128906,0.058594 -0.257813,0.082031 -0.386719,0.082031 -0.386719,0 -0.515625,-0.2460937 -0.515625,-0.65625 v -1.875 h 0.914063 v -0.46875 H 12.92775 V 2.6969844 h -0.492187 l -0.05859,1.0898437 -0.539063,0.035156 v 0.4335937 h 0.503907 v 1.8632813 c 0,0.6796875 0.246093,1.1367187 0.972656,1.1367187 z m 1.297851,-0.082031 h 0.574219 V 3.7868281 H 14.61232 Z m 0.292969,-4.0898438 c 0.222656,0 0.386719,-0.140625 0.386719,-0.375 0,-0.2226562 -0.164063,-0.375 -0.386719,-0.375 -0.222656,0 -0.386719,0.1523438 -0.386719,0.375 0,0.234375 0.164063,0.375 0.386719,0.375 z m 1.429688,4.0898438 h 0.574218 V 4.7243281 c 0.339844,-0.3515625 0.585938,-0.515625 0.925782,-0.515625 0.445312,0 0.632812,0.2578125 0.632812,0.890625 v 2.0742188 h 0.585938 V 5.0290156 c 0,-0.8671875 -0.328125,-1.3242187 -1.042969,-1.3242187 -0.46875,0 -0.808594,0.2460937 -1.136719,0.5625 h -0.02344 l -0.04687,-0.4804688 h -0.46875 z m 4.798828,0.082031 c 0.46875,0 0.808593,-0.2460937 1.113281,-0.609375 h 0.02344 l 0.04687,0.5273438 h 0.480469 V 3.7868281 h -0.574219 v 2.4023438 c -0.316406,0.3867187 -0.5625,0.5625 -0.902343,0.5625 -0.445313,0 -0.644532,-0.2695313 -0.644532,-0.890625 V 3.7868281 h -0.574218 v 2.1445313 c 0,0.8671875 0.316406,1.3242187 1.03125,1.3242187 z m 4.12207,0 c 0.832031,0 1.582031,-0.6445312 1.582031,-1.7695312 0,-1.1367188 -0.75,-1.78125 -1.582031,-1.78125 -0.832031,0 -1.570312,0.6445312 -1.570312,1.78125 0,1.125 0.738281,1.7695312 1.570312,1.7695312 z m 0,-0.4804687 c -0.574219,0 -0.960937,-0.515625 -0.960937,-1.2890625 0,-0.7851563 0.386718,-1.3007813 0.960937,-1.3007813 0.585938,0 0.984375,0.515625 0.984375,1.3007813 0,0.7734375 -0.398437,1.2890625 -0.984375,1.2890625 z m 3.451172,0.4804687 c 0.46875,0 0.808594,-0.2460937 1.113281,-0.609375 h 0.02344 l 0.04687,0.5273438 h 0.480468 V 3.7868281 h -0.574218 v 2.4023438 c -0.316407,0.3867187 -0.5625,0.5625 -0.902344,0.5625 -0.445313,0 -0.644531,-0.2695313 -0.644531,-0.890625 V 3.7868281 h -0.574219 v 2.1445313 c 0,0.8671875 0.316406,1.3242187 1.03125,1.3242187 z m 3.688476,0 c 0.808594,0 1.242188,-0.4570312 1.242188,-1.0078125 0,-0.609375 -0.503906,-0.84375 -1.03125,-1.03125 -0.433594,-0.1523437 -0.726563,-0.2695312 -0.726563,-0.5859375 0,-0.2460937 0.1875,-0.4804687 0.621094,-0.4804687 0.304688,0 0.550781,0.09375 0.785156,0.2695312 L 33.55568,4.0797969 c -0.269532,-0.2226563 -0.632813,-0.375 -1.054688,-0.375 -0.738281,0 -1.171875,0.4101562 -1.171875,0.9609375 0,0.5507812 0.480469,0.796875 0.996094,0.984375 0.386719,0.140625 0.761719,0.28125 0.761719,0.6328125 0,0.2929687 -0.222657,0.515625 -0.667969,0.515625 -0.421875,0 -0.726563,-0.1171875 -1.019531,-0.3632813 l -0.257813,0.328125 c 0.304688,0.3164063 0.761719,0.4921875 1.253906,0.4921873 z m 0,0"
       style="fill:#c9d1d9;fill-opacity:1;fill-rule:nonzero;stroke:none"
       aria-label="smoothand&#10;continuous"
       transform="matrix(1.3333333,0,0,1.3333333,263.388,54.349333)" />
  </g>
</svg>
