<?xml version="1.0" encoding="UTF-8" standalone="no"?>
<!-- Created with Inkscape (http://www.inkscape.org/) -->

<svg
   version="1.1"
   id="svg1"
   width="188.97333"
   height="188.97333"
   viewBox="0 0 188.97333 188.97333"
   sodipodi:docname="MATH_118-98.pdf"
   xmlns:inkscape="http://www.inkscape.org/namespaces/inkscape"
   xmlns:sodipodi="http://sodipodi.sourceforge.net/DTD/sodipodi-0.dtd"
   xmlns="http://www.w3.org/2000/svg"
   xmlns:svg="http://www.w3.org/2000/svg">
  <defs
     id="defs1" />
  <sodipodi:namedview
     id="namedview1"
     pagecolor="#ffffff"
     bordercolor="#000000"
     borderopacity="0.25"
     inkscape:showpageshadow="2"
     inkscape:pageopacity="0.0"
     inkscape:pagecheckerboard="0"
     inkscape:deskcolor="#d1d1d1">
    <inkscape:page
       x="0"
       y="0"
       inkscape:label="1"
       id="page1"
       width="188.97333"
       height="188.97333"
       margin="0"
       bleed="0" />
  </sodipodi:namedview>
  <g
     id="g1"
     inkscape:groupmode="layer"
     inkscape:label="1">
    <path
       id="path1"
       d="M -28.3468,0 H 84.79135"
       style="fill:none;stroke:#c9d1d9;stroke-width:0.24907;stroke-linecap:butt;stroke-linejoin:miter;stroke-miterlimit:10;stroke-dasharray:none;stroke-opacity:1"
       transform="matrix(1.3333333,0,0,-1.3333333,56.693333,94.485333)" />
    <path
       id="path2"
       d="M -1.89291,2.12108 C -1.54709,0.84842 -0.77643,0.24745 0,0 -0.77643,-0.24745 -1.54709,-0.84842 -1.89291,-2.12108"
       style="fill:none;stroke:#c9d1d9;stroke-width:0.24907;stroke-linecap:round;stroke-linejoin:round;stroke-miterlimit:10;stroke-dasharray:none;stroke-opacity:1"
       transform="matrix(1.3333333,0,0,-1.3333333,169.91453,94.485333)" />
    <path
       id="path3"
       d="M 0,-56.69362 V 56.44455"
       style="fill:none;stroke:#c9d1d9;stroke-width:0.24907;stroke-linecap:butt;stroke-linejoin:miter;stroke-miterlimit:10;stroke-dasharray:none;stroke-opacity:1"
       transform="matrix(1.3333333,0,0,-1.3333333,56.693333,94.485333)" />
    <path
       id="path4"
       d="M -1.89291,2.12108 C -1.54709,0.84842 -0.77643,0.24745 0,0 -0.77643,-0.24745 -1.54709,-0.84842 -1.89291,-2.12108"
       style="fill:none;stroke:#c9d1d9;stroke-width:0.24907;stroke-linecap:round;stroke-linejoin:round;stroke-miterlimit:10;stroke-dasharray:none;stroke-opacity:1"
       transform="matrix(0,-1.3333333,-1.3333333,0,56.693333,19.059893)" />
    <path
       id="path5"
       d="m 14.17339,28.3468 0.11334,-0.45071 0.11331,-0.44551 0.11333,-0.4399 0.11331,-0.43469 0.11332,-0.42908 0.11335,-0.42431 0.11331,-0.41872 0.11333,-0.41348 0.11332,-0.4092 0.11333,-0.40355 0.11333,-0.39837 0.11331,-0.39405 0.11332,-0.38798 0.11335,-0.3841 0.11331,-0.37889 0.11333,-0.37372 0.11332,-0.36982 0.11333,-0.36462 0.11333,-0.35989 0.11331,-0.35597 0.11332,-0.35036 0.11335,-0.34646 0.11331,-0.34085 0.11333,-0.33737 0.11331,-0.33304 0.11334,-0.32788 0.11333,-0.32441 0.11331,-0.31919 0.11333,-0.31577 0.11334,-0.31099 0.11331,-0.30667 0.11333,-0.30278 0.11331,-0.29889 0.11334,-0.29454 0.11333,-0.28981 0.11331,-0.28677 0.11333,-0.28244 0.11334,-0.27814 0.11331,-0.27466 0.11333,-0.27119 0.11331,-0.26645 0.11334,-0.26298 0.11333,-0.25953 0.11331,-0.25561 0.11333,-0.25132 0.11333,-0.24827 0.11332,-0.24481 0.11333,-0.24094 0.11331,-0.23746 0.11335,-0.23401 0.11332,-0.2301 0.11331,-0.2271 0.11333,-0.22361 0.11333,-0.22016 0.11333,-0.21714 0.11332,-0.21366 0.11331,-0.20979 0.11333,-0.20761 0.11334,-0.2033 L 20.97289,9.46306 21.08621,9.26581 21.19952,9.07117 21.31287,8.87999 21.4262,8.69183 21.5395,8.50627 21.65283,8.32419 21.76616,8.14468 21.87949,7.9682 21.99281,7.79433 22.10612,7.6239 22.21947,7.45607 22.3328,7.29085 22.4461,7.12865 22.55943,6.96904 22.67276,6.81203 22.78609,6.65761 22.89941,6.50623 23.01273,6.357 23.12607,6.21037 23.2394,6.06677 23.3527,5.92532 23.46603,5.78647 23.57936,5.6498 23.69269,5.51614 23.80602,5.38422 23.91933,5.2549 24.03267,5.12816 24.14598,5.00359 24.25931,4.88118 24.37263,4.76135 24.48596,4.64328 24.59929,4.5278 24.71262,4.41446 24.82593,4.30331 24.93927,4.19386 25.05258,4.08704 25.16591,3.98192 25.27924,3.87856 25.39256,3.77777 25.50589,3.67873 25.6192,3.58183 25.73253,3.48668 25.84587,3.39368 25.95918,3.30199 26.07251,3.21245 26.18584,3.12508 26.29916,3.03899 26.41249,2.9551 26.5258,2.87291 26.63913,2.79202 26.75247,2.7133 26.86578,2.63588 26.97911,2.56061 27.09244,2.48663 27.20575,2.41441 27.31909,2.3439 27.4324,2.27469 27.54573,2.20723 27.65906,2.14105 27.77238,2.07617 27.88571,2.01344 27.99902,1.9516 28.11235,1.89146 28.2257,1.83266 28.339,1.77556 28.45233,1.7189 28.56566,1.6644 28.67899,1.61119 28.79231,1.55885 28.90562,1.50781 29.01895,1.4585 29.1323,1.41005 29.2456,1.36292 29.35893,1.31706 29.47226,1.27208 29.58559,1.2284 29.69891,1.186 29.81223,1.14491 29.92555,1.10425 30.0389,1.06534 30.1522,1.02682 30.26553,0.99007 30.37885,0.95374 30.49219,0.91869 30.60551,0.88452 30.71883,0.85121 30.83215,0.81879 30.9455,0.78764 31.0588,0.75735 31.17213,0.72794 31.28545,0.69896 31.39879,0.67128 31.51212,0.64447 31.62543,0.61807 31.73875,0.59299 31.8521,0.56833 31.96541,0.54456 32.07874,0.52164 32.19205,0.49913 32.30539,0.47794 32.41872,0.45676 32.53203,0.43686 32.64536,0.41737 32.75868,0.39835 32.87201,0.38017 32.98534,0.36246 33.09865,0.34558 33.21198,0.32915 33.32532,0.31358 33.43863,0.29843 33.55196,0.28372 33.66527,0.26988 33.77861,0.25606 33.89194,0.24307 34.00525,0.23053 34.11858,0.21841 34.23192,0.20674 34.34523,0.19594 34.45856,0.1851 34.57187,0.17517 34.68521,0.1652 34.79854,0.15569 34.91185,0.14703 35.02518,0.1384 35.1385,0.13019 35.25183,0.1224 35.36516,0.1146 35.47847,0.10768 35.59181,0.10077 35.70514,0.09427 35.81845,0.08823 35.93178,0.0826 36.0451,0.07698 36.15843,0.0718 36.27176,0.06659 36.38507,0.06183 36.49841,0.05751 36.61174,0.05318 36.72505,0.04929 36.83838,0.0454 36.9517,0.04193 37.06503,0.03848 37.17836,0.03546 37.29167,0.03242 37.40501,0.02983 37.51833,0.02724 37.63165,0.02463 37.74498,0.02248 37.8583,0.02032 37.97163,0.01859 38.08496,0.01685 38.19827,0.01512 38.31161,0.0134 l 0.11332,-0.0013 0.11332,-0.0013 0.11333,-0.00131 0.11333,-8.5e-4 0.11332,-0.0013 0.11333,-8.7e-4 0.11331,-8.7e-4 0.11333,-4.3e-4 0.11333,-8.7e-4 0.11332,-4.1e-4 0.11333,-8.7e-4 0.11332,-4.4e-4 0.11334,-4.3e-4 0.11331,-4.4e-4 h 0.11332 l 0.11333,-4.3e-4 0.11333,-4.4e-4 h 0.11333 l 0.11332,-4.3e-4 h 0.11332 0.11334 L 40.80475,0 h 0.11333 0.11332 0.11333 0.11333 0.11332 0.11332 0.11334 0.11331 0.11333 0.11332 0.11333 0.11333 0.11331 0.11333 0.11334 0.11331 0.11333 0.11332 0.11333 0.11333 0.11331 0.11333 0.11334 0.11331 0.11333 0.11332 0.11333 0.11333 0.11331 0.11333 l 0.11334,4.1e-4 h 0.11331 0.11333 l 0.11331,4.3e-4 h 0.11334 l 0.11333,4.4e-4 h 0.11331 l 0.11333,4.3e-4 0.11333,4.4e-4 0.11332,4.3e-4 0.11333,4.4e-4 0.11331,4.3e-4 0.11333,8.5e-4 0.11334,4.3e-4 0.11331,8.7e-4 0.11333,8.7e-4 0.11333,8.7e-4 0.11332,8.6e-4 0.11333,0.00129 0.11332,8.7e-4 0.11332,0.00131 0.11334,0.00128 0.11331,0.00175 0.11333,0.00172 0.11331,0.00174 0.11335,0.00172 0.11332,0.00217 0.11332,0.00217 0.11332,0.00215 0.11334,0.00259 0.11332,0.00304 0.11332,0.00259 0.11331,0.00302 0.11335,0.00347 0.11332,0.00346 0.11332,0.00346 0.11332,0.00432 0.11333,0.00389 0.11333,0.00434 0.11332,0.00475 0.11331,0.00475 0.11335,0.00519 0.11332,0.00563 0.11332,0.00562 0.11332,0.00605 0.11333,0.00649 0.11333,0.00693 0.11332,0.00692 0.11332,0.00734 0.11334,0.0078 0.11333,0.00778 0.11331,0.00865 0.11332,0.00865 0.11333,0.00953 0.11333,0.0095 0.11332,0.0104 0.11332,0.01036 0.11334,0.01083 0.11331,0.01168 0.11333,0.01167 0.11332,0.01254 0.11333,0.01299 0.11333,0.01339 0.11332,0.01384 0.11332,0.01427 0.11332,0.01515 0.11333,0.01558 0.11333,0.01643 0.11333,0.01644 0.11331,0.01773 0.11334,0.01773 0.11332,0.01861 0.11332,0.01946 0.11333,0.0199 0.11332,0.02075 0.11333,0.02121 0.11333,0.02205 0.11331,0.02293 0.11334,0.02379 0.11332,0.02421 0.11332,0.02509 0.11333,0.02594 0.11332,0.02683 0.11333,0.02767 0.11333,0.02813 0.11331,0.02942 0.11334,0.03027 0.11332,0.0307 0.11332,0.03244 0.11333,0.03244 0.11332,0.03418 0.11333,0.03503 0.11333,0.03548 0.11331,0.03719 0.11334,0.03762 0.11332,0.03894 0.11332,0.0398 0.11333,0.04152 0.11333,0.04196 0.11332,0.04324 0.11331,0.04456 0.11333,0.04585 0.11334,0.04671 0.11332,0.04802 0.11332,0.04932 0.11333,0.05015 0.11333,0.05191 0.11332,0.05319 0.11332,0.05451 0.11332,0.0558 0.11334,0.05667 0.11332,0.05838 0.11332,0.06014 0.11333,0.06141 0.11333,0.06272 0.11332,0.064 0.11332,0.06531 0.11332,0.06749 0.11333,0.06877 0.11333,0.07007 0.11332,0.0718 0.11332,0.07353 0.11332,0.07484 0.11334,0.07699 0.11332,0.07829 0.11332,0.08001 0.11333,0.08176 0.11333,0.08348 0.11333,0.08521 0.11331,0.08738 0.11332,0.0891 0.11334,0.09083 0.11332,0.09256 0.11333,0.0943 0.11332,0.09688 0.11333,0.09819 0.11333,0.10034 0.11331,0.10295 0.11333,0.10425 0.11333,0.1064 0.11332,0.109 0.11333,0.1103 0.11331,0.11331 0.11334,0.11507 0.11333,0.1172 0.11331,0.11896 0.11333,0.12153 0.11334,0.12458 0.11331,0.12631 0.11333,0.12846 0.11331,0.13105 0.11334,0.13324 0.11333,0.13582 0.11331,0.13797 0.11333,0.14056 0.11334,0.14361 0.11331,0.14576 0.11333,0.14793 0.11331,0.15096 0.11334,0.15399 0.11333,0.15614 0.11331,0.15874 0.11333,0.16177 0.11333,0.16437 0.11332,0.16696 0.11333,0.16998 0.11331,0.1726 0.11334,0.17561 0.11333,0.17862 0.11331,0.18124 0.11333,0.1847 0.11331,0.18728 0.11334,0.19075 0.11333,0.19335 0.11331,0.1968 0.11333,0.19983 0.11334,0.20331 0.11331,0.20545 0.11333,0.21022 0.11331,0.21237 0.11334,0.21583 0.11333,0.21929 0.11331,0.22278 0.11333,0.22577 0.11333,0.22967 0.11332,0.23314 0.11333,0.23617 0.11331,0.24006 0.11334,0.24353 0.11333,0.2474 0.11331,0.25087 0.11333,0.25432 0.11333,0.25824 0.11332,0.26212 0.11333,0.26558 0.11331,0.2699 0.11335,0.27337 0.11332,0.27768 0.11331,0.28115 0.11333,0.28547 0.11333,0.28894 0.11333,0.29326 0.11332,0.29802 0.11331,0.30105 0.11335,0.30623 0.11331,0.30927 0.11333,0.31445 0.11333,0.31879 0.11332,0.32267 0.11333,0.327 0.11332,0.33175 0.11332,0.33565 0.11334,0.34041 0.11331,0.34516 0.11333,0.34907 0.11333,0.35423 0.11332,0.35858 0.11333,0.36333 0.11332,0.36809 0.11332,0.37286 0.11334,0.3776 0.11331,0.38237 0.11333,0.38711 0.11333,0.39275 0.11332,0.39708 0.11333,0.40268 0.11331,0.40658 0.11333,0.41265 0.11332,0.4174 0.11333,0.42302 0.11333,0.42778 0.11333,0.43298 0.1133,0.43815 0.11335,0.44335 0.11331,0.44985"
       style="fill:none;stroke:#b39af0;stroke-width:0.99628;stroke-linecap:butt;stroke-linejoin:miter;stroke-miterlimit:10;stroke-dasharray:none;stroke-opacity:1"
       transform="matrix(1.3333333,0,0,-1.3333333,56.693333,94.485333)" />
    <path
       id="path6"
       d="m 42.52022,1.99255 v 0"
       style="fill:none;stroke:#c9d1d9;stroke-width:0.3985;stroke-linecap:butt;stroke-linejoin:miter;stroke-miterlimit:10;stroke-dasharray:none;stroke-opacity:1"
       transform="matrix(1.3333333,0,0,-1.3333333,56.693333,94.485333)" />
    <path
       id="path7"
       d="m 2.5795313,0.1394375 c 0.8320312,0 1.4648437,-0.3515625 1.8632812,-0.69140625 L 4.0560938,-1.1261875 c -0.328125,0.26953125 -0.8203125,0.50390625 -1.2890625,0.50390625 -0.9257813,0 -1.3828125,-0.57421875 -1.3828125,-1.62890625 0,-1.5820312 1.078125,-2.9414062 2.2382812,-2.9414062 0.4804688,0 0.7617188,0.1523437 1.0429688,0.46875 l 0.5273437,-0.5273438 c -0.3046875,-0.3867187 -0.8085937,-0.703125 -1.5117187,-0.703125 -1.6875,0 -3.23437505,1.6054688 -3.23437505,3.7617188 0,1.4882812 0.86718755,2.3320312 2.13281255,2.3320312 z m 0,0"
       style="fill:#c9d1d9;fill-opacity:1;fill-rule:nonzero;stroke:none"
       aria-label="c"
       transform="matrix(1.3333333,0,0,1.3333333,109.92,105.34533)" />
  </g>
</svg>
