<?xml version="1.0" encoding="UTF-8" standalone="no"?>
<!-- Created with Inkscape (http://www.inkscape.org/) -->

<svg
   version="1.1"
   id="svg1"
   width="381.14667"
   height="195.38667"
   viewBox="0 0 381.14667 195.38667"
   sodipodi:docname="MATH_118-87.pdf"
   xmlns:inkscape="http://www.inkscape.org/namespaces/inkscape"
   xmlns:sodipodi="http://sodipodi.sourceforge.net/DTD/sodipodi-0.dtd"
   xmlns="http://www.w3.org/2000/svg"
   xmlns:svg="http://www.w3.org/2000/svg">
  <defs
     id="defs1" />
  <sodipodi:namedview
     id="namedview1"
     pagecolor="#ffffff"
     bordercolor="#000000"
     borderopacity="0.25"
     inkscape:showpageshadow="2"
     inkscape:pageopacity="0.0"
     inkscape:pagecheckerboard="0"
     inkscape:deskcolor="#d1d1d1">
    <inkscape:page
       x="0"
       y="0"
       inkscape:label="1"
       id="page1"
       width="381.14667"
       height="195.38667"
       margin="0"
       bleed="0" />
  </sodipodi:namedview>
  <g
     id="g1"
     inkscape:groupmode="layer"
     inkscape:label="1">
    <path
       id="path1"
       d="M -28.3468,0 H 84.79135"
       style="fill:none;stroke:#c9d1d9;stroke-width:0.24907;stroke-linecap:butt;stroke-linejoin:miter;stroke-miterlimit:10;stroke-dasharray:none;stroke-opacity:1"
       transform="matrix(1.3333333,0,0,-1.3333333,59.881333,132.27867)" />
    <path
       id="path2"
       d="M -1.89291,2.12108 C -1.54709,0.84842 -0.77643,0.24745 0,0 -0.77643,-0.24745 -1.54709,-0.84842 -1.89291,-2.12108"
       style="fill:none;stroke:#c9d1d9;stroke-width:0.24907;stroke-linecap:round;stroke-linejoin:round;stroke-miterlimit:10;stroke-dasharray:none;stroke-opacity:1"
       transform="matrix(1.3333333,0,0,-1.3333333,173.10253,132.27867)" />
    <path
       id="path3"
       d="M 0,-28.3468 V 84.79135"
       style="fill:none;stroke:#c9d1d9;stroke-width:0.24907;stroke-linecap:butt;stroke-linejoin:miter;stroke-miterlimit:10;stroke-dasharray:none;stroke-opacity:1"
       transform="matrix(1.3333333,0,0,-1.3333333,59.881333,132.27867)" />
    <path
       id="path4"
       d="M -1.89291,2.12108 C -1.54709,0.84842 -0.77643,0.24745 0,0 -0.77643,-0.24745 -1.54709,-0.84842 -1.89291,-2.12108"
       style="fill:none;stroke:#c9d1d9;stroke-width:0.24907;stroke-linecap:round;stroke-linejoin:round;stroke-miterlimit:10;stroke-dasharray:none;stroke-opacity:1"
       transform="matrix(0,-1.3333333,-1.3333333,0,59.881333,19.057467)" />
    <path
       id="path5"
       d="m -22.67752,-7.93706 0.07353,0.23531 0.07353,0.23356 0.07354,0.23357 0.07352,0.2327 0.07352,0.23185 0.07354,0.23097 0.07353,0.23098 0.07353,0.22925 0.07353,0.22837 0.07354,0.22838 0.07353,0.22753 0.07353,0.22664 0.07353,0.22578 0.07353,0.22493 0.07354,0.22404 0.07353,0.2232 0.07353,0.2232 0.07353,0.22144 0.07353,0.22146 0.07353,0.2206 0.07354,0.21973 0.07353,0.21887 0.07353,0.21798 0.07353,0.21715 0.07354,0.21714 0.07353,0.21539 0.07353,0.21541 0.07353,0.21368 0.07354,0.21367 0.07353,0.21281 0.07353,0.21195 0.07353,0.21194 0.07353,0.21021 0.07352,0.20935 0.07353,0.20935 0.07353,0.20845 0.07354,0.20676 0.07353,0.20674 0.07353,0.20588 0.07353,0.20591 0.07354,0.20416 0.07353,0.20327 0.07353,0.2033 0.07353,0.20157 0.07354,0.20155 0.07353,0.2007 0.07353,0.19983 0.07353,0.19899 0.07353,0.19809 0.07353,0.19809 0.07354,0.19638 0.07353,0.19638 0.07353,0.19464 0.07353,0.19464 0.07353,0.19377 0.07354,0.19292 0.07353,0.19205 0.07353,0.19204 0.07353,0.19033 0.07353,0.1903 0.07353,0.1886 0.07354,0.18859 0.07352,0.18771 0.07353,0.18686 0.07353,0.18599 0.07353,0.18513 0.07353,0.18512 0.07354,0.1834 0.07353,0.18339 0.07353,0.18166 0.07353,0.18168 0.07353,0.18081 0.07354,0.17991 0.07353,0.1791 0.07353,0.17906 0.07353,0.17734 0.07353,0.17733 0.07354,0.17562 0.07353,0.17561 0.07353,0.17474 0.07353,0.17388 0.07354,0.17302 0.07353,0.17215 0.07353,0.17215 0.07353,0.17042 0.07354,0.17041 0.07353,0.1687 0.07353,0.16869 0.07353,0.16783 0.07353,0.16696 0.07353,0.16608 0.07354,0.16609 0.07351,0.16437 0.07354,0.16437 0.07353,0.16264 0.07353,0.16263 0.07353,0.16177 0.07353,0.16091 0.07354,0.16003 0.07353,0.15918 0.07353,0.15916 0.07354,0.15744 0.07352,0.15746 0.07354,0.15657 0.07353,0.15486 0.07353,0.15485 0.07353,0.15397 0.07354,0.15398 0.07353,0.15227 0.07353,0.15138 0.07353,0.1514 0.07353,0.15051 0.07354,0.14879 0.07351,0.1488 0.07354,0.14792 0.07353,0.14707 0.07353,0.14706 0.07353,0.14533 0.07353,0.14535 0.07354,0.14359 0.07353,0.1436 0.07353,0.14274 0.07352,0.14188 0.07353,0.141 0.07353,0.14014 0.07353,0.13928 0.07353,0.13927 0.07354,0.13756 0.07353,0.13754 0.07353,0.13669 0.07354,0.1358 0.07353,0.13495 0.07353,0.13409 0.07353,0.13323 0.07353,0.13236 0.07353,0.13235 0.07354,0.1315 0.07353,0.12976 0.07353,0.12976 0.07353,0.12889 0.07353,0.12802 0.07354,0.12719 0.07353,0.12716 0.07353,0.12543 0.07353,0.12544 0.07353,0.12371 0.07353,0.1237 0.07354,0.12285 0.07353,0.12198 0.07353,0.12109 0.07354,0.12112 0.07353,0.11937 0.07351,0.11852 0.07354,0.11851 0.07353,0.11766 0.07353,0.1168 0.07353,0.11592 0.07353,0.11503 0.07354,0.1142 0.07353,0.11333 0.07353,0.11332 0.07353,0.1116 0.07353,0.1116 0.07354,0.11073 0.07353,0.10986 0.07353,0.10901 0.07353,0.10812 0.07354,0.10727 0.07353,0.10727 0.07353,0.10554 0.07353,0.10553 0.07354,0.10381 0.07353,0.10382 0.07353,0.10294 0.07353,0.10208 0.07353,0.10208 0.07353,0.10034 0.07354,0.09949 0.07353,0.09947 0.07353,0.09864 0.07353,0.09689 0.07352,0.09687 0.07353,0.09603 0.07353,0.09602 0.07354,0.0943 0.07353,0.09343 0.07353,0.09343 0.07354,0.09169 0.07352,0.09171 0.07354,0.09083 0.07353,0.08997 0.07353,0.08909 0.07353,0.08824 0.07354,0.08825 0.07353,0.0865 0.07353,0.0865 0.07353,0.08479 0.07353,0.08478 0.07354,0.08389 0.07353,0.08306 0.07353,0.08218 0.07353,0.08219 0.07353,0.08046 0.07353,0.08044 0.07354,0.07872 0.07353,0.07874 0.07353,0.07785 0.07353,0.07699 0.07354,0.07611 0.07353,0.07527 0.07353,0.07526 0.07352,0.07353 0.07353,0.07353 0.07353,0.07181 0.07353,0.07179 0.07354,0.07094 0.07353,0.07009 0.07353,0.06919 0.07353,0.06922 0.07353,0.06746 0.07354,0.06749 0.07353,0.06573 0.07353,0.06574 0.07353,0.0649 0.07354,0.064 0.07353,0.06314 0.07353,0.06231 0.07353,0.06228 0.07352,0.06055 0.07353,0.06056 0.07353,0.05882 0.07353,0.05883 0.07353,0.05795 0.07354,0.0571 0.07353,0.05623 0.07353,0.05624 0.07354,0.05449 0.07353,0.0545 0.07353,0.05277 0.07353,0.05276 0.07353,0.05191 0.07352,0.05104 0.07353,0.05019 0.07353,0.0493 0.07354,0.0493 0.07353,0.0476 0.07353,0.04757 0.07353,0.04586 0.07353,0.04585 0.07354,0.04498 0.07353,0.04411 0.07353,0.04325 0.07353,0.04326 0.07354,0.04153 0.07353,0.0415 0.07353,0.03982 0.07353,0.03979 0.07354,0.03891 0.07353,0.03807 0.07353,0.0372 0.07353,0.03633 0.07353,0.03633 0.07353,0.03461 0.07354,0.03461 0.07353,0.03373 0.07353,0.03287 0.07353,0.03115 0.07354,0.032 0.07353,0.03028 0.07353,0.02942 0.07353,0.02855 0.07352,0.02855 0.07353,0.02768 0.07354,0.02595 0.07352,0.02594 0.07354,0.02509 0.07353,0.0251 0.07353,0.02334 0.07353,0.02251 0.07354,0.02248 0.07353,0.02077 0.07353,0.02076 0.07353,0.01988 0.07353,0.01905 0.07354,0.01815 0.07353,0.01731 0.07353,0.01645 0.07353,0.01643 0.07353,0.0147 0.07353,0.01472 0.07354,0.01383 0.07353,0.01298 0.07353,0.0121 0.07353,0.01125 0.07354,0.01039 0.07353,0.01037 0.07353,0.0087 0.07353,0.0086 0.07354,0.0069 0.07353,0.0069 0.07351,0.006 0.07354,0.0052 0.07353,0.0052 0.07353,0.0034 0.07353,0.0026 0.07353,0.0026 0.07354,0.0017 h 0.07353 0.0735 l 0.07353,-8.7e-4 0.07353,-0.0013 0.07354,-0.0026 0.07353,-0.003 0.07353,-0.0039 0.07353,-0.0048 0.07354,-0.0052 0.07353,-0.0065 0.07353,-0.0069 0.07353,-0.0074 0.07353,-0.0086 0.07354,-0.0091 0.07353,-0.01 L 1.07312,28.26565 1.14665,28.25398 1.22018,28.24187 1.29372,28.22845 1.36725,28.21504 1.44078,28.20033 1.51431,28.18477 1.58784,28.16876 1.66136,28.1519 1.7349,28.1346 1.80843,28.11598 1.88196,28.09695 1.95549,28.07706 2.02902,28.0563 2.10255,28.03467 2.17609,28.01262 2.24962,27.98968 2.32315,27.9659 2.39668,27.94168 2.47021,27.91615 2.54375,27.89021 2.61726,27.86339 2.6908,27.83571 2.76433,27.80759 2.83786,27.77861 2.91139,27.74876 2.98492,27.71806 3.05846,27.68692 3.13199,27.65448 3.20552,27.62161 3.27905,27.5883 3.35258,27.5537 3.42612,27.51866 3.49965,27.48276 3.57318,27.44626 3.64671,27.40862 3.72025,27.37056 3.79378,27.33163 3.8673,27.29182 3.94083,27.25117 4.01436,27.21008 4.08789,27.16814 4.16142,27.1253 4.23495,27.08162 4.30849,27.03708 4.38202,26.9921 4.45555,26.94624 4.52908,26.89952 4.60262,26.85237 4.67615,26.80437 4.74968,26.7555 4.82321,26.70575 4.89674,26.65514 4.97028,26.6041 5.04381,26.5522 5.11734,26.49942 5.19087,26.4458 5.2644,26.39172 5.33794,26.33679 5.41147,26.28099 5.485,26.22433 5.55853,26.16724 5.63206,26.10884 5.7056,26.05002 5.77913,25.99075 5.85266,25.9302 5.9262,25.86922 5.99973,25.80736 6.07324,25.74464 6.14677,25.68106 6.2203,25.61705 6.29384,25.55215 6.36737,25.48643 6.4409,25.41982 6.51443,25.35277 6.58797,25.28487 6.6615,25.2161 6.73503,25.14645 6.80856,25.07637 6.8821,25.00543 6.95563,24.93364 7.02916,24.86098 7.10269,24.78745 7.17622,24.71347 7.24976,24.63864 7.32329,24.56296 7.39682,24.48682 7.47035,24.4094 7.54388,24.33154 7.61742,24.25327 7.69095,24.17366 7.76448,24.09366 7.83801,24.01234 7.91154,23.93102 7.98508,23.8484 8.05861,23.76492 8.13214,23.68102 8.20566,23.59624 8.27919,23.51102 8.35272,23.42451 8.42625,23.33757 8.49979,23.24976 8.57332,23.1611 8.64685,23.07156 8.72038,22.9816 8.79391,22.89076 8.86745,22.79907 8.94098,22.70692 9.01451,22.6135 9.08804,22.51964 9.16158,22.42491 9.2351,22.32976 9.30864,22.23329 9.38217,22.13641 9.4557,22.03867 9.52924,21.94003 9.60277,21.84099 9.6763,21.74107 9.74983,21.6403 l 0.07353,-0.10166 0.07354,-0.1025 0.07353,-0.10295 0.07353,-0.1038 0.07354,-0.10468 0.07352,-0.10511 0.07354,-0.10639 0.07353,-0.10684 0.07351,-0.10772 0.07354,-0.10812 0.07353,-0.10945 0.07353,-0.10986 0.07353,-0.11074 0.07354,-0.11157 0.07353,-0.11204 0.07353,-0.11289 0.07353,-0.11375 0.07352,-0.11463 0.07353,-0.11549 0.07353,-0.11592 0.07354,-0.11678 0.07353,-0.11764 0.07353,-0.11809 0.07353,-0.11938 0.07353,-0.11982 0.07354,-0.12068 0.07353,-0.1211 0.07353,-0.12241 0.07353,-0.12284 0.07353,-0.12372 0.07354,-0.12414 0.07353,-0.12543 0.07353,-0.12587 0.07354,-0.12672 0.07353,-0.12761 0.07353,-0.12802 0.07353,-0.12934 0.07353,-0.12976 0.07352,-0.13019 0.07353,-0.1315 0.07353,-0.13192 0.07353,-0.13279 0.07354,-0.13364 0.07353,-0.13453 0.07353,-0.13495 0.07353,-0.13582 0.07354,-0.13668 0.07353,-0.13755 0.07353,-0.13798 0.07353,-0.13927 0.07353,-0.13928 0.07354,-0.14056 0.07353,-0.14145 0.07353,-0.14188 0.07353,-0.14273 0.07353,-0.14362 0.07354,-0.14402 0.07353,-0.14533 0.07353,-0.14577 0.07353,-0.14663"
       style="fill:none;stroke:#b39af0;stroke-width:0.99628;stroke-linecap:butt;stroke-linejoin:miter;stroke-miterlimit:10;stroke-dasharray:none;stroke-opacity:1"
       transform="matrix(1.3333333,0,0,-1.3333333,59.881333,132.27867)" />
    <path
       id="path6"
       d="m 16.49747,14.17339 c 0,1.28356 -1.04052,2.32408 -2.32408,2.32408 -1.28356,0 -2.32409,-1.04052 -2.32409,-2.32408 0,-1.28356 1.04053,-2.32409 2.32409,-2.32409 1.28356,0 2.32408,1.04053 2.32408,2.32409 z"
       style="fill:#c9d1d9;fill-opacity:1;fill-rule:nonzero;stroke:#c9d1d9;stroke-width:0.3985;stroke-linecap:butt;stroke-linejoin:miter;stroke-miterlimit:10;stroke-dasharray:none;stroke-opacity:1"
       transform="matrix(1.3333333,0,0,-1.3333333,59.881333,132.27867)" />
    <path
       id="path7"
       d="m 15.87413,33.8344 0.07957,-0.06963 0.07961,-0.06921 0.07957,-0.0692 0.07959,-0.06835 0.07959,-0.06791 0.07959,-0.0679 0.07958,-0.06705 0.0796,-0.06661 0.07958,-0.06617 0.07959,-0.06575 0.07959,-0.06531 0.07959,-0.06488 0.07957,-0.06445 0.07959,-0.06403 0.07959,-0.06357 0.07959,-0.06316 0.07958,-0.06271 0.0796,-0.06229 0.07958,-0.06185 0.07959,-0.06099 0.07959,-0.06099 0.07959,-0.06055 0.07957,-0.05969 0.07961,-0.05969 0.07957,-0.05926 0.07959,-0.05839 0.07957,-0.0584 0.07961,-0.05752 0.07957,-0.05754 0.07959,-0.05665 0.07959,-0.05666 0.07959,-0.0558 0.07959,-0.05538 0.0796,-0.05536 0.07958,-0.0545 0.07958,-0.05405 0.07959,-0.05363 0.07959,-0.05365 0.07959,-0.05277 0.07957,-0.05234 0.0796,-0.05191 0.07958,-0.05146 0.07959,-0.05104 0.07959,-0.0506 0.07959,-0.05019 0.07958,-0.04974 0.0796,-0.0493 0.07957,-0.04889 0.0796,-0.04801 0.07957,-0.048 0.0796,-0.04759 0.07958,-0.04714 0.07959,-0.04629 0.07959,-0.04627 0.07959,-0.04585 0.07958,-0.04498 0.0796,-0.04499 0.07957,-0.04411 0.07959,-0.04413 0.07958,-0.04326 0.0796,-0.04281 0.07958,-0.04282 0.07958,-0.04196 0.0796,-0.04195 0.07959,-0.04109 0.07957,-0.04066 0.07961,-0.04022 0.07957,-0.03982 0.07959,-0.03978 0.07959,-0.03892 0.07959,-0.0385 0.07958,-0.03807 0.07959,-0.03763 0.07959,-0.0372 0.07958,-0.03676 0.07958,-0.03633 0.0796,-0.03592 0.07958,-0.03502 0.07959,-0.03503 0.07959,-0.03461 0.07959,-0.03418 0.07957,-0.03329 0.07959,-0.03331 0.07959,-0.03287 0.07959,-0.03201 0.07958,-0.03201 0.0796,-0.03158 0.07958,-0.0307 0.07959,-0.03071 0.07959,-0.02986 0.07959,-0.02939 0.07957,-0.02942 0.07961,-0.02855 0.07959,-0.02812 0.07957,-0.02811 0.07959,-0.02725 0.07959,-0.02683 0.07959,-0.02638 0.07957,-0.02638 0.07961,-0.02551 0.07957,-0.0251 0.07959,-0.02466 0.0796,-0.02422 0.07958,-0.02379 0.07958,-0.02334 0.07959,-0.02294 0.07959,-0.02249 0.07959,-0.02162 0.07957,-0.02164 0.07961,-0.02118 0.07957,-0.02077 0.07959,-0.01989 0.07959,-0.01991 0.07959,-0.01946 0.07958,-0.01858 0.0796,-0.01862 0.07957,-0.01816 0.0796,-0.0173 0.07957,-0.0173 0.07961,-0.01644 0.07957,-0.016 0.07959,-0.01601 0.07959,-0.01513 0.07959,-0.01514 0.07958,-0.01429 0.0796,-0.01384 0.07957,-0.01339 0.07959,-0.01299 0.07959,-0.01297 0.07959,-0.01211 0.07958,-0.01167 0.07959,-0.01125 0.07959,-0.01082 0.07959,-0.01038 0.07957,-0.0099 0.07961,-0.0095 0.07957,-0.0091 0.07959,-0.0086 0.07959,-0.0078 0.07959,-0.0078 0.07958,-0.0074 0.07959,-0.0069 0.07959,-0.006 0.07959,-0.0061 0.07957,-0.0056 0.07961,-0.0048 0.07957,-0.0048 0.07959,-0.0039 0.07959,-0.0039 0.07959,-0.003 0.07957,-0.003 0.07961,-0.0022 0.07957,-0.0017 0.07959,-0.0017 0.07959,-8.7e-4 0.07959,-4.3e-4 h 0.0796 0.07957 l 0.0796,8.6e-4 0.07958,0.0013 0.07959,0.0017 0.07959,0.0022 0.07959,0.0026 0.07957,0.003 0.07959,0.0035 0.07959,0.0039 0.07959,0.0043 0.07958,0.0048 0.0796,0.0052 0.07958,0.0061 0.07958,0.0061 0.0796,0.0065 0.07958,0.0069 0.07958,0.0078 0.0796,0.0078 0.07958,0.0086 0.07959,0.0087 0.07957,0.0091 0.07961,0.0099 0.07957,0.01038 0.07959,0.01039 0.07959,0.01124 0.07959,0.01125 0.07958,0.0121 0.0796,0.01254 0.07957,0.01256 0.0796,0.01341 0.07957,0.01384 0.07961,0.01427 0.07957,0.0147 0.07959,0.01514 0.07959,0.01558 0.07959,0.01599 0.07958,0.01645 0.0796,0.01686 0.07958,0.01731 0.07958,0.01773 0.07959,0.01817 0.07959,0.01859 0.07958,0.01904 0.07959,0.0199 0.07959,0.0199 0.07959,0.02032 0.07957,0.02077 0.07961,0.02162 0.07957,0.02162 0.07959,0.02251 0.07959,0.02247 0.07959,0.02336 0.07958,0.02337 0.0796,0.02423 0.07958,0.02421 0.07959,0.02509 0.07957,0.02551 0.07961,0.02553 0.07959,0.02638 0.07957,0.02681 0.0796,0.02727 0.07958,0.02724 0.07959,0.02812 0.07959,0.02855 0.07959,0.02897 0.07957,0.02942 0.07959,0.02983 0.07959,0.03029 0.0796,0.0307 0.07957,0.03115 0.0796,0.03157 0.07958,0.03243 0.07959,0.03245 0.07959,0.03288 0.07959,0.03331 0.07958,0.03416 0.0796,0.03417 0.07957,0.0346 0.07959,0.03548 0.07958,0.03546 0.0796,0.03633 0.07958,0.03635 0.07958,0.03719 0.0796,0.0372 0.07959,0.03805 0.07957,0.03807 0.07961,0.03893 0.07957,0.03937 0.07959,0.03979 0.07957,0.0398 0.07961,0.04065 0.07957,0.04109 0.07959,0.04153 0.07959,0.04195 0.07959,0.04239 0.07958,0.04283 0.0796,0.04324 0.07958,0.04369 0.07959,0.04413 0.07959,0.04455 0.07959,0.04498 0.07957,0.04541 0.07959,0.04584 0.07959,0.0463 0.07959,0.04713 0.07958,0.04715 0.0796,0.04758 0.07958,0.04844 0.07959,0.04845 0.07959,0.0493 0.07959,0.04932 0.07957,0.04974 0.07959,0.05062 0.07959,0.05102 0.07959,0.05106 0.07957,0.05189 0.07961,0.0519 0.07957,0.05276 0.07959,0.05321 0.07961,0.05363 0.07957,0.05364 0.07959,0.0545 0.0796,0.05494 0.07958,0.05537 0.07958,0.05578 0.07959,0.05623 0.07959,0.05667 0.07959,0.05709 0.07957,0.05752 0.0796,0.05797 0.07958,0.0584 0.07959,0.05882 0.07959,0.0597 0.07959,0.05969 0.07958,0.06013 0.07959,0.06055 0.07958,0.06141 0.0796,0.06144 0.07957,0.06182 0.0796,0.06273 0.07958,0.06273 0.07959,0.06357 0.07959,0.0636 0.07959,0.06443 0.07958,0.06446 0.0796,0.06531 0.07957,0.06575 0.07959,0.06575 0.07958,0.0666 0.0796,0.06705 0.07958,0.06748 0.07958,0.06747 0.0796,0.06833 0.07959,0.06877 0.07957,0.06923 0.07961,0.06962 0.07957,0.07007 0.07959,0.07051 0.07959,0.07094 0.07959,0.07136 0.07958,0.07181 0.07958,0.07267 0.07959,0.07266 0.07959,0.0731 0.07958,0.07354 0.0796,0.07395 0.07958,0.07483 0.07959,0.07484 0.07959,0.07569 0.07959,0.07569 0.07957,0.07614 0.07959,0.07698 0.07959,0.077 0.07959,0.07784 0.07958,0.0783 0.0796,0.07827 0.07958,0.07917 0.07959,0.0796 0.07959,0.07958 0.07959,0.08044 0.07959,0.0809 0.07959,0.08132 0.07959,0.08131 0.07957,0.08218 0.07959,0.0826 0.07959,0.08305 0.07959,0.0835 0.07957,0.08391 0.07961,0.08433 0.07957,0.0848 0.07959,0.0852 0.0796,0.08608 0.07958,0.08607 0.07958,0.0865 0.07959,0.08695 0.07959,0.0878 0.07959,0.0878 0.07957,0.08825 0.0796,0.0891 0.07958,0.08909 0.07959,0.08954 0.07959,0.09041 0.07959,0.09039 0.07958,0.09127 0.0796,0.0917 0.07957,0.09169 0.0796,0.09258 0.07957,0.09298 0.07961,0.09299 0.07957,0.09387 0.07959,0.09429 0.07959,0.09473 0.07959,0.09474 0.07958,0.09558 0.0796,0.09602 0.07957,0.09645 0.07959,0.09688 0.07958,0.09734 0.0796,0.09776 0.07958,0.09817 0.07959,0.09862 0.07959,0.09949 0.07959,0.09949 0.07957,0.0999 0.07961,0.10037 0.07957,0.10077 0.07959,0.10164 0.07959,0.10165 0.07959,0.10251 0.07958,0.10251 0.07959,0.10295 0.07959,0.1038 0.07959,0.10381 0.07957,0.10467 0.07961,0.1047 0.07957,0.10552 0.07959,0.10598 0.07959,0.10597 0.07959,0.10684 0.07957,0.10726 0.07961,0.10771 0.07959,0.10769 0.07957,0.10857 0.07959,0.10899 0.07959,0.10945 0.0796,0.10987 0.07957,0.11029 0.0796,0.11073 0.07958,0.11115 0.07959,0.1116 0.07959,0.11204 0.07959,0.11244 0.07957,0.11333 0.07959,0.11333 0.07959,0.11377 0.07959,0.11418 0.07958,0.11507 0.0796,0.11503 0.07958,0.1155 0.07958,0.11636 0.0796,0.11633 0.07958,0.11722 0.07958,0.11724 0.0796,0.11807 0.07958,0.11809 0.07959,0.11894 0.07957,0.11937 0.07961,0.11938 0.07957,0.12026 0.07959,0.12068 0.07959,0.12068 0.07959,0.12154 0.07958,0.12198 0.0796,0.1224 0.07957,0.12285 0.0796,0.12328 0.07957,0.12368 0.07961,0.12415 0.07957,0.12457 0.07959,0.125 0.07959,0.12543 0.07959,0.12587 0.07958,0.1263 0.0796,0.12674 0.07957,0.1276 0.07959,0.1276 0.07959,0.12804 0.07959,0.12889 0.07958,0.12889 0.07959,0.12933 0.07959,0.1302 0.07959,0.13019 0.07957,0.13106 0.07961,0.13106 0.07957,0.13191 0.07959,0.13237 0.07959,0.13237 0.07959,0.13321 0.07958,0.13365 0.07959,0.13367 0.07959,0.13452 0.07959,0.13495 0.07959,0.13537 0.07959,0.13582 0.07959,0.13582 0.07957,0.13667 0.0796,0.13712 0.07958,0.13754 0.07959,0.13799 0.07959,0.13841 0.07959,0.13927 0.07957,0.13928 0.07959,0.13972 0.07959,0.14014 0.0796,0.14056 0.07957,0.14146 0.0796,0.14143 0.07958,0.14187 0.07959,0.14273 0.07959,0.14275 0.07959,0.14317 0.07957,0.14403 0.07959,0.14404 0.07959,0.1449 0.07959,0.1449 0.07958,0.14577 0.0796,0.14619 0.07958,0.14619 0.07958,0.14707 0.0796,0.14749 0.07959,0.14793 0.07957,0.14794 0.07961,0.14879 0.07957,0.14923 0.07959,0.14966 0.07957,0.15008 0.07961,0.15053 0.07957,0.15095 0.07959,0.15139 0.07959,0.15182 0.07959,0.15225 0.07958,0.1527 0.0796,0.1531"
       style="fill:none;stroke:#b39af0;stroke-width:0.99628;stroke-linecap:butt;stroke-linejoin:miter;stroke-miterlimit:10;stroke-dasharray:none;stroke-opacity:1"
       transform="matrix(1.3333333,0,0,-1.3333333,59.881333,132.27867)" />
    <path
       id="path8"
       d="m 57.68585,58.71269 0.0147,0.03029 0.01471,0.0307 0.01471,0.03028 0.0147,0.03071 0.01471,0.03027 0.0147,0.03071 0.01471,0.03028 0.01471,0.0307 0.0147,0.03072 0.01472,0.03027 0.01469,0.03072 0.01471,0.0307 0.01471,0.03073 0.01471,0.0307 0.01471,0.03028 0.01469,0.03071 0.01471,0.03072 0.01471,0.0307 0.01471,0.03072 0.01471,0.0307 0.01469,0.03115 0.01471,0.0307 0.01472,0.03072 0.0147,0.0307 0.01471,0.03072 0.01469,0.03114 0.01472,0.0307 0.01471,0.03072 0.01469,0.03114 0.01471,0.03071 0.01471,0.03113 0.01471,0.03073 0.01471,0.03114 0.01469,0.0307 0.01471,0.03115 0.01471,0.0307 0.01471,0.03116 0.01471,0.03113 0.01469,0.03071 0.01472,0.03115 0.0147,0.03114 0.01471,0.03114 0.01471,0.03115 0.0147,0.03113 0.01471,0.03115 0.01471,0.03115 0.0147,0.03114 0.01471,0.03114 0.0147,0.03113 0.01471,0.03116 0.01471,0.03114 0.01471,0.03113 0.01471,0.03159 0.01469,0.03114 0.01471,0.03113 0.01471,0.03116 0.01471,0.03157 0.01471,0.03114 0.01469,0.03159 0.01471,0.03112 0.01471,0.03157 0.0147,0.03116 0.01472,0.03157 0.01469,0.03115 0.01471,0.03158 0.01471,0.03157 0.0147,0.03113 0.01472,0.03157 0.0147,0.03159 0.01471,0.03158 0.01471,0.03157 0.01469,0.03159 0.01472,0.03157 0.0147,0.03157 0.01471,0.03157 0.01471,0.03159 0.01469,0.03157 0.01473,0.03156 0.01469,0.03158 0.01471,0.03158 0.01471,0.03157 0.01469,0.03202 0.01473,0.03157 0.01469,0.03158 0.01471,0.032 0.01471,0.03157 0.0147,0.03157 0.01472,0.03203 0.01469,0.03157 0.0147,0.032 0.01472,0.03156 0.0147,0.03202 0.01472,0.03201 0.0147,0.03157 0.01469,0.03202 0.01473,0.03199 0.01469,0.03202 0.01473,0.03158 0.01469,0.032 0.01469,0.03201 0.01473,0.03202 0.01469,0.03199 0.01472,0.03202 0.0147,0.03201 0.0147,0.03201 0.01472,0.032 0.01469,0.03201 0.01473,0.03243 0.01469,0.03201 0.0147,0.032 0.01472,0.03203 0.0147,0.03244 0.01472,0.03199 0.0147,0.03202 0.01469,0.03244 0.01472,0.032 0.0147,0.03244 0.01472,0.03201 0.0147,0.03244 0.01469,0.03201 0.01473,0.03244 0.01469,0.03244 0.01471,0.03202 0.01471,0.03244 0.01469,0.03244 0.01473,0.03244 0.01469,0.03244 0.01471,0.032 0.01471,0.03243 0.0147,0.03244 0.01472,0.03244 0.0147,0.03244 0.0147,0.03245 0.01472,0.03245 0.01469,0.03285 0.01472,0.03246 0.01469,0.03244 0.01472,0.03244 0.01471,0.03244 0.01469,0.03287 0.01473,0.03244 0.01469,0.03244 0.01471,0.03288 0.01471,0.03244 0.01469,0.03287 0.01473,0.03244 0.01469,0.03286 0.0147,0.03244 0.01472,0.03289 0.01469,0.03286 0.01472,0.03244 0.0147,0.03289 0.0147,0.03286 0.01472,0.03287 0.0147,0.03288 0.01471,0.03245 0.01471,0.03286 0.01469,0.03287 0.01472,0.03287 0.0147,0.03286 0.01471,0.03289 0.01471,0.03286 0.01469,0.03289 0.01473,0.0333 0.01469,0.03287 0.01471,0.03287 0.01471,0.03288 0.0147,0.03331 0.01472,0.03287 0.01469,0.03287 0.01471,0.03329 0.01471,0.03289 0.0147,0.03331 0.01472,0.03286 0.0147,0.03331 0.0147,0.03287 0.01471,0.03331 0.0147,0.03289 0.01471,0.03329 0.01471,0.03331 0.01471,0.0333 0.01471,0.03288 0.01469,0.03329 0.01471,0.03331 0.01471,0.03331 0.01471,0.03331 0.01471,0.03331 0.01469,0.03329 0.01471,0.03332 0.01471,0.03329 0.01471,0.03331 0.01471,0.03331 0.01469,0.03331 0.01471,0.03329 0.01471,0.03374 0.01471,0.03331 0.01472,0.03331 0.01469,0.03374 0.01471,0.03329 0.0147,0.03331 0.01472,0.03374 0.0147,0.03331 0.0147,0.03374 0.01471,0.03329 0.01471,0.03375 0.01471,0.03374 0.01471,0.03331 0.01469,0.03372 0.01471,0.03374 0.01471,0.03375 0.01471,0.03331 0.01469,0.03374 0.01471,0.03373 0.01472,0.03373 0.0147,0.03375 0.01471,0.03372 0.01469,0.03374 0.01472,0.03376 0.0147,0.03373 0.01471,0.03372 0.01471,0.03375 0.0147,0.03417 0.01471,0.03375 0.01471,0.03372 0.01471,0.03374 0.01471,0.03418 0.01469,0.03372 0.01471,0.03376 0.01471,0.03417 0.01471,0.03373 0.01471,0.03418 0.01469,0.03373 0.01471,0.03417 0.01471,0.03416 0.01471,0.03375 0.01471,0.03417 0.01469,0.03416 0.01471,0.03376 0.01471,0.03415 0.0147,0.03418 0.01472,0.03417 0.0147,0.03417 0.01471,0.03416 0.01471,0.03418 0.01469,0.03417 0.01472,0.03418 0.0147,0.03418 0.01471,0.03414 0.01471,0.03419 0.01469,0.03416 0.01473,0.03461 0.01469,0.03418 0.01471,0.03416 0.01471,0.03417 0.01469,0.0346 0.01473,0.03417 0.01469,0.03462 0.01471,0.03415 0.01471,0.03462 0.0147,0.03415 0.01471,0.03462 0.01471,0.03415 0.0147,0.03462 0.01471,0.03461 0.0147,0.03416 0.01471,0.03461 0.01471,0.03459 0.01469,0.03461 0.01473,0.03416 0.01469,0.03461 0.01471,0.03459 0.01471,0.03463 0.01469,0.03459 0.01473,0.0346 0.01469,0.03461 0.01471,0.03459 0.01471,0.03504 0.0147,0.0346 0.01472,0.03463 0.01469,0.03459 0.01471,0.03461 0.01471,0.03503 0.0147,0.03459 0.01472,0.03461 0.0147,0.03503 0.01471,0.03461 0.01471,0.03503 0.01469,0.03461 0.01472,0.03503 0.0147,0.03504 0.01471,0.03459 0.01471,0.03505 0.01469,0.03503 0.01472,0.03461 0.0147,0.03504 0.01471,0.03501 0.01471,0.03505 0.01469,0.03504 0.01473,0.0346 0.01469,0.03504 0.0147,0.03503 0.01472,0.03503 0.0147,0.03506 0.01472,0.03546 0.01469,0.03502 0.0147,0.03505 0.01472,0.03503 0.0147,0.03503 0.01472,0.03548 0.0147,0.03502 0.01469,0.03505 0.01473,0.03546 0.01469,0.03504 0.01472,0.03503 0.0147,0.03547 0.01469,0.03504 0.01473,0.03546 0.01469,0.03504 0.01473,0.03547 0.01469,0.03546 0.0147,0.03504 0.01472,0.03547 0.01469,0.03547 0.01473,0.03545 0.0147,0.03548 0.01469,0.03504 0.01472,0.03546 0.01469,0.03548 0.01472,0.03546 0.01471,0.03548 0.01469,0.03547 0.01472,0.03546 0.0147,0.03547 0.01471,0.0359 0.01471,0.03547 0.01469,0.03547 0.01473,0.03546 0.01469,0.03547 0.01471,0.03591 0.01471,0.03546 0.01469,0.03589 0.01473,0.03547 0.01469,0.03548 0.01471,0.03589 0.01471,0.03548 0.0147,0.0359 0.01472,0.03589 0.01469,0.03548 0.01471,0.03588 0.01471,0.03592 0.0147,0.03547 0.01472,0.03588 0.0147,0.03591 0.01471,0.03592 0.01471,0.03589 0.01469,0.0359 0.01471,0.03589 0.01471,0.0359 0.01471,0.03591 0.01471,0.0359 0.01469,0.03591 0.01471,0.03588 0.01471,0.03591 0.01471,0.0359 0.01471,0.03633 0.01469,0.03591 0.01471,0.0359 0.01471,0.03589 0.01471,0.03634 0.01471,0.03591 0.0147,0.03633 0.01471,0.03589 0.01471,0.03633 0.01469,0.0359 0.01472,0.03633 0.0147,0.03635 0.01471,0.0359 0.01471,0.03634 0.01469,0.03633 0.01473,0.03589 0.01469,0.03633 0.01471,0.03633 0.01471,0.03633 0.01469,0.03635 0.01473,0.03633 0.01469,0.03633 0.01471,0.03633 0.01471,0.03633 0.0147,0.03633 0.01471,0.03635 0.0147,0.03633 0.01471,0.03633 0.01471,0.03676 0.0147,0.03633 0.01471,0.03635 0.01471,0.03633 0.01471,0.03677 0.01471,0.03633 0.01469,0.03676 0.01471,0.03633 0.01471,0.03678 0.01471,0.03633 0.01471,0.03676 0.01469,0.03633 0.01471,0.03677 0.01471,0.03676 0.01471,0.03633 0.01471,0.03677 0.01469,0.03676 0.01471,0.03678 0.01471,0.03675 0.01471,0.03678 0.01471,0.03676 0.0147,0.03677 0.01471,0.03676 0.01471,0.03677 0.0147,0.03676 0.0147,0.03677 0.01471,0.03676 0.01471,0.03676 0.01471,0.03677 0.0147,0.0372 0.0147,0.03676 0.01471,0.03678 0.01471,0.03676 0.01471,0.0372 0.01471,0.03677 0.01469,0.0372 0.01471,0.03676 0.01471,0.0372 0.01471,0.03677 0.01471,0.0372 0.0147,0.03718 0.0147,0.03677 0.01471,0.0372 0.01472,0.0372 0.0147,0.0372 0.0147,0.03676 0.0147,0.0372 0.01472,0.0372 0.01471,0.0372 0.01471,0.03721 0.01469,0.0372 0.01471,0.03718 0.01471,0.0372 0.01469,0.0372 0.01473,0.0372 0.01469,0.0372 0.01471,0.03763 0.01471,0.0372 0.01469,0.03721 0.01473,0.03718 0.0147,0.03763 0.0147,0.0372 0.01471,0.03765 0.01469,0.03718 0.01473,0.0372 0.0147,0.03763 0.01471,0.03763 0.0147,0.0372 0.0147,0.03764 0.01472,0.03719 0.0147,0.03764 0.01471,0.03761 0.01471,0.03765 0.01469,0.0372 0.01473,0.03763 0.01469,0.03762 0.01471,0.03763 0.01471,0.03763 0.01469,0.03763 0.01473,0.03764 0.01469,0.03763 0.01471,0.03763 0.01471,0.03763 0.0147,0.03762 0.01472,0.03808 0.01469,0.03762 0.0147,0.03763 0.01472,0.03763 0.0147,0.03807 0.01472,0.03763 0.0147,0.03763 0.01469,0.03807 0.01472,0.03763 0.0147,0.03805 0.01471,0.03764 0.01471,0.03806 0.01469,0.03806 0.01473,0.03764 0.01469,0.03805 0.01471,0.03807 0.01471,0.03763 0.01469,0.03807 0.01473,0.03806 0.01469,0.03805 0.01471,0.03807 0.01471,0.03808 0.0147,0.03805 0.01472,0.03807 0.0147,0.03806 0.0147,0.03805 0.01471,0.03807 0.0147,0.03807 0.01472,0.03806 0.0147,0.03807 0.01469,0.0385 0.01473,0.03805 0.01469,0.03807 0.01473,0.0385"
       style="fill:none;stroke:#b39af0;stroke-width:0.99628;stroke-linecap:butt;stroke-linejoin:miter;stroke-miterlimit:10;stroke-dasharray:none;stroke-opacity:1"
       transform="matrix(1.3333333,0,0,-1.3333333,59.881333,132.27867)" />
    <path
       id="path9"
       d="m 16.49747,35.43349 c 0,1.28357 -1.04052,2.32408 -2.32408,2.32408 -1.28356,0 -2.32409,-1.04051 -2.32409,-2.32408 0,-1.28356 1.04053,-2.32407 2.32409,-2.32407 1.28356,0 2.32408,1.04051 2.32408,2.32407 z"
       style="fill:none;stroke:#c9d1d9;stroke-width:0.3985;stroke-linecap:butt;stroke-linejoin:miter;stroke-miterlimit:10;stroke-dasharray:none;stroke-opacity:1"
       transform="matrix(1.3333333,0,0,-1.3333333,59.881333,132.27867)" />
    <path
       id="path10"
       d="m 59.01768,56.69362 c 0,1.28355 -1.04051,2.32406 -2.32406,2.32406 -1.28357,0 -2.32408,-1.04051 -2.32408,-2.32406 0,-1.28357 1.04051,-2.32408 2.32408,-2.32408 1.28355,0 2.32406,1.04051 2.32406,2.32408 z"
       style="fill:none;stroke:#c9d1d9;stroke-width:0.3985;stroke-linecap:butt;stroke-linejoin:miter;stroke-miterlimit:10;stroke-dasharray:none;stroke-opacity:1"
       transform="matrix(1.3333333,0,0,-1.3333333,59.881333,132.27867)" />
    <path
       id="path11"
       d="m 2.0737891,0.08345313 c 0.7734375,0 1.4648437,-0.6796875 1.4648437,-1.82812503 0,-1.0546875 -0.46875,-1.7226562 -1.3476562,-1.7226562 -0.375,0 -0.75,0.1992187 -1.0664063,0.46875 l 0.023437,-0.609375 v -1.359375 H 0.57378906 V 0.00142188 H 1.0308203 l 0.058594,-0.3515625 h 0.023437 C 1.40582,-0.08060937 1.7573825,0.08345313 2.0737891,0.08345313 Z m -0.1054688,-0.4921875 c -0.2226562,0 -0.5273437,-0.0820313 -0.8203125,-0.33984375 V -2.5181094 c 0.328125,-0.3164062 0.6210938,-0.46875 0.9023438,-0.46875 0.6328125,0 0.890625,0.5039063 0.890625,1.2421875 0,0.84375003 -0.4101563,1.33593753 -0.9726563,1.33593753 z M 4.4380469,0.00142188 H 5.0122656 V -2.1782656 c 0.234375,-0.5625 0.5742188,-0.7734375 0.8554688,-0.7734375 0.140625,0 0.2109375,0.023437 0.3164062,0.046875 l 0.1171875,-0.4921875 c -0.1054687,-0.058594 -0.2109375,-0.070312 -0.3632812,-0.070312 -0.375,0 -0.7265625,0.2695312 -0.9609375,0.6914062 h -0.023437 l -0.046875,-0.609375 h -0.46875 z m 3.7148437,0.08203125 c 0.46875,0 0.8320313,-0.140625 1.125,-0.3515625 L 9.0786719,-0.63139062 c -0.234375,0.1640625 -0.5273438,0.24609375 -0.8554688,0.24609375 -0.6328125,0 -1.0664062,-0.45703125 -1.1132812,-1.14843753 h 2.2851562 c 0.023437,-0.1171875 0.023437,-0.2226562 0.023437,-0.3515625 0,-0.9726562 -0.4921875,-1.5820312 -1.359375,-1.5820312 -0.7734375,0 -1.5234375,0.6679687 -1.5234375,1.7695312 0,1.12500003 0.7148438,1.78125003 1.617188,1.78125003 z M 7.1099219,-1.9907656 c 0.070312,-0.6445313 0.4921875,-1.0195313 0.9609375,-1.0195313 0.515625,0 0.8320312,0.3515625 0.8320312,1.0195313 z m 3.8203121,2.07421873 c 0.433594,0 0.796875,-0.2109375 1.125,-0.4921875 h 0.01172 l 0.05859,0.41015625 h 0.480469 V -2.0845156 c 0,-0.8320313 -0.363282,-1.3828125 -1.183594,-1.3828125 -0.539063,0 -1.019531,0.2226562 -1.335938,0.4335937 l 0.222657,0.3867188 c 0.269531,-0.1640625 0.621093,-0.3398438 1.019531,-0.3398438 0.550781,0 0.691406,0.4101563 0.691406,0.8320313 -1.453125,0.1640625 -2.0742186,0.5273437 -2.0742186,1.27734373 0,0.609375 0.4218746,0.9609375 0.9843746,0.9609375 z m 0.164063,-0.46875 c -0.328125,0 -0.585938,-0.15234375 -0.585938,-0.52734375 0,-0.43359378 0.375,-0.69140628 1.511719,-0.83203128 v 0.92578128 c -0.328125,0.28125 -0.597656,0.43359375 -0.925781,0.43359375 z m 2.578125,0.38671875 h 0.574219 v -0.890625 l 0.621093,-0.73828128 0.996094,1.62890628 h 0.621094 l -1.277344,-2.02734378 1.136719,-1.359375 h -0.65625 l -1.429688,1.7695313 h -0.01172 V -4.9673281 H 13.67242 Z m 0,0"
       style="fill:#c9d1d9;fill-opacity:1;fill-rule:nonzero;stroke:none"
       aria-label="break"
       transform="matrix(1.3333333,0,0,1.3333333,67.746667,127.97467)" />
    <path
       id="path12"
       d="M 0.57336719,-0.001 H 1.1475859 v -2.4492187 c 0.3398438,-0.3515625 0.5859375,-0.515625 0.9257813,-0.515625 0.4453125,0 0.6328125,0.2578125 0.6328125,0.890625 V -0.001 h 0.5859375 v -2.1445312 c 0,-0.8671875 -0.328125,-1.3242188 -1.0429688,-1.3242188 -0.46875,0 -0.8085937,0.2460938 -1.125,0.5507813 L 1.1475859,-3.610375 V -4.96975 H 0.57336719 Z M 5.6798125,0.08103125 c 0.8320312,0 1.5820312,-0.64453125 1.5820312,-1.76953125 0,-1.1367187 -0.75,-1.78125 -1.5820312,-1.78125 -0.8320313,0 -1.5703125,0.6445313 -1.5703125,1.78125 0,1.125 0.7382812,1.76953125 1.5703125,1.76953125 z m 0,-0.48046875 c -0.5742188,0 -0.9609375,-0.515625 -0.9609375,-1.2890625 0,-0.7851562 0.3867187,-1.3007812 0.9609375,-1.3007812 0.5859375,0 0.984375,0.515625 0.984375,1.3007812 0,0.7734375 -0.3984375,1.2890625 -0.984375,1.2890625 z m 3.0761719,0.48046875 c 0.140625,0 0.2460937,-0.0234375 0.328125,-0.05859375 l -0.070312,-0.43359375 c -0.058594,0.0117188 -0.09375,0.0117188 -0.1289063,0.0117188 -0.082031,0 -0.1640625,-0.0585938 -0.1640625,-0.24609375 V -4.96975 H 8.1466094 v 4.2890625 c 0,0.48046875 0.1757812,0.76171875 0.609375,0.76171875 z m 2.5283206,0 c 0.46875,0 0.832031,-0.140625 1.125,-0.3515625 L 12.210086,-0.6338125 c -0.234375,0.1640625 -0.527344,0.24609375 -0.855469,0.24609375 -0.632812,0 -1.066406,-0.45703125 -1.113281,-1.14843745 h 2.285156 c 0.02344,-0.1171875 0.02344,-0.2226563 0.02344,-0.3515625 0,-0.9726563 -0.492188,-1.5820313 -1.359375,-1.5820313 -0.773438,0 -1.5234378,0.6679688 -1.5234378,1.7695313 0,1.12499995 0.7148438,1.78124995 1.6171878,1.78124995 z M 10.241336,-1.9931875 c 0.07031,-0.6445312 0.492187,-1.0195312 0.960937,-1.0195312 0.515625,0 0.832032,0.3515625 0.832032,1.0195312 z m 0,0"
       style="fill:#c9d1d9;fill-opacity:1;fill-rule:nonzero;stroke:none"
       aria-label="hole"
       transform="matrix(1.3333333,0,0,1.3333333,138.27067,67.501333)" />
    <path
       id="path13"
       d="M -28.3468,0 H 84.79135"
       style="fill:none;stroke:#c9d1d9;stroke-width:0.24907;stroke-linecap:butt;stroke-linejoin:miter;stroke-miterlimit:10;stroke-dasharray:none;stroke-opacity:1"
       transform="matrix(1.3333333,0,0,-1.3333333,248.85733,132.27867)" />
    <path
       id="path14"
       d="M -1.89291,2.12108 C -1.54709,0.84842 -0.77643,0.24745 0,0 -0.77643,-0.24745 -1.54709,-0.84842 -1.89291,-2.12108"
       style="fill:none;stroke:#c9d1d9;stroke-width:0.24907;stroke-linecap:round;stroke-linejoin:round;stroke-miterlimit:10;stroke-dasharray:none;stroke-opacity:1"
       transform="matrix(1.3333333,0,0,-1.3333333,362.07853,132.27867)" />
    <path
       id="path15"
       d="M 0,-28.3468 V 84.79135"
       style="fill:none;stroke:#c9d1d9;stroke-width:0.24907;stroke-linecap:butt;stroke-linejoin:miter;stroke-miterlimit:10;stroke-dasharray:none;stroke-opacity:1"
       transform="matrix(1.3333333,0,0,-1.3333333,248.85733,132.27867)" />
    <path
       id="path16"
       d="M -1.89291,2.12108 C -1.54709,0.84842 -0.77643,0.24745 0,0 -0.77643,-0.24745 -1.54709,-0.84842 -1.89291,-2.12108"
       style="fill:none;stroke:#c9d1d9;stroke-width:0.24907;stroke-linecap:round;stroke-linejoin:round;stroke-miterlimit:10;stroke-dasharray:none;stroke-opacity:1"
       transform="matrix(0,-1.3333333,-1.3333333,0,248.85733,19.057467)" />
    <path
       id="path17"
       d="m -22.67752,19.84267 0.05104,0.05103 0.05103,0.05105 0.05105,0.05102 0.05103,0.05106 0.05105,0.05102 0.05103,0.05106 0.05105,0.05103 0.05103,0.05104 0.05104,0.05104 0.05104,0.05104 0.05104,0.05104 0.05104,0.05104 0.05105,0.05104 0.05103,0.05104 0.05104,0.05103 0.05103,0.05105 0.05106,0.05103 0.05102,0.05105 0.05106,0.05103 0.05102,0.05105 0.05106,0.05103 0.05102,0.05104 0.05104,0.05104 0.05104,0.05104 0.05104,0.05104 0.05104,0.05105 0.05105,0.05103 0.05102,0.05104 0.05106,0.05103 0.05102,0.05106 0.05106,0.05102 0.05102,0.05106 0.05106,0.05102 0.05103,0.05106 0.05104,0.05102 0.05104,0.05104 0.05104,0.05104 0.05104,0.05105 0.05104,0.05103 0.05104,0.05105 0.05104,0.05102 0.05103,0.05106 0.05105,0.05102 0.05102,0.05106 0.05106,0.05102 0.05103,0.05106 0.05105,0.05103 0.05103,0.05104 0.05104,0.05104 0.05104,0.05104 0.05104,0.05104 0.05104,0.05104 0.05104,0.05104 0.05103,0.05104 0.05105,0.05103 0.05103,0.05105 0.05106,0.05102 0.05102,0.05106 0.05106,0.05103 0.05102,0.05105 0.05104,0.05103 0.05104,0.05104 0.05104,0.05104 0.05104,0.05104 0.05105,0.05104 0.05104,0.05104 0.05104,0.05103 0.05102,0.05105 0.05106,0.05103 0.05102,0.05106 0.05106,0.05102 0.05102,0.05106 0.05106,0.05102 0.05103,0.05104 0.05104,0.05104 0.05104,0.05104 0.05104,0.05104 0.05104,0.05105 0.05104,0.05104 0.05104,0.05104 0.05104,0.05102 0.05102,0.05106 0.05106,0.05102 0.05103,0.05106 0.05105,0.05103 0.05103,0.05105 0.05104,0.05103 0.05104,0.05104 0.05104,0.05104 0.05104,0.05104 0.05104,0.05104 0.05104,0.05104 0.05104,0.05104 0.05103,0.05104 0.05105,0.05102 0.05103,0.05106 0.05106,0.05103 0.05102,0.05105 0.05106,0.05103 0.05102,0.05104 0.05104,0.05104 0.05104,0.05104 0.05104,0.05104 0.05104,0.05104 0.05105,0.05104 0.05104,0.05104 0.05103,0.05103 0.05103,0.05105 0.05106,0.05103 0.05102,0.05106 0.05106,0.05102 0.05103,0.05106 0.05104,0.05102 0.05104,0.05104 0.05104,0.05104 0.05104,0.05104 0.05104,0.05105 0.05104,0.05104 0.05104,0.05104 0.05102,0.05103 0.05106,0.05103 0.05103,0.05106 0.05105,0.05102 0.05103,0.05106 0.05105,0.05103 0.05103,0.05105 0.05104,0.05103 0.05104,0.05104 0.05104,0.05104 0.05104,0.05104 0.05104,0.05104 0.05105,0.05104 0.05103,0.05102 0.05103,0.05106 0.05105,0.05103 0.05103,0.05105 0.05106,0.05103 0.05102,0.05105 0.05106,0.05103 0.05102,0.05104 0.05104,0.05104 0.05104,0.05104 0.05104,0.05104 0.05104,0.05104 0.05104,0.05105 0.05103,0.05103 0.05106,0.05103 0.05102,0.05105 0.05106,0.05103 0.05103,0.05106 0.05105,0.05102 0.05102,0.05106 0.05105,0.05102 0.05104,0.05104 0.05104,0.05104 0.05104,0.05104 0.05104,0.05105 0.05104,0.05103 0.05104,0.05103 0.05102,0.05106 0.05106,0.05102 0.05103,0.05106 0.05105,0.05103 0.05103,0.05105 0.05105,0.05103 0.05103,0.05104 0.05104,0.05104 0.05104,0.05104 0.05104,0.05104 0.05104,0.05104 0.05104,0.05104 0.05103,0.05104 0.05105,0.05103 0.05103,0.05105 0.05106,0.05103 0.05102,0.05105 0.05106,0.05103 0.05102,0.05105 0.05104,0.05103 0.05104,0.05104 0.05104,0.05104 0.05104,0.05104 0.05104,0.05104 0.05105,0.05104 0.05104,0.05104 0.05102,0.05104 0.05106,0.05103 0.05103,0.05106 0.05105,0.05102 0.05102,0.05106 0.05106,0.05102 0.05103,0.05104 0.05104,0.05104 0.05104,0.05104 0.05104,0.05104 0.05104,0.05104 0.05104,0.05105 0.05104,0.05104 0.05104,0.05102 0.05102,0.05106 0.05106,0.05103 0.05103,0.05105 0.05105,0.05102 0.05103,0.05106 0.05104,0.05103 0.05104,0.05104 0.05104,0.05104 0.05104,0.05104 0.05104,0.05104 0.05104,0.05104 0.05104,0.05104 0.05103,0.05104 0.05106,0.05103 0.05102,0.05105 0.05105,0.05103 0.05103,0.05105 0.05106,0.05103 0.05102,0.05104 0.05104,0.05104 0.05104,0.05104 0.05104,0.05104 0.05104,0.05104 0.05104,0.05104 0.05105,0.05104 0.05104,0.05103 0.05102,0.05106 0.05106,0.05102 0.05102,0.05106 0.05106,0.05102 0.05102,0.05106 0.05105,0.05102 0.05104,0.05104 0.05104,0.05104 0.05104,0.05104 0.05104,0.05104 0.05104,0.05105 0.05104,0.05104 0.05102,0.05104 0.05106,0.05102 0.05103,0.05106 0.05105,0.05102 0.05103,0.05106 0.05105,0.05102 0.05103,0.05106 0.05104,0.05103 0.05104,0.05104 0.05104,0.05104 0.05104,0.05104 0.05104,0.05104 0.05104,0.05104 0.05104,0.05102 0.05103,0.05106 0.05105,0.05103 0.05103,0.05105 0.05105,0.05103 0.05103,0.05105 0.05106,0.05103 0.05102,0.05104 0.05104,0.05104 0.05104,0.05104 0.05104,0.05104 0.05104,0.05104 0.05104,0.05104 0.05103,0.05105 0.05106,0.05102 0.05102,0.05105 0.05106,0.05103 0.05102,0.05106 0.05106,0.05102 0.05102,0.05106 0.05104,0.05102 0.05105,0.05104 0.05104,0.05104 0.05104,0.05104 0.05104,0.05104 0.05104,0.05105 0.05104,0.05102 0.05102,0.05106 0.05106,0.05102 0.05103,0.05106 0.05105,0.05102 0.05102,0.05106 0.05106,0.05102 0.05103,0.05105 0.05104,0.05104 0.05104,0.05104 0.05104,0.05104 0.05104,0.05104 0.05104,0.05104 0.05103,0.05104 0.05105,0.05102 0.05103,0.05106 0.05105,0.05103 0.05103,0.05105 0.05106,0.05102 0.05102,0.05106 0.05104,0.05103 0.05104,0.05104 0.05104,0.05104 0.05104,0.05104 0.05104,0.05104 0.05104,0.05104 0.05105,0.05104 0.05102,0.05104 0.05106,0.05103 0.05102,0.05105 0.05106,0.05103 0.05102,0.05106 0.05106,0.05102 0.05102,0.05104 0.05105,0.05104 0.05104,0.05104 0.05104,0.05104 0.05104,0.05104 0.05104,0.05104 0.05104,0.05105 0.05104,0.05102 0.05102,0.05106 0.05106,0.05102 0.05102,0.05106 0.05106,0.05102 0.05103,0.05106 0.05104,0.05102 0.05104,0.05105 0.05104,0.05104 0.05104,0.05104 0.05104,0.05104 0.05104,0.05104 0.05104,0.05104 0.05103,0.05104 0.05105,0.05102 0.05103,0.05106 0.05105,0.05102 0.05103,0.05106 0.05106,0.05103 0.05102,0.05104 0.05104,0.05104 0.05104,0.05104 0.05104,0.05104 0.05104,0.05104 0.05104,0.05104 0.05104,0.05104 0.05105,0.05103 0.05102,0.05105 0.05105,0.05103 0.05103,0.05105 0.05106,0.05103 0.05102,0.05106 0.05104,0.05102 0.05105,0.05104 0.05104,0.05104 0.05104,0.05104 0.05104,0.05104 0.05104,0.05104 0.05104,0.05105 0.05102,0.05104 0.05106,0.05102 0.05102,0.05105 0.05106,0.05103 0.05103,0.05106 0.05105,0.05102 0.05103,0.05106 0.05104,0.05103 0.05104,0.05104 0.05104,0.05104 0.05104,0.05104 0.05104,0.05104 0.05104,0.05104 0.05104,0.05102 0.05103,0.05106 0.05105,0.05102 0.05103,0.05106 0.05105,0.05103 0.05103,0.05105 0.05106,0.05103 0.05102,0.05104 0.05104,0.05104 0.05104,0.05104 0.05104,0.05104 0.05104,0.05104 0.05104,0.05104 0.05103,0.05104 0.05105,0.05103 0.05103,0.05105 0.05106,0.05103 0.05102,0.05105 0.05106,0.05103 0.05103,0.05106 0.05103,0.05102 0.05104,0.05104 0.05105,0.05104 0.05104,0.05104 0.05104,0.05104 0.05104,0.05104 0.05104,0.05103 0.05102,0.05105 0.05106,0.05103 0.05102,0.05106 0.05106,0.05102 0.05103,0.05106 0.05105,0.05103 0.05103,0.05103 0.05104,0.05105 0.05104,0.05104 0.05104,0.05104 0.05104,0.05104 0.05104,0.05104 0.05103,0.05104 0.05105,0.05102 0.05103,0.05106 0.05105,0.05103 0.05103,0.05105 0.05106,0.05103 0.05102,0.05105 0.05104,0.05103 0.05104,0.05104 0.05104,0.05104 0.05104,0.05104 0.05104,0.05104 0.05104,0.05104 0.05104,0.05104 0.05103,0.05104 0.05106,0.05103 0.05102,0.05105 0.05106,0.05103 0.05102,0.05106 0.05106,0.05102 0.05102,0.05104 0.05104,0.05104 0.05104,0.05104 0.05105,0.05104 0.05104,0.05104 0.05104,0.05104 0.05104,0.05104 0.05104,0.05103 0.05102,0.05106 0.05106,0.05102 0.05102,0.05106 0.05106,0.05103 0.05103,0.05105 0.05104,0.05102 0.05104,0.05104 0.05104,0.05105 0.05104,0.05104 0.05101,0.05104 0.05104,0.05104 0.05104,0.05104 0.05103,0.05104 0.05105,0.05102 0.05102,0.05106 0.05106,0.05103 0.05103,0.05105 0.05105,0.05103 0.05103,0.05104 0.05104,0.05104 0.05104,0.05104 0.05104,0.05104 0.05104,0.05104 0.05104,0.05104 0.05104,0.05104 0.05104,0.05103 0.05103,0.05105 0.05106,0.05103 0.05102,0.05106 0.05106,0.05102 0.05102,0.05106 0.05104,0.05102 0.05104,0.05104 0.05104,0.05104 0.05104,0.05104 0.05105,0.05104 0.05104,0.05104 0.05104,0.05104 0.05102,0.05105 0.05106,0.05102 0.05102,0.05106 0.05106,0.05102 0.05102,0.05106 0.05106,0.05102 0.05103,0.05106 0.05104,0.05102 0.05104,0.05105 0.05104,0.05104 0.05104,0.05104 0.05104,0.05104 0.05104,0.05104 0.05104,0.05102 0.05102,0.05106 0.05106,0.05102 0.05103,0.05106 0.05105,0.05103 0.05103,0.05105 0.05105,0.05103 0.05103,0.05104 0.05104,0.05104 0.05104,0.05104 0.05104,0.05104 0.05104,0.05104 0.05104,0.05104 0.05103,0.05104 0.05105,0.05103 0.05103,0.05106 0.05106,0.05102 0.05102,0.05105 0.05106,0.05103 0.05102,0.05106 0.05104,0.05102 0.05104,0.05104 0.05104,0.05104 0.05104,0.05104 0.05105,0.05104 0.05104,0.05104 0.05103,0.05103 0.05103,0.05106 0.05106,0.05102 0.05102,0.05106 0.05106,0.05102 0.05103,0.05106 0.05105,0.05102 0.05103,0.05105 0.05104,0.05103 0.05104,0.05105 0.05104,0.05104 0.05104,0.05104 0.05104,0.05104 0.05102,0.05104 0.05106,0.05102 0.05103,0.05106 0.05105,0.05102 0.05103,0.05106 0.05105,0.05103 0.05103,0.05105 0.05104,0.05102 0.05104,0.05105 0.05104,0.05104 0.05104,0.05104 0.05104,0.05104 0.05105,0.05104 0.05103,0.05104 0.05103,0.05104 0.05105,0.05103 0.05103,0.05105 0.05106,0.05103 0.05102,0.05105 0.05106,0.05103 0.05102,0.05104 0.05104,0.05104 0.05104,0.05104 0.05104,0.05104 0.05105,0.05104 0.05103,0.05104 0.05105,0.05104 0.05104,0.05103 0.05102,0.05106 0.05106,0.05102 0.05103,0.05106 0.05105,0.05102 0.05102,0.05106 0.05105,0.05102 0.05104,0.05104 0.05104,0.05104 0.05104,0.05105 0.05104,0.05104 0.05104,0.05104 0.05104,0.05104 0.05102,0.05104 0.05106,0.05102 0.05103,0.05106 0.05105,0.05102 0.05103,0.05106 0.05105,0.05102 0.05103,0.05105 0.05104,0.05104 0.05104,0.05104 0.05104,0.05104 0.05104,0.05104 0.05104,0.05104 0.05104,0.05104 0.05104,0.05103 0.05103,0.05105 0.05106,0.05103 0.05102,0.05105 0.05106,0.05103 0.05102,0.05105 0.05104,0.05103 0.05104,0.05104 0.05104,0.05104 0.05104,0.05104 0.05104,0.05104 0.05105,0.05104 0.05104,0.05104 0.05102,0.05104 0.05106,0.05103 0.05103,0.05106 0.05105,0.05102 0.05102,0.05105 0.05106,0.05103 0.05103,0.05106 0.05104,0.05102 0.05104,0.05104 0.05104,0.05105 0.05104,0.05104 0.05104,0.05104 0.05104,0.05104 0.05104,0.05102 0.05103,0.05106 0.05105,0.05102 0.05103,0.05106 0.05105,0.05102 0.05103,0.05106 0.05105,0.05103 0.05103,0.05104 0.05104,0.05104 0.05104,0.05104 0.05104,0.05104 0.05104,0.05104 0.05104,0.05104 0.05103,0.05104 0.05106,0.05103 0.05102,0.05105 0.05105,0.05103 0.05103,0.05105 0.05106,0.05103 0.05102,0.05105 0.05104,0.05103 0.05104,0.05104 0.05104,0.05104 0.05104,0.05104 0.05104,0.05104 0.05105,0.05104 0.05104,0.05103 0.05102,0.05105 0.05106,0.05103 0.05102,0.05105 0.05106,0.05103 0.05102,0.05106 0.05106,0.05102 0.05103,0.05104 0.05104,0.05105 0.05104,0.05103 0.05104,0.05105 0.05104,0.05104 0.05104,0.05104 0.05102,0.05104 0.05106,0.05102 0.05103,0.05106 0.05105,0.05102 0.05103,0.05106 0.05105,0.05103 0.05103,0.05105 0.05104,0.05103 0.05104,0.05103 0.05104,0.05105 0.05104,0.05104 0.05104,0.05104 0.05104,0.05104 0.05105,0.05104 0.05102,0.05104 0.05105,0.05103 0.05103,0.05105 0.05106,0.05103 0.05102,0.05105 0.05106,0.05103 0.05102,0.05104 0.05104,0.05104 0.05104,0.05104 0.05104,0.05104 0.05104,0.05104 0.05104,0.05104 0.05104,0.05104 0.05105,0.05103 0.05102,0.05105 0.05106,0.05103 0.05102,0.05106 0.05106,0.05102 0.05102,0.05106 0.05104,0.05103 0.05105,0.05103 0.05104,0.05104 0.05104,0.05104 0.05104,0.05105 0.05104,0.05104 0.05104,0.05104 0.05102,0.05104 0.05106,0.05102 0.05103,0.05106 0.05105,0.05102 0.05102,0.05106 0.05106,0.05103 0.05103,0.05103 0.05104,0.05105 0.05104,0.05104 0.05104,0.05104 0.05104,0.05104 0.05104,0.05104 0.05104,0.05104 0.05104,0.05103 0.05103,0.05105 0.05105,0.05103 0.05103,0.05105 0.05106,0.05103 0.05102,0.05106 0.05104,0.05102 0.05104,0.05104 0.05104,0.05104 0.05104,0.05104 0.05104,0.05104 0.05104,0.05104 0.05105,0.05104 0.05102,0.05104 0.05106,0.05103 0.05102,0.05106 0.05106,0.05102 0.05102,0.05106 0.05106,0.05102 0.05102,0.05106 0.05105,0.05102 0.05104,0.05104 0.05104,0.05104 0.05104,0.05105 0.05104,0.05104 0.05104,0.05104 0.05104,0.05102 0.05102,0.05106 0.05106,0.05102 0.05102,0.05106 0.05106,0.05102 0.05103,0.05106 0.05105,0.05103 0.05103,0.05104 0.05104,0.05104 0.05104,0.05104 0.05104,0.05104 0.05104,0.05104 0.05104,0.05104 0.05103,0.05104 0.05105,0.05103 0.05103,0.05105 0.05105,0.05103 0.05103,0.05106 0.05106,0.05102 0.05102,0.05105 0.05104,0.05103 0.05104,0.05104 0.05104,0.05104 0.05104,0.05104 0.05104,0.05104 0.05104,0.05104 0.05105,0.05103 0.05102,0.05105 0.05105,0.05103 0.05103,0.05106 0.05106,0.05102 0.05102,0.05106 0.05106,0.05102 0.05103,0.05104 0.05104,0.05104 0.05104,0.05105 0.05104,0.05103 0.05104,0.05105 0.05104,0.05104 0.05102,0.05104 0.05106,0.05102 0.05102,0.05106 0.05106,0.05102 0.05103,0.05106 0.05105,0.05102 0.05103,0.05106 0.05104,0.05103 0.05104,0.05104 0.05104,0.05103 0.05104,0.05105 0.05104,0.05104 0.05104,0.05104 0.05104,0.05104 0.05103,0.05104 0.05105,0.05103 0.05103,0.05105 0.05105,0.05103 0.05103,0.05105 0.05106,0.05103 0.05102,0.05104 0.05104,0.05104 0.05104,0.05104 0.05104,0.05104 0.05104,0.05104 0.05104,0.05104 0.05104,0.05104 0.05104,0.05103 0.05103,0.05105 0.05106,0.05103 0.05102,0.05106 0.05106,0.05102 0.05103,0.05106 0.05103,0.05102 0.05104,0.05105 0.05105,0.05103 0.05104,0.05104 0.05104,0.05104 0.05104,0.05105 0.05104,0.05104 0.05102,0.05104 0.05106,0.05102 0.05102,0.05106 0.05106,0.05102 0.05103,0.05106 0.05105,0.05102 0.05103,0.05105 0.05104,0.05103 0.05104,0.05105 0.05104,0.05104 0.05104,0.05104 0.05104,0.05104 0.05104,0.05104 0.05104,0.05102 0.05103,0.05106 0.05105,0.05103 0.05103,0.05105 0.05106,0.05103 0.05102,0.05105 0.05104,0.05103 0.05104,0.05104 0.05104,0.05104 0.05104,0.05104 0.05104,0.05104 0.05104,0.05104 0.05104,0.05104 0.05103,0.05104 0.05106,0.05103 0.05102,0.05105 0.05106,0.05103 0.05103,0.05106 0.05105,0.05102 0.05102,0.05105 0.05104,0.05103 0.05105,0.05104 0.05104,0.05104 0.05104,0.05104 0.05104,0.05105 0.05104,0.05104 0.05104,0.05102 0.05102,0.05106 0.05106,0.05102 0.05103,0.05106 0.05105,0.05102 0.05103,0.05106 0.05105,0.05102 0.05103,0.05105 0.05104,0.05104 0.05104,0.05104 0.05104,0.05104 0.05104,0.05104 0.05104,0.05104 0.05103,0.05104 0.05105,0.05102 0.05103,0.05106 0.05106,0.05103 0.05102,0.05105 0.05105,0.05103 0.05103,0.05105 0.05104,0.05103 0.05104,0.05104 0.05104,0.05104 0.05104,0.05104 0.05104,0.05104 0.05104,0.05104 0.05104,0.05103 0.05103,0.05105 0.05106,0.05103 0.05102,0.05105 0.05106,0.05103 0.05102,0.05105 0.05106,0.05103 0.05102,0.05104 0.05105,0.05104 0.05104,0.05104 0.05104,0.05105 0.05104,0.05103 0.05104,0.05105 0.05102,0.05104 0.05106,0.05102 0.05102,0.05106 0.05106,0.05102 0.05103,0.05106 0.05105,0.05102 0.05103,0.05106 0.05104,0.05103 0.05104,0.05104 0.05104,0.05104 0.05104,0.05103 0.05104,0.05105 0.05104,0.05104 0.05104,0.05104 0.05103,0.05104 0.05105,0.05103 0.05103,0.05105 0.05105,0.05103 0.05103,0.05105 0.05105,0.05103 0.05103,0.05104 0.05104,0.05104 0.05104,0.05104 0.05104,0.05104 0.05104,0.05104 0.05104,0.05104 0.05104,0.05104 0.05104,0.05103 0.05103,0.05105 0.05106,0.05103 0.05102,0.05105 0.05106,0.05103 0.05102,0.05106 0.05105,0.05102 0.05103,0.05104 0.05104,0.05105 0.05105,0.05103 0.05104,0.05104 0.05104,0.05104 0.05104,0.05105 0.05102,0.05104 0.05106,0.05102 0.05102,0.05106 0.05106,0.05102 0.05103,0.05106 0.05105,0.05102 0.05102,0.05104 0.05105,0.05105 0.05104,0.05103 0.05104,0.05105 0.05104,0.05104 0.05104,0.05104 0.05104,0.05104 0.05104,0.05103 0.05103,0.05105 0.05105,0.05103 0.05103,0.05105 0.05105,0.05103 0.05103,0.05105 0.05104,0.05103 0.05104,0.05104 0.05104,0.05104 0.05104,0.05104 0.05104,0.05104 0.05104,0.05104 0.05104,0.05104 0.05103,0.05104 0.05106,0.05103 0.05102,0.05105 0.05106,0.05103 0.05102,0.05105 0.05106,0.05103 0.05102,0.05106 0.05104,0.05102 0.05104,0.05104 0.05105,0.05104 0.05104,0.05104 0.05104,0.05104 0.05104,0.05105 0.05104,0.05102 0.05102,0.05106 0.05106,0.05102 0.05102,0.05106 0.05106,0.05102 0.05102,0.05106 0.05106,0.05102 0.05103,0.05104 0.05104,0.05105 0.05104,0.05104 0.05104,0.05104 0.05104,0.05104 0.05104,0.05104 0.05103,0.05104 0.05105,0.05102 0.05103,0.05106 0.05105,0.05103 0.05103,0.05105 0.05105,0.05103 0.05103,0.05106 0.05104,0.05102 0.05104,0.05104 0.05104,0.05104 0.05104,0.05104 0.05104,0.05104 0.05104,0.05104 0.05104,0.05103 0.05103,0.05105 0.05106,0.05103 0.05102,0.05105 0.05105,0.05103 0.05103,0.05106 0.05106,0.05102 0.05102,0.05104 0.05104,0.05104 0.05105,0.05104 0.05104,0.05104 0.05104,0.05105 0.05104,0.05103 0.05102,0.05105 0.05106,0.05102"
       style="fill:none;stroke:#b39af0;stroke-width:0.99628;stroke-linecap:butt;stroke-linejoin:miter;stroke-miterlimit:10;stroke-dasharray:none;stroke-opacity:1"
       transform="matrix(1.3333333,0,0,-1.3333333,248.85733,132.27867)" />
    <path
       id="path18"
       d="m 28.3468,70.867 0.02811,-0.16868 0.02811,-0.16739 0.02812,-0.16739 0.0281,-0.16611 0.02814,-0.16609 0.02811,-0.16479 0.02811,-0.16435 0.02812,-0.16395 0.0281,-0.16307 0.02812,-0.1622 0.02811,-0.16177 0.02812,-0.16091 0.02813,-0.16046 0.0281,-0.16004 0.02812,-0.15874 0.02811,-0.15874 0.02812,-0.15788 0.02811,-0.157 0.02812,-0.15659 0.02811,-0.15571 0.02811,-0.15572 0.02813,-0.15442 0.02811,-0.15397 0.02812,-0.15313 0.02811,-0.15268 0.02812,-0.15226 0.02811,-0.15181 0.0281,-0.1501 0.02812,-0.15052 0.02811,-0.14921 0.02814,-0.14925 0.02811,-0.14792 0.02812,-0.14792 0.0281,-0.14665 0.02811,-0.14706 0.02812,-0.14532 0.02811,-0.14489 0.02812,-0.14491 0.02811,-0.1436 0.02813,-0.14362 0.02811,-0.14273 0.02811,-0.1423 0.02812,-0.14101 0.02811,-0.141 0.02812,-0.14014 0.02811,-0.13971 0.02812,-0.13884 0.02812,-0.13841 0.02811,-0.13756 0.02812,-0.13754 0.0281,-0.13668 0.02813,-0.13583 0.0281,-0.13538 0.02812,-0.13496 0.02811,-0.13364 0.02811,-0.13409 0.02814,-0.1328 0.0281,-0.13234 0.02812,-0.13192 0.02811,-0.13108 0.02812,-0.13062 0.02811,-0.1302 0.02811,-0.12933 0.02812,-0.12889 0.02811,-0.12847 0.02814,-0.12759 0.0281,-0.12717 0.02812,-0.12629 0.02811,-0.1263 0.0281,-0.12546 0.02813,-0.125 0.0281,-0.12413 0.02813,-0.12326 0.0281,-0.12329 0.02814,-0.12241 0.02811,-0.12196 0.0281,-0.12157 0.02812,-0.12066 0.02811,-0.12026 0.02813,-0.11979 0.0281,-0.11896 0.02812,-0.11894 0.02812,-0.11765 0.02811,-0.11722 0.02812,-0.11679 0.02811,-0.11635 0.02812,-0.11636 0.0281,-0.11505 0.02813,-0.11462 0.02811,-0.1142 0.0281,-0.11331 0.02814,-0.1129 0.02811,-0.11246 0.02812,-0.11201 0.02811,-0.11118 0.02812,-0.11116 0.0281,-0.11031 0.02811,-0.10986 0.02812,-0.10899 0.02811,-0.10857 0.02814,-0.10814 0.0281,-0.10769 0.02813,-0.10727 0.0281,-0.1064 0.02811,-0.10598 0.02812,-0.10554 0.02811,-0.10468 0.02812,-0.10466 0.02811,-0.10382 0.02813,-0.10338 0.02811,-0.10293 0.02811,-0.10209 0.02812,-0.10207 0.02811,-0.10123 0.02812,-0.10077 0.0281,-0.10034 0.02813,-0.09949 0.02812,-0.0995 0.0281,-0.0986 0.02813,-0.0982 0.0281,-0.09774 0.02812,-0.0969 0.02811,-0.09689 0.02812,-0.09601 0.02811,-0.09559 0.02811,-0.09517 0.02813,-0.09471 0.02811,-0.09388 0.02812,-0.09385 0.02811,-0.093 0.02812,-0.09299 0.02811,-0.09213 0.0281,-0.09171 0.02813,-0.09083 0.0281,-0.09083 0.02814,-0.09039 0.02811,-0.08954 0.02812,-0.08954 0.02811,-0.08824 0.0281,-0.08822 0.02812,-0.08826 0.02811,-0.08693 0.02812,-0.08695 0.02811,-0.08607 0.02814,-0.08607 0.0281,-0.08565 0.02811,-0.08434 0.02812,-0.08477 0.02811,-0.08349 0.02812,-0.08391 0.02811,-0.08305 0.02812,-0.08261 0.02812,-0.08175 0.02811,-0.08175 0.02812,-0.08088 0.02811,-0.08089 0.02812,-0.08003 0.02811,-0.08 0.02812,-0.07917 0.0281,-0.07872 0.02811,-0.07829 0.02814,-0.07828 0.0281,-0.07742 0.02813,-0.077 0.0281,-0.07655 0.02813,-0.07614 0.0281,-0.07568 0.02811,-0.07483 0.02812,-0.07485 0.02811,-0.07438 0.02813,-0.07396 0.02811,-0.07354 0.02813,-0.0731 0.0281,-0.07223 0.0281,-0.07224 0.02813,-0.07179 0.02811,-0.07138 0.02812,-0.0705 0.0281,-0.07049 0.02814,-0.06965 0.02811,-0.06964 0.0281,-0.0692 0.02813,-0.06878 0.0281,-0.06835 0.02813,-0.0679 0.0281,-0.06705 0.02813,-0.06703 0.02812,-0.06662 0.0281,-0.06618 0.02812,-0.06574 0.02811,-0.06533 0.02812,-0.06443 0.02811,-0.06489 0.02812,-0.06401 0.02811,-0.06358 0.02811,-0.06316 0.02813,-0.06271 0.02811,-0.06273 0.02812,-0.06184 0.02811,-0.06142 0.02812,-0.06142 0.02811,-0.06057 0.0281,-0.06055 0.02812,-0.06012 0.02811,-0.05925 0.02814,-0.05926 0.02811,-0.05884 0.02812,-0.05838 0.0281,-0.05796 0.02811,-0.05754 0.02812,-0.05752 0.02811,-0.05666 0.02812,-0.05665 0.02811,-0.05581 0.02814,-0.0558 0.0281,-0.05536 0.02811,-0.0545 0.02812,-0.05493 0.02811,-0.05406 0.02812,-0.05364 0.02811,-0.05365 0.02812,-0.05276 0.02812,-0.05277 0.02811,-0.05234 0.02812,-0.05191 0.02811,-0.05146 0.02812,-0.05147 0.0281,-0.05062 0.02813,-0.05016 0.0281,-0.05018 0.02811,-0.04974 0.02814,-0.04932 0.0281,-0.04887 0.02812,-0.04843 0.02811,-0.04845 0.02812,-0.04802 0.02811,-0.04758 0.02811,-0.04714 0.02812,-0.04671 0.02811,-0.04672 0.02813,-0.04584 0.02811,-0.04585 0.02812,-0.04543 0.02811,-0.04498 0.0281,-0.04499 0.02813,-0.04411 0.0281,-0.04411 0.02812,-0.0437 0.02811,-0.04369 0.02814,-0.04282 0.02811,-0.04281 0.0281,-0.04196 0.02812,-0.04239 0.02811,-0.04196 0.02812,-0.0411 0.02811,-0.04109 0.02812,-0.04065 0.02812,-0.04022 0.02811,-0.04022 0.02813,-0.0398 0.0281,-0.03936 0.02812,-0.03893 0.02811,-0.03894 0.02812,-0.03848 0.02811,-0.03765 0.0281,-0.03805 0.02814,-0.03764 0.0281,-0.03719 0.02813,-0.03676 0.02811,-0.03634 0.02812,-0.03634 0.0281,-0.0359 0.02811,-0.03546 0.02813,-0.03546 0.0281,-0.03505 0.02814,-0.03459 0.0281,-0.03461 0.02813,-0.03374 0.0281,-0.03373 0.02811,-0.03374 0.02812,-0.03331 0.0281,-0.03287 0.02813,-0.03244 0.02811,-0.03244 0.02813,-0.03201 0.02811,-0.03157 0.02811,-0.03159 0.02812,-0.03113 0.02811,-0.03073 0.02812,-0.0307 0.0281,-0.03027 0.02813,-0.02985 0.02812,-0.02985 0.02811,-0.02941 0.02812,-0.02942 0.0281,-0.02854 0.02813,-0.02899 0.0281,-0.02811 0.02812,-0.02812 0.02811,-0.02768 0.02811,-0.02768 0.02813,-0.02725 0.02811,-0.02681 0.02812,-0.02681 0.02811,-0.0264 0.02812,-0.02595 0.02811,-0.02594 0.02811,-0.02596 0.02812,-0.0251 0.0281,-0.02551 0.02814,-0.02464 0.02811,-0.02466 0.02812,-0.02466 0.02811,-0.0238 0.0281,-0.02379 0.02812,-0.02377 0.02811,-0.02336 0.02812,-0.02294 0.02811,-0.02292 0.02814,-0.02292 0.0281,-0.02206 0.02811,-0.02248 0.02812,-0.02163 0.02811,-0.02164 0.02812,-0.02162 0.02811,-0.0212 0.02812,-0.02075 0.02812,-0.02077 0.02811,-0.02032 0.02812,-0.02034 0.02811,-0.02033 0.02812,-0.01945 0.02811,-0.01949 0.02812,-0.01945 0.0281,-0.01903 0.02811,-0.01904 0.02814,-0.01859 0.02811,-0.01861 0.02812,-0.01816 0.0281,-0.01773 0.02812,-0.01773 0.02811,-0.01774 0.02811,-0.01731 0.02812,-0.0173 0.02811,-0.01685 0.02813,-0.01645 0.02811,-0.01643 0.02812,-0.01644 0.02811,-0.016 0.02811,-0.01601 0.02812,-0.01558 0.02811,-0.01556 0.02812,-0.01514 0.0281,-0.01513 0.02814,-0.01472 0.02811,-0.01471 0.0281,-0.0147 0.02813,-0.01427 0.0281,-0.01384 0.02813,-0.01384 0.0281,-0.01384 0.02812,-0.01341 0.02813,-0.0134 0.0281,-0.01299 0.02812,-0.01298 0.02811,-0.01297 0.02813,-0.01254 0.0281,-0.01212 0.02812,-0.01254 0.02811,-0.01212 0.02811,-0.01167 0.02813,-0.01167 0.02811,-0.01125 0.02812,-0.01167 0.02811,-0.01084 0.02812,-0.01123 0.02811,-0.01081 0.0281,-0.01038 0.02813,-0.01082 0.0281,-0.01039 0.02814,-0.0099 0.02811,-0.01 0.02812,-0.0099 0.0281,-0.0095 0.02811,-0.0095 0.02812,-0.0091 0.02811,-0.0095 0.02812,-0.0091 0.02811,-0.0087 0.02814,-0.0087 0.0281,-0.0087 0.02811,-0.0086 0.02812,-0.0082 0.02811,-0.0078 0.02812,-0.0082 0.02811,-0.0078 0.02812,-0.0078 0.02812,-0.0073 0.02811,-0.0074 0.02812,-0.0074 0.02811,-0.0074 0.02812,-0.0069 0.0281,-0.0069 0.02813,-0.0065 0.0281,-0.0065 0.02811,-0.0065 0.02814,-0.0065 0.0281,-0.0061 0.02813,-0.0061 0.0281,-0.006 0.02812,-0.0056 0.02811,-0.006 0.02811,-0.0056 0.02812,-0.0052 0.02811,-0.0052 0.02813,-0.0056 0.02811,-0.0048 0.02812,-0.0052 0.02811,-0.0048 0.02811,-0.0048 0.02812,-0.0048 0.0281,-0.0043 0.02813,-0.0043 0.02812,-0.0043 0.02812,-0.0043 0.02811,-0.0043 0.0281,-0.0039 0.02812,-0.0039 0.02811,-0.0039 0.02812,-0.0035 0.02811,-0.0039 0.02812,-0.0035 0.02812,-0.0035 0.02811,-0.003 0.02812,-0.0035 0.02811,-0.003 0.02812,-0.003 0.02811,-0.003 0.02812,-0.0026 0.02811,-0.003 0.0281,-0.0026 0.02814,-0.0026 0.02811,-0.0026 0.02812,-0.0022 0.02811,-0.0026 0.02812,-0.0022 0.0281,-0.0022 0.02811,-0.0022 0.02812,-0.0022 0.02811,-0.0017 0.02814,-0.0022 0.0281,-0.0017 0.02813,-0.0017 0.02811,-0.0017 0.0281,-0.0017 0.02812,-0.0017 0.02811,-0.0013 0.02812,-0.0013 0.02812,-0.0017 0.02813,-0.0013 0.0281,-0.0013 0.0281,-8.6e-4 0.02813,-0.0013 0.02811,-8.7e-4 0.02812,-0.0013 0.0281,-8.7e-4 0.02813,-8.7e-4 0.02812,-8.7e-4 0.0281,-8.7e-4 0.02813,-8.6e-4 0.0281,-8.7e-4 0.02813,-8.7e-4 0.0281,-4.2e-4 0.02813,-8.7e-4 0.0281,-4.3e-4 0.0281,-4.3e-4 0.02814,-4.2e-4 0.02811,-4.4e-4 0.02812,-4.3e-4 0.02811,-4.5e-4 0.02812,-4.2e-4 0.02811,-4.5e-4 0.02811,-4.2e-4 h 0.02812 l 0.0281,-4.5e-4 h 0.02814 l 0.02811,-4.1e-4 h 0.02812 l 0.02811,-4.4e-4 h 0.0281 0.02813 l 0.0281,-4.3e-4 h 0.02812 0.02813 0.02812 0.0281 0.02811 0.02812 0.02811 0.02812 0.02811 0.02812 0.02812 0.02811 0.02812 0.02811 0.02812 0.02811 0.02812 0.0281 0.02811 0.02814 0.02811 0.02812 0.0281 0.02813 l 0.0281,-4.2e-4 h 0.02811 0.02812 l 0.02811,-4.5e-4 h 0.02813 0.02811 l 0.02812,-4.3e-4 h 0.02811 l 0.02811,-4.4e-4 0.02812,-4.2e-4 0.02811,-4.4e-4 h 0.02812 l 0.02812,-4.2e-4 0.02812,-4.4e-4 0.02811,-4.3e-4 0.02811,-8.7e-4 0.02812,-4.3e-4 0.0281,-4.4e-4 0.02812,-8.7e-4 0.02811,-4.2e-4 0.02812,-8.6e-4 0.02813,-4.4e-4 0.0281,-8.7e-4 0.02812,-8.6e-4 0.02811,-8.7e-4 0.02812,-8.5e-4 0.02811,-8.7e-4 0.02812,-0.0013 0.02811,-8.6e-4 0.02811,-0.0013 0.02814,-0.0013 0.0281,-0.0013 0.02812,-0.0013 0.02811,-0.0013 0.02812,-0.0013 0.02811,-0.0017 0.0281,-0.0013 0.02813,-0.0017 0.0281,-0.0017 0.02814,-0.0017 0.02811,-0.0017 0.02812,-0.0017 0.0281,-0.0022 0.02811,-0.0022 0.02813,-0.0022 0.0281,-0.0022 0.02812,-0.0022 0.02812,-0.0022 0.02813,-0.0026 0.0281,-0.0026 0.02811,-0.0026 0.02812,-0.0026 0.02811,-0.0026 0.02812,-0.003 0.02811,-0.0026 0.02812,-0.003 0.02812,-0.0035 0.02811,-0.003 0.02812,-0.0035 0.02811,-0.003 0.02812,-0.0035 0.0281,-0.0039 0.02813,-0.0035 0.0281,-0.0039 0.02811,-0.0039 0.02814,-0.0039 0.0281,-0.0039 0.02813,-0.0043 0.0281,-0.0043 0.02812,-0.0043 0.02811,-0.0048 0.02811,-0.0043 0.02812,-0.0048 0.02811,-0.0048 0.02813,-0.0052 0.02811,-0.0052 0.02811,-0.0048 0.02812,-0.0056 0.02811,-0.0052 0.02812,-0.0056 0.0281,-0.0056 0.02813,-0.0061 0.02812,-0.0056 0.0281,-0.0061 0.02813,-0.0065 0.0281,-0.006 0.02813,-0.0065 0.0281,-0.0065 0.02812,-0.0069 0.02811,-0.0065 0.02811,-0.0069 0.02813,-0.0074 0.02811,-0.0069 0.02812,-0.0073 0.02811,-0.0078 0.02812,-0.0073 0.02811,-0.0082 0.02811,-0.0078 0.02812,-0.0082 0.0281,-0.0082 0.02814,-0.0082 0.02811,-0.0087 0.02812,-0.0086 0.02811,-0.0087 0.0281,-0.0091 0.02812,-0.0091 0.02811,-0.0095 0.02812,-0.0095 0.02811,-0.0095 0.02814,-0.0095 0.0281,-0.01 0.02811,-0.01037 0.02812,-0.01039 0.02811,-0.01038 0.02812,-0.01039 0.02811,-0.0108 0.02812,-0.01081 0.02812,-0.01126 0.02811,-0.01125 0.02812,-0.01124 0.02811,-0.0121 0.02812,-0.01169 0.02811,-0.0121 0.02812,-0.01211 0.0281,-0.01212 0.02811,-0.01254 0.02814,-0.01255 0.02811,-0.01297 0.02812,-0.01298 0.0281,-0.01341 0.02813,-0.0134 0.0281,-0.01386 0.02811,-0.01382 0.02812,-0.01385 0.02811,-0.01427 0.02813,-0.01471 0.02811,-0.01427 0.02813,-0.01471 0.0281,-0.01513 0.0281,-0.01514 0.02813,-0.01558 0.02811,-0.01556 0.02812,-0.01601 0.0281,-0.01601 0.02814,-0.016 0.02811,-0.01644 0.0281,-0.01687 0.02813,-0.01686 0.0281,-0.01688 0.02813,-0.01729 0.0281,-0.01774 0.02813,-0.01774 0.02812,-0.01773 0.0281,-0.01817 0.02812,-0.01858 0.02811,-0.01818 0.02812,-0.01903 0.02811,-0.01904 0.02812,-0.01945 0.02811,-0.01947 0.02811,-0.01946 0.02813,-0.0199 0.02811,-0.02032 0.02812,-0.02034 0.02811,-0.02075 0.02812,-0.02077 0.02811,-0.02119 0.0281,-0.0212 0.02813,-0.02164 0.0281,-0.02204 0.02814,-0.02207 0.02811,-0.02205 0.02812,-0.0225 0.0281,-0.02292 0.02811,-0.02336 0.02812,-0.02337 0.02811,-0.02334 0.02812,-0.02379 0.02811,-0.02422 0.02814,-0.02423 0.0281,-0.02465 0.02811,-0.02465 0.02812,-0.0251 0.02811,-0.02551 0.02812,-0.02553 0.02811,-0.02594 0.02812,-0.02596 0.02812,-0.02639 0.02811,-0.02681 0.02812,-0.02681 0.02811,-0.02727 0.02812,-0.02724 0.0281,-0.02768 0.02813,-0.02812 0.0281,-0.02812 0.02811,-0.02855 0.02814,-0.02896 0.0281,-0.02899 0.02812,-0.0294 0.02811,-0.02986 0.02812,-0.02985 0.02811,-0.03028 0.02811,-0.03027 0.02812,-0.0307 0.02811,-0.03116 0.02813,-0.03157 0.02811,-0.03157 0.02812,-0.03201 0.02811,-0.032 0.02811,-0.03244 0.02812,-0.03287 0.0281,-0.03331 0.02812,-0.03331 0.02811,-0.03373 0.02814,-0.03417 0.02811,-0.03418 0.0281,-0.03461 0.02812,-0.03503 0.02811,-0.03504 0.02812,-0.0359 0.02811,-0.03546 0.02812,-0.03633 0.02812,-0.03677 0.02811,-0.03634 0.02813,-0.0372 0.0281,-0.0372 0.02812,-0.03807 0.02811,-0.03804 0.02812,-0.03851 0.02811,-0.03848 0.0281,-0.03894 0.02814,-0.03936 0.0281,-0.0398 0.02813,-0.03979 0.02811,-0.04022 0.02812,-0.04066 0.0281,-0.0411 0.02811,-0.04109 0.02813,-0.04152 0.0281,-0.04239 0.02814,-0.04196 0.0281,-0.04239 0.02813,-0.04324 0.0281,-0.04326 0.02811,-0.04368 0.02812,-0.04369 0.02811,-0.04456 0.02812,-0.04454 0.02811,-0.04498 0.02813,-0.04543 0.02811,-0.04585 0.02811,-0.04585 0.02812,-0.04626 0.02811,-0.04717 0.02812,-0.04671 0.0281,-0.04757 0.02813,-0.04758 0.02812,-0.04845 0.02811,-0.04844 0.02812,-0.04888 0.0281,-0.0493 0.02813,-0.04974 0.0281,-0.04975 0.02812,-0.05059 0.02811,-0.05062 0.02811,-0.05105 0.02813,-0.05147 0.02811,-0.05147 0.02812,-0.05234 0.02811,-0.05278 0.02812,-0.05276 0.02811,-0.05321 0.02811,-0.05363 0.02812,-0.05405 0.0281,-0.0545 0.02814,-0.05494 0.02811,-0.05537 0.02812,-0.05536 0.02811,-0.0558 0.0281,-0.05666 0.02813,-0.05667 0.0281,-0.0571 0.02812,-0.05752 0.02811,-0.05796 0.02814,-0.05795 0.0281,-0.05884 0.02811,-0.05926 0.02812,-0.05925 0.02811,-0.06012 0.02812,-0.06014 0.02811,-0.06054 0.02812,-0.06142 0.02812,-0.06143 0.02811,-0.06185 0.02812,-0.06227 0.02811,-0.06273 0.02812,-0.06314 0.02811,-0.06359 0.02812,-0.06401 0.0281,-0.06444 0.02811,-0.06447 0.02814,-0.06531 0.02811,-0.06575 0.02812,-0.06616 0.0281,-0.06618 0.02812,-0.06706 0.02811,-0.06703 0.02811,-0.06748 0.02812,-0.06834 0.02811,-0.06833 0.02814,-0.06921 0.0281,-0.0692 0.02812,-0.07009 0.02811,-0.07049 0.02811,-0.07051 0.02812,-0.07137 0.02811,-0.07138 0.02812,-0.07179 0.0281,-0.07267 0.02814,-0.07267 0.02811,-0.07353 0.02811,-0.07395 0.02812,-0.07397 0.0281,-0.07483 0.02813,-0.07527 0.0281,-0.07526 0.02812,-0.07611 0.02813,-0.07614 0.0281,-0.077 0.02812,-0.07742 0.02811,-0.07785 0.02813,-0.0783 0.0281,-0.07871 0.02812,-0.07915 0.02811,-0.07961 0.02811,-0.08 0.02813,-0.08088 0.02811,-0.08089 0.02812,-0.08174 0.02811,-0.08176 0.02812,-0.08218 0.02811,-0.08306 0.0281,-0.08305 0.02813,-0.08434 0.0281,-0.08433 0.02814,-0.08437 0.02811,-0.08563 0.02812,-0.08565 0.0281,-0.08607 0.02811,-0.0865 0.02812,-0.08738 0.02811,-0.0878 0.02812,-0.08824 0.02811,-0.08824 0.02814,-0.08909 0.0281,-0.08954 0.02811,-0.08997 0.02812,-0.09083 0.02811,-0.09084 0.02812,-0.0917 0.02811,-0.09212 0.02812,-0.09256 0.02812,-0.093 0.02811,-0.09343 0.02812,-0.09388 0.02811,-0.09471 0.02812,-0.09515 0.0281,-0.09517 0.02813,-0.09601 0.0281,-0.09691 0.02811,-0.09687 0.02814,-0.09777 0.0281,-0.09775 0.02813,-0.09862 0.0281,-0.09905 0.02812,-0.09947 0.02811,-0.10036 0.02811,-0.10077 0.02812,-0.10121 0.02811,-0.10166 0.02813,-0.10208 0.02811,-0.10293 0.02812,-0.10295 0.02811,-0.10381 0.02811,-0.10425 0.02812,-0.10466 0.0281,-0.10554 0.02813,-0.10598 0.0281,-0.10597 0.02814,-0.10727 0.02811,-0.10771 0.0281,-0.1077 0.02812,-0.10856 0.02811,-0.10944 0.02812,-0.10942 0.02811,-0.10986 0.02812,-0.11074 0.02812,-0.11117 0.02811,-0.11203 0.02812,-0.11246 0.02811,-0.11288 0.02812,-0.11333 0.02811,-0.11375 0.02812,-0.11463 0.02811,-0.11506 0.0281,-0.11591 0.02814,-0.11592 0.02811,-0.11679 0.02812,-0.1172 0.02811,-0.11811 0.02812,-0.1185 0.0281,-0.11851 0.02811,-0.11981 0.02812,-0.11983 0.02811,-0.12067 0.02814,-0.12153 0.0281,-0.122 0.02813,-0.12198 0.02811,-0.12327 0.0281,-0.12327 0.02812,-0.12414 0.02811,-0.12456 0.02812,-0.12544 0.02811,-0.12587 0.02814,-0.12629 0.0281,-0.12675 0.0281,-0.1276 0.02813,-0.12845 0.02811,-0.12848 0.02812,-0.12932 0.0281,-0.13019 0.02813,-0.13019 0.02812,-0.13107 0.02811,-0.13148 0.02812,-0.13279 0.0281,-0.13237 0.02813,-0.13365 0.0281,-0.13408 0.02813,-0.13495 0.0281,-0.13452 0.0281,-0.13626 0.02814,-0.13669 0.02811,-0.13667 0.02812,-0.13797 0.02811,-0.138 0.02812,-0.13884 0.02811,-0.13927 0.02811,-0.14015 0.02812,-0.141 0.0281,-0.14101 0.02814,-0.14186 0.02811,-0.14275 0.02812,-0.14316 0.02811,-0.14361 0.0281,-0.14447 0.02813,-0.1449 0.0281,-0.14577 0.02812,-0.14619 0.02811,-0.14707 0.02814,-0.1475 0.0281,-0.14748 0.02811,-0.1488 0.02812,-0.14965 0.02811,-0.1501 0.02812,-0.15052 0.02811,-0.1514 0.02812,-0.1518 0.02812,-0.15226 0.02811,-0.15357 0.02812,-0.15353 0.02811,-0.15442 0.02812,-0.15527 0.02811,-0.15572 0.02812,-0.15616 0.0281,-0.15699 0.02811,-0.15789 0.02814,-0.15831 0.02811,-0.15918 0.02812,-0.15961 0.0281,-0.16003 0.02813,-0.1609 0.0281,-0.16178 0.02811,-0.1622 0.02812,-0.16263 0.02811,-0.16349 0.02813,-0.16437 0.02811,-0.16522 0.02812,-0.16524 0.02811,-0.16609 0.02811,-0.16696 0.02812,-0.1674 0.02811,-0.1687"
       style="fill:none;stroke:#b39af0;stroke-width:0.99628;stroke-linecap:butt;stroke-linejoin:miter;stroke-miterlimit:10;stroke-dasharray:none;stroke-opacity:1"
       transform="matrix(1.3333333,0,0,-1.3333333,248.85733,132.27867)" />
    <path
       id="path19"
       d="m 56.69362,14.17339 0.0255,1.05583 0.02552,0.61938 0.02553,0.51775 0.02551,0.45115 0.02552,0.45934 0.02553,0.37068 0.02551,0.36811 0.02553,0.35554 0.02551,0.4014 0.02552,0.29931 0.02552,0.29845 0.02553,0.29845 0.02551,0.28722 0.02551,0.28503 0.02553,0.27467 0.02553,0.27379 0.02551,0.26126 0.02551,0.37328 0.02553,0.22665 0.02553,0.23918 0.02549,0.22579 0.02554,0.2366 0.02552,0.22665 0.02553,0.22577 0.0255,0.21369 0.02553,0.22319 0.02552,0.22448 0.02552,0.21237 0.02551,0.21195 0.02553,0.21152 0.02553,0.21107 0.02551,0.2007 0.02551,0.21065 0.02553,0.19811 0.02551,0.38539 0.02553,0.18728 0.02551,0.17647 0.02553,0.17519 0.02551,0.17604 0.02553,0.17389 0.02551,0.17387 0.02552,0.17474 0.02552,0.17302 0.02553,0.17475 0.02552,0.17215 0.02551,0.1622 0.02553,0.17172 0.02552,0.17258 0.0255,0.16133 0.02553,0.17042 0.02553,0.16046 0.02553,0.17 0.02549,0.15961 0.02553,0.15961 0.02553,0.15875 0.02551,0.15873 0.02551,0.15874 0.02553,0.15615 0.02553,0.15788 0.02552,0.15743 0.0255,0.15702 0.02553,0.14533 0.02552,0.15658 0.02552,0.15615 0.02552,0.14445 0.02551,0.14578 0.02553,0.15355 0.02553,0.1449 0.02551,0.14317 0.02551,0.44118 0.02553,0.12112 0.02553,0.13234 0.02549,0.13193 0.02553,0.1207 0.02553,0.12976 0.02553,0.12154 0.0255,0.12889 0.02552,0.13061 0.02553,0.11939 0.02551,0.12976 0.02552,0.11851 0.02552,0.12935 0.02553,0.11807 0.02552,0.12889 0.02551,0.11765 0.02552,0.11723 0.02552,0.12802 0.02553,0.11637 0.02551,0.11807 0.02553,0.12544 0.02551,0.11765 0.02553,0.11549 0.02551,0.12457 0.02551,0.11678 0.02553,0.11462 0.02553,0.11463 0.02551,0.11419 0.02551,0.125 0.02553,0.11376 0.02553,0.11333 0.0255,0.11462 0.02553,0.1129 0.02552,0.11244 0.02553,0.11247 0.0255,0.11202 0.02553,0.11334 0.02552,0.11159 0.02552,0.10035 0.02551,0.11289 0.02553,0.11073 0.02552,0.11029 0.02552,0.11031 0.02551,0.10077 0.02553,0.10943 0.02551,0.10988 0.02553,0.09948 0.02551,0.10899 0.02553,0.10901 0.02551,0.09906 0.02553,0.10812 0.02552,0.09862 0.0255,0.10771 0.02553,0.09775 0.02553,0.10726 0.0255,0.09603 0.02553,0.09732 0.02553,0.1064 0.02552,0.09689 0.0255,0.09688 0.02553,0.10555 0.02553,0.0943 0.02551,0.09602 0.02551,0.0956 0.02553,0.09385 0.02553,0.09516 0.02551,0.09515 0.02551,0.093 0.02553,0.10338 0.02551,0.53029 0.02553,0.08434 0.02552,0.08262 0.02552,0.08262 0.02552,0.07136 0.02552,0.08218 0.02552,0.08174 0.02551,0.08306 0.02552,0.08131 0.02554,0.08089 0.02551,0.07051 0.02551,0.08087 0.02553,0.08046 0.02553,0.08132 0.02549,0.06964 0.02553,0.08001 0.02553,0.07959 0.02553,0.07916 0.0255,0.07915 0.02552,0.07007 0.02553,0.07829 0.02551,0.07872 0.02552,0.0783 0.02552,0.06877 0.02553,0.07786 0.02552,0.07743 0.02551,0.06703 0.02553,0.07872 0.02551,0.07699 0.02553,0.06618 0.02551,0.07656 0.02553,0.07613 0.02551,0.06748 0.02553,0.0757 0.02551,0.07526 0.02551,0.0666 0.02553,0.07527 0.02553,0.06489 0.02551,0.07438 0.02551,0.0744 0.02553,0.06574 0.02553,0.07397 0.0255,0.06531 0.02553,0.07353 0.02552,0.07311 0.02552,0.06315 0.02551,0.07266 0.02553,0.06444 0.02552,0.07224 0.02552,0.0636 0.02551,0.07222 0.02553,0.06185 0.02551,0.07137 0.02553,0.06271 0.02551,0.06144 0.02553,0.07093 0.02551,0.06186 0.02553,0.07049 0.02552,0.06185 0.0255,0.07007 0.02553,0.06012 0.02553,0.06099 0.02551,0.06921 0.02552,0.05927 0.02552,0.06055 0.02553,0.06877 0.0255,0.06012 0.02553,0.05839 0.02553,0.06835 0.02552,0.05926 0.0255,0.05795 0.02553,0.06748 0.02553,0.05882 0.02551,0.0571 0.02551,0.05838 0.02553,0.0571 0.02553,0.06749 0.02551,0.05665 0.02551,0.05753 0.02553,0.0558 0.02551,0.05708 0.02553,0.06533 0.02552,0.05537 0.02553,0.05666 0.0255,0.05493 0.02553,0.05623 0.02552,0.05449 0.02551,0.05581 0.02553,0.06357 0.02553,0.05538 0.02551,0.05363 0.02551,0.05493 0.02553,0.05364 0.02553,0.05448 0.0255,0.05279 0.02552,0.05406 0.02553,0.05233 0.02553,0.05407 0.0255,0.05192 0.02552,0.05318 0.02553,0.05321 0.02551,0.05148 0.02552,0.05276 0.02552,0.05105 0.02552,0.04281 0.02553,0.05191 0.02551,0.05062 0.02553,0.05146 0.02551,0.05017 0.02552,0.05104 0.02552,0.04975 0.02551,0.04151 0.02553,0.05062 0.02553,0.04888 0.02551,0.05017 0.02551,0.04887 0.02553,0.04024 0.02553,0.04972 0.0255,0.04932 0.02553,0.04802 0.02552,0.0398 0.02553,0.04887 0.0255,0.04713 0.02553,0.04845 0.02552,0.03894 0.02552,0.04669 0.02551,0.0476 0.02553,0.03849 0.02553,0.04586 0.02551,0.03805 0.02551,0.04715 0.02553,0.04541 0.02551,0.0372 0.02553,0.04672 0.02551,0.03678 0.02553,0.04454 0.02551,0.04584 0.02553,0.03677 0.02551,0.04369 0.02552,0.03633 0.02552,0.045 0.02553,0.03545 0.02551,0.04368 0.02552,0.03505 0.02553,0.04411 0.02552,0.03505 0.0255,0.04237 0.02553,0.03463 0.02553,0.03459 0.02552,0.04326 0.0255,0.03372 0.02553,0.04153 0.02553,0.03374 0.02551,0.03331 0.02551,0.04237 0.02553,0.03289 0.02553,0.03286 0.02551,0.04067 0.02551,0.03244 0.02554,0.03244 0.0255,0.04065 0.02553,0.03203 0.02552,0.03199 0.02551,0.03893 0.02553,0.03159 0.02552,0.03114 0.02552,0.03112 0.02551,0.03072 0.02553,0.03937 0.02553,0.03027 0.0255,0.03028 0.02552,0.03028 0.02553,0.03721 0.02553,0.02983 0.02549,0.02941 0.02553,0.02941 0.02553,0.02942 0.02551,0.02897 0.02552,0.02855 0.02552,0.0372 0.02553,0.02855 0.02551,0.02813 0.02552,0.0281 0.02552,0.02811 0.02552,0.02768 0.02552,0.02727 0.02552,0.02723 0.02553,0.02725 0.02551,0.02726 0.02553,0.02638 0.02551,0.02681 0.02551,0.0264 0.02553,0.02595 0.02553,0.02638 0.02551,0.02552 0.02552,0.02595 0.02552,0.02551 0.02553,0.02509 0.0255,0.0251 0.02552,0.02379 0.02553,0.02464 0.02553,0.02466 0.0255,0.02423 0.02553,0.01731 0.02552,0.02378 0.02552,0.02378 0.02551,0.02379 0.02553,0.02337 0.02553,0.02335 0.02551,0.02336 0.02551,0.01428 0.02553,0.02292 0.02551,0.02249 0.02553,0.0225 0.02551,0.02206 0.02553,0.02204 0.02551,0.01472 0.02553,0.02162 0.02551,0.02034 0.02552,0.01426 0.02553,0.0212 0.02552,0.02076 0.0255,0.02077 0.02553,0.01255 0.02553,0.02032 0.02552,0.02034 0.0255,0.01988 0.02553,0.01299 0.02553,0.01945 0.02551,0.01947 0.02551,0.01123 0.02553,0.01905 0.02553,0.01902 0.02551,0.01083 0.02551,0.0186 0.02553,0.01815 0.02551,0.01167 0.02553,0.01775 0.02551,0.0099 0.02553,0.01773 0.02552,0.0173 0.02552,0.01081 0.02552,0.01687 0.02551,0.0091 0.02553,0.01688 0.02553,0.0087 0.0255,0.01643 0.02552,0.01601 0.02553,0.0095 0.02553,0.016 0.02549,0.0078 0.02553,0.01556 0.02553,0.0082 0.02553,0.01556 0.02549,0.0069 0.02553,0.01473 0.02553,0.0082 0.02551,0.01426 0.02552,0.0065 0.02552,0.0065 0.02553,0.01384 0.02551,0.0069 0.02552,0.01385 0.02553,0.0056 0.02551,0.01299 0.02553,0.0065 0.02551,0.0052 0.02553,0.01254 0.02551,0.0052 0.02553,0.0056 0.02551,0.01212 0.02552,0.0043 0.02552,0.0117 0.02553,0.0052 0.02551,0.01126 0.02551,0.0039 0.02553,0.0043 0.02553,0.0035 0.0255,0.0108 0.02553,0.003 0.02552,0.0039 0.02552,0.01 0.02551,0.0026 0.02553,0.0035 0.02552,0.0022 0.02552,0.0095 0.02551,0.0017 0.02553,0.0026 0.02551,0.0091 0.02553,0.0013 0.02551,0.0022 0.02553,0.0013 0.02551,0.0082 0.02553,0.0017 0.02551,4.4e-4 0.02552,4.3e-4 0.02553,0.0013 0.02552,0.0074 0.02551,-4.3e-4 0.02552,8.7e-4 0.02552,-4.4e-4 0.02553,4.4e-4 0.0255,0.0065 0.02553,-8.8e-4 0.02553,-0.0013 0.02552,-4.3e-4 0.0255,-0.0013 0.02553,-4.3e-4 0.02553,-0.0017 0.02551,0.0052 0.02551,-0.0013 0.02553,-0.0022 0.02553,-0.0026 0.02551,-0.0013 0.02551,-0.003 0.02553,-0.0017 0.02551,-0.003 0.02553,-0.0026 0.02551,-0.0035 0.02553,-0.0035 0.02552,-0.0026 0.02553,0.003 0.0255,-0.0039 0.02552,-0.0035 0.02553,-0.0043 0.02552,-0.01039 0.02552,0.0022 0.02551,-0.0048 0.02553,-0.0043 0.02553,-0.0052 0.02549,-0.0043 0.02553,-0.0056 0.02553,-0.0048 0.02553,-0.0056 0.02549,-0.0061 0.02553,-0.0052 0.02553,-0.0065 0.02551,-0.0056 0.02552,-0.0065 0.02552,-0.01297 0.02552,-0.0069 0.02552,-0.006 0.02552,-0.0074 0.02553,-0.0065 0.02551,-0.0078 0.02553,-0.0069 0.02551,-0.0078 0.02551,-0.0082 0.02553,-0.0073 0.02553,-0.0087 0.02551,-0.0074 0.02551,-0.01471 0.02553,-0.0091 0.02553,-0.0091 0.0255,-0.0082 0.02552,-0.0095 0.02553,-0.0087 0.02553,-0.0095 0.02549,-0.0091 0.02554,-0.01687 0.02552,-0.0091 0.02552,-0.01039 0.02551,-0.0099 0.02553,-0.01039 0.02552,-0.01686 0.02552,-0.01082 0.02551,-0.01038 0.02553,-0.01124 0.02551,-0.0173 0.02553,-0.0052 0.02551,-0.01732 0.02553,-0.0121 0.02551,-0.01125 0.02553,-0.01774 0.02551,-0.01254 0.02552,-0.01168 0.02552,-0.01297 0.02553,-0.01297 0.02551,-0.01861 0.02552,-0.01255 0.02552,-0.01339 0.02553,-0.01905 0.0255,-0.0073 0.02553,-0.01946 0.02553,-0.01946 0.02552,-0.01428 0.0255,-0.01342 0.02553,-0.02032 0.02553,-0.01471 0.02551,-0.01471 0.02551,-0.01427 0.02553,-0.01513 0.02553,-0.02077 0.02551,-0.01471 0.02551,-0.02205 0.02553,-0.01472 0.02551,-0.01599 0.02554,-0.01514 0.0255,-0.02164 0.02552,-0.01686 0.02553,-0.02162 0.02552,-0.01688 0.02552,-0.02249 0.02551,-0.016 0.02553,-0.01729 0.02552,-0.01644 0.0255,-0.0238 0.02553,-0.01686 0.02553,-0.02336 0.02553,-0.01816 0.02549,-0.0173 0.02553,-0.02423 0.02553,-0.01774 0.02551,-0.02423 0.02552,-0.01858 0.02552,-0.02424 0.02553,-0.01946 0.02551,-0.01816 0.02552,-0.01946 0.02552,-0.0251 0.02552,-0.01902 0.02552,-0.02509 0.02552,-0.01991 0.02552,-0.0255 0.02552,-0.02034 0.02553,-0.02596 0.02551,-0.01989 0.02551,-0.02683 0.02553,-0.02032 0.02553,-0.02594 0.02551,-0.02164 0.02551,-0.02075 0.02553,-0.02725 0.02553,-0.02726 0.02549,-0.02119 0.02553,-0.02725 0.02553,-0.02205 0.02553,-0.02768 0.0255,-0.02251 0.02553,-0.02768 0.02552,-0.02249 0.02552,-0.02767 0.02551,-0.02943 0.02553,-0.02249 0.02552,-0.02334 0.02552,-0.02898 0.02551,-0.02855 0.02553,-0.02423 0.02551,-0.02898 0.02553,-0.02379 0.02551,-0.02941 0.02553,-0.02941 0.02551,-0.0251 0.02553,-0.02984 0.02551,-0.02507 0.02552,-0.02985 0.02552,-0.03073 0.02553,-0.0255 0.0255,-0.03029 0.02552,-0.02553 0.02553,-0.0307 0.02553,-0.03199 0.0255,-0.02553 0.02553,-0.03116 0.02553,-0.02681 0.02551,-0.03157 0.02551,-0.032 0.02553,-0.02682 0.02553,-0.03244 0.02551,-0.03202 0.02551,-0.03244 0.02553,-0.02768 0.02551,-0.03286 0.02553,-0.03244 0.02551,-0.0277 0.02553,-0.03372 0.02551,-0.03331 0.02553,-0.02812 0.02552,-0.03331 0.02551,-0.03374 0.02553,-0.02942 0.02552,-0.03372 0.02552,-0.03418 0.02551,-0.02985 0.02552,-0.03416 0.02554,-0.03461 0.02549,-0.03459 0.02553,-0.03029 0.02553,-0.03503 0.02553,-0.03504 0.02549,-0.03546 0.02553,-0.03071 0.02553,-0.03591 0.02551,-0.03546 0.02552,-0.0359 0.02552,-0.03159 0.02553,-0.03633 0.02551,-0.03633 0.02552,-0.03634 0.02552,-0.03199 0.02552,-0.03677 0.02553,-0.03676 0.02551,-0.0372 0.02553,-0.0372 0.02551,-0.03721 0.02553,-0.03331 0.02551,-0.03718 0.02551,-0.03807 0.02553,-0.03763 0.02553,-0.03374 0.02551,-0.03849 0.02551,-0.03808 0.02553,-0.03848 0.02553,-0.03849 0.0255,-0.03461 0.02552,-0.03893 0.02553,-0.03892 0.02552,-0.03937 0.02551,-0.03935 0.02553,-0.03939 0.02552,-0.04022 0.02552,-0.03978 0.02551,-0.03503 0.02553,-0.04024 0.02551,-0.04108 0.02553,-0.04023 0.02551,-0.04023 0.02553,-0.04066 0.02551,-0.04109 0.02553,-0.03676 0.02551,-0.04109 0.02551,-0.04109 0.02553,-0.04153 0.02553,-0.04151 0.02552,-0.04154 0.0255,-0.04196 0.02553,-0.04152 0.02553,-0.04281 0.0255,-0.03763 0.02553,-0.04715 0.02552,-0.03763 0.02553,-0.04326 0.0255,-0.04282 0.02553,-0.04324 0.02553,-0.04283 0.02551,-0.04326 0.02551,-0.04368 0.02553,-0.04326 0.02553,-0.04367 0.02551,-0.04458 0.02551,-0.04411 0.02553,-0.04411 0.02551,-0.04411 0.02553,-0.04413 0.02551,-0.04454 0.02553,-0.04499 0.02551,-0.04455 0.02553,-0.04585 0.02552,-0.04499 0.02551,-0.04498 0.02552,-0.04543 0.02553,-0.04585 0.02552,-0.04541 0.02551,-0.04584 0.02553,-0.04585 0.02553,-0.04672 0.02549,-0.04628 0.02553,-0.04671 0.02553,-0.0463 0.02551,-0.0467 0.02552,-0.04672 0.02552,-0.04714 0.02553,-0.04714 0.02551,-0.04758 0.02552,-0.04758 0.02552,-0.04759 0.02552,-0.04758 0.02552,-0.04756 0.02552,-0.04804 0.02552,-0.04843 0.02552,-0.04802 0.02553,-0.04887 0.02551,-0.04887 0.02551,-0.0519 0.02553,-0.04888 0.02551,-0.04974 0.02553,-0.04889 0.02551,-0.0493 0.02553,-0.04931 0.02551,-0.04975 0.02552,-0.04974 0.02552,-0.04975 0.02553,-0.04972 0.02551,-0.05106 0.02552,-0.05364 0.02553,-0.05015 0.02552,-0.05105 0.02552,-0.05103 0.02551,-0.05061 0.02553,-0.05105 0.02552,-0.05104 0.0255,-0.05104 0.02553,-0.05536 0.02553,-0.05147 0.02551,-0.0519 0.02551,-0.05191 0.02553,-0.0519 0.02553,-0.05191 0.02551,-0.05278 0.02551,-0.05232 0.02553,-0.0558 0.02551,-0.05277 0.02553,-0.05321 0.02552,-0.05319 0.02552,-0.05278 0.02552,-0.05708 0.02552,-0.05365 0.02552,-0.0532 0.02551,-0.05363 0.02553,-0.05407 0.02553,-0.05364 0.02551,-0.05406 0.02551,-0.05795 0.02553,-0.05451 0.02553,-0.05449 0.02549,-0.05452 0.02553,-0.05882 0.02553,-0.05493 0.02553,-0.05493 0.0255,-0.05494 0.02552,-0.05622 0.02553,-0.0584 0.02551,-0.0558 0.02552,-0.05579 0.02552,-0.05623 0.02552,-0.05926 0.02552,-0.05278 0.02552,-0.0601 0.02553,-0.05668 0.02551,-0.05969 0.02553,-0.05667 0.02551,-0.05709 0.02551,-0.05709 0.02553,-0.0571 0.02553,-0.06055 0.02551,-0.05796 0.02552,-0.05753 0.02552,-0.05751 0.02553,-0.06143 0.0255,-0.05796 0.02552,-0.05839 0.02553,-0.06143 0.02553,-0.05883 0.0255,-0.05838 0.02553,-0.06185 0.02552,-0.05927 0.02552,-0.05882 0.02551,-0.05927 0.02553,-0.06227 0.02552,-0.05969 0.02552,-0.05969 0.02551,-0.06273 0.02553,-0.06011 0.02551,-0.06012 0.02553,-0.06272 0.02551,-0.06012 0.02553,-0.06099 0.02551,-0.06055 0.02553,-0.0636 0.02551,-0.06054 0.02552,-0.06142 0.02553,-0.06401 0.02552,-0.06144 0.02551,-0.06184 0.02552,-0.06401 0.02552,-0.06186 0.02553,-0.06143 0.0255,-0.06531 0.02553,-0.06228 0.02553,-0.06186 0.02552,-0.06575 0.0255,-0.06229 0.02553,-0.06574 0.02553,-0.06271 0.02551,-0.06619 0.02551,-0.06314 0.02553,-0.06316 0.02553,-0.06314 0.02551,-0.06662 0.02551,-0.06358 0.02553,-0.06359 0.02551,-0.06704 0.02553,-0.06401 0.02552,-0.06662 0.02551,-0.06488 0.02553,-0.06704 0.02553,-0.06444 0.0255,-0.06532 0.02552,-0.06747 0.02553,-0.06488 0.02553,-0.06488 0.02549,-0.06833 0.02553,-0.06532 0.02553,-0.06879 0.02553,-0.06531 0.02549,-0.06877 0.02553,-0.06618 0.02553,-0.06877 0.02551,-0.06619 0.02552,-0.06659 0.02552,-0.06877 0.02553,-0.06706 0.02551,-0.0692 0.02552,-0.06705 0.02552,-0.06747 0.02552,-0.06965 0.02553,-0.06704 0.02551,-0.0705 0.02553,-0.06747 0.02551,-0.07051 0.02553,-0.0679 0.02551,-0.07094 0.02551,-0.06792 0.02553,-0.07092 0.02553,-0.06879 0.02551,-0.07092 0.02551,-0.06877 0.02553,-0.06879 0.02553,-0.07179 0.0255,-0.06877 0.02552,-0.07224 0.02553,-0.06921 0.02553,-0.07224 0.0255,-0.06964 0.02553,-0.07266 0.02552,-0.07179 0.02552,-0.07007 0.02551,-0.07311 0.02553,-0.07007 0.02553,-0.0731 0.02551,-0.07094 0.02551,-0.07051 0.02553,-0.07353 0.02551,-0.07092 0.02553,-0.07396 0.02551,-0.07354 0.02553,-0.07138 0.02552,-0.07396 0.02552,-0.0718 0.02551,-0.07439 0.02552,-0.07181 0.02552,-0.07483 0.02553,-0.07223 0.0255,-0.07439 0.02553,-0.0731 0.02553,-0.07483 0.02552,-0.07267 0.0255,-0.07525 0.02553,-0.0757 0.02553,-0.0731 0.02551,-0.07569 0.02551,-0.07353 0.02553,-0.0757 0.02553,-0.07398 0.02551,-0.0761 0.02551,-0.07656 0.02553,-0.07397 0.02551,-0.07657 0.02553,-0.07482 0.02551,-0.07614 0.02553,-0.07525 0.02551,-0.07699 0.02554,-0.07699 0.0255,-0.07527 0.02552,-0.07742 0.02553,-0.07569 0.02552,-0.07743 0.02552,-0.07786 0.02551,-0.0757 0.02553,-0.07829 0.02553,-0.07829 0.02549,-0.07611 0.02553,-0.07657 0.02553,-0.07828 0.02553,-0.07873 0.02549,-0.07656 0.02553,-0.07916 0.02553,-0.07915 0.02551,-0.07742 0.02552,-0.07916 0.02552,-0.07913 0.02553,-0.07787 0.02551,-0.07959 0.02552,-0.08002 0.02552,-0.07959 0.02552,-0.07873 0.02553,-0.07828 0.02551,-0.08001 0.02552,-0.08047 0.02552,-0.07872 0.02553,-0.08088 0.02551,-0.08045 0.02551,-0.07959 0.02553,-0.08089 0.02553,-0.08131 0.02551,-0.08131 0.02551,-0.07959 0.02553,-0.08132 0.02553,-0.08175 0.02549,-0.08002 0.02553,-0.08218 0.02553,-0.08045 0.02552,-0.08218 0.02551,-0.08219 0.02553,-0.08088 0.02552,-0.08262 0.02552,-0.08262 0.02551,-0.08304 0.02553,-0.08133 0.02551,-0.08304 0.02553,-0.08305 0.02551,-0.08347 0.02553,-0.08175 0.02551,-0.08348 0.02553,-0.08219 0.02551,-0.08391 0.02551,-0.08392 0.02553,-0.08433 0.02553,-0.08261 0.02551,-0.08436 0.02552,-0.08433 0.02552,-0.08305 0.02553,-0.08478 0.0255,-0.08478 0.02552,-0.08478 0.02554,-0.0852 0.02552,-0.08391 0.0255,-0.08522 0.02553,-0.08391 0.02553,-0.08564 0.02551,-0.08564 0.02551,-0.08609 0.02553,-0.08433 0.02553,-0.08738 0.02551,-0.08477 0.02551,-0.08652 0.02553,-0.0865 0.02551,-0.08652 0.02553,-0.08563 0.02551,-0.08565 0.02553,-0.08823 0.02552,-0.08564 0.02552,-0.08738 0.02552,-0.08692 0.02551,-0.08782 0.02553,-0.08608 0.02552,-0.0878 0.02552,-0.08781 0.02551,-0.0878 0.02553,-0.08824 0.02553,-0.08693"
       style="fill:none;stroke:#b39af0;stroke-width:0.99628;stroke-linecap:butt;stroke-linejoin:miter;stroke-miterlimit:10;stroke-dasharray:none;stroke-opacity:1"
       transform="matrix(1.3333333,0,0,-1.3333333,248.85733,132.27867)" />
    <path
       id="path20"
       d="m 1.9087344,0.08124219 c 0.4101562,0 0.7851562,-0.15234375 1.0898437,-0.43359375 L 2.7524844,-0.71563281 c -0.1992188,0.17578125 -0.4804688,0.31640625 -0.796875,0.31640625 -0.6210938,0 -1.03125003,-0.515625 -1.03125003,-1.28906254 0,-0.7851562 0.44531253,-1.3007812 1.05468753,-1.3007812 0.2695312,0 0.4921875,0.1054687 0.6796875,0.28125 l 0.28125,-0.3632813 c -0.234375,-0.2226562 -0.5390625,-0.3984375 -0.984375,-0.3984375 -0.8789063,0 -1.64062503,0.6445313 -1.64062503,1.78125 0,1.12500004 0.69140623,1.76953129 1.59375003,1.76953129 z m 3.0117187,0 c 0.8320313,0 1.5820313,-0.64453125 1.5820313,-1.76953129 0,-1.1367187 -0.75,-1.78125 -1.5820313,-1.78125 -0.8320312,0 -1.5703125,0.6445313 -1.5703125,1.78125 0,1.12500004 0.7382813,1.76953129 1.5703125,1.76953129 z m 0,-0.48046875 c -0.5742187,0 -0.9609375,-0.515625 -0.9609375,-1.28906254 0,-0.7851562 0.3867188,-1.3007812 0.9609375,-1.3007812 0.5859375,0 0.984375,0.515625 0.984375,1.3007812 0,0.77343754 -0.3984375,1.28906254 -0.984375,1.28906254 z M 7.38725,-7.890625e-4 H 7.9614687 V -2.1804766 c 0.234375,-0.5625 0.5742188,-0.7734375 0.8554688,-0.7734375 0.140625,0 0.2109375,0.023437 0.3164062,0.046875 l 0.1171875,-0.4921875 c -0.1054687,-0.058594 -0.2109375,-0.070312 -0.3632812,-0.070312 -0.375,0 -0.7265625,0.2695313 -0.9609375,0.6914063 H 7.902875 L 7.856,-3.3875078 H 7.38725 Z m 2.4287109,0 H 10.39018 V -2.4500078 c 0.339843,-0.3515625 0.585937,-0.515625 0.925781,-0.515625 0.445312,0 0.632812,0.2578125 0.632812,0.890625 v 2.0742187375 h 0.585938 V -2.1453203 c 0,-0.8671875 -0.328125,-1.3242188 -1.042969,-1.3242188 -0.46875,0 -0.808594,0.2460938 -1.136719,0.5625 h -0.02344 l -0.04687,-0.4804687 H 9.8159609 Z M 14.989789,0.08124219 c 0.46875,0 0.832031,-0.140625 1.125,-0.3515625 L 15.91557,-0.63360156 c -0.234375,0.1640625 -0.527343,0.24609375 -0.855468,0.24609375 -0.632813,0 -1.066407,-0.45703125 -1.113282,-1.14843749 h 2.285157 c 0.02344,-0.1171875 0.02344,-0.2226563 0.02344,-0.3515625 0,-0.9726563 -0.492187,-1.5820313 -1.359375,-1.5820313 -0.773437,0 -1.523437,0.6679688 -1.523437,1.7695313 0,1.12499999 0.714843,1.78124999 1.617187,1.78124999 z M 13.94682,-1.9929766 c 0.07031,-0.6445312 0.492188,-1.0195312 0.960938,-1.0195312 0.515625,0 0.832031,0.3515625 0.832031,1.0195312 z m 3.140625,1.9921875375 h 0.574219 V -2.1804766 c 0.234375,-0.5625 0.574219,-0.7734375 0.855469,-0.7734375 0.140625,0 0.210937,0.023437 0.316406,0.046875 l 0.117188,-0.4921875 c -0.105469,-0.058594 -0.210938,-0.070312 -0.363282,-0.070312 -0.375,0 -0.726562,0.2695313 -0.960937,0.6914063 h -0.02344 l -0.04687,-0.609375 h -0.46875 z m 0,0"
       style="fill:#c9d1d9;fill-opacity:1;fill-rule:nonzero;stroke:none"
       aria-label="corner"
       transform="matrix(1.3333333,0,0,1.3333333,274.02533,32.489333)" />
    <path
       id="path21"
       d="m 1.9093047,0.08061719 c 0.4101562,0 0.7851562,-0.15234375 1.0898437,-0.43359375 L 2.7530547,-0.71625781 c -0.1992188,0.17578125 -0.4804688,0.31640625 -0.796875,0.31640625 -0.6210938,0 -1.03125001,-0.515625 -1.03125001,-1.28906254 0,-0.7851562 0.44531251,-1.3007812 1.05468751,-1.3007812 0.2695312,0 0.4921875,0.1054687 0.6796875,0.28125 l 0.28125,-0.3632813 c -0.234375,-0.2226562 -0.5390625,-0.3984375 -0.984375,-0.3984375 -0.8789063,0 -1.64062501,0.6445313 -1.64062501,1.78125 0,1.12500004 0.69140621,1.76953129 1.59375001,1.76953129 z m 2.8300781,0 c 0.46875,0 0.8085938,-0.24609375 1.1132813,-0.609375 h 0.023437 l 0.046875,0.52734375 H 6.4034453 V -3.3881328 H 5.8292266 v 2.40234374 c -0.3164063,0.38671875 -0.5625,0.5625 -0.9023438,0.5625 -0.4453125,0 -0.6445312,-0.26953125 -0.6445312,-0.89062504 V -3.3881328 H 3.7081328 v 2.1445312 c 0,0.86718754 0.3164063,1.32421879 1.03125,1.32421879 z m 3.6884766,0 c 0.8085937,0 1.2421875,-0.45703125 1.2421875,-1.0078125 0,-0.60937499 -0.5039063,-0.84374999 -1.03125,-1.03124999 -0.4335938,-0.1523438 -0.7265625,-0.2695313 -0.7265625,-0.5859375 0,-0.2460938 0.1875,-0.4804688 0.6210937,-0.4804688 0.3046875,0 0.5507813,0.09375 0.7851563,0.2695313 l 0.2695312,-0.3398438 c -0.2695312,-0.2226562 -0.6328125,-0.375 -1.0546875,-0.375 -0.7382812,0 -1.171875,0.4101563 -1.171875,0.9609375 0,0.5507813 0.4804688,0.796875 0.9960938,0.984375 0.3867187,0.140625 0.7617187,0.28125 0.7617187,0.63281254 0,0.29296875 -0.2226562,0.515625 -0.6679687,0.515625 -0.421875,0 -0.7265625,-0.1171875 -1.0195313,-0.36328125 l -0.2578125,0.328125 c 0.3046875,0.31640625 0.7617188,0.4921875 1.2539063,0.4921875 z M 10.469852,1.4282734 H 11.04407 V 0.27983594 l -0.01172,-0.5859375 c 0.304687,0.24609375 0.632812,0.38671875 0.9375,0.38671875 0.773437,0 1.464843,-0.6796875 1.464843,-1.82812499 0,-1.0546875 -0.46875,-1.7226563 -1.347656,-1.7226563 -0.386719,0 -0.773437,0.2109375 -1.078125,0.46875 h -0.02344 l -0.04687,-0.3867187 h -0.46875 z m 1.394531,-1.83984371 c -0.222656,0 -0.515625,-0.0820313 -0.820313,-0.33984375 V -2.5209453 c 0.328125,-0.3164063 0.621094,-0.46875 0.902344,-0.46875 0.632813,0 0.890625,0.5039062 0.890625,1.2421875 0,0.84374999 -0.410156,1.33593749 -0.972656,1.33593749 z m 0,0"
       style="fill:#c9d1d9;fill-opacity:1;fill-rule:nonzero;stroke:none"
       aria-label="cusp"
       transform="matrix(1.3333333,0,0,1.3333333,315.27067,122.30267)" />
  </g>
</svg>
