<svg xmlns="http://www.w3.org/2000/svg" xmlns:xlink="http://www.w3.org/1999/xlink" xmlns:inkscape="http://www.inkscape.org/namespaces/inkscape" version="1.1" width="423.84" height="448.54" viewBox="0 0 423.84 448.54">
<defs>
<path id="font_0_17" d="M.08999634 0H.17399597V.26011659H.2809906C.4249878 .26011659 .5239868 .32411195 .5239868 .46318055 .5239868 .60723879 .42399598 .65625 .2769928 .65625H.08999634V0M.17399597 .328125V.5882416H.2669983C.38198854 .5882416 .43998719 .55722048 .43998719 .46318055 .43998719 .37013246 .3849945 .328125 .2709961 .328125H.17399597Z"/>
<path id="font_0_42" d="M.2709961-.01171875C.3899994-.01171875 .49699403 .08125305 .49699403 .24215698 .49699403 .4050598 .3899994 .49804688 .2709961 .49804688 .1519928 .49804688 .04598999 .4050598 .04598999 .24215698 .04598999 .08125305 .1519928-.01171875 .2709961-.01171875M.2709961 .057266237C.18798828 .057266237 .13198853 .13122559 .13198853 .24215698 .13198853 .35409547 .18798828 .42904664 .2709961 .42904664 .35499574 .42904664 .41099549 .35409547 .41099549 .24215698 .41099549 .13122559 .35499574 .057266237 .2709961 .057266237Z"/>
<path id="font_0_46" d="M.20899964-.01171875C.32398988-.01171875 .3869934 .054275514 .3869934 .13322449 .3869934 .22117615 .31399537 .2541504 .23799134 .28112794 .1769867 .30212403 .1349945 .32011415 .1349945 .36408998 .1349945 .40005494 .1619873 .43403626 .22399903 .43403626 .2669983 .43403626 .3019867 .42004396 .33599855 .3950653L.37399293 .44303895C.33599855 .47503663 .28399659 .49804688 .22299195 .49804688 .116989139 .49804688 .054992677 .43803407 .054992677 .36009217 .054992677 .2801361 .125 .24516297 .19799805 .21917725 .25299073 .19918823 .30699159 .17819214 .30699159 .12823487 .30699159 .086257938 .27598573 .053268434 .21199036 .053268434 .1519928 .053268434 .10798645 .071258548 .06599426 .10624695L.027999878 .058273317C.07299805 .014266968 .13798523-.01171875 .20899964-.01171875Z"/>
<path id="font_0_36" d="M.08198547 0H.16499329V.48632813H.08198547V0M.12399292 .5863342C.1559906 .5863342 .1789856 .6073303 .1789856 .6403351 .1789856 .67233279 .1559906 .69433596 .12399292 .69433596 .09199524 .69433596 .068984989 .67233279 .068984989 .6403351 .068984989 .6073303 .09199524 .5863342 .12399292 .5863342Z"/>
<path id="font_0_47" d="M.23498535-.01171875C.2679901-.01171875 .30099488-.0027313233 .32699586 .009277344L.30999757 .06826782C.2899933 .059280397 .27198792 .056274415 .2539978 .056274415 .19898987 .056274415 .1789856 .090270999 .1789856 .14929199V.41932679H.31098939V.48632813H.1789856V.6423187H.10998535L.099990848 .48632813 .023986817 .48132325V.41932679H.09599304V.1512909C.09599304 .054275514 .1309967-.01171875 .23498535-.01171875Z"/>
<path id="font_0_49" d="M.18699646 0H.28399659L.45599366 .48632813H.37399293L.2829895 .21110535C.2679901 .16307068 .2519989 .11402893 .23799134 .066986087H.23399353C.21899414 .11402893 .20399475 .16307068 .18899536 .21110535L.09799194 .48632813H.011993408L.18699646 0Z"/>
<path id="font_0_32" d="M.27799989-.01171875C.34498597-.01171875 .39698792 .008270264 .43899537 .038269044L.4099884 .09124756C.37599183 .06826782 .33499146 .055267335 .28799439 .055267335 .19599915 .055267335 .1349945 .12123108 .12799073 .22114563H.45498658C.45799256 .2371521 .45899964 .2521515 .45899964 .2701416 .45899964 .41004945 .3880005 .49804688 .2639923 .49804688 .15299988 .49804688 .04598999 .401062 .04598999 .2431488 .04598999 .08226013 .147995-.01171875 .27799989-.01171875M.12799073 .28515626C.13798523 .37808229 .19799805 .43203736 .2659912 .43203736 .33999635 .43203736 .3849945 .381073 .3849945 .28515626H.12799073Z"/>
<path id="font_0_39" d="M.16899109-.01171875C.18998719-.01171875 .20498657-.008728027 .21699524-.0027313233L.20599365 .059265138C.19799805 .057266237 .19400025 .057266237 .18899536 .057266237 .17599488 .057266237 .16499329 .06626892 .16499329 .09225464V.71191409H.08198547V.09825134C.08198547 .028274537 .10699463-.01171875 .16899109-.01171875Z"/>
<path id="font_0_43" d="M.08198547-.20507813H.16499329V-.040786745L.16299439 .044281007C.20698548 .009277344 .25299073-.01171875 .29699708-.01171875 .4079895-.01171875 .5079956 .085250858 .5079956 .2501526 .5079956 .401062 .43998719 .49804688 .31498719 .49804688 .25898744 .49804688 .20399475 .46704103 .1599884 .43003846H.15699768L.1499939 .48632813H.08198547V-.20507813M.2829895 .058273317C.25099183 .058273317 .20899964 .0712738 .16499329 .10827637V.3620758C.21199036 .40605165 .25299073 .42803956 .2939911 .42803956 .3849945 .42803956 .42199708 .35708619 .42199708 .2501526 .42199708 .13027954 .36299134 .058273317 .2829895 .058273317Z"/>
<path id="font_0_15" d="M.08999634 0H.16899109V.3451233C.16899109 .4131775 .16299439 .48420716 .1579895 .5502472H.1619873C.18399048 .5022125 .20799256 .4532013 .23298645 .4091797L.46699525 0H.5569916V.65625H.47799684V.3141327C.47799684 .24604798 .48399354 .17402649 .4889984 .10598755H.4850006C.46199037 .15400696 .43899537 .20303345 .4139862 .24705506L.17999268 .65625H.08999634V0Z"/>
<path id="font_0_34" d="M.24598694-.22363281C.39698792-.22363281 .49198915-.1456604 .49198915-.054763795 .49198915 .025177002 .43499757 .061172487 .32199098 .061172487H.22799683C.16299439 .061172487 .14299011 .08320618 .14299011 .11323547 .14299011 .14027405 .1559906 .15629578 .17399597 .17129517 .19599915 .16029358 .22200012 .15429688 .24598694 .15429688 .34498597 .15429688 .42399598 .21928406 .42399598 .32330323 .42399598 .36431886 .4079895 .40031434 .3849945 .4223175H.48399354V.48632813H.31498719C.29699708 .493042 .272995 .49804688 .24598694 .49804688 .14698792 .49804688 .06298828 .43104554 .06298828 .3251648 .06298828 .26722718 .09399414 .22027588 .12599182 .19429016V.19029236C.100997928 .17329407 .07299805 .14128113 .07299805 .10021973 .07299805 .062179567 .09199524 .03617859 .115997318 .0211792V.017181397C.07199097-.012817383 .04499817-.05177307 .04499817-.09272766 .04499817-.17663574 .1269989-.22363281 .24598694-.22363281M.24598694 .21029663C.18998719 .21029663 .14299011 .25424195 .14299011 .3251648 .14299011 .39608766 .18899536 .43803407 .24598694 .43803407 .30299378 .43803407 .34899903 .39508058 .34899903 .3251648 .34899903 .25424195 .3019867 .21029663 .24598694 .21029663M.2579956-.16563416C.16999817-.16563416 .116989139-.13371277 .116989139-.081832889 .116989139-.053894044 .13198853-.02494812 .16699219 0 .18798828-.0058135988 .21099854-.0078125 .22999573-.0078125H.31298829C.3769989-.0078125 .41099549-.02279663 .41099549-.06774902 .41099549-.117752078 .34999085-.16563416 .2579956-.16563416Z"/>
<path id="font_0_28" d="M.19400025-.01171875C.25498963-.01171875 .30799867 .01927185 .35398866 .058273317H.35699464L.36499024 0H.43299867V.2990265C.43299867 .41903688 .38198854 .49804688 .2639923 .49804688 .18598938 .49804688 .117996219 .4650421 .07299805 .43504334L.10499573 .37902833C.14299011 .40403749 .19400025 .42904664 .25 .42904664 .32899476 .42904664 .34899903 .37002564 .34999085 .309021 .14199829 .286026 .051986696 .23402405 .051986696 .12600708 .051986696 .038269044 .11299133-.01171875 .19400025-.01171875M.21699524 .056274415C.16999817 .056274415 .1329956 .07725525 .1329956 .13122559 .1329956 .19418335 .18598938 .23117066 .34999085 .2501526V.11824036C.30299378 .07725525 .2639923 .056274415 .21699524 .056274415Z"/>
<path id="font_0_27" d="M.04499817 0H.49699403V.070999149H.14898682L.49398805 .60624697V.65625H.07598877V.5852356H.3889923L.04499817 .049987794V0Z"/>
<path id="font_0_45" d="M.08198547 0H.16499329V.31202699C.19799805 .3940277 .24699402 .42303468 .28799439 .42303468 .30699159 .42303468 .31799317 .42103578 .33198548 .41703797L.34999085 .48828126C.33499146 .4950409 .31999208 .49804688 .2979889 .49804688 .24398804 .49804688 .19400025 .4590454 .1599884 .39804078H.15699768L.1499939 .48632813H.08198547V0Z"/>
</defs>
<use data-text="P" xlink:href="#font_0_17" transform="matrix(9.9626,0,0,-9.9626,78.743,9.626015)" fill="#c9d1d9"/>
<use data-text="o" xlink:href="#font_0_42" transform="matrix(9.9626,0,0,-9.9626,84.152698,9.626015)" fill="#c9d1d9"/>
<use data-text="s" xlink:href="#font_0_46" transform="matrix(9.9626,0,0,-9.9626,89.55242,9.626015)" fill="#c9d1d9"/>
<use data-text="i" xlink:href="#font_0_36" transform="matrix(9.9626,0,0,-9.9626,93.72675,9.626015)" fill="#c9d1d9"/>
<use data-text="t" xlink:href="#font_0_47" transform="matrix(9.9626,0,0,-9.9626,96.187519,9.626015)" fill="#c9d1d9"/>
<use data-text="i" xlink:href="#font_0_36" transform="matrix(9.9626,0,0,-9.9626,99.564838,9.626015)" fill="#c9d1d9"/>
<use data-text="v" xlink:href="#font_0_49" transform="matrix(9.9626,0,0,-9.9626,102.0256,9.626015)" fill="#c9d1d9"/>
<use data-text="e" xlink:href="#font_0_32" transform="matrix(9.9626,0,0,-9.9626,106.6582,9.626015)" fill="#c9d1d9"/>
<use data-text="s" xlink:href="#font_0_46" transform="matrix(9.9626,0,0,-9.9626,113.582218,9.626015)" fill="#c9d1d9"/>
<use data-text="l" xlink:href="#font_0_39" transform="matrix(9.9626,0,0,-9.9626,117.756549,9.626015)" fill="#c9d1d9"/>
<use data-text="o" xlink:href="#font_0_42" transform="matrix(9.9626,0,0,-9.9626,120.29701,9.626015)" fill="#c9d1d9"/>
<use data-text="p" xlink:href="#font_0_43" transform="matrix(9.9626,0,0,-9.9626,125.69674,9.626015)" fill="#c9d1d9"/>
<use data-text="e" xlink:href="#font_0_32" transform="matrix(9.9626,0,0,-9.9626,131.22599,9.626015)" fill="#c9d1d9"/>
<use data-text="N" xlink:href="#font_0_15" transform="matrix(9.9626,0,0,-9.9626,287.875,9.626015)" fill="#c9d1d9"/>
<use data-text="e" xlink:href="#font_0_32" transform="matrix(9.9626,0,0,-9.9626,294.31086,9.626015)" fill="#c9d1d9"/>
<use data-text="g" xlink:href="#font_0_34" transform="matrix(9.9626,0,0,-9.9626,299.16264,9.626015)" fill="#c9d1d9"/>
<use data-text="a" xlink:href="#font_0_28" transform="matrix(9.9626,0,0,-9.9626,304.03434,9.626015)" fill="#c9d1d9"/>
<use data-text="t" xlink:href="#font_0_47" transform="matrix(9.9626,0,0,-9.9626,308.91603,9.626015)" fill="#c9d1d9"/>
<use data-text="i" xlink:href="#font_0_36" transform="matrix(9.9626,0,0,-9.9626,312.29335,9.626015)" fill="#c9d1d9"/>
<use data-text="v" xlink:href="#font_0_49" transform="matrix(9.9626,0,0,-9.9626,314.7541,9.626015)" fill="#c9d1d9"/>
<use data-text="e" xlink:href="#font_0_32" transform="matrix(9.9626,0,0,-9.9626,319.3767,9.626015)" fill="#c9d1d9"/>
<use data-text="s" xlink:href="#font_0_46" transform="matrix(9.9626,0,0,-9.9626,326.30073,9.626015)" fill="#c9d1d9"/>
<use data-text="l" xlink:href="#font_0_39" transform="matrix(9.9626,0,0,-9.9626,330.47508,9.626015)" fill="#c9d1d9"/>
<use data-text="o" xlink:href="#font_0_42" transform="matrix(9.9626,0,0,-9.9626,333.01554,9.626015)" fill="#c9d1d9"/>
<use data-text="p" xlink:href="#font_0_43" transform="matrix(9.9626,0,0,-9.9626,338.41526,9.626015)" fill="#c9d1d9"/>
<use data-text="e" xlink:href="#font_0_32" transform="matrix(9.9626,0,0,-9.9626,343.9445,9.626015)" fill="#c9d1d9"/>
<path transform="matrix(1,0,0,-1,107.455,120.21602)" stroke-width=".79701" stroke-linecap="butt" stroke-miterlimit="10" stroke-linejoin="miter" fill="none" stroke="#c9d1d9" d="M-85.04042 0H84.24341"/>
<path transform="matrix(1,0,0,-1,192.09693,120.21602)" stroke-width=".79701" stroke-linecap="round" stroke-linejoin="round" fill="none" stroke="#c9d1d9" d="M-2.55046 3.11095C-2.0845 1.24435-1.04614 .36295 0 0-1.04614-.36295-2.0845-1.24435-2.55046-3.11095"/>
<path transform="matrix(1,0,0,-1,107.455,120.21602)" stroke-width=".79701" stroke-linecap="butt" stroke-miterlimit="10" stroke-linejoin="miter" fill="none" stroke="#c9d1d9" d="M0-85.04042V84.24341"/>
<path transform="matrix(0,-1,-1,-0,107.455,35.574098)" stroke-width=".79701" stroke-linecap="round" stroke-linejoin="round" fill="none" stroke="#c9d1d9" d="M-2.55046 3.11095C-2.0845 1.24435-1.04614 .36295 0 0-1.04614-.36295-2.0845-1.24435-2.55046-3.11095"/>
<path transform="matrix(1,0,0,-1,107.455,120.21602)" stroke-width=".99628" stroke-linecap="butt" stroke-miterlimit="10" stroke-linejoin="miter" fill="none" stroke="#884ef4" d="M-84.20512-67.48921 84.20512 41.97725"/>
<path transform="matrix(-.83842,.54498,.54498,.83842,22.83223,187.9767)" stroke-width=".99628" stroke-linecap="round" stroke-linejoin="round" fill="none" stroke="#884ef4" d="M-2.78957 3.47087C-2.27992 1.38832-1.14423 .40492 0 0-1.14423-.40492-2.27992-1.38832-2.78957-3.47087"/>
<path transform="matrix(.83842,-.54498,-.54498,-.83842,192.07778,77.9673)" stroke-width=".99628" stroke-linecap="round" stroke-linejoin="round" fill="none" stroke="#884ef4" d="M-2.78957 3.47087C-2.27992 1.38832-1.14423 .40492 0 0-1.14423-.40492-2.27992-1.38832-2.78957-3.47087"/>
<path transform="matrix(1,0,0,-1,318.38099,120.21602)" stroke-width=".79701" stroke-linecap="butt" stroke-miterlimit="10" stroke-linejoin="miter" fill="none" stroke="#c9d1d9" d="M-85.04042 0H84.24341"/>
<path transform="matrix(1,0,0,-1,403.0229,120.21602)" stroke-width=".79701" stroke-linecap="round" stroke-linejoin="round" fill="none" stroke="#c9d1d9" d="M-2.55046 3.11095C-2.0845 1.24435-1.04614 .36295 0 0-1.04614-.36295-2.0845-1.24435-2.55046-3.11095"/>
<path transform="matrix(1,0,0,-1,318.38099,120.21602)" stroke-width=".79701" stroke-linecap="butt" stroke-miterlimit="10" stroke-linejoin="miter" fill="none" stroke="#c9d1d9" d="M0-85.04042V84.24341"/>
<path transform="matrix(0,-1,-1,-0,318.38099,35.574098)" stroke-width=".79701" stroke-linecap="round" stroke-linejoin="round" fill="none" stroke="#c9d1d9" d="M-2.55046 3.11095C-2.0845 1.24435-1.04614 .36295 0 0-1.04614-.36295-2.0845-1.24435-2.55046-3.11095"/>
<path transform="matrix(1,0,0,-1,318.38099,120.21602)" stroke-width=".99628" stroke-linecap="butt" stroke-miterlimit="10" stroke-linejoin="miter" fill="none" stroke="#884ef4" d="M-84.24342 84.44266 84.24342-41.92244"/>
<path transform="matrix(-.79997,-.59999,-.59999,.79997,233.73905,35.474473)" stroke-width=".99628" stroke-linecap="round" stroke-linejoin="round" fill="none" stroke="#884ef4" d="M-2.78957 3.47087C-2.27992 1.38832-1.14423 .40492 0 0-1.14423-.40492-2.27992-1.38832-2.78957-3.47087"/>
<path transform="matrix(.79997,.59999,.59999,-.79997,403.02293,162.43735)" stroke-width=".99628" stroke-linecap="round" stroke-linejoin="round" fill="none" stroke="#884ef4" d="M-2.78957 3.47087C-2.27992 1.38832-1.14423 .40492 0 0-1.14423-.40492-2.27992-1.38832-2.78957-3.47087"/>
<use data-text="Z" xlink:href="#font_0_27" transform="matrix(9.9626,0,0,-9.9626,85.732,249.29001)" fill="#c9d1d9"/>
<use data-text="e" xlink:href="#font_0_32" transform="matrix(9.9626,0,0,-9.9626,90.892627,249.29001)" fill="#c9d1d9"/>
<use data-text="r" xlink:href="#font_0_45" transform="matrix(9.9626,0,0,-9.9626,95.834079,249.29001)" fill="#c9d1d9"/>
<use data-text="o" xlink:href="#font_0_42" transform="matrix(9.9626,0,0,-9.9626,99.20143,249.29001)" fill="#c9d1d9"/>
<use data-text="s" xlink:href="#font_0_46" transform="matrix(9.9626,0,0,-9.9626,106.583728,249.29001)" fill="#c9d1d9"/>
<use data-text="l" xlink:href="#font_0_39" transform="matrix(9.9626,0,0,-9.9626,110.75806,249.29001)" fill="#c9d1d9"/>
<use data-text="o" xlink:href="#font_0_42" transform="matrix(9.9626,0,0,-9.9626,113.29852,249.29001)" fill="#c9d1d9"/>
<use data-text="p" xlink:href="#font_0_43" transform="matrix(9.9626,0,0,-9.9626,118.69825,249.29001)" fill="#c9d1d9"/>
<use data-text="e" xlink:href="#font_0_32" transform="matrix(9.9626,0,0,-9.9626,124.22749,249.29001)" fill="#c9d1d9"/>
<use data-text="N" xlink:href="#font_0_15" transform="matrix(9.9626,0,0,-9.9626,300.174,249.29001)" fill="#c9d1d9"/>
<use data-text="o" xlink:href="#font_0_42" transform="matrix(9.9626,0,0,-9.9626,306.60984,249.29001)" fill="#c9d1d9"/>
<use data-text="s" xlink:href="#font_0_46" transform="matrix(9.9626,0,0,-9.9626,314.00209,249.29001)" fill="#c9d1d9"/>
<use data-text="l" xlink:href="#font_0_39" transform="matrix(9.9626,0,0,-9.9626,318.17643,249.29001)" fill="#c9d1d9"/>
<use data-text="o" xlink:href="#font_0_42" transform="matrix(9.9626,0,0,-9.9626,320.7169,249.29001)" fill="#c9d1d9"/>
<use data-text="p" xlink:href="#font_0_43" transform="matrix(9.9626,0,0,-9.9626,326.11665,249.29001)" fill="#c9d1d9"/>
<use data-text="e" xlink:href="#font_0_32" transform="matrix(9.9626,0,0,-9.9626,331.64588,249.29001)" fill="#c9d1d9"/>
<path transform="matrix(1,0,0,-1,107.455,358.97703)" stroke-width=".79701" stroke-linecap="butt" stroke-miterlimit="10" stroke-linejoin="miter" fill="none" stroke="#c9d1d9" d="M-85.04042 0H84.24341"/>
<path transform="matrix(1,0,0,-1,192.09693,358.97703)" stroke-width=".79701" stroke-linecap="round" stroke-linejoin="round" fill="none" stroke="#c9d1d9" d="M-2.55046 3.11095C-2.0845 1.24435-1.04614 .36295 0 0-1.04614-.36295-2.0845-1.24435-2.55046-3.11095"/>
<path transform="matrix(1,0,0,-1,107.455,358.97703)" stroke-width=".79701" stroke-linecap="butt" stroke-miterlimit="10" stroke-linejoin="miter" fill="none" stroke="#c9d1d9" d="M0-85.04042V84.24341"/>
<path transform="matrix(0,-1,-1,-0,107.455,274.33509)" stroke-width=".79701" stroke-linecap="round" stroke-linejoin="round" fill="none" stroke="#c9d1d9" d="M-2.55046 3.11095C-2.0845 1.24435-1.04614 .36295 0 0-1.04614-.36295-2.0845-1.24435-2.55046-3.11095"/>
<path transform="matrix(1,0,0,-1,107.455,358.97703)" stroke-width=".99628" stroke-linecap="butt" stroke-miterlimit="10" stroke-linejoin="miter" fill="none" stroke="#884ef4" d="M-84.04414 28.3468H84.04414"/>
<path transform="matrix(-1,-0,0,1,22.91272,330.63023)" stroke-width=".99628" stroke-linecap="round" stroke-linejoin="round" fill="none" stroke="#884ef4" d="M-2.78957 3.47087C-2.27992 1.38832-1.14423 .40492 0 0-1.14423-.40492-2.27992-1.38832-2.78957-3.47087"/>
<path transform="matrix(1,0,0,-1,191.99729,330.63023)" stroke-width=".99628" stroke-linecap="round" stroke-linejoin="round" fill="none" stroke="#884ef4" d="M-2.78957 3.47087C-2.27992 1.38832-1.14423 .40492 0 0-1.14423-.40492-2.27992-1.38832-2.78957-3.47087"/>
<path transform="matrix(1,0,0,-1,318.38099,358.87803)" stroke-width=".79701" stroke-linecap="butt" stroke-miterlimit="10" stroke-linejoin="miter" fill="none" stroke="#c9d1d9" d="M-85.04042 0H84.24341"/>
<path transform="matrix(1,0,0,-1,403.0229,358.87803)" stroke-width=".79701" stroke-linecap="round" stroke-linejoin="round" fill="none" stroke="#c9d1d9" d="M-2.55046 3.11095C-2.0845 1.24435-1.04614 .36295 0 0-1.04614-.36295-2.0845-1.24435-2.55046-3.11095"/>
<path transform="matrix(1,0,0,-1,318.38099,358.87803)" stroke-width=".79701" stroke-linecap="butt" stroke-miterlimit="10" stroke-linejoin="miter" fill="none" stroke="#c9d1d9" d="M0-85.04042V84.24341"/>
<path transform="matrix(0,-1,-1,-0,318.38099,274.23609)" stroke-width=".79701" stroke-linecap="round" stroke-linejoin="round" fill="none" stroke="#c9d1d9" d="M-2.55046 3.11095C-2.0845 1.24435-1.04614 .36295 0 0-1.04614-.36295-2.0845-1.24435-2.55046-3.11095"/>
<path transform="matrix(1,0,0,-1,318.38099,358.87803)" stroke-width=".99628" stroke-linecap="butt" stroke-miterlimit="10" stroke-linejoin="miter" fill="none" stroke="#884ef4" d="M28.3468-84.04414V84.04414"/>
<path transform="matrix(0,1,1,0,346.72779,443.4203)" stroke-width=".99628" stroke-linecap="round" stroke-linejoin="round" fill="none" stroke="#884ef4" d="M-2.78957 3.47087C-2.27992 1.38832-1.14423 .40492 0 0-1.14423-.40492-2.27992-1.38832-2.78957-3.47087"/>
<path transform="matrix(0,-1,-1,-0,346.72779,274.33576)" stroke-width=".99628" stroke-linecap="round" stroke-linejoin="round" fill="none" stroke="#884ef4" d="M-2.78957 3.47087C-2.27992 1.38832-1.14423 .40492 0 0-1.14423-.40492-2.27992-1.38832-2.78957-3.47087"/>
</svg>
