<?xml version="1.0" encoding="UTF-8" standalone="no"?>
<!-- Created with Inkscape (http://www.inkscape.org/) -->

<svg
   version="1.1"
   id="svg1"
   width="241.89333"
   height="241.89333"
   viewBox="0 0 241.89333 241.89333"
   sodipodi:docname="MATH_118-53.pdf"
   xmlns:inkscape="http://www.inkscape.org/namespaces/inkscape"
   xmlns:sodipodi="http://sodipodi.sourceforge.net/DTD/sodipodi-0.dtd"
   xmlns="http://www.w3.org/2000/svg"
   xmlns:svg="http://www.w3.org/2000/svg">
  <defs
     id="defs1" />
  <sodipodi:namedview
     id="namedview1"
     pagecolor="#ffffff"
     bordercolor="#000000"
     borderopacity="0.25"
     inkscape:showpageshadow="2"
     inkscape:pageopacity="0.0"
     inkscape:pagecheckerboard="0"
     inkscape:deskcolor="#d1d1d1">
    <inkscape:page
       x="0"
       y="0"
       inkscape:label="1"
       id="page1"
       width="241.89333"
       height="241.89333"
       margin="0"
       bleed="0" />
  </sodipodi:namedview>
  <g
     id="g1"
     inkscape:groupmode="layer"
     inkscape:label="1">
    <path
       id="path1"
       d="M -28.3468,0 H 140.93703"
       style="fill:none;stroke:#c9d1d9;stroke-width:0.79701;stroke-linecap:butt;stroke-linejoin:miter;stroke-miterlimit:10;stroke-dasharray:none;stroke-opacity:1"
       transform="matrix(1.3333333,0,0,-1.3333333,45.354667,196.53867)" />
    <path
       id="path2"
       d="M -2.55046,3.11095 C -2.0845,1.24435 -1.04614,0.36295 0,0 -1.04614,-0.36295 -2.0845,-1.24435 -2.55046,-3.11095"
       style="fill:none;stroke:#c9d1d9;stroke-width:0.79701;stroke-linecap:round;stroke-linejoin:round;stroke-miterlimit:10;stroke-dasharray:none;stroke-opacity:1"
       transform="matrix(1.3333333,0,0,-1.3333333,233.80205,196.53867)" />
    <path
       id="path3"
       d="M 0,-28.3468 V 140.93703"
       style="fill:none;stroke:#c9d1d9;stroke-width:0.79701;stroke-linecap:butt;stroke-linejoin:miter;stroke-miterlimit:10;stroke-dasharray:none;stroke-opacity:1"
       transform="matrix(1.3333333,0,0,-1.3333333,45.354667,196.53867)" />
    <path
       id="path4"
       d="M -2.55046,3.11095 C -2.0845,1.24435 -1.04614,0.36295 0,0 -1.04614,-0.36295 -2.0845,-1.24435 -2.55046,-3.11095"
       style="fill:none;stroke:#c9d1d9;stroke-width:0.79701;stroke-linecap:round;stroke-linejoin:round;stroke-miterlimit:10;stroke-dasharray:none;stroke-opacity:1"
       transform="matrix(0,-1.3333333,-1.3333333,0,45.354667,8.09128)" />
    <path
       id="path5"
       d="M 63.7803,3.33298 V 108.07219"
       style="fill:none;stroke:#c9d1d9;stroke-width:0.49814;stroke-linecap:butt;stroke-linejoin:miter;stroke-miterlimit:10;stroke-dasharray:2.98883, 2.98883;stroke-dashoffset:0;stroke-opacity:1"
       transform="matrix(1.3333333,0,0,-1.3333333,45.354667,196.53867)" />
    <path
       id="path6"
       d="M -2.1918,2.57101 C -1.79137,1.02838 -0.89903,0.29994 0,0 -0.89903,-0.29994 -1.79137,-1.02838 -2.1918,-2.57101"
       style="fill:none;stroke:#c9d1d9;stroke-width:0.49814;stroke-linecap:round;stroke-linejoin:round;stroke-miterlimit:10;stroke-dasharray:none;stroke-opacity:1"
       transform="matrix(0,1.3333333,1.3333333,0,130.39507,192.42679)" />
    <path
       id="path7"
       d="M 14.17339,3.33298 V 54.33151"
       style="fill:none;stroke:#c9d1d9;stroke-width:0.49814;stroke-linecap:butt;stroke-linejoin:miter;stroke-miterlimit:10;stroke-dasharray:2.98883, 2.98883;stroke-dashoffset:0;stroke-opacity:1"
       transform="matrix(1.3333333,0,0,-1.3333333,45.354667,196.53867)" />
    <path
       id="path8"
       d="M -2.1918,2.57101 C -1.79137,1.02838 -0.89903,0.29994 0,0 -0.89903,-0.29994 -1.79137,-1.02838 -2.1918,-2.57101"
       style="fill:none;stroke:#c9d1d9;stroke-width:0.49814;stroke-linecap:round;stroke-linejoin:round;stroke-miterlimit:10;stroke-dasharray:none;stroke-opacity:1"
       transform="matrix(0,1.3333333,1.3333333,0,64.25252,192.42679)" />
    <path
       id="path9"
       d="M 113.38724,3.33298 V 103.93843"
       style="fill:none;stroke:#c9d1d9;stroke-width:0.49814;stroke-linecap:butt;stroke-linejoin:miter;stroke-miterlimit:10;stroke-dasharray:2.98883, 2.98883;stroke-dashoffset:0;stroke-opacity:1"
       transform="matrix(1.3333333,0,0,-1.3333333,45.354667,196.53867)" />
    <path
       id="path10"
       d="M -2.1918,2.57101 C -1.79137,1.02838 -0.89903,0.29994 0,0 -0.89903,-0.29994 -1.79137,-1.02838 -2.1918,-2.57101"
       style="fill:none;stroke:#c9d1d9;stroke-width:0.49814;stroke-linecap:round;stroke-linejoin:round;stroke-miterlimit:10;stroke-dasharray:none;stroke-opacity:1"
       transform="matrix(0,1.3333333,1.3333333,0,196.53765,192.42679)" />
    <path
       id="path11"
       d="m 16.59433,54.33151 c 0,1.33707 -1.08388,2.42095 -2.42094,2.42095 -1.33706,0 -2.42095,-1.08388 -2.42095,-2.42095 0,-1.33705 1.08389,-2.42094 2.42095,-2.42094 1.33706,0 2.42094,1.08389 2.42094,2.42094 z"
       style="fill:#c9d1d9;fill-opacity:1;fill-rule:nonzero;stroke:#c9d1d9;stroke-width:0.3985;stroke-linecap:butt;stroke-linejoin:miter;stroke-miterlimit:10;stroke-dasharray:none;stroke-opacity:1"
       transform="matrix(1.3333333,0,0,-1.3333333,45.354667,196.53867)" />
    <path
       id="path12"
       d="m 115.80818,103.93843 c 0,1.33705 -1.08389,2.42095 -2.42094,2.42095 -1.33707,0 -2.42094,-1.0839 -2.42094,-2.42095 0,-1.33707 1.08387,-2.42094 2.42094,-2.42094 1.33705,0 2.42094,1.08387 2.42094,2.42094 z"
       style="fill:#c9d1d9;fill-opacity:1;fill-rule:nonzero;stroke:#c9d1d9;stroke-width:0.3985;stroke-linecap:butt;stroke-linejoin:miter;stroke-miterlimit:10;stroke-dasharray:none;stroke-opacity:1"
       transform="matrix(1.3333333,0,0,-1.3333333,45.354667,196.53867)" />
    <path
       id="path13"
       d="m 14.17339,0 h 99.21385"
       style="fill:none;stroke:#b39af0;stroke-width:4.98138;stroke-linecap:butt;stroke-linejoin:miter;stroke-miterlimit:10;stroke-dasharray:none;stroke-opacity:0.6"
       transform="matrix(1.3333333,0,0,-1.3333333,45.354667,196.53867)" />
    <path
       id="path14"
       d="m 16.59433,0 c 0,1.33705 -1.08388,2.42094 -2.42094,2.42094 -1.33706,0 -2.42095,-1.08389 -2.42095,-2.42094 0,-1.33705 1.08389,-2.42094 2.42095,-2.42094 1.33706,0 2.42094,1.08389 2.42094,2.42094 z m 99.21385,0 c 0,1.33705 -1.08389,2.42094 -2.42094,2.42094 -1.33707,0 -2.42094,-1.08389 -2.42094,-2.42094 0,-1.33705 1.08387,-2.42094 2.42094,-2.42094 1.33705,0 2.42094,1.08389 2.42094,2.42094 z"
       style="fill:#b39af0;fill-opacity:1;fill-rule:nonzero;stroke:#c9d1d9;stroke-width:0.3985;stroke-linecap:butt;stroke-linejoin:miter;stroke-miterlimit:10;stroke-dasharray:none;stroke-opacity:1"
       transform="matrix(1.3333333,0,0,-1.3333333,45.354667,196.53867)" />
    <path
       id="path15"
       d="m 1.2894844,7.03125e-4 h 2.4140625 c 2.8359375,0 4.3828125,-1.746093725 4.3828125,-4.746093725 0,-2.9882813 -1.546875,-4.6640625 -4.4414063,-4.6640625 H 1.2894844 Z M 2.4965156,-0.98367187 V -8.4133594 h 1.0664063 c 2.1914062,0 3.28125,1.3007813 3.28125,3.6679688 0,2.3789062 -1.0898438,3.76171873 -3.28125,3.76171873 z M 12.726984,0.17648438 c 1.699219,0 3.234375,-1.33593748 3.234375,-3.64453128 0,-2.34375 -1.535156,-3.6796875 -3.234375,-3.6796875 -1.710937,0 -3.2343746,1.3359375 -3.2343746,3.6796875 0,2.3085938 1.5234376,3.64453128 3.2343746,3.64453128 z m 0,-0.99609375 c -1.195312,0 -1.992187,-1.05468753 -1.992187,-2.64843753 0,-1.6054687 0.796875,-2.6835937 1.992187,-2.6835937 1.207032,0 2.003907,1.078125 2.003907,2.6835937 0,1.59375 -0.796875,2.64843753 -2.003907,2.64843753 z m 5.056641,0.820312495 h 1.195312 V -5.0500781 c 0.644532,-0.7148438 1.21875,-1.0546875 1.734375,-1.0546875 0.890625,0 1.289063,0.5390625 1.289063,1.8398437 V 7.03125e-4 h 1.195312 V -5.0500781 c 0.644532,-0.7148438 1.207032,-1.0546875 1.746094,-1.0546875 0.878906,0 1.289063,0.5390625 1.289063,1.8398437 V 7.03125e-4 h 1.195312 V -4.4172656 c 0,-1.78125 -0.691406,-2.7304688 -2.121094,-2.7304688 -0.84375,0 -1.582031,0.5507813 -2.296875,1.3242188 -0.292968,-0.8203125 -0.867187,-1.3242188 -1.933593,-1.3242188 -0.832032,0 -1.558594,0.5273438 -2.167969,1.1835938 H 18.86175 L 18.768,-6.9719531 h -0.984375 z m 13.5,0.175781255 c 0.878906,0 1.640625,-0.4453125 2.296875,-1.0078125 h 0.04687 l 0.117187,0.832031245 h 0.972657 V -4.2883594 c 0,-1.7226562 -0.726563,-2.859375 -2.425782,-2.859375 -1.113281,0 -2.097656,0.4804688 -2.742187,0.9140625 l 0.46875,0.796875 c 0.539062,-0.3515625 1.265625,-0.7148437 2.074219,-0.7148437 1.136718,0 1.417968,0.84375 1.429687,1.7226562 -2.976562,0.328125 -4.265625,1.078125 -4.265625,2.625 0,1.25390628 0.867188,1.98046878 2.027344,1.98046878 z m 0.339844,-0.984375 c -0.679688,0 -1.207032,-0.29296878 -1.207032,-1.06640628 0,-0.9023437 0.761719,-1.4414062 3.105469,-1.7109375 v 1.8984375 c -0.667969,0.5859375 -1.230469,0.87890628 -1.898437,0.87890628 z m 5.285156,0.808593745 h 1.195312 V -6.9719531 H 36.908625 Z M 37.518,-8.4016406 c 0.457031,0 0.785156,-0.3046875 0.785156,-0.7734375 0,-0.46875 -0.328125,-0.7734375 -0.785156,-0.7734375 -0.457031,0 -0.796875,0.3046875 -0.796875,0.7734375 0,0.46875 0.339844,0.7734375 0.796875,0.7734375 z M 40.450617,7.03125e-4 H 41.64593 V -5.0500781 c 0.691406,-0.703125 1.195312,-1.0546875 1.898437,-1.0546875 0.914063,0 1.3125,0.5390625 1.3125,1.8398437 V 7.03125e-4 H 46.05218 V -4.4172656 c 0,-1.78125 -0.667969,-2.7304688 -2.144532,-2.7304688 -0.960937,0 -1.675781,0.5273438 -2.332031,1.1835938 h -0.04687 l -0.09375,-1.0078125 h -0.984375 z m 0,0"
       style="fill:#b39af0;fill-opacity:1;fill-rule:nonzero;stroke:none"
       aria-label="Domain"
       transform="matrix(1.3333333,0,0,1.3333333,98.976,221.96)" />
    <path
       id="path16"
       d="m 14.17339,54.33238 c 0,0 2.98667,4.88848 4.13377,6.68877 1.14709,1.80029 2.98666,4.59772 4.13376,6.2865 1.14711,1.68878 2.98668,4.30783 4.13377,5.88511 1.1471,1.57727 2.98667,4.01714 4.13376,5.48285 1.1471,1.46572 2.98666,3.72683 4.13376,5.08104 1.14709,1.35421 2.98668,3.4365 4.13377,4.6792 1.1471,1.24269 2.98667,3.14617 4.13376,4.27736 1.1471,1.13119 2.98668,2.85589 4.13378,3.87554 1.14709,1.01962 2.98668,2.56517 4.13377,3.47328 1.14709,0.90812 2.98666,2.27527 4.13376,3.07188 1.14709,0.79662 2.98668,1.98453 4.13377,2.66963 1.1471,0.68511 2.98665,1.69463 4.13374,2.26822 1.1471,0.57361 2.98668,1.40395 4.13378,1.86597 1.14709,0.46204 2.98666,1.11362 4.13377,1.46414 1.14709,0.35053 2.98667,0.82327 4.13376,1.06232 1.1471,0.23903 2.98668,0.53297 4.13377,0.66049 1.1471,0.12752 2.98667,0.24263 4.13376,0.25865 1.1471,0.016 2.98668,-0.0477 4.13378,-0.14316 1.14709,-0.0955 2.98666,-0.33798 4.13377,-0.54501 1.1471,-0.20703 2.98665,-0.62865 4.13375,-0.94725 1.14709,-0.31861 2.98667,-0.91905 4.13377,-1.34909 1.14709,-0.43005 2.98666,-1.20892 4.13376,-1.75049 1.14709,-0.54155 2.98667,-1.4996 4.13377,-2.15274 1.1471,-0.65312 4.13376,-2.55457 4.13376,-2.55457"
       style="fill:none;stroke:#c9d1d9;stroke-width:0.99628;stroke-linecap:butt;stroke-linejoin:miter;stroke-miterlimit:10;stroke-dasharray:none;stroke-opacity:1"
       transform="matrix(1.3333333,0,0,-1.3333333,45.354667,196.53867)" />
  </g>
</svg>
