<?xml version="1.0" encoding="UTF-8" standalone="no"?>
<!-- Created with Inkscape (http://www.inkscape.org/) -->

<svg
   version="1.1"
   id="svg1"
   width="1181.6801"
   height="232.26666"
   viewBox="0 0 1181.6801 232.26666"
   sodipodi:docname="MATH_118-48.pdf"
   xmlns:inkscape="http://www.inkscape.org/namespaces/inkscape"
   xmlns:sodipodi="http://sodipodi.sourceforge.net/DTD/sodipodi-0.dtd"
   xmlns="http://www.w3.org/2000/svg"
   xmlns:svg="http://www.w3.org/2000/svg">
  <defs
     id="defs1" />
  <sodipodi:namedview
     id="namedview1"
     pagecolor="#ffffff"
     bordercolor="#000000"
     borderopacity="0.25"
     inkscape:showpageshadow="2"
     inkscape:pageopacity="0.0"
     inkscape:pagecheckerboard="0"
     inkscape:deskcolor="#d1d1d1">
    <inkscape:page
       x="0"
       y="0"
       inkscape:label="1"
       id="page1"
       width="1181.6801"
       height="232.26666"
       margin="0"
       bleed="0" />
  </sodipodi:namedview>
  <g
     id="g1"
     inkscape:groupmode="layer"
     inkscape:label="1">
    <path
       id="path1"
       d="M -113.38724,0 H 112.8891"
       style="fill:none;stroke:#c9d1d9;stroke-width:0.49814;stroke-linecap:butt;stroke-linejoin:miter;stroke-miterlimit:10;stroke-dasharray:none;stroke-opacity:1"
       transform="matrix(1.3333333,0,0,-1.3333333,196.94667,113.38133)" />
    <path
       id="path2"
       d="M -2.1918,2.57101 C -1.79137,1.02838 -0.89903,0.29994 0,0 -0.89903,-0.29994 -1.79137,-1.02838 -2.1918,-2.57101"
       style="fill:none;stroke:#c9d1d9;stroke-width:0.49814;stroke-linecap:round;stroke-linejoin:round;stroke-miterlimit:10;stroke-dasharray:none;stroke-opacity:1"
       transform="matrix(1.3333333,0,0,-1.3333333,347.79756,113.38133)" />
    <path
       id="path3"
       d="M 0,-56.69362 V 56.19548"
       style="fill:none;stroke:#c9d1d9;stroke-width:0.49814;stroke-linecap:butt;stroke-linejoin:miter;stroke-miterlimit:10;stroke-dasharray:none;stroke-opacity:1"
       transform="matrix(1.3333333,0,0,-1.3333333,196.94667,113.38133)" />
    <path
       id="path4"
       d="M -2.1918,2.57101 C -1.79137,1.02838 -0.89903,0.29994 0,0 -0.89903,-0.29994 -1.79137,-1.02838 -2.1918,-2.57101"
       style="fill:none;stroke:#c9d1d9;stroke-width:0.49814;stroke-linecap:round;stroke-linejoin:round;stroke-miterlimit:10;stroke-dasharray:none;stroke-opacity:1"
       transform="matrix(0,-1.3333333,-1.3333333,0,196.94667,38.121933)" />
    <path
       id="path5"
       d="m -98.49883,9.24901 c 5.25833,-5.1019 5.25833,-5.1019 7.55254,-7.35841 2.29421,-2.25649 5.97331,-6.00654 8.26753,-8.21125 2.29421,-2.20473 5.97333,-5.71215 8.26754,-7.67886 2.2942,-1.96671 5.97332,-4.93339 8.26753,-6.49585 2.2942,-1.56246 5.97333,-3.73911 8.26753,-4.76528 2.29421,-1.02616 5.97331,-2.22752 8.26752,-2.6307 2.2942,-0.40317 5.97333,-0.5287 8.26753,-0.27509 2.29422,0.25362 5.97333,1.2139 8.26755,2.10301 2.2942,0.8891 5.97333,2.85535 8.26753,4.30504 2.2942,1.44969 5.97331,4.25568 8.26752,6.14334 2.2942,1.88765 5.97332,5.29558 8.26753,7.4617 2.2942,2.16614 5.97333,5.88871 8.26753,8.15032 2.29419,2.2616 5.97331,5.98367 8.26752,8.14986 2.29419,2.16619 5.97331,5.57467 8.26752,7.46258 2.2942,1.88789 5.97332,4.69415 8.26753,6.1442 2.2942,1.45004 5.97333,3.41714 8.26753,4.30678 2.29421,0.88963 5.97333,1.85096 8.26753,2.10516 2.29421,0.25421 5.97332,0.1297 8.26752,-0.27294 2.29422,-0.40262 5.97334,-1.60327 8.26755,-2.62896 2.2942,-1.0257 5.97333,-3.20151 8.26753,-4.76354 2.2942,-1.56204 5.97332,-4.52821 8.26753,-6.49457 2.29421,-1.96633 5.97331,-5.47294 8.26752,-7.67753 2.2942,-2.20459 5.97333,-5.95503 8.26753,-8.2117 2.29421,-2.25669 8.26755,-8.053 7.55258,-7.35922"
       style="fill:none;stroke:#c9d1d9;stroke-width:0.99628;stroke-linecap:butt;stroke-linejoin:miter;stroke-miterlimit:10;stroke-dasharray:none;stroke-opacity:1"
       transform="matrix(1.3333333,0,0,-1.3333333,196.94667,113.38133)" />
    <path
       id="path6"
       d="M -2.78957,3.47087 C -2.27992,1.38832 -1.14423,0.40492 0,0 -1.14423,-0.40492 -2.27992,-1.38832 -2.78957,-3.47087"
       style="fill:none;stroke:#c9d1d9;stroke-width:0.99628;stroke-linecap:round;stroke-linejoin:round;stroke-miterlimit:10;stroke-dasharray:none;stroke-opacity:1"
       transform="matrix(-0.95689333,-0.92842667,-0.92842667,0.95689333,65.13824,100.58684)" />
    <path
       id="path7"
       d="M -2.78957,3.47087 C -2.27992,1.38832 -1.14423,0.40492 0,0 -1.14423,-0.40492 -2.27992,-1.38832 -2.78957,-3.47087"
       style="fill:none;stroke:#c9d1d9;stroke-width:0.99628;stroke-linecap:round;stroke-linejoin:round;stroke-miterlimit:10;stroke-dasharray:none;stroke-opacity:1"
       transform="matrix(0.95685333,0.92849333,0.92849333,-0.95685333,328.74591,126.16773)" />
    <path
       id="path8"
       d="M -113.38724,0 H 112.8891"
       style="fill:none;stroke:#c9d1d9;stroke-width:0.49814;stroke-linecap:butt;stroke-linejoin:miter;stroke-miterlimit:10;stroke-dasharray:none;stroke-opacity:1"
       transform="matrix(1.3333333,0,0,-1.3333333,590.83867,113.38133)" />
    <path
       id="path9"
       d="M -2.1918,2.57101 C -1.79137,1.02838 -0.89903,0.29994 0,0 -0.89903,-0.29994 -1.79137,-1.02838 -2.1918,-2.57101"
       style="fill:none;stroke:#c9d1d9;stroke-width:0.49814;stroke-linecap:round;stroke-linejoin:round;stroke-miterlimit:10;stroke-dasharray:none;stroke-opacity:1"
       transform="matrix(1.3333333,0,0,-1.3333333,741.68956,113.38133)" />
    <path
       id="path10"
       d="M 0,-56.69362 V 56.19548"
       style="fill:none;stroke:#c9d1d9;stroke-width:0.49814;stroke-linecap:butt;stroke-linejoin:miter;stroke-miterlimit:10;stroke-dasharray:none;stroke-opacity:1"
       transform="matrix(1.3333333,0,0,-1.3333333,590.83867,113.38133)" />
    <path
       id="path11"
       d="M -2.1918,2.57101 C -1.79137,1.02838 -0.89903,0.29994 0,0 -0.89903,-0.29994 -1.79137,-1.02838 -2.1918,-2.57101"
       style="fill:none;stroke:#c9d1d9;stroke-width:0.49814;stroke-linecap:round;stroke-linejoin:round;stroke-miterlimit:10;stroke-dasharray:none;stroke-opacity:1"
       transform="matrix(0,-1.3333333,-1.3333333,0,590.83867,38.121933)" />
    <path
       id="path12"
       d="m 84.07544,-56.44604 c -12.33766,3.16566 -12.33766,3.16566 -17.14453,4.4766 -4.80686,1.31094 -12.16521,3.41324 -16.53505,4.72419 -4.36984,1.31094 -11.02687,3.41323 -14.95976,4.72418 -3.9329,1.31094 -9.88977,3.41324 -13.38576,4.72418 -3.49599,1.31094 -8.75192,3.41324 -11.81088,4.72418 -3.05896,1.31095 -7.61397,3.41324 -10.23601,4.72418 -2.62204,1.31095 -6.4769,3.41326 -8.66199,4.72419 -2.18509,1.31092 -5.33861,3.41324 -7.08668,4.72416 -1.74808,1.31093 -4.2011,3.41324 -5.51227,4.72418 -1.31117,1.31095 -3.06355,3.41324 -3.93784,4.72419 -0.87428,1.31094 -1.92613,3.41324 -2.36339,4.72418 -0.43725,1.31094 -0.78779,3.41325 -0.78808,4.72418 -2.9e-4,1.31091 0.34932,3.41322 0.78592,4.72415 0.43661,1.31093 1.48718,3.41326 2.36079,4.72419 0.87361,1.31092 2.62515,3.41323 3.93567,4.72416 1.31052,1.31093 3.76219,3.41324 5.50967,4.72418 1.74749,1.31095 4.90049,3.41324 7.08498,4.72419 2.18449,1.31094 6.03801,3.41323 8.65941,4.72418 2.62138,1.31094 7.17554,3.41324 10.23382,4.72418 3.05829,1.31094 8.31296,3.41324 11.80828,4.72418 3.49531,1.31094 9.45131,3.41324 13.38359,4.72418 3.93228,1.31095 10.58842,3.41326 14.95761,4.72419 4.36919,1.31093 11.72626,3.41324 16.53246,4.72417 4.80618,1.31092 18.10734,4.72418 17.14238,4.47659"
       style="fill:none;stroke:#c9d1d9;stroke-width:0.99628;stroke-linecap:butt;stroke-linejoin:miter;stroke-miterlimit:10;stroke-dasharray:none;stroke-opacity:1"
       transform="matrix(1.3333333,0,0,-1.3333333,590.83867,113.38133)" />
    <path
       id="path13"
       d="M -2.78957,3.47087 C -2.27992,1.38832 -1.14423,0.40492 0,0 -1.14423,-0.40492 -2.27992,-1.38832 -2.78957,-3.47087"
       style="fill:none;stroke:#c9d1d9;stroke-width:0.99628;stroke-linecap:round;stroke-linejoin:round;stroke-miterlimit:10;stroke-dasharray:none;stroke-opacity:1"
       transform="matrix(1.29144,0.33132,0.33132,-1.29144,703.58259,188.80776)" />
    <path
       id="path14"
       d="M -2.78957,3.47087 C -2.27992,1.38832 -1.14423,0.40492 0,0 -1.14423,-0.40492 -2.27992,-1.38832 -2.78957,-3.47087"
       style="fill:none;stroke:#c9d1d9;stroke-width:0.99628;stroke-linecap:round;stroke-linejoin:round;stroke-miterlimit:10;stroke-dasharray:none;stroke-opacity:1"
       transform="matrix(1.2914267,-0.33136,-0.33136,-1.2914267,703.54568,37.964133)" />
    <path
       id="path15"
       d="M -113.38724,0 H 112.8891"
       style="fill:none;stroke:#c9d1d9;stroke-width:0.49814;stroke-linecap:butt;stroke-linejoin:miter;stroke-miterlimit:10;stroke-dasharray:none;stroke-opacity:1"
       transform="matrix(1.3333333,0,0,-1.3333333,984.732,113.38133)" />
    <path
       id="path16"
       d="M -2.1918,2.57101 C -1.79137,1.02838 -0.89903,0.29994 0,0 -0.89903,-0.29994 -1.79137,-1.02838 -2.1918,-2.57101"
       style="fill:none;stroke:#c9d1d9;stroke-width:0.49814;stroke-linecap:round;stroke-linejoin:round;stroke-miterlimit:10;stroke-dasharray:none;stroke-opacity:1"
       transform="matrix(1.3333333,0,0,-1.3333333,1135.5829,113.38133)" />
    <path
       id="path17"
       d="M 0,-56.69362 V 56.19548"
       style="fill:none;stroke:#c9d1d9;stroke-width:0.49814;stroke-linecap:butt;stroke-linejoin:miter;stroke-miterlimit:10;stroke-dasharray:none;stroke-opacity:1"
       transform="matrix(1.3333333,0,0,-1.3333333,984.732,113.38133)" />
    <path
       id="path18"
       d="M -2.1918,2.57101 C -1.79137,1.02838 -0.89903,0.29994 0,0 -0.89903,-0.29994 -1.79137,-1.02838 -2.1918,-2.57101"
       style="fill:none;stroke:#c9d1d9;stroke-width:0.49814;stroke-linecap:round;stroke-linejoin:round;stroke-miterlimit:10;stroke-dasharray:none;stroke-opacity:1"
       transform="matrix(0,-1.3333333,-1.3333333,0,984.732,38.121933)" />
    <path
       id="path19"
       d="m -53.60048,58.8487 c 2.2162,-8.25672 2.2162,-8.25672 3.16657,-11.6385 0.95037,-3.38177 2.47445,-8.62072 3.42483,-11.77282 0.95036,-3.1521 2.47448,-8.02288 3.42484,-10.94536 0.95036,-2.92249 2.47447,-7.42511 3.42483,-10.11794 0.95036,-2.69281 2.47447,-6.82685 3.42484,-9.29005 0.95036,-2.46318 2.47447,-6.22942 3.42483,-8.463 0.95038,-2.23358 2.47447,-5.63131 3.42485,-7.63516 0.95037,-2.00384 2.47446,-5.0331 3.42482,-6.80728 0.95037,-1.77417 2.47447,-4.43523 3.42484,-5.97984 0.95036,-1.54464 2.47447,-3.83786 3.42483,-5.15282 0.95038,-1.31496 2.47447,-3.23924 3.42485,-4.32453 0.95037,-1.08528 2.47448,-2.64183 3.42484,-3.49751 0.95036,-0.85566 2.47446,-2.04361 3.42482,-2.66961 0.95036,-0.626 2.47447,-1.44585 3.42483,-1.84218 0.95036,-0.39633 2.47448,-0.8476 3.42484,-1.0143 0.95038,-0.1667 2.47446,-0.25018 3.42482,-0.18729 0.95036,0.06289 2.47447,0.34796 3.42483,0.6406 0.95037,0.29262 2.47447,0.94623 3.42484,1.46846 0.95036,0.52223 2.47446,1.54363 3.42482,2.29547 0.95038,0.75185 2.47447,2.14184 3.42483,3.12336 0.95038,0.98153 2.47448,2.73962 3.42485,3.9508 0.95037,1.2112 2.47448,3.33787 3.42484,4.77868 0.95036,1.44082 2.47447,3.93522 3.42484,5.6057 0.95036,1.67049 3.42483,6.43399 3.42483,6.43399"
       style="fill:none;stroke:#c9d1d9;stroke-width:0.99628;stroke-linecap:butt;stroke-linejoin:miter;stroke-miterlimit:10;stroke-dasharray:none;stroke-opacity:1"
       transform="matrix(1.3333333,0,0,-1.3333333,984.732,113.38133)" />
    <path
       id="path20"
       d="M -2.78957,3.47087 C -2.27992,1.38832 -1.14423,0.40492 0,0 -1.14423,-0.40492 -2.27992,-1.38832 -2.78957,-3.47087"
       style="fill:none;stroke:#c9d1d9;stroke-width:0.99628;stroke-linecap:round;stroke-linejoin:round;stroke-miterlimit:10;stroke-dasharray:none;stroke-opacity:1"
       transform="matrix(-0.34564,-1.2877333,-1.2877333,0.34564,913.09253,34.274947)" />
    <path
       id="path21"
       d="m 28.3468,42.5202 c 0,0 2.56008,-0.04928 3.54334,-0.11073 0.98326,-0.06145 2.56009,-0.20931 3.54335,-0.3322 0.98327,-0.12289 2.56009,-0.36927 3.54336,-0.55363 0.98326,-0.18436 2.56009,-0.5293 3.54335,-0.7751 0.98326,-0.24582 2.56009,-0.68932 3.54335,-0.99659 0.98326,-0.30726 2.56009,-0.8493 3.54335,-1.21801 0.98326,-0.36872 2.56009,-1.00933 3.54335,-1.43949 0.98328,-0.43017 2.56009,-1.16932 3.54337,-1.66096 0.98326,-0.49163 2.56008,-1.32932 3.54333,-1.8824 0.98326,-0.55307 2.56009,-1.48932 3.54335,-2.10385 0.98327,-0.61455 2.5601,-1.64934 3.54335,-2.32534 0.98327,-0.67598 2.56009,-1.80934 3.54335,-2.54678 0.98328,-0.73744 2.5601,-1.96935 3.54337,-2.76824 0.98326,-0.79888 2.56009,-2.12936 3.54335,-2.98971 0.98326,-0.86035 2.56009,-2.28935 3.54335,-3.21115 0.98326,-0.92182 2.56009,-2.44937 3.54335,-3.43263 0.98326,-0.98327 2.56008,-2.60938 3.54334,-3.65409 0.98326,-1.0447 2.56008,-2.76936 3.54334,-3.87553 0.98328,-1.10617 2.5601,-2.92938 3.54337,-4.097 0.98326,-1.16762 2.56009,-3.08936 3.54335,-4.31844 0.98326,-1.22908 2.56009,-3.24939 3.54335,-4.53991 0.98326,-1.29053 2.56009,-3.4094 3.54335,-4.76139 0.98326,-1.35197 2.56009,-3.56938 3.54335,-4.98282 0.98328,-1.41343 3.54337,-5.20431 2.98581,-4.37869"
       style="fill:none;stroke:#c9d1d9;stroke-width:0.99628;stroke-linecap:butt;stroke-linejoin:miter;stroke-miterlimit:10;stroke-dasharray:none;stroke-opacity:1"
       transform="matrix(1.3333333,0,0,-1.3333333,984.732,113.38133)" />
    <path
       id="path22"
       d="M -2.78957,3.47087 C -2.27992,1.38832 -1.14423,0.40492 0,0 -1.14423,-0.40492 -2.27992,-1.38832 -2.78957,-3.47087"
       style="fill:none;stroke:#c9d1d9;stroke-width:0.99628;stroke-linecap:round;stroke-linejoin:round;stroke-miterlimit:10;stroke-dasharray:none;stroke-opacity:1"
       transform="matrix(0.74617333,1.1049333,1.1049333,-0.74617333,1135.5433,141.17772)" />
    <path
       id="path23"
       d="m 30.76775,-14.17339 c 0,1.33706 -1.08388,2.42095 -2.42095,2.42095 -1.33706,0 -2.42094,-1.08389 -2.42094,-2.42095 0,-1.33706 1.08388,-2.42094 2.42094,-2.42094 1.33707,0 2.42095,1.08388 2.42095,2.42094 z"
       style="fill:#c9d1d9;fill-opacity:1;fill-rule:nonzero;stroke:#c9d1d9;stroke-width:0.3985;stroke-linecap:butt;stroke-linejoin:miter;stroke-miterlimit:10;stroke-dasharray:none;stroke-opacity:1"
       transform="matrix(1.3333333,0,0,-1.3333333,984.732,113.38133)" />
    <path
       id="path24"
       d="m 30.76775,42.5202 c 0,1.33705 -1.08388,2.42095 -2.42095,2.42095 -1.33706,0 -2.42094,-1.0839 -2.42094,-2.42095 0,-1.33706 1.08388,-2.42094 2.42094,-2.42094 1.33707,0 2.42095,1.08388 2.42095,2.42094 z"
       style="fill:#c9d1d9;fill-opacity:1;fill-rule:nonzero;stroke:#c9d1d9;stroke-width:0.3985;stroke-linecap:butt;stroke-linejoin:miter;stroke-miterlimit:10;stroke-dasharray:none;stroke-opacity:1"
       transform="matrix(1.3333333,0,0,-1.3333333,984.732,113.38133)" />
  </g>
</svg>
