<?xml version="1.0" encoding="UTF-8" standalone="no"?>
<!-- Created with Inkscape (http://www.inkscape.org/) -->

<svg
   version="1.1"
   id="svg1"
   width="340.16"
   height="340.16"
   viewBox="0 0 340.16 340.16"
   sodipodi:docname="MATH_118-57.pdf"
   xmlns:inkscape="http://www.inkscape.org/namespaces/inkscape"
   xmlns:sodipodi="http://sodipodi.sourceforge.net/DTD/sodipodi-0.dtd"
   xmlns="http://www.w3.org/2000/svg"
   xmlns:svg="http://www.w3.org/2000/svg">
  <defs
     id="defs1" />
  <sodipodi:namedview
     id="namedview1"
     pagecolor="#ffffff"
     bordercolor="#000000"
     borderopacity="0.25"
     inkscape:showpageshadow="2"
     inkscape:pageopacity="0.0"
     inkscape:pagecheckerboard="0"
     inkscape:deskcolor="#d1d1d1">
    <inkscape:page
       x="0"
       y="0"
       inkscape:label="1"
       id="page1"
       width="340.16"
       height="340.16"
       margin="0"
       bleed="0" />
  </sodipodi:namedview>
  <g
     id="g1"
     inkscape:groupmode="layer"
     inkscape:label="1">
    <path
       id="path1"
       d="M -113.38724,0 H 112.8891"
       style="fill:none;stroke:#c9d1d9;stroke-width:0.49814;stroke-linecap:butt;stroke-linejoin:miter;stroke-miterlimit:10;stroke-dasharray:none;stroke-opacity:1"
       transform="matrix(1.3333333,0,0,-1.3333333,170.07867,170.08133)" />
    <path
       id="path2"
       d="M -2.1918,2.57101 C -1.79137,1.02838 -0.89903,0.29994 0,0 -0.89903,-0.29994 -1.79137,-1.02838 -2.1918,-2.57101"
       style="fill:none;stroke:#c9d1d9;stroke-width:0.49814;stroke-linecap:round;stroke-linejoin:round;stroke-miterlimit:10;stroke-dasharray:none;stroke-opacity:1"
       transform="matrix(1.3333333,0,0,-1.3333333,320.92956,170.08133)" />
    <path
       id="path3"
       d="M 0,-113.38724 V 112.8891"
       style="fill:none;stroke:#c9d1d9;stroke-width:0.49814;stroke-linecap:butt;stroke-linejoin:miter;stroke-miterlimit:10;stroke-dasharray:none;stroke-opacity:1"
       transform="matrix(1.3333333,0,0,-1.3333333,170.07867,170.08133)" />
    <path
       id="path4"
       d="M -2.1918,2.57101 C -1.79137,1.02838 -0.89903,0.29994 0,0 -0.89903,-0.29994 -1.79137,-1.02838 -2.1918,-2.57101"
       style="fill:none;stroke:#c9d1d9;stroke-width:0.49814;stroke-linecap:round;stroke-linejoin:round;stroke-miterlimit:10;stroke-dasharray:none;stroke-opacity:1"
       transform="matrix(0,-1.3333333,-1.3333333,0,170.07867,19.23044)" />
    <path
       id="path5"
       d="m -112.68275,-112.68275 c 6.12233,6.12233 6.12233,6.12233 8.74432,8.74432 2.62199,2.62199 6.8268,6.8268 9.44879,9.44879 2.62199,2.62199 6.8268,6.8268 9.44879,9.44879 2.622,2.622 6.8268,6.8268 9.44879,9.44879 2.622,2.622 6.8268,6.8268 9.4488,9.4488 2.62199,2.62199 6.82681,6.82681 9.4488,9.4488 2.62198,2.62198 6.8268,6.8268 9.44879,9.44879 2.62198,2.62198 6.8268,6.8268 9.44878,9.44878 2.62199,2.62199 6.82679,6.82679 9.44879,9.44879 2.622,2.622 6.8268,6.8268 9.4488,9.4488 2.62199,2.62199 6.8268,6.8268 9.4488,9.4488 2.622,2.622 6.8268,6.8268 9.44879,9.44879 2.62198,2.62198 6.82677,6.82677 9.44876,9.44876 2.622,2.622 6.8268,6.8268 9.44879,9.44879 2.622,2.622 6.8268,6.8268 9.4488,9.4488 2.62197,2.62197 6.82679,6.82679 9.44877,9.44877 2.62199,2.62199 6.82681,6.82681 9.44881,9.44881 2.62199,2.62199 6.8268,6.8268 9.44879,9.44879 2.62199,2.62199 6.82679,6.82679 9.44879,9.44879 2.622,2.622 6.8268,6.8268 9.4488,9.4488 2.62199,2.62199 6.82679,6.82679 9.44878,9.44878 2.622,2.622 6.82682,6.82682 9.44881,9.44881 2.62199,2.62199 6.8268,6.8268 9.44879,9.44879 2.62198,2.62198 9.44878,9.44878 8.74431,8.74431"
       style="fill:none;stroke:#b39af0;stroke-width:0.99628;stroke-linecap:butt;stroke-linejoin:miter;stroke-miterlimit:10;stroke-dasharray:none;stroke-opacity:1"
       transform="matrix(1.3333333,0,0,-1.3333333,170.07867,170.08133)" />
    <path
       id="path6"
       d="M -2.78957,3.47087 C -2.27992,1.38832 -1.14423,0.40492 0,0 -1.14423,-0.40492 -2.27992,-1.38832 -2.78957,-3.47087"
       style="fill:none;stroke:#b39af0;stroke-width:0.99628;stroke-linecap:round;stroke-linejoin:round;stroke-miterlimit:10;stroke-dasharray:none;stroke-opacity:1"
       transform="matrix(-0.9428,0.9428,0.9428,0.9428,19.365333,320.79467)" />
    <path
       id="path7"
       d="M -2.78957,3.47087 C -2.27992,1.38832 -1.14423,0.40492 0,0 -1.14423,-0.40492 -2.27992,-1.38832 -2.78957,-3.47087"
       style="fill:none;stroke:#b39af0;stroke-width:0.99628;stroke-linecap:round;stroke-linejoin:round;stroke-miterlimit:10;stroke-dasharray:none;stroke-opacity:1"
       transform="matrix(0.9428,-0.9428,-0.9428,-0.9428,320.78739,19.372613)" />
  </g>
</svg>
