<?xml version="1.0" encoding="UTF-8" standalone="no"?>
<!-- Created with Inkscape (http://www.inkscape.org/) -->

<svg
   version="1.1"
   id="svg1"
   width="302.35999"
   height="188.97333"
   viewBox="0 0 302.35999 188.97333"
   sodipodi:docname="MATH_118-74.pdf"
   xmlns:inkscape="http://www.inkscape.org/namespaces/inkscape"
   xmlns:sodipodi="http://sodipodi.sourceforge.net/DTD/sodipodi-0.dtd"
   xmlns="http://www.w3.org/2000/svg"
   xmlns:svg="http://www.w3.org/2000/svg">
  <defs
     id="defs1" />
  <sodipodi:namedview
     id="namedview1"
     pagecolor="#ffffff"
     bordercolor="#000000"
     borderopacity="0.25"
     inkscape:showpageshadow="2"
     inkscape:pageopacity="0.0"
     inkscape:pagecheckerboard="0"
     inkscape:deskcolor="#d1d1d1">
    <inkscape:page
       x="0"
       y="0"
       inkscape:label="1"
       id="page1"
       width="302.35999"
       height="188.97333"
       margin="0"
       bleed="0" />
  </sodipodi:namedview>
  <g
     id="g1"
     inkscape:groupmode="layer"
     inkscape:label="1">
    <path
       id="path1"
       d="M -99.21382,0 H 98.96475"
       style="fill:none;stroke:#c9d1d9;stroke-width:0.24907;stroke-linecap:butt;stroke-linejoin:miter;stroke-miterlimit:10;stroke-dasharray:none;stroke-opacity:1"
       transform="matrix(1.3333333,0,0,-1.3333333,151.18133,94.485333)" />
    <path
       id="path2"
       d="M -1.89291,2.12108 C -1.54709,0.84842 -0.77643,0.24745 0,0 -0.77643,-0.24745 -1.54709,-0.84842 -1.89291,-2.12108"
       style="fill:none;stroke:#c9d1d9;stroke-width:0.24907;stroke-linecap:round;stroke-linejoin:round;stroke-miterlimit:10;stroke-dasharray:none;stroke-opacity:1"
       transform="matrix(1.3333333,0,0,-1.3333333,283.30037,94.485333)" />
    <path
       id="path3"
       d="M 0,-56.69362 V 56.44455"
       style="fill:none;stroke:#c9d1d9;stroke-width:0.24907;stroke-linecap:butt;stroke-linejoin:miter;stroke-miterlimit:10;stroke-dasharray:none;stroke-opacity:1"
       transform="matrix(1.3333333,0,0,-1.3333333,151.18133,94.485333)" />
    <path
       id="path4"
       d="M -1.89291,2.12108 C -1.54709,0.84842 -0.77643,0.24745 0,0 -0.77643,-0.24745 -1.54709,-0.84842 -1.89291,-2.12108"
       style="fill:none;stroke:#c9d1d9;stroke-width:0.24907;stroke-linecap:round;stroke-linejoin:round;stroke-miterlimit:10;stroke-dasharray:none;stroke-opacity:1"
       transform="matrix(0,-1.3333333,-1.3333333,0,151.18133,19.059893)" />
    <path
       id="path5"
       d="m -89.03749,-0.01642 0.35683,-0.35684 0.35686,-0.35642 0.35684,-0.35684 0.35684,-0.35641 0.35684,-0.35597 0.35684,-0.35599 0.35684,-0.35599 0.35686,-0.35467 0.35683,-0.35512 0.35685,-0.35423 0.35683,-0.35383 0.35686,-0.35252 0.35684,-0.35252 0.35684,-0.35207 0.35685,-0.35078 0.35685,-0.34995 0.35683,-0.34904 0.35686,-0.34821 0.35682,-0.34689 0.35686,-0.34603 0.35684,-0.34516 0.35684,-0.34388 0.35686,-0.34257 0.35683,-0.34127 0.35685,-0.33998 0.35685,-0.33867 0.35684,-0.33694 0.35684,-0.33565 0.35684,-0.33435 0.35685,-0.33175 0.35685,-0.33091 0.35683,-0.32914 0.35686,-0.32744 0.35682,-0.3257 0.35686,-0.32355 0.35684,-0.32179 0.35685,-0.31966 0.35684,-0.31705 0.35684,-0.31619 0.35684,-0.31358 0.35686,-0.31143 0.35683,-0.30883 0.35686,-0.30711 0.35682,-0.3045 0.35686,-0.30193 0.35684,-0.30017 0.35684,-0.29715 0.35684,-0.29456 0.35685,-0.29197 0.35684,-0.29022 0.35685,-0.28721 0.35683,-0.28375 0.35686,-0.28158 0.35683,-0.27941 0.35685,-0.27554 0.35685,-0.27292 0.35684,-0.27078 0.35684,-0.26687 0.35686,-0.26385 0.35684,-0.26169 0.35684,-0.25822 0.35684,-0.25476 0.35684,-0.25174 0.35686,-0.24913 0.35683,-0.24526 0.35685,-0.24136 0.35683,-0.23877 0.35686,-0.23616 0.35684,-0.2314 0.35684,-0.22838 0.35685,-0.2258 0.35684,-0.22189 0.35684,-0.21799 0.35686,-0.2141 0.35682,-0.21151 0.35686,-0.20676 0.35683,-0.20329 0.35686,-0.19984 0.35684,-0.1968 0.35684,-0.19204 0.35684,-0.18859 0.35685,-0.1847 0.35684,-0.18122 0.35686,-0.17648 0.35682,-0.17302 0.35686,-0.16998 0.35682,-0.16437 0.35686,-0.16133 0.35684,-0.15701 0.35685,-0.15442 0.35684,-0.14794 0.35684,-0.1449 0.35684,-0.14143 0.35686,-0.13624 0.35683,-0.13237 0.35685,-0.12847 0.35683,-0.12543 0.35686,-0.11896 0.35685,-0.1159 0.35683,-0.1116 0.35686,-0.10684 0.35684,-0.10251 0.35684,-0.09862 0.35684,-0.09515 0.35684,-0.08954 0.35685,-0.08522 0.35685,-0.08132 0.35683,-0.07742 0.35686,-0.07179 0.35683,-0.06749 0.35685,-0.06444 0.35685,-0.05882 0.35684,-0.05451 0.35684,-0.05061 0.35684,-0.04671 0.35684,-0.04022 0.35686,-0.03676 0.35683,-0.03288 0.35686,-0.02811 0.35682,-0.02293 0.35686,-0.01903 0.35684,-0.01556 0.35685,-0.0091 0.35684,-0.0056 0.35684,-0.0017 0.35684,0.0035 0.35686,0.0086 0.35682,0.01255 0.35686,0.01643 0.35683,0.02162 0.35686,0.02596 0.35684,0.03029 0.35684,0.03416 0.35684,0.03979 0.35684,0.04413 0.35686,0.04756 0.35684,0.05279 0.35684,0.05752 0.35685,0.06099 0.35684,0.06531 0.35684,0.07138 0.35686,0.07481 0.35683,0.07916 0.35685,0.08262 0.35684,0.08866 0.35684,0.09214 0.35685,0.09602 0.35684,0.10164 0.35684,0.10554 0.35686,0.10859 0.35683,0.11331 0.35685,0.11851 0.35683,0.12241 0.35686,0.12587 0.35684,0.13063 0.35684,0.13582 0.35684,0.13841 0.35685,0.14273 0.35684,0.14751 0.35686,0.15138 0.35682,0.15529 0.35686,0.15916 0.35683,0.16307 0.35686,0.16784 0.35684,0.17041 0.35684,0.17561 0.35684,0.1795 0.35684,0.18253 0.35684,0.18599 0.35686,0.19162 0.35683,0.19464 0.35686,0.19723 0.35684,0.20243 0.35684,0.2059 0.35686,0.20891 0.35682,0.21238 0.35686,0.21712 0.35683,0.21975 0.35685,0.22361 0.35685,0.22709 0.35684,0.23054 0.35684,0.23356 0.35686,0.2366 0.35683,0.24093 0.35685,0.24396 0.35683,0.24696 0.35685,0.25001 0.35685,0.25391 0.35684,0.25691 0.35684,0.25911 0.35684,0.2634 0.35685,0.26558 0.35685,0.26861 0.35683,0.27164 0.35686,0.27508 0.35682,0.27726 0.35686,0.28029 0.35684,0.28286 0.35685,0.28635 0.35684,0.28809 0.35684,0.29066 0.35684,0.29413 0.35686,0.29628 0.35683,0.29802 0.35686,0.30104 0.35682,0.30365 0.35686,0.3058 0.35684,0.30754 0.35684,0.31099 0.35686,0.31273 0.35683,0.31445 0.35685,0.31618 0.35685,0.31964 0.35684,0.32053 0.35684,0.32223 0.35684,0.32483 0.35684,0.327 0.35686,0.32831 0.35683,0.32959 0.35685,0.3322 0.35683,0.33303 0.35686,0.33435 0.35684,0.33609 0.35684,0.33825 0.35685,0.33955 0.35685,0.34041 0.35683,0.34256 0.35685,0.343 0.35683,0.3443 0.35686,0.34561 0.35684,0.3469 0.35684,0.34776 0.35685,0.34774 0.35684,0.34994 0.35684,0.35078 0.35686,0.35165 0.35682,0.35164 0.35686,0.35253 0.35683,0.35383 0.35686,0.35381 0.35684,0.35467 0.35684,0.35468 0.35684,0.35556 0.35685,0.35597 0.35684,0.35599 0.35686,0.3564 0.35684,0.35684 0.35684,0.35641 0.35684,0.35642 0.35681,0.35681 0.35686,0.35642 0.35683,0.3564 L 1.24397,1.2431 1.6008,1.59952 1.95766,1.95592 2.3145,2.31146 2.67134,2.667 3.02818,3.02213 3.38503,3.3768 3.74187,3.73062 4.09872,4.084 4.45555,4.43652 4.81241,4.78905 5.16924,5.13983 5.5261,5.49063 5.88293,5.84055 6.23978,6.18874 6.59662,6.5365 6.95348,6.88297 7.3103,7.22899 7.66716,7.5733 8.02399,7.91673 8.38084,8.25887 8.73769,8.5997 l 0.35684,0.33911 0.35684,0.33782 0.35684,0.33651 0.35684,0.33436 0.35686,0.3339 0.35683,0.33176 0.35686,0.32959 0.35682,0.32831 0.35686,0.32699 0.35686,0.32483 0.35682,0.32227 0.35686,0.32094 0.35683,0.31921 0.35685,0.3166 0.35685,0.31446 0.35684,0.31274 0.35684,0.31056 0.35684,0.30796 0.35685,0.3058 0.35685,0.30408 0.35683,0.30105 0.35686,0.29801 0.35682,0.29629 0.35686,0.29411 0.35684,0.29024 0.35685,0.28896 0.35684,0.28631 0.35684,0.28289 0.35684,0.27986 0.35686,0.27813 0.35683,0.27465 0.35686,0.27163 0.35682,0.2686 0.35686,0.26603 0.35684,0.26341 0.35684,0.25909 0.35684,0.25693 0.35686,0.25433 0.35683,0.25 0.35685,0.24698 0.35683,0.24396 0.35686,0.24048 0.35684,0.23747 0.35684,0.23357 0.35684,0.23097 0.35685,0.2271 0.35685,0.22317 0.35685,0.2206 0.35684,0.21715 0.35684,0.21237 0.35684,0.20892 0.35684,0.20587 0.35686,0.20244 0.35683,0.19766 0.35685,0.19422 0.35683,0.19162 0.35686,0.18641 0.35684,0.18296 0.35684,0.17907 0.35685,0.17604 0.35684,0.17085 0.35684,0.16698 0.35686,0.16436 0.35682,0.15916 0.35686,0.15485 0.35683,0.15139 0.35685,0.14836 0.35685,0.14188 0.35684,0.13927 0.35684,0.13539 0.35685,0.13063 0.35684,0.12587 0.35686,0.12283 0.35682,0.11852 0.35686,0.11333 0.35682,0.10942 0.35686,0.10556 0.35684,0.10121 0.35684,0.09601 0.35685,0.09257 0.35685,0.0891 0.35683,0.08262 0.35686,0.07915 0.35682,0.07483 0.35686,0.07137 0.35686,0.0653 0.35683,0.06142 0.35685,0.05797 0.35683,0.05276 0.35686,0.04804 0.35684,0.04367 0.35684,0.04022 0.35684,0.03418 0.35684,0.03028 0.35685,0.02638 0.35685,0.02162 0.35683,0.01687 0.35686,0.0121 0.35683,0.0091 0.35685,0.003 0.35685,-0.0013 0.35684,-0.0052 0.35684,-0.0095 0.35684,-0.01512 0.35684,-0.01903 0.35686,-0.0225 0.35683,-0.02855 0.35685,-0.03244 0.35683,-0.03634 0.35686,-0.04022 0.35684,-0.04672 0.35685,-0.0506 0.35684,-0.05406 0.35684,-0.05884 0.35684,-0.06401 0.35686,-0.0679 0.35682,-0.07181 0.35686,-0.07699 0.35683,-0.08132 0.35685,-0.08477 0.35685,-0.08953 0.35684,-0.09517 0.35686,-0.09861 0.35684,-0.10209 0.35684,-0.10684 0.35684,-0.11201 0.35684,-0.11507 0.35685,-0.11894 0.35685,-0.125 0.35683,-0.12846 0.35686,-0.13236 0.35682,-0.13668 0.35686,-0.14101 0.35684,-0.1449 0.35684,-0.14794 0.35685,-0.15355 0.35684,-0.15745 0.35684,-0.16046 0.35686,-0.16479 0.35683,-0.16999 0.35685,-0.17302 0.35683,-0.17604 0.35686,-0.18165 0.35684,-0.18427 0.35684,-0.18816 0.35684,-0.19204 0.35685,-0.19681 0.35684,-0.19983 0.35685,-0.20287 0.35683,-0.20761 0.35686,-0.21066 0.35683,-0.21452 0.35686,-0.21713 0.35684,-0.22278 0.35684,-0.2249 0.35684,-0.22838 0.35684,-0.23142 0.35684,-0.23616 0.35686,-0.23834 0.35684,-0.24135 0.35684,-0.24611 0.35685,-0.24827 0.35684,-0.25176 0.35686,-0.25432 0.35682,-0.25866 0.35686,-0.26125 0.35684,-0.26385 0.35684,-0.26688 0.35685,-0.27032 0.35684,-0.27294 0.35684,-0.27554 0.35686,-0.2794 0.35682,-0.28115 0.35686,-0.28419 0.35683,-0.28719 0.35685,-0.28981 0.35685,-0.29196 0.35684,-0.29457 0.35684,-0.29715 0.35684,-0.30017 0.35685,-0.30148 0.35685,-0.30451 0.35683,-0.30711 0.35686,-0.30883 0.35682,-0.31143 0.35686,-0.31358 0.35684,-0.31577 0.35685,-0.31747 0.35684,-0.31921 0.35684,-0.32224 0.35684,-0.32355 0.35686,-0.32525 0.35683,-0.32744 0.35686,-0.32916 0.35682,-0.33046 L 78.67908,10.1443 79.03593,9.81038 79.39276,9.47473 79.74962,9.13779 80.10645,8.7991 80.4633,8.45914 80.82014,8.11786 81.17699,7.77571 81.53383,7.43185 81.89069,7.08669 82.24751,6.74066 82.60437,6.39377 82.9612,6.04514 83.31805,5.6965 83.6749,5.34659 84.03174,4.99536 84.38858,4.6437 84.74542,4.29163 85.10226,3.93825 85.45912,3.58487 85.81595,3.23018 86.1728,2.87549 86.52963,2.52039 86.88649,2.16483 87.24333,1.80885 87.60017,1.45288 87.95702,1.09647 88.31386,0.73962 88.6707,0.38322 89.02756,0.02637"
       style="fill:none;stroke:#c9d1d9;stroke-width:0.49814;stroke-linecap:butt;stroke-linejoin:miter;stroke-miterlimit:10;stroke-dasharray:none;stroke-opacity:1"
       transform="matrix(1.3333333,0,0,-1.3333333,151.18133,94.485333)" />
    <g
       id="g5"
       aria-label="f(x)"
       transform="matrix(1.3333333,0,0,1.3333333,259.98267,75.030667)">
      <path
         id="path6"
         d="m 0.434875,4.375e-4 h 0.7617188 l 0.8320312,-4.21875 H 3.0247188 L 3.153625,-4.8394062 H 2.16925 L 2.3333125,-5.6714375 C 2.4387813,-6.2222187 2.7200313,-6.5855 3.153625,-6.5855 c 0.234375,0 0.4101563,0.058594 0.5507813,0.1523438 l 0.2578125,-0.5390625 c -0.2226563,-0.140625 -0.515625,-0.234375 -0.8671875,-0.234375 -0.8085938,0 -1.3359375,0.5976562 -1.5351563,1.5585937 L 1.4075313,-4.8394062 0.763,-4.7925312 0.6458125,-4.2183125 H 1.278625 Z m 0,0"
         style="fill:#c9d1d9;fill-opacity:1;fill-rule:nonzero;stroke:none" />
      <path
         id="path7"
         d="m 6.1126094,2.3910625 c 0,-0.035156 0,-0.046875 -0.1640625,-0.2226562 C 4.7063594,0.9145 4.3782344,-0.9605 4.3782344,-2.4956562 c 0,-1.7226563 0.3867187,-3.4570313 1.6054687,-4.7109375 0.1289063,-0.1171875 0.1289063,-0.1289063 0.1289063,-0.1640625 0,-0.070312 -0.035156,-0.1054688 -0.09375,-0.1054688 -0.1054688,0 -0.9960938,0.6796875 -1.5820313,1.9453125 -0.515625,1.1015625 -0.6328125,2.203125 -0.6328125,3.0351563 0,0.7851562 0.1171875,1.99218745 0.65625,3.11718745 0.5976563,1.21875005 1.453125,1.87500005 1.5585938,1.87500005 0.058594,0 0.09375,-0.035156 0.09375,-0.1054688 z m 0,0"
         style="fill:#c9d1d9;fill-opacity:1;fill-rule:nonzero;stroke:none" />
      <path
         id="path8"
         d="m 6.2590938,4.375e-4 h 0.84375 L 8.0403438,-1.148 c 0.2460937,-0.3046875 0.4804687,-0.5859375 0.6796875,-0.8789062 h 0.046875 c 0.1171875,0.2929687 0.234375,0.5976562 0.3398437,0.890625 L 9.5403438,4.375e-4 h 0.7968752 l -0.9843752,-2.4023437 1.9921872,-2.4375 H 10.513 l -0.84375,1.078125 C 9.4700313,-3.49175 9.247375,-3.2222187 9.0481563,-2.9526875 H 9.0012813 C 8.9075313,-3.2339375 8.8255,-3.4800312 8.7200313,-3.7612812 L 8.309875,-4.8394062 H 7.5247188 l 0.9023437,2.2734375 z m 0,0"
         style="fill:#c9d1d9;fill-opacity:1;fill-rule:nonzero;stroke:none" />
      <path
         id="path9"
         d="m 13.861633,-2.4956562 c 0,-0.7734375 -0.117188,-1.9804688 -0.65625,-3.1054688 -0.597656,-1.21875 -1.464844,-1.875 -1.558594,-1.875 -0.05859,0 -0.105469,0.046875 -0.105469,0.1054688 0,0.035156 0,0.046875 0.199219,0.234375 0.972656,0.984375 1.535156,2.5664062 1.535156,4.640625 0,1.71093745 -0.363281,3.4570312 -1.59375,4.7226562 -0.140625,0.1171875 -0.140625,0.1289063 -0.140625,0.1640625 0,0.058594 0.04687,0.1054688 0.105469,0.1054688 0.09375,0 0.996094,-0.6796875 1.582031,-1.94531255 0.503907,-1.1015625 0.632813,-2.20312495 0.632813,-3.04687495 z m 0,0"
         style="fill:#c9d1d9;fill-opacity:1;fill-rule:nonzero;stroke:none" />
    </g>
    <path
       id="path10"
       d="m -44.51852,-0.01685 0.1782,-0.35641 0.1782,-0.35599 0.17822,-0.35597 0.17819,-0.35599 0.17821,-0.35639 0.17822,-0.35555 0.17819,-0.35469 0.17821,-0.35468 0.17821,-0.35426 0.1782,-0.35423 0.17821,-0.35339 0.17821,-0.35209 0.17819,-0.35208 0.17822,-0.35165 0.1782,-0.35036 0.1782,-0.34949 0.17821,-0.34906 0.17821,-0.34733 0.17819,-0.3469 0.17823,-0.34559 0.17819,-0.34475 0.17821,-0.34343 0.17822,-0.34213 0.17818,-0.34126 0.17821,-0.33956 0.17821,-0.33779 0.17821,-0.33653 0.17821,-0.33565 0.1782,-0.33349 0.1782,-0.33219 0.17822,-0.33047 0.17819,-0.32871 0.17821,-0.327 0.17821,-0.32527 0.1782,-0.32268 0.1782,-0.32224 0.17822,-0.31878 0.17819,-0.31748 0.17821,-0.31574 0.17822,-0.31318 0.17819,-0.31099 0.17823,-0.30882 0.17819,-0.30711 0.17821,-0.30406 0.1782,-0.30149 0.17821,-0.29975 0.17819,-0.29716 0.17822,-0.29411 0.1782,-0.29198 0.1782,-0.28979 0.17821,-0.28679 0.17821,-0.28374 0.17819,-0.28201 0.17822,-0.27855 0.1782,-0.27595 0.17822,-0.2725 0.1782,-0.27034 0.1782,-0.26731 0.17822,-0.26342 0.17819,-0.26169 0.17821,-0.25822 0.17821,-0.25434 0.17821,-0.25173 0.17819,-0.24915 0.17822,-0.24524 0.17819,-0.24136 0.17821,-0.23876 0.17821,-0.23658 0.1782,-0.23099 0.1782,-0.22838 0.17822,-0.22536 0.17821,-0.22232 0.17821,-0.218 0.1782,-0.21453 0.1782,-0.21151 0.17822,-0.20676 0.17819,-0.20329 0.17821,-0.20027 0.1782,-0.19637 0.17821,-0.19204 0.17819,-0.18903 0.17823,-0.18512 0.17819,-0.1808 0.1782,-0.17691 0.17821,-0.17345 0.17821,-0.17041 0.17821,-0.16436 0.1782,-0.16135 0.17821,-0.15788 0.17821,-0.15354 0.17821,-0.1488 0.17819,-0.14533 0.17822,-0.14144 0.17819,-0.13668 0.17821,-0.13237 0.17821,-0.12932 0.17821,-0.12458 0.17819,-0.12023 0.17822,-0.11636 0.17819,-0.11246 0.17823,-0.1064 0.17819,-0.10295 0.1782,-0.09947 0.17821,-0.09517 0.17821,-0.08997 0.17821,-0.08564 0.1782,-0.08219 0.17821,-0.07698 0.17819,-0.07266 0.17822,-0.06879 0.1782,-0.06532 0.1782,-0.05838 0.17821,-0.05537 0.17821,-0.05103 0.17819,-0.04672 0.17823,-0.0411 0.17819,-0.0376 0.17822,-0.03376 0.17819,-0.02811 0.17821,-0.02378 0.17821,-0.01992 0.1782,-0.016 0.17821,-0.0095 0.17821,-0.0065 0.17821,-0.0026 0.17819,0.0035 0.17822,0.0073 0.1782,0.01212 0.1782,0.01515 0.17821,0.02161 0.17821,0.02553 0.1782,0.02897 0.17821,0.03375 0.17819,0.03893 0.17823,0.04282 0.17819,0.0467 0.17821,0.05277 0.17822,0.05623 0.17819,0.06013 0.17821,0.06488 0.1782,0.07051 0.17821,0.07395 0.17819,0.07744 0.17823,0.08303 0.17819,0.08739 0.17821,0.09125 0.1782,0.09517 0.17821,0.10121 0.17821,0.10382 0.17821,0.1077 0.17819,0.11332 0.17822,0.11722 0.17819,0.1211 0.17821,0.12501 0.17822,0.13063 0.1782,0.13365 0.1782,0.13755 0.17821,0.14232 0.17821,0.14662 0.17819,0.15008 0.17822,0.15355 0.17819,0.15874 0.17822,0.16264 0.1782,0.16609 0.1782,0.16998 0.17821,0.17475 0.17821,0.17778 0.17819,0.18166 0.17823,0.18644 0.17819,0.18987 0.17821,0.19291 0.17822,0.19681 0.17819,0.20114 0.17821,0.20501 0.17821,0.20719 0.1782,0.21195 0.17821,0.21583 0.17821,0.21886 0.17819,0.2219 0.17822,0.22665 0.1782,0.22967 0.1782,0.23228 0.17821,0.2366 0.17821,0.23964 0.17819,0.24264 0.17822,0.24568 0.17819,0.24958 0.17821,0.25303 0.17822,0.25475 0.1782,0.25866 0.1782,0.26256 0.17821,0.26428 0.17821,0.26731 0.17821,0.27119 0.1782,0.27381 0.17819,0.27638 0.17823,0.27899 0.17819,0.28201 0.17821,0.28548 0.1782,0.28677 0.17821,0.29024 0.17819,0.29283 0.17823,0.29499 0.1782,0.29715 0.1782,0.30061 0.17822,0.30278 0.17819,0.30408 0.17822,0.30754 0.1782,0.30969 0.1782,0.31142 0.17821,0.31361 0.17821,0.31573 0.17819,0.31835 0.17823,0.31965 0.17818,0.32137 0.17821,0.32442 0.17821,0.32525 0.1782,0.32744 0.1782,0.32959 0.17822,0.33046 0.17821,0.33263 0.17819,0.33348 0.17822,0.33609 0.1782,0.33694 0.17822,0.33826 0.17819,0.33997 0.17821,0.3417 0.17821,0.34213 0.1782,0.34345 0.1782,0.34515 0.17822,0.34647 0.17819,0.34645 0.17821,0.34776 0.17821,0.34908 0.1782,0.34991 0.1782,0.35036 0.17822,0.35165 0.1782,0.35208 0.17821,0.35297 0.17821,0.35294 0.17819,0.35467 0.17822,0.35425 0.1782,0.35426 0.1782,0.35555 0.17821,0.35554 0.17821,0.3564 0.17819,0.35556 0.17822,0.35642 0.1782,0.35597 0.17817,0.35637 0.17821,0.35641 0.17821,0.35557 0.1782,0.35641 0.17821,0.3564 0.17821,0.35554 0.17821,0.35555 0.1782,0.35512 0.1782,0.35424 0.17822,0.3547 0.17819,0.3538 0.17821,0.35339 0.17821,0.35251 0.1782,0.35166 0.1782,0.35122 0.17822,0.35035 0.17819,0.3495 0.17821,0.34819 0.1782,0.34776 0.17821,0.34646 0.17822,0.3456 0.1782,0.34473 0.1782,0.34343 0.17821,0.34171 0.17821,0.34085 0.17819,0.33953 0.17822,0.33782 0.17819,0.33652 0.17821,0.33521 0.17821,0.33349 0.17821,0.33175 0.17819,0.32959 0.17822,0.32917 0.1782,0.327 0.17822,0.32441 0.17819,0.3231 0.17821,0.32137 0.17822,0.31922 0.17819,0.31661 0.17821,0.31533 0.17821,0.31316 0.17821,0.31055 0.17819,0.30885 0.17822,0.30622 0.17819,0.30408 0.17821,0.30147 0.17821,0.29889 0.1782,0.29714 0.17821,0.2937 0.17821,0.29197 0.17819,0.28937 0.17822,0.28634 0.1782,0.28374 0.1782,0.28073 0.17823,0.27898 0.17819,0.27466 0.1782,0.27249 0.17821,0.26991 0.17821,0.26688 0.17819,0.26341 0.17822,0.26082 0.1782,0.2578 0.1782,0.25433 0.17821,0.25088 0.17821,0.24826 0.17821,0.24526 0.1782,0.24092 0.1782,0.23833 0.17822,0.23573 0.17821,0.23141 0.17819,0.22751 0.17822,0.22492 0.17819,0.2219 0.17821,0.21714 0.17821,0.21409 0.1782,0.21022 0.1782,0.20719 0.17822,0.20285 0.17819,0.1994 0.17822,0.19681 0.17819,0.19118 0.17821,0.18815 0.17821,0.18427 0.17821,0.18123 0.17819,0.17605 0.17822,0.17257 0.17821,0.16956 0.17819,0.16437 0.17823,0.16047 0.17819,0.15745 0.17821,0.1531 0.1782,0.14837 0.17821,0.14404 0.17819,0.14144 0.17823,0.13625 0.17819,0.13192 0.17822,0.12803 0.17819,0.12543 0.17821,0.11896 0.17821,0.11505 0.1782,0.1116 0.1782,0.10726 0.17822,0.10208 0.17821,0.09819 0.17819,0.09515 0.17822,0.08954 0.17819,0.08434 0.17821,0.08131 0.17821,0.07744 0.17821,0.0718 0.1782,0.06791 0.17821,0.06402 0.17819,0.05881 0.17822,0.05408 0.1782,0.05061 0.1782,0.04671 0.17821,0.04022 0.17821,0.03676 0.17819,0.03244 0.17822,0.02812 0.17821,0.02293 0.17819,0.01946 0.17823,0.01514 0.17819,0.0095 0.17822,0.0056 0.17819,0.0017 0.17821,-0.0035 0.17821,-0.0082 0.17821,-0.01254 0.17819,-0.01643 0.17822,-0.02162 0.17819,-0.02639 0.17821,-0.02942 0.1782,-0.03416 0.17821,-0.03937 0.17821,-0.04411 0.17821,-0.04758 0.17821,-0.05276 0.17819,-0.0571 0.17822,-0.06101 0.17819,-0.06488 0.17823,-0.07092 0.17819,-0.07483 0.17821,-0.07873 0.1782,-0.0826 0.17821,-0.08826 0.17819,-0.09211 0.17823,-0.0956 0.17819,-0.10121 0.17821,-0.10468 0.1782,-0.10856 0.17821,-0.11333 0.17821,-0.11851 0.1782,-0.12154 0.17821,-0.12587 0.17821,-0.13063 0.17821,-0.13452 0.17819,-0.13842 0.17822,-0.14187 0.17819,-0.14749 0.17821,-0.1514 0.17821,-0.1544 0.17821,-0.15874 0.17819,-0.16307 0.17822,-0.16696 0.17819,-0.17 0.17821,-0.1756 0.17821,-0.17863 0.1782,-0.1821 0.17821,-0.18601 0.17821,-0.19073 0.17821,-0.19422 0.1782,-0.19636 0.17821,-0.20201 0.17819,-0.20502 0.17823,-0.20848 0.17819,-0.21237 0.17821,-0.21628 0.1782,-0.21973 0.17821,-0.22232 0.17819,-0.22665 0.17823,-0.23011 0.17819,-0.23313 0.17821,-0.23617 0.17821,-0.24092 0.1782,-0.24266 0.17822,-0.24612 0.1782,-0.25 0.1782,-0.25346 0.17821,-0.25608 0.17821,-0.25821 0.17819,-0.263 0.17822,-0.26513 0.17819,-0.26775 0.17821,-0.27119 0.17821,-0.27468 0.17821,-0.27638 0.17819,-0.27942 0.17822,-0.28245 0.17819,-0.28548 0.17823,-0.28763 0.1782,-0.29024 0.1782,-0.29368 0.17822,-0.295 0.17819,-0.29758 0.17821,-0.30061 0.17821,-0.30323 0.1782,-0.30492 0.17819,-0.3071 0.17823,-0.3097 0.17819,-0.31274 0.17821,-0.31358 0.1782,-0.31576 0.17821,-0.31878 0.17819,-0.32007 0.17823,-0.32181 0.17819,-0.3244 0.17822,-0.3257 0.17821,-0.32744 0.17819,-0.32958 0.17822,-0.33089 0.17819,-0.33264 0.17821,-0.33391 0.17821,-0.33609 0.17821,-0.33737 0.17819,-0.33869 0.17822,-0.33996 0.17819,-0.34171 0.17821,-0.34257 0.17821,-0.34343 0.17821,-0.34561 0.1782,-0.34603 0.17821,-0.34689 0.17819,-0.34776 0.17823,-0.34949 0.17821,-0.34992 0.17819,-0.35078 0.17822,-0.35123 0.17819,-0.35209 0.17821,-0.35296 0.17821,-0.3538 0.1782,-0.35382 0.1782,-0.3551 0.17822,-0.35427 0.17819,-0.35511 0.17822,-0.356 0.17819,-0.35595 0.17821,-0.35641 0.17821,-0.35599 0.17821,-0.35597"
       style="fill:none;stroke:#b39af0;stroke-width:0.99628;stroke-linecap:butt;stroke-linejoin:miter;stroke-miterlimit:10;stroke-dasharray:none;stroke-opacity:1"
       transform="matrix(1.3333333,0,0,-1.3333333,151.18133,94.485333)" />
    <g
       id="g10"
       aria-label="f(c·x)"
       transform="matrix(1.3333333,0,0,1.3333333,192.80133,109.21733)">
      <path
         id="path11"
         d="M 0.43317969,0.0010625 H 1.1948984 l 0.8320313,-4.21875 h 0.9960937 l 0.1289063,-0.6210937 h -0.984375 l 0.1640625,-0.8320313 c 0.1054687,-0.5507812 0.3867187,-0.9140625 0.8203125,-0.9140625 0.234375,0 0.4101562,0.058594 0.5507812,0.1523438 l 0.2578125,-0.5390625 c -0.2226562,-0.140625 -0.515625,-0.234375 -0.8671875,-0.234375 -0.8085937,0 -1.3359375,0.5976562 -1.5351562,1.5585937 l -0.1523438,0.8085938 -0.64453121,0.046875 -0.1171875,0.5742187 H 1.2769297 Z m 0,0"
         style="fill:#b39af0;fill-opacity:1;fill-rule:nonzero;stroke:none" />
      <path
         id="path12"
         d="m 6.1109141,2.3916875 c 0,-0.035156 0,-0.046875 -0.1640625,-0.2226562 C 4.7046641,0.915125 4.3765391,-0.959875 4.3765391,-2.4950312 c 0,-1.7226563 0.3867187,-3.4570313 1.6054687,-4.7109375 0.1289063,-0.1171875 0.1289063,-0.1289063 0.1289063,-0.1640625 0,-0.070312 -0.035156,-0.1054688 -0.09375,-0.1054688 -0.1054688,0 -0.9960938,0.6796875 -1.5820313,1.9453125 -0.515625,1.1015625 -0.6328125,2.203125 -0.6328125,3.0351563 0,0.7851562 0.1171875,1.99218745 0.65625,3.11718745 0.5976563,1.21875005 1.453125,1.87500005 1.5585938,1.87500005 0.058594,0 0.09375,-0.035156 0.09375,-0.1054688 z m 0,0"
         style="fill:#b39af0;fill-opacity:1;fill-rule:nonzero;stroke:none" />
      <path
         id="path13"
         d="m 8.8501719,0.11825 c 0.6796875,0 1.2070311,-0.29296875 1.5468751,-0.57421875 L 10.068922,-0.9364375 c -0.2695314,0.22265625 -0.6796876,0.421875 -1.0781251,0.421875 -0.7617188,0 -1.1367188,-0.48046875 -1.1367188,-1.359375 0,-1.3242187 0.890625,-2.4492187 1.8632813,-2.4492187 0.3984376,0 0.6328126,0.1171875 0.8671876,0.3867187 l 0.433594,-0.4335937 c -0.246094,-0.328125 -0.667969,-0.5859375 -1.2539066,-0.5859375 -1.40625,0 -2.7070313,1.3359375 -2.7070313,3.1289062 0,1.2421875 0.7382813,1.9453125 1.7929688,1.9453125 z m 0,0"
         style="fill:#b39af0;fill-opacity:1;fill-rule:nonzero;stroke:none" />
      <path
         id="path14"
         d="m 15.15193,-2.4950312 c 0,-0.28125 -0.234375,-0.5273438 -0.527344,-0.5273438 -0.28125,0 -0.527344,0.2460938 -0.527344,0.5273438 0,0.2929687 0.246094,0.5390625 0.527344,0.5390625 0.292969,0 0.527344,-0.2460938 0.527344,-0.5390625 z m 0,0"
         style="fill:#b39af0;fill-opacity:1;fill-rule:nonzero;stroke:none" />
      <path
         id="path15"
         d="m 17.788648,0.0010625 h 0.84375 l 0.9375,-1.1484375 c 0.246094,-0.3046875 0.480469,-0.5859375 0.679688,-0.8789062 h 0.04687 c 0.117187,0.2929687 0.234375,0.5976562 0.339844,0.890625 l 0.433593,1.1367187 h 0.796875 l -0.984375,-2.4023437 1.992188,-2.4375 H 22.04255 l -0.84375,1.078125 c -0.199219,0.2695312 -0.421875,0.5390625 -0.621094,0.8085937 h -0.04687 c -0.09375,-0.28125 -0.175781,-0.5273437 -0.28125,-0.8085937 l -0.410156,-1.078125 h -0.785157 l 0.902344,2.2734375 z m 0,0"
         style="fill:#b39af0;fill-opacity:1;fill-rule:nonzero;stroke:none" />
      <path
         id="path16"
         d="m 25.388258,-2.4950312 c 0,-0.7734375 -0.117188,-1.9804688 -0.65625,-3.1054688 -0.597656,-1.21875 -1.464844,-1.875 -1.558594,-1.875 -0.05859,0 -0.105469,0.046875 -0.105469,0.1054688 0,0.035156 0,0.046875 0.199219,0.234375 0.972656,0.984375 1.535156,2.5664062 1.535156,4.640625 0,1.71093745 -0.363281,3.4570312 -1.59375,4.7226562 -0.140625,0.1171875 -0.140625,0.1289063 -0.140625,0.1640625 0,0.058594 0.04687,0.1054688 0.105469,0.1054688 0.09375,0 0.996094,-0.6796875 1.582031,-1.94531255 0.503907,-1.1015625 0.632813,-2.20312495 0.632813,-3.04687495 z m 0,0"
         style="fill:#b39af0;fill-opacity:1;fill-rule:nonzero;stroke:none" />
    </g>
    <path
       id="path17"
       d="M 44.52673,28.3468 H 25.5887"
       style="fill:none;stroke:#b39af0;stroke-width:0.49814;stroke-linecap:butt;stroke-linejoin:miter;stroke-miterlimit:10;stroke-dasharray:2.98883, 0.99628, 0.3985, 0.99628;stroke-dashoffset:0;stroke-opacity:1"
       transform="matrix(1.3333333,0,0,-1.3333333,151.18133,94.485333)" />
    <path
       id="path18"
       d="M 4.5211,0 0.80437,1.40187 2.02943,0 0.80437,-1.40187 Z"
       style="fill:#b39af0;fill-opacity:1;fill-rule:nonzero;stroke:#b39af0;stroke-width:0.49814;stroke-linecap:butt;stroke-linejoin:miter;stroke-miterlimit:10;stroke-dasharray:none;stroke-opacity:1"
       transform="matrix(-1.3333333,0,0,1.3333333,187.83947,56.6896)" />
    <path
       id="path19"
       d="M 74.2114,14.17339 H 40.43123"
       style="fill:none;stroke:#b39af0;stroke-width:0.49814;stroke-linecap:butt;stroke-linejoin:miter;stroke-miterlimit:10;stroke-dasharray:2.98883, 0.99628, 0.3985, 0.99628;stroke-dashoffset:0;stroke-opacity:1"
       transform="matrix(1.3333333,0,0,-1.3333333,151.18133,94.485333)" />
    <path
       id="path20"
       d="M 4.5211,0 0.80437,1.40187 2.02943,0 0.80437,-1.40187 Z"
       style="fill:#b39af0;fill-opacity:1;fill-rule:nonzero;stroke:#b39af0;stroke-width:0.49814;stroke-linecap:butt;stroke-linejoin:miter;stroke-miterlimit:10;stroke-dasharray:none;stroke-opacity:1"
       transform="matrix(-1.3333333,0,0,1.3333333,207.62953,75.58748)" />
    <path
       id="path21"
       d="M -44.52673,-28.3468 H -25.5887"
       style="fill:none;stroke:#b39af0;stroke-width:0.49814;stroke-linecap:butt;stroke-linejoin:miter;stroke-miterlimit:10;stroke-dasharray:2.98883, 0.99628, 0.3985, 0.99628;stroke-dashoffset:0;stroke-opacity:1"
       transform="matrix(1.3333333,0,0,-1.3333333,151.18133,94.485333)" />
    <path
       id="path22"
       d="M 4.5211,0 0.80437,1.40187 2.02943,0 0.80437,-1.40187 Z"
       style="fill:#b39af0;fill-opacity:1;fill-rule:nonzero;stroke:#b39af0;stroke-width:0.49814;stroke-linecap:butt;stroke-linejoin:miter;stroke-miterlimit:10;stroke-dasharray:none;stroke-opacity:1"
       transform="matrix(1.3333333,0,0,-1.3333333,114.5232,132.28107)" />
    <path
       id="path23"
       d="m -74.2114,-14.17339 h 33.78017"
       style="fill:none;stroke:#b39af0;stroke-width:0.49814;stroke-linecap:butt;stroke-linejoin:miter;stroke-miterlimit:10;stroke-dasharray:2.98883, 0.99628, 0.3985, 0.99628;stroke-dashoffset:0;stroke-opacity:1"
       transform="matrix(1.3333333,0,0,-1.3333333,151.18133,94.485333)" />
    <path
       id="path24"
       d="M 4.5211,0 0.80437,1.40187 2.02943,0 0.80437,-1.40187 Z"
       style="fill:#b39af0;fill-opacity:1;fill-rule:nonzero;stroke:#b39af0;stroke-width:0.49814;stroke-linecap:butt;stroke-linejoin:miter;stroke-miterlimit:10;stroke-dasharray:none;stroke-opacity:1"
       transform="matrix(1.3333333,0,0,-1.3333333,94.733133,113.38319)" />
  </g>
</svg>
