<?xml version="1.0" encoding="UTF-8" standalone="no"?>
<!-- Created with Inkscape (http://www.inkscape.org/) -->

<svg
   version="1.1"
   id="svg1"
   width="188.97333"
   height="188.97333"
   viewBox="0 0 188.97333 188.97333"
   sodipodi:docname="MATH_118-69.pdf"
   xmlns:inkscape="http://www.inkscape.org/namespaces/inkscape"
   xmlns:sodipodi="http://sodipodi.sourceforge.net/DTD/sodipodi-0.dtd"
   xmlns="http://www.w3.org/2000/svg"
   xmlns:svg="http://www.w3.org/2000/svg">
  <defs
     id="defs1" />
  <sodipodi:namedview
     id="namedview1"
     pagecolor="#ffffff"
     bordercolor="#000000"
     borderopacity="0.25"
     inkscape:showpageshadow="2"
     inkscape:pageopacity="0.0"
     inkscape:pagecheckerboard="0"
     inkscape:deskcolor="#d1d1d1">
    <inkscape:page
       x="0"
       y="0"
       inkscape:label="1"
       id="page1"
       width="188.97333"
       height="188.97333"
       margin="0"
       bleed="0" />
  </sodipodi:namedview>
  <g
     id="g1"
     inkscape:groupmode="layer"
     inkscape:label="1">
    <path
       id="path1"
       d="M -28.3468,0 H 84.79135"
       style="fill:none;stroke:#c9d1d9;stroke-width:0.24907;stroke-linecap:butt;stroke-linejoin:miter;stroke-miterlimit:10;stroke-dasharray:none;stroke-opacity:1"
       transform="matrix(1.3333333,0,0,-1.3333333,56.693333,94.485333)" />
    <path
       id="path2"
       d="M -1.89291,2.12108 C -1.54709,0.84842 -0.77643,0.24745 0,0 -0.77643,-0.24745 -1.54709,-0.84842 -1.89291,-2.12108"
       style="fill:none;stroke:#c9d1d9;stroke-width:0.24907;stroke-linecap:round;stroke-linejoin:round;stroke-miterlimit:10;stroke-dasharray:none;stroke-opacity:1"
       transform="matrix(1.3333333,0,0,-1.3333333,169.91453,94.485333)" />
    <path
       id="path3"
       d="M 0,-56.69362 V 56.44455"
       style="fill:none;stroke:#c9d1d9;stroke-width:0.24907;stroke-linecap:butt;stroke-linejoin:miter;stroke-miterlimit:10;stroke-dasharray:none;stroke-opacity:1"
       transform="matrix(1.3333333,0,0,-1.3333333,56.693333,94.485333)" />
    <path
       id="path4"
       d="M -1.89291,2.12108 C -1.54709,0.84842 -0.77643,0.24745 0,0 -0.77643,-0.24745 -1.54709,-0.84842 -1.89291,-2.12108"
       style="fill:none;stroke:#c9d1d9;stroke-width:0.24907;stroke-linecap:round;stroke-linejoin:round;stroke-miterlimit:10;stroke-dasharray:none;stroke-opacity:1"
       transform="matrix(0,-1.3333333,-1.3333333,0,56.693333,19.059893)" />
    <path
       id="path5"
       d="m -14.17339,36.00401 0.17041,0.14318 0.17043,0.14187 0.17043,0.14014 0.17042,0.13927 0.17041,0.13843 0.17041,0.13711 0.17044,0.13582 0.17041,0.13452 0.17041,0.13321 0.17042,0.1315 0.17043,0.13106 0.17043,0.12976 0.17041,0.12759 0.17041,0.12674 0.17044,0.12543 0.17041,0.12327 0.17041,0.12241 0.17043,0.12155 0.17042,0.11939 0.17043,0.11807 0.17041,0.11677 0.17042,0.11507 0.17043,0.11331 0.17041,0.11205 0.17042,0.11073 0.17043,0.10855 0.17041,0.10729 0.17042,0.1064 0.17041,0.10382 0.17043,0.10206 0.17042,0.10122 0.17041,0.09904 0.17043,0.09733 0.17043,0.09646 0.1704,0.09385 0.17043,0.09214 0.17041,0.09083 0.17043,0.0891 0.17042,0.08694 0.17041,0.08565 0.17043,0.08391 0.17042,0.08131 0.17041,0.08002 0.17043,0.07873 0.17042,0.07611 0.17043,0.07441 0.17041,0.0731 0.17041,0.0705 0.17044,0.06877 0.17041,0.06747 0.17041,0.06531 0.17043,0.06317 0.17042,0.06142 0.17043,0.05968 0.1704,0.05754 0.17042,0.05578 0.17044,0.05408 0.17041,0.05104 0.17041,0.04974 0.17042,0.04845 0.17043,0.04541 0.17042,0.04411 0.17041,0.04195 0.17043,0.03981 0.17043,0.03763 0.17041,0.03633 0.17042,0.03416 0.17043,0.03159 0.17041,0.02983 0.17042,0.02812 0.17041,0.02553 0.17043,0.02379 0.17042,0.02249 0.17041,0.01903 0.17043,0.01774 0.17042,0.016 0.17041,0.01341 0.17043,0.01169 0.17041,0.0095 0.17042,0.0078 0.17043,0.0052 0.17041,0.0035 0.17043,0.0017 0.17039,-8.8e-4 0.17041,-0.003 0.17043,-0.0043 0.17042,-0.0074 0.17043,-0.0087 L 0.99396,42.48473 1.16437,42.47176 1.33481,42.45618 1.50522,42.43976 1.67563,42.42072 1.84605,42.39908 2.01648,42.37616 2.1869,42.35107 2.35732,42.32382 2.52773,42.29485 2.69817,42.26372 2.86858,42.22997 3.03899,42.19493 3.20941,42.15775 3.37984,42.11836 3.55026,42.07727 3.72067,42.03447 3.8911,41.98862 4.06152,41.94147 4.23193,41.8926 4.40236,41.84155 4.57278,41.78792 4.7432,41.7334 4.91362,41.67674 5.08403,41.6175 5.25446,41.5565 5.42488,41.49422 5.59529,41.42891 5.76572,41.36272 5.93614,41.29482 6.10655,41.22432 6.27698,41.15208 6.44739,41.07813 6.61781,41.00243 6.78824,40.92458 6.95865,40.84541 7.12909,40.7641 7.2995,40.6806 7.46991,40.59627 7.64034,40.50977 7.81076,40.4211 7.98119,40.33113 8.1516,40.23943 8.322,40.14555 8.49245,40.05042 8.66286,39.95395 8.83327,39.8549 9.0037,39.75455 9.17412,39.65291 9.34454,39.54909 9.51495,39.44356 9.68536,39.33714 9.8558,39.22859 l 0.17041,-0.10986 0.17041,-0.1116 0.17043,-0.11289 0.17043,-0.11507 0.17042,-0.11592 0.17041,-0.11721 0.17043,-0.11939 0.17042,-0.12067 0.17041,-0.12153 0.17043,-0.12372 0.17042,-0.12457 0.17041,-0.12587 0.17043,-0.12758 0.17041,-0.12935 0.17043,-0.13019 0.17042,-0.1315 0.17041,-0.13278 0.17043,-0.13408 0.17042,-0.13495 0.17041,-0.13669 0.17043,-0.13798 0.17041,-0.13884 0.17042,-0.14058 0.17043,-0.14101 0.17041,-0.1423 0.17044,-0.14404 0.17041,-0.14447 0.17041,-0.14533 0.17042,-0.14706 0.17043,-0.14794 0.17042,-0.14877 0.17041,-0.14967 0.17041,-0.15096 0.17045,-0.15181 0.17041,-0.15269 0.1704,-0.15355 0.17043,-0.15442 0.17043,-0.15529 0.17042,-0.15613 0.17041,-0.15703 0.17041,-0.15742 0.17044,-0.15875 0.17041,-0.15917 0.17041,-0.1596 0.17043,-0.16092 0.17042,-0.16132 0.17043,-0.16179 0.17041,-0.16263 0.17043,-0.1635 0.17042,-0.16393 0.17041,-0.16393 0.17043,-0.16479 0.17042,-0.16567 0.17041,-0.16566 0.17043,-0.16652 0.1704,-0.16654 0.17043,-0.16696 0.17043,-0.16783 0.17041,-0.1678 0.17043,-0.16826 0.17042,-0.1687 0.17041,-0.16871 0.17042,-0.1691 0.17041,-0.16913 0.17043,-0.16999 0.17043,-0.16955 0.17041,-0.16999 0.17044,-0.16998 0.17041,-0.17042 0.17041,-0.16999 0.17042,-0.17042 0.17043,-0.17043 0.17042,-0.16998 0.17041,-0.17041 0.17041,-0.17 0.17044,-0.17042 0.17041,-0.17041 0.17041,-0.16999 0.17043,-0.17042 0.17043,-0.16956 0.17042,-0.16955 0.17041,-0.16956 0.17041,-0.16956 0.17044,-0.16868 0.17041,-0.16869 0.17041,-0.16826 0.17044,-0.16827 0.17041,-0.1678 0.17043,-0.16739 0.17041,-0.16698 0.17042,-0.16653 0.17043,-0.16608 0.17041,-0.16568 0.17042,-0.16522 0.17043,-0.1648 0.17041,-0.16394 0.17043,-0.16349 0.17041,-0.16307 0.17042,-0.16263 0.17043,-0.16176 0.1704,-0.16092 0.17043,-0.16046 0.17043,-0.15961 0.17041,-0.15874 0.17043,-0.15831 0.1704,-0.15743 0.17043,-0.15659 0.17042,-0.15571 0.17041,-0.15485 0.17044,-0.15398 0.17042,-0.15355 0.17041,-0.15269 0.17042,-0.15053 0.17043,-0.15096 0.17042,-0.14966 0.17041,-0.14834 0.17041,-0.14707 0.17044,-0.14663 0.17041,-0.14534 0.17041,-0.14403 0.17043,-0.14317 0.17042,-0.1423 0.17043,-0.14059 0.17041,-0.13971 0.17041,-0.13883 0.17044,-0.13712 0.17041,-0.13625 0.17041,-0.13496 0.17044,-0.13321 0.17041,-0.13237 0.17043,-0.13148 0.17041,-0.12934 0.17042,-0.12844 0.17043,-0.12717 0.17041,-0.12587 0.17042,-0.12371 0.17043,-0.12285 0.17041,-0.12153 0.17042,-0.11983 0.17041,-0.11851 0.17043,-0.11765 0.17043,-0.11505 0.17041,-0.11375 0.17042,-0.1129 0.17043,-0.11072 0.1704,-0.10903 0.17043,-0.10812 0.17041,-0.1064 0.17043,-0.10425 0.17043,-0.10293 0.1704,-0.10164 0.17044,-0.09949 0.17041,-0.09776 0.17041,-0.09647 0.17043,-0.09427 0.17042,-0.09301 0.17043,-0.09169 0.17041,-0.0891 0.17041,-0.08739 0.17044,-0.0865 0.17041,-0.08391 0.17041,-0.08218 0.17043,-0.08089 0.17042,-0.07829 0.17043,-0.07698 0.17041,-0.07527 0.17041,-0.07354 0.17044,-0.07092 0.17041,-0.06964 0.17041,-0.06792 0.17044,-0.0653 0.17041,-0.06401 0.17043,-0.06231 0.17041,-0.05967 0.17042,-0.05797 0.17043,-0.05666 0.17041,-0.05407 0.17042,-0.0519 0.17043,-0.05061 0.17041,-0.04845 0.17042,-0.04628 0.17041,-0.04456 0.17043,-0.04281 0.17042,-0.03978 0.17041,-0.03894 0.17043,-0.03676 0.17042,-0.03375 0.17041,-0.03287 0.17043,-0.0307 0.17043,-0.02812 0.1704,-0.02638 0.17043,-0.02467 0.17041,-0.02204 0.17044,-0.02034 0.17041,-0.0186 0.17041,-0.01601 0.17043,-0.01382 0.17042,-0.01255 0.17043,-0.01039 0.17041,-0.0078 0.17041,-0.0061 0.17044,-0.0048 0.17041,-0.0013 h 0.17041 l 0.17043,0.0022 0.17042,0.0043 0.17043,0.0065 0.17041,0.0082 0.17041,0.01038 0.17044,0.01254 0.1704,0.01428 0.17042,0.01601 0.17044,0.01902 0.17041,0.02033 0.17043,0.02251 0.1704,0.02464 0.17043,0.02681 0.17042,0.02812 0.17041,0.03114 0.17043,0.03289 0.17043,0.03416 0.17041,0.0372 0.17042,0.0385 0.17041,0.04065 0.17043,0.04282 0.17042,0.04498 0.17041,0.04629 0.17043,0.04844 0.17042,0.05104 0.17041,0.05235 0.17043,0.05362 0.17042,0.05711 0.17041,0.05838 0.17043,0.05969 0.17041,0.06272 0.17044,0.06443 0.17041,0.06533 0.17041,0.06834 0.17043,0.06964 0.17042,0.07137 0.17043,0.07353 0.17041,0.07526 0.17041,0.07699 0.17044,0.07872 0.17041,0.08133 0.17041,0.08219 0.17042,0.08389 0.17043,0.08651 0.17042,0.08823 0.17041,0.08911 0.17042,0.09171 0.17044,0.09299 0.17041,0.09472 0.17041,0.09645 0.17044,0.09819 0.1704,0.09992 0.17043,0.10121 0.17041,0.10339 0.17043,0.10466 0.17043,0.10642 0.1704,0.10814 0.17043,0.10942 0.17042,0.11073 0.17041,0.11333 0.17043,0.11375 0.17041,0.1155 0.17043,0.1172 0.17042,0.11896 0.17041,0.11981 0.17043,0.12155 0.17042,0.12328 0.17041,0.12413 0.17043,0.12585 0.17042,0.12717 0.17041,0.12848 0.17043,0.12976 0.17041,0.13148 0.17044,0.13278 0.17041,0.13324 0.17041,0.13495 0.17042,0.13668 0.17043,0.13711 0.17043,0.13884 0.17041,0.14016 0.17041,0.14057 0.17044,0.14186 0.17041,0.14362 0.17041,0.14445 0.17042,0.14534 0.17043,0.14663 0.17042,0.1475 0.17041,0.14835 0.17043,0.14967 0.17042,0.15096 0.17041,0.15095 0.17042,0.15268 0.17044,0.15355 0.17041,0.15355 0.17042,0.15527 0.17041,0.15616 0.17042,0.15659 0.17043,0.15744 0.17041,0.15829 0.17043,0.15874 0.17043,0.15962 0.1704,0.16091 0.17043,0.1609 0.17041,0.16177 0.17042,0.16263 0.17043,0.16307 0.17041,0.1635 0.17042,0.16393 0.17043,0.16522 0.17041,0.16481 0.17043,0.16609 0.17042,0.16611 0.17041,0.16652 0.17043,0.16696 0.17041,0.16739 0.17044,0.16781 0.17041,0.16828 0.17041,0.16826 0.17042,0.16867 0.17043,0.16912 0.17043,0.16956 0.1704,0.16956 0.17041,0.16955 0.17045,0.16956 0.17041,0.17043 0.17041,0.16996 0.17042,0.17044 0.17043,0.16998 0.17042,0.17042 0.17041,0.17043 0.17043,0.16997 0.17042,0.17043 0.17041,0.17041 0.17041,0.17 0.17044,0.17042 0.17041,0.16997 0.17043,0.17 0.17041,0.16955 0.17042,0.16956 0.17043,0.16956 0.17041,0.16912 0.17042,0.16868 0.17043,0.1687 0.17041,0.16783 0.17043,0.16781 0.17041,0.16783 0.17042,0.16697 0.17043,0.16651 0.17041,0.16652 0.17042,0.16568 0.17043,0.16523 0.17041,0.16479 0.17042,0.16437 0.17043,0.1635"
       style="fill:none;stroke:#c9d1d9;stroke-width:0.49814;stroke-linecap:butt;stroke-linejoin:miter;stroke-miterlimit:10;stroke-dasharray:none;stroke-opacity:1"
       transform="matrix(1.3333333,0,0,-1.3333333,56.693333,94.485333)" />
    <g
       id="g5"
       aria-label="f(x)"
       transform="matrix(1.3333333,0,0,1.3333333,141.28,43.250667)">
      <path
         id="path6"
         d="M 0.43453125,-5e-4 H 1.19625 L 2.0282813,-4.21925 H 3.024375 L 3.1532813,-4.8403437 H 2.1689063 L 2.3329688,-5.672375 c 0.1054687,-0.5507812 0.3867187,-0.9140625 0.8203125,-0.9140625 0.234375,0 0.4101562,0.058594 0.5507812,0.1523438 L 3.961875,-6.9731562 c -0.2226562,-0.140625 -0.515625,-0.234375 -0.8671875,-0.234375 -0.8085937,0 -1.3359375,0.5976562 -1.5351562,1.5585937 L 1.4071875,-4.8403437 0.76265625,-4.7934687 0.64546875,-4.21925 H 1.2782813 Z m 0,0"
         style="fill:#c9d1d9;fill-opacity:1;fill-rule:nonzero;stroke:none" />
      <path
         id="path7"
         d="m 6.1122656,2.390125 c 0,-0.035156 0,-0.046875 -0.1640625,-0.2226562 -1.2421875,-1.2539063 -1.5703125,-3.1289063 -1.5703125,-4.6640625 0,-1.7226563 0.3867188,-3.4570313 1.6054688,-4.7109375 0.1289062,-0.1171875 0.1289062,-0.1289063 0.1289062,-0.1640625 0,-0.070312 -0.035156,-0.1054688 -0.09375,-0.1054688 -0.1054687,0 -0.9960937,0.6796875 -1.5820312,1.9453125 -0.515625,1.1015625 -0.6328125,2.203125 -0.6328125,3.0351563 0,0.7851562 0.1171875,1.99218745 0.65625,3.11718745 0.5976562,1.21875005 1.453125,1.87500005 1.5585937,1.87500005 0.058594,0 0.09375,-0.035156 0.09375,-0.1054688 z m 0,0"
         style="fill:#c9d1d9;fill-opacity:1;fill-rule:nonzero;stroke:none" />
      <path
         id="path8"
         d="M 6.25875,-5e-4 H 7.1025 L 8.04,-1.1489375 C 8.2860938,-1.453625 8.5204688,-1.734875 8.7196875,-2.0278437 h 0.046875 c 0.1171875,0.2929687 0.234375,0.5976562 0.3398438,0.890625 L 9.54,-5e-4 h 0.796875 L 9.3525,-2.4028437 l 1.992188,-2.4375 h -0.832032 l -0.8437497,1.078125 c -0.1992188,0.2695312 -0.421875,0.5390625 -0.6210938,0.8085937 h -0.046875 c -0.09375,-0.28125 -0.1757812,-0.5273437 -0.28125,-0.8085937 L 8.3095313,-4.8403437 H 7.524375 l 0.9023438,2.2734375 z m 0,0"
         style="fill:#c9d1d9;fill-opacity:1;fill-rule:nonzero;stroke:none" />
      <path
         id="path9"
         d="m 13.858359,-2.4965937 c 0,-0.7734375 -0.117187,-1.9804688 -0.65625,-3.1054688 -0.597656,-1.21875 -1.464843,-1.875 -1.558593,-1.875 -0.05859,0 -0.105469,0.046875 -0.105469,0.1054688 0,0.035156 0,0.046875 0.199219,0.234375 0.972656,0.984375 1.535156,2.5664062 1.535156,4.640625 0,1.71093745 -0.363281,3.4570312 -1.59375,4.7226562 -0.140625,0.1171875 -0.140625,0.1289063 -0.140625,0.1640625 0,0.058594 0.04687,0.1054688 0.105469,0.1054688 0.09375,0 0.996093,-0.6796875 1.582031,-1.94531255 0.503906,-1.1015625 0.632812,-2.20312495 0.632812,-3.04687495 z m 0,0"
         style="fill:#c9d1d9;fill-opacity:1;fill-rule:nonzero;stroke:none" />
    </g>
    <path
       id="path10"
       d="m -14.17339,-36.00401 0.17041,-0.14318 0.17043,-0.14187 0.17043,-0.14014 0.17042,-0.13927 0.17041,-0.13843 0.17041,-0.13711 0.17044,-0.13582 0.17041,-0.13452 0.17041,-0.13321 0.17042,-0.1315 0.17043,-0.13106 0.17043,-0.12976 0.17041,-0.12759 0.17041,-0.12674 0.17044,-0.12543 0.17041,-0.12327 0.17041,-0.12241 0.17043,-0.12155 0.17042,-0.11939 0.17043,-0.11807 0.17041,-0.11677 0.17042,-0.11507 0.17043,-0.11331 0.17041,-0.11205 0.17042,-0.11073 0.17043,-0.10855 0.17041,-0.10729 0.17042,-0.1064 0.17041,-0.10382 0.17043,-0.10206 0.17042,-0.10122 0.17041,-0.09904 0.17043,-0.09733 0.17043,-0.09646 0.1704,-0.09385 0.17043,-0.09214 0.17041,-0.09083 0.17043,-0.0891 0.17042,-0.08694 0.17041,-0.08565 0.17043,-0.08391 0.17042,-0.08131 0.17041,-0.08002 0.17043,-0.07873 0.17042,-0.07611 0.17043,-0.07441 0.17041,-0.0731 0.17041,-0.0705 0.17044,-0.06877 0.17041,-0.06747 0.17041,-0.06531 0.17043,-0.06317 0.17042,-0.06142 0.17043,-0.05968 0.1704,-0.05754 0.17042,-0.05578 0.17044,-0.05408 0.17041,-0.05104 0.17041,-0.04974 0.17042,-0.04845 0.17043,-0.04541 0.17042,-0.04411 0.17041,-0.04195 0.17043,-0.03981 0.17043,-0.03763 0.17041,-0.03633 0.17042,-0.03416 0.17043,-0.03159 0.17041,-0.02983 0.17042,-0.02812 0.17041,-0.02553 0.17043,-0.02379 0.17042,-0.02249 0.17041,-0.01903 0.17043,-0.01774 0.17042,-0.016 0.17041,-0.01341 0.17043,-0.01169 0.17041,-0.0095 0.17042,-0.0078 0.17043,-0.0052 0.17041,-0.0035 0.17043,-0.0017 0.17039,8.8e-4 0.17041,0.003 0.17043,0.0043 0.17042,0.0074 0.17043,0.0087 0.17041,0.01081 0.17041,0.01297 0.17044,0.01558 0.17041,0.01642 0.17041,0.01904 0.17042,0.02164 0.17043,0.02292 0.17042,0.02509 0.17042,0.02725 0.17041,0.02897 0.17044,0.03113 0.17041,0.03375 0.17041,0.03504 0.17042,0.03718 0.17043,0.03939 0.17042,0.04109 0.17041,0.0428 0.17043,0.04585 0.17042,0.04715 0.17041,0.04887 0.17043,0.05105 0.17042,0.05363 0.17042,0.05452 0.17042,0.05666 0.17041,0.05924 0.17043,0.061 0.17042,0.06228 0.17041,0.06531 0.17043,0.06619 0.17042,0.0679 0.17041,0.0705 0.17043,0.07224 0.17041,0.07395 0.17042,0.0757 0.17043,0.07785 0.17041,0.07917 0.17044,0.08131 0.17041,0.0835 0.17041,0.08433 0.17043,0.0865 0.17042,0.08867 0.17043,0.08997 0.17041,0.0917 0.1704,0.09388 0.17045,0.09513 0.17041,0.09647 0.17041,0.09905 0.17043,0.10035 0.17042,0.10164 0.17042,0.10382 0.17041,0.10553 0.17041,0.10642 0.17044,0.10855 0.17041,0.10986 0.17041,0.1116 0.17043,0.11289 0.17043,0.11507 0.17042,0.11592 0.17041,0.11721 0.17043,0.11939 0.17042,0.12067 0.17041,0.12153 0.17043,0.12372 0.17042,0.12457 0.17041,0.12587 0.17043,0.12758 0.17041,0.12935 0.17043,0.13019 0.17042,0.1315 0.17041,0.13278 0.17043,0.13408 0.17042,0.13495 0.17041,0.13669 0.17043,0.13798 0.17041,0.13884 0.17042,0.14058 0.17043,0.14101 0.17041,0.1423 0.17044,0.14404 0.17041,0.14447 0.17041,0.14533 0.17042,0.14706 0.17043,0.14794 0.17042,0.14877 0.17041,0.14967 0.17041,0.15096 0.17045,0.15181 0.17041,0.15269 0.1704,0.15355 0.17043,0.15442 0.17043,0.15529 0.17042,0.15613 0.17041,0.15703 0.17041,0.15742 0.17044,0.15875 0.17041,0.15917 0.17041,0.1596 0.17043,0.16092 0.17042,0.16132 0.17043,0.16179 0.17041,0.16263 0.17043,0.1635 0.17042,0.16393 0.17041,0.16393 0.17043,0.16479 0.17042,0.16567 0.17041,0.16566 0.17043,0.16652 0.1704,0.16654 0.17043,0.16696 0.17043,0.16783 0.17041,0.1678 0.17043,0.16826 0.17042,0.1687 0.17041,0.16871 0.17042,0.1691 0.17041,0.16913 0.17043,0.16999 0.17043,0.16955 0.17041,0.16999 0.17044,0.16998 0.17041,0.17042 0.17041,0.16999 0.17042,0.17042 0.17043,0.17043 0.17042,0.16998 0.17041,0.17041 0.17041,0.17 0.17044,0.17042 0.17041,0.17041 0.17041,0.16999 0.17043,0.17042 0.17043,0.16956 0.17042,0.16955 0.17041,0.16956 0.17041,0.16956 0.17044,0.16868 0.17041,0.16869 0.17041,0.16826 0.17044,0.16827 0.17041,0.1678 0.17043,0.16739 0.17041,0.16698 0.17042,0.16653 0.17043,0.16608 0.17041,0.16568 0.17042,0.16522 0.17043,0.1648 0.17041,0.16394 0.17043,0.16349 0.17041,0.16307 0.17042,0.16263 0.17043,0.16176 0.1704,0.16092 0.17043,0.16046 0.17043,0.15961 0.17041,0.15874 0.17043,0.15831 0.1704,0.15743 0.17043,0.15659 0.17042,0.15571 0.17041,0.15485 0.17044,0.15398 0.17042,0.15355 0.17041,0.15269 0.17042,0.15053 0.17043,0.15096 0.17042,0.14966 0.17041,0.14834 0.17041,0.14707 0.17044,0.14663 0.17041,0.14534 0.17041,0.14403 0.17043,0.14317 0.17042,0.1423 0.17043,0.14059 0.17041,0.13971 0.17041,0.13883 0.17044,0.13712 0.17041,0.13625 0.17041,0.13496 0.17044,0.13321 0.17041,0.13237 0.17043,0.13148 0.17041,0.12934 0.17042,0.12844 0.17043,0.12717 0.17041,0.12587 0.17042,0.12371 0.17043,0.12285 0.17041,0.12153 0.17042,0.11983 0.17041,0.11851 0.17043,0.11765 0.17043,0.11505 0.17041,0.11375 0.17042,0.1129 0.17043,0.11072 0.1704,0.10903 0.17043,0.10812 0.17041,0.1064 0.17043,0.10425 0.17043,0.10293 0.1704,0.10164 0.17044,0.09949 0.17041,0.09776 0.17041,0.09647 0.17043,0.09427 0.17042,0.09301 0.17043,0.09169 0.17041,0.0891 0.17041,0.08739 0.17044,0.0865 0.17041,0.08391 0.17041,0.08218 0.17043,0.08089 0.17042,0.07829 0.17043,0.07698 0.17041,0.07527 0.17041,0.07354 0.17044,0.07092 0.17041,0.06964 0.17041,0.06792 0.17044,0.0653 0.17041,0.06401 0.17043,0.06231 0.17041,0.05967 0.17042,0.05797 0.17043,0.05666 0.17041,0.05407 0.17042,0.0519 0.17043,0.05061 0.17041,0.04845 0.17042,0.04628 0.17041,0.04456 0.17043,0.04281 0.17042,0.03978 0.17041,0.03894 0.17043,0.03676 0.17042,0.03375 0.17041,0.03287 0.17043,0.0307 0.17043,0.02812 0.1704,0.02638 0.17043,0.02467 0.17041,0.02204 0.17044,0.02034 0.17041,0.0186 0.17041,0.01601 0.17043,0.01382 0.17042,0.01255 0.17043,0.01039 0.17041,0.0078 0.17041,0.0061 0.17044,0.0048 0.17041,0.0013 h 0.17041 l 0.17043,-0.0022 0.17042,-0.0043 0.17043,-0.0065 0.17041,-0.0082 0.17041,-0.01038 0.17044,-0.01254 0.1704,-0.01428 0.17042,-0.01601 0.17044,-0.01902 0.17041,-0.02033 0.17043,-0.02251 0.1704,-0.02464 0.17043,-0.02681 0.17042,-0.02812 0.17041,-0.03114 0.17043,-0.03289 0.17043,-0.03416 0.17041,-0.0372 0.17042,-0.0385 0.17041,-0.04065 0.17043,-0.04282 0.17042,-0.04498 0.17041,-0.04629 0.17043,-0.04844 0.17042,-0.05104 0.17041,-0.05235 0.17043,-0.05362 0.17042,-0.05711 0.17041,-0.05838 0.17043,-0.05969 0.17041,-0.06272 0.17044,-0.06443 0.17041,-0.06533 0.17041,-0.06834 0.17043,-0.06964 0.17042,-0.07137 0.17043,-0.07353 0.17041,-0.07526 0.17041,-0.07699 0.17044,-0.07872 0.17041,-0.08133 0.17041,-0.08219 0.17042,-0.08389 0.17043,-0.08651 0.17042,-0.08823 0.17041,-0.08911 0.17042,-0.09171 0.17044,-0.09299 0.17041,-0.09472 0.17041,-0.09645 0.17044,-0.09819 0.1704,-0.09992 0.17043,-0.10121 0.17041,-0.10339 0.17043,-0.10466 0.17043,-0.10642 0.1704,-0.10814 0.17043,-0.10942 0.17042,-0.11073 0.17041,-0.11333 0.17043,-0.11375 0.17041,-0.1155 0.17043,-0.1172 0.17042,-0.11896 0.17041,-0.11981 0.17043,-0.12155 0.17042,-0.12328 0.17041,-0.12413 0.17043,-0.12585 0.17042,-0.12717 0.17041,-0.12848 0.17043,-0.12976 0.17041,-0.13148 0.17044,-0.13278 0.17041,-0.13324 0.17041,-0.13495 0.17042,-0.13668 0.17043,-0.13711 0.17043,-0.13884 0.17041,-0.14016 0.17041,-0.14057 0.17044,-0.14186 0.17041,-0.14362 0.17041,-0.14445 0.17042,-0.14534 0.17043,-0.14663 0.17042,-0.1475 0.17041,-0.14835 0.17043,-0.14967 0.17042,-0.15096 0.17041,-0.15095 0.17042,-0.15268 0.17044,-0.15355 0.17041,-0.15355 0.17042,-0.15527 0.17041,-0.15616 0.17042,-0.15659 0.17043,-0.15744 0.17041,-0.15829 0.17043,-0.15874 0.17043,-0.15962 0.1704,-0.16091 0.17043,-0.1609 0.17041,-0.16177 0.17042,-0.16263 0.17043,-0.16307 0.17041,-0.1635 0.17042,-0.16393 0.17043,-0.16522 0.17041,-0.16481 0.17043,-0.16609 0.17042,-0.16611 0.17041,-0.16652 0.17043,-0.16696 0.17041,-0.16739 0.17044,-0.16781 0.17041,-0.16828 0.17041,-0.16826 0.17042,-0.16867 0.17043,-0.16912 0.17043,-0.16956 0.1704,-0.16956 0.17041,-0.16955 0.17045,-0.16956 0.17041,-0.17043 0.17041,-0.16996 0.17042,-0.17044 0.17043,-0.16998 0.17042,-0.17042 0.17041,-0.17043 0.17043,-0.16997 0.17042,-0.17043 0.17041,-0.17041 0.17041,-0.17 0.17044,-0.17042 0.17041,-0.16997 0.17043,-0.17 0.17041,-0.16955 0.17042,-0.16956 0.17043,-0.16956 0.17041,-0.16912 0.17042,-0.16868 0.17043,-0.1687 0.17041,-0.16783 0.17043,-0.16781 0.17041,-0.16783 0.17042,-0.16697 0.17043,-0.16651 0.17041,-0.16652 0.17042,-0.16568 0.17043,-0.16523 0.17041,-0.16479 0.17042,-0.16437 0.17043,-0.1635"
       style="fill:none;stroke:#b39af0;stroke-width:0.99628;stroke-linecap:butt;stroke-linejoin:miter;stroke-miterlimit:10;stroke-dasharray:none;stroke-opacity:1"
       transform="matrix(1.3333333,0,0,-1.3333333,56.693333,94.485333)" />
    <g
       id="g10"
       aria-label="−f(x)"
       transform="matrix(1.3333333,0,0,1.3333333,136.11467,152.69467)">
      <path
         id="path11"
         d="m 6.5614609,-2.2963906 c 0.1757813,0 0.3515625,0 0.3515625,-0.1992188 0,-0.1992187 -0.1757812,-0.1992187 -0.3515625,-0.1992187 h -5.390625 c -0.1640625,0 -0.33984371,0 -0.33984371,0.1992187 0,0.1992188 0.17578121,0.1992188 0.33984371,0.1992188 z m 0,0"
         style="fill:#b39af0;fill-opacity:1;fill-rule:nonzero;stroke:none" />
      <path
         id="path12"
         d="M 8.1815781,4.84375e-4 H 8.9432969 L 9.7753281,-4.2182656 h 0.9960939 l 0.128906,-0.6210938 H 9.9159531 l 0.1640629,-0.8320312 c 0.105468,-0.5507813 0.386718,-0.9140625 0.820312,-0.9140625 0.234375,0 0.410156,0.058594 0.550781,0.1523437 l 0.257813,-0.5390625 c -0.222656,-0.140625 -0.515625,-0.234375 -0.867188,-0.234375 -0.808593,0 -1.3359371,0.5976563 -1.5351559,1.5585938 l -0.1523437,0.8085937 -0.6445313,0.046875 -0.1171875,0.5742188 h 0.6328125 z m 0,0"
         style="fill:#b39af0;fill-opacity:1;fill-rule:nonzero;stroke:none" />
      <path
         id="path13"
         d="m 13.862242,2.3911094 c 0,-0.035156 0,-0.046875 -0.164062,-0.2226563 -1.242188,-1.25390622 -1.570313,-3.12890622 -1.570313,-4.6640625 0,-1.7226562 0.386719,-3.4570312 1.605469,-4.7109375 0.128906,-0.1171875 0.128906,-0.1289062 0.128906,-0.1640625 0,-0.070312 -0.03516,-0.1054687 -0.09375,-0.1054687 -0.105469,0 -0.996094,0.6796875 -1.582031,1.9453125 -0.515625,1.1015625 -0.632813,2.203125 -0.632813,3.0351562 0,0.7851563 0.117188,1.99218753 0.65625,3.11718753 0.597657,1.21874997 1.453125,1.87499997 1.558594,1.87499997 0.05859,0 0.09375,-0.035156 0.09375,-0.1054687 z m 0,0"
         style="fill:#b39af0;fill-opacity:1;fill-rule:nonzero;stroke:none" />
      <path
         id="path14"
         d="m 14.008727,4.84375e-4 h 0.84375 l 0.9375,-1.148437475 c 0.246093,-0.3046875 0.480468,-0.5859375 0.679687,-0.8789063 h 0.04687 c 0.117188,0.2929688 0.234375,0.5976563 0.339844,0.890625 l 0.433594,1.136718775 h 0.796875 l -0.984375,-2.402343775 1.992187,-2.4375 h -0.832031 l -0.84375,1.078125 c -0.199219,0.2695313 -0.421875,0.5390625 -0.621094,0.8085938 h -0.04687 c -0.09375,-0.28125 -0.175781,-0.5273438 -0.28125,-0.8085938 l -0.410156,-1.078125 h -0.785156 l 0.902343,2.2734375 z m 0,0"
         style="fill:#b39af0;fill-opacity:1;fill-rule:nonzero;stroke:none" />
      <path
         id="path15"
         d="m 21.608336,-2.4956094 c 0,-0.7734375 -0.117188,-1.9804687 -0.65625,-3.1054687 -0.597656,-1.21875 -1.464844,-1.875 -1.558594,-1.875 -0.05859,0 -0.105469,0.046875 -0.105469,0.1054687 0,0.035156 0,0.046875 0.199219,0.234375 0.972656,0.984375 1.535156,2.5664063 1.535156,4.640625 0,1.71093753 -0.363281,3.45703128 -1.59375,4.7226563 -0.140625,0.1171875 -0.140625,0.1289062 -0.140625,0.1640625 0,0.058594 0.04687,0.1054687 0.105469,0.1054687 0.09375,0 0.996094,-0.6796875 1.582031,-1.94531247 0.503907,-1.1015625 0.632813,-2.20312503 0.632813,-3.04687503 z m 0,0"
         style="fill:#b39af0;fill-opacity:1;fill-rule:nonzero;stroke:none" />
    </g>
    <path
       id="path16"
       d="M 14.17339,0 V 36.00487"
       style="fill:none;stroke:#b39af0;stroke-width:0.49814;stroke-linecap:butt;stroke-linejoin:miter;stroke-miterlimit:10;stroke-dasharray:none;stroke-opacity:1"
       transform="matrix(1.3333333,0,0,-1.3333333,56.693333,94.485333)" />
    <path
       id="path17"
       d="m 1.7123516,-7.1381016 c 0,-0.1523437 0,-0.3398437 -0.1992188,-0.3398437 -0.1992187,0 -0.1992187,0.2226562 -0.1992187,0.375 v 9.2226562 c 0,0.1640625 0,0.375 0.1992187,0.375 0.1992188,0 0.1992188,-0.1875 0.1992188,-0.3398437 z m 1.9453125,0.035156 c 0,-0.1640625 0,-0.375 -0.1992188,-0.375 -0.1992187,0 -0.1992187,0.1875 -0.1992187,0.3398437 v 9.2929688 c 0,0.1523437 0,0.3398437 0.1992187,0.3398437 0.1992188,0 0.1992188,-0.2226562 0.1992188,-0.375 z m 0,0"
       style="fill:#b39af0;fill-opacity:1;fill-rule:nonzero;stroke:none"
       aria-label="∥"
       transform="matrix(0,-1.3333333,1.3333333,0,78.912,73.802667)" />
    <path
       id="path18"
       d="M 14.17339,0 V -36.00487"
       style="fill:none;stroke:#b39af0;stroke-width:0.49814;stroke-linecap:butt;stroke-linejoin:miter;stroke-miterlimit:10;stroke-dasharray:none;stroke-opacity:1"
       transform="matrix(1.3333333,0,0,-1.3333333,56.693333,94.485333)" />
    <path
       id="path19"
       d="m 1.7114922,-7.1381016 c 0,-0.1523437 0,-0.3398437 -0.1992188,-0.3398437 -0.1992187,0 -0.1992187,0.2226562 -0.1992187,0.375 v 9.2226562 c 0,0.1640625 0,0.375 0.1992187,0.375 0.1992188,0 0.1992188,-0.1875 0.1992188,-0.3398437 z m 1.9453125,0.035156 c 0,-0.1640625 0,-0.375 -0.1992188,-0.375 -0.1992187,0 -0.1992187,0.1875 -0.1992187,0.3398437 v 9.2929688 c 0,0.1523437 0,0.3398437 0.1992187,0.3398437 0.1992188,0 0.1992188,-0.2226562 0.1992188,-0.375 z m 0,0"
       style="fill:#b39af0;fill-opacity:1;fill-rule:nonzero;stroke:none"
       aria-label="∥"
       transform="matrix(0,-1.3333333,1.3333333,0,78.912,121.80933)" />
  </g>
</svg>
