<?xml version="1.0" encoding="UTF-8" standalone="no"?>
<!-- Created with Inkscape (http://www.inkscape.org/) -->

<svg
   version="1.1"
   id="svg1"
   width="334.23999"
   height="144.58667"
   viewBox="0 0 334.23999 144.58667"
   sodipodi:docname="MATH_118-78.pdf"
   xmlns:inkscape="http://www.inkscape.org/namespaces/inkscape"
   xmlns:sodipodi="http://sodipodi.sourceforge.net/DTD/sodipodi-0.dtd"
   xmlns="http://www.w3.org/2000/svg"
   xmlns:svg="http://www.w3.org/2000/svg">
  <defs
     id="defs1" />
  <sodipodi:namedview
     id="namedview1"
     pagecolor="#ffffff"
     bordercolor="#000000"
     borderopacity="0.25"
     inkscape:showpageshadow="2"
     inkscape:pageopacity="0.0"
     inkscape:pagecheckerboard="0"
     inkscape:deskcolor="#d1d1d1">
    <inkscape:page
       x="0"
       y="0"
       inkscape:label="1"
       id="page1"
       width="334.23999"
       height="144.58667"
       margin="0"
       bleed="0" />
  </sodipodi:namedview>
  <g
     id="g1"
     inkscape:groupmode="layer"
     inkscape:label="1">
    <g
       id="g2"
       aria-label="P(x)=x&#10;3&#10;P(x)=x&#10;5"
       transform="matrix(1.3333333,0,0,1.3333333,52.774667,14.965333)">
      <path
         id="path2"
         d="M 0.42095312,-3.671875e-4 H 1.3467344 L 1.9678281,-3.1409922 h 1.2539063 c 2.015625,0 3.4335937,-0.8671875 3.4335937,-2.7890625 0,-1.359375 -0.9726562,-1.9101562 -2.4609375,-1.9101562 H 1.9795469 Z M 2.1436094,-3.9144297 2.7647031,-7.0902109 h 1.2070313 c 1.1484375,0 1.7695312,0.3867187 1.7695312,1.2773437 0,1.2539063 -0.8671875,1.8984375 -2.4726562,1.8984375 z m 0,0"
         style="fill:#c9d1d9;fill-opacity:1;fill-rule:nonzero;stroke:none" />
      <path
         id="path3"
         d="m 10.47857,2.9058828 c 0,-0.035156 0,-0.058594 -0.210937,-0.2695312 -1.1953127,-1.2070313 -1.8632814,-3.17578129 -1.8632814,-5.6132813 0,-2.3203125 0.5625,-4.3125 1.9453124,-5.7304687 0.128906,-0.1054688 0.128906,-0.1289063 0.128906,-0.1640625 0,-0.070312 -0.07031,-0.09375 -0.117187,-0.09375 -0.152344,0 -1.1367189,0.8554687 -1.7226564,2.0273437 -0.609375,1.2070313 -0.8789063,2.4960938 -0.8789063,3.9609375 0,1.0664063 0.1640625,2.48437501 0.7851563,3.76171876 0.703125,1.44140624 1.6875004,2.21484374 1.8164064,2.21484374 0.04687,0 0.117187,-0.023437 0.117187,-0.09375 z m 0,0"
         style="fill:#c9d1d9;fill-opacity:1;fill-rule:nonzero;stroke:none" />
      <path
         id="path4"
         d="m 10.613336,-3.671875e-4 h 1.019531 l 1.125,-1.3710937125 c 0.292969,-0.375 0.574219,-0.703125 0.820313,-1.0546875 h 0.04687 c 0.140625,0.3515625 0.292968,0.7148437 0.410156,1.0664062 l 0.527344,1.3593750125 h 0.949218 L 14.32818,-2.8831797 16.718805,-5.8128672 h -0.996094 l -1.007813,1.2890625 c -0.234375,0.3398438 -0.503906,0.6679688 -0.75,0.9726563 h -0.04687 C 13.789117,-3.8909922 13.695367,-4.1722422 13.57818,-4.5238047 l -0.503907,-1.2890625 h -0.9375 l 1.078125,2.7304688 z m 0,0"
         style="fill:#c9d1d9;fill-opacity:1;fill-rule:nonzero;stroke:none" />
      <path
         id="path5"
         d="m 19.654352,-2.9769297 c 0,-0.9140625 -0.128907,-2.390625 -0.796875,-3.7734375 -0.703125,-1.4414062 -1.675782,-2.2148437 -1.816407,-2.2148437 -0.04687,0 -0.105468,0.023437 -0.105468,0.09375 0,0.035156 0,0.058594 0.199218,0.2695312 1.195313,1.2070313 1.875,3.1757813 1.875,5.6132813 0,2.32031246 -0.5625,4.3125 -1.957031,5.7304687 -0.117187,0.1054688 -0.117187,0.1289063 -0.117187,0.1640625 0,0.070312 0.05859,0.09375 0.105468,0.09375 0.164063,0 1.136719,-0.8554687 1.722657,-2.02734374 0.609375,-1.21875 0.890625,-2.51953126 0.890625,-3.94921876 z m 12.55371,-0.890625 c 0.164063,0 0.375,0 0.375,-0.2226562 0,-0.2226563 -0.199218,-0.2226563 -0.375,-0.2226563 h -7.042968 c -0.175782,0 -0.386719,0 -0.386719,0.2109375 0,0.234375 0.199219,0.234375 0.386719,0.234375 z m 0,2.2148438 c 0.164063,0 0.375,0 0.375,-0.2109375 0,-0.234375 -0.199218,-0.234375 -0.375,-0.234375 h -7.042968 c -0.175782,0 -0.386719,0 -0.386719,0.2226562 0,0.2226563 0.199219,0.2226563 0.386719,0.2226563 z m 0,0"
         style="fill:#c9d1d9;fill-opacity:1;fill-rule:nonzero;stroke:none" />
      <path
         id="path6"
         d="m 36.051812,-3.671875e-4 h 1.019532 l 1.125,-1.3710937125 c 0.292968,-0.375 0.574218,-0.703125 0.820312,-1.0546875 h 0.04687 c 0.140625,0.3515625 0.292969,0.7148437 0.410156,1.0664062 l 0.527344,1.3593750125 H 40.95025 L 39.766656,-2.8831797 42.157281,-5.8128672 h -0.996094 l -1.007812,1.2890625 c -0.234375,0.3398438 -0.503906,0.6679688 -0.75,0.9726563 H 39.3565 C 39.227594,-3.8909922 39.133844,-4.1722422 39.016656,-4.5238047 L 38.51275,-5.8128672 h -0.9375 l 1.078125,2.7304688 z m 0,0"
         style="fill:#c9d1d9;fill-opacity:1;fill-rule:nonzero;stroke:none" />
      <path
         id="path7"
         d="m 43.595758,-4.2454844 c 0.9375,0 1.6875,-0.5507812 1.6875,-1.453125 0,-0.6914062 -0.492188,-1.1484375 -1.101563,-1.2890625 v -0.023437 c 0.550782,-0.2109375 0.914063,-0.5976562 0.914063,-1.21875 0,-0.8203125 -0.632813,-1.2890625 -1.523438,-1.2890625 -0.597656,0 -1.066406,0.2695313 -1.453125,0.6328125 l 0.351563,0.421875 c 0.304687,-0.2929687 0.65625,-0.515625 1.078125,-0.515625 0.550781,0 0.878906,0.3164063 0.878906,0.796875 0,0.5390625 -0.363281,0.9492188 -1.441406,0.9492188 v 0.5039062 c 1.207031,0 1.628906,0.4101563 1.628906,1.0078125 0,0.5742188 -0.445312,0.9257813 -1.054687,0.9257813 -0.597657,0 -0.996094,-0.28125 -1.300782,-0.5976563 l -0.328125,0.4335938 c 0.339844,0.375 0.855469,0.7148437 1.664063,0.7148432 z m 0,0"
         style="fill:#c9d1d9;fill-opacity:1;fill-rule:nonzero;stroke:none" />
      <path
         id="path8"
         d="m 125.76177,-3.671875e-4 h 0.92578 l 0.6211,-3.1406250125 h 1.2539 c 2.01563,0 3.4336,-0.8671875 3.4336,-2.7890625 0,-1.359375 -0.97266,-1.9101562 -2.46094,-1.9101562 h -2.21484 z m 1.72266,-3.9140625125 0.62109,-3.1757812 h 1.20703 c 1.14844,0 1.76954,0.3867187 1.76954,1.2773437 0,1.2539063 -0.86719,1.8984375 -2.47266,1.8984375 z m 0,0"
         style="fill:#c9d1d9;fill-opacity:1;fill-rule:nonzero;stroke:none" />
      <path
         id="path9"
         d="m 135.81939,2.9058828 c 0,-0.035156 0,-0.058594 -0.21094,-0.2695312 -1.19531,-1.2070313 -1.86328,-3.17578129 -1.86328,-5.6132813 0,-2.3203125 0.5625,-4.3125 1.94531,-5.7304687 0.12891,-0.1054688 0.12891,-0.1289063 0.12891,-0.1640625 0,-0.070312 -0.0703,-0.09375 -0.11719,-0.09375 -0.15234,0 -1.13672,0.8554687 -1.72265,2.0273437 -0.60938,1.2070313 -0.87891,2.4960938 -0.87891,3.9609375 0,1.0664063 0.16406,2.48437501 0.78516,3.76171876 0.70312,1.44140624 1.6875,2.21484374 1.8164,2.21484374 0.0469,0 0.11719,-0.023437 0.11719,-0.09375 z m 0,0"
         style="fill:#c9d1d9;fill-opacity:1;fill-rule:nonzero;stroke:none" />
      <path
         id="path10"
         d="m 135.95416,-3.671875e-4 h 1.01953 l 1.125,-1.3710937125 c 0.29297,-0.375 0.57422,-0.703125 0.82031,-1.0546875 h 0.0469 c 0.14063,0.3515625 0.29297,0.7148437 0.41016,1.0664062 l 0.52734,1.3593750125 h 0.94922 L 139.669,-2.8831797 l 2.39062,-2.9296875 h -0.99609 l -1.00781,1.2890625 c -0.23438,0.3398438 -0.50391,0.6679688 -0.75,0.9726563 h -0.0469 c -0.1289,-0.3398438 -0.22265,-0.6210938 -0.33984,-0.9726563 l -0.50391,-1.2890625 h -0.9375 l 1.07813,2.7304688 z m 0,0"
         style="fill:#c9d1d9;fill-opacity:1;fill-rule:nonzero;stroke:none" />
      <path
         id="path11"
         d="m 144.99517,-2.9769297 c 0,-0.9140625 -0.1289,-2.390625 -0.79687,-3.7734375 -0.70313,-1.4414062 -1.67578,-2.2148437 -1.81641,-2.2148437 -0.0469,0 -0.10547,0.023437 -0.10547,0.09375 0,0.035156 0,0.058594 0.19922,0.2695312 1.19531,1.2070313 1.875,3.1757813 1.875,5.6132813 0,2.32031246 -0.5625,4.3125 -1.95703,5.7304687 -0.11719,0.1054688 -0.11719,0.1289063 -0.11719,0.1640625 0,0.070312 0.0586,0.09375 0.10547,0.09375 0.16406,0 1.13672,-0.8554687 1.72266,-2.02734374 0.60937,-1.21875 0.89062,-2.51953126 0.89062,-3.94921876 z m 12.55371,-0.890625 c 0.16407,0 0.375,0 0.375,-0.2226562 0,-0.2226563 -0.19922,-0.2226563 -0.375,-0.2226563 h -7.04297 c -0.17578,0 -0.38671,0 -0.38671,0.2109375 0,0.234375 0.19921,0.234375 0.38671,0.234375 z m 0,2.2148438 c 0.16407,0 0.375,0 0.375,-0.2109375 0,-0.234375 -0.19922,-0.234375 -0.375,-0.234375 h -7.04297 c -0.17578,0 -0.38671,0 -0.38671,0.2226562 0,0.2226563 0.19921,0.2226563 0.38671,0.2226563 z m 0,0"
         style="fill:#c9d1d9;fill-opacity:1;fill-rule:nonzero;stroke:none" />
      <path
         id="path12"
         d="m 161.39263,-3.671875e-4 h 1.01953 l 1.125,-1.3710937125 c 0.29297,-0.375 0.57422,-0.703125 0.82032,-1.0546875 h 0.0469 c 0.14063,0.3515625 0.29297,0.7148437 0.41016,1.0664062 l 0.52734,1.3593750125 h 0.94922 L 165.10748,-2.8831797 167.4981,-5.8128672 h -0.99609 l -1.00781,1.2890625 c -0.23438,0.3398438 -0.50391,0.6679688 -0.75,0.9726563 h -0.0469 c -0.12891,-0.3398438 -0.22266,-0.6210938 -0.33984,-0.9726563 l -0.50391,-1.2890625 h -0.9375 l 1.07813,2.7304688 z m 0,0"
         style="fill:#c9d1d9;fill-opacity:1;fill-rule:nonzero;stroke:none" />
      <path
         id="path13"
         d="m 168.92486,-4.2454844 c 0.89062,0 1.71094,-0.6210937 1.71094,-1.7226562 0,-1.1015625 -0.70313,-1.59375 -1.57032,-1.59375 -0.30468,0 -0.53906,0.082031 -0.77343,0.2109375 l 0.1289,-1.5 h 1.96875 v -0.5742188 h -2.54297 l -0.17578,2.4492188 0.35157,0.2226562 c 0.30468,-0.1992187 0.51562,-0.3046875 0.86718,-0.3046875 0.65625,0 1.07813,0.4101563 1.07813,1.1132813 0,0.703125 -0.48047,1.1484375 -1.10156,1.1484375 -0.59766,0 -0.98438,-0.28125 -1.28907,-0.5742188 l -0.3164,0.4335938 c 0.35156,0.3515625 0.85547,0.6914062 1.66406,0.6914062 z m 0,0"
         style="fill:#c9d1d9;fill-opacity:1;fill-rule:nonzero;stroke:none" />
    </g>
    <path
       id="path14"
       d="m -28.3468,1.99255 v -3.9851"
       style="fill:none;stroke:#c9d1d9;stroke-width:0.3985;stroke-linecap:butt;stroke-linejoin:miter;stroke-miterlimit:10;stroke-dasharray:none;stroke-opacity:1"
       transform="matrix(1.3333333,0,0,-1.3333333,83.56,81.477333)" />
    <g
       id="g14"
       aria-label="−1"
       transform="matrix(1.3333333,0,0,1.3333333,42.048,94.805333)">
      <path
         id="path15"
         d="m 4.7569688,-1.3364219 c 0.09375,0 0.2460937,0 0.2460937,-0.1523437 0,-0.1640625 -0.1523437,-0.1640625 -0.2460937,-0.1640625 H 0.99525 c -0.10546875,0 -0.24609375,0 -0.24609375,0.1640625 0,0.1523437 0.140625,0.1523437 0.24609375,0.1523437 z m 0,0"
         style="fill:#c9d1d9;fill-opacity:1;fill-rule:nonzero;stroke:none" />
      <path
         id="path16"
         d="M 6.7520859,-4.84375e-4 H 7.2442734 V -3.8090781 h -0.375 c -0.2109375,0.1171875 -0.4570312,0.2109375 -0.8203125,0.28125 v 0.3164062 h 0.703125 z m 0,0"
         style="fill:#c9d1d9;fill-opacity:1;fill-rule:nonzero;stroke:none" />
    </g>
    <path
       id="path17"
       d="m 28.3468,1.99255 v -3.9851"
       style="fill:none;stroke:#c9d1d9;stroke-width:0.3985;stroke-linecap:butt;stroke-linejoin:miter;stroke-miterlimit:10;stroke-dasharray:none;stroke-opacity:1"
       transform="matrix(1.3333333,0,0,-1.3333333,83.56,81.477333)" />
    <path
       id="path18"
       d="M 0.99651563,-3.4375e-4 H 1.4887031 V -3.8089375 h -0.375 C 0.90276563,-3.69175 0.65667188,-3.598 0.29339063,-3.5276875 v 0.3164062 h 0.703125 z m 0,0"
       style="fill:#c9d1d9;fill-opacity:1;fill-rule:nonzero;stroke:none"
       aria-label="1"
       transform="matrix(1.3333333,0,0,1.3333333,121.476,94.797333)" />
    <path
       id="path19"
       d="m 1.99255,-28.3468 h -3.9851"
       style="fill:none;stroke:#c9d1d9;stroke-width:0.3985;stroke-linecap:butt;stroke-linejoin:miter;stroke-miterlimit:10;stroke-dasharray:none;stroke-opacity:1"
       transform="matrix(1.3333333,0,0,-1.3333333,83.56,81.477333)" />
    <g
       id="g19"
       aria-label="−1"
       transform="matrix(1.3333333,0,0,1.3333333,64.702667,121.26533)">
      <path
         id="path20"
         d="m 4.7581563,-1.3357187 c 0.09375,0 0.2460937,0 0.2460937,-0.1523438 0,-0.1640625 -0.1523437,-0.1640625 -0.2460937,-0.1640625 H 0.9964375 c -0.10546875,0 -0.24609375,0 -0.24609375,0.1640625 0,0.1523438 0.140625,0.1523438 0.24609375,0.1523438 z m 0,0"
         style="fill:#c9d1d9;fill-opacity:1;fill-rule:nonzero;stroke:none" />
      <path
         id="path21"
         d="M 6.7532734,2.1875e-4 H 7.2454609 V -3.808375 h -0.375 c -0.2109375,0.1171875 -0.4570312,0.2109375 -0.8203125,0.28125 v 0.3164063 h 0.703125 z m 0,0"
         style="fill:#c9d1d9;fill-opacity:1;fill-rule:nonzero;stroke:none" />
    </g>
    <path
       id="path22"
       d="m 1.99255,28.3468 h -3.9851"
       style="fill:none;stroke:#c9d1d9;stroke-width:0.3985;stroke-linecap:butt;stroke-linejoin:miter;stroke-miterlimit:10;stroke-dasharray:none;stroke-opacity:1"
       transform="matrix(1.3333333,0,0,-1.3333333,83.56,81.477333)" />
    <path
       id="path23"
       d="M 0.99727344,-0.00100781 H 1.4894609 V -3.8096016 h -0.375 c -0.21093746,0.1171875 -0.45703121,0.2109375 -0.82031246,0.28125 v 0.3164063 h 0.703125 z m 0,0"
       style="fill:#c9d1d9;fill-opacity:1;fill-rule:nonzero;stroke:none"
       aria-label="1"
       transform="matrix(1.3333333,0,0,1.3333333,72.377333,46.224)" />
    <path
       id="path24"
       d="M -42.5202,0 H 42.27113"
       style="fill:none;stroke:#c9d1d9;stroke-width:0.24907;stroke-linecap:butt;stroke-linejoin:miter;stroke-miterlimit:10;stroke-dasharray:none;stroke-opacity:1"
       transform="matrix(1.3333333,0,0,-1.3333333,83.56,81.477333)" />
    <path
       id="path25"
       d="M -1.89291,2.12108 C -1.54709,0.84842 -0.77643,0.24745 0,0 -0.77643,-0.24745 -1.54709,-0.84842 -1.89291,-2.12108"
       style="fill:none;stroke:#c9d1d9;stroke-width:0.24907;stroke-linecap:round;stroke-linejoin:round;stroke-miterlimit:10;stroke-dasharray:none;stroke-opacity:1"
       transform="matrix(1.3333333,0,0,-1.3333333,140.08755,81.477333)" />
    <path
       id="path26"
       d="M 0,-42.5202 V 42.27113"
       style="fill:none;stroke:#c9d1d9;stroke-width:0.24907;stroke-linecap:butt;stroke-linejoin:miter;stroke-miterlimit:10;stroke-dasharray:none;stroke-opacity:1"
       transform="matrix(1.3333333,0,0,-1.3333333,83.56,81.477333)" />
    <path
       id="path27"
       d="M -1.89291,2.12108 C -1.54709,0.84842 -0.77643,0.24745 0,0 -0.77643,-0.24745 -1.54709,-0.84842 -1.89291,-2.12108"
       style="fill:none;stroke:#c9d1d9;stroke-width:0.24907;stroke-linecap:round;stroke-linejoin:round;stroke-miterlimit:10;stroke-dasharray:none;stroke-opacity:1"
       transform="matrix(0,-1.3333333,-1.3333333,0,83.56,24.949787)" />
    <path
       id="path28"
       d="m -31.18166,-37.72984 0.12459,0.45027 0.12456,0.44681 0.12457,0.44336 0.12458,0.43945 0.12457,0.436 0.12457,0.43297 0.12457,0.42864 0.12456,0.42562 0.12459,0.42217 0.12456,0.41869 0.12458,0.41523 0.12456,0.41135 0.12457,0.40788 0.12458,0.40486 0.12457,0.40139 0.12456,0.39795 0.12459,0.3949 0.12455,0.391 0.12459,0.38756 0.12456,0.38452 0.12457,0.38152 0.12457,0.37759 0.12458,0.37416 0.12457,0.37198 0.12457,0.36766 0.12456,0.36461 0.12459,0.36162 0.12456,0.35856 0.12457,0.35468 0.12457,0.35209 0.12456,0.34905 0.12459,0.34518 0.12455,0.34256 0.12458,0.33911 0.12457,0.33609 0.12457,0.33306 0.12457,0.33001 0.12458,0.32657 0.12455,0.32398 0.1246,0.32049 0.12455,0.31792 0.12459,0.3149 0.12456,0.31143 0.12457,0.30882 0.12457,0.30539 0.12457,0.30319 0.12458,0.29976 0.12457,0.29671 0.12456,0.29413 0.12458,0.29068 0.12456,0.28848 0.12459,0.28506 0.12456,0.28243 0.12457,0.27943 0.12457,0.27682 0.12458,0.2738 0.12455,0.2712 0.12459,0.2686 0.12456,0.26516 0.12459,0.26298 0.12456,0.25995 0.12457,0.25693 0.12457,0.25478 0.12458,0.25216 0.12457,0.24915 0.12457,0.24653 0.12456,0.24353 0.12458,0.24135 0.12456,0.23876 0.12459,0.23573 0.12456,0.23357 0.12457,0.23056 0.12457,0.22837 0.12457,0.22536 0.12456,0.22318 0.12459,0.22059 0.12456,0.21801 0.12459,0.2154 0.12455,0.21325 0.12458,0.2102 0.12457,0.20848 0.12457,0.20546 0.12458,0.20329 0.12457,0.20115 0.12456,0.19808 0.12457,0.19594 0.12457,0.19379 0.12458,0.19118 0.12457,0.18945 0.12455,0.18642 0.12459,0.18426 0.12456,0.1821 0.12459,0.17993 0.12456,0.17735 0.12457,0.17518 0.12457,0.173 0.12457,0.17044 0.12456,0.16867 0.12459,0.16611 0.12456,0.16435 0.12458,0.16177 0.12456,0.16005 0.12457,0.15745 0.12458,0.15571 0.12457,0.15353 0.12457,0.1514 0.12458,0.14923 0.12455,0.14707 0.12459,0.14532 0.12456,0.14274 0.12459,0.14144 0.12456,0.13927 0.12457,0.13669 0.12457,0.13539 0.12457,0.13322 0.12456,0.13106 0.12459,0.12932 0.12456,0.12716 0.12458,0.12502 0.12456,0.1237 0.12457,0.12154 0.12457,0.11981 0.12458,0.11809 0.12457,0.11592 0.12457,0.1142 0.12456,0.11244 0.12459,0.11073 0.12456,0.10858 0.12459,0.10726 0.12455,0.10512 0.12458,0.1038 0.12457,0.10164 0.12457,0.10036 0.12456,0.09863 0.12459,0.09688 0.12456,0.09515 0.12458,0.09343 0.12456,0.09169 0.12457,0.09041 0.12458,0.08867 0.12457,0.08694 0.12457,0.08564 0.12456,0.0839 0.12457,0.08219 0.12457,0.0809 0.12457,0.07915 0.12458,0.07785 0.12457,0.07612 0.12456,0.07483 0.12459,0.07353 0.12456,0.07181 0.12458,0.0705 0.12456,0.06877 0.12457,0.06792 0.12458,0.06619 0.12457,0.06486 0.12456,0.06358 0.12458,0.06187 0.12456,0.06099 0.12459,0.05967 0.12456,0.05797 0.12457,0.05708 0.12457,0.05582 0.12458,0.05405 0.12457,0.0532 0.12457,0.05193 0.12456,0.05102 0.12459,0.04932 0.12455,0.04843 0.12459,0.04673 0.12456,0.04628 0.12457,0.04498 0.12458,0.04368 0.12457,0.04239 0.12456,0.04152 0.12458,0.04022 0.12456,0.03939 0.12459,0.03804 0.12456,0.03764 0.12457,0.03589 0.12457,0.03548 0.12457,0.03416 0.12458,0.03288 0.12457,0.03244 0.12456,0.03115 0.12459,0.03027 0.12455,0.02942 0.12459,0.02855 0.12456,0.02768 0.12457,0.02638 0.12457,0.02594 0.12458,0.0251 0.12457,0.02422 0.12457,0.02293 0.12456,0.02248 0.12459,0.02208 0.12456,0.02075 0.12455,0.0199 0.12459,0.01945 0.12456,0.0186 0.12459,0.01817 0.12455,0.01688 0.12458,0.01643 0.12457,0.01601 0.12458,0.01512 0.12457,0.01472 0.12457,0.01383 0.12456,0.01299 0.12458,0.01254 0.12456,0.01212 0.12459,0.01167 0.12456,0.01082 0.12457,0.01037 0.12457,0.00952 0.12457,0.00951 0.12456,0.00865 0.12459,0.00823 0.12456,0.00778 0.12459,0.00737 0.12455,0.00691 0.12458,0.00604 0.12457,0.00606 0.12457,0.00562 0.12457,0.0052 0.12458,0.00476 0.12455,0.00476 0.12459,0.00389 0.12456,0.00389 0.12459,0.00347 0.12456,0.00302 0.12457,0.00259 0.12457,0.00259 0.12457,0.0026 0.12458,0.00174 0.12457,0.00216 0.12456,0.00129 0.12458,0.00131 0.12456,0.0013 0.12457,8.5e-4 0.12458,8.7e-4 0.12457,8.7e-4 0.12457,4.3e-4 0.12458,4.4e-4 0.12455,4.3e-4 L -0.66176,0 h 0.12456 0.12459 0.12455 0.12458 0.12457 0.12454 0.12457 0.12458 0.12456 0.12457 0.12457 l 0.12456,4.1e-4 0.12459,4.3e-4 0.12455,4.4e-4 0.12459,8.7e-4 0.12456,4.3e-4 0.12457,8.7e-4 0.12457,0.00128 0.12458,0.00131 0.12457,0.0013 L 1.9542,0.00906 2.07875,0.0108 2.20334,0.01295 2.3279,0.01556 2.45248,0.01816 2.57704,0.02118 2.70161,0.02422 2.82619,0.02766 2.95076,0.03157 3.07533,0.03589 3.1999,0.04065 3.32446,0.0454 3.44905,0.05103 3.57361,0.05666 3.69818,0.0627 3.82275,0.0692 3.94733,0.07611 4.0719,0.0839 4.19647,0.09167 4.32103,0.10034 4.44562,0.109 4.57018,0.1185 4.69476,0.12845 4.81932,0.13925 4.9439,0.15009 5.06847,0.16176 5.19304,0.17387 5.31761,0.18684 5.44218,0.20024 5.56674,0.21452 5.69133,0.22922 5.81589,0.24437 5.94046,0.26082 6.06503,0.27725 6.1896,0.29497 6.31418,0.31314 6.43875,0.33174 6.56331,0.35164 6.6879,0.37196 6.81245,0.39316 6.93704,0.41522 7.0616,0.43814 7.18617,0.4615 7.31075,0.48615 7.43532,0.51125 7.55989,0.53763 7.68445,0.56444 7.80902,0.59212 7.9336,0.62111 8.05817,0.65096 8.18274,0.68167 8.30731,0.71324 8.43187,0.74568 8.55646,0.77942 8.68102,0.81403 8.80559,0.84949 8.93016,0.88583 9.05473,0.92345 9.1793,0.96239 9.30388,1.00174 9.42844,1.04283 9.55302,1.0848 9.67758,1.12761 9.80217,1.17174 9.92673,1.21715 10.0513,1.26343 10.17587,1.311 l 0.12458,0.04888 0.12457,0.04974 0.12457,0.05148 0.12456,0.0519 0.12459,0.05364 0.12456,0.05493 0.12457,0.05624 0.12457,0.05751 0.12457,0.0584 0.12458,0.06012 0.12457,0.06141 0.12456,0.06273 0.12458,0.06401 0.12456,0.06531 0.12459,0.06662 0.12455,0.06834 0.12458,0.06963 0.12457,0.07095 0.12457,0.07222 0.12458,0.0744 0.12457,0.07528 0.12456,0.07655 0.12459,0.07829 0.12455,0.08002 0.12458,0.08131 0.12457,0.08306 0.12457,0.08433 0.12457,0.08608 0.12458,0.08781 0.12456,0.0891 0.12458,0.09082 0.12456,0.09257 0.12459,0.0943 0.12456,0.09558 0.12455,0.09732 0.12459,0.09906 0.12456,0.10079 0.12459,0.10249 0.12455,0.10427 0.12457,0.10595 0.12458,0.10771 0.12457,0.10987 0.12457,0.11116 0.12458,0.1129 0.12456,0.11505 0.12458,0.11677 0.12456,0.11852 0.12457,0.12068 0.12458,0.12198 0.12457,0.12413 0.12457,0.12631 0.12457,0.12804 0.12456,0.13019 0.12459,0.13148 0.12456,0.1341 0.12459,0.13581 0.12455,0.13797 0.12458,0.13973 0.12457,0.14186 0.12457,0.1436 0.12457,0.1462 0.12458,0.14793 0.12455,0.15008 0.12459,0.15183 0.12456,0.15442 0.12457,0.15658 0.12458,0.15831 0.12457,0.16089 0.12457,0.16265 0.12457,0.16479 0.12456,0.16739 0.12459,0.16913 0.12456,0.17172 0.12458,0.17343 0.12456,0.17649 0.12457,0.17819 0.12458,0.18037 0.12457,0.18297 0.12457,0.18556 0.12458,0.18729 0.12455,0.18989 0.12459,0.19205 0.12456,0.19464 0.12459,0.19681 0.12455,0.19939 0.12458,0.20199 0.12457,0.20372 0.12457,0.20676 0.12456,0.20935 0.12459,0.21108 0.12456,0.2141 0.12457,0.21627 0.12457,0.2193 0.12456,0.22103 0.12459,0.22405 0.12455,0.22708 0.12459,0.22882 0.12456,0.23183 0.12457,0.23445 0.12458,0.23659 0.12457,0.23962 0.12457,0.24224 0.12457,0.24481 0.12456,0.24783 0.12459,0.25002 0.12456,0.25259 0.12457,0.25607 0.12457,0.25779 0.12457,0.26126 0.12458,0.26385 0.12457,0.26645 0.12455,0.26947 0.1246,0.27249 0.12455,0.27466 0.12459,0.27768 0.12456,0.28073 0.12457,0.28331 0.12457,0.28633 0.12458,0.28937 0.12457,0.29198 0.12457,0.295 0.12456,0.29844 0.12459,0.30062 0.12456,0.30406 0.12458,0.30667 0.12456,0.30969 0.12457,0.31273 0.12458,0.31618 0.12457,0.31878 0.12456,0.32183 0.12458,0.32483 0.12456,0.32829 0.12459,0.3309 0.12456,0.33435 0.12457,0.33693 0.12457,0.34085 0.12458,0.34345 0.12457,0.34689 0.12457,0.34949 0.12456,0.35336 0.12459,0.35599 0.12455,0.35943 0.12459,0.3629 0.12456,0.36594 0.12457,0.36894 0.12458,0.37329 0.12456,0.37545 0.12457,0.3789 0.12457,0.38237 0.12457,0.38582 0.12457,0.38928 0.12458,0.39232 0.12455,0.39577 0.12459,0.39923 0.12456,0.40269 0.12459,0.40572 0.12455,0.40962 0.12458,0.41306 0.12457,0.41653 0.12457,0.41957 0.12458,0.42302 0.12457,0.42735 0.12456,0.42995 0.12458,0.43427 0.12456,0.4373 0.12459,0.44075 0.12456,0.44466 0.12457,0.4481"
       style="fill:none;stroke:#b39af0;stroke-width:0.99628;stroke-linecap:butt;stroke-linejoin:miter;stroke-miterlimit:10;stroke-dasharray:none;stroke-opacity:1"
       transform="matrix(1.3333333,0,0,-1.3333333,83.56,81.477333)" />
    <path
       id="path29"
       d="m -28.3468,1.99255 v -3.9851"
       style="fill:none;stroke:#c9d1d9;stroke-width:0.3985;stroke-linecap:butt;stroke-linejoin:miter;stroke-miterlimit:10;stroke-dasharray:none;stroke-opacity:1"
       transform="matrix(1.3333333,0,0,-1.3333333,250.68133,81.477333)" />
    <g
       id="g29"
       aria-label="−1"
       transform="matrix(1.3333333,0,0,1.3333333,209.168,94.805333)">
      <path
         id="path30"
         d="m 4.7577891,-1.3364219 c 0.09375,0 0.2460937,0 0.2460937,-0.1523437 0,-0.1640625 -0.1523437,-0.1640625 -0.2460937,-0.1640625 H 0.99607031 c -0.10546875,0 -0.24609375,0 -0.24609375,0.1640625 0,0.1523437 0.140625,0.1523437 0.24609375,0.1523437 z m 0,0"
         style="fill:#c9d1d9;fill-opacity:1;fill-rule:nonzero;stroke:none" />
      <path
         id="path31"
         d="M 6.7529063,-4.84375e-4 H 7.2450938 V -3.8090781 h -0.375 c -0.2109375,0.1171875 -0.4570313,0.2109375 -0.8203125,0.28125 v 0.3164062 h 0.703125 z m 0,0"
         style="fill:#c9d1d9;fill-opacity:1;fill-rule:nonzero;stroke:none" />
    </g>
    <path
       id="path32"
       d="m 28.3468,1.99255 v -3.9851"
       style="fill:none;stroke:#c9d1d9;stroke-width:0.3985;stroke-linecap:butt;stroke-linejoin:miter;stroke-miterlimit:10;stroke-dasharray:none;stroke-opacity:1"
       transform="matrix(1.3333333,0,0,-1.3333333,250.68133,81.477333)" />
    <path
       id="path33"
       d="M 0.99733594,-3.4375e-4 H 1.4895234 V -3.8089375 h -0.375 C 0.90358594,-3.69175 0.65749219,-3.598 0.29421094,-3.5276875 v 0.3164062 h 0.703125 z m 0,0"
       style="fill:#c9d1d9;fill-opacity:1;fill-rule:nonzero;stroke:none"
       aria-label="1"
       transform="matrix(1.3333333,0,0,1.3333333,288.596,94.797333)" />
    <path
       id="path34"
       d="m 1.99255,-28.3468 h -3.9851"
       style="fill:none;stroke:#c9d1d9;stroke-width:0.3985;stroke-linecap:butt;stroke-linejoin:miter;stroke-miterlimit:10;stroke-dasharray:none;stroke-opacity:1"
       transform="matrix(1.3333333,0,0,-1.3333333,250.68133,81.477333)" />
    <g
       id="g34"
       aria-label="−1"
       transform="matrix(1.3333333,0,0,1.3333333,231.82267,121.26533)">
      <path
         id="path35"
         d="m 4.7589766,-1.3357187 c 0.09375,0 0.2460937,0 0.2460937,-0.1523438 0,-0.1640625 -0.1523437,-0.1640625 -0.2460937,-0.1640625 H 0.99725781 c -0.10546875,0 -0.24609375,0 -0.24609375,0.1640625 0,0.1523438 0.140625,0.1523438 0.24609375,0.1523438 z m 0,0"
         style="fill:#c9d1d9;fill-opacity:1;fill-rule:nonzero;stroke:none" />
      <path
         id="path36"
         d="M 6.7540938,2.1875e-4 H 7.2462813 V -3.808375 h -0.375 C 6.6603438,-3.6911875 6.41425,-3.5974375 6.0509688,-3.527125 v 0.3164063 h 0.703125 z m 0,0"
         style="fill:#c9d1d9;fill-opacity:1;fill-rule:nonzero;stroke:none" />
    </g>
    <path
       id="path37"
       d="m 1.99255,28.3468 h -3.9851"
       style="fill:none;stroke:#c9d1d9;stroke-width:0.3985;stroke-linecap:butt;stroke-linejoin:miter;stroke-miterlimit:10;stroke-dasharray:none;stroke-opacity:1"
       transform="matrix(1.3333333,0,0,-1.3333333,250.68133,81.477333)" />
    <path
       id="path38"
       d="M 0.99516406,-0.00100781 H 1.4873516 V -3.8096016 h -0.375 c -0.21093754,0.1171875 -0.45703129,0.2109375 -0.82031254,0.28125 v 0.3164063 h 0.703125 z m 0,0"
       style="fill:#c9d1d9;fill-opacity:1;fill-rule:nonzero;stroke:none"
       aria-label="1"
       transform="matrix(1.3333333,0,0,1.3333333,239.49733,46.224)" />
    <path
       id="path39"
       d="M -42.5202,0 H 42.27113"
       style="fill:none;stroke:#c9d1d9;stroke-width:0.24907;stroke-linecap:butt;stroke-linejoin:miter;stroke-miterlimit:10;stroke-dasharray:none;stroke-opacity:1"
       transform="matrix(1.3333333,0,0,-1.3333333,250.68133,81.477333)" />
    <path
       id="path40"
       d="M -1.89291,2.12108 C -1.54709,0.84842 -0.77643,0.24745 0,0 -0.77643,-0.24745 -1.54709,-0.84842 -1.89291,-2.12108"
       style="fill:none;stroke:#c9d1d9;stroke-width:0.24907;stroke-linecap:round;stroke-linejoin:round;stroke-miterlimit:10;stroke-dasharray:none;stroke-opacity:1"
       transform="matrix(1.3333333,0,0,-1.3333333,307.20888,81.477333)" />
    <path
       id="path41"
       d="M 0,-42.5202 V 42.27113"
       style="fill:none;stroke:#c9d1d9;stroke-width:0.24907;stroke-linecap:butt;stroke-linejoin:miter;stroke-miterlimit:10;stroke-dasharray:none;stroke-opacity:1"
       transform="matrix(1.3333333,0,0,-1.3333333,250.68133,81.477333)" />
    <path
       id="path42"
       d="M -1.89291,2.12108 C -1.54709,0.84842 -0.77643,0.24745 0,0 -0.77643,-0.24745 -1.54709,-0.84842 -1.89291,-2.12108"
       style="fill:none;stroke:#c9d1d9;stroke-width:0.24907;stroke-linecap:round;stroke-linejoin:round;stroke-miterlimit:10;stroke-dasharray:none;stroke-opacity:1"
       transform="matrix(0,-1.3333333,-1.3333333,0,250.68133,24.949787)" />
    <path
       id="path43"
       d="m -29.76422,-36.17789 0.11894,0.71714 0.11896,0.7059 0.11894,0.69465 0.11896,0.68256 0.11892,0.67259 0.11896,0.66135 0.11894,0.65054 0.11896,0.64058 0.11894,0.62979 0.11896,0.61852 0.11894,0.60987 0.11896,0.59736 0.11893,0.58954 0.11896,0.57959 0.11894,0.56922 0.11896,0.55929 0.11894,0.55061 0.11896,0.54111 0.11894,0.53158 0.11894,0.52252 0.11894,0.51384 0.11896,0.50434 0.11894,0.49656 0.11896,0.48659 0.11894,0.47884 0.11896,0.47059 0.11894,0.46196 0.11894,0.45374 0.11895,0.44549 0.11895,0.43731 0.11895,0.43037 0.11895,0.42174 0.11896,0.41479 0.11894,0.40659 0.11895,0.39967 0.11894,0.39144 0.11896,0.38453 0.11894,0.37804 0.11896,0.37068 0.11894,0.36333 0.11896,0.35641 0.11894,0.35036 0.11894,0.34387 0.11894,0.33652 0.11896,0.33002 0.11894,0.3244 0.11896,0.31747 0.11894,0.31143 0.11896,0.30538 0.11894,0.29931 0.11894,0.29327 0.11895,0.28721 0.11895,0.28244 0.11895,0.27595 0.11895,0.27079 0.11895,0.26471 0.11895,0.25995 0.11893,0.25433 0.11896,0.24914 0.11894,0.24482 0.11896,0.23834 0.11894,0.23398 0.11895,0.22882 0.11895,0.22406 0.11895,0.21972 0.11893,0.21454 0.11896,0.21022 0.11894,0.20545 0.11896,0.20114 0.11894,0.19681 0.11896,0.19247 0.11894,0.18816 0.11895,0.18382 0.11894,0.18036 0.11896,0.17561 0.11894,0.17215 0.11896,0.16739 0.11894,0.16438 0.11896,0.16004 0.11894,0.157 0.11894,0.15269 0.11894,0.14966 0.11896,0.14621 0.11894,0.1423 0.11896,0.13928 0.11894,0.13581 0.11896,0.13235 0.11894,0.12934 0.11894,0.12585 0.11895,0.12328 0.11895,0.11983 0.11895,0.11721 0.11895,0.11418 0.11895,0.11116 0.11895,0.10857 0.11893,0.10556 0.11896,0.10292 0.11894,0.10036 0.11896,0.09776 0.11894,0.09515 0.11896,0.09256 0.11894,0.09041 0.11896,0.0878 0.11892,0.08563 0.11896,0.08306 0.11894,0.08088 0.11896,0.07872 0.11894,0.07656 0.11896,0.0744 0.11894,0.07223 0.11895,0.07007 0.11894,0.06835 0.11896,0.06662 0.11894,0.06444 0.11896,0.06228 0.11894,0.06099 0.11896,0.05884 0.11894,0.05708 0.11894,0.0558 0.11894,0.05406 0.11896,0.05191 0.11894,0.05062 0.11896,0.04928 0.11894,0.04717 0.11896,0.04628 0.11894,0.04455 0.11894,0.04325 0.11894,0.04196 0.11896,0.04022 0.11894,0.03935 0.11896,0.03765 0.11894,0.03676 0.11896,0.0359 0.11893,0.03416 0.11896,0.03289 0.11894,0.032 0.11896,0.03071 0.11894,0.02985 0.11896,0.02854 0.11894,0.02769 0.11896,0.02682 0.11892,0.02596 0.11896,0.02464 0.11896,0.02379 0.11894,0.02336 0.11896,0.02206 0.11894,0.02118 0.11896,0.02077 0.11892,0.01945 0.11896,0.01905 0.11894,0.0186 0.11896,0.0173 0.11894,0.01686 0.11896,0.01601 0.11894,0.01558 0.11896,0.01471 0.11893,0.01427 0.11896,0.01383 0.11894,0.01297 0.11896,0.01255 0.11894,0.01211 0.11896,0.01126 0.11894,0.01081 0.11896,0.01039 0.11892,0.00993 0.11896,0.00952 0.11894,0.0091 0.11896,0.00863 0.11894,0.00821 0.11896,0.00779 0.11894,0.0078 0.11894,0.00692 0.11895,0.00691 0.11895,0.00606 0.11895,0.00606 0.11895,0.00605 0.11895,0.00518 0.11895,0.0052 0.11895,0.00476 0.11894,0.00476 0.11894,0.00432 0.11896,0.00433 0.11894,0.00389 0.11896,0.00347 0.11894,0.00345 0.11895,0.00346 0.11893,0.00304 0.11896,0.00259 0.11894,0.00258 0.11896,0.00261 0.11894,0.00215 0.11896,0.00259 0.11894,0.00174 0.11896,0.00216 0.11893,0.00173 0.11896,0.00174 0.11894,0.00129 0.11896,0.00131 0.11894,0.00172 0.11896,8.6e-4 0.11894,0.00131 0.11894,8.7e-4 0.11894,0.00129 0.11896,8.6e-4 0.11894,8.7e-4 0.11896,4.3e-4 0.11894,8.7e-4 0.11896,4.4e-4 0.11894,4.3e-4 0.11894,8.5e-4 0.11895,4.3e-4 0.11895,4.4e-4 0.11895,4.3e-4 h 0.11895 l 0.11895,4.4e-4 0.11895,4.3e-4 h 0.11895 l 0.11894,4.4e-4 h 0.11894 0.11896 l 0.11894,4.3e-4 h 0.11896 0.11894 L -3.11987,0 h 0.11892 0.11896 0.11894 0.11896 0.11894 0.11896 0.11894 0.11896 0.11893 0.11896 0.11894 0.11896 0.11894 0.11896 0.11894 0.11894 0.11894 0.11896 0.11894 0.11896 0.11894 0.11896 0.11894 0.11894 0.11894 0.11896 L 0.09167,0 H 0.21063 0.32957 0.44853 0.56747 0.68642 0.80537 0.92432 1.04327 1.16222 1.28117 1.40012 1.51906 1.638 1.75696 1.8759 1.99486 2.1138 2.23276 2.3517 2.47064 2.58958 2.70854 2.82748 2.94644 3.06538 l 0.11896,4.1e-4 h 0.11893 0.11896 0.11894 l 0.11896,4.3e-4 h 0.11894 l 0.11896,4.4e-4 h 0.11894 l 0.11896,4.3e-4 h 0.11892 l 0.11896,4.4e-4 0.11894,4.3e-4 0.11896,4.4e-4 0.11894,4.3e-4 0.11896,4.4e-4 0.11894,4.1e-4 0.11896,8.7e-4 0.11893,4.3e-4 0.11896,8.7e-4 0.11894,8.7e-4 0.11896,8.6e-4 0.11894,8.6e-4 0.11896,8.7e-4 0.11894,8.7e-4 0.11894,0.0013 0.11894,0.0013 0.11896,0.0013 0.11894,0.00172 0.11896,0.0013 L 6.63382,0.01945 6.75278,0.0216 6.87172,0.02335 6.99066,0.0255 7.1096,0.02766 7.22856,0.03026 7.3475,0.03285 7.46646,0.03546 7.5854,0.03848 7.70436,0.04193 7.82329,0.04497 7.94225,0.04843 8.06119,0.05232 8.18015,0.05666 8.29909,0.06055 8.41805,0.0653 8.53699,0.07005 8.65594,0.07481 8.77487,0.08044 8.89383,0.08606 9.01277,0.09167 9.13173,0.09816 9.25067,0.10466 9.36963,0.11157 9.48857,0.11893 9.60753,0.1263 9.72646,0.1345 9.84541,0.14273 9.96436,0.1518 l 0.11895,0.00909 0.11895,0.00995 0.11895,0.01037 0.11895,0.01039 0.11894,0.01125 0.11894,0.01167 0.11896,0.01255 0.11894,0.01254 0.11896,0.01341 0.11894,0.01384 0.11896,0.01471 0.11894,0.01513 0.11894,0.01601 0.11894,0.01644 0.11896,0.0173 0.11894,0.01773 0.11896,0.0186 0.11894,0.01947 0.11896,0.02033 0.11892,0.02076 0.11897,0.02163 0.11893,0.02291 0.11896,0.02337 0.11894,0.02464 0.11896,0.0251 0.11894,0.02638 0.11896,0.02725 0.11893,0.02811 0.11896,0.02942 0.11894,0.03027 0.11896,0.03159 0.11894,0.03244 0.11896,0.03374 0.11895,0.03503 0.11893,0.03589 0.11896,0.0372 0.11894,0.03894 0.11896,0.03935 0.11894,0.04154 0.11896,0.04237 0.11894,0.04456 0.11896,0.04498 0.11893,0.04715 0.11895,0.048 0.11895,0.05019 0.11895,0.05147 0.11895,0.05319 0.11895,0.0545 0.11895,0.05667 0.11895,0.05796 0.11893,0.06012 0.11896,0.06143 0.11894,0.06357 0.11896,0.06575 0.11894,0.06749 0.11896,0.0692 0.11894,0.07136 0.11894,0.07353 0.11894,0.07527 0.11896,0.07786 0.11894,0.08001 0.11896,0.08174 0.11894,0.08437 0.11896,0.08693 0.11894,0.08909 0.11895,0.09171 0.11894,0.09386 0.11896,0.09689 0.11894,0.09904 0.11896,0.10166 0.11894,0.10466 0.11896,0.10684 0.11892,0.10986 0.11896,0.1129 0.11894,0.11593 0.11896,0.11851 0.11894,0.12196 0.11896,0.12459 0.11894,0.12804 0.11896,0.13061 0.11893,0.13453 0.11896,0.13711 0.11894,0.14143 0.11896,0.14405 0.11894,0.14792 0.11896,0.1514 0.11894,0.15484 0.11896,0.15874 0.11892,0.16262 0.11896,0.16611 0.11894,0.16999 0.11896,0.17387 0.11894,0.17822 0.11896,0.18209 0.11894,0.18641 0.11894,0.19034 0.11894,0.19463 0.11896,0.1994 0.11894,0.20331 0.11896,0.20805 0.11894,0.21237 0.11896,0.21712 0.11894,0.22233 0.11895,0.22664 0.11894,0.23142 0.11896,0.23703 0.11894,0.24179 0.11896,0.24655 0.11894,0.25217 0.11896,0.25691 0.11892,0.26255 0.11896,0.2686 0.11894,0.27338 0.11896,0.27942 0.11894,0.28504 0.11896,0.29068 0.11894,0.29628 0.11896,0.30278 0.11893,0.30883 0.11895,0.31446 0.11895,0.32136 0.11895,0.32701 0.11895,0.33436 0.11895,0.33998 0.11895,0.34732 0.11895,0.35338 0.11893,0.3603 0.11896,0.36723 0.11894,0.37458 0.11896,0.3815 0.11894,0.38841 0.11896,0.39621 0.11894,0.40312 0.11894,0.41091 0.11894,0.41871 0.11896,0.42647 0.11894,0.43426 0.11896,0.44164 0.11894,0.44983 0.11896,0.45892 0.11894,0.46628 0.11895,0.4745 0.11893,0.48357 0.11896,0.49136 0.11896,0.50087 0.11894,0.50997 0.11896,0.51818 0.11894,0.5277 0.11894,0.53635 0.11895,0.54629 0.11895,0.55495 0.11895,0.56534 0.11895,0.5744 0.11895,0.58479 0.11895,0.59388 0.11895,0.60424 0.11894,0.61508 0.11894,0.62415 0.11896,0.63583 0.11894,0.64578 0.11896,0.65659 0.11894,0.66742 0.11896,0.67822 0.11893,0.68946 0.11895,0.69984 0.11895,0.71239"
       style="fill:none;stroke:#b39af0;stroke-width:0.99628;stroke-linecap:butt;stroke-linejoin:miter;stroke-miterlimit:10;stroke-dasharray:none;stroke-opacity:1"
       transform="matrix(1.3333333,0,0,-1.3333333,250.68133,81.477333)" />
  </g>
</svg>
