<?xml version="1.0" encoding="UTF-8" standalone="no"?>
<!-- Created with Inkscape (http://www.inkscape.org/) -->

<svg
   version="1.1"
   id="svg1"
   width="188.97333"
   height="188.97333"
   viewBox="0 0 188.97333 188.97333"
   sodipodi:docname="MATH_118-65.pdf"
   xmlns:inkscape="http://www.inkscape.org/namespaces/inkscape"
   xmlns:sodipodi="http://sodipodi.sourceforge.net/DTD/sodipodi-0.dtd"
   xmlns="http://www.w3.org/2000/svg"
   xmlns:svg="http://www.w3.org/2000/svg">
  <defs
     id="defs1" />
  <sodipodi:namedview
     id="namedview1"
     pagecolor="#ffffff"
     bordercolor="#000000"
     borderopacity="0.25"
     inkscape:showpageshadow="2"
     inkscape:pageopacity="0.0"
     inkscape:pagecheckerboard="0"
     inkscape:deskcolor="#d1d1d1">
    <inkscape:page
       x="0"
       y="0"
       inkscape:label="1"
       id="page1"
       width="188.97333"
       height="188.97333"
       margin="0"
       bleed="0" />
  </sodipodi:namedview>
  <g
     id="g1"
     inkscape:groupmode="layer"
     inkscape:label="1">
    <path
       id="path1"
       d="M -28.3468,0 H 84.79135"
       style="fill:none;stroke:#c9d1d9;stroke-width:0.24907;stroke-linecap:butt;stroke-linejoin:miter;stroke-miterlimit:10;stroke-dasharray:none;stroke-opacity:1"
       transform="matrix(1.3333333,0,0,-1.3333333,56.693333,132.28133)" />
    <path
       id="path2"
       d="M -1.89291,2.12108 C -1.54709,0.84842 -0.77643,0.24745 0,0 -0.77643,-0.24745 -1.54709,-0.84842 -1.89291,-2.12108"
       style="fill:none;stroke:#c9d1d9;stroke-width:0.24907;stroke-linecap:round;stroke-linejoin:round;stroke-miterlimit:10;stroke-dasharray:none;stroke-opacity:1"
       transform="matrix(1.3333333,0,0,-1.3333333,169.91453,132.28133)" />
    <path
       id="path3"
       d="M 0,-28.3468 V 84.79135"
       style="fill:none;stroke:#c9d1d9;stroke-width:0.24907;stroke-linecap:butt;stroke-linejoin:miter;stroke-miterlimit:10;stroke-dasharray:none;stroke-opacity:1"
       transform="matrix(1.3333333,0,0,-1.3333333,56.693333,132.28133)" />
    <path
       id="path4"
       d="M -1.89291,2.12108 C -1.54709,0.84842 -0.77643,0.24745 0,0 -0.77643,-0.24745 -1.54709,-0.84842 -1.89291,-2.12108"
       style="fill:none;stroke:#c9d1d9;stroke-width:0.24907;stroke-linecap:round;stroke-linejoin:round;stroke-miterlimit:10;stroke-dasharray:none;stroke-opacity:1"
       transform="matrix(0,-1.3333333,-1.3333333,0,56.693333,19.060133)" />
    <path
       id="path5"
       d="m -14.17339,14.20972 0.18166,0.02163 0.18167,0.02724 0.18166,0.03244 0.18168,0.03764 0.18166,0.04239 0.18167,0.04801 0.18166,0.05276 0.18167,0.05797 0.18166,0.06316 0.18168,0.06834 0.18166,0.07353 0.18166,0.07871 0.18166,0.08348 0.18167,0.08824 0.18166,0.09344 0.18167,0.09818 0.18167,0.10294 0.18167,0.10771 0.18166,0.11245 0.18167,0.11808 0.18166,0.12199 0.18167,0.12715 0.18167,0.1315 0.18167,0.13582 0.18166,0.14058 0.18167,0.1449 0.18165,0.14921 0.18167,0.15399 0.18166,0.15745 0.18169,0.16262 0.18165,0.16654 0.18167,0.17085 0.18166,0.17474 0.18167,0.17864 0.18167,0.18254 0.18166,0.18599 0.18168,0.19031 0.18166,0.19378 0.18167,0.19724 0.18166,0.20155 0.18167,0.20459 0.18165,0.20806 0.18169,0.2115 0.18166,0.21455 0.18167,0.21799 0.18165,0.22104 0.18167,0.22363 0.18166,0.22664 0.18167,0.23012 0.18167,0.23227 0.18167,0.23529 0.18166,0.2379 0.18167,0.24049 0.18166,0.24308 0.18167,0.24482 0.18167,0.24742 0.18167,0.24913 0.18166,0.25174 0.18166,0.25346 0.18166,0.25521 0.18167,0.25737 0.18166,0.25908 0.18169,0.26037 0.18165,0.26213 0.18167,0.26342 0.18166,0.26472 0.18167,0.26558 0.18166,0.26686 0.18168,0.26775 0.18166,0.26904 0.18167,0.26947 0.18166,0.27034 0.18167,0.27119 0.18165,0.27121 0.18167,0.27205 0.18167,0.27208 0.18168,0.27249 0.18165,0.27207 0.18164,0.27208 0.18166,0.27249 0.18167,0.27206 0.18166,0.27208 0.18168,0.27118 0.18166,0.27121 0.18167,0.27034 0.18165,0.26947 0.18168,0.26905 0.18165,0.26817 0.18169,0.26687 0.18165,0.26558 0.18167,0.26472 0.18166,0.2634 0.18167,0.26212 0.18166,0.26039 0.18167,0.25909 0.18167,0.25736 0.18167,0.25563 0.18167,0.25347 0.18166,0.25175 0.18167,0.24912 0.18166,0.24786 0.18168,0.24481 0.18166,0.24309 0.18167,0.24048 0.18165,0.2379 0.18168,0.23532 0.18165,0.23269 0.18167,0.23011 0.18167,0.22665 0.18167,0.22406 0.18166,0.22103 0.18167,0.21798 0.18166,0.21456 0.18167,0.2115 0.18167,0.20849 0.18167,0.20459 0.18166,0.20155 0.18167,0.19768 0.18165,0.1942 0.18168,0.1899 0.18165,0.18642 0.18169,0.18254 0.18166,0.17906 0.18166,0.17474 0.18166,0.17086 0.18167,0.16651 0.18166,0.16263 0.18167,0.15833 0.18167,0.15397 0.18167,0.14923 0.18166,0.1449 0.18167,0.14057 0.18165,0.13668 0.18168,0.1315 0.18167,0.12717 0.18167,0.12198 0.18165,0.11807 0.18167,0.1129 0.18166,0.10814 0.18167,0.10295 0.18166,0.0986 0.18168,0.09343 0.18166,0.08867 0.18167,0.08348 0.18166,0.07872 0.18167,0.07354 0.18165,0.06877 0.18169,0.06316 0.18165,0.05837 0.18168,0.05321 0.18165,0.04802 0.18167,0.04239 0.18166,0.03806 0.18167,0.03244 0.18167,0.02725 0.18167,0.0225 0.18166,0.01686 0.18167,0.01168 0.18166,0.0065 0.18167,8.7e-4 0.18167,-0.0043 0.18167,-0.0095 0.18167,-0.01427 0.18166,-0.0199 0.18167,-0.02466 0.18165,-0.02985 0.18168,-0.03546 0.18167,-0.04109 0.18167,-0.04542 0.18166,-0.05147 0.18166,-0.0558 0.18166,-0.06142 0.18167,-0.06618 0.18166,-0.07136 0.18168,-0.07657 0.18166,-0.08087 0.18167,-0.08652 0.18166,-0.09126 0.18167,-0.09645 0.18165,-0.10123 0.18169,-0.10597 0.18166,-0.11072 0.18167,-0.11592 0.18165,-0.12026 0.18167,-0.12457 0.18166,-0.12932 0.18167,-0.13452 0.18167,-0.13884 0.18167,-0.14317 0.18166,-0.14749 0.18167,-0.15227 0.18166,-0.15614 0.18166,-0.16047 0.18168,-0.16481 0.18167,-0.16868 0.18165,-0.17301 0.18168,-0.17735 0.18165,-0.1808 0.18167,-0.18512 0.18166,-0.18859 0.18169,-0.19248 0.18165,-0.19594 0.18167,-0.19983 0.18166,-0.20285 0.18167,-0.20677 0.18166,-0.21021 0.18168,-0.21324 0.18166,-0.2167 0.18167,-0.21973 0.18166,-0.22276 0.18167,-0.22577 0.18165,-0.22838 0.18167,-0.23186 0.18168,-0.23399 0.18167,-0.2366 0.18165,-0.23963 0.18168,-0.24136 0.18165,-0.24439 0.18167,-0.24653 0.18167,-0.24871 0.18167,-0.25088 0.18166,-0.25259 0.18167,-0.25478 0.18165,-0.25606 0.18168,-0.25822 0.18167,-0.25995 0.18167,-0.26126 0.18167,-0.26299 0.18166,-0.26428 0.18167,-0.26514 0.18165,-0.26645 0.18167,-0.26773 0.18166,-0.26861 0.18169,-0.26905 0.18165,-0.26989 0.18167,-0.27077 0.18166,-0.27164 0.18167,-0.27163 0.18166,-0.27207 0.18168,-0.27206 0.18166,-0.27251 0.18167,-0.27205 0.18165,-0.27208 0.18168,-0.27249 0.18165,-0.27206 0.18167,-0.27164 0.18167,-0.27119 0.18168,-0.27079 0.18165,-0.26989 0.18167,-0.26905 0.18166,-0.2686 0.18167,-0.26732 0.18167,-0.266 0.18167,-0.26515 0.18166,-0.26427 0.18167,-0.26256 0.18165,-0.26082 0.18168,-0.25952 0.18165,-0.25823 0.18169,-0.25605 0.18166,-0.25434 0.18167,-0.25261 0.18165,-0.25044 0.18167,-0.24827 0.18166,-0.24611 0.18168,-0.24396 0.18166,-0.24135 0.18167,-0.23875 0.18166,-0.23662 0.18167,-0.23355 0.18165,-0.23099 0.18168,-0.22838 0.18167,-0.22535 0.18167,-0.22188 0.18165,-0.21973 0.18167,-0.21585 0.18166,-0.21281 0.18167,-0.20934 0.18166,-0.20633 0.18168,-0.20242 0.18166,-0.1994 0.18167,-0.19509 0.18166,-0.19203 0.18167,-0.18815 0.18165,-0.18427 0.18169,-0.18037 0.18165,-0.17605 0.18168,-0.17257 0.18167,-0.16828 0.18165,-0.16435 0.18168,-0.15961 0.18165,-0.15571 0.18169,-0.15139 0.18165,-0.14706 0.18168,-0.14273 0.18165,-0.13798 0.18167,-0.13323 0.18166,-0.12889 0.18168,-0.12415 0.18166,-0.11936 0.18167,-0.11507 0.18166,-0.10986 0.18167,-0.10553 0.18165,-0.10036 0.18168,-0.09558 0.18167,-0.09041 0.18167,-0.08563 0.18166,-0.08048 0.18166,-0.07568 0.18166,-0.07051 0.18167,-0.06531 0.18167,-0.06055 0.18167,-0.05536 0.18166,-0.05061 0.18167,-0.04456 0.18166,-0.03979 0.18167,-0.03461 0.18165,-0.02897 0.18169,-0.02422 0.18166,-0.01903 0.18167,-0.01385 0.18165,-0.0087 0.18167,-0.0035 0.18166,0.0017 0.18167,0.0078 0.18167,0.01256 0.18167,0.01772 0.18166,0.02293 0.18167,0.02812 0.18166,0.0333 0.18167,0.0385 0.18167,0.04368 0.18167,0.04845 0.18165,0.05408 0.18168,0.05925 0.18165,0.06401 0.18167,0.06964 0.18166,0.0744 0.18169,0.07959 0.18165,0.08434 0.18167,0.08909 0.18166,0.0943 0.18167,0.09906 0.18166,0.10379 0.18168,0.10901 0.18166,0.11377 0.18167,0.11851 0.18166,0.12328 0.18167,0.12758 0.18165,0.13237 0.18167,0.1371 0.18169,0.14102 0.18166,0.14575 0.18167,0.1501 0.18166,0.15485 0.18166,0.15916 0.18166,0.16307 0.18168,0.16739 0.18166,0.1713 0.18167,0.17518 0.18166,0.17951 0.18167,0.18339 0.18166,0.18685 0.18167,0.19117 0.18167,0.19465 0.18167,0.1981 0.18166,0.202 0.18167,0.20501 0.18165,0.20893 0.18167,0.21194 0.18166,0.2154 0.18169,0.21844 0.18165,0.22103 0.18167,0.22492 0.18166,0.22751 0.18167,0.23012 0.18166,0.23314 0.18168,0.23573 0.18166,0.23876 0.18167,0.24047 0.18165,0.24311 0.18168,0.24568 0.18165,0.24783 0.18167,0.25002 0.18167,0.25172 0.18168,0.25391 0.18165,0.25563 0.18167,0.2578 0.18166,0.25909 0.18167,0.26082 0.18167,0.26211 0.18167,0.26342 0.18166,0.26513 0.18167,0.26603 0.18166,0.26731 0.18167,0.26816 0.18165,0.26904 0.18169,0.26948 0.18166,0.27034 0.18167,0.27119 0.18165,0.27163 0.18168,0.27164 0.18165,0.27251 0.18169,0.27206 0.18165,0.27205 0.18167,0.27253 0.18166,0.27249 0.18167,0.27206 0.18165,0.27164 0.18168,0.27119 0.18167,0.27121 0.18167,0.27034 0.18165,0.26947 0.18168,0.26861 0.18165,0.26815 0.18167,0.26645 0.18169,0.26558 0.18165,0.26428 0.18168,0.26343 0.18165,0.26169 0.18167,0.26037 0.18166,0.25865 0.18167,0.25695 0.18167,0.25475 0.18167,0.25347 0.18166,0.25087 0.18167,0.24915 0.18165,0.24698 0.18168,0.24481 0.18165,0.24266 0.18169,0.24005 0.18165,0.23747 0.18168,0.23487 0.18165,0.23184 0.18167,0.22923 0.18166,0.22623 0.18168,0.22361 0.18166,0.2206 0.18167,0.21713 0.18166,0.21454 0.18167,0.21065 0.18165,0.20763 0.18168,0.20414 0.18167,0.2007 0.18167,0.19638 0.18166,0.19333 0.18167,0.1899 0.18165,0.18554 0.18167,0.18212 0.18167,0.17819 0.18167,0.17389 0.18166,0.16998 0.18167,0.16609 0.18166,0.16135 0.18167,0.15744 0.18165,0.1527 0.18169,0.14877 0.18166,0.14449 0.18167,0.1397 0.18165,0.1354 0.18167,0.13105 0.18166,0.12587 0.18169,0.12154 0.18165,0.11634 0.18167,0.11204 0.18166,0.10726 0.18167,0.10209 0.18166,0.09775 0.18167,0.09256 0.18167,0.08781 0.18167,0.08261 0.18165,0.07785 0.18168,0.07225 0.18165,0.06746 0.18167,0.06229 0.18166,0.05754 0.18169,0.05189 0.18165,0.04715 0.18167,0.04195 0.18168,0.03677 0.18165,0.03159 0.18167,0.02637 0.18167,0.02077 0.18167,0.016 0.18166,0.01038 0.18167,0.0056 h 0.18166 l 0.18167,-0.0052 0.18165,-0.01037 0.18169,-0.01557 0.18166,-0.02076 0.18167,-0.02552 0.18166,-0.03157 0.18166,-0.03633 0.18166,-0.04196 0.18168,-0.04672 0.18166,-0.05191 0.18167,-0.05709 0.18166,-0.0623"
       style="fill:none;stroke:#c9d1d9;stroke-width:0.49814;stroke-linecap:butt;stroke-linejoin:miter;stroke-miterlimit:10;stroke-dasharray:none;stroke-opacity:1"
       transform="matrix(1.3333333,0,0,-1.3333333,56.693333,132.28133)" />
    <g
       id="g5"
       aria-label="f(x)"
       transform="matrix(1.3333333,0,0,1.3333333,128.756,62.704)">
      <path
         id="path6"
         d="M 0.43495313,-6.5625e-4 H 1.1966719 L 2.0287031,-4.2194062 H 3.0247969 L 3.1537031,-4.8405 h -0.984375 l 0.1640625,-0.8320312 c 0.1054688,-0.5507813 0.3867188,-0.9140625 0.8203125,-0.9140625 0.234375,0 0.4101563,0.058594 0.5507813,0.1523437 l 0.2578125,-0.5390625 c -0.2226563,-0.140625 -0.515625,-0.234375 -0.8671875,-0.234375 -0.8085938,0 -1.3359375,0.5976563 -1.5351563,1.5585938 L 1.4076094,-4.8405 0.76307813,-4.793625 0.64589063,-4.2194062 H 1.2787031 Z m 0,0"
         style="fill:#c9d1d9;fill-opacity:1;fill-rule:nonzero;stroke:none" />
      <path
         id="path7"
         d="m 6.1126875,2.3899688 c 0,-0.035156 0,-0.046875 -0.1640625,-0.2226563 C 4.7064375,0.91340625 4.3783125,-0.96159375 4.3783125,-2.49675 c 0,-1.7226562 0.3867188,-3.4570312 1.6054688,-4.7109375 0.1289062,-0.1171875 0.1289062,-0.1289062 0.1289062,-0.1640625 0,-0.070312 -0.035156,-0.1054687 -0.09375,-0.1054687 -0.1054687,0 -0.9960937,0.6796875 -1.5820312,1.9453125 -0.515625,1.1015625 -0.6328125,2.203125 -0.6328125,3.0351562 0,0.7851563 0.1171875,1.9921875 0.65625,3.1171875 0.5976562,1.21875 1.453125,1.875 1.5585937,1.875 0.058594,0 0.09375,-0.035156 0.09375,-0.1054687 z m 0,0"
         style="fill:#c9d1d9;fill-opacity:1;fill-rule:nonzero;stroke:none" />
      <path
         id="path8"
         d="m 6.2591719,-6.5625e-4 h 0.84375 l 0.9375,-1.14843745 C 8.2865156,-1.4537812 8.5208906,-1.7350312 8.7201094,-2.028 h 0.046875 c 0.1171875,0.2929688 0.234375,0.5976563 0.3398437,0.890625 L 9.5404219,-6.5625e-4 H 10.337297 L 9.3529219,-2.403 11.345109,-4.8405 h -0.832031 l -0.8437499,1.078125 c -0.1992187,0.2695313 -0.421875,0.5390625 -0.6210937,0.8085938 h -0.046875 c -0.09375,-0.28125 -0.1757813,-0.5273438 -0.28125,-0.8085938 L 8.3099531,-4.8405 H 7.5247969 l 0.9023437,2.2734375 z m 0,0"
         style="fill:#c9d1d9;fill-opacity:1;fill-rule:nonzero;stroke:none" />
      <path
         id="path9"
         d="m 13.858781,-2.49675 c 0,-0.7734375 -0.117187,-1.9804687 -0.65625,-3.1054687 -0.597656,-1.21875 -1.464843,-1.875 -1.558593,-1.875 -0.05859,0 -0.105469,0.046875 -0.105469,0.1054687 0,0.035156 0,0.046875 0.199219,0.234375 0.972656,0.984375 1.535156,2.5664063 1.535156,4.640625 0,1.7109375 -0.363281,3.45703125 -1.59375,4.7226563 -0.140625,0.1171875 -0.140625,0.1289062 -0.140625,0.1640625 0,0.058594 0.04687,0.1054687 0.105469,0.1054687 0.09375,0 0.996093,-0.6796875 1.582031,-1.9453125 0.503906,-1.1015625 0.632812,-2.203125 0.632812,-3.046875 z m 0,0"
         style="fill:#c9d1d9;fill-opacity:1;fill-rule:nonzero;stroke:none" />
    </g>
    <path
       id="path10"
       d="m -14.17339,-14.13705 0.18166,0.02163 0.18167,0.02724 0.18166,0.03244 0.18168,0.03764 0.18166,0.04238 0.18167,0.04802 0.18166,0.05276 0.18167,0.05795 0.18166,0.06316 0.18168,0.06834 0.18166,0.07354 0.18166,0.07872 0.18166,0.08348 0.18167,0.08824 0.18166,0.09343 0.18167,0.09818 0.18167,0.10294 0.18167,0.1077 0.18166,0.11247 0.18167,0.11808 0.18166,0.12197 0.18167,0.12717 0.18167,0.1315 0.18167,0.1358 0.18166,0.14058 0.18167,0.14492 0.18165,0.14921 0.18167,0.15398 0.18166,0.15745 0.18169,0.16263 0.18165,0.16652 0.18167,0.17085 0.18166,0.17475 0.18167,0.17865 0.18167,0.18253 0.18166,0.18598 0.18168,0.19032 0.18166,0.19378 0.18167,0.19723 0.18166,0.20157 0.18167,0.20459 0.18165,0.20805 0.18169,0.21151 0.18166,0.21454 0.18167,0.218 0.18165,0.22103 0.18167,0.22362 0.18166,0.22664 0.18167,0.23012 0.18167,0.23227 0.18167,0.23531 0.18166,0.23788 0.18167,0.24049 0.18166,0.24309 0.18167,0.24483 0.18167,0.2474 0.18167,0.24914 0.18166,0.25175 0.18166,0.25346 0.18166,0.25519 0.18167,0.25737 0.18166,0.2591 0.18169,0.26037 0.18165,0.26213 0.18167,0.2634 0.18166,0.26472 0.18167,0.26558 0.18166,0.26688 0.18168,0.26773 0.18166,0.26904 0.18167,0.26947 0.18166,0.27034 0.18167,0.27121 0.18165,0.2712 0.18167,0.27206 0.18167,0.27207 0.18168,0.27249 0.18165,0.27208 0.18164,0.27203 0.18166,0.27249 0.18167,0.27208 0.18166,0.27207 0.18168,0.27119 0.18166,0.2712 0.18167,0.27033 0.18165,0.26948 0.18168,0.26904 0.18165,0.26819 0.18169,0.26686 0.18165,0.26558 0.18167,0.26471 0.18166,0.26342 0.18167,0.26212 0.18166,0.26039 0.18167,0.25908 0.18167,0.25735 0.18167,0.25565 0.18167,0.25346 0.18166,0.25175 0.18167,0.24912 0.18166,0.24785 0.18168,0.24481 0.18166,0.24311 0.18167,0.24048 0.18165,0.2379 0.18168,0.2353 0.18165,0.2327 0.18167,0.23012 0.18167,0.22663 0.18167,0.22406 0.18166,0.22103 0.18167,0.218 0.18166,0.21454 0.18167,0.2115 0.18167,0.2085 0.18167,0.20459 0.18166,0.20156 0.18167,0.19767 0.18165,0.19421 0.18168,0.18988 0.18165,0.18644 0.18169,0.18252 0.18166,0.17906 0.18166,0.17475 0.18166,0.17087 0.18167,0.16651 0.18166,0.16263 0.18167,0.15831 0.18167,0.15398 0.18167,0.14924 0.18166,0.14489 0.18167,0.14057 0.18165,0.13667 0.18168,0.13151 0.18167,0.12716 0.18167,0.12198 0.18165,0.11808 0.18167,0.11291 0.18166,0.10812 0.18167,0.10296 0.18166,0.09861 0.18168,0.09343 0.18166,0.08866 0.18167,0.08349 0.18166,0.07872 0.18167,0.07353 0.18165,0.06878 0.18169,0.06314 0.18165,0.05839 0.18168,0.05321 0.18165,0.048 0.18167,0.04241 0.18166,0.03804 0.18167,0.03244 0.18167,0.02727 0.18167,0.02249 0.18166,0.01686 0.18167,0.01167 0.18166,0.0065 0.18167,8.6e-4 0.18167,-0.0043 0.18167,-0.0095 0.18167,-0.01428 0.18166,-0.0199 0.18167,-0.02466 0.18165,-0.02983 0.18168,-0.03547 0.18167,-0.0411 0.18167,-0.04542 0.18166,-0.05147 0.18166,-0.05579 0.18166,-0.06141 0.18167,-0.06619 0.18166,-0.07137 0.18168,-0.07657 0.18166,-0.08087 0.18167,-0.08652 0.18166,-0.09124 0.18167,-0.09647 0.18165,-0.10121 0.18169,-0.10598 0.18166,-0.11073 0.18167,-0.11592 0.18165,-0.12024 0.18167,-0.12459 0.18166,-0.12931 0.18167,-0.13453 0.18167,-0.13884 0.18167,-0.14317 0.18166,-0.14749 0.18167,-0.15227 0.18166,-0.15613 0.18166,-0.16047 0.18168,-0.16481 0.18167,-0.16867 0.18165,-0.17302 0.18168,-0.17734 0.18165,-0.1808 L 21.9781,10.3195 22.15976,10.13092 22.34145,9.9384 22.5231,9.74246 22.70477,9.54263 22.88643,9.33978 23.0681,9.13303 23.24976,8.9228 23.43144,8.70956 23.6131,8.49286 23.79477,8.27313 23.97643,8.05038 24.1581,7.8246 24.33975,7.59622 24.52142,7.36438 24.7031,7.13037 24.88477,6.89377 25.06642,6.65416 25.2481,6.4128 25.42975,6.16841 25.61142,5.92186 25.79309,5.67316 25.97476,5.42229 26.15642,5.16968 26.33809,4.91492 26.51974,4.65884 26.70142,4.40063 26.88309,4.14067 27.06476,3.87941 27.24643,3.61644 27.42809,3.35216 27.60976,3.087 27.79141,2.82057 27.97308,2.55283 28.15474,2.28421 28.33643,2.01518 28.51808,1.74527 28.69975,1.4745 28.88141,1.20288 29.06308,0.93123 29.24474,0.65916 29.42642,0.38712 29.60808,0.1146 l 0.18167,-0.27202 0.18165,-0.27207 0.18168,-0.27251 0.18165,-0.27206 0.18167,-0.27162 0.18167,-0.27121 0.18168,-0.27078 0.18165,-0.2699 0.18167,-0.26904 0.18166,-0.2686 0.18167,-0.26731 0.18167,-0.266 0.18167,-0.26516 0.18166,-0.26428 0.18167,-0.26254 0.18165,-0.26082 0.18168,-0.25954 0.18165,-0.25822 0.18169,-0.25606 0.18166,-0.25433 0.18167,-0.25261 0.18165,-0.25043 0.18167,-0.24829 0.18166,-0.2461 0.18168,-0.24397 0.18166,-0.24133 0.18167,-0.23877 0.18166,-0.2366 0.18167,-0.23357 0.18165,-0.23097 0.18168,-0.22838 0.18167,-0.22536 0.18167,-0.22189 0.18165,-0.21973 0.18167,-0.21583 0.18166,-0.21282 0.18167,-0.20935 0.18166,-0.20631 0.18168,-0.20244 0.18166,-0.1994 0.18167,-0.19507 0.18166,-0.19205 0.18167,-0.18815 0.18165,-0.18427 0.18169,-0.18037 0.18165,-0.17604 0.18168,-0.17256 0.18167,-0.16828 0.18165,-0.16437 0.18168,-0.1596 0.18165,-0.15572 0.18169,-0.15137 0.18165,-0.14706 0.18168,-0.14275 0.18165,-0.13798 0.18167,-0.13321 0.18166,-0.12891 0.18168,-0.12412 0.18166,-0.11939 0.18167,-0.11507 0.18166,-0.10986 0.18167,-0.10553 0.18165,-0.10035 0.18168,-0.09559 0.18167,-0.09041 0.18167,-0.08563 0.18166,-0.08046 0.18166,-0.0757 0.18166,-0.07049 0.18167,-0.06531 0.18167,-0.06056 0.18167,-0.05536 0.18166,-0.05062 0.18167,-0.04455 0.18166,-0.0398 0.18167,-0.03459 0.18165,-0.02897 0.18169,-0.02422 0.18166,-0.01904 0.18167,-0.01384 0.18165,-0.0087 0.18167,-0.0035 0.18166,0.0017 0.18167,0.0078 0.18167,0.01255 0.18167,0.01774 0.18166,0.02292 0.18167,0.02812 0.18166,0.03329 0.18167,0.03852 0.18167,0.04367 0.18167,0.04844 0.18165,0.05408 0.18168,0.05925 0.18165,0.06403 0.18167,0.06964 0.18166,0.0744 0.18169,0.07957 0.18165,0.08434 0.18167,0.08911 0.18166,0.09428 0.18167,0.09906 0.18166,0.10381 0.18168,0.10899 0.18166,0.11377 0.18167,0.11852 0.18166,0.12327 0.18167,0.1276 0.18165,0.13235 0.18167,0.13712 0.18169,0.14101 0.18166,0.14576 0.18167,0.1501 0.18166,0.15485 0.18166,0.15916 0.18166,0.16307 0.18168,0.16739 0.18166,0.17128 0.18167,0.17519 0.18166,0.1795 0.18167,0.1834 0.18166,0.18684 0.18167,0.19119 0.18167,0.19465 0.18167,0.19808 0.18166,0.20202 0.18167,0.20502 0.18165,0.20892 0.18167,0.21194 0.18166,0.21539 0.18169,0.21843 0.18165,0.22102 0.18167,0.22494 0.18166,0.22751 0.18167,0.23011 0.18166,0.23314 0.18168,0.23574 0.18166,0.23876 0.18167,0.24048 0.18165,0.24309 0.18168,0.24568 0.18165,0.24785 0.18167,0.25 0.18167,0.25174 0.18168,0.25389 0.18165,0.25565 0.18167,0.25779 0.18166,0.25908 0.18167,0.26082 0.18167,0.26212 0.18167,0.26343 0.18166,0.26513 0.18167,0.26602 0.18166,0.26731 0.18167,0.26816 0.18165,0.26906 0.18169,0.26946 0.18166,0.27033 0.18167,0.27121 0.18165,0.27162 0.18168,0.27165 0.18165,0.27249 0.18169,0.27207 0.18165,0.27203 0.18167,0.27251 0.18166,0.27249 0.18167,0.27208 0.18165,0.27162 0.18168,0.27121 0.18167,0.2712 0.18167,0.27033 0.18165,0.26948 0.18168,0.2686 0.18165,0.26817 0.18167,0.26643 0.18169,0.26558 0.18165,0.2643 0.18168,0.26341 0.18165,0.26169 0.18167,0.26038 0.18166,0.25866 0.18167,0.25693 0.18167,0.25476 0.18167,0.25348 0.18166,0.25085 0.18167,0.24915 0.18165,0.24699 0.18168,0.24482 0.18165,0.24264 0.18169,0.24005 0.18165,0.23748 0.18168,0.23487 0.18165,0.23183 0.18167,0.22925 0.18166,0.22621 0.18168,0.22363 0.18166,0.2206 0.18167,0.21712 0.18166,0.21455 0.18167,0.21063 0.18165,0.20763 0.18168,0.20415 0.18167,0.2007 0.18167,0.19638 0.18166,0.19334 0.18167,0.18988 0.18165,0.18556 0.18167,0.1821 0.18167,0.17821 0.18167,0.17387 0.18166,0.16999 0.18167,0.1661 0.18166,0.16133 0.18167,0.15746 0.18165,0.15268 0.18169,0.14878 0.18166,0.14448 0.18167,0.13971 0.18165,0.13539 0.18167,0.13106 0.18166,0.12586 0.18169,0.12154 0.18165,0.11636 0.18167,0.11202 0.18166,0.10727 0.18167,0.10208 0.18166,0.09775 0.18167,0.09258 0.18167,0.0878 0.18167,0.08262 0.18165,0.07785 0.18168,0.07223 0.18165,0.06748 0.18167,0.06227 0.18166,0.05754 0.18169,0.05191 0.18165,0.04714 0.18167,0.04196 0.18168,0.03677 0.18165,0.03157 0.18167,0.02638 0.18167,0.02076 0.18167,0.01602 0.18166,0.01037 0.18167,0.0056 h 0.18166 l 0.18167,-0.0052 0.18165,-0.01039 0.18169,-0.01556 0.18166,-0.02077 0.18167,-0.0255 0.18166,-0.03158 0.18166,-0.03634 0.18166,-0.04196 0.18168,-0.0467 0.18166,-0.05192 0.18167,-0.05708 0.18166,-0.0623"
       style="fill:none;stroke:#b39af0;stroke-width:0.99628;stroke-linecap:butt;stroke-linejoin:miter;stroke-miterlimit:10;stroke-dasharray:none;stroke-opacity:1"
       transform="matrix(1.3333333,0,0,-1.3333333,56.693333,132.28133)" />
    <g
       id="g10"
       aria-label="f(x)−c"
       transform="matrix(1.3333333,0,0,1.3333333,77.012,163.724)">
      <path
         id="path11"
         d="M 0.43338281,-0.00100781 H 1.1951016 L 2.0271328,-4.2197578 h 0.9960938 l 0.1289062,-0.6210938 h -0.984375 l 0.1640625,-0.8320312 c 0.1054688,-0.5507813 0.3867188,-0.9140625 0.8203125,-0.9140625 0.234375,0 0.4101563,0.058594 0.5507813,0.1523437 l 0.2578125,-0.5390625 c -0.2226563,-0.140625 -0.515625,-0.234375 -0.8671875,-0.234375 -0.8085938,0 -1.3359375,0.5976563 -1.5351563,1.5585938 l -0.1523437,0.8085937 -0.64453129,0.046875 -0.1171875,0.5742188 H 1.2771328 Z m 0,0"
         style="fill:#b39af0;fill-opacity:1;fill-rule:nonzero;stroke:none" />
      <path
         id="path12"
         d="m 6.1111172,2.3896172 c 0,-0.035156 0,-0.046875 -0.1640625,-0.2226563 -1.2421875,-1.25390621 -1.5703125,-3.12890621 -1.5703125,-4.6640625 0,-1.7226562 0.3867187,-3.4570312 1.6054687,-4.7109375 0.1289063,-0.1171875 0.1289063,-0.1289062 0.1289063,-0.1640625 0,-0.070312 -0.035156,-0.1054687 -0.09375,-0.1054687 -0.1054688,0 -0.9960938,0.6796875 -1.5820313,1.9453125 -0.515625,1.1015625 -0.6328125,2.203125 -0.6328125,3.0351562 0,0.7851563 0.1171875,1.99218754 0.65625,3.11718754 0.5976563,1.21874996 1.453125,1.87499996 1.5585938,1.87499996 0.058594,0 0.09375,-0.035156 0.09375,-0.1054687 z m 0,0"
         style="fill:#b39af0;fill-opacity:1;fill-rule:nonzero;stroke:none" />
      <path
         id="path13"
         d="m 6.2605312,-0.00100781 h 0.84375 l 0.9375,-1.14843749 C 8.287875,-1.4541328 8.52225,-1.7353828 8.7214687,-2.0283516 h 0.046875 c 0.1171875,0.2929688 0.234375,0.5976563 0.3398438,0.890625 l 0.4335937,1.13671879 h 0.7968748 l -0.9843748,-2.40234379 1.9921878,-2.4375 h -0.832032 l -0.8437495,1.078125 c -0.1992188,0.2695313 -0.421875,0.5390625 -0.6210938,0.8085938 h -0.046875 c -0.09375,-0.28125 -0.1757812,-0.5273438 -0.28125,-0.8085938 L 8.3113125,-4.8408516 H 7.5261562 L 8.4285,-2.5674141 Z m 0,0"
         style="fill:#b39af0;fill-opacity:1;fill-rule:nonzero;stroke:none" />
      <path
         id="path14"
         d="m 13.860141,-2.4971016 c 0,-0.7734375 -0.117188,-1.9804687 -0.65625,-3.1054687 -0.597657,-1.21875 -1.464844,-1.875 -1.558594,-1.875 -0.05859,0 -0.105469,0.046875 -0.105469,0.1054687 0,0.035156 0,0.046875 0.199219,0.234375 0.972656,0.984375 1.535156,2.5664063 1.535156,4.640625 0,1.71093754 -0.363281,3.45703129 -1.59375,4.7226563 -0.140625,0.1171875 -0.140625,0.1289062 -0.140625,0.1640625 0,0.058594 0.04687,0.1054687 0.105469,0.1054687 0.09375,0 0.996094,-0.6796875 1.582031,-1.94531246 0.503906,-1.1015625 0.632813,-2.20312504 0.632813,-3.04687504 z m 0,0"
         style="fill:#b39af0;fill-opacity:1;fill-rule:nonzero;stroke:none" />
      <path
         id="path15"
         d="m 23.627719,-2.2978828 c 0.175781,0 0.351562,0 0.351562,-0.1992188 0,-0.1992187 -0.175781,-0.1992187 -0.351562,-0.1992187 h -5.390625 c -0.164063,0 -0.339844,0 -0.339844,0.1992187 0,0.1992188 0.175781,0.1992188 0.339844,0.1992188 z m 0,0"
         style="fill:#b39af0;fill-opacity:1;fill-rule:nonzero;stroke:none" />
      <path
         id="path16"
         d="m 29.185336,0.11617969 c 0.679687,0 1.207031,-0.29296875 1.546875,-0.57421875 l -0.328125,-0.48046875 c -0.269531,0.22265625 -0.679688,0.421875 -1.078125,0.421875 -0.761719,0 -1.136719,-0.48046875 -1.136719,-1.35937499 0,-1.3242188 0.890625,-2.4492188 1.863281,-2.4492188 0.398438,0 0.632813,0.1171875 0.867188,0.3867188 l 0.433594,-0.4335938 c -0.246094,-0.328125 -0.667969,-0.5859375 -1.253907,-0.5859375 -1.40625,0 -2.707031,1.3359375 -2.707031,3.1289063 0,1.24218749 0.738281,1.94531249 1.792969,1.94531249 z m 0,0"
         style="fill:#b39af0;fill-opacity:1;fill-rule:nonzero;stroke:none" />
    </g>
    <path
       id="path17"
       d="M 14.84251,42.5202 V 17.49893"
       style="fill:none;stroke:#b39af0;stroke-width:0.49814;stroke-linecap:butt;stroke-linejoin:miter;stroke-miterlimit:10;stroke-dasharray:2.98883, 0.99628, 0.3985, 0.99628;stroke-dashoffset:0;stroke-opacity:1"
       transform="matrix(1.3333333,0,0,-1.3333333,56.693333,132.28133)" />
    <path
       id="path18"
       d="M 4.5211,0 0.80437,1.40187 2.02943,0 0.80437,-1.40187 Z"
       style="fill:#b39af0;fill-opacity:1;fill-rule:nonzero;stroke:#b39af0;stroke-width:0.49814;stroke-linecap:butt;stroke-linejoin:miter;stroke-miterlimit:10;stroke-dasharray:none;stroke-opacity:1"
       transform="matrix(0,1.3333333,1.3333333,0,76.483347,106.40955)" />
    <path
       id="path19"
       d="m 2.7301094,0.11832031 c 0.5742187,0 1.125,-0.22265625 1.5585937,-0.62109375 L 3.9371406,-1.0301172 c -0.2929687,0.26953126 -0.6914062,0.46875001 -1.1367187,0.46875001 -0.890625,0 -1.4882813,-0.73828121 -1.4882813,-1.85156251 0,-1.1132812 0.6445313,-1.8632812 1.5117188,-1.8632812 0.3984375,0 0.703125,0.1523437 0.9726562,0.3984375 l 0.4101563,-0.515625 c -0.3398438,-0.3164063 -0.7851563,-0.5625 -1.4179688,-0.5625 -1.2421875,0 -2.33203123,0.9257812 -2.33203123,2.5429687 0,1.60546876 0.98437503,2.53125001 2.27343753,2.53125001 z m 0,0"
       style="fill:#b39af0;fill-opacity:1;fill-rule:nonzero;stroke:none"
       aria-label="c"
       transform="matrix(1.3333333,0,0,1.3333333,81.242667,97.713333)" />
  </g>
</svg>
