<?xml version="1.0" encoding="UTF-8" standalone="no"?>
<!-- Created with Inkscape (http://www.inkscape.org/) -->

<svg
   version="1.1"
   id="svg1"
   width="340.16"
   height="264.57333"
   viewBox="0 0 340.16 264.57333"
   sodipodi:docname="MATH_118-112.pdf"
   xmlns:inkscape="http://www.inkscape.org/namespaces/inkscape"
   xmlns:sodipodi="http://sodipodi.sourceforge.net/DTD/sodipodi-0.dtd"
   xmlns="http://www.w3.org/2000/svg"
   xmlns:svg="http://www.w3.org/2000/svg">
  <defs
     id="defs1" />
  <sodipodi:namedview
     id="namedview1"
     pagecolor="#ffffff"
     bordercolor="#000000"
     borderopacity="0.25"
     inkscape:showpageshadow="2"
     inkscape:pageopacity="0.0"
     inkscape:pagecheckerboard="0"
     inkscape:deskcolor="#d1d1d1">
    <inkscape:page
       x="0"
       y="0"
       inkscape:label="1"
       id="page1"
       width="340.16"
       height="264.57333"
       margin="0"
       bleed="0" />
  </sodipodi:namedview>
  <g
     id="g1"
     inkscape:groupmode="layer"
     inkscape:label="1">
    <path
       id="path1"
       d="M -28.3468,0 H 198.17859"
       style="fill:none;stroke:#c9d1d9;stroke-width:0.24907;stroke-linecap:butt;stroke-linejoin:miter;stroke-miterlimit:10;stroke-dasharray:none;stroke-opacity:1"
       transform="matrix(1.3333333,0,0,-1.3333333,56.693333,132.29067)" />
    <path
       id="path2"
       d="M -1.89291,2.12108 C -1.54709,0.84842 -0.77643,0.24745 0,0 -0.77643,-0.24745 -1.54709,-0.84842 -1.89291,-2.12108"
       style="fill:none;stroke:#c9d1d9;stroke-width:0.24907;stroke-linecap:round;stroke-linejoin:round;stroke-miterlimit:10;stroke-dasharray:none;stroke-opacity:1"
       transform="matrix(1.3333333,0,0,-1.3333333,321.09751,132.29067)" />
    <path
       id="path3"
       d="M 0,-85.04042 V 84.79135"
       style="fill:none;stroke:#c9d1d9;stroke-width:0.24907;stroke-linecap:butt;stroke-linejoin:miter;stroke-miterlimit:10;stroke-dasharray:none;stroke-opacity:1"
       transform="matrix(1.3333333,0,0,-1.3333333,56.693333,132.29067)" />
    <path
       id="path4"
       d="M -1.89291,2.12108 C -1.54709,0.84842 -0.77643,0.24745 0,0 -0.77643,-0.24745 -1.54709,-0.84842 -1.89291,-2.12108"
       style="fill:none;stroke:#c9d1d9;stroke-width:0.24907;stroke-linecap:round;stroke-linejoin:round;stroke-miterlimit:10;stroke-dasharray:none;stroke-opacity:1"
       transform="matrix(0,-1.3333333,-1.3333333,0,56.693333,19.069467)" />
    <path
       id="path5"
       d="m 1.4174,-84.88211 0.33783,6.02483 0.3378,5.3293 0.33782,4.03514 0.33781,3.59916 0.33782,3.22975 0.33781,2.91617 0.3378,3.2168 0.33781,2.23015 0.33782,2.10041 0.33781,1.98102 0.33782,1.8703 0.33781,1.76865 0.33782,1.67478 0.33779,1.58828 0.33782,1.50957 0.33783,1.43515 0.3378,1.36855 0.33781,1.30627 0.3378,1.24916 0.33783,1.19684 0.33781,1.14795 0.3378,1.10341 0.33782,1.06231 0.33781,1.0234 0.33782,0.9866 0.33781,0.95547 0.33782,0.92261 0.33781,0.89406 0.3378,0.86767 0.33781,0.84085 0.33783,0.81577 0.3378,0.79631 0.33782,0.77121 0.3378,0.75176 0.33782,0.73315 0.3378,0.71152 0.33782,0.69508 0.33781,0.68558 0.33782,0.66395 0.33781,0.64838 0.3378,0.63408 0.33783,0.62028 0.33781,0.60685 0.3378,0.59517 0.33782,0.58219 0.33781,0.57052 0.33782,0.5597 0.33781,0.54717 0.3378,0.53807 0.33783,0.52855 0.3378,0.51776 0.33781,0.50909 0.33782,0.49959 0.33781,0.49092 0.33782,0.48229 0.33779,0.47666 0.33783,0.46714 0.33782,0.4585 0.3378,0.45112 0.33781,0.44464 0.33782,0.4386 0.33781,0.43298 0.3378,0.42519 0.33781,0.41696 0.33783,0.41307 0.3378,0.40659 0.33782,0.4001 0.3378,0.39751 0.33783,0.3897 0.33781,0.3841 0.3378,0.37889 0.33781,0.37242 0.33782,0.37026 0.33781,0.3668 0.33782,0.35857 0.33781,0.35512 0.33782,0.35165 0.33779,0.34515 0.33782,0.34258 0.33783,0.34384 0.3378,0.33435 0.33781,0.33045 0.3378,0.32701 0.33783,0.3231 0.33781,0.31964 0.3378,0.31575 0.33782,0.3123 0.33781,0.3097 0.33782,0.3058 0.3378,0.30278 0.33783,0.29932 0.33781,0.29585 0.3378,0.29413 0.33781,0.28936 0.33782,0.28765 0.33781,0.28416 0.33782,0.28116 0.3378,0.27942 0.33782,0.27595 0.3378,0.27338 0.33782,0.27033 0.33781,0.26861 0.33782,0.26515 0.33781,0.26297 0.3378,0.26082 0.33783,0.25823 0.33781,0.25692 0.3378,0.25261 0.33782,0.25174 0.33781,0.24871 0.33782,0.2474 0.33781,0.24613 0.3378,0.24136 0.33783,0.2422 0.3378,0.2379 0.33781,0.23748 0.3378,0.23443 0.33783,0.23271 0.33782,0.2314 0.33779,0.22881 0.33784,0.22752 0.3378,0.22449 0.3378,0.22491 0.33782,0.2219 0.33782,0.21885 0.33781,0.2193 0.3378,0.21671 0.33781,0.21498 0.33784,0.21539 0.3378,0.21108 0.3378,0.2115 0.3378,0.20677 0.33784,0.20848 0.33781,0.20503 0.3378,0.20501 0.33783,0.2033 0.3378,0.19941 0.33781,0.20198 0.33781,0.19724 0.33782,0.19724 0.33781,0.19896 0.3378,0.19249 0.33782,0.1942 0.33781,0.18945 0.33782,0.19249 0.33781,0.18642 0.3378,0.18988 0.33783,0.18858 0.3378,0.18384 0.33781,0.18469 0.33782,0.18167 0.33781,0.1834 0.33782,0.18165 0.3378,0.17821 0.33782,0.18038 0.33782,0.17474 0.3378,0.17734 0.33781,0.17302 0.33782,0.17733 0.33781,0.17302 0.33782,0.16912 0.33779,0.17215 0.33783,0.16783 0.3378,0.17604 0.33782,0.16783 0.33781,0.16695 0.33782,0.16609 0.33781,0.16481 0.3378,0.16437 0.33783,0.16262 0.3378,0.16263 0.33781,0.16135 0.33782,0.16046 0.33781,0.15961 0.33782,0.15831 0.33779,0.15745 0.33782,0.157 0.33783,0.15614 0.3378,0.15572 0.33781,0.15355 0.3378,0.15399 0.33783,0.15225 0.33782,0.1527 0.33779,0.15051 0.33783,0.15053 0.3378,0.14879 0.33782,0.14923 0.33781,0.14792 0.33782,0.14663 0.33781,0.1462 0.3378,0.14621 0.33781,0.14445 0.33783,0.14492 0.3378,0.14273 0.33782,0.14274 0.3378,0.14187 0.33783,0.14143 0.33779,0.14102 0.33782,0.13928 0.33783,0.13927 0.3378,0.13885 0.33781,0.13797 0.3378,0.13668 0.33783,0.13626 0.33781,0.13624 0.3378,0.1354 0.33782,0.13452 0.33781,0.13365 0.33782,0.13278 0.33781,0.1328 0.3378,0.13234 0.33783,0.1315 0.3378,0.12976 0.33781,0.13063 0.33783,0.1302 0.3378,0.12845 0.33782,0.12889 0.3378,0.12674 0.33782,0.12804 0.33782,0.12674 0.3378,0.12629 0.33781,0.1263 0.33782,0.12414 0.33781,0.12456 0.3378,0.12328 0.33781,0.12459 0.33783,0.12281 0.3378,0.12156 0.33782,0.12197 0.3378,0.12154 0.33783,0.1207 0.33781,0.11937 0.3378,0.12025 0.33783,0.1198 0.3378,0.1181 0.33781,0.11936 0.33782,0.11636 0.33781,0.11722 0.33782,0.11679 0.33779,0.11677 0.33782,0.11594 0.33783,0.11376 0.3378,0.11677 0.33781,0.11375 0.3378,0.11376 0.33783,0.11462 0.33782,0.1116 0.33779,0.11333 0.33783,0.11159 0.3378,0.11203 0.33782,0.1116 0.33781,0.11029 0.33782,0.11116 0.33781,0.11074 0.3378,0.10856 0.33781,0.10814 0.33782,0.10944 0.33781,0.10812 0.33782,0.10814 0.3378,0.10727 0.33783,0.10683 0.3378,0.10684 0.33781,0.10727 0.33783,0.1051 0.3378,0.10641 0.33781,0.10425 0.3378,0.10466 0.33783,0.10468 0.33782,0.1038 0.3378,0.1034 0.33781,0.10336 0.33781,0.10164 0.33782,0.10469 0.33781,0.10077 0.3378,0.10252 0.33783,0.10077 0.3378,0.1008 0.33782,0.10121 0.33782,0.10077 0.3378,0.09775 0.33782,0.1008 0.3378,0.0986 0.33782,0.09993 0.3378,0.09818 0.33782,0.09689 0.33782,0.09775 0.3378,0.09819 0.33782,0.09906 0.3378,0.09559 0.33781,0.09514 0.33783,0.0969 0.3378,0.09559 0.33782,0.09732 0.33781,0.09516 0.33781,0.09343 0.33782,0.09472 0.3378,0.09386 0.33783,0.09602 0.3378,0.09258 0.33781,0.09169 0.33782,0.09386 0.33781,0.09257 0.33781,0.09386 0.3378,0.08954 0.33782,0.09256 0.33783,0.0917 0.3378,0.09169 0.33781,0.09256 0.3378,0.08737 0.33783,0.09084 0.3378,0.09126 0.33781,0.08911 0.33783,0.09125 0.3378,0.08609 0.33782,0.08997 0.3378,0.08866 0.33783,0.08868 0.33781,0.08997 0.3378,0.08521 0.33781,0.08736 0.33782,0.08868 0.33781,0.0865 0.33782,0.08911 0.3378,0.0826 0.33783,0.08781 0.33779,0.08565 0.33782,0.08737 0.33783,0.08089 0.3378,0.08735 0.33781,0.08523 0.3378,0.08522 0.33783,0.08822 0.33781,0.08391 0.3378,0.08348 0.33782,0.08391 0.33781,0.0835 0.33782,0.08303 0.3378,0.0822 0.33781,0.0839 0.33783,0.08218 0.3378,0.08218 0.33781,0.08134 0.33782,0.08218 0.33781,0.08174 0.33782,0.08131 0.3378,0.08089 0.33782,0.08088 0.3378,0.08045 0.33782,0.08046 0.33781,0.08002 0.33782,0.08001 0.33781,0.08002 0.3378,0.07916 0.33781,0.07915 0.33783,0.07959 0.3378,0.07872 0.33782,0.07785 0.33781,0.0783 0.33782,0.07872 0.33781,0.07786 0.3378,0.07785 0.33783,0.077 0.3378,0.07786 0.33781,0.07743 0.3378,0.07611 0.33783,0.07655 0.33782,0.07701 0.33779,0.07655 0.33782,0.07613 0.33781,0.07527 0.33782,0.07611 0.33781,0.07527 0.33782,0.07526 0.33781,0.07483 0.3378,0.07526 0.33781,0.0744 0.33783,0.07483 0.3378,0.07397 0.33782,0.07439 0.3378,0.07353 0.33783,0.07353 0.33781,0.07353 0.3378,0.07354 0.33781,0.0731 0.33782,0.07309 0.33781,0.07224 0.33782,0.07309 0.3378,0.07182 0.33782,0.07309 0.3378,0.07136 0.33782,0.07181 0.33781,0.07179 0.33782,0.07139 0.33781,0.07136 0.3378,0.07137 0.33783,0.07007 0.3378,0.07093 0.33781,0.07094 0.33782,0.07007 0.33781,0.07094 0.33782,0.07007 0.3378,0.06964 0.33781,0.06964 0.33783,0.06964 0.3378,0.06877 0.33781,0.0692 0.33782,0.06964 0.33781,0.06877 0.33782,0.06877 0.3378,0.06836 0.33782,0.06833 0.3378,0.06877 0.33782,0.06748 0.33781,0.06747 0.33782,0.06834 0.33781,0.06748 0.3378,0.06747 0.33782,0.06662 0.33781,0.06746 0.33781,0.06662 0.33782,0.06618 0.33781,0.06747 0.33782,0.06618 0.3378,0.06575 0.33781,0.06705 0.33783,0.06573 0.3378,0.06575 0.33781,0.06531 0.3378,0.06447 0.33783,0.06616 0.33782,0.06575 0.33779,0.06575 0.33782,0.06444 0.33782,0.06403 0.3378,0.06488 0.33782,0.06445 0.33782,0.06486 0.33781,0.06402 0.3378,0.06317 0.33781,0.06486 0.33784,0.06273 0.3378,0.06445 0.3378,0.06401 0.3378,0.06229 0.33784,0.06316 0.33779,0.0627 0.33782,0.06401 0.33781,0.06185 0.33782,0.06229 0.33781,0.06273 0.3378,0.06227 0.33781,0.06229 0.33783,0.0623 0.3378,0.06142 0.33782,0.06272 0.33781,0.06142 0.33782,0.06099 0.33781,0.06142 0.3378,0.06099 0.33783,0.06227 0.3378,0.06013 0.33781,0.06055 0.33782,0.06056 0.33781,0.06142 0.33782,0.06099 0.3378,0.05925 0.33781,0.06013 0.33783,0.06055 0.3378,0.06012 0.33781,0.06056 0.33782,0.0584 0.33781,0.05967 0.3378,0.06058 0.33781,0.05794 0.33783,0.06099 0.3378,0.05797 0.33782,0.05882 0.3378,0.05925 0.33783,0.05797 0.33781,0.05926 0.3378,0.05882 0.33781,0.05709 0.33782,0.05926 0.33781,0.05797 0.33782,0.05796 0.33781,0.05795 0.33782,0.0571 0.33779,0.05796 0.33782,0.0571 0.33783,0.05753 0.3378,0.05795 0.33781,0.05536 0.3378,0.05926 0.33783,0.05581 0.33782,0.05882 0.33779,0.05449 0.33782,0.05623 0.33781,0.05839 0.33782,0.05538"
       style="fill:none;stroke:#b39af0;stroke-width:0.99628;stroke-linecap:butt;stroke-linejoin:miter;stroke-miterlimit:10;stroke-dasharray:none;stroke-opacity:1"
       transform="matrix(1.3333333,0,0,-1.3333333,56.693333,132.29067)" />
    <g
       id="g5"
       aria-label="(1,0)"
       transform="matrix(1.3333333,0,0,1.3333333,91.678667,154.50933)">
      <path
         id="path6"
         d="m 3.2937344,2.3894844 c 0,-0.035156 0,-0.046875 -0.1640625,-0.2226563 -1.2421875,-1.25390623 -1.5703125,-3.12890623 -1.5703125,-4.6640625 0,-1.7226562 0.3867187,-3.4570312 1.6054687,-4.7109375 0.1289063,-0.1171875 0.1289063,-0.1289062 0.1289063,-0.1640625 0,-0.070312 -0.035156,-0.1054687 -0.09375,-0.1054687 -0.1054688,0 -0.9960938,0.6796875 -1.5820313,1.9453125 -0.515625,1.1015625 -0.63281248,2.203125 -0.63281248,3.0351562 0,0.7851563 0.11718748,1.99218752 0.65624998,3.11718752 0.5976563,1.21874998 1.453125,1.87499998 1.5585938,1.87499998 0.058594,0 0.09375,-0.035156 0.09375,-0.1054687 z m 0,0"
         style="fill:#c9d1d9;fill-opacity:1;fill-rule:nonzero;stroke:none" />
      <path
         id="path7"
         d="M 5.537875,-0.00114063 H 6.3699062 V -6.3527031 H 5.725375 c -0.3515625,0.2109375 -0.7617188,0.3632812 -1.3476563,0.46875 v 0.5390625 H 5.537875 Z m 0,0"
         style="fill:#c9d1d9;fill-opacity:1;fill-rule:nonzero;stroke:none" />
      <path
         id="path8"
         d="m 9.5867031,-0.01285938 c 0,-0.65625 -0.2578125,-1.04296872 -0.6445312,-1.04296872 -0.328125,0 -0.5273438,0.24609372 -0.5273438,0.52734372 0,0.26953125 0.1992188,0.52734375 0.5273438,0.52734375 0.1171875,0 0.2460937,-0.03515625 0.3515625,-0.12890625 0.023437,-0.0234375 0.035156,-0.0351563 0.046875,-0.0351563 0.011719,0 0.023437,0.0117188 0.023437,0.15234375 0,0.73828125 -0.3515625,1.33593743 -0.6796875,1.66406243 -0.1054688,0.1054688 -0.1054688,0.1289063 -0.1054688,0.1640625 0,0.070312 0.046875,0.1054688 0.09375,0.1054688 0.1171875,0 0.9140625,-0.7617188 0.914063,-1.93359368 z m 0,0"
         style="fill:#c9d1d9;fill-opacity:1;fill-rule:nonzero;stroke:none" />
      <path
         id="path9"
         d="m 14.672641,0.11604687 c 1.335937,0 2.132812,-1.21874997 2.132812,-3.31640627 0,-2.0859375 -0.796875,-3.28125 -2.132812,-3.28125 -1.324219,0 -2.132813,1.1835938 -2.132813,3.28125 0,2.0976563 0.808594,3.31640627 2.132813,3.31640627 z m 0,-0.66796875 c -0.785157,0 -1.300782,-0.80859372 -1.300782,-2.64843752 0,-1.8515625 0.515625,-2.6132812 1.300782,-2.6132812 0.785156,0 1.300781,0.7617187 1.300781,2.6132812 0,1.8398438 -0.515625,2.64843752 -1.300781,2.64843752 z m 0,0"
         style="fill:#c9d1d9;fill-opacity:1;fill-rule:nonzero;stroke:none" />
      <path
         id="path10"
         d="m 20.230258,-2.4972344 c 0,-0.7734375 -0.117188,-1.9804687 -0.65625,-3.1054687 -0.597656,-1.21875 -1.464844,-1.875 -1.558594,-1.875 -0.05859,0 -0.105469,0.046875 -0.105469,0.1054687 0,0.035156 0,0.046875 0.199219,0.234375 0.972656,0.984375 1.535156,2.5664063 1.535156,4.640625 0,1.71093752 -0.363281,3.45703127 -1.59375,4.7226563 -0.140625,0.1171875 -0.140625,0.1289062 -0.140625,0.1640625 0,0.058594 0.04687,0.1054687 0.105469,0.1054687 0.09375,0 0.996094,-0.6796875 1.582031,-1.94531248 0.503907,-1.1015625 0.632813,-2.20312502 0.632813,-3.04687502 z m 0,0"
         style="fill:#c9d1d9;fill-opacity:1;fill-rule:nonzero;stroke:none" />
    </g>
    <path
       id="path11"
       d="m 30.28354,0 c 0,1.06963 -0.86711,1.93672 -1.93674,1.93672 -1.06962,0 -1.93674,-0.86709 -1.93674,-1.93672 0,-1.06963 0.86712,-1.93672 1.93674,-1.93672 1.06963,0 1.93674,0.86709 1.93674,1.93672 z"
       style="fill:#c9d1d9;fill-opacity:1;fill-rule:nonzero;stroke:#c9d1d9;stroke-width:0.3985;stroke-linecap:butt;stroke-linejoin:miter;stroke-miterlimit:10;stroke-dasharray:none;stroke-opacity:1"
       transform="matrix(1.3333333,0,0,-1.3333333,56.693333,132.29067)" />
  </g>
</svg>
