<?xml version="1.0" encoding="UTF-8" standalone="no"?>
<!-- Created with Inkscape (http://www.inkscape.org/) -->

<svg
   version="1.1"
   id="svg1"
   width="188.97333"
   height="188.97333"
   viewBox="0 0 188.97333 188.97333"
   sodipodi:docname="MATH_118-96.pdf"
   xmlns:inkscape="http://www.inkscape.org/namespaces/inkscape"
   xmlns:sodipodi="http://sodipodi.sourceforge.net/DTD/sodipodi-0.dtd"
   xmlns="http://www.w3.org/2000/svg"
   xmlns:svg="http://www.w3.org/2000/svg">
  <defs
     id="defs1" />
  <sodipodi:namedview
     id="namedview1"
     pagecolor="#ffffff"
     bordercolor="#000000"
     borderopacity="0.25"
     inkscape:showpageshadow="2"
     inkscape:pageopacity="0.0"
     inkscape:pagecheckerboard="0"
     inkscape:deskcolor="#d1d1d1">
    <inkscape:page
       x="0"
       y="0"
       inkscape:label="1"
       id="page1"
       width="188.97333"
       height="188.97333"
       margin="0"
       bleed="0" />
  </sodipodi:namedview>
  <g
     id="g1"
     inkscape:groupmode="layer"
     inkscape:label="1">
    <path
       id="path1"
       d="M -28.3468,0 H 84.79135"
       style="fill:none;stroke:#c9d1d9;stroke-width:0.24907;stroke-linecap:butt;stroke-linejoin:miter;stroke-miterlimit:10;stroke-dasharray:none;stroke-opacity:1"
       transform="matrix(1.3333333,0,0,-1.3333333,56.693333,94.485333)" />
    <path
       id="path2"
       d="M -1.89291,2.12108 C -1.54709,0.84842 -0.77643,0.24745 0,0 -0.77643,-0.24745 -1.54709,-0.84842 -1.89291,-2.12108"
       style="fill:none;stroke:#c9d1d9;stroke-width:0.24907;stroke-linecap:round;stroke-linejoin:round;stroke-miterlimit:10;stroke-dasharray:none;stroke-opacity:1"
       transform="matrix(1.3333333,0,0,-1.3333333,169.91453,94.485333)" />
    <path
       id="path3"
       d="M 0,-56.69362 V 56.44455"
       style="fill:none;stroke:#c9d1d9;stroke-width:0.24907;stroke-linecap:butt;stroke-linejoin:miter;stroke-miterlimit:10;stroke-dasharray:none;stroke-opacity:1"
       transform="matrix(1.3333333,0,0,-1.3333333,56.693333,94.485333)" />
    <path
       id="path4"
       d="M -1.89291,2.12108 C -1.54709,0.84842 -0.77643,0.24745 0,0 -0.77643,-0.24745 -1.54709,-0.84842 -1.89291,-2.12108"
       style="fill:none;stroke:#c9d1d9;stroke-width:0.24907;stroke-linecap:round;stroke-linejoin:round;stroke-miterlimit:10;stroke-dasharray:none;stroke-opacity:1"
       transform="matrix(0,-1.3333333,-1.3333333,0,56.693333,19.059893)" />
    <path
       id="path5"
       d="m 14.17339,-28.3468 0.11334,0.5623 0.11331,0.55367 0.11333,0.54411 0.11331,0.53592 0.11332,0.52684 0.11335,0.5186 0.11331,0.50996 0.11333,0.50131 0.11332,0.49396 0.11333,0.48533 0.11333,0.47707 0.11331,0.46975 0.11332,0.46108 0.11335,0.45417 0.11331,0.44593 0.11333,0.4386 0.11332,0.43168 0.11333,0.42387 0.11333,0.41653 0.11331,0.41007 0.11332,0.40225 0.11335,0.39577 0.11331,0.38756 0.11333,0.38237 0.11331,0.37544 0.11334,0.36809 0.11333,0.36245 0.11331,0.35512 0.11333,0.34992 0.11334,0.34257 0.11331,0.33696 0.11333,0.33046 0.11331,0.32526 0.11334,0.31878 0.11333,0.31231 0.11331,0.30751 0.11333,0.30149 0.11334,0.29586 0.11331,0.29022 0.11333,0.28548 0.11331,0.27943 0.11334,0.27379 0.11333,0.26947 0.11331,0.26385 0.11333,0.25823 0.11333,0.25391 0.11332,0.24913 0.11333,0.24395 0.11331,0.23962 0.11335,0.23444 0.11332,0.22968 0.11331,0.22534 0.11333,0.22104 0.11333,0.21626 0.11333,0.21194 0.11332,0.20806 0.11331,0.20287 0.11333,0.19982 0.11334,0.19507 0.11332,0.19118 0.11332,0.18729 0.11331,0.18339 0.11335,0.17909 0.11333,0.17562 0.1133,0.17213 0.11333,0.16782 0.11333,0.16481 0.11333,0.16133 0.11332,0.15745 0.11331,0.15398 0.11335,0.15051 0.11333,0.14751 0.1133,0.14404 0.11333,0.14099 0.11333,0.13801 0.11333,0.1345 0.11332,0.13149 0.11332,0.12846 0.11334,0.12587 0.11333,0.12241 0.1133,0.12025 0.11333,0.11678 0.11333,0.11462 0.11333,0.11118 0.11333,0.10899 0.11331,0.1064 0.11334,0.10382 0.11331,0.10121 0.11333,0.09906 0.11332,0.09601 0.11333,0.0943 0.11333,0.09169 0.11333,0.08911 0.11331,0.08693 0.11334,0.0852 0.11331,0.08263 0.11333,0.08046 0.11333,0.07915 0.11332,0.07612 0.11333,0.07483 0.11331,0.07222 0.11333,0.07096 0.11334,0.06833 0.11331,0.06704 0.11333,0.06533 0.11333,0.06314 0.11332,0.06184 0.11333,0.0597 0.11331,0.05839 0.11333,0.05667 0.11334,0.05493 0.11331,0.05364 0.11333,0.05189 0.11333,0.05061 0.11331,0.04887 0.11334,0.04758 0.11331,0.04586 0.11333,0.04498 0.11333,0.04326 0.11332,0.04239 0.11333,0.04066 0.11331,0.03978 0.11333,0.03852 0.11335,0.03718 0.1133,0.0359 0.11333,0.03504 0.11333,0.03374 0.11333,0.03286 0.11332,0.03157 0.11331,0.03074 0.11333,0.0294 0.11335,0.02899 0.1133,0.02768 0.11333,0.02681 0.11333,0.02596 0.11333,0.02508 0.11332,0.02379 0.11332,0.02336 0.11332,0.02249 0.11335,0.02162 0.1133,0.0212 0.11333,0.0199 0.11332,0.01945 0.11334,0.01861 0.11332,0.01816 0.11332,0.01731 0.11332,0.01686 0.11335,0.016 0.1133,0.01557 0.11333,0.01472 0.11332,0.01427 0.11334,0.01384 0.11333,0.01299 0.11331,0.01254 0.11332,0.01211 0.11335,0.01168 0.11331,0.01124 0.11333,0.01038 0.11331,0.01037 0.11334,0.00953 0.11333,0.0095 0.11331,0.0091 0.11333,0.00821 0.11332,0.00822 0.11333,0.00778 0.11333,0.00778 0.11331,0.00694 0.11333,0.00692 0.11334,0.00604 0.11331,0.00606 0.11333,0.00606 0.11331,0.00562 0.11334,0.0052 0.11333,0.00476 0.11331,0.00474 0.11333,0.00476 0.11334,0.00434 0.11331,0.00389 0.11333,0.00389 0.11331,0.00345 0.11334,0.00347 0.11333,0.00303 0.11331,0.00302 0.11333,0.00302 0.11332,0.00261 0.11333,0.00259 0.11333,0.0026 0.11331,0.00216 0.11334,0.00215 0.11333,0.00174 0.11331,0.00174 0.11333,0.00173 0.11332,0.00172 0.11333,0.0013 0.11333,0.00174 0.11331,0.0013 0.11334,8.5e-4 0.11333,0.0013 0.11331,8.7e-4 0.11333,8.7e-4 0.11332,8.6e-4 0.11333,8.6e-4 0.11333,8.7e-4 0.11331,8.7e-4 0.11334,4.3e-4 0.11332,4.4e-4 0.11332,8.4e-4 0.11333,4.4e-4 0.11332,4.3e-4 0.11333,4.4e-4 h 0.11333 l 0.11331,4.3e-4 0.11334,4.4e-4 h 0.11332 l 0.11332,4.3e-4 h 0.11333 l 0.11333,4.4e-4 h 0.11332 l 0.11333,4.3e-4 h 0.11331 0.11333 0.11333 L 39.44485,0 h 0.11333 0.11332 0.11334 0.11331 0.11332 0.11333 0.11333 0.11333 0.11332 0.11332 0.11334 0.11331 0.11333 0.11332 0.11333 0.11333 0.11332 0.11332 0.11334 0.11331 0.11333 0.11332 0.11333 0.11333 0.11331 0.11333 0.11334 0.11331 0.11333 0.11332 0.11333 0.11333 0.11331 0.11333 0.11334 0.11331 0.11333 0.11332 0.11333 0.11333 0.11331 0.11333 0.11334 0.11331 0.11333 0.11331 0.11334 0.11333 0.11331 0.11333 0.11333 0.11332 0.11333 0.11331 l 0.11333,4.1e-4 h 0.11334 0.11331 0.11333 l 0.11333,4.3e-4 h 0.11332 0.11333 l 0.11332,4.4e-4 h 0.11332 l 0.11334,4.3e-4 0.11331,4.4e-4 h 0.11333 l 0.11331,4.3e-4 0.11335,4.4e-4 0.11332,4.3e-4 0.11332,4.4e-4 0.11332,4.1e-4 0.11334,8.7e-4 0.11332,4.3e-4 0.11332,4.4e-4 0.11331,8.7e-4 0.11335,8.7e-4 0.11332,8.6e-4 0.11332,8.5e-4 0.11332,0.00131 0.11333,8.7e-4 0.11333,0.00128 0.11332,0.0013 0.11331,0.00131 0.11335,0.00129 0.11332,0.00174 0.11332,0.00173 0.11332,0.00173 0.11333,0.00172 0.11333,0.00217 0.11332,0.00216 0.11332,0.00216 0.11334,0.00259 0.11333,0.00261 0.11331,0.00302 0.11332,0.00302 0.11333,0.00304 0.11333,0.00346 0.11332,0.00345 0.11332,0.00389 0.11334,0.00391 0.11331,0.00432 0.11333,0.00433 0.11332,0.00476 0.11333,0.00476 0.11333,0.00518 0.11332,0.00518 0.11332,0.00608 0.11332,0.00604 0.11333,0.00606 0.11333,0.00692 0.11333,0.00692 0.11331,0.00735 0.11334,0.00778 0.11332,0.0078 0.11332,0.00864 0.11333,0.00865 0.11332,0.00909 0.11333,0.00995 0.11333,0.00994 0.11331,0.01039 0.11334,0.01124 0.11332,0.01125 0.11332,0.0121 0.11333,0.01256 0.11332,0.01296 0.11333,0.01342 0.11333,0.01427 0.11331,0.01472 0.11334,0.01512 0.11332,0.01601 0.11332,0.01643 0.11333,0.01731 0.11332,0.01772 0.11333,0.0186 0.11333,0.01903 0.11331,0.02034 0.11334,0.02033 0.11332,0.02164 0.11332,0.02204 0.11333,0.02337 0.11333,0.02378 0.11332,0.02467 0.11331,0.02552 0.11333,0.02681 0.11334,0.02724 0.11332,0.02855 0.11332,0.02942 0.11333,0.03027 0.11333,0.03159 0.11332,0.03242 0.11332,0.03375 0.11332,0.03459 0.11334,0.03548 0.11332,0.03677 0.11332,0.03804 0.11333,0.03981 0.11333,0.04023 0.11332,0.04194 0.11332,0.04283 0.11332,0.04456 0.11333,0.04585 0.11333,0.04713 0.11332,0.04845 0.11332,0.05017 0.11332,0.05149 0.11334,0.05321 0.11332,0.05448 0.11332,0.05623 0.11333,0.05753 0.11333,0.05926 0.11333,0.06142 0.11331,0.06271 0.11332,0.06488 0.11334,0.06618 0.11332,0.06836 0.11333,0.07005 0.11332,0.07224 0.11333,0.07397 0.11333,0.07569 0.11331,0.07829 0.11333,0.08002 0.11333,0.08218 0.11332,0.08434 0.11333,0.08651 0.11331,0.08867 0.11334,0.09127 0.11333,0.09343 0.11331,0.09515 0.11333,0.09819 0.11334,0.10078 0.11331,0.10338 0.11333,0.10553 0.11331,0.10816 0.11334,0.11071 0.11333,0.11377 0.11331,0.11591 0.11333,0.11894 0.11334,0.12241 0.11331,0.12501 0.11333,0.12715 0.11331,0.13108 0.11334,0.13408 0.11333,0.13668 0.11331,0.13971 0.11333,0.14362 0.11333,0.14662 0.11332,0.14966 0.11333,0.15312 0.11331,0.15657 0.11334,0.16004 0.11333,0.16351 0.11331,0.16695 0.11333,0.17129 0.11331,0.1743 0.11334,0.17865 0.11333,0.18166 0.11331,0.18643 0.11333,0.18988 0.11334,0.19464 0.11331,0.19768 0.11333,0.20285 0.11331,0.20633 0.11334,0.21063 0.11333,0.21541 0.11331,0.21974 0.11333,0.22362 0.11333,0.2288 0.11332,0.23359 0.11333,0.23745 0.11331,0.24266 0.11334,0.24783 0.11333,0.2526 0.11331,0.25737 0.11333,0.26212 0.11333,0.26774 0.11332,0.27294 0.11333,0.27769 0.11331,0.28374 0.11335,0.28894 0.11332,0.29454 0.11331,0.29976 0.11333,0.3058 0.11333,0.311 0.11333,0.31705 0.11332,0.32353 0.11331,0.32872 0.11335,0.33566 0.11331,0.34084 0.11333,0.34776 0.11333,0.35425 0.11332,0.35988 0.11333,0.36679 0.11332,0.3737 0.11332,0.37978 0.11334,0.38669 0.11331,0.3936 0.11333,0.40054 0.11333,0.40744 0.11332,0.41481 0.11333,0.42174 0.11332,0.42949 0.11332,0.43643 0.11334,0.44423 0.11331,0.45157 0.11333,0.45935 0.11333,0.46758 0.11332,0.47493 0.11333,0.48356 0.11331,0.49094 0.11333,0.49959 0.11332,0.50735 0.11333,0.51646 0.11333,0.52466 0.11333,0.53333 0.1133,0.54153 0.11335,0.55019 0.11331,0.56058"
       style="fill:none;stroke:#b39af0;stroke-width:0.99628;stroke-linecap:butt;stroke-linejoin:miter;stroke-miterlimit:10;stroke-dasharray:none;stroke-opacity:1"
       transform="matrix(1.3333333,0,0,-1.3333333,56.693333,94.485333)" />
    <path
       id="path6"
       d="m 42.52022,1.99255 v -3.9851"
       style="fill:none;stroke:#c9d1d9;stroke-width:0.3985;stroke-linecap:butt;stroke-linejoin:miter;stroke-miterlimit:10;stroke-dasharray:none;stroke-opacity:1"
       transform="matrix(1.3333333,0,0,-1.3333333,56.693333,94.485333)" />
    <path
       id="path7"
       d="m 2.5795313,0.14174219 c 0.8320312,0 1.4648437,-0.3515625 1.8632812,-0.69140625 L 4.0560938,-1.1238828 c -0.328125,0.26953124 -0.8203125,0.50390624 -1.2890625,0.50390624 -0.9257813,0 -1.3828125,-0.57421874 -1.3828125,-1.62890624 0,-1.5820313 1.078125,-2.9414063 2.2382812,-2.9414063 0.4804688,0 0.7617188,0.1523438 1.0429688,0.46875 l 0.5273437,-0.5273437 c -0.3046875,-0.3867188 -0.8085937,-0.703125 -1.5117187,-0.703125 -1.6875,0 -3.23437505,1.6054687 -3.23437505,3.7617187 0,1.48828129 0.86718755,2.33203129 2.13281255,2.33203129 z m 0,0"
       style="fill:#c9d1d9;fill-opacity:1;fill-rule:nonzero;stroke:none"
       aria-label="c"
       transform="matrix(1.3333333,0,0,1.3333333,109.92,110.65867)" />
  </g>
</svg>
