<?xml version="1.0" encoding="UTF-8" standalone="no"?>
<!-- Created with Inkscape (http://www.inkscape.org/) -->

<svg
   version="1.1"
   id="svg1"
   width="340.16"
   height="340.16"
   viewBox="0 0 340.16 340.16"
   sodipodi:docname="MATH_118-60.pdf"
   xmlns:inkscape="http://www.inkscape.org/namespaces/inkscape"
   xmlns:sodipodi="http://sodipodi.sourceforge.net/DTD/sodipodi-0.dtd"
   xmlns="http://www.w3.org/2000/svg"
   xmlns:svg="http://www.w3.org/2000/svg">
  <defs
     id="defs1" />
  <sodipodi:namedview
     id="namedview1"
     pagecolor="#ffffff"
     bordercolor="#000000"
     borderopacity="0.25"
     inkscape:showpageshadow="2"
     inkscape:pageopacity="0.0"
     inkscape:pagecheckerboard="0"
     inkscape:deskcolor="#d1d1d1">
    <inkscape:page
       x="0"
       y="0"
       inkscape:label="1"
       id="page1"
       width="340.16"
       height="340.16"
       margin="0"
       bleed="0" />
  </sodipodi:namedview>
  <g
     id="g1"
     inkscape:groupmode="layer"
     inkscape:label="1">
    <path
       id="path1"
       d="M -113.38724,0 H 112.8891"
       style="fill:none;stroke:#c9d1d9;stroke-width:0.49814;stroke-linecap:butt;stroke-linejoin:miter;stroke-miterlimit:10;stroke-dasharray:none;stroke-opacity:1"
       transform="matrix(1.3333333,0,0,-1.3333333,170.07867,170.08133)" />
    <path
       id="path2"
       d="M -2.1918,2.57101 C -1.79137,1.02838 -0.89903,0.29994 0,0 -0.89903,-0.29994 -1.79137,-1.02838 -2.1918,-2.57101"
       style="fill:none;stroke:#c9d1d9;stroke-width:0.49814;stroke-linecap:round;stroke-linejoin:round;stroke-miterlimit:10;stroke-dasharray:none;stroke-opacity:1"
       transform="matrix(1.3333333,0,0,-1.3333333,320.92956,170.08133)" />
    <path
       id="path3"
       d="M 0,-113.38724 V 112.8891"
       style="fill:none;stroke:#c9d1d9;stroke-width:0.49814;stroke-linecap:butt;stroke-linejoin:miter;stroke-miterlimit:10;stroke-dasharray:none;stroke-opacity:1"
       transform="matrix(1.3333333,0,0,-1.3333333,170.07867,170.08133)" />
    <path
       id="path4"
       d="M -2.1918,2.57101 C -1.79137,1.02838 -0.89903,0.29994 0,0 -0.89903,-0.29994 -1.79137,-1.02838 -2.1918,-2.57101"
       style="fill:none;stroke:#c9d1d9;stroke-width:0.49814;stroke-linecap:round;stroke-linejoin:round;stroke-miterlimit:10;stroke-dasharray:none;stroke-opacity:1"
       transform="matrix(0,-1.3333333,-1.3333333,0,170.07867,19.23044)" />
    <path
       id="path5"
       d="m 0,0 c 0,0 3.41324,3.41324 4.72415,4.72415 1.31093,1.31093 3.41325,3.41325 4.72418,4.72418 1.31095,1.31095 3.41326,3.41326 4.72419,4.72419 1.31094,1.31094 3.41325,3.41325 4.72418,4.72418 1.31094,1.31094 3.41325,3.41325 4.72418,4.72418 1.31094,1.31094 3.41325,3.41325 4.72418,4.72418 1.31094,1.31094 3.41327,3.41327 4.72418,4.72418 1.31093,1.31093 3.41326,3.41326 4.72417,4.72417 1.31093,1.31093 3.41324,3.41324 4.72419,4.72419 1.31094,1.31094 3.41323,3.41323 4.72418,4.72418 1.31094,1.31094 3.41323,3.41323 4.72418,4.72418 1.31094,1.31094 3.41324,3.41324 4.72418,4.72418 1.31094,1.31094 3.41324,3.41324 4.72418,4.72418 1.31095,1.31095 3.41326,3.41326 4.72418,4.72418 1.31093,1.31093 3.41324,3.41324 4.72417,4.72417 1.31093,1.31093 3.41324,3.41324 4.72418,4.72418 1.31095,1.31095 3.41324,3.41324 4.72419,4.72419 1.31094,1.31094 3.41323,3.41323 4.72418,4.72418 1.31094,1.31094 3.41324,3.41324 4.72418,4.72418 1.31094,1.31094 3.41324,3.41324 4.72418,4.72418 1.31095,1.31095 3.41324,3.41324 4.72418,4.72418 1.31094,1.31094 3.41326,3.41326 4.72419,4.72419 1.31092,1.31092 3.41323,3.41323 4.72416,4.72416 1.31093,1.31093 4.72419,4.72419 4.01972,4.01972"
       style="fill:none;stroke:#b39af0;stroke-width:0.99628;stroke-linecap:butt;stroke-linejoin:miter;stroke-miterlimit:10;stroke-dasharray:none;stroke-opacity:1"
       transform="matrix(1.3333333,0,0,-1.3333333,170.07867,170.08133)" />
    <path
       id="path6"
       d="M -2.78957,3.47087 C -2.27992,1.38832 -1.14423,0.40492 0,0 -1.14423,-0.40492 -2.27992,-1.38832 -2.78957,-3.47087"
       style="fill:none;stroke:#b39af0;stroke-width:0.99628;stroke-linecap:round;stroke-linejoin:round;stroke-miterlimit:10;stroke-dasharray:none;stroke-opacity:1"
       transform="matrix(0.9428,-0.9428,-0.9428,-0.9428,320.78277,19.377227)" />
    <path
       id="path7"
       d="m -112.68275,112.68275 c 2.70875,-2.70875 2.70875,-2.70875 4.01969,-4.01969 1.31095,-1.31095 3.41324,-3.41324 4.72419,-4.72419 1.31094,-1.31094 3.41324,-3.41324 4.72418,-4.72418 1.31094,-1.31094 3.41324,-3.41324 4.72418,-4.72418 1.31094,-1.31094 3.41324,-3.41324 4.72418,-4.72418 1.31095,-1.31095 3.41324,-3.41324 4.72419,-4.72419 1.31094,-1.31094 3.41325,-3.41325 4.72418,-4.72418 1.31093,-1.31093 3.41324,-3.41324 4.72416,-4.72416 1.31093,-1.31093 3.41324,-3.41324 4.72419,-4.72419 1.31094,-1.31094 3.41323,-3.41323 4.72418,-4.72418 1.31094,-1.31094 3.41323,-3.41323 4.72418,-4.72418 1.31095,-1.31095 3.41324,-3.41324 4.72418,-4.72418 1.31095,-1.31095 3.41324,-3.41324 4.72418,-4.72418 1.31095,-1.31095 3.41326,-3.41326 4.72419,-4.72419 1.31093,-1.31093 3.41324,-3.41324 4.72416,-4.72416 1.31093,-1.31093 3.41324,-3.41324 4.72419,-4.72419 1.31094,-1.31094 3.41323,-3.41323 4.72418,-4.72418 1.31094,-1.31094 3.41324,-3.41324 4.72418,-4.72418 1.31094,-1.31094 3.41324,-3.41324 4.72419,-4.72419 1.31094,-1.31094 3.41323,-3.41323 4.72417,-4.72417 1.31095,-1.31095 3.41324,-3.41324 4.72419,-4.72419 1.31094,-1.31094 3.41325,-3.41325 4.72418,-4.72418 1.31093,-1.31093 3.41324,-3.41324 4.72416,-4.72416 1.31093,-1.31093 4.72419,-4.72419 4.72419,-4.72419"
       style="fill:none;stroke:#b39af0;stroke-width:0.99628;stroke-linecap:butt;stroke-linejoin:miter;stroke-miterlimit:10;stroke-dasharray:none;stroke-opacity:1"
       transform="matrix(1.3333333,0,0,-1.3333333,170.07867,170.08133)" />
    <path
       id="path8"
       d="M -2.78957,3.47087 C -2.27992,1.38832 -1.14423,0.40492 0,0 -1.14423,-0.40492 -2.27992,-1.38832 -2.78957,-3.47087"
       style="fill:none;stroke:#b39af0;stroke-width:0.99628;stroke-linecap:round;stroke-linejoin:round;stroke-miterlimit:10;stroke-dasharray:none;stroke-opacity:1"
       transform="matrix(-0.9428,-0.9428,-0.9428,0.9428,19.365333,19.368)" />
  </g>
</svg>
