<?xml version="1.0" encoding="UTF-8" standalone="no"?>
<!-- Created with Inkscape (http://www.inkscape.org/) -->

<svg
   version="1.1"
   id="svg1"
   width="188.97333"
   height="188.97333"
   viewBox="0 0 188.97333 188.97333"
   sodipodi:docname="MATH_118-70.pdf"
   xmlns:inkscape="http://www.inkscape.org/namespaces/inkscape"
   xmlns:sodipodi="http://sodipodi.sourceforge.net/DTD/sodipodi-0.dtd"
   xmlns="http://www.w3.org/2000/svg"
   xmlns:svg="http://www.w3.org/2000/svg">
  <defs
     id="defs1" />
  <sodipodi:namedview
     id="namedview1"
     pagecolor="#ffffff"
     bordercolor="#000000"
     borderopacity="0.25"
     inkscape:showpageshadow="2"
     inkscape:pageopacity="0.0"
     inkscape:pagecheckerboard="0"
     inkscape:deskcolor="#d1d1d1">
    <inkscape:page
       x="0"
       y="0"
       inkscape:label="1"
       id="page1"
       width="188.97333"
       height="188.97333"
       margin="0"
       bleed="0" />
  </sodipodi:namedview>
  <g
     id="g1"
     inkscape:groupmode="layer"
     inkscape:label="1">
    <path
       id="path1"
       d="M -56.69362,0 H 56.44455"
       style="fill:none;stroke:#c9d1d9;stroke-width:0.24907;stroke-linecap:butt;stroke-linejoin:miter;stroke-miterlimit:10;stroke-dasharray:none;stroke-opacity:1"
       transform="matrix(1.3333333,0,0,-1.3333333,94.488,94.485333)" />
    <path
       id="path2"
       d="M -1.89291,2.12108 C -1.54709,0.84842 -0.77643,0.24745 0,0 -0.77643,-0.24745 -1.54709,-0.84842 -1.89291,-2.12108"
       style="fill:none;stroke:#c9d1d9;stroke-width:0.24907;stroke-linecap:round;stroke-linejoin:round;stroke-miterlimit:10;stroke-dasharray:none;stroke-opacity:1"
       transform="matrix(1.3333333,0,0,-1.3333333,169.91344,94.485333)" />
    <path
       id="path3"
       d="M 0,-56.69362 V 56.44455"
       style="fill:none;stroke:#c9d1d9;stroke-width:0.24907;stroke-linecap:butt;stroke-linejoin:miter;stroke-miterlimit:10;stroke-dasharray:none;stroke-opacity:1"
       transform="matrix(1.3333333,0,0,-1.3333333,94.488,94.485333)" />
    <path
       id="path4"
       d="M -1.89291,2.12108 C -1.54709,0.84842 -0.77643,0.24745 0,0 -0.77643,-0.24745 -1.54709,-0.84842 -1.89291,-2.12108"
       style="fill:none;stroke:#c9d1d9;stroke-width:0.24907;stroke-linecap:round;stroke-linejoin:round;stroke-miterlimit:10;stroke-dasharray:none;stroke-opacity:1"
       transform="matrix(0,-1.3333333,-1.3333333,0,94.488,19.059893)" />
    <path
       id="path5"
       d="m 4.25183,-53.46558 0.09906,0.6142 0.09905,0.60384 0.09904,0.59387 0.09906,0.58349 0.09905,0.57355 0.09906,0.56403 0.09904,0.55494 0.09905,0.54543 0.09906,0.53679 0.09906,0.52768 0.09902,0.51948 0.09906,0.51127 0.09906,0.50261 0.09905,0.49482 0.09905,0.48746 0.09905,0.4797 0.09905,0.47232 0.09906,0.46499 0.09904,0.45849 0.09906,0.45113 0.09905,0.44466 0.09904,0.43815 0.09906,0.43168 0.09905,0.4256 0.09906,0.41915 0.09904,0.4135 0.09905,0.40745 0.09906,0.40225 0.09906,0.39621 0.09903,0.39145 0.09906,0.38584 0.09906,0.38104 0.09904,0.37544 0.09905,0.37113 0.09906,0.36594 0.09904,0.36115 0.09906,0.35771 0.09905,0.35251 0.09904,0.34777 0.09906,0.34387 0.09906,0.33998 0.09903,0.33609 0.09906,0.33218 0.09906,0.32743 0.09905,0.32441 0.09904,0.3205 0.09906,0.31662 0.09906,0.31403 0.09903,0.31013 0.09906,0.30624 0.09906,0.3032 0.09905,0.30018 0.09904,0.29715 0.09906,0.2937 0.09905,0.29154 0.09905,0.28718 0.09905,0.28548 0.09905,0.28201 0.09906,0.27944 0.09906,0.27551 0.09903,0.2751 0.09905,0.27121 0.09907,0.2686 0.09904,0.26602 0.09905,0.26384 0.09906,0.26256 0.09904,0.25822 0.09906,0.25821 0.09904,0.25261 0.09905,0.25219 0.09906,0.25085 0.09906,0.24786 0.09903,0.24654 0.09906,0.24266 0.09906,0.24048 0.09906,0.2392 0.09903,0.23832 0.09906,0.23358 0.09906,0.23529 0.09903,0.22968 0.09906,0.23141 0.09906,0.22666 0.09904,0.22577 0.09905,0.22493 0.09906,0.2206 0.09904,0.22276 0.09907,0.21841 0.09904,0.21498 0.09904,0.21756 0.09906,0.21369 0.09906,0.20935 0.09903,0.21452 0.09907,0.20633 0.09905,0.21065 0.09905,0.20545 0.09904,0.20243 0.09906,0.20633 0.09905,0.19939 0.09905,0.20286 0.09905,0.19853 0.09905,0.20113 0.09906,0.19593 0.09906,0.19466 0.09904,0.19378 0.09904,0.19247 0.09907,0.19075 0.09904,0.18945 0.09905,0.1886 0.09906,0.18729 0.09906,0.18597 0.09902,0.18471 0.09907,0.1834 0.09906,0.18167 0.09904,0.18208 0.09905,0.1795 0.09906,0.17951 0.09904,0.17776 0.09906,0.17649 0.09905,0.17561 0.09904,0.17474 0.09906,0.17345 0.09906,0.17215 0.09903,0.17172 0.09906,0.16998 0.09906,0.16958 0.09904,0.16824 0.09905,0.16782 0.09906,0.1661 0.09904,0.16522 0.09907,0.16481 0.09904,0.16306 0.09906,0.1622 0.09904,0.16177 0.09905,0.16134 0.09906,0.16005 0.09905,0.15787 0.09905,0.1583 0.09905,0.15702 0.09904,0.15615 0.09906,0.15528 0.09906,0.15529 0.09904,0.1531 0.09905,0.1527 0.09906,0.15268 0.09905,0.15051 0.09904,0.15054 0.09906,0.15009 0.09904,0.14877 0.09907,0.14751 0.09904,0.14749 0.09905,0.14664 0.09906,0.14533 0.09906,0.1449 0.09902,0.1449 0.09907,0.14275 0.09906,0.14315 0.09904,0.14275 0.09905,0.14057 0.09906,0.14058 0.09904,0.141 0.09906,0.13884 0.09905,0.13841 0.09906,0.13842 0.09904,0.13798 0.09905,0.13497 0.09906,0.1371 0.09904,0.13538 0.09906,0.13322 0.09905,0.13452 0.09904,0.13452 0.09906,0.13106 0.09906,0.13279 0.09903,0.13234 0.09906,0.13063 0.09906,0.13021 0.09904,0.12976 0.09905,0.13063 0.09906,0.12674 0.09905,0.12845 0.09905,0.12761 0.09905,0.12542 0.09904,0.12717 0.09906,0.12587 0.09906,0.12414 0.09904,0.125 0.09905,0.12502 0.09906,0.12412 0.09905,0.12198 0.09904,0.12284 0.09906,0.12241 0.09906,0.12068 0.09903,0.12198 0.09906,0.12067 0.09906,0.11764 0.09905,0.12112 0.09904,0.12024 0.09906,0.11809 0.09905,0.11548 0.09906,0.11896 0.09904,0.11764 0.09905,0.1142 0.09906,0.11722 0.09906,0.11505 0.09903,0.11418 0.09906,0.11507 0.09906,0.11592 0.09904,0.11116 0.09905,0.11333 0.09906,0.11332 0.09904,0.11331 0.09906,0.10987 0.09905,0.11203 0.09904,0.11289 0.09906,0.10902 0.09906,0.10942 0.09903,0.1103 0.09906,0.10768 0.09906,0.11031 0.09905,0.10814 0.09904,0.1064 0.09906,0.10771 0.09906,0.10857 0.09903,0.10899 0.09906,0.10208 0.09906,0.10727 0.09904,0.10684 0.09905,0.10337 0.09906,0.10556 0.09905,0.10466 0.09906,0.10295 0.09904,0.10295 0.09904,0.10553 0.09906,0.10078 0.09906,0.10207 0.09903,0.10426 0.09906,0.10336 0.09906,0.09775 0.09905,0.10164 0.09904,0.10295 0.09906,0.09732 0.09905,0.1008 0.09906,0.1012 0.09904,0.09776 0.09905,0.10335 0.09906,0.0986 0.09906,0.09862 0.09904,0.09776 0.09905,0.09775 0.09906,0.09691 0.09904,0.09687 0.09905,0.09646 0.09906,0.09646 0.09906,0.09601 0.09903,0.09517 0.09906,0.09517 0.09906,0.09514 0.09905,0.09517 0.09904,0.09385 0.09906,0.0943 0.09904,0.09343 0.09906,0.09386 0.09905,0.09298 0.09904,0.09258 0.09906,0.09299 0.09906,0.09169 0.09903,0.09214 0.09906,0.09126 0.09906,0.0917 0.09904,0.09084 0.09905,0.0904 0.09906,0.09082 0.09905,0.09084 0.09906,0.0891 0.09904,0.08998 0.09904,0.08952 0.09907,0.08911 0.09904,0.08867 0.09906,0.08824 0.09905,0.08824 0.09906,0.08738 0.09904,0.08824 0.09905,0.08693 0.09906,0.08737 0.09906,0.08694 0.09902,0.08651 0.09906,0.08607 0.09906,0.08607 0.09905,0.08565 0.09904,0.08608 0.09906,0.0852 0.09905,0.08521 0.09906,0.08349 0.09904,0.08521 0.09905,0.08392 0.09906,0.08521 0.09906,0.08304 0.09903,0.08392 0.09906,0.08346 0.09906,0.08262 0.09905,0.08262 0.09904,0.08261 0.09906,0.08219 0.09904,0.08261 0.09905,0.08174 0.09906,0.08133 0.09906,0.08131 0.09904,0.08089 0.09905,0.08089 0.09906,0.08131 0.09904,0.08044 0.09906,0.08004 0.09904,0.07957 0.09905,0.07961 0.09906,0.07957 0.09906,0.07959 0.09903,0.07959 0.09906,0.07872 0.09906,0.07829 0.09905,0.07828 0.09904,0.07829 0.09906,0.07785 0.09905,0.0783 0.09906,0.07742 0.09904,0.07742 0.09905,0.07572 0.09906,0.07828 0.09906,0.07612 0.09903,0.07742 0.09906,0.07613 0.09906,0.07614 0.09904,0.07482 0.09905,0.07614 0.09906,0.07568 0.09906,0.07527 0.09903,0.07524 0.09906,0.07527 0.09906,0.07441 0.09904,0.07353 0.09904,0.07439 0.09906,0.07482 0.09905,0.07398 0.09906,0.07439 0.09905,0.0731 0.09904,0.07223 0.09906,0.07354 0.09906,0.07309 0.09903,0.07353 0.09906,0.07266 0.09906,0.07268 0.09904,0.07223 0.09905,0.07052 0.09906,0.07179 0.09904,0.07222 0.09906,0.07182 0.09905,0.07092 0.09904,0.07181 0.09906,0.07137 0.09906,0.06964 0.09903,0.07049 0.09906,0.07096 0.09906,0.07005 0.09905,0.07051 0.09904,0.0705 0.09906,0.06834 0.09906,0.0692 0.09903,0.06964 0.09906,0.07009 0.09906,0.0692 0.09905,0.06834 0.09904,0.06964 0.09906,0.06747 0.09905,0.0679 0.09906,0.06878 0.09904,0.06834 0.09905,0.06747 0.09906,0.06792 0.09906,0.06748 0.09903,0.06747 0.09906,0.06792 0.09906,0.0666 0.09904,0.06705 0.09905,0.0666 0.09906,0.06748 0.09904,0.0653 0.09906,0.06662 0.09905,0.06618 0.09904,0.06574 0.09906,0.06704 0.09905,0.0662 0.09904,0.06356 0.09906,0.06575 0.09906,0.06575 0.09905,0.06489 0.09904,0.06575 0.09906,0.06401 0.09906,0.06488 0.09903,0.06358 0.09906,0.06445 0.09906,0.06487 0.09904,0.06317 0.09905,0.06573 0.09906,0.06272 0.09904,0.06315 0.09906,0.06272 0.09905,0.06445 0.09904,0.06271 0.09906,0.06403 0.09906,0.06271 0.09903,0.06272 0.09906,0.06186 0.09906,0.06271 0.09905,0.06316 0.09904,0.06184 0.09906,0.06186 0.09905,0.06314 0.09906,0.06012 0.09904,0.06186 0.09905,0.06099 0.09906,0.06186 0.09904,0.06184 0.09907,0.06229 0.09904,0.06143 0.09906,0.0588 0.09904,0.06187 0.09905,0.0597 0.09906,0.06142 0.09905,0.06099 0.09904,0.06012 0.09906,0.0584 0.09906,0.06054 0.09904,0.05925 0.09905,0.06056 0.09905,0.06057 0.09905,0.05925 0.09906,0.06054 0.09905,0.05625 0.09904,0.05969 0.09906,0.05881 0.09906,0.05926 0.09903,0.06012 0.09906,0.0584 0.09906,0.05666 0.09905,0.0584 0.09904,0.05968 0.09906,0.05667 0.09905,0.05969 0.09904,0.05838 0.09906,0.0584 0.09906,0.05536 0.09904,0.05797 0.09905,0.05752 0.09906,0.05797 0.09904,0.05666 0.09906,0.0571 0.09905,0.05493 0.09904,0.05754 0.09906,0.05753 0.09907,0.05665 0.09902,0.05795 0.09906,0.05667 0.09906,0.05493 0.09905,0.05494 0.09904,0.05665 0.09907,0.05623 0.09904,0.05623 0.09906,0.0558 0.09904,0.0584 0.09905,0.05537 0.09906,0.05103 0.09906,0.05665 0.09903,0.05495 0.09906,0.0571 0.09906,0.05406 0.09903,0.05665 0.09906,0.05147 0.09905,0.05451 0.09907,0.05536 0.09903,0.0545 0.09906,0.05536 0.09906,0.0545 0.09904,0.05408 0.09904,0.05321 0.09907,0.05319 0.09904,0.05406 0.09906,0.0558 0.09905,0.05278 0.09904,0.05406 0.09906,0.04973 0.09906,0.05451 0.09903,0.05407 0.09906,0.05321 0.09906,0.05449 0.09905,0.05364 0.09904,0.05363 0.09906,0.04845 0.09905,0.05276 0.09906,0.05364 0.09904,0.05191 0.09905,0.05493 0.09906,0.05104"
       style="fill:none;stroke:#c9d1d9;stroke-width:0.49814;stroke-linecap:butt;stroke-linejoin:miter;stroke-miterlimit:10;stroke-dasharray:none;stroke-opacity:1"
       transform="matrix(1.3333333,0,0,-1.3333333,94.488,94.485333)" />
    <g
       id="g5"
       aria-label="f(x)"
       transform="matrix(1.3333333,0,0,1.3333333,156.28933,62.206667)">
      <path
         id="path6"
         d="M 0.43339063,2.734375e-4 H 1.1951094 L 2.0271406,-4.2184766 h 0.9960938 l 0.1289062,-0.6210937 h -0.984375 l 0.1640625,-0.8320313 c 0.1054688,-0.5507812 0.3867188,-0.9140625 0.8203125,-0.9140625 0.234375,0 0.4101563,0.058594 0.5507813,0.1523438 l 0.2578125,-0.5390625 c -0.2226563,-0.140625 -0.515625,-0.234375 -0.8671875,-0.234375 -0.8085938,0 -1.3359375,0.5976562 -1.5351563,1.5585937 l -0.1523437,0.8085938 -0.64453127,0.046875 -0.1171875,0.5742187 H 1.2771406 Z m 0,0"
         style="fill:#c9d1d9;fill-opacity:1;fill-rule:nonzero;stroke:none" />
      <path
         id="path7"
         d="m 6.1140547,2.3908984 c 0,-0.035156 0,-0.046875 -0.1640625,-0.2226562 -1.2421875,-1.25390626 -1.5703125,-3.12890626 -1.5703125,-4.6640625 0,-1.7226563 0.3867187,-3.4570313 1.6054687,-4.7109375 0.1289063,-0.1171875 0.1289063,-0.1289063 0.1289063,-0.1640625 0,-0.070312 -0.035156,-0.1054688 -0.09375,-0.1054688 -0.1054688,0 -0.9960938,0.6796875 -1.5820313,1.9453125 -0.515625,1.1015625 -0.6328125,2.203125 -0.6328125,3.0351563 0,0.7851562 0.1171875,1.99218749 0.65625,3.11718749 0.5976563,1.21875001 1.453125,1.87500001 1.5585938,1.87500001 0.058594,0 0.09375,-0.035156 0.09375,-0.1054688 z m 0,0"
         style="fill:#c9d1d9;fill-opacity:1;fill-rule:nonzero;stroke:none" />
      <path
         id="path8"
         d="m 6.2605391,2.734375e-4 h 0.84375 l 0.9375,-1.1484375375 c 0.2460937,-0.3046875 0.4804687,-0.5859375 0.6796875,-0.8789062 h 0.046875 c 0.1171875,0.2929687 0.234375,0.5976562 0.3398437,0.890625 L 9.5417891,2.734375e-4 H 10.338664 L 9.3542891,-2.4020703 l 1.9921879,-2.4375 h -0.832032 l -0.8437497,1.078125 c -0.1992187,0.2695312 -0.421875,0.5390625 -0.6210937,0.8085937 h -0.046875 c -0.09375,-0.28125 -0.1757813,-0.5273437 -0.28125,-0.8085937 L 8.3113203,-4.8395703 H 7.5261641 l 0.9023437,2.2734375 z m 0,0"
         style="fill:#c9d1d9;fill-opacity:1;fill-rule:nonzero;stroke:none" />
      <path
         id="path9"
         d="m 13.860148,-2.4958203 c 0,-0.7734375 -0.117187,-1.9804688 -0.65625,-3.1054688 -0.597656,-1.21875 -1.464843,-1.875 -1.558593,-1.875 -0.05859,0 -0.105469,0.046875 -0.105469,0.1054688 0,0.035156 0,0.046875 0.199219,0.234375 0.972656,0.984375 1.535156,2.5664062 1.535156,4.640625 0,1.71093749 -0.363281,3.45703124 -1.59375,4.7226562 -0.140625,0.1171875 -0.140625,0.1289063 -0.140625,0.1640625 0,0.058594 0.04687,0.1054688 0.105469,0.1054688 0.09375,0 0.996093,-0.6796875 1.582031,-1.94531251 0.503906,-1.1015625 0.632812,-2.20312499 0.632812,-3.04687499 z m 0,0"
         style="fill:#c9d1d9;fill-opacity:1;fill-rule:nonzero;stroke:none" />
    </g>
    <path
       id="path10"
       d="m -4.25183,-53.46558 -0.09906,0.6142 -0.09905,0.60384 -0.09904,0.59387 -0.09906,0.58349 -0.09905,0.57355 -0.09906,0.56403 -0.09904,0.55494 -0.09905,0.54543 -0.09906,0.53679 -0.09906,0.52768 -0.09902,0.51948 -0.09906,0.51127 -0.09906,0.50261 -0.09905,0.49482 -0.09905,0.48746 -0.09905,0.4797 -0.09905,0.47232 -0.09906,0.46499 -0.09904,0.45849 -0.09906,0.45113 -0.09905,0.44466 -0.09904,0.43815 -0.09906,0.43168 -0.09905,0.4256 -0.09906,0.41915 -0.09904,0.4135 -0.09905,0.40745 -0.09906,0.40225 -0.09906,0.39621 -0.09903,0.39145 -0.09906,0.38584 -0.09906,0.38104 -0.09904,0.37544 -0.09905,0.37113 -0.09906,0.36594 -0.09904,0.36115 -0.09906,0.35771 -0.09905,0.35251 -0.09904,0.34777 -0.09906,0.34387 -0.09906,0.33998 -0.09903,0.33609 -0.09906,0.33218 -0.09906,0.32743 -0.09905,0.32441 -0.09904,0.3205 -0.09906,0.31662 -0.09906,0.31403 -0.09903,0.31013 -0.09906,0.30624 -0.09906,0.3032 -0.09905,0.30018 -0.09904,0.29715 -0.09906,0.2937 -0.09905,0.29154 -0.09905,0.28718 -0.09905,0.28548 -0.09905,0.28201 -0.09906,0.27944 -0.09906,0.27551 -0.09903,0.2751 -0.09905,0.27121 -0.09907,0.2686 -0.09904,0.26602 -0.09905,0.26384 -0.09906,0.26256 -0.09904,0.25822 -0.09906,0.25821 -0.09904,0.25261 -0.09905,0.25219 -0.09906,0.25085 -0.09906,0.24786 -0.09903,0.24654 -0.09906,0.24266 -0.09906,0.24048 -0.09906,0.2392 -0.09903,0.23832 -0.09906,0.23358 -0.09906,0.23529 -0.09903,0.22968 -0.09906,0.23141 -0.09906,0.22666 -0.09904,0.22577 -0.09905,0.22493 -0.09906,0.2206 -0.09904,0.22276 -0.09907,0.21841 -0.09904,0.21498 -0.09904,0.21756 -0.09906,0.21369 -0.09906,0.20935 -0.09903,0.21452 -0.09907,0.20633 -0.09905,0.21065 -0.09905,0.20545 -0.09904,0.20243 -0.09906,0.20633 -0.09905,0.19939 -0.09905,0.20286 -0.09905,0.19853 -0.09905,0.20113 -0.09906,0.19593 -0.09906,0.19466 -0.09904,0.19378 -0.09904,0.19247 -0.09907,0.19075 -0.09904,0.18945 -0.09905,0.1886 -0.09906,0.18729 -0.09906,0.18597 -0.09902,0.18471 -0.09907,0.1834 -0.09906,0.18167 -0.09904,0.18208 -0.09905,0.1795 -0.09906,0.17951 -0.09904,0.17776 -0.09906,0.17649 -0.09905,0.17561 -0.09904,0.17474 -0.09906,0.17345 -0.09906,0.17215 -0.09903,0.17172 -0.09906,0.16998 -0.09906,0.16958 -0.09904,0.16824 -0.09905,0.16782 -0.09906,0.1661 -0.09904,0.16522 -0.09907,0.16481 -0.09904,0.16306 -0.09906,0.1622 -0.09904,0.16177 -0.09905,0.16134 -0.09906,0.16005 -0.09905,0.15787 -0.09905,0.1583 -0.09905,0.15702 -0.09904,0.15615 -0.09906,0.15528 -0.09906,0.15529 -0.09904,0.1531 -0.09905,0.1527 -0.09906,0.15268 -0.09905,0.15051 -0.09904,0.15054 -0.09906,0.15009 -0.09904,0.14877 -0.09907,0.14751 -0.09904,0.14749 -0.09905,0.14664 -0.09906,0.14533 -0.09906,0.1449 -0.09902,0.1449 -0.09907,0.14275 -0.09906,0.14315 -0.09904,0.14275 -0.09905,0.14057 -0.09906,0.14058 -0.09904,0.141 -0.09906,0.13884 -0.09905,0.13841 -0.09906,0.13842 -0.09904,0.13798 -0.09905,0.13497 -0.09906,0.1371 -0.09904,0.13538 -0.09906,0.13322 -0.09905,0.13452 -0.09904,0.13452 -0.09906,0.13106 -0.09906,0.13279 -0.09903,0.13234 -0.09906,0.13063 -0.09906,0.13021 -0.09904,0.12976 -0.09905,0.13063 -0.09906,0.12674 -0.09905,0.12845 -0.09905,0.12761 -0.09905,0.12542 -0.09904,0.12717 -0.09906,0.12587 -0.09906,0.12414 -0.09904,0.125 -0.09905,0.12502 -0.09906,0.12412 -0.09905,0.12198 -0.09904,0.12284 -0.09906,0.12241 -0.09906,0.12068 -0.09903,0.12198 -0.09906,0.12067 -0.09906,0.11764 -0.09905,0.12112 -0.09904,0.12024 -0.09906,0.11809 -0.09905,0.11548 -0.09906,0.11896 -0.09904,0.11764 -0.09905,0.1142 -0.09906,0.11722 -0.09906,0.11505 -0.09903,0.11418 -0.09906,0.11507 -0.09906,0.11592 -0.09904,0.11116 -0.09905,0.11333 -0.09906,0.11332 -0.09904,0.11331 -0.09906,0.10987 -0.09905,0.11203 -0.09904,0.11289 -0.09906,0.10902 -0.09906,0.10942 -0.09903,0.1103 -0.09906,0.10768 -0.09906,0.11031 -0.09905,0.10814 -0.09904,0.1064 -0.09906,0.10771 -0.09906,0.10857 -0.09903,0.10899 -0.09906,0.10208 -0.09906,0.10727 -0.09904,0.10684 -0.09905,0.10337 -0.09906,0.10556 -0.09905,0.10466 -0.09906,0.10295 -0.09904,0.10295 -0.09904,0.10553 -0.09906,0.10078 -0.09906,0.10207 -0.09903,0.10426 -0.09906,0.10336 -0.09906,0.09775 -0.09905,0.10164 -0.09904,0.10295 -0.09906,0.09732 -0.09905,0.1008 -0.09906,0.1012 -0.09904,0.09776 -0.09905,0.10335 -0.09906,0.0986 -0.09906,0.09862 -0.09904,0.09776 -0.09905,0.09775 -0.09906,0.09691 -0.09904,0.09687 -0.09905,0.09646 -0.09906,0.09646 -0.09906,0.09601 -0.09903,0.09517 -0.09906,0.09517 -0.09906,0.09514 -0.09905,0.09517 -0.09904,0.09385 -0.09906,0.0943 -0.09904,0.09343 -0.09906,0.09386 -0.09905,0.09298 -0.09904,0.09258 -0.09906,0.09299 -0.09906,0.09169 -0.09903,0.09214 -0.09906,0.09126 -0.09906,0.0917 -0.09904,0.09084 -0.09905,0.0904 -0.09906,0.09082 -0.09905,0.09084 -0.09906,0.0891 -0.09904,0.08998 -0.09904,0.08952 -0.09907,0.08911 -0.09904,0.08867 -0.09906,0.08824 -0.09905,0.08824 -0.09906,0.08738 -0.09904,0.08824 -0.09905,0.08693 -0.09906,0.08737 -0.09906,0.08694 -0.09902,0.08651 -0.09906,0.08607 -0.09906,0.08607 -0.09905,0.08565 -0.09904,0.08608 -0.09906,0.0852 -0.09905,0.08521 -0.09906,0.08349 -0.09904,0.08521 -0.09905,0.08392 -0.09906,0.08521 -0.09906,0.08304 -0.09903,0.08392 -0.09906,0.08346 -0.09906,0.08262 -0.09905,0.08262 -0.09904,0.08261 -0.09906,0.08219 -0.09904,0.08261 -0.09905,0.08174 -0.09906,0.08133 -0.09906,0.08131 -0.09904,0.08089 -0.09905,0.08089 -0.09906,0.08131 -0.09904,0.08044 -0.09906,0.08004 -0.09904,0.07957 -0.09905,0.07961 -0.09906,0.07957 -0.09906,0.07959 -0.09903,0.07959 -0.09906,0.07872 -0.09906,0.07829 -0.09905,0.07828 -0.09904,0.07829 -0.09906,0.07785 -0.09905,0.0783 -0.09906,0.07742 -0.09904,0.07742 -0.09905,0.07572 -0.09906,0.07828 -0.09906,0.07612 -0.09903,0.07742 -0.09906,0.07613 -0.09906,0.07614 -0.09904,0.07482 -0.09905,0.07614 -0.09906,0.07568 -0.09906,0.07527 -0.09903,0.07524 -0.09906,0.07527 -0.09906,0.07441 -0.09904,0.07353 -0.09904,0.07439 -0.09906,0.07482 -0.09905,0.07398 -0.09906,0.07439 -0.09905,0.0731 -0.09904,0.07223 -0.09906,0.07354 -0.09906,0.07309 -0.09903,0.07353 -0.09906,0.07266 -0.09906,0.07268 -0.09904,0.07223 -0.09905,0.07052 -0.09906,0.07179 -0.09904,0.07222 -0.09906,0.07182 -0.09905,0.07092 -0.09904,0.07181 -0.09906,0.07137 -0.09906,0.06964 -0.09903,0.07049 -0.09906,0.07096 -0.09906,0.07005 -0.09905,0.07051 -0.09904,0.0705 -0.09906,0.06834 -0.09906,0.0692 -0.09903,0.06964 -0.09906,0.07009 -0.09906,0.0692 -0.09905,0.06834 -0.09904,0.06964 -0.09906,0.06747 -0.09905,0.0679 -0.09906,0.06878 -0.09904,0.06834 -0.09905,0.06747 -0.09906,0.06792 -0.09906,0.06748 -0.09903,0.06747 -0.09906,0.06792 -0.09906,0.0666 -0.09904,0.06705 -0.09905,0.0666 -0.09906,0.06748 -0.09904,0.0653 -0.09906,0.06662 -0.09905,0.06618 -0.09904,0.06574 -0.09906,0.06704 -0.09905,0.0662 -0.09904,0.06356 -0.09906,0.06575 -0.09906,0.06575 -0.09905,0.06489 -0.09904,0.06575 -0.09906,0.06401 -0.09906,0.06488 -0.09903,0.06358 -0.09906,0.06445 -0.09906,0.06487 -0.09904,0.06317 -0.09905,0.06573 -0.09906,0.06272 -0.09904,0.06315 -0.09906,0.06272 -0.09905,0.06445 -0.09904,0.06271 -0.09906,0.06403 -0.09906,0.06271 -0.09903,0.06272 -0.09906,0.06186 -0.09906,0.06271 -0.09905,0.06316 -0.09904,0.06184 -0.09906,0.06186 -0.09905,0.06314 -0.09906,0.06012 -0.09904,0.06186 -0.09905,0.06099 -0.09906,0.06186 -0.09904,0.06184 -0.09907,0.06229 -0.09904,0.06143 -0.09906,0.0588 -0.09904,0.06187 -0.09905,0.0597 -0.09906,0.06142 -0.09905,0.06099 -0.09904,0.06012 -0.09906,0.0584 -0.09906,0.06054 -0.09904,0.05925 -0.09905,0.06056 -0.09905,0.06057 -0.09905,0.05925 -0.09906,0.06054 -0.09905,0.05625 -0.09904,0.05969 -0.09906,0.05881 -0.09906,0.05926 -0.09903,0.06012 -0.09906,0.0584 -0.09906,0.05666 -0.09905,0.0584 -0.09904,0.05968 -0.09906,0.05667 -0.09905,0.05969 -0.09904,0.05838 -0.09906,0.0584 -0.09906,0.05536 -0.09904,0.05797 -0.09905,0.05752 -0.09906,0.05797 -0.09904,0.05666 -0.09906,0.0571 -0.09905,0.05493 -0.09904,0.05754 -0.09906,0.05753 -0.09907,0.05665 -0.09902,0.05795 -0.09906,0.05667 -0.09906,0.05493 -0.09905,0.05494 -0.09904,0.05665 -0.09907,0.05623 -0.09904,0.05623 -0.09906,0.0558 -0.09904,0.0584 -0.09905,0.05537 -0.09906,0.05103 -0.09906,0.05665 -0.09903,0.05495 -0.09906,0.0571 -0.09906,0.05406 -0.09903,0.05665 -0.09906,0.05147 -0.09905,0.05451 -0.09907,0.05536 -0.09903,0.0545 -0.09906,0.05536 -0.09906,0.0545 -0.09904,0.05408 -0.09904,0.05321 -0.09907,0.05319 -0.09904,0.05406 -0.09906,0.0558 -0.09905,0.05278 -0.09904,0.05406 -0.09906,0.04973 -0.09906,0.05451 -0.09903,0.05407 -0.09906,0.05321 -0.09906,0.05449 -0.09905,0.05364 -0.09904,0.05363 -0.09906,0.04845 -0.09905,0.05276 -0.09906,0.05364 -0.09904,0.05191 -0.09905,0.05493 -0.09906,0.05104"
       style="fill:none;stroke:#b39af0;stroke-width:0.99628;stroke-linecap:butt;stroke-linejoin:miter;stroke-miterlimit:10;stroke-dasharray:none;stroke-opacity:1"
       transform="matrix(1.3333333,0,0,-1.3333333,94.488,94.485333)" />
    <g
       id="g10"
       aria-label="f(−x)"
       transform="matrix(1.3333333,0,0,1.3333333,7.7173333,61.874667)">
      <path
         id="path11"
         d="M 0.43465625,2.5e-4 H 1.196375 L 2.0284062,-4.2185 H 3.0245 L 3.1534062,-4.8395937 H 2.1690312 L 2.3330937,-5.671625 c 0.1054688,-0.5507812 0.3867188,-0.9140625 0.8203125,-0.9140625 0.234375,0 0.4101563,0.058594 0.5507813,0.1523438 L 3.962,-6.9724062 c -0.2226563,-0.140625 -0.515625,-0.234375 -0.8671875,-0.234375 -0.8085938,0 -1.3359375,0.5976562 -1.5351563,1.5585937 L 1.4073125,-4.8395937 0.76278125,-4.7927187 0.64559375,-4.2185 H 1.2784062 Z m 0,0"
         style="fill:#b39af0;fill-opacity:1;fill-rule:nonzero;stroke:none" />
      <path
         id="path12"
         d="m 6.1123906,2.390875 c 0,-0.035156 0,-0.046875 -0.1640625,-0.2226562 -1.2421875,-1.2539063 -1.5703125,-3.1289063 -1.5703125,-4.6640625 0,-1.7226563 0.3867188,-3.4570313 1.6054688,-4.7109375 0.1289062,-0.1171875 0.1289062,-0.1289063 0.1289062,-0.1640625 0,-0.070312 -0.035156,-0.1054688 -0.09375,-0.1054688 -0.1054687,0 -0.9960937,0.6796875 -1.5820312,1.9453125 -0.515625,1.1015625 -0.6328125,2.203125 -0.6328125,3.0351563 0,0.7851562 0.1171875,1.99218745 0.65625,3.11718745 0.5976562,1.21875005 1.453125,1.87500005 1.5585937,1.87500005 0.058594,0 0.09375,-0.035156 0.09375,-0.1054688 z m 0,0"
         style="fill:#b39af0;fill-opacity:1;fill-rule:nonzero;stroke:none" />
      <path
         id="path13"
         d="m 13.257898,-2.296625 c 0.175782,0 0.351563,0 0.351563,-0.1992187 0,-0.1992188 -0.175781,-0.1992188 -0.351563,-0.1992188 H 7.8672734 c -0.1640625,0 -0.3398437,0 -0.3398437,0.1992188 0,0.1992187 0.1757812,0.1992187 0.3398437,0.1992187 z m 0,0"
         style="fill:#b39af0;fill-opacity:1;fill-rule:nonzero;stroke:none" />
      <path
         id="path14"
         d="m 14.010828,2.5e-4 h 0.84375 l 0.9375,-1.1484375 c 0.246094,-0.3046875 0.480469,-0.5859375 0.679688,-0.8789062 h 0.04687 c 0.117187,0.2929687 0.234375,0.5976562 0.339843,0.890625 L 17.292078,2.5e-4 h 0.796875 l -0.984375,-2.4023437 1.992188,-2.4375 h -0.832032 l -0.84375,1.078125 c -0.199218,0.2695312 -0.421875,0.5390625 -0.621093,0.8085937 h -0.04687 c -0.09375,-0.28125 -0.175782,-0.5273437 -0.28125,-0.8085937 l -0.410157,-1.078125 h -0.785156 l 0.902344,2.2734375 z m 0,0"
         style="fill:#b39af0;fill-opacity:1;fill-rule:nonzero;stroke:none" />
      <path
         id="path15"
         d="m 21.610437,-2.4958437 c 0,-0.7734375 -0.117187,-1.9804688 -0.65625,-3.1054688 -0.597656,-1.21875 -1.464843,-1.875 -1.558593,-1.875 -0.05859,0 -0.105469,0.046875 -0.105469,0.1054688 0,0.035156 0,0.046875 0.199219,0.234375 0.972656,0.984375 1.535156,2.5664062 1.535156,4.640625 0,1.71093745 -0.363281,3.4570312 -1.59375,4.7226562 C 19.290125,2.344 19.290125,2.3557188 19.290125,2.390875 c 0,0.058594 0.04687,0.1054688 0.105469,0.1054688 0.09375,0 0.996093,-0.6796875 1.582031,-1.94531255 0.503906,-1.1015625 0.632812,-2.20312495 0.632812,-3.04687495 z m 0,0"
         style="fill:#b39af0;fill-opacity:1;fill-rule:nonzero;stroke:none" />
    </g>
    <path
       id="path16"
       d="M 0,11.49382 H 42.5202"
       style="fill:none;stroke:#b39af0;stroke-width:0.49814;stroke-linecap:butt;stroke-linejoin:miter;stroke-miterlimit:10;stroke-dasharray:none;stroke-opacity:1"
       transform="matrix(1.3333333,0,0,-1.3333333,94.488,94.485333)" />
    <path
       id="path17"
       d="m 1.7097266,-7.1373672 c 0,-0.1523437 0,-0.3398437 -0.1992188,-0.3398437 -0.1992187,0 -0.1992187,0.2226562 -0.1992187,0.375 v 9.2226562 c 0,0.1640625 0,0.375 0.1992187,0.375 0.1992188,0 0.1992188,-0.1875 0.1992188,-0.3398437 z m 1.9453125,0.035156 c 0,-0.1640625 0,-0.375 -0.1992188,-0.375 -0.1992187,0 -0.1992187,0.1875 -0.1992187,0.3398437 v 9.2929688 c 0,0.1523437 0,0.3398437 0.1992187,0.3398437 0.1992188,0 0.1992188,-0.2226562 0.1992188,-0.375 z m 0,0"
       style="fill:#b39af0;fill-opacity:1;fill-rule:nonzero;stroke:none"
       aria-label="∥"
       transform="matrix(1.3333333,0,0,1.3333333,119.51333,82.481333)" />
    <path
       id="path18"
       d="M 0,11.49382 H -42.5202"
       style="fill:none;stroke:#b39af0;stroke-width:0.49814;stroke-linecap:butt;stroke-linejoin:miter;stroke-miterlimit:10;stroke-dasharray:none;stroke-opacity:1"
       transform="matrix(1.3333333,0,0,-1.3333333,94.488,94.485333)" />
    <path
       id="path19"
       d="m 1.7111719,-7.1373672 c 0,-0.1523437 0,-0.3398437 -0.1992188,-0.3398437 -0.1992187,0 -0.1992187,0.2226562 -0.1992187,0.375 v 9.2226562 c 0,0.1640625 0,0.375 0.1992187,0.375 0.1992188,0 0.1992188,-0.1875 0.1992188,-0.3398437 z m 1.9453125,0.035156 c 0,-0.1640625 0,-0.375 -0.1992188,-0.375 -0.1992187,0 -0.1992187,0.1875 -0.1992187,0.3398437 v 9.2929688 c 0,0.1523437 0,0.3398437 0.1992187,0.3398437 0.1992188,0 0.1992188,-0.2226562 0.1992188,-0.375 z m 0,0"
       style="fill:#b39af0;fill-opacity:1;fill-rule:nonzero;stroke:none"
       aria-label="∥"
       transform="matrix(1.3333333,0,0,1.3333333,62.82,82.481333)" />
  </g>
</svg>
