<?xml version="1.0" encoding="UTF-8" standalone="no"?>
<!-- Created with Inkscape (http://www.inkscape.org/) -->

<svg
   version="1.1"
   id="svg1"
   width="415.74667"
   height="75.58667"
   viewBox="0 0 415.74667 75.58667"
   sodipodi:docname="MATH_118-111.pdf"
   xmlns:inkscape="http://www.inkscape.org/namespaces/inkscape"
   xmlns:sodipodi="http://sodipodi.sourceforge.net/DTD/sodipodi-0.dtd"
   xmlns="http://www.w3.org/2000/svg"
   xmlns:svg="http://www.w3.org/2000/svg">
  <defs
     id="defs1" />
  <sodipodi:namedview
     id="namedview1"
     pagecolor="#ffffff"
     bordercolor="#000000"
     borderopacity="0.25"
     inkscape:showpageshadow="2"
     inkscape:pageopacity="0.0"
     inkscape:pagecheckerboard="0"
     inkscape:deskcolor="#d1d1d1">
    <inkscape:page
       x="0"
       y="0"
       inkscape:label="1"
       id="page1"
       width="415.74667"
       height="75.58667"
       margin="0"
       bleed="0" />
  </sodipodi:namedview>
  <g
     id="g1"
     inkscape:groupmode="layer"
     inkscape:label="1">
    <path
       id="path1"
       d="M -141.73404,0 H 141.48497"
       style="fill:none;stroke:#c9d1d9;stroke-width:0.24907;stroke-linecap:butt;stroke-linejoin:miter;stroke-miterlimit:10;stroke-dasharray:none;stroke-opacity:1"
       transform="matrix(1.3333333,0,0,-1.3333333,207.87333,37.790667)" />
    <path
       id="path2"
       d="M -1.89291,2.12108 C -1.54709,0.84842 -0.77643,0.24745 0,0 -0.77643,-0.24745 -1.54709,-0.84842 -1.89291,-2.12108"
       style="fill:none;stroke:#c9d1d9;stroke-width:0.24907;stroke-linecap:round;stroke-linejoin:round;stroke-miterlimit:10;stroke-dasharray:none;stroke-opacity:1"
       transform="matrix(1.3333333,0,0,-1.3333333,396.68601,37.790667)" />
    <path
       id="path3"
       d="M 0.352,0.00141406 H 1.1254375 L 1.6410625,-2.6235859 H 2.69575 c 1.6640625,0 2.8476562,-0.7148438 2.8476562,-2.3203125 0,-1.1367188 -0.8085937,-1.59375 -2.0507812,-1.59375 H 1.6527812 Z M 1.7816875,-3.2563984 2.2973125,-5.9048359 H 3.305125 c 0.9609375,0 1.4765625,0.3164062 1.4765625,1.0664062 0,1.0429688 -0.7148438,1.5820313 -2.0507813,1.5820313 z m 0,0"
       style="fill:#c9d1d9;fill-opacity:1;fill-rule:nonzero;stroke:none"
       aria-label="P"
       transform="matrix(1.3333333,0,0,1.3333333,53.030667,51.197333)" />
    <g
       id="g3"
       aria-label="P(1+i)"
       transform="matrix(1.3333333,0,0,1.3333333,111.30667,52.446667)">
      <path
         id="path4"
         d="M 0.35300781,-0.00101563 H 1.1264453 l 0.515625,-2.62499997 h 1.0546875 c 1.6640625,0 2.8476563,-0.7148438 2.8476563,-2.3203125 0,-1.1367188 -0.8085938,-1.59375 -2.0507813,-1.59375 H 1.6537891 Z M 1.7826953,-3.2588281 2.2983203,-5.9072656 h 1.0078125 c 0.9609375,0 1.4765625,0.3164062 1.4765625,1.0664062 0,1.0429688 -0.7148437,1.5820313 -2.0507812,1.5820313 z m 0,0"
         style="fill:#c9d1d9;fill-opacity:1;fill-rule:nonzero;stroke:none" />
      <path
         id="path5"
         d="m 8.7817187,2.3896094 c 0,-0.035156 0,-0.046875 -0.1640625,-0.2226563 -1.2421875,-1.25390623 -1.5703125,-3.12890623 -1.5703125,-4.6640625 0,-1.7226562 0.3867188,-3.4570312 1.6054688,-4.7109375 0.1289062,-0.1171875 0.1289062,-0.1289062 0.1289062,-0.1640625 0,-0.070312 -0.035156,-0.1054687 -0.09375,-0.1054687 -0.1054687,0 -0.9960937,0.6796875 -1.5820312,1.9453125 -0.515625,1.1015625 -0.6328125,2.203125 -0.6328125,3.0351562 0,0.7851563 0.1171875,1.99218752 0.65625,3.11718752 C 7.7270312,1.8388281 8.5825,2.4950781 8.6879687,2.4950781 c 0.058594,0 0.09375,-0.035156 0.09375,-0.1054687 z m 0,0"
         style="fill:#c9d1d9;fill-opacity:1;fill-rule:nonzero;stroke:none" />
      <path
         id="path6"
         d="M 11.028789,-0.00101563 H 11.86082 V -6.3525781 h -0.644531 c -0.351562,0.2109375 -0.761719,0.3632812 -1.3476562,0.46875 v 0.5390625 h 1.1601562 z m 0,0"
         style="fill:#c9d1d9;fill-opacity:1;fill-rule:nonzero;stroke:none" />
      <path
         id="path7"
         d="m 19.343242,-2.2978906 h 2.777344 c 0.140625,0 0.328125,0 0.328125,-0.1992188 0,-0.1992187 -0.1875,-0.1992187 -0.328125,-0.1992187 h -2.777344 v -2.7890625 c 0,-0.1289063 0,-0.328125 -0.199219,-0.328125 -0.199218,0 -0.199218,0.1992187 -0.199218,0.328125 v 2.7890625 h -2.789063 c -0.140625,0 -0.328125,0 -0.328125,0.1992187 0,0.1992188 0.1875,0.1992188 0.328125,0.1992188 h 2.789063 v 2.80078122 c 0,0.12890625 0,0.328125 0.199218,0.328125 0.199219,0 0.199219,-0.19921875 0.199219,-0.328125 z m 0,0"
         style="fill:#c9d1d9;fill-opacity:1;fill-rule:nonzero;stroke:none" />
      <path
         id="path8"
         d="m 25.530742,-0.00101563 h 0.773438 l 0.960937,-4.83984377 h -0.761719 z m 1.59375,-5.84765627 c 0.316406,0 0.585938,-0.234375 0.585938,-0.5625 0,-0.2929687 -0.234375,-0.46875 -0.492188,-0.46875 -0.304687,0 -0.574219,0.2578125 -0.574219,0.5859375 0,0.28125 0.222657,0.4453125 0.480469,0.4453125 z m 0,0"
         style="fill:#c9d1d9;fill-opacity:1;fill-rule:nonzero;stroke:none" />
      <path
         id="path9"
         d="m 30.470195,-2.4971094 c 0,-0.7734375 -0.117187,-1.9804687 -0.65625,-3.1054687 -0.597656,-1.21875 -1.464843,-1.875 -1.558593,-1.875 -0.05859,0 -0.105469,0.046875 -0.105469,0.1054687 0,0.035156 0,0.046875 0.199219,0.234375 0.972656,0.984375 1.535156,2.5664063 1.535156,4.640625 0,1.71093752 -0.363281,3.45703127 -1.59375,4.7226563 -0.140625,0.1171875 -0.140625,0.1289062 -0.140625,0.1640625 0,0.058594 0.04687,0.1054687 0.105469,0.1054687 0.09375,0 0.996093,-0.6796875 1.582031,-1.94531248 0.503906,-1.1015625 0.632812,-2.20312502 0.632812,-3.04687502 z m 0,0"
         style="fill:#c9d1d9;fill-opacity:1;fill-rule:nonzero;stroke:none" />
    </g>
    <g
       id="g9"
       aria-label="P(1+i)&#10;2"
       transform="matrix(1.3333333,0,0,1.3333333,184.23733,53.348)">
      <path
         id="path10"
         d="M 0.35227344,-2.578125e-4 H 1.1257109 L 1.6413359,-2.6252578 h 1.0546875 c 1.6640625,0 2.8476563,-0.7148438 2.8476563,-2.3203125 0,-1.1367188 -0.8085938,-1.59375 -2.0507813,-1.59375 H 1.6530547 Z M 1.7819609,-3.2580703 2.2975859,-5.9065078 h 1.0078125 c 0.9609375,0 1.4765625,0.3164062 1.4765625,1.0664062 0,1.0429688 -0.7148437,1.5820313 -2.0507812,1.5820313 z m 0,0"
         style="fill:#c9d1d9;fill-opacity:1;fill-rule:nonzero;stroke:none" />
      <path
         id="path11"
         d="m 8.7839141,2.3903672 c 0,-0.035156 0,-0.046875 -0.1640625,-0.2226563 -1.2421875,-1.25390621 -1.5703125,-3.12890621 -1.5703125,-4.6640625 0,-1.7226562 0.3867187,-3.4570312 1.6054687,-4.7109375 0.1289063,-0.1171875 0.1289063,-0.1289062 0.1289063,-0.1640625 0,-0.070312 -0.035156,-0.1054687 -0.09375,-0.1054687 -0.1054688,0 -0.9960938,0.6796875 -1.5820313,1.9453125 -0.515625,1.1015625 -0.6328125,2.203125 -0.6328125,3.0351562 0,0.7851563 0.1171875,1.99218754 0.65625,3.11718754 0.5976563,1.21874996 1.453125,1.87499996 1.5585938,1.87499996 0.058594,0 0.09375,-0.035156 0.09375,-0.1054687 z m 0,0"
         style="fill:#c9d1d9;fill-opacity:1;fill-rule:nonzero;stroke:none" />
      <path
         id="path12"
         d="m 11.028055,-2.578125e-4 h 0.832031 V -6.3518203 h -0.644531 c -0.351563,0.2109375 -0.761719,0.3632812 -1.3476566,0.46875 v 0.5390625 h 1.1601566 z m 0,0"
         style="fill:#c9d1d9;fill-opacity:1;fill-rule:nonzero;stroke:none" />
      <path
         id="path13"
         d="m 19.342508,-2.2971328 h 2.777344 c 0.140625,0 0.328125,0 0.328125,-0.1992188 0,-0.1992187 -0.1875,-0.1992187 -0.328125,-0.1992187 h -2.777344 v -2.7890625 c 0,-0.1289063 0,-0.328125 -0.199219,-0.328125 -0.199219,0 -0.199219,0.1992187 -0.199219,0.328125 v 2.7890625 h -2.789062 c -0.140625,0 -0.328125,0 -0.328125,0.1992187 0,0.1992188 0.1875,0.1992188 0.328125,0.1992188 h 2.789062 v 2.80078124 c 0,0.12890625 0,0.328125 0.199219,0.328125 0.199219,0 0.199219,-0.19921875 0.199219,-0.328125 z m 0,0"
         style="fill:#c9d1d9;fill-opacity:1;fill-rule:nonzero;stroke:none" />
      <path
         id="path14"
         d="m 25.532938,-2.578125e-4 h 0.773437 L 27.267313,-4.8401016 H 26.505594 Z M 27.126688,-5.8479141 c 0.316406,0 0.585937,-0.234375 0.585937,-0.5625 0,-0.2929687 -0.234375,-0.46875 -0.492187,-0.46875 -0.304688,0 -0.574219,0.2578125 -0.574219,0.5859375 0,0.28125 0.222656,0.4453125 0.480469,0.4453125 z m 0,0"
         style="fill:#c9d1d9;fill-opacity:1;fill-rule:nonzero;stroke:none" />
      <path
         id="path15"
         d="m 30.469461,-2.4963516 c 0,-0.7734375 -0.117188,-1.9804687 -0.65625,-3.1054687 -0.597656,-1.21875 -1.464844,-1.875 -1.558594,-1.875 -0.05859,0 -0.105469,0.046875 -0.105469,0.1054687 0,0.035156 0,0.046875 0.199219,0.234375 0.972656,0.984375 1.535156,2.5664063 1.535156,4.640625 0,1.71093754 -0.363281,3.45703129 -1.59375,4.7226563 -0.140625,0.1171875 -0.140625,0.1289062 -0.140625,0.1640625 0,0.058594 0.04687,0.1054687 0.105469,0.1054687 0.09375,0 0.996094,-0.6796875 1.582031,-1.94531246 0.503907,-1.1015625 0.632813,-2.20312504 0.632813,-3.04687504 z m 0,0"
         style="fill:#c9d1d9;fill-opacity:1;fill-rule:nonzero;stroke:none" />
      <path
         id="path16"
         d="m 31.767313,-3.6154922 h 2.824218 v -0.4921875 h -1.265625 c -0.234375,0 -0.515625,0.011719 -0.75,0.035156 1.042969,-1.1015625 1.816407,-1.921875 1.816407,-2.765625 0,-0.7851563 -0.492188,-1.3125 -1.324219,-1.3125 -0.550781,0 -0.949219,0.2578125 -1.335938,0.6914062 l 0.328125,0.3164063 c 0.246094,-0.2929688 0.574219,-0.5273438 0.9375,-0.5273438 0.574219,0 0.832032,0.3515625 0.832032,0.8554688 0,0.7265625 -0.738282,1.5234375 -2.0625,2.859375 z m 0,0"
         style="fill:#c9d1d9;fill-opacity:1;fill-rule:nonzero;stroke:none" />
    </g>
    <path
       id="path17"
       d="m 1.9101875,-2.4970547 c 0,-0.28125 -0.234375,-0.5273437 -0.5273437,-0.5273437 -0.28125,0 -0.5273438,0.2460937 -0.5273438,0.5273437 0,0.2929688 0.2460938,0.5390625 0.5273438,0.5390625 0.2929687,0 0.5273437,-0.2460937 0.5273437,-0.5390625 z m 4.4121094,0 c 0,-0.28125 -0.234375,-0.5273437 -0.5273438,-0.5273437 -0.28125,0 -0.5273437,0.2460937 -0.5273437,0.5273437 0,0.2929688 0.2460937,0.5390625 0.5273437,0.5390625 0.2929688,0 0.5273438,-0.2460937 0.5273438,-0.5390625 z m 4.4238281,0 c 0,-0.28125 -0.234375,-0.5273437 -0.527344,-0.5273437 -0.2812497,0 -0.5273435,0.2460937 -0.5273435,0.5273437 0,0.2929688 0.2460938,0.5390625 0.5273435,0.5390625 0.292969,0 0.527344,-0.2460937 0.527344,-0.5390625 z m 0,0"
       style="fill:#c9d1d9;fill-opacity:1;fill-rule:nonzero;stroke:none"
       aria-label="···"
       transform="matrix(1.3333333,0,0,1.3333333,274.60933,48.388)" />
    <g
       id="g17"
       aria-label="P(1+i)&#10;k"
       transform="matrix(1.3333333,0,0,1.3333333,335.53733,59.105333)">
      <path
         id="path18"
         d="M 0.35285938,1.015625e-4 H 1.1262969 L 1.6419219,-2.6248984 h 1.0546875 c 1.6640625,0 2.8476562,-0.7148438 2.8476562,-2.3203125 0,-1.1367188 -0.8085937,-1.59375 -2.0507812,-1.59375 H 1.6536406 Z M 1.7825469,-3.2577109 2.2981719,-5.9061484 h 1.0078125 c 0.9609375,0 1.4765625,0.3164062 1.4765625,1.0664062 0,1.0429688 -0.7148438,1.5820313 -2.0507813,1.5820313 z m 0,0"
         style="fill:#c9d1d9;fill-opacity:1;fill-rule:nonzero;stroke:none" />
      <path
         id="path19"
         d="m 8.7815703,2.3907266 c 0,-0.035156 0,-0.046875 -0.1640625,-0.2226563 -1.2421875,-1.25390624 -1.5703125,-3.12890624 -1.5703125,-4.6640625 0,-1.7226562 0.3867188,-3.4570312 1.6054688,-4.7109375 0.1289062,-0.1171875 0.1289062,-0.1289062 0.1289062,-0.1640625 0,-0.070312 -0.035156,-0.1054687 -0.09375,-0.1054687 -0.1054687,0 -0.9960937,0.6796875 -1.5820312,1.9453125 -0.515625,1.1015625 -0.6328125,2.203125 -0.6328125,3.0351562 0,0.7851563 0.1171875,1.99218751 0.65625,3.11718751 0.5976562,1.21874999 1.453125,1.87499999 1.5585937,1.87499999 0.058594,0 0.09375,-0.035156 0.09375,-0.1054687 z m 0,0"
         style="fill:#c9d1d9;fill-opacity:1;fill-rule:nonzero;stroke:none" />
      <path
         id="path20"
         d="m 11.028641,1.015625e-4 h 0.832031 V -6.3514609 h -0.644531 c -0.351563,0.2109375 -0.761719,0.3632812 -1.3476566,0.46875 v 0.5390625 h 1.1601566 z m 0,0"
         style="fill:#c9d1d9;fill-opacity:1;fill-rule:nonzero;stroke:none" />
      <path
         id="path21"
         d="m 19.343094,-2.2967734 h 2.777344 c 0.140625,0 0.328125,0 0.328125,-0.1992188 0,-0.1992187 -0.1875,-0.1992187 -0.328125,-0.1992187 h -2.777344 v -2.7890625 c 0,-0.1289063 0,-0.328125 -0.199219,-0.328125 -0.199219,0 -0.199219,0.1992187 -0.199219,0.328125 v 2.7890625 h -2.789062 c -0.140625,0 -0.328125,0 -0.328125,0.1992187 0,0.1992188 0.1875,0.1992188 0.328125,0.1992188 h 2.789062 v 2.80078121 c 0,0.12890625 0,0.328125 0.199219,0.328125 0.199219,0 0.199219,-0.19921875 0.199219,-0.328125 z m 0,0"
         style="fill:#c9d1d9;fill-opacity:1;fill-rule:nonzero;stroke:none" />
      <path
         id="path22"
         d="m 25.530594,1.015625e-4 h 0.773437 L 27.264969,-4.8397422 H 26.50325 Z M 27.124344,-5.8475547 c 0.316406,0 0.585937,-0.234375 0.585937,-0.5625 0,-0.2929687 -0.234375,-0.46875 -0.492187,-0.46875 -0.304688,0 -0.574219,0.2578125 -0.574219,0.5859375 0,0.28125 0.222656,0.4453125 0.480469,0.4453125 z m 0,0"
         style="fill:#c9d1d9;fill-opacity:1;fill-rule:nonzero;stroke:none" />
      <path
         id="path23"
         d="m 30.470047,-2.4959922 c 0,-0.7734375 -0.117188,-1.9804687 -0.65625,-3.1054687 -0.597656,-1.21875 -1.464844,-1.875 -1.558594,-1.875 -0.05859,0 -0.105469,0.046875 -0.105469,0.1054687 0,0.035156 0,0.046875 0.199219,0.234375 0.972656,0.984375 1.535156,2.5664063 1.535156,4.640625 0,1.71093751 -0.363281,3.45703126 -1.59375,4.7226563 -0.140625,0.1171875 -0.140625,0.1289062 -0.140625,0.1640625 0,0.058594 0.04687,0.1054687 0.105469,0.1054687 0.09375,0 0.996094,-0.6796875 1.582031,-1.94531249 0.503907,-1.1015625 0.632813,-2.20312501 0.632813,-3.04687501 z m 0,0"
         style="fill:#c9d1d9;fill-opacity:1;fill-rule:nonzero;stroke:none" />
      <path
         id="path24"
         d="m 31.674148,-4.1131797 h 0.539063 l 0.175781,-0.8554687 0.785156,-0.7851563 0.644532,1.640625 h 0.550781 l -0.808594,-1.96875 1.335938,-1.4179687 H 34.28743 l -1.734375,1.78125 h -0.01172 l 0.667969,-3.3632813 h -0.539063 z m 0,0"
         style="fill:#c9d1d9;fill-opacity:1;fill-rule:nonzero;stroke:none" />
    </g>
    <path
       id="path25"
       d="M 83.905,55.92 H 125.96"
       style="fill:none;stroke:#c9d1d9;stroke-width:0.3985;stroke-linecap:butt;stroke-linejoin:miter;stroke-miterlimit:10;stroke-dasharray:none;stroke-opacity:1"
       transform="matrix(1.3333333,0,0,-1.3333333,219.14667,117.31067)" />
    <path
       id="path26"
       d="M 84.105,37.975 V 55.92"
       style="fill:none;stroke:#c9d1d9;stroke-width:0.3985;stroke-linecap:butt;stroke-linejoin:miter;stroke-miterlimit:10;stroke-dasharray:none;stroke-opacity:1"
       transform="matrix(1.3333333,0,0,-1.3333333,219.14667,117.31067)" />
    <path
       id="path27"
       d="M 125.76,37.975 V 55.92"
       style="fill:none;stroke:#c9d1d9;stroke-width:0.3985;stroke-linecap:butt;stroke-linejoin:miter;stroke-miterlimit:10;stroke-dasharray:none;stroke-opacity:1"
       transform="matrix(1.3333333,0,0,-1.3333333,219.14667,117.31067)" />
    <path
       id="path28"
       d="M 83.905,37.975 H 125.96"
       style="fill:none;stroke:#c9d1d9;stroke-width:0.3985;stroke-linecap:butt;stroke-linejoin:miter;stroke-miterlimit:10;stroke-dasharray:none;stroke-opacity:1"
       transform="matrix(1.3333333,0,0,-1.3333333,219.14667,117.31067)" />
    <path
       id="path29"
       d="m -113.38724,0 c 19.14684,11.05438 37.5468,11.05438 54.04024,1.53189"
       style="fill:none;stroke:#c9d1d9;stroke-width:0.3985;stroke-linecap:butt;stroke-linejoin:miter;stroke-miterlimit:10;stroke-dasharray:none;stroke-opacity:1"
       transform="matrix(1.3333333,0,0,-1.3333333,207.87333,37.790667)" />
    <path
       id="path30"
       d="M 4.21463,0 0.6434,1.34573 1.8178,0 0.6434,-1.34573 Z"
       style="fill:#c9d1d9;fill-opacity:1;fill-rule:nonzero;stroke:#c9d1d9;stroke-width:0.3985;stroke-linecap:butt;stroke-linejoin:miter;stroke-miterlimit:10;stroke-dasharray:none;stroke-opacity:1"
       transform="matrix(1.15468,0.66664,0.66664,-1.15468,126.76005,34.60272)" />
    <g
       id="g30"
       aria-label="×(1+i)"
       transform="matrix(1.3333333,0,0,1.3333333,76.865333,19.718667)">
      <path
         id="path31"
         d="m 4.8881094,-3.2694688 c 0.070312,-0.082031 0.09375,-0.1171875 0.09375,-0.1640625 0,-0.1171875 -0.09375,-0.1757812 -0.1640625,-0.1757812 -0.070312,0 -0.09375,0.023437 -0.1757813,0.1054687 L 3.1068594,-1.992125 1.5717031,-3.5155625 c -0.058594,-0.070312 -0.09375,-0.09375 -0.1523437,-0.09375 -0.1054688,0 -0.1757813,0.070312 -0.1757813,0.1757812 0,0.058594 0.023437,0.082031 0.1054688,0.1640625 l 1.5234375,1.5234375 -1.5234375,1.5117188 c -0.09375,0.10546875 -0.1054688,0.140625 -0.1054688,0.17578125 0,0.10546875 0.070312,0.17578125 0.1757813,0.17578125 0.058594,0 0.082031,-0.0234375 0.1523437,-0.09375 l 1.5351563,-1.5351563 1.59375,1.59375005 C 4.7357656,0.10553125 4.7709219,0.11725 4.8177969,0.11725 c 0.070312,0 0.1640625,-0.05859375 0.1640625,-0.17578125 0,-0.05859375 -0.011719,-0.0703125 -0.035156,-0.08203125 -0.011719,-0.0351563 -1.3710937,-1.3828125 -1.59375,-1.6054688 z m 0,0"
         style="fill:#c9d1d9;fill-opacity:1;fill-rule:nonzero;stroke:none" />
      <path
         id="path32"
         d="m 8.6996328,-5.2265 c -1.3242187,0.9257812 -1.6757812,2.4140625 -1.6757812,3.4804687 0,0.98437505 0.2929687,2.50781255 1.6757812,3.4804688 0.058594,0 0.140625,0 0.140625,-0.082031 0,-0.046875 -0.023437,-0.058594 -0.070312,-0.1054687 -0.9257812,-0.83203125 -1.265625,-2.015625 -1.265625,-3.2929688 0,-1.875 0.7148438,-2.8007812 1.2890625,-3.3164062 0.023437,-0.023437 0.046875,-0.046875 0.046875,-0.082031 0,-0.082031 -0.082031,-0.082031 -0.1406255,-0.082032 z m 0,0"
         style="fill:#c9d1d9;fill-opacity:1;fill-rule:nonzero;stroke:none" />
      <path
         id="path33"
         d="m 10.501391,6.25e-5 h 0.585937 v -4.453125 h -0.445312 c -0.246094,0.1523437 -0.539063,0.2578125 -0.9492191,0.328125 v 0.375 h 0.8085941 z m 0,0"
         style="fill:#c9d1d9;fill-opacity:1;fill-rule:nonzero;stroke:none" />
      <path
         id="path34"
         d="m 16.958422,-1.57025 h 2.144531 c 0.08203,0 0.257813,0 0.257813,-0.1757813 0,-0.1757812 -0.164063,-0.1757812 -0.257813,-0.1757812 H 16.958422 V -4.054625 c 0,-0.09375 0,-0.2578125 -0.164063,-0.2578125 -0.175781,0 -0.175781,0.1523437 -0.175781,0.2578125 v 2.1328125 h -2.132812 c -0.09375,0 -0.257813,0 -0.257813,0.1757812 0,0.1757813 0.152344,0.1757813 0.257813,0.1757813 h 2.132812 v 2.1328125 c 0,0.09375 0,0.2578125 0.175781,0.2578125 0.164063,0 0.164063,-0.15234375 0.164063,-0.2578125 z m 0,0"
         style="fill:#c9d1d9;fill-opacity:1;fill-rule:nonzero;stroke:none" />
      <path
         id="path35"
         d="m 21.877367,6.25e-5 h 0.539063 l 0.679687,-3.3867188 h -0.539062 z m 1.125,-4.0898438 c 0.210938,0 0.398438,-0.1757812 0.398438,-0.3984375 0,-0.1992187 -0.164063,-0.328125 -0.339844,-0.328125 -0.210938,0 -0.410156,0.1757813 -0.410156,0.4101563 0,0.1992187 0.164062,0.3164062 0.351562,0.3164062 z m 0,0"
         style="fill:#c9d1d9;fill-opacity:1;fill-rule:nonzero;stroke:none" />
      <path
         id="path36"
         d="m 23.951586,-5.2265 c -0.05859,0 -0.140625,0 -0.140625,0.082031 0,0.035156 0.02344,0.058594 0.07031,0.1054688 0.597657,0.5507812 1.265625,1.4882812 1.265625,3.2929687 0,1.45312505 -0.457031,2.55468755 -1.207031,3.234375 -0.117187,0.1171875 -0.128906,0.1289063 -0.128906,0.1640625 0,0.035156 0.02344,0.082031 0.09375,0.082031 0.08203,0 0.75,-0.4570313 1.207031,-1.32421875 0.304688,-0.5859375 0.503906,-1.3359375 0.503906,-2.15625005 0,-0.984375 -0.292968,-2.5078125 -1.664062,-3.4804687 z m 0,0"
         style="fill:#c9d1d9;fill-opacity:1;fill-rule:nonzero;stroke:none" />
    </g>
    <path
       id="path37"
       d="m -56.69362,0 c 19.14684,11.05438 37.5468,11.05438 54.04024,1.53189"
       style="fill:none;stroke:#c9d1d9;stroke-width:0.3985;stroke-linecap:butt;stroke-linejoin:miter;stroke-miterlimit:10;stroke-dasharray:none;stroke-opacity:1"
       transform="matrix(1.3333333,0,0,-1.3333333,207.87333,37.790667)" />
    <path
       id="path38"
       d="M 4.21463,0 0.6434,1.34573 1.8178,0 0.6434,-1.34573 Z"
       style="fill:#c9d1d9;fill-opacity:1;fill-rule:nonzero;stroke:#c9d1d9;stroke-width:0.3985;stroke-linecap:butt;stroke-linejoin:miter;stroke-miterlimit:10;stroke-dasharray:none;stroke-opacity:1"
       transform="matrix(1.15468,0.66664,0.66664,-1.15468,202.35155,34.60272)" />
    <g
       id="g38"
       aria-label="×(1+i)"
       transform="matrix(1.3333333,0,0,1.3333333,152.45733,19.718667)">
      <path
         id="path39"
         d="m 4.8864922,-3.2694688 c 0.070312,-0.082031 0.09375,-0.1171875 0.09375,-0.1640625 0,-0.1171875 -0.09375,-0.1757812 -0.1640625,-0.1757812 -0.070312,0 -0.09375,0.023437 -0.1757813,0.1054687 L 3.1052422,-1.992125 1.5700859,-3.5155625 c -0.058594,-0.070312 -0.09375,-0.09375 -0.1523437,-0.09375 -0.1054688,0 -0.1757813,0.070312 -0.1757813,0.1757812 0,0.058594 0.023437,0.082031 0.1054688,0.1640625 l 1.5234375,1.5234375 -1.5234375,1.5117188 c -0.09375,0.10546875 -0.1054688,0.140625 -0.1054688,0.17578125 0,0.10546875 0.070312,0.17578125 0.1757813,0.17578125 0.058594,0 0.082031,-0.0234375 0.1523437,-0.09375 l 1.5351563,-1.5351563 1.59375,1.59375005 C 4.7341484,0.10553125 4.7693047,0.11725 4.8161797,0.11725 c 0.070312,0 0.1640625,-0.05859375 0.1640625,-0.17578125 0,-0.05859375 -0.011719,-0.0703125 -0.035156,-0.08203125 -0.011719,-0.0351563 -1.3710937,-1.3828125 -1.59375,-1.6054688 z m 0,0"
         style="fill:#c9d1d9;fill-opacity:1;fill-rule:nonzero;stroke:none" />
      <path
         id="path40"
         d="m 8.7009453,-5.2265 c -1.3242187,0.9257812 -1.6757812,2.4140625 -1.6757812,3.4804687 0,0.98437505 0.2929687,2.50781255 1.6757812,3.4804688 0.058594,0 0.140625,0 0.140625,-0.082031 0,-0.046875 -0.023437,-0.058594 -0.070312,-0.1054687 -0.9257812,-0.83203125 -1.265625,-2.015625 -1.265625,-3.2929688 0,-1.875 0.7148438,-2.8007812 1.2890625,-3.3164062 0.023437,-0.023437 0.046875,-0.046875 0.046875,-0.082031 0,-0.082031 -0.082031,-0.082031 -0.1406255,-0.082032 z m 0,0"
         style="fill:#c9d1d9;fill-opacity:1;fill-rule:nonzero;stroke:none" />
      <path
         id="path41"
         d="m 10.499773,6.25e-5 h 0.585938 v -4.453125 h -0.445313 c -0.246093,0.1523437 -0.539062,0.2578125 -0.9492183,0.328125 v 0.375 h 0.8085933 z m 0,0"
         style="fill:#c9d1d9;fill-opacity:1;fill-rule:nonzero;stroke:none" />
      <path
         id="path42"
         d="m 16.956805,-1.57025 h 2.144531 c 0.08203,0 0.257812,0 0.257812,-0.1757813 0,-0.1757812 -0.164062,-0.1757812 -0.257812,-0.1757812 H 16.956805 V -4.054625 c 0,-0.09375 0,-0.2578125 -0.164063,-0.2578125 -0.175781,0 -0.175781,0.1523437 -0.175781,0.2578125 v 2.1328125 h -2.132813 c -0.09375,0 -0.257812,0 -0.257812,0.1757812 0,0.1757813 0.152344,0.1757813 0.257812,0.1757813 h 2.132813 v 2.1328125 c 0,0.09375 0,0.2578125 0.175781,0.2578125 0.164063,0 0.164063,-0.15234375 0.164063,-0.2578125 z m 0,0"
         style="fill:#c9d1d9;fill-opacity:1;fill-rule:nonzero;stroke:none" />
      <path
         id="path43"
         d="m 21.87575,6.25e-5 h 0.539062 L 23.0945,-3.3866563 h -0.539063 z m 1.125,-4.0898438 c 0.210937,0 0.398437,-0.1757812 0.398437,-0.3984375 0,-0.1992187 -0.164062,-0.328125 -0.339843,-0.328125 -0.210938,0 -0.410157,0.1757813 -0.410157,0.4101563 0,0.1992187 0.164063,0.3164062 0.351563,0.3164062 z m 0,0"
         style="fill:#c9d1d9;fill-opacity:1;fill-rule:nonzero;stroke:none" />
      <path
         id="path44"
         d="m 23.949969,-5.2265 c -0.05859,0 -0.140625,0 -0.140625,0.082031 0,0.035156 0.02344,0.058594 0.07031,0.1054688 0.597656,0.5507812 1.265625,1.4882812 1.265625,3.2929687 0,1.45312505 -0.457031,2.55468755 -1.207031,3.234375 -0.117188,0.1171875 -0.128906,0.1289063 -0.128906,0.1640625 0,0.035156 0.02344,0.082031 0.09375,0.082031 0.08203,0 0.75,-0.4570313 1.207031,-1.32421875 0.304687,-0.5859375 0.503906,-1.3359375 0.503906,-2.15625005 0,-0.984375 -0.292969,-2.5078125 -1.664062,-3.4804687 z m 0,0"
         style="fill:#c9d1d9;fill-opacity:1;fill-rule:nonzero;stroke:none" />
    </g>
    <path
       id="path45"
       d="M 0,0 C 19.14682,11.05438 37.54678,11.05438 54.04022,1.53189"
       style="fill:none;stroke:#c9d1d9;stroke-width:0.3985;stroke-linecap:butt;stroke-linejoin:miter;stroke-miterlimit:10;stroke-dasharray:none;stroke-opacity:1"
       transform="matrix(1.3333333,0,0,-1.3333333,207.87333,37.790667)" />
    <path
       id="path46"
       d="M 4.21463,0 0.6434,1.34573 1.8178,0 0.6434,-1.34573 Z"
       style="fill:#c9d1d9;fill-opacity:1;fill-rule:nonzero;stroke:#c9d1d9;stroke-width:0.3985;stroke-linecap:butt;stroke-linejoin:miter;stroke-miterlimit:10;stroke-dasharray:none;stroke-opacity:1"
       transform="matrix(1.15468,0.66664,0.66664,-1.15468,277.94301,34.60272)" />
    <path
       id="path47"
       d="m 1.5811641,-1.7458672 c 0,-0.2460937 -0.2109375,-0.3984375 -0.3984375,-0.3984375 -0.22265629,0 -0.39843754,0.1875 -0.39843754,0.3984375 0,0.2460938 0.19921875,0.3984375 0.39843754,0.3984375 0.2226562,0 0.3984375,-0.1875 0.3984375,-0.3984375 z m 3.7236328,0 c 0,-0.2460937 -0.2109375,-0.3984375 -0.3984375,-0.3984375 -0.2226563,0 -0.3984375,0.1875 -0.3984375,0.3984375 0,0.2460938 0.1992187,0.3984375 0.3984375,0.3984375 0.2226562,0 0.3984375,-0.1875 0.3984375,-0.3984375 z m 3.7265625,0 c 0,-0.2460937 -0.2109375,-0.3984375 -0.3984375,-0.3984375 -0.2226563,0 -0.3984375,0.1875 -0.3984375,0.3984375 0,0.2460938 0.1992187,0.3984375 0.3984375,0.3984375 0.2226562,0 0.3984375,-0.1875 0.3984375,-0.3984375 z m 0,0"
       style="fill:#c9d1d9;fill-opacity:1;fill-rule:nonzero;stroke:none"
       aria-label="···"
       transform="matrix(1.3333333,0,0,1.3333333,238.216,22.042667)" />
    <path
       id="path48"
       d="M 56.69362,0 C 75.84044,11.05438 94.2404,11.05438 110.73384,1.53189"
       style="fill:none;stroke:#c9d1d9;stroke-width:0.3985;stroke-linecap:butt;stroke-linejoin:miter;stroke-miterlimit:10;stroke-dasharray:none;stroke-opacity:1"
       transform="matrix(1.3333333,0,0,-1.3333333,207.87333,37.790667)" />
    <path
       id="path49"
       d="M 4.21463,0 0.6434,1.34573 1.8178,0 0.6434,-1.34573 Z"
       style="fill:#c9d1d9;fill-opacity:1;fill-rule:nonzero;stroke:#c9d1d9;stroke-width:0.3985;stroke-linecap:butt;stroke-linejoin:miter;stroke-miterlimit:10;stroke-dasharray:none;stroke-opacity:1"
       transform="matrix(1.15468,0.66664,0.66664,-1.15468,353.53451,34.60272)" />
    <g
       id="g49"
       aria-label="×(1+i)"
       transform="matrix(1.3333333,0,0,1.3333333,303.64,19.718667)">
      <path
         id="path50"
         d="m 4.8871875,-3.2694688 c 0.070312,-0.082031 0.09375,-0.1171875 0.09375,-0.1640625 0,-0.1171875 -0.09375,-0.1757812 -0.1640625,-0.1757812 -0.070312,0 -0.09375,0.023437 -0.1757812,0.1054687 L 3.1059375,-1.992125 1.5707813,-3.5155625 c -0.058594,-0.070312 -0.09375,-0.09375 -0.1523438,-0.09375 -0.1054687,0 -0.1757812,0.070312 -0.1757812,0.1757812 0,0.058594 0.023437,0.082031 0.1054687,0.1640625 l 1.5234375,1.5234375 -1.5234375,1.5117188 c -0.09375,0.10546875 -0.1054687,0.140625 -0.1054687,0.17578125 0,0.10546875 0.070312,0.17578125 0.1757812,0.17578125 0.058594,0 0.082031,-0.0234375 0.1523438,-0.09375 l 1.5351562,-1.5351563 1.59375,1.59375005 C 4.7348438,0.10553125 4.77,0.11725 4.816875,0.11725 c 0.070312,0 0.1640625,-0.05859375 0.1640625,-0.17578125 0,-0.05859375 -0.011719,-0.0703125 -0.035156,-0.08203125 -0.011719,-0.0351563 -1.3710938,-1.3828125 -1.59375,-1.6054688 z m 0,0"
         style="fill:#c9d1d9;fill-opacity:1;fill-rule:nonzero;stroke:none" />
      <path
         id="path51"
         d="m 8.6987109,-5.2265 c -1.3242187,0.9257812 -1.6757812,2.4140625 -1.6757812,3.4804687 0,0.98437505 0.2929687,2.50781255 1.6757812,3.4804688 0.058594,0 0.140625,0 0.140625,-0.082031 0,-0.046875 -0.023437,-0.058594 -0.070312,-0.1054687 -0.9257812,-0.83203125 -1.265625,-2.015625 -1.265625,-3.2929688 0,-1.875 0.7148438,-2.8007812 1.2890625,-3.3164062 0.023437,-0.023437 0.046875,-0.046875 0.046875,-0.082031 0,-0.082031 -0.082031,-0.082031 -0.1406255,-0.082032 z m 0,0"
         style="fill:#c9d1d9;fill-opacity:1;fill-rule:nonzero;stroke:none" />
      <path
         id="path52"
         d="m 10.500469,6.25e-5 h 0.585937 v -4.453125 H 10.641094 C 10.395,-4.3007188 10.102031,-4.19525 9.691875,-4.1249375 v 0.375 h 0.808594 z m 0,0"
         style="fill:#c9d1d9;fill-opacity:1;fill-rule:nonzero;stroke:none" />
      <path
         id="path53"
         d="m 16.9575,-1.57025 h 2.144531 c 0.08203,0 0.257813,0 0.257813,-0.1757813 0,-0.1757812 -0.164063,-0.1757812 -0.257813,-0.1757812 H 16.9575 V -4.054625 c 0,-0.09375 0,-0.2578125 -0.164062,-0.2578125 -0.175782,0 -0.175782,0.1523437 -0.175782,0.2578125 v 2.1328125 h -2.132812 c -0.09375,0 -0.257813,0 -0.257813,0.1757812 0,0.1757813 0.152344,0.1757813 0.257813,0.1757813 h 2.132812 v 2.1328125 c 0,0.09375 0,0.2578125 0.175782,0.2578125 0.164062,0 0.164062,-0.15234375 0.164062,-0.2578125 z m 0,0"
         style="fill:#c9d1d9;fill-opacity:1;fill-rule:nonzero;stroke:none" />
      <path
         id="path54"
         d="m 21.876445,6.25e-5 h 0.539063 l 0.679687,-3.3867188 h -0.539062 z m 1.125,-4.0898438 c 0.210938,0 0.398438,-0.1757812 0.398438,-0.3984375 0,-0.1992187 -0.164063,-0.328125 -0.339844,-0.328125 -0.210937,0 -0.410156,0.1757813 -0.410156,0.4101563 0,0.1992187 0.164062,0.3164062 0.351562,0.3164062 z m 0,0"
         style="fill:#c9d1d9;fill-opacity:1;fill-rule:nonzero;stroke:none" />
      <path
         id="path55"
         d="m 23.950664,-5.2265 c -0.05859,0 -0.140625,0 -0.140625,0.082031 0,0.035156 0.02344,0.058594 0.07031,0.1054688 0.597656,0.5507812 1.265625,1.4882812 1.265625,3.2929687 0,1.45312505 -0.457032,2.55468755 -1.207032,3.234375 -0.117187,0.1171875 -0.128906,0.1289063 -0.128906,0.1640625 0,0.035156 0.02344,0.082031 0.09375,0.082031 0.08203,0 0.75,-0.4570313 1.207031,-1.32421875 0.304688,-0.5859375 0.503907,-1.3359375 0.503907,-2.15625005 0,-0.984375 -0.292969,-2.5078125 -1.664063,-3.4804687 z m 0,0"
         style="fill:#c9d1d9;fill-opacity:1;fill-rule:nonzero;stroke:none" />
    </g>
  </g>
</svg>
