<?xml version="1.0" encoding="UTF-8" standalone="no"?>
<!-- Created with Inkscape (http://www.inkscape.org/) -->

<svg
   version="1.1"
   id="svg1"
   width="340.16"
   height="340.16"
   viewBox="0 0 340.16 340.16"
   sodipodi:docname="MATH_118-59.pdf"
   xmlns:inkscape="http://www.inkscape.org/namespaces/inkscape"
   xmlns:sodipodi="http://sodipodi.sourceforge.net/DTD/sodipodi-0.dtd"
   xmlns="http://www.w3.org/2000/svg"
   xmlns:svg="http://www.w3.org/2000/svg">
  <defs
     id="defs1" />
  <sodipodi:namedview
     id="namedview1"
     pagecolor="#ffffff"
     bordercolor="#000000"
     borderopacity="0.25"
     inkscape:showpageshadow="2"
     inkscape:pageopacity="0.0"
     inkscape:pagecheckerboard="0"
     inkscape:deskcolor="#d1d1d1">
    <inkscape:page
       x="0"
       y="0"
       inkscape:label="1"
       id="page1"
       width="340.16"
       height="340.16"
       margin="0"
       bleed="0" />
  </sodipodi:namedview>
  <g
     id="g1"
     inkscape:groupmode="layer"
     inkscape:label="1">
    <path
       id="path1"
       d="M -113.38724,0 H 112.8891"
       style="fill:none;stroke:#c9d1d9;stroke-width:0.49814;stroke-linecap:butt;stroke-linejoin:miter;stroke-miterlimit:10;stroke-dasharray:none;stroke-opacity:1"
       transform="matrix(1.3333333,0,0,-1.3333333,170.07867,170.08133)" />
    <path
       id="path2"
       d="M -2.1918,2.57101 C -1.79137,1.02838 -0.89903,0.29994 0,0 -0.89903,-0.29994 -1.79137,-1.02838 -2.1918,-2.57101"
       style="fill:none;stroke:#c9d1d9;stroke-width:0.49814;stroke-linecap:round;stroke-linejoin:round;stroke-miterlimit:10;stroke-dasharray:none;stroke-opacity:1"
       transform="matrix(1.3333333,0,0,-1.3333333,320.92956,170.08133)" />
    <path
       id="path3"
       d="M 0,-113.38724 V 112.8891"
       style="fill:none;stroke:#c9d1d9;stroke-width:0.49814;stroke-linecap:butt;stroke-linejoin:miter;stroke-miterlimit:10;stroke-dasharray:none;stroke-opacity:1"
       transform="matrix(1.3333333,0,0,-1.3333333,170.07867,170.08133)" />
    <path
       id="path4"
       d="M -2.1918,2.57101 C -1.79137,1.02838 -0.89903,0.29994 0,0 -0.89903,-0.29994 -1.79137,-1.02838 -2.1918,-2.57101"
       style="fill:none;stroke:#c9d1d9;stroke-width:0.49814;stroke-linecap:round;stroke-linejoin:round;stroke-miterlimit:10;stroke-dasharray:none;stroke-opacity:1"
       transform="matrix(0,-1.3333333,-1.3333333,0,170.07867,19.23044)" />
    <path
       id="path5"
       d="m 0,0 0.22707,2.56537 0.22708,1.06576 0.22709,0.76561 0.22707,0.73703 0.22708,0.55841 0.2271,0.52726 0.22706,0.49311 0.2271,0.54975 0.22708,0.39966 0.22707,0.39144 0.2271,0.37675 0.22708,0.36592 0.22708,0.35424 0.22708,0.34301 0.22708,0.33177 0.2271,0.44507 0.22706,0.28634 0.22708,0.28029 0.2271,0.27812 0.22707,0.27207 0.22709,0.26904 0.22708,0.26645 0.22707,0.26082 0.2271,0.25821 0.22708,0.25218 0.22708,0.24654 0.22708,0.24655 0.22708,0.23834 0.2271,0.23789 0.22706,0.23269 0.22709,0.22969 0.22709,0.22666 0.22707,0.221 0.2271,0.22104 0.22708,0.2154 0.22706,0.21281 0.2271,0.20978 0.22708,0.20675 0.22708,0.20417 0.22708,0.20112 0.22708,0.20157 0.22709,0.19552 0.22708,0.19549 0.22708,0.19291 0.22709,0.18989 0.22707,0.18685 0.2271,0.18731 0.22708,0.18425 0.22706,0.18122 0.2271,0.17864 0.22708,0.17865 0.22708,0.17863 0.22708,0.17301 0.22709,0.17561 0.22708,0.17 0.22708,0.16998 0.22708,0.17041 0.2271,0.16698 0.22706,0.16435 0.2271,0.16481 0.22708,0.16437 0.22707,0.16133 0.22709,0.16177 0.22708,0.15874 0.22709,0.15874 0.22708,0.15572 0.22708,0.15614 0.22708,0.15312 0.22708,0.15269 0.22708,0.15311 0.2271,0.15053 0.22706,0.15009 0.2271,0.1501 0.22709,0.14749 0.22706,0.14749 0.2271,0.14447 0.22708,0.14749 0.22708,0.14188 0.22708,0.14447 0.22708,0.14186 0.22708,0.14143 0.22708,0.14189 0.22708,0.13884 0.22708,0.13885 0.22709,0.13885 0.22709,0.13623 0.22708,0.13583 0.22707,0.13625 0.2271,0.13322 0.22708,0.13625 0.22708,0.13322 0.22708,0.13019 0.22708,0.13321 0.22708,0.13063 0.22708,0.1302 0.22709,0.13063 0.22708,0.13019 0.22708,0.1276 0.2271,0.1276 0.22708,0.1276 0.22706,0.12761 0.2271,0.12456 0.22708,0.12458 0.22708,0.12499 0.22708,0.12459 0.22708,0.12196 0.22708,0.12457 0.22709,0.12197 0.22708,0.12197 0.22708,0.122 0.22708,0.11893 0.2271,0.11895 0.22708,0.12198 0.22706,0.11894 0.2271,0.11637 0.22708,0.11894 0.22708,0.11635 0.22709,0.11636 0.22708,0.11894 0.22708,0.11593 0.22708,0.11636 0.22708,0.11331 0.22708,0.11333 0.22708,0.11636 0.2271,0.11546 0.22707,0.11292 0.22708,0.11288 0.22709,0.11246 0.22708,0.11159 0.22708,0.1116 0.22709,0.11116 0.22708,0.11031 0.22708,0.11029 0.22708,0.10986 0.22708,0.10899 0.22709,0.10901 0.22708,0.10857 0.22709,0.10857 0.22707,0.10727 0.22708,0.10769 0.2271,0.10727 0.22708,0.10555 0.22708,0.10727 0.22708,0.10553 0.22708,0.10554 0.22708,0.10512 0.22708,0.10466 0.22708,0.10468 0.22709,0.10381 0.22708,0.10424 0.22709,0.10338 0.22707,0.10295 0.22708,0.10293 0.2271,0.10253 0.22708,0.10163 0.22708,0.10164 0.22708,0.10166 0.22708,0.10034 0.22709,0.10123 0.22708,0.10034 0.22708,0.10034 0.22708,0.09993 0.22708,0.09862 0.2271,0.0999 0.22706,0.09819 0.22708,0.09906 0.2271,0.09818 0.22707,0.09818 0.22709,0.09777 0.22708,0.09775 0.22709,0.09687 0.22708,0.09647 0.22708,0.09689 0.22708,0.0956 0.22708,0.09645 0.22708,0.09645 0.2271,0.09473 0.22706,0.09472 0.22709,0.09517 0.22709,0.09514 0.22707,0.09473 0.2271,0.09387 0.22708,0.09385 0.22708,0.09299 0.22708,0.09343 0.22708,0.09344 0.22708,0.09257 0.22708,0.09341 0.22708,0.09128 0.2271,0.09343 0.22707,0.09125 0.22708,0.0917 0.22709,0.09084 0.22707,0.09126 0.2271,0.09213 0.22708,0.08911 0.22706,0.09171 0.2271,0.08952 0.22708,0.08997 0.22708,0.08954 0.22708,0.09039 0.22709,0.08996 0.22709,0.08825 0.22707,0.08867 0.22708,0.08909 0.2271,0.08782 0.22706,0.08824 0.2271,0.08824 0.22708,0.08867 0.22707,0.08694 0.22709,0.0878 0.22708,0.08563 0.22709,0.08868 0.22708,0.08607 0.22708,0.08651 0.22709,0.08738 0.22707,0.08522 0.22708,0.08735 0.2271,0.08435 0.22706,0.08565 0.2271,0.08478 0.22709,0.08607 0.22706,0.08564 0.2271,0.08349 0.22708,0.08521 0.22708,0.0852 0.22708,0.08391 0.22708,0.08565 0.2271,0.08174 0.22706,0.08392 0.22708,0.08176 0.2271,0.08649 0.22707,0.08046 0.22709,0.08348 0.22708,0.08563 0.22707,0.08047 0.2271,0.0826 0.22708,0.08133 0.22706,0.08348 0.2271,0.08044 0.22708,0.08219 0.2271,0.08261 0.22707,0.07829 0.22708,0.08478 0.2271,0.07916 0.22706,0.08174 0.2271,0.07828 0.22708,0.08306 0.22706,0.08131 0.2271,0.08176 0.22708,0.08088 0.22707,0.08002 0.22709,0.07914 0.22708,0.08004 0.2271,0.07957 0.22707,0.07961 0.22708,0.07872 0.2271,0.07957 0.22706,0.07829 0.2271,0.07874 0.22708,0.07828 0.22706,0.07915 0.2271,0.07786 0.22708,0.0783 0.22707,0.07785 0.2271,0.07829 0.22708,0.07699 0.2271,0.0783 0.22706,0.07742 0.22708,0.07698 0.2271,0.07657 0.22706,0.07698 0.2271,0.07655 0.22708,0.07701 0.22707,0.077 0.22709,0.07655 0.22708,0.07611 0.22707,0.07615 0.2271,0.07655 0.22708,0.07526 0.22708,0.07482 0.22708,0.07656 0.22708,0.07614 0.2271,0.07396 0.22707,0.0757 0.22709,0.07525 0.22708,0.07483 0.22707,0.07483 0.2271,0.07483 0.22708,0.07483 0.22706,0.0744 0.2271,0.07396 0.22708,0.07396 0.22708,0.07398 0.22708,0.0744 0.22708,0.07353 0.2271,0.07353 0.22707,0.07353 0.22709,0.07352 0.22709,0.07353 0.22706,0.07311 0.2271,0.07311 0.22708,0.07395 0.22707,0.07179 0.22709,0.07311 0.22708,0.07266 0.22709,0.07181 0.22708,0.07266 0.22708,0.07266 0.22709,0.07181 0.22707,0.07179 0.2271,0.07137 0.22708,0.07225 0.22706,0.07222 0.2271,0.07008 0.22708,0.07135 0.22706,0.07183 0.2271,0.07049 0.22709,0.07137 0.22708,0.0718 0.22708,0.0705 0.22708,0.07094 0.22708,0.07008 0.22708,0.07135 0.2271,0.07096 0.22708,0.0692 0.22707,0.07007 0.22709,0.07049 0.22708,0.07051 0.22707,0.06833 0.2271,0.07138 0.22708,0.06921 0.22708,0.06878 0.22708,0.06962 0.22708,0.06921 0.22708,0.06877 0.22708,0.0692 0.2271,0.07009 0.22708,0.06834 0.22707,0.07007 0.22709,0.06834 0.22709,0.06835 0.22706,0.06833 0.2271,0.06791 0.22708,0.06877 0.22708,0.06878 0.22708,0.06747 0.22708,0.06748 0.22708,0.06921 0.22709,0.06703 0.22709,0.06749 0.22708,0.06877 0.22707,0.06705 0.2271,0.06746 0.22708,0.06706 0.22706,0.06703 0.2271,0.06748 0.22708,0.06791 0.22708,0.06661 0.22708,0.0666 0.22709,0.06618 0.22708,0.06749 0.22708,0.0666 0.22709,0.06618 0.22707,0.06705 0.22708,0.06617 0.2271,0.06574 0.22708,0.06575 0.22708,0.06618 0.22709,0.06662 0.22707,0.06531 0.22709,0.06619 0.22708,0.06703 0.22708,0.06403 0.22708,0.06488 0.22708,0.06703 0.2271,0.06444 0.22706,0.06575 0.22708,0.06575 0.2271,0.06402 0.22708,0.06661 0.22708,0.06358 0.22708,0.06575 0.22709,0.06401 0.22708,0.06359 0.22708,0.06486 0.22708,0.06575 0.22708,0.0636 0.22708,0.06401 0.2271,0.06618 0.22707,0.06273 0.22708,0.06314 0.2271,0.06401 0.22706,0.06531 0.2271,0.06359 0.22708,0.06315 0.22708,0.06445 0.22708,0.06314 0.22708,0.06317 0.22708,0.06357 0.22708,0.06488 0.22708,0.06273 0.2271,0.0627 0.22707,0.06402 0.22708,0.0623 0.2271,0.0627 0.22706,0.06273 0.2271,0.06357 0.22708,0.0623 0.22708,0.06271 0.22708,0.06314 0.22708,0.06186 0.22708,0.06316 0.22709,0.06099 0.22708,0.06401 0.2271,0.06142 0.22706,0.06143 0.22708,0.06443 0.2271,0.061 0.22706,0.06141 0.2271,0.06056 0.22708,0.06359 0.22708,0.06012 0.22708,0.06054 0.22709,0.06446 0.22707,0.06142 0.22709,0.05926 0.22708,0.06271 0.2271,0.06229 0.22706,0.05926 0.22708,0.06055 0.2271,0.06272 0.22707,0.061 0.22709,0.06055 0.22708,0.05838 0.22707,0.06447 0.2271,0.05925 0.22708,0.06011 0.22708,0.06229 0.22708,0.05926 0.22708,0.06013 0.2271,0.05967 0.22706,0.06273 0.22708,0.05882 0.2271,0.05927 0.22707,0.06099 0.22709,0.06097 0.22709,0.05797 0.22706,0.05797 0.2271,0.06184 0.22708,0.06012 0.22708,0.0597 0.22708,0.06054 0.22708,0.05927 0.2271,0.05839 0.22707,0.06143 0.22708,0.05794 0.22709,0.05884 0.22707,0.05797 0.2271,0.06054 0.22708,0.05883 0.22706,0.0571 0.2271,0.06228 0.22708,0.06012 0.22708,0.05667 0.22708,0.0571 0.22709,0.06142 0.22709,0.05665 0.22707,0.0597 0.22708,0.06141 0.2271,0.05538 0.22706,0.05751 0.2271,0.0571 0.22708,0.06141 0.22707,0.0584 0.22709,0.05622 0.22708,0.06142 0.22707,0.05625 0.2271,0.05623 0.22708,0.05752 0.22709,0.05925 0.22707,0.05754 0.22708,0.05709 0.2271,0.06012 0.22706,0.05667 0.2271,0.05363 0.22708,0.05795 0.22707,0.06057 0.22709,0.05665 0.22709,0.05625 0.22706,0.05925 0.2271,0.05578 0.22708,0.05754 0.2271,0.05319 0.22706,0.06316 0.22708,0.05451 0.2271,0.05623 0.22707,0.05837 -0.7408,-0.18055"
       style="fill:none;stroke:#b39af0;stroke-width:0.99628;stroke-linecap:butt;stroke-linejoin:miter;stroke-miterlimit:10;stroke-dasharray:none;stroke-opacity:1"
       transform="matrix(1.3333333,0,0,-1.3333333,170.07867,170.08133)" />
    <path
       id="path6"
       d="M -2.78957,3.47087 C -2.27992,1.38832 -1.14423,0.40492 0,0 -1.14423,-0.40492 -2.27992,-1.38832 -2.78957,-3.47087"
       style="fill:none;stroke:#b39af0;stroke-width:0.99628;stroke-linecap:round;stroke-linejoin:round;stroke-miterlimit:10;stroke-dasharray:none;stroke-opacity:1"
       transform="matrix(1.2953467,-0.31576,-0.31576,-1.2953467,320.51889,94.68176)" />
  </g>
</svg>
