<svg xmlns="http://www.w3.org/2000/svg" xmlns:xlink="http://www.w3.org/1999/xlink" xmlns:inkscape="http://www.inkscape.org/namespaces/inkscape" version="1.1" width="215.5" height="180.45" viewBox="0 0 215.5 180.45">
<defs>
<path id="font_0_33" d="M.09599304 0H.1789856V.41932679H.2809906V.48632813H.1789856V.5620117C.1789856 .62376406 .20098877 .65663149 .24699402 .65663149 .2639923 .65663149 .28199769 .6526489 .30099488 .6466675L.31900025 .70762637C.29899598 .716629 .2679901 .7236328 .23799134 .7236328 .14099121 .7236328 .09599304 .6606293 .09599304 .5620117V.48632813L.02999878 .48132325V.41932679H.09599304V0Z"/>
<path id="font_0_1305" d="M.21398926-.17578125 .2649994-.15179444C.18798828-.024795533 .15098572 .12620545 .15098572 .2782135 .15098572 .4302063 .18798828 .5812073 .2649994 .7082062L.21398926 .73220828C.1309967 .59820559 .08198547 .45420838 .08198547 .2782135 .08198547 .10221863 .1309967-.041793825 .21398926-.17578125Z"/>
<path id="font_0_51" d="M.01399231 0H.100997928L.1659851 .11306763C.18299866 .14208985 .19898987 .17210388 .21499634 .20013428H.21899414C.23699951 .17210388 .25498963 .14208985 .27198792 .11306763L.34298707 0H.43299867L.2749939 .24516297 .42199708 .48632813H.33499146L.27598573 .38024903C.26098634 .3532257 .24699402 .32621766 .23199463 .29919435H.22799683C.21199036 .32621766 .19599915 .3532257 .18099976 .38024903L.115997318 .48632813H.025985718L.17298889 .25416566 .01399231 0Z"/>
<path id="font_0_1306" d="M.08999634-.17578125C.17298889-.041793825 .22200012 .10221863 .22200012 .2782135 .22200012 .45420838 .17298889 .59820559 .08999634 .73220828L.037994386 .7082062C.114990238 .5812073 .15299988 .4302063 .15299988 .2782135 .15299988 .12620545 .114990238-.024795533 .037994386-.15179444L.08999634-.17578125Z"/>
<path id="font_0_6" d="M.08999634 0H.47799684V.070999149H.17399597V.3088684H.42199708V.3798828H.17399597V.5852356H.46798707V.65625H.08999634V0Z"/>
<path id="font_0_49" d="M.18699646 0H.28399659L.45599366 .48632813H.37399293L.2829895 .21110535C.2679901 .16307068 .2519989 .11402893 .23799134 .066986087H.23399353C.21899414 .11402893 .20399475 .16307068 .18899536 .21110535L.09799194 .48632813H.011993408L.18699646 0Z"/>
<path id="font_0_32" d="M.27799989-.01171875C.34498597-.01171875 .39698792 .008270264 .43899537 .038269044L.4099884 .09124756C.37599183 .06826782 .33499146 .055267335 .28799439 .055267335 .19599915 .055267335 .1349945 .12123108 .12799073 .22114563H.45498658C.45799256 .2371521 .45899964 .2521515 .45899964 .2701416 .45899964 .41004945 .3880005 .49804688 .2639923 .49804688 .15299988 .49804688 .04598999 .401062 .04598999 .2431488 .04598999 .08226013 .147995-.01171875 .27799989-.01171875M.12799073 .28515626C.13798523 .37808229 .19799805 .43203736 .2659912 .43203736 .33999635 .43203736 .3849945 .381073 .3849945 .28515626H.12799073Z"/>
<path id="font_0_45" d="M.08198547 0H.16499329V.31202699C.19799805 .3940277 .24699402 .42303468 .28799439 .42303468 .30699159 .42303468 .31799317 .42103578 .33198548 .41703797L.34999085 .48828126C.33499146 .4950409 .31999208 .49804688 .2979889 .49804688 .24398804 .49804688 .19400025 .4590454 .1599884 .39804078H.15699768L.1499939 .48632813H.08198547V0Z"/>
<path id="font_0_52" d="M.09098816-.20898438C.18798828-.20898438 .23899842-.13598633 .272995-.03994751L.45599366 .48632813H.375L.28799439 .21818543C.2749939 .1751709 .26098634 .12513733 .24798584 .08111572H.24398804C.22799683 .12614441 .21199036 .17616272 .19599915 .21818543L.09799194 .48632813H.011993408L.20698548-.00093078616 .19599915-.03694153C.17599488-.096969608 .14099121-.13999939 .08699036-.13999939 .07499695-.13999939 .06298828-.13798523 .050994874-.13398743L.032989503-.19898987C.04899597-.20498657 .067993167-.20898438 .09098816-.20898438Z"/>
<path id="font_0_47" d="M.23498535-.01171875C.2679901-.01171875 .30099488-.0027313233 .32699586 .009277344L.30999757 .06826782C.2899933 .059280397 .27198792 .056274415 .2539978 .056274415 .19898987 .056274415 .1789856 .090270999 .1789856 .14929199V.41932679H.31098939V.48632813H.1789856V.6423187H.10998535L.099990848 .48632813 .023986817 .48132325V.41932679H.09599304V.1512909C.09599304 .054275514 .1309967-.01171875 .23498535-.01171875Z"/>
<path id="font_0_35" d="M.08198547 0H.16499329V.35203553C.21299744 .4010315 .24798584 .42604066 .29699708 .42604066 .36099244 .42604066 .3889923 .388031 .3889923 .2970276V0H.47200013V.30802918C.47200013 .43203736 .42599488 .49804688 .32299806 .49804688 .2559967 .49804688 .20698548 .46203614 .1619873 .4180298L.16499329 .51802065V.71191409H.08198547V0Z"/>
<path id="font_0_36" d="M.08198547 0H.16499329V.48632813H.08198547V0M.12399292 .5863342C.1559906 .5863342 .1789856 .6073303 .1789856 .6403351 .1789856 .67233279 .1559906 .69433596 .12399292 .69433596 .09199524 .69433596 .068984989 .67233279 .068984989 .6403351 .068984989 .6073303 .09199524 .5863342 .12399292 .5863342Z"/>
<path id="font_0_41" d="M.08198547 0H.16499329V.35203553C.21299744 .4010315 .24798584 .42604066 .29699708 .42604066 .36099244 .42604066 .3889923 .388031 .3889923 .2970276V0H.47200013V.30802918C.47200013 .43203736 .42599488 .49804688 .32299806 .49804688 .2559967 .49804688 .20599365 .46203614 .1599884 .41603089H.15699768L.1499939 .48632813H.08198547V0Z"/>
<path id="font_0_34" d="M.24598694-.22363281C.39698792-.22363281 .49198915-.1456604 .49198915-.054763795 .49198915 .025177002 .43499757 .061172487 .32199098 .061172487H.22799683C.16299439 .061172487 .14299011 .08320618 .14299011 .11323547 .14299011 .14027405 .1559906 .15629578 .17399597 .17129517 .19599915 .16029358 .22200012 .15429688 .24598694 .15429688 .34498597 .15429688 .42399598 .21928406 .42399598 .32330323 .42399598 .36431886 .4079895 .40031434 .3849945 .4223175H.48399354V.48632813H.31498719C.29699708 .493042 .272995 .49804688 .24598694 .49804688 .14698792 .49804688 .06298828 .43104554 .06298828 .3251648 .06298828 .26722718 .09399414 .22027588 .12599182 .19429016V.19029236C.100997928 .17329407 .07299805 .14128113 .07299805 .10021973 .07299805 .062179567 .09199524 .03617859 .115997318 .0211792V.017181397C.07199097-.012817383 .04499817-.05177307 .04499817-.09272766 .04499817-.17663574 .1269989-.22363281 .24598694-.22363281M.24598694 .21029663C.18998719 .21029663 .14299011 .25424195 .14299011 .3251648 .14299011 .39608766 .18899536 .43803407 .24598694 .43803407 .30299378 .43803407 .34899903 .39508058 .34899903 .3251648 .34899903 .25424195 .3019867 .21029663 .24598694 .21029663M.2579956-.16563416C.16999817-.16563416 .116989139-.13371277 .116989139-.081832889 .116989139-.053894044 .13198853-.02494812 .16699219 0 .18798828-.0058135988 .21099854-.0078125 .22999573-.0078125H.31298829C.3769989-.0078125 .41099549-.02279663 .41099549-.06774902 .41099549-.117752078 .34999085-.16563416 .2579956-.16563416Z"/>
<path id="font_0_46" d="M.20899964-.01171875C.32398988-.01171875 .3869934 .054275514 .3869934 .13322449 .3869934 .22117615 .31399537 .2541504 .23799134 .28112794 .1769867 .30212403 .1349945 .32011415 .1349945 .36408998 .1349945 .40005494 .1619873 .43403626 .22399903 .43403626 .2669983 .43403626 .3019867 .42004396 .33599855 .3950653L.37399293 .44303895C.33599855 .47503663 .28399659 .49804688 .22299195 .49804688 .116989139 .49804688 .054992677 .43803407 .054992677 .36009217 .054992677 .2801361 .125 .24516297 .19799805 .21917725 .25299073 .19918823 .30699159 .17819214 .30699159 .12823487 .30699159 .086257938 .27598573 .053268434 .21199036 .053268434 .1519928 .053268434 .10798645 .071258548 .06599426 .10624695L.027999878 .058273317C.07299805 .014266968 .13798523-.01171875 .20899964-.01171875Z"/>
<path id="font_0_31" d="M.24798584-.01171875C.30499269-.01171875 .35699464 .02027893 .394989 .057266237H.397995L.40499879 0H.47299195V.71191409H.3899994V.5250244L.3939972 .44203187C.35099793 .47703553 .31399537 .49804688 .2579956 .49804688 .14698792 .49804688 .04699707 .40003968 .04699707 .24201966 .04699707 .08026123 .12599182-.01171875 .24798584-.01171875M.2659912 .058273317C.18099976 .058273317 .1329956 .12722779 .1329956 .2431488 .1329956 .3540802 .19499207 .42803956 .27198792 .42803956 .31199647 .42803956 .34899903 .41503907 .3899994 .37806703V.12423706C.34999085 .08026123 .31098939 .058273317 .2659912 .058273317Z"/>
<path id="font_0_43" d="M.08198547-.20507813H.16499329V-.040786745L.16299439 .044281007C.20698548 .009277344 .25299073-.01171875 .29699708-.01171875 .4079895-.01171875 .5079956 .085250858 .5079956 .2501526 .5079956 .401062 .43998719 .49804688 .31498719 .49804688 .25898744 .49804688 .20399475 .46704103 .1599884 .43003846H.15699768L.1499939 .48632813H.08198547V-.20507813M.2829895 .058273317C.25099183 .058273317 .20899964 .0712738 .16499329 .10827637V.3620758C.21199036 .40605165 .25299073 .42803956 .2939911 .42803956 .3849945 .42803956 .42199708 .35708619 .42199708 .2501526 .42199708 .13027954 .36299134 .058273317 .2829895 .058273317Z"/>
<path id="font_0_28" d="M.19400025-.01171875C.25498963-.01171875 .30799867 .01927185 .35398866 .058273317H.35699464L.36499024 0H.43299867V.2990265C.43299867 .41903688 .38198854 .49804688 .2639923 .49804688 .18598938 .49804688 .117996219 .4650421 .07299805 .43504334L.10499573 .37902833C.14299011 .40403749 .19400025 .42904664 .25 .42904664 .32899476 .42904664 .34899903 .37002564 .34999085 .309021 .14199829 .286026 .051986696 .23402405 .051986696 .12600708 .051986696 .038269044 .11299133-.01171875 .19400025-.01171875M.21699524 .056274415C.16999817 .056274415 .1329956 .07725525 .1329956 .13122559 .1329956 .19418335 .18598938 .23117066 .34999085 .2501526V.11824036C.30299378 .07725525 .2639923 .056274415 .21699524 .056274415Z"/>
<path id="font_1_36" d="M.06298828 0H.21699524V.4970703H.06298828V0M.13999939 .5673828C.19099427 .5673828 .22698975 .5983734 .22698975 .6473694 .22698975 .69537356 .19099427 .7263794 .13999939 .7263794 .08898926 .7263794 .052993776 .69537356 .052993776 .6473694 .052993776 .5983734 .08898926 .5673828 .13999939 .5673828Z"/>
<path id="font_1_41" d="M.06298828 0H.21699524V.3330536C.24798584 .36105348 .2689972 .37806703 .3039856 .37806703 .34399415 .37806703 .3619995 .35705567 .3619995 .28804017V0H.5169983V.30804444C.5169983 .43177796 .47099305 .50878909 .36299134 .50878909 .29499818 .50878909 .24499512 .47477723 .20399475 .43478395H.19999695L.18899536 .4970703H.06298828V0Z"/>
<path id="font_1_43" d="M.06298828-.18173218H.21699524V-.037719728L.21199036 .039276124C.24699402 .0062713625 .28599549-.01171875 .32899476-.01171875 .43598939-.01171875 .5369873 .08627319 .5369873 .25720216 .5369873 .40977479 .46299745 .50878909 .34298707 .50878909 .2919922 .50878909 .24198914 .4837799 .20399475 .44877626H.19999695L.18899536 .4970703H.06298828V-.18173218M.2919922 .11528015C.2679901 .11528015 .24198914 .12226868 .21699524 .14425659V.34109498C.24398804 .3700714 .2679901 .38305665 .29699708 .38305665 .35198976 .38305665 .37799073 .34210206 .37799073 .25515748 .37799073 .1542511 .33999635 .11528015 .2919922 .11528015Z"/>
<path id="font_1_48" d="M.21299744-.01171875C.27999879-.01171875 .32699586 .01927185 .36799623 .06826782H.37199403L.3829956 0H.5089874V.4970703H.35398866V.17124939C.32699586 .13426209 .30599977 .120269779 .2709961 .120269779 .23098755 .120269779 .21299744 .14025879 .21299744 .20922852V.4970703H.057998659V.1892395C.057998659 .0652771 .10398865-.01171875 .21299744-.01171875Z"/>
<path id="font_1_47" d="M.2579956-.01171875C.30699159-.01171875 .34498597-.0017242432 .37098695 .008270264L.34700013 .11627197C.33399964 .11126709 .31698609 .10926819 .30099488 .10926819 .2639923 .10926819 .23799134 .13026428 .23799134 .18621826V.37606813H.35499574V.4970703H.23799134V.6490631H.10998535L.09199524 .4970703 .015991211 .49206544V.37606813H.08299255V.18421936C.08299255 .067276 .13398743-.01171875 .2579956-.01171875Z"/>
<path id="font_0_21" d="M.22599793 0H.30999757V.5852356H.5089874V.65625H.027999878V.5852356H.22599793V0Z"/>
<path id="font_0_42" d="M.2709961-.01171875C.3899994-.01171875 .49699403 .08125305 .49699403 .24215698 .49699403 .4050598 .3899994 .49804688 .2709961 .49804688 .1519928 .49804688 .04598999 .4050598 .04598999 .24215698 .04598999 .08125305 .1519928-.01171875 .2709961-.01171875M.2709961 .057266237C.18798828 .057266237 .13198853 .13122559 .13198853 .24215698 .13198853 .35409547 .18798828 .42904664 .2709961 .42904664 .35499574 .42904664 .41099549 .35409547 .41099549 .24215698 .41099549 .13122559 .35499574 .057266237 .2709961 .057266237Z"/>
<path id="font_1_42" d="M.27799989-.01171875C.40499879-.01171875 .5219879 .08427429 .5219879 .24902344 .5219879 .41378785 .40499879 .50878909 .27799989 .50878909 .1519928 .50878909 .034988405 .41378785 .034988405 .24902344 .034988405 .08427429 .1519928-.01171875 .27799989-.01171875M.27799989 .11328125C.21998596 .11328125 .19299317 .16618347 .19299317 .24902344 .19299317 .33087159 .21998596 .38478089 .27799989 .38478089 .33599855 .38478089 .36299134 .33087159 .36299134 .24902344 .36299134 .16618347 .33599855 .11328125 .27799989 .11328125Z"/>
</defs>
<use data-text="f" xlink:href="#font_0_33" transform="matrix(119.5517,0,0,-119.5517,3.3190003,120.594)" fill="#c9d1d9"/>
<use data-text="(" xlink:href="#font_0_1305" transform="matrix(119.5517,0,0,-119.5517,38.228097,120.594)" fill="#c9d1d9"/>
<use data-text="x" xlink:href="#font_0_51" transform="matrix(119.5517,0,0,-119.5517,98.3626,120.594)" fill="#c9d1d9"/>
<use data-text=")" xlink:href="#font_0_1306" transform="matrix(119.5517,0,0,-119.5517,175.71256,120.594)" fill="#c9d1d9"/>
<path transform="matrix(1,0,0,-1,107.749,87.358)" stroke-width="1.99255" stroke-linecap="butt" stroke-miterlimit="10" stroke-linejoin="miter" fill="none" stroke="#245fcd" d="M-28.3468-31.18166V-39.68535H62.36288V-31.18166"/>
<use data-text="E" xlink:href="#font_0_6" transform="matrix(9.9626,0,0,-9.9626,12.286003,174.899)" fill="#c9d1d9"/>
<use data-text="v" xlink:href="#font_0_49" transform="matrix(9.9626,0,0,-9.9626,17.436669,174.899)" fill="#c9d1d9"/>
<use data-text="e" xlink:href="#font_0_32" transform="matrix(9.9626,0,0,-9.9626,22.059315,174.899)" fill="#c9d1d9"/>
<use data-text="r" xlink:href="#font_0_45" transform="matrix(9.9626,0,0,-9.9626,27.000763,174.899)" fill="#c9d1d9"/>
<use data-text="y" xlink:href="#font_0_52" transform="matrix(9.9626,0,0,-9.9626,30.706849,174.899)" fill="#c9d1d9"/>
<use data-text="t" xlink:href="#font_0_47" transform="matrix(9.9626,0,0,-9.9626,35.369348,174.899)" fill="#c9d1d9"/>
<use data-text="h" xlink:href="#font_0_35" transform="matrix(9.9626,0,0,-9.9626,38.74667,174.899)" fill="#c9d1d9"/>
<use data-text="i" xlink:href="#font_0_36" transform="matrix(9.9626,0,0,-9.9626,44.16632,174.899)" fill="#c9d1d9"/>
<use data-text="n" xlink:href="#font_0_41" transform="matrix(9.9626,0,0,-9.9626,46.627084,174.899)" fill="#c9d1d9"/>
<use data-text="g" xlink:href="#font_0_34" transform="matrix(9.9626,0,0,-9.9626,52.076623,174.899)" fill="#c9d1d9"/>
<use data-text="i" xlink:href="#font_0_36" transform="matrix(9.9626,0,0,-9.9626,59.100259,174.899)" fill="#c9d1d9"/>
<use data-text="n" xlink:href="#font_0_41" transform="matrix(9.9626,0,0,-9.9626,61.570985,174.899)" fill="#c9d1d9"/>
<use data-text="s" xlink:href="#font_0_46" transform="matrix(9.9626,0,0,-9.9626,67.02052,174.899)" fill="#c9d1d9"/>
<use data-text="i" xlink:href="#font_0_36" transform="matrix(9.9626,0,0,-9.9626,71.194858,174.899)" fill="#c9d1d9"/>
<use data-text="d" xlink:href="#font_0_31" transform="matrix(9.9626,0,0,-9.9626,73.65562,174.899)" fill="#c9d1d9"/>
<use data-text="e" xlink:href="#font_0_32" transform="matrix(9.9626,0,0,-9.9626,79.18486,174.899)" fill="#c9d1d9"/>
<use data-text="t" xlink:href="#font_0_47" transform="matrix(9.9626,0,0,-9.9626,86.118839,174.899)" fill="#c9d1d9"/>
<use data-text="h" xlink:href="#font_0_35" transform="matrix(9.9626,0,0,-9.9626,89.496158,174.899)" fill="#c9d1d9"/>
<use data-text="e" xlink:href="#font_0_32" transform="matrix(9.9626,0,0,-9.9626,94.91581,174.899)" fill="#c9d1d9"/>
<use data-text="p" xlink:href="#font_0_43" transform="matrix(9.9626,0,0,-9.9626,101.849788,174.899)" fill="#c9d1d9"/>
<use data-text="a" xlink:href="#font_0_28" transform="matrix(9.9626,0,0,-9.9626,107.24951,174.899)" fill="#c9d1d9"/>
<use data-text="r" xlink:href="#font_0_45" transform="matrix(9.9626,0,0,-9.9626,112.27066,174.899)" fill="#c9d1d9"/>
<use data-text="e" xlink:href="#font_0_32" transform="matrix(9.9626,0,0,-9.9626,115.638019,174.899)" fill="#c9d1d9"/>
<use data-text="n" xlink:href="#font_0_41" transform="matrix(9.9626,0,0,-9.9626,120.57947,174.899)" fill="#c9d1d9"/>
<use data-text="t" xlink:href="#font_0_47" transform="matrix(9.9626,0,0,-9.9626,126.02901,174.899)" fill="#c9d1d9"/>
<use data-text="h" xlink:href="#font_0_35" transform="matrix(9.9626,0,0,-9.9626,129.40633,174.899)" fill="#c9d1d9"/>
<use data-text="e" xlink:href="#font_0_32" transform="matrix(9.9626,0,0,-9.9626,134.82598,174.899)" fill="#c9d1d9"/>
<use data-text="s" xlink:href="#font_0_46" transform="matrix(9.9626,0,0,-9.9626,139.76743,174.899)" fill="#c9d1d9"/>
<use data-text="e" xlink:href="#font_0_32" transform="matrix(9.9626,0,0,-9.9626,143.94176,174.899)" fill="#c9d1d9"/>
<use data-text="s" xlink:href="#font_0_46" transform="matrix(9.9626,0,0,-9.9626,148.88321,174.899)" fill="#c9d1d9"/>
<use data-text="i" xlink:href="#font_0_36" transform="matrix(9.9626,0,0,-9.9626,155.0401,174.899)" fill="#c9d1d9"/>
<use data-text="s" xlink:href="#font_0_46" transform="matrix(9.9626,0,0,-9.9626,157.50087,174.899)" fill="#c9d1d9"/>
<use data-text="t" xlink:href="#font_0_47" transform="matrix(9.9626,0,0,-9.9626,163.66773,174.899)" fill="#c9d1d9"/>
<use data-text="h" xlink:href="#font_0_35" transform="matrix(9.9626,0,0,-9.9626,167.04505,174.899)" fill="#c9d1d9"/>
<use data-text="e" xlink:href="#font_0_32" transform="matrix(9.9626,0,0,-9.9626,172.46469,174.899)" fill="#c9d1d9"/>
<use data-text="i" xlink:href="#font_1_36" transform="matrix(9.9626,0,0,-9.9626,179.399,174.899)" fill="#245fcd"/>
<use data-text="n" xlink:href="#font_1_41" transform="matrix(9.9626,0,0,-9.9626,182.18852,174.899)" fill="#245fcd"/>
<use data-text="p" xlink:href="#font_1_43" transform="matrix(9.9626,0,0,-9.9626,187.91703,174.899)" fill="#245fcd"/>
<use data-text="u" xlink:href="#font_1_48" transform="matrix(9.9626,0,0,-9.9626,193.64553,174.899)" fill="#245fcd"/>
<use data-text="t" xlink:href="#font_1_47" transform="matrix(9.9626,0,0,-9.9626,199.34413,174.899)" fill="#245fcd"/>
<path transform="matrix(1,0,0,-1,107.749,87.358)" stroke-width=".99628" stroke-linecap="butt" stroke-miterlimit="10" stroke-linejoin="miter" fill="none" stroke="#245fcd" d="M3.29964-76.7883 16.63824-43.44518"/>
<path transform="matrix(.37138,-.92844,-.92844,-.37138,124.572238,130.3407)" stroke-width=".99628" stroke-linecap="round" stroke-linejoin="round" fill="none" stroke="#245fcd" d="M-2.78957 3.47087C-2.27992 1.38832-1.14423 .40492 0 0-1.14423-.40492-2.27992-1.38832-2.78957-3.47087"/>
<path transform="matrix(1,0,0,-1,107.749,87.358)" stroke-width="1.99255" stroke-linecap="butt" stroke-miterlimit="10" stroke-linejoin="miter" fill="none" stroke="#884ef4" d="M-99.21382 56.69362V65.19774H99.21382V56.69362"/>
<use data-text="T" xlink:href="#font_0_21" transform="matrix(9.9626,0,0,-9.9626,27.14,10.611998)" fill="#c9d1d9"/>
<use data-text="h" xlink:href="#font_0_35" transform="matrix(9.9626,0,0,-9.9626,32.479955,10.611998)" fill="#c9d1d9"/>
<use data-text="e" xlink:href="#font_0_32" transform="matrix(9.9626,0,0,-9.9626,37.89961,10.611998)" fill="#c9d1d9"/>
<use data-text="e" xlink:href="#font_0_32" transform="matrix(9.9626,0,0,-9.9626,44.823617,10.611998)" fill="#c9d1d9"/>
<use data-text="n" xlink:href="#font_0_41" transform="matrix(9.9626,0,0,-9.9626,49.765066,10.611998)" fill="#c9d1d9"/>
<use data-text="t" xlink:href="#font_0_47" transform="matrix(9.9626,0,0,-9.9626,55.214609,10.611998)" fill="#c9d1d9"/>
<use data-text="i" xlink:href="#font_0_36" transform="matrix(9.9626,0,0,-9.9626,58.591928,10.611998)" fill="#c9d1d9"/>
<use data-text="r" xlink:href="#font_0_45" transform="matrix(9.9626,0,0,-9.9626,61.05269,10.611998)" fill="#c9d1d9"/>
<use data-text="e" xlink:href="#font_0_32" transform="matrix(9.9626,0,0,-9.9626,64.430019,10.611998)" fill="#c9d1d9"/>
<use data-text="e" xlink:href="#font_0_32" transform="matrix(9.9626,0,0,-9.9626,71.36399,10.611998)" fill="#c9d1d9"/>
<use data-text="x" xlink:href="#font_0_51" transform="matrix(9.9626,0,0,-9.9626,76.24567,10.611998)" fill="#c9d1d9"/>
<use data-text="p" xlink:href="#font_0_43" transform="matrix(9.9626,0,0,-9.9626,80.69895,10.611998)" fill="#c9d1d9"/>
<use data-text="r" xlink:href="#font_0_45" transform="matrix(9.9626,0,0,-9.9626,86.228199,10.611998)" fill="#c9d1d9"/>
<use data-text="e" xlink:href="#font_0_32" transform="matrix(9.9626,0,0,-9.9626,89.59556,10.611998)" fill="#c9d1d9"/>
<use data-text="s" xlink:href="#font_0_46" transform="matrix(9.9626,0,0,-9.9626,94.53701,10.611998)" fill="#c9d1d9"/>
<use data-text="s" xlink:href="#font_0_46" transform="matrix(9.9626,0,0,-9.9626,98.71134,10.611998)" fill="#c9d1d9"/>
<use data-text="i" xlink:href="#font_0_36" transform="matrix(9.9626,0,0,-9.9626,102.88567,10.611998)" fill="#c9d1d9"/>
<use data-text="o" xlink:href="#font_0_42" transform="matrix(9.9626,0,0,-9.9626,105.346439,10.611998)" fill="#c9d1d9"/>
<use data-text="n" xlink:href="#font_0_41" transform="matrix(9.9626,0,0,-9.9626,110.74616,10.611998)" fill="#c9d1d9"/>
<use data-text="f" xlink:href="#font_0_33" transform="matrix(9.9626,0,0,-9.9626,118.17826,10.611998)" fill="#c9d1d9"/>
<use data-text="(" xlink:href="#font_0_1305" transform="matrix(9.9626,0,0,-9.9626,121.08733,10.611998)" fill="#c9d1d9"/>
<use data-text="x" xlink:href="#font_0_51" transform="matrix(9.9626,0,0,-9.9626,124.11596,10.611998)" fill="#c9d1d9"/>
<use data-text=")" xlink:href="#font_0_1306" transform="matrix(9.9626,0,0,-9.9626,128.56925,10.611998)" fill="#c9d1d9"/>
<use data-text="i" xlink:href="#font_0_36" transform="matrix(9.9626,0,0,-9.9626,133.5904,10.611998)" fill="#c9d1d9"/>
<use data-text="s" xlink:href="#font_0_46" transform="matrix(9.9626,0,0,-9.9626,136.05115,10.611998)" fill="#c9d1d9"/>
<use data-text="t" xlink:href="#font_0_47" transform="matrix(9.9626,0,0,-9.9626,142.21802,10.611998)" fill="#c9d1d9"/>
<use data-text="h" xlink:href="#font_0_35" transform="matrix(9.9626,0,0,-9.9626,145.59534,10.611998)" fill="#c9d1d9"/>
<use data-text="e" xlink:href="#font_0_32" transform="matrix(9.9626,0,0,-9.9626,151.01499,10.611998)" fill="#c9d1d9"/>
<use data-text="o" xlink:href="#font_1_42" transform="matrix(9.9626,0,0,-9.9626,157.949,10.611998)" fill="#884ef4"/>
<use data-text="u" xlink:href="#font_1_48" transform="matrix(9.9626,0,0,-9.9626,163.49817,10.611998)" fill="#884ef4"/>
<use data-text="t" xlink:href="#font_1_47" transform="matrix(9.9626,0,0,-9.9626,169.19678,10.611998)" fill="#884ef4"/>
<use data-text="p" xlink:href="#font_1_43" transform="matrix(9.9626,0,0,-9.9626,173.06226,10.611998)" fill="#884ef4"/>
<use data-text="u" xlink:href="#font_1_48" transform="matrix(9.9626,0,0,-9.9626,178.79077,10.611998)" fill="#884ef4"/>
<use data-text="t" xlink:href="#font_1_47" transform="matrix(9.9626,0,0,-9.9626,184.48938,10.611998)" fill="#884ef4"/>
</svg>
